<svg width="536" height="345" viewBox="0 0 536 345" fill="none" xmlns="http://www.w3.org/2000/svg">
<path d="M238.438 139.165V135.532L247.547 121.182H250.679V126.21H248.825L243.083 135.298V135.468H256.027V139.165H238.438ZM248.911 143V138.057L248.996 136.448V121.182H253.321V143H248.911ZM267.655 143.479C265.823 143.472 264.246 143.021 262.925 142.126C261.611 141.232 260.599 139.935 259.889 138.238C259.186 136.54 258.838 134.499 258.845 132.112C258.845 129.733 259.196 127.705 259.9 126.029C260.61 124.353 261.622 123.078 262.936 122.205C264.257 121.324 265.83 120.884 267.655 120.884C269.48 120.884 271.05 121.324 272.364 122.205C273.685 123.085 274.701 124.364 275.411 126.04C276.121 127.709 276.473 129.733 276.466 132.112C276.466 134.506 276.11 136.551 275.4 138.249C274.697 139.946 273.689 141.242 272.375 142.137C271.061 143.032 269.488 143.479 267.655 143.479ZM267.655 139.655C268.905 139.655 269.903 139.026 270.649 137.769C271.395 136.512 271.764 134.626 271.757 132.112C271.757 130.457 271.586 129.08 271.245 127.979C270.912 126.878 270.436 126.05 269.818 125.496C269.207 124.942 268.486 124.665 267.655 124.665C266.412 124.665 265.418 125.287 264.672 126.53C263.926 127.773 263.55 129.634 263.543 132.112C263.543 133.788 263.71 135.188 264.044 136.31C264.385 137.425 264.864 138.263 265.482 138.824C266.1 139.378 266.824 139.655 267.655 139.655ZM279.425 139.165V135.532L288.533 121.182H291.665V126.21H289.812L284.069 135.298V135.468H297.013V139.165H279.425ZM289.897 143V138.057L289.982 136.448V121.182H294.307V143H289.897Z" fill="#6B7280"/>
<rect x="201" y="167" width="134" height="8" rx="4" fill="#9CA3AF"/>
<rect x="107.5" y="183" width="321" height="6" rx="3" fill="#6B7280"/>
<rect width="70" height="20" rx="3" transform="matrix(1 0 0 -1 233 235)" fill="#1A56DB"/>
<rect x="249" y="222" width="38" height="6" rx="2" fill="white"/>
</svg>
