<svg width="536" height="345" viewBox="0 0 536 345" fill="none" xmlns="http://www.w3.org/2000/svg">
<path d="M247.237 166.298C245.732 166.298 244.389 166.021 243.21 165.467C242.038 164.913 241.108 164.15 240.419 163.177C239.73 162.204 239.371 161.089 239.343 159.832H243.817C243.867 160.677 244.222 161.362 244.883 161.888C245.543 162.413 246.328 162.676 247.237 162.676C247.962 162.676 248.601 162.516 249.155 162.197C249.716 161.87 250.153 161.419 250.465 160.844C250.785 160.261 250.945 159.594 250.945 158.841C250.945 158.074 250.781 157.399 250.455 156.817C250.135 156.234 249.691 155.78 249.123 155.453C248.555 155.126 247.905 154.96 247.173 154.952C246.534 154.952 245.913 155.084 245.309 155.347C244.712 155.609 244.247 155.968 243.913 156.423L239.812 155.688L240.845 144.182H254.183V147.953H244.648L244.084 153.418H244.212C244.595 152.879 245.174 152.431 245.948 152.076C246.722 151.721 247.589 151.543 248.548 151.543C249.862 151.543 251.033 151.852 252.063 152.47C253.093 153.088 253.906 153.937 254.503 155.016C255.099 156.089 255.394 157.325 255.387 158.724C255.394 160.194 255.053 161.501 254.364 162.644C253.683 163.781 252.727 164.675 251.499 165.329C250.277 165.975 248.857 166.298 247.237 166.298ZM267.159 166.479C265.327 166.472 263.75 166.021 262.429 165.126C261.115 164.232 260.103 162.935 259.393 161.238C258.69 159.54 258.342 157.499 258.349 155.112C258.349 152.733 258.7 150.705 259.403 149.029C260.114 147.353 261.126 146.078 262.44 145.205C263.761 144.324 265.334 143.884 267.159 143.884C268.984 143.884 270.554 144.324 271.868 145.205C273.189 146.085 274.205 147.364 274.915 149.04C275.625 150.709 275.977 152.733 275.969 155.112C275.969 157.506 275.614 159.551 274.904 161.249C274.201 162.946 273.192 164.242 271.879 165.137C270.565 166.032 268.991 166.479 267.159 166.479ZM267.159 162.655C268.409 162.655 269.407 162.026 270.153 160.769C270.898 159.512 271.268 157.626 271.261 155.112C271.261 153.457 271.09 152.08 270.749 150.979C270.415 149.878 269.94 149.05 269.322 148.496C268.711 147.942 267.99 147.665 267.159 147.665C265.916 147.665 264.922 148.287 264.176 149.53C263.43 150.773 263.054 152.634 263.047 155.112C263.047 156.788 263.214 158.188 263.548 159.31C263.888 160.425 264.368 161.263 264.986 161.824C265.604 162.378 266.328 162.655 267.159 162.655ZM287.813 166.479C285.981 166.472 284.404 166.021 283.083 165.126C281.769 164.232 280.757 162.935 280.047 161.238C279.344 159.54 278.996 157.499 279.003 155.112C279.003 152.733 279.355 150.705 280.058 149.029C280.768 147.353 281.78 146.078 283.094 145.205C284.415 144.324 285.988 143.884 287.813 143.884C289.639 143.884 291.208 144.324 292.522 145.205C293.843 146.085 294.859 147.364 295.569 149.04C296.279 150.709 296.631 152.733 296.624 155.112C296.624 157.506 296.269 159.551 295.558 161.249C294.855 162.946 293.847 164.242 292.533 165.137C291.219 166.032 289.646 166.479 287.813 166.479ZM287.813 162.655C289.063 162.655 290.061 162.026 290.807 160.769C291.553 159.512 291.922 157.626 291.915 155.112C291.915 153.457 291.744 152.08 291.404 150.979C291.07 149.878 290.594 149.05 289.976 148.496C289.365 147.942 288.644 147.665 287.813 147.665C286.57 147.665 285.576 148.287 284.83 149.53C284.085 150.773 283.708 152.634 283.701 155.112C283.701 156.788 283.868 158.188 284.202 159.31C284.543 160.425 285.022 161.263 285.64 161.824C286.258 162.378 286.982 162.655 287.813 162.655Z" fill="#6B7280"/>
<rect x="201" y="190" width="134" height="8" rx="4" fill="#6B7280"/>
<rect x="107.5" y="206" width="321" height="6" rx="3" fill="#D1D5DB"/>
</svg>
