<svg width="536" height="345" viewBox="0 0 536 345" fill="none" xmlns="http://www.w3.org/2000/svg">
<g clip-path="url(#clip0_2916_4194)">
<rect x="133" y="102" width="57" height="6" rx="3" fill="#9CA3AF"/>
<rect x="133" y="126" width="270" height="4" rx="2" fill="#6B7280"/>
<rect x="133" y="136" width="112" height="4" rx="2" fill="#6B7280"/>
<rect x="133" y="158" width="51" height="3" rx="1.5" fill="#9CA3AF"/>
<rect x="132.5" y="168.5" width="271" height="17" rx="4.5" fill="#374151"/>
<rect x="140" y="176" width="56" height="2" rx="1" fill="#6B7280"/>
<rect x="132.5" y="168.5" width="271" height="17" rx="4.5" stroke="#4B5563"/>
<rect x="132.5" y="202.5" width="6" height="6" rx="1.5" fill="#374151"/>
<rect x="132.5" y="202.5" width="6" height="6" rx="1.5" stroke="#4B5563"/>
<rect x="143" y="203.5" width="136" height="4" rx="2" fill="#6B7280"/>
<rect x="133" y="226" width="66" height="17" rx="2" fill="#1A56DB"/>
<rect x="145" y="233" width="42" height="3" rx="1" fill="white"/>
</g>
<defs>
<clipPath id="clip0_2916_4194">
<rect width="536" height="345" fill="white"/>
</clipPath>
</defs>
</svg>
