<svg width="536" height="345" viewBox="0 0 536 345" fill="none" xmlns="http://www.w3.org/2000/svg">
<g filter="url(#filter0_dd_2871_4583)">
<rect x="14" y="16" width="508" height="40" rx="4" fill="#374151"/>
<rect x="72.5" y="32" width="106" height="8" rx="3" fill="#9CA3AF"/>
<path d="M368 28V27.5H367.5H198.5C197.119 27.5 196 28.6193 196 30V42C196 43.3807 197.119 44.5 198.5 44.5H367.5H368V44V28Z" fill="#4B5563"/>
<rect x="203.5" y="35" width="56" height="2" rx="1" fill="#6B7280"/>
<path d="M368 28V27.5H367.5H198.5C197.119 27.5 196 28.6193 196 30V42C196 43.3807 197.119 44.5 198.5 44.5H367.5H368V44V28Z" stroke="#6B7280"/>
<path d="M367.5 27.5H367V28V44V44.5H367.5H439.5C440.881 44.5 442 43.3807 442 42V30C442 28.6193 440.881 27.5 439.5 27.5H367.5Z" fill="#1A56DB"/>
<rect x="383.5" y="34" width="42" height="4" rx="1" fill="white"/>
<path d="M367.5 27.5H367V28V44V44.5H367.5H439.5C440.881 44.5 442 43.3807 442 42V30C442 28.6193 440.881 27.5 439.5 27.5H367.5Z" stroke="#1A56DB"/>
<mask id="path-8-inside-1_2871_4583" fill="white">
<path fill-rule="evenodd" clip-rule="evenodd" d="M502.146 33.1465C502.24 33.0528 502.367 33.0001 502.5 33.0001C502.632 33.0001 502.76 33.0528 502.853 33.1465L505 35.293L507.146 33.1465C507.193 33.0988 507.248 33.0607 507.309 33.0345C507.37 33.0083 507.435 32.9945 507.502 32.9939C507.568 32.9933 507.634 33.006 507.695 33.0311C507.757 33.0563 507.813 33.0934 507.86 33.1403C507.907 33.1873 507.944 33.2431 507.969 33.3046C507.994 33.366 508.007 33.4319 508.006 33.4982C508.005 33.5646 507.992 33.6302 507.965 33.6912C507.939 33.7522 507.901 33.8074 507.853 33.8535L505.707 36L507.853 38.1465C507.944 38.2408 507.995 38.3671 507.994 38.4982C507.993 38.6293 507.94 38.7547 507.847 38.8474C507.755 38.9402 507.629 38.9927 507.498 38.9939C507.367 38.995 507.241 38.9446 507.146 38.8535L505 36.707L502.853 38.8535C502.759 38.9446 502.633 38.995 502.502 38.9939C502.371 38.9927 502.245 38.9402 502.152 38.8474C502.06 38.7547 502.007 38.6293 502.006 38.4982C502.005 38.3671 502.055 38.2408 502.146 38.1465L504.293 36L502.146 33.8535C502.053 33.7598 502 33.6326 502 33.5C502 33.3675 502.053 33.2403 502.146 33.1465V33.1465Z"/>
</mask>
<path fill-rule="evenodd" clip-rule="evenodd" d="M502.146 33.1465C502.24 33.0528 502.367 33.0001 502.5 33.0001C502.632 33.0001 502.76 33.0528 502.853 33.1465L505 35.293L507.146 33.1465C507.193 33.0988 507.248 33.0607 507.309 33.0345C507.37 33.0083 507.435 32.9945 507.502 32.9939C507.568 32.9933 507.634 33.006 507.695 33.0311C507.757 33.0563 507.813 33.0934 507.86 33.1403C507.907 33.1873 507.944 33.2431 507.969 33.3046C507.994 33.366 508.007 33.4319 508.006 33.4982C508.005 33.5646 507.992 33.6302 507.965 33.6912C507.939 33.7522 507.901 33.8074 507.853 33.8535L505.707 36L507.853 38.1465C507.944 38.2408 507.995 38.3671 507.994 38.4982C507.993 38.6293 507.94 38.7547 507.847 38.8474C507.755 38.9402 507.629 38.9927 507.498 38.9939C507.367 38.995 507.241 38.9446 507.146 38.8535L505 36.707L502.853 38.8535C502.759 38.9446 502.633 38.995 502.502 38.9939C502.371 38.9927 502.245 38.9402 502.152 38.8474C502.06 38.7547 502.007 38.6293 502.006 38.4982C502.005 38.3671 502.055 38.2408 502.146 38.1465L504.293 36L502.146 33.8535C502.053 33.7598 502 33.6326 502 33.5C502 33.3675 502.053 33.2403 502.146 33.1465V33.1465Z" fill="#A1A1AA"/>
<path d="M502.853 33.1465L503.56 32.4394L503.56 32.4393L502.853 33.1465ZM505 35.293L504.293 36.0001L505 36.7073L505.707 36.0001L505 35.293ZM507.146 33.1465L507.853 33.8536L507.86 33.8475L507.866 33.8413L507.146 33.1465ZM507.853 33.8535L507.159 33.1343L507.152 33.1403L507.146 33.1464L507.853 33.8535ZM505.707 36L505 35.2929L504.293 36L505 36.7071L505.707 36ZM507.853 38.1465L508.573 37.4518L508.567 37.4456L508.56 37.4394L507.853 38.1465ZM507.146 38.8535L506.439 39.5606L506.445 39.5668L506.452 39.5728L507.146 38.8535ZM505 36.707L505.707 35.9999L505 35.2928L504.293 35.9999L505 36.707ZM502.853 38.8535L503.548 39.5728L503.554 39.5668L503.56 39.5606L502.853 38.8535ZM502.146 38.1465L501.439 37.4394L501.433 37.4456L501.427 37.4518L502.146 38.1465ZM504.293 36L505 36.7071L505.707 36L505 35.2929L504.293 36ZM502.146 33.8535L501.439 34.5605L501.439 34.5606L502.146 33.8535ZM502.853 33.8538C502.76 33.9475 502.632 34.0001 502.5 34.0001V32.0001C502.102 32.0001 501.721 32.1581 501.439 32.4393L502.853 33.8538ZM502.5 34.0001C502.367 34.0001 502.24 33.9475 502.146 33.8538L503.56 32.4393C503.279 32.1581 502.898 32.0001 502.5 32.0001V34.0001ZM502.146 33.8536L504.293 36.0001L505.707 34.5859L503.56 32.4394L502.146 33.8536ZM505.707 36.0001L507.853 33.8536L506.439 32.4394L504.293 34.5859L505.707 36.0001ZM507.866 33.8413C507.82 33.889 507.764 33.9271 507.703 33.9533L506.914 32.1157C506.731 32.1943 506.565 32.3086 506.427 32.4518L507.866 33.8413ZM507.703 33.9533C507.642 33.9795 507.577 33.9933 507.51 33.9939L507.493 31.994C507.294 31.9957 507.097 32.0371 506.914 32.1157L507.703 33.9533ZM507.51 33.9939C507.444 33.9945 507.378 33.9818 507.317 33.9567L508.074 32.1056C507.89 32.0302 507.692 31.9922 507.493 31.994L507.51 33.9939ZM507.317 33.9567C507.255 33.9315 507.199 33.8944 507.152 33.8474L508.567 32.4332C508.426 32.2924 508.258 32.181 508.074 32.1056L507.317 33.9567ZM507.152 33.8474C507.106 33.8005 507.068 33.7447 507.043 33.6832L508.894 32.9259C508.819 32.7416 508.708 32.5741 508.567 32.4332L507.152 33.8474ZM507.043 33.6832C507.018 33.6218 507.005 33.5559 507.006 33.4896L509.006 33.5069C509.008 33.3078 508.97 33.1102 508.894 32.9259L507.043 33.6832ZM507.006 33.4896C507.007 33.4232 507.02 33.3576 507.047 33.2966L508.884 34.0859C508.963 33.9029 509.004 33.7061 509.006 33.5069L507.006 33.4896ZM507.047 33.2966C507.073 33.2355 507.111 33.1804 507.159 33.1343L508.548 34.5728C508.691 34.4345 508.806 34.2689 508.884 34.0859L507.047 33.2966ZM507.146 33.1464L505 35.2929L506.414 36.7071L508.56 34.5606L507.146 33.1464ZM505 36.7071L507.146 38.8536L508.56 37.4394L506.414 35.2929L505 36.7071ZM507.134 38.8413C507.043 38.747 506.993 38.6207 506.994 38.4896L508.994 38.5069C508.997 38.1136 508.846 37.7347 508.573 37.4518L507.134 38.8413ZM506.994 38.4896C506.995 38.3585 507.047 38.233 507.14 38.1403L508.554 39.5546C508.833 39.2764 508.99 38.9002 508.994 38.5069L506.994 38.4896ZM507.14 38.1403C507.233 38.0476 507.358 37.9951 507.489 37.9939L507.507 39.9938C507.9 39.9904 508.276 39.8327 508.554 39.5546L507.14 38.1403ZM507.489 37.9939C507.621 37.9928 507.747 38.0432 507.841 38.1343L506.452 39.5728C506.735 39.8461 507.113 39.9973 507.507 39.9938L507.489 37.9939ZM507.853 38.1464L505.707 35.9999L504.293 37.4141L506.439 39.5606L507.853 38.1464ZM504.293 35.9999L502.146 38.1464L503.56 39.5606L505.707 37.4141L504.293 35.9999ZM502.159 38.1343C502.253 38.0432 502.379 37.9928 502.51 37.9939L502.493 39.9938C502.886 39.9973 503.265 39.8461 503.548 39.5728L502.159 38.1343ZM502.51 37.9939C502.641 37.9951 502.767 38.0476 502.86 38.1403L501.445 39.5546C501.723 39.8327 502.1 39.9904 502.493 39.9938L502.51 37.9939ZM502.86 38.1403C502.952 38.233 503.005 38.3585 503.006 38.4896L501.006 38.5069C501.01 38.9002 501.167 39.2764 501.445 39.5546L502.86 38.1403ZM503.006 38.4896C503.007 38.6207 502.957 38.747 502.866 38.8413L501.427 37.4518C501.154 37.7347 501.003 38.1136 501.006 38.5069L503.006 38.4896ZM502.854 38.8536L505 36.7071L503.586 35.2929L501.439 37.4394L502.854 38.8536ZM505 35.2929L502.854 33.1464L501.439 34.5606L503.586 36.7071L505 35.2929ZM502.854 33.1465C502.947 33.2403 503 33.3675 503 33.5H501C501 33.8978 501.158 34.2792 501.439 34.5605L502.854 33.1465ZM503 33.5C503 33.6326 502.947 33.7598 502.854 33.8535L501.439 32.4395C501.158 32.7208 501 33.1023 501 33.5H503Z" fill="#9CA3AF" mask="url(#path-8-inside-1_2871_4583)"/>
<rect x="13.5" y="15.5" width="509" height="41" rx="4.5" stroke="#4B5563"/>
</g>
<defs>
<filter id="filter0_dd_2871_4583" x="7" y="13" width="522" height="54" filterUnits="userSpaceOnUse" color-interpolation-filters="sRGB">
<feFlood flood-opacity="0" result="BackgroundImageFix"/>
<feColorMatrix in="SourceAlpha" type="matrix" values="0 0 0 0 0 0 0 0 0 0 0 0 0 0 0 0 0 0 127 0" result="hardAlpha"/>
<feOffset dy="4"/>
<feGaussianBlur stdDeviation="3"/>
<feColorMatrix type="matrix" values="0 0 0 0 0 0 0 0 0 0 0 0 0 0 0 0 0 0 0.1 0"/>
<feBlend mode="normal" in2="BackgroundImageFix" result="effect1_dropShadow_2871_4583"/>
<feColorMatrix in="SourceAlpha" type="matrix" values="0 0 0 0 0 0 0 0 0 0 0 0 0 0 0 0 0 0 127 0" result="hardAlpha"/>
<feOffset dy="2"/>
<feGaussianBlur stdDeviation="2"/>
<feColorMatrix type="matrix" values="0 0 0 0 0 0 0 0 0 0 0 0 0 0 0 0 0 0 0.06 0"/>
<feBlend mode="normal" in2="effect1_dropShadow_2871_4583" result="effect2_dropShadow_2871_4583"/>
<feBlend mode="normal" in="SourceGraphic" in2="effect2_dropShadow_2871_4583" result="shape"/>
</filter>
</defs>
</svg>
