<svg width="536" height="345" viewBox="0 0 536 345" fill="none" xmlns="http://www.w3.org/2000/svg">
<rect x="24" y="59" width="154.876" height="9" rx="4.5" fill="#9CA3AF"/>
<rect x="24" y="80" width="251" height="6" rx="3" fill="#6B7280"/>
<rect x="24" y="92" width="202" height="6" rx="3" fill="#6B7280"/>
<rect x="32" y="138" width="138.667" height="48" rx="5" fill="#374151"/>
<path fill-rule="evenodd" clip-rule="evenodd" d="M112.176 154.176C114.2 154.176 115.841 152.458 115.841 150.338C115.841 148.218 114.2 146.5 112.176 146.5C110.152 146.5 108.511 148.218 108.511 150.338C108.511 152.458 110.152 154.176 112.176 154.176ZM102.032 177.416H79.8765C79.0993 177.416 78.6192 176.569 79.019 175.902L94.1346 150.703C94.517 150.066 95.4333 150.049 95.832 150.676C97.7896 153.757 102.715 161.518 106.905 168.213L111.449 160.592C111.817 159.976 112.68 159.956 113.089 160.554L123.552 175.833C124.01 176.503 123.564 177.421 122.775 177.429L112.622 177.532L102.032 177.416Z" fill="#6B7280"/>
<rect x="32" y="196" width="51" height="5" rx="2" fill="#9CA3AF"/>
<rect x="32" y="209" width="88" height="4" rx="2" fill="#6B7280"/>
<rect x="32" y="217" width="79" height="4" rx="2" fill="#6B7280"/>
<rect x="32" y="225" width="83" height="4" rx="2" fill="#6B7280"/>
<rect x="32" y="239" width="34" height="5" rx="2" fill="#1C64F2"/>
<rect x="119.668" y="240" width="51" height="3" rx="1.5" fill="#4B5563"/>
<rect x="24.5" y="130.5" width="153.667" height="121" rx="4.5" stroke="#374151"/>
<rect x="198.668" y="138" width="138.667" height="48" rx="5" fill="#374151"/>
<path fill-rule="evenodd" clip-rule="evenodd" d="M278.844 154.176C280.868 154.176 282.509 152.458 282.509 150.338C282.509 148.218 280.868 146.5 278.844 146.5C276.82 146.5 275.179 148.218 275.179 150.338C275.179 152.458 276.82 154.176 278.844 154.176ZM268.7 177.416H246.545C245.767 177.416 245.287 176.569 245.687 175.902L260.803 150.703C261.185 150.066 262.101 150.049 262.5 150.676C264.458 153.757 269.383 161.518 273.573 168.213L278.117 160.592C278.485 159.976 279.348 159.956 279.757 160.554L290.22 175.833C290.678 176.503 290.232 177.421 289.443 177.429L279.29 177.532L268.7 177.416Z" fill="#6B7280"/>
<rect x="198.668" y="196" width="51" height="5" rx="2" fill="#9CA3AF"/>
<rect x="198.668" y="209" width="88" height="4" rx="2" fill="#6B7280"/>
<rect x="198.668" y="217" width="79" height="4" rx="2" fill="#6B7280"/>
<rect x="198.668" y="225" width="83" height="4" rx="2" fill="#6B7280"/>
<rect x="198.668" y="239" width="34" height="5" rx="2" fill="#1C64F2"/>
<rect x="286.336" y="240" width="51" height="3" rx="1.5" fill="#4B5563"/>
<rect x="191.168" y="130.5" width="153.667" height="121" rx="4.5" stroke="#374151"/>
<rect x="365.332" y="138" width="138.667" height="48" rx="5" fill="#374151"/>
<path fill-rule="evenodd" clip-rule="evenodd" d="M445.508 154.176C447.532 154.176 449.173 152.458 449.173 150.338C449.173 148.218 447.532 146.5 445.508 146.5C443.484 146.5 441.843 148.218 441.843 150.338C441.843 152.458 443.484 154.176 445.508 154.176ZM435.364 177.416H413.209C412.431 177.416 411.951 176.569 412.351 175.902L427.467 150.703C427.849 150.066 428.765 150.049 429.164 150.676C431.122 153.757 436.047 161.518 440.237 168.213L444.781 160.592C445.149 159.976 446.012 159.956 446.421 160.554L456.884 175.833C457.342 176.503 456.896 177.421 456.107 177.429L445.954 177.532L435.364 177.416Z" fill="#6B7280"/>
<rect x="365.332" y="196" width="51" height="5" rx="2" fill="#9CA3AF"/>
<rect x="365.332" y="209" width="88" height="4" rx="2" fill="#6B7280"/>
<rect x="365.332" y="217" width="79" height="4" rx="2" fill="#6B7280"/>
<rect x="365.332" y="225" width="83" height="4" rx="2" fill="#6B7280"/>
<rect x="365.332" y="239" width="34" height="5" rx="2" fill="#1C64F2"/>
<rect x="453" y="240" width="51" height="3" rx="1.5" fill="#4B5563"/>
<rect x="357.832" y="130.5" width="153.667" height="121" rx="4.5" stroke="#374151"/>
<rect x="238.5" y="273" width="59" height="13" rx="3" fill="#374151"/>
<rect x="250.5" y="277.455" width="35" height="4.09043" rx="2" fill="#9CA3AF"/>
</svg>
