<svg width="536" height="345" viewBox="0 0 536 345" fill="none" xmlns="http://www.w3.org/2000/svg">
<rect x="16" y="34" width="153" height="9" rx="4.5" fill="#9CA3AF"/>
<rect x="16" y="57" width="315" height="6" rx="3" fill="#6B7280"/>
<rect x="16" y="69" width="286" height="6" rx="3" fill="#6B7280"/>
<rect x="16" y="81" width="342" height="6" rx="3" fill="#6B7280"/>
<rect x="16" y="119" width="121.5" height="92" rx="8" fill="#374151"/>
<path fill-rule="evenodd" clip-rule="evenodd" d="M88.3438 157.176C90.3679 157.176 92.0087 155.458 92.0087 153.338C92.0087 151.218 90.3679 149.5 88.3438 149.5C86.3197 149.5 84.6788 151.218 84.6788 153.338C84.6788 155.458 86.3197 157.176 88.3438 157.176ZM78.2 180.416H56.0445C55.2673 180.416 54.7871 179.569 55.187 178.902L70.3025 153.703C70.6849 153.066 71.6013 153.049 72 153.676C73.9576 156.757 78.8828 164.518 83.0727 171.213L87.6172 163.592C87.9849 162.976 88.8476 162.956 89.2573 163.554L99.7196 178.833C100.178 179.503 99.7323 180.421 98.9428 180.429L88.7903 180.532L78.2 180.416Z" fill="#6B7280"/>
<rect x="145.5" y="119" width="245" height="92" rx="8" fill="#374151"/>
<path fill-rule="evenodd" clip-rule="evenodd" d="M279.844 157.176C281.868 157.176 283.509 155.458 283.509 153.338C283.509 151.218 281.868 149.5 279.844 149.5C277.82 149.5 276.179 151.218 276.179 153.338C276.179 155.458 277.82 157.176 279.844 157.176ZM269.7 180.416H247.545C246.767 180.416 246.287 179.569 246.687 178.902L261.803 153.703C262.185 153.066 263.101 153.049 263.5 153.676C265.458 156.757 270.383 164.518 274.573 171.213L279.117 163.592C279.485 162.976 280.348 162.956 280.757 163.554L291.22 178.833C291.678 179.503 291.232 180.421 290.443 180.429L280.29 180.532L269.7 180.416Z" fill="#6B7280"/>
<rect x="398.5" y="119" width="121.5" height="92" rx="8" fill="#374151"/>
<path fill-rule="evenodd" clip-rule="evenodd" d="M470.844 157.176C472.868 157.176 474.509 155.458 474.509 153.338C474.509 151.218 472.868 149.5 470.844 149.5C468.82 149.5 467.179 151.218 467.179 153.338C467.179 155.458 468.82 157.176 470.844 157.176ZM460.7 180.416H438.545C437.767 180.416 437.287 179.569 437.687 178.902L452.803 153.703C453.185 153.066 454.101 153.049 454.5 153.676C456.458 156.757 461.383 164.518 465.573 171.213L470.117 163.592C470.485 162.976 471.348 162.956 471.757 163.554L482.22 178.833C482.678 179.503 482.232 180.421 481.443 180.429L471.29 180.532L460.7 180.416Z" fill="#6B7280"/>
<rect x="16" y="219" width="279" height="92" rx="8" fill="#374151"/>
<path fill-rule="evenodd" clip-rule="evenodd" d="M167.344 257.176C169.368 257.176 171.009 255.458 171.009 253.338C171.009 251.218 169.368 249.5 167.344 249.5C165.32 249.5 163.679 251.218 163.679 253.338C163.679 255.458 165.32 257.176 167.344 257.176ZM157.2 280.416H135.045C134.267 280.416 133.787 279.569 134.187 278.902L149.303 253.703C149.685 253.066 150.601 253.049 151 253.676C152.958 256.757 157.883 264.518 162.073 271.213L166.617 263.592C166.985 262.976 167.848 262.956 168.257 263.554L178.72 278.833C179.178 279.503 178.732 280.421 177.943 280.429L167.79 280.532L157.2 280.416Z" fill="#6B7280"/>
<rect x="303" y="219" width="104.5" height="92" rx="8" fill="#374151"/>
<path fill-rule="evenodd" clip-rule="evenodd" d="M366.344 257.176C368.368 257.176 370.009 255.458 370.009 253.338C370.009 251.218 368.368 249.5 366.344 249.5C364.32 249.5 362.679 251.218 362.679 253.338C362.679 255.458 364.32 257.176 366.344 257.176ZM356.2 280.416H334.045C333.267 280.416 332.787 279.569 333.187 278.902L348.303 253.703C348.685 253.066 349.601 253.049 350 253.676C351.958 256.757 356.883 264.518 361.073 271.213L365.617 263.592C365.985 262.976 366.848 262.956 367.257 263.554L377.72 278.833C378.178 279.503 377.732 280.421 376.943 280.429L366.79 280.532L356.2 280.416Z" fill="#6B7280"/>
<rect x="415.5" y="219" width="104.5" height="92" rx="8" fill="#374151"/>
<path fill-rule="evenodd" clip-rule="evenodd" d="M478.844 257.176C480.868 257.176 482.509 255.458 482.509 253.338C482.509 251.218 480.868 249.5 478.844 249.5C476.82 249.5 475.179 251.218 475.179 253.338C475.179 255.458 476.82 257.176 478.844 257.176ZM468.7 280.416H446.545C445.767 280.416 445.287 279.569 445.687 278.902L460.803 253.703C461.185 253.066 462.101 253.049 462.5 253.676C464.458 256.757 469.383 264.518 473.573 271.213L478.117 263.592C478.485 262.976 479.348 262.956 479.757 263.554L490.22 278.833C490.678 279.503 490.232 280.421 489.443 280.429L479.29 280.532L468.7 280.416Z" fill="#6B7280"/>
</svg>
