<svg width="536" height="345" viewBox="0 0 536 345" fill="none" xmlns="http://www.w3.org/2000/svg">
<g clip-path="url(#clip0_2871_4303)">
<rect x="190.562" y="39.5" width="154.876" height="9" rx="4.5" fill="#9CA3AF"/>
<rect x="142.5" y="60.5" width="251" height="6" rx="3" fill="#6B7280"/>
<rect x="167" y="72.5" width="202" height="6" rx="3" fill="#6B7280"/>
<rect x="132" y="113.5" width="51" height="3" rx="1.5" fill="#9CA3AF"/>
<rect x="131.5" y="124" width="132" height="17" rx="4.5" fill="#374151"/>
<rect x="139" y="131.5" width="56" height="2" rx="1" fill="#6B7280"/>
<rect x="131.5" y="124" width="132" height="17" rx="4.5" stroke="#4B5563"/>
<rect x="273" y="113.5" width="51" height="3" rx="1.5" fill="#9CA3AF"/>
<rect x="272.5" y="124" width="132" height="17" rx="4.5" fill="#374151"/>
<rect x="280" y="131.5" width="56" height="2" rx="1" fill="#6B7280"/>
<rect x="272.5" y="124" width="132" height="17" rx="4.5" stroke="#4B5563"/>
<rect x="132" y="152.5" width="51" height="3" rx="1.5" fill="#9CA3AF"/>
<rect x="131.5" y="163" width="132" height="17" rx="4.5" fill="#374151"/>
<rect x="139" y="170.5" width="56" height="2" rx="1" fill="#6B7280"/>
<rect x="131.5" y="163" width="132" height="17" rx="4.5" stroke="#4B5563"/>
<rect x="273" y="152.5" width="51" height="3" rx="1.5" fill="#9CA3AF"/>
<rect x="272.5" y="163" width="132" height="17" rx="4.5" fill="#374151"/>
<rect x="280" y="170.5" width="56" height="2" rx="1" fill="#6B7280"/>
<rect x="272.5" y="163" width="132" height="17" rx="4.5" stroke="#4B5563"/>
<rect x="132" y="191.5" width="51" height="3" rx="1.5" fill="#9CA3AF"/>
<rect x="132.5" y="203" width="271" height="62" fill="#374151"/>
<rect x="131.5" y="202" width="273" height="64" rx="4.5" fill="#374151"/>
<rect x="139" y="209.5" width="56" height="2" rx="1" fill="#6B7280"/>
<rect x="131.5" y="202" width="273" height="64" rx="4.5" stroke="#4B5563"/>
<rect x="132.5" y="203" width="271" height="62" stroke="#4B5563"/>
<rect x="132" y="277.5" width="66" height="17" rx="2" fill="#1A56DB"/>
<rect x="144" y="284.5" width="42" height="3" rx="1" fill="white"/>
</g>
<defs>
<clipPath id="clip0_2871_4303">
<rect width="536" height="345" fill="white"/>
</clipPath>
</defs>
</svg>
