<svg width="536" height="345" viewBox="0 0 536 345" fill="none" xmlns="http://www.w3.org/2000/svg">
<g clip-path="url(#clip0_2871_4542)">
<g filter="url(#filter0_dd_2871_4542)">
<rect x="181.5" y="35.7722" width="174" height="190.455" rx="8" fill="#374151"/>
<g clip-path="url(#clip1_2871_4542)">
<path fill-rule="evenodd" clip-rule="evenodd" d="M201.858 47.7722C202.138 47.7722 202.366 48.0002 202.366 48.281C202.366 48.5618 202.138 48.7899 201.858 48.7899C201.577 48.7899 201.349 48.5618 201.349 48.281C201.35 48.0002 201.577 47.7722 201.858 47.7722ZM201.994 52.2035C202.433 52.8587 202.988 53.0595 203.71 52.6162C203.734 52.863 203.74 53.1148 203.727 53.3701C203.585 56.1916 201.183 58.3638 198.361 58.2217C195.541 58.0788 193.368 55.6768 193.51 52.8562C193.652 50.0347 196.137 47.8386 198.958 47.9807C198.708 48.7635 198.919 49.4586 199.556 49.6952C198.979 51.5484 200.267 52.7609 201.994 52.2035ZM196.059 51.8385C196.482 51.8385 196.824 52.1814 196.824 52.6035C196.824 53.0255 196.481 53.3684 196.059 53.3684C195.636 53.3684 195.294 53.0255 195.294 52.6035C195.294 52.1814 195.637 51.8385 196.059 51.8385ZM198.469 52.8136C198.712 52.8136 198.909 53.011 198.909 53.2544C198.909 53.4977 198.712 53.6951 198.469 53.6951C198.225 53.6951 198.028 53.4977 198.028 53.2544C198.027 53.011 198.224 52.8136 198.469 52.8136ZM196.556 54.6294C196.853 54.6294 197.094 54.8702 197.094 55.1671C197.094 55.4641 196.853 55.7049 196.556 55.7049C196.259 55.7049 196.018 55.4641 196.018 55.1671C196.018 54.8693 196.259 54.6294 196.556 54.6294ZM197.715 50.5146C197.948 50.5146 198.136 50.7035 198.136 50.9358C198.136 51.1689 197.947 51.3569 197.715 51.3569C197.482 51.3569 197.293 51.168 197.293 50.9358C197.293 50.7035 197.482 50.5146 197.715 50.5146ZM200.003 54.8174C200.394 54.8174 200.71 55.1339 200.71 55.5236C200.71 55.9142 200.393 56.2299 200.003 56.2299C199.613 56.2299 199.297 55.9133 199.297 55.5236C199.297 55.1339 199.614 54.8174 200.003 54.8174ZM201.491 49.7377C201.753 49.7377 201.966 49.9504 201.966 50.2125C201.966 50.4746 201.753 50.6873 201.491 50.6873C201.229 50.6873 201.016 50.4746 201.016 50.2125C201.016 49.9504 201.229 49.7377 201.491 49.7377Z" fill="#4B5563"/>
</g>
<rect x="211.73" y="49" width="76" height="8" rx="3" fill="#9CA3AF"/>
<path d="M327.25 53C327.25 53.9946 326.855 54.9484 326.152 55.6516C325.448 56.3549 324.495 56.75 323.5 56.75M327.25 53C327.25 52.0054 326.855 51.0516 326.152 50.3483C325.448 49.6451 324.495 49.25 323.5 49.25M327.25 53H319.75M323.5 56.75C322.505 56.75 321.552 56.3549 320.848 55.6516C320.145 54.9484 319.75 53.9946 319.75 53M323.5 56.75C324.19 56.75 324.75 55.0708 324.75 53C324.75 50.9292 324.19 49.25 323.5 49.25M323.5 56.75C322.81 56.75 322.25 55.0708 322.25 53C322.25 50.9292 322.81 49.25 323.5 49.25M323.5 49.25C322.505 49.25 321.552 49.6451 320.848 50.3483C320.145 51.0516 319.75 52.0054 319.75 53" stroke="#9CA3AF" stroke-linecap="round" stroke-linejoin="round"/>
<path d="M335.634 55.4183C336.508 54.9241 337.496 54.6651 338.5 54.6667C339.542 54.6667 340.52 54.9396 341.366 55.4183M339.75 52.1667C339.75 52.4982 339.618 52.8161 339.384 53.0506C339.149 53.285 338.832 53.4167 338.5 53.4167C338.168 53.4167 337.851 53.285 337.616 53.0506C337.382 52.8161 337.25 52.4982 337.25 52.1667C337.25 51.8351 337.382 51.5172 337.616 51.2828C337.851 51.0484 338.168 50.9167 338.5 50.9167C338.832 50.9167 339.149 51.0484 339.384 51.2828C339.618 51.5172 339.75 51.8351 339.75 52.1667ZM342.25 53C342.25 53.4925 342.153 53.9801 341.965 54.4351C341.776 54.89 341.5 55.3034 341.152 55.6516C340.803 55.9999 340.39 56.2761 339.935 56.4645C339.48 56.653 338.992 56.75 338.5 56.75C338.008 56.75 337.52 56.653 337.065 56.4645C336.61 56.2761 336.197 55.9999 335.848 55.6516C335.5 55.3034 335.224 54.89 335.035 54.4351C334.847 53.9801 334.75 53.4925 334.75 53C334.75 52.0054 335.145 51.0516 335.848 50.3483C336.552 49.6451 337.505 49.25 338.5 49.25C339.495 49.25 340.448 49.6451 341.152 50.3483C341.855 51.0516 342.25 52.0054 342.25 53Z" stroke="#9CA3AF" stroke-linecap="round" stroke-linejoin="round"/>
<line x1="181.5" y1="69.7278" x2="355.5" y2="69.7278" stroke="#4B5563"/>
<rect x="193.5" y="84.2278" width="139" height="6" rx="3" fill="#6B7280"/>
<rect x="193.5" y="96.2278" width="150" height="6" rx="3" fill="#6B7280"/>
<rect x="193.5" y="108.228" width="139" height="6" rx="3" fill="#6B7280"/>
<rect x="193.5" y="120.228" width="144" height="6" rx="3" fill="#6B7280"/>
<rect x="193.5" y="132.228" width="126" height="6" rx="3" fill="#6B7280"/>
<rect x="193.5" y="144.228" width="139" height="6" rx="3" fill="#6B7280"/>
<rect x="193.5" y="156.228" width="110" height="6" rx="3" fill="#6B7280"/>
<rect x="193.5" y="168.228" width="139" height="6" rx="3" fill="#6B7280"/>
<line x1="181.5" y1="187.728" x2="355.5" y2="187.728" stroke="#4B5563"/>
<rect x="221.5" y="200.228" width="41" height="14" rx="2" fill="#1A56DB"/>
<rect x="274.5" y="200.228" width="41" height="14" rx="2" fill="#4B5563"/>
<rect x="181" y="35.2722" width="175" height="191.455" rx="8.5" stroke="#4B5563"/>
</g>
</g>
<g filter="url(#filter1_dd_2871_4542)">
<rect x="24" y="286.272" width="488" height="34.4555" rx="4" fill="#374151"/>
<g clip-path="url(#clip2_2871_4542)">
<path fill-rule="evenodd" clip-rule="evenodd" d="M44.3575 298.272C44.6383 298.272 44.8664 298.5 44.8664 298.781C44.8664 299.062 44.6383 299.29 44.3575 299.29C44.0767 299.29 43.8487 299.062 43.8487 298.781C43.8496 298.5 44.0767 298.272 44.3575 298.272ZM44.4937 302.704C44.9327 303.359 45.4883 303.56 46.2099 303.116C46.2337 303.363 46.2397 303.615 46.2269 303.87C46.0848 306.692 43.6828 308.864 40.8613 308.722C38.0407 308.579 35.8684 306.177 36.0105 303.356C36.1517 300.535 38.6371 298.339 41.4578 298.481C41.2076 299.264 41.4195 299.959 42.0559 300.195C41.479 302.049 42.7673 303.261 44.4937 302.704ZM38.5589 302.339C38.9817 302.339 39.3238 302.682 39.3238 303.104C39.3238 303.526 38.9809 303.869 38.5589 303.869C38.136 303.869 37.7939 303.526 37.7939 303.104C37.7939 302.682 38.1368 302.339 38.5589 302.339ZM40.9685 303.314C41.2119 303.314 41.4093 303.511 41.4093 303.755C41.4093 303.998 41.2119 304.195 40.9685 304.195C40.7252 304.195 40.5278 303.998 40.5278 303.755C40.5269 303.511 40.7243 303.314 40.9685 303.314ZM39.0558 305.13C39.3527 305.13 39.5935 305.37 39.5935 305.667C39.5935 305.964 39.3527 306.205 39.0558 306.205C38.7588 306.205 38.518 305.964 38.518 305.667C38.518 305.37 38.7588 305.13 39.0558 305.13ZM40.2146 301.015C40.4478 301.015 40.6358 301.204 40.6358 301.436C40.6358 301.669 40.4469 301.857 40.2146 301.857C39.9815 301.857 39.7935 301.668 39.7935 301.436C39.7935 301.204 39.9824 301.015 40.2146 301.015ZM42.5035 305.318C42.894 305.318 43.2097 305.634 43.2097 306.024C43.2097 306.414 42.8932 306.73 42.5035 306.73C42.1129 306.73 41.7973 306.414 41.7973 306.024C41.7973 305.634 42.1138 305.318 42.5035 305.318ZM43.9908 300.238C44.2529 300.238 44.4656 300.451 44.4656 300.713C44.4656 300.975 44.2529 301.188 43.9908 301.188C43.7287 301.188 43.516 300.975 43.516 300.713C43.516 300.451 43.7287 300.238 43.9908 300.238Z" fill="#4B5563"/>
</g>
<rect x="54.2305" y="299.5" width="65" height="8" rx="3" fill="#9CA3AF"/>
<rect x="167.23" y="301" width="271" height="5" rx="2.5" fill="#6B7280"/>
<mask id="path-25-inside-1_2871_4542" fill="white">
<path fill-rule="evenodd" clip-rule="evenodd" d="M492.146 300.646C492.24 300.553 492.367 300.5 492.5 300.5C492.632 300.5 492.76 300.553 492.853 300.646L495 302.793L497.146 300.646C497.193 300.599 497.248 300.56 497.309 300.534C497.37 300.508 497.435 300.494 497.502 300.494C497.568 300.493 497.634 300.506 497.695 300.531C497.757 300.556 497.813 300.593 497.86 300.64C497.907 300.687 497.944 300.743 497.969 300.804C497.994 300.866 498.007 300.932 498.006 300.998C498.005 301.064 497.992 301.13 497.965 301.191C497.939 301.252 497.901 301.307 497.853 301.353L495.707 303.5L497.853 305.646C497.944 305.741 497.995 305.867 497.994 305.998C497.993 306.129 497.94 306.255 497.847 306.347C497.755 306.44 497.629 306.492 497.498 306.494C497.367 306.495 497.241 306.444 497.146 306.353L495 304.207L492.853 306.353C492.759 306.444 492.633 306.495 492.502 306.494C492.371 306.492 492.245 306.44 492.152 306.347C492.06 306.255 492.007 306.129 492.006 305.998C492.005 305.867 492.055 305.741 492.146 305.646L494.293 303.5L492.146 301.353C492.053 301.26 492 301.132 492 301C492 300.867 492.053 300.74 492.146 300.646V300.646Z"/>
</mask>
<path fill-rule="evenodd" clip-rule="evenodd" d="M492.146 300.646C492.24 300.553 492.367 300.5 492.5 300.5C492.632 300.5 492.76 300.553 492.853 300.646L495 302.793L497.146 300.646C497.193 300.599 497.248 300.56 497.309 300.534C497.37 300.508 497.435 300.494 497.502 300.494C497.568 300.493 497.634 300.506 497.695 300.531C497.757 300.556 497.813 300.593 497.86 300.64C497.907 300.687 497.944 300.743 497.969 300.804C497.994 300.866 498.007 300.932 498.006 300.998C498.005 301.064 497.992 301.13 497.965 301.191C497.939 301.252 497.901 301.307 497.853 301.353L495.707 303.5L497.853 305.646C497.944 305.741 497.995 305.867 497.994 305.998C497.993 306.129 497.94 306.255 497.847 306.347C497.755 306.44 497.629 306.492 497.498 306.494C497.367 306.495 497.241 306.444 497.146 306.353L495 304.207L492.853 306.353C492.759 306.444 492.633 306.495 492.502 306.494C492.371 306.492 492.245 306.44 492.152 306.347C492.06 306.255 492.007 306.129 492.006 305.998C492.005 305.867 492.055 305.741 492.146 305.646L494.293 303.5L492.146 301.353C492.053 301.26 492 301.132 492 301C492 300.867 492.053 300.74 492.146 300.646V300.646Z" fill="#A1A1AA"/>
<path d="M492.853 300.646L493.56 299.939L493.56 299.939L492.853 300.646ZM495 302.793L494.293 303.5L495 304.207L495.707 303.5L495 302.793ZM497.146 300.646L497.853 301.353L497.86 301.347L497.866 301.341L497.146 300.646ZM497.853 301.353L497.159 300.634L497.152 300.64L497.146 300.646L497.853 301.353ZM495.707 303.5L495 302.793L494.293 303.5L495 304.207L495.707 303.5ZM497.853 305.646L498.573 304.952L498.567 304.945L498.56 304.939L497.853 305.646ZM497.146 306.353L496.439 307.06L496.445 307.067L496.452 307.073L497.146 306.353ZM495 304.207L495.707 303.5L495 302.793L494.293 303.5L495 304.207ZM492.853 306.353L493.548 307.073L493.554 307.067L493.56 307.06L492.853 306.353ZM492.146 305.646L491.439 304.939L491.433 304.945L491.427 304.952L492.146 305.646ZM494.293 303.5L495 304.207L495.707 303.5L495 302.793L494.293 303.5ZM492.146 301.353L491.439 302.06L491.439 302.06L492.146 301.353ZM492.853 301.354C492.76 301.447 492.632 301.5 492.5 301.5V299.5C492.102 299.5 491.721 299.658 491.439 299.939L492.853 301.354ZM492.5 301.5C492.367 301.5 492.24 301.447 492.146 301.354L493.56 299.939C493.279 299.658 492.898 299.5 492.5 299.5V301.5ZM492.146 301.353L494.293 303.5L495.707 302.086L493.56 299.939L492.146 301.353ZM495.707 303.5L497.853 301.353L496.439 299.939L494.293 302.086L495.707 303.5ZM497.866 301.341C497.82 301.389 497.764 301.427 497.703 301.453L496.914 299.615C496.731 299.694 496.565 299.808 496.427 299.952L497.866 301.341ZM497.703 301.453C497.642 301.479 497.577 301.493 497.51 301.494L497.493 299.494C497.294 299.495 497.097 299.537 496.914 299.615L497.703 301.453ZM497.51 301.494C497.444 301.494 497.378 301.482 497.317 301.456L498.074 299.605C497.89 299.53 497.692 299.492 497.493 299.494L497.51 301.494ZM497.317 301.456C497.255 301.431 497.199 301.394 497.152 301.347L498.567 299.933C498.426 299.792 498.258 299.681 498.074 299.605L497.317 301.456ZM497.152 301.347C497.106 301.3 497.068 301.244 497.043 301.183L498.894 300.426C498.819 300.241 498.708 300.074 498.567 299.933L497.152 301.347ZM497.043 301.183C497.018 301.122 497.005 301.056 497.006 300.989L499.006 301.007C499.008 300.808 498.97 300.61 498.894 300.426L497.043 301.183ZM497.006 300.989C497.007 300.923 497.02 300.857 497.047 300.796L498.884 301.586C498.963 301.403 499.004 301.206 499.006 301.007L497.006 300.989ZM497.047 300.796C497.073 300.735 497.111 300.68 497.159 300.634L498.548 302.073C498.691 301.934 498.806 301.769 498.884 301.586L497.047 300.796ZM497.146 300.646L495 302.793L496.414 304.207L498.56 302.06L497.146 300.646ZM495 304.207L497.146 306.353L498.56 304.939L496.414 302.793L495 304.207ZM497.134 306.341C497.043 306.247 496.993 306.12 496.994 305.989L498.994 306.007C498.997 305.613 498.846 305.234 498.573 304.952L497.134 306.341ZM496.994 305.989C496.995 305.858 497.047 305.733 497.14 305.64L498.554 307.054C498.833 306.776 498.99 306.4 498.994 306.007L496.994 305.989ZM497.14 305.64C497.233 305.547 497.358 305.495 497.489 305.494L497.507 307.494C497.9 307.49 498.276 307.332 498.554 307.054L497.14 305.64ZM497.489 305.494C497.621 305.493 497.747 305.543 497.841 305.634L496.452 307.073C496.735 307.346 497.113 307.497 497.507 307.494L497.489 305.494ZM497.853 305.646L495.707 303.5L494.293 304.914L496.439 307.06L497.853 305.646ZM494.293 303.5L492.146 305.646L493.56 307.06L495.707 304.914L494.293 303.5ZM492.159 305.634C492.253 305.543 492.379 305.493 492.51 305.494L492.493 307.494C492.886 307.497 493.265 307.346 493.548 307.073L492.159 305.634ZM492.51 305.494C492.641 305.495 492.767 305.547 492.86 305.64L491.445 307.054C491.723 307.332 492.1 307.49 492.493 307.494L492.51 305.494ZM492.86 305.64C492.952 305.733 493.005 305.858 493.006 305.989L491.006 306.007C491.01 306.4 491.167 306.776 491.445 307.054L492.86 305.64ZM493.006 305.989C493.007 306.12 492.957 306.247 492.866 306.341L491.427 304.952C491.154 305.234 491.003 305.613 491.006 306.007L493.006 305.989ZM492.854 306.353L495 304.207L493.586 302.793L491.439 304.939L492.854 306.353ZM495 302.793L492.854 300.646L491.439 302.06L493.586 304.207L495 302.793ZM492.854 300.646C492.947 300.74 493 300.867 493 301H491C491 301.398 491.158 301.779 491.439 302.06L492.854 300.646ZM493 301C493 301.132 492.947 301.26 492.854 301.353L491.439 299.939C491.158 300.221 491 300.602 491 301H493Z" fill="#9CA3AF" mask="url(#path-25-inside-1_2871_4542)"/>
<rect x="23.5" y="285.772" width="489" height="35.4555" rx="4.5" stroke="#4B5563"/>
</g>
<defs>
<filter id="filter0_dd_2871_4542" x="174.5" y="32.7722" width="188" height="204.455" filterUnits="userSpaceOnUse" color-interpolation-filters="sRGB">
<feFlood flood-opacity="0" result="BackgroundImageFix"/>
<feColorMatrix in="SourceAlpha" type="matrix" values="0 0 0 0 0 0 0 0 0 0 0 0 0 0 0 0 0 0 127 0" result="hardAlpha"/>
<feOffset dy="4"/>
<feGaussianBlur stdDeviation="3"/>
<feColorMatrix type="matrix" values="0 0 0 0 0 0 0 0 0 0 0 0 0 0 0 0 0 0 0.1 0"/>
<feBlend mode="normal" in2="BackgroundImageFix" result="effect1_dropShadow_2871_4542"/>
<feColorMatrix in="SourceAlpha" type="matrix" values="0 0 0 0 0 0 0 0 0 0 0 0 0 0 0 0 0 0 127 0" result="hardAlpha"/>
<feOffset dy="2"/>
<feGaussianBlur stdDeviation="2"/>
<feColorMatrix type="matrix" values="0 0 0 0 0 0 0 0 0 0 0 0 0 0 0 0 0 0 0.06 0"/>
<feBlend mode="normal" in2="effect1_dropShadow_2871_4542" result="effect2_dropShadow_2871_4542"/>
<feBlend mode="normal" in="SourceGraphic" in2="effect2_dropShadow_2871_4542" result="shape"/>
</filter>
<filter id="filter1_dd_2871_4542" x="17" y="283.272" width="502" height="48.4556" filterUnits="userSpaceOnUse" color-interpolation-filters="sRGB">
<feFlood flood-opacity="0" result="BackgroundImageFix"/>
<feColorMatrix in="SourceAlpha" type="matrix" values="0 0 0 0 0 0 0 0 0 0 0 0 0 0 0 0 0 0 127 0" result="hardAlpha"/>
<feOffset dy="4"/>
<feGaussianBlur stdDeviation="3"/>
<feColorMatrix type="matrix" values="0 0 0 0 0 0 0 0 0 0 0 0 0 0 0 0 0 0 0.1 0"/>
<feBlend mode="normal" in2="BackgroundImageFix" result="effect1_dropShadow_2871_4542"/>
<feColorMatrix in="SourceAlpha" type="matrix" values="0 0 0 0 0 0 0 0 0 0 0 0 0 0 0 0 0 0 127 0" result="hardAlpha"/>
<feOffset dy="2"/>
<feGaussianBlur stdDeviation="2"/>
<feColorMatrix type="matrix" values="0 0 0 0 0 0 0 0 0 0 0 0 0 0 0 0 0 0 0.06 0"/>
<feBlend mode="normal" in2="effect1_dropShadow_2871_4542" result="effect2_dropShadow_2871_4542"/>
<feBlend mode="normal" in="SourceGraphic" in2="effect2_dropShadow_2871_4542" result="shape"/>
</filter>
<clipPath id="clip0_2871_4542">
<rect width="195" height="213" fill="white" transform="translate(170.5 24.2722)"/>
</clipPath>
<clipPath id="clip1_2871_4542">
<rect width="10.23" height="10.4555" fill="white" transform="translate(193.5 47.7722)"/>
</clipPath>
<clipPath id="clip2_2871_4542">
<rect width="10.23" height="10.4555" fill="white" transform="translate(36 298.272)"/>
</clipPath>
</defs>
</svg>
