<svg width="536" height="345" viewBox="0 0 536 345" fill="none" xmlns="http://www.w3.org/2000/svg">
<g clip-path="url(#clip0_2808_7792)">
<rect x="37" y="46" width="112" height="9" rx="4.5" fill="#9CA3AF"/>
<rect x="37" y="64" width="193" height="6" rx="3" fill="#D1D5DB"/>
<rect x="37" y="76" width="219" height="6" rx="3" fill="#D1D5DB"/>
<rect x="37" y="88" width="130" height="6" rx="3" fill="#D1D5DB"/>
<path d="M168.5 110V109.5H168H39C37.6193 109.5 36.5 110.619 36.5 112V124C36.5 125.381 37.6193 126.5 39 126.5H168H168.5V126V110Z" fill="white"/>
<rect x="44" y="117" width="56" height="2" rx="1" fill="#E5E7EB"/>
<path d="M168.5 110V109.5H168H39C37.6193 109.5 36.5 110.619 36.5 112V124C36.5 125.381 37.6193 126.5 39 126.5H168H168.5V126V110Z" stroke="#D1D5DB"/>
<path d="M168 109.5H167.5V110V126V126.5H168H240C241.381 126.5 242.5 125.381 242.5 124V112C242.5 110.619 241.381 109.5 240 109.5H168Z" fill="#1A56DB"/>
<rect x="184" y="116" width="42" height="4" rx="1" fill="white"/>
<path d="M168 109.5H167.5V110V126V126.5H168H240C241.381 126.5 242.5 125.381 242.5 124V112C242.5 110.619 241.381 109.5 240 109.5H168Z" stroke="#1A56DB"/>
<rect x="337" y="29" width="162" height="114" rx="8" fill="#F3F4F6"/>
<path fill-rule="evenodd" clip-rule="evenodd" d="M429.344 78.1759C431.368 78.1759 433.009 76.4576 433.009 74.3379C433.009 72.2183 431.368 70.5 429.344 70.5C427.32 70.5 425.679 72.2183 425.679 74.3379C425.679 76.4576 427.32 78.1759 429.344 78.1759ZM419.2 101.416H397.045C396.267 101.416 395.787 100.569 396.187 99.902L411.303 74.7033C411.685 74.0658 412.601 74.049 413 74.6764C414.958 77.7568 419.883 85.5179 424.073 92.2128L428.617 84.5924C428.985 83.9759 429.848 83.9557 430.257 84.554L440.72 99.8333C441.178 100.503 440.732 101.421 439.943 101.429L429.79 101.532L419.2 101.416Z" fill="#D1D5DB"/>
<rect x="37" y="202" width="162" height="114" rx="8" fill="#F3F4F6"/>
<path fill-rule="evenodd" clip-rule="evenodd" d="M129.344 251.176C131.368 251.176 133.009 249.458 133.009 247.338C133.009 245.218 131.368 243.5 129.344 243.5C127.32 243.5 125.679 245.218 125.679 247.338C125.679 249.458 127.32 251.176 129.344 251.176ZM119.2 274.416H97.0445C96.2673 274.416 95.7871 273.569 96.187 272.902L111.303 247.703C111.685 247.066 112.601 247.049 113 247.676C114.958 250.757 119.883 258.518 124.073 265.213L128.617 257.592C128.985 256.976 129.848 256.956 130.257 257.554L140.72 272.833C141.178 273.503 140.732 274.421 139.943 274.429L129.79 274.532L119.2 274.416Z" fill="#D1D5DB"/>
<rect x="261" y="219" width="112" height="9" rx="4.5" fill="#9CA3AF"/>
<rect x="261" y="237" width="193" height="6" rx="3" fill="#D1D5DB"/>
<rect x="261" y="249" width="219" height="6" rx="3" fill="#D1D5DB"/>
<rect x="261" y="261" width="130" height="6" rx="3" fill="#D1D5DB"/>
<path d="M333 282.5H263C261.619 282.5 260.5 283.619 260.5 285V297C260.5 298.381 261.619 299.5 263 299.5H333C334.381 299.5 335.5 298.381 335.5 297V285C335.5 283.619 334.381 282.5 333 282.5Z" fill="#1A56DB"/>
<rect x="277" y="289" width="42" height="4" rx="1" fill="white"/>
<path d="M333 282.5H263C261.619 282.5 260.5 283.619 260.5 285V297C260.5 298.381 261.619 299.5 263 299.5H333C334.381 299.5 335.5 298.381 335.5 297V285C335.5 283.619 334.381 282.5 333 282.5Z" stroke="#1A56DB"/>
</g>
<defs>
<clipPath id="clip0_2808_7792">
<rect width="536" height="345" fill="white"/>
</clipPath>
</defs>
</svg>
