<svg width="536" height="345" viewBox="0 0 536 345" fill="none" xmlns="http://www.w3.org/2000/svg">
<rect x="190.562" y="121.816" width="154.876" height="9" rx="4.5" fill="#9CA3AF"/>
<rect x="142.5" y="142.816" width="251" height="6" rx="3" fill="#6B7280"/>
<rect x="167" y="154.816" width="202" height="6" rx="3" fill="#6B7280"/>
<path d="M57.2312 217.118C59.7917 217.118 61.7212 216.28 63.2316 214.706C64.7864 213.15 65.2691 210.97 65.2691 209.207C65.2691 208.66 65.2272 208.158 65.1432 207.737H57.2312V210.087H62.8556C62.6877 211.409 62.2452 212.375 61.5764 213.046C60.7564 213.863 59.4776 214.767 57.2312 214.767C53.7688 214.767 51.0608 211.976 51.0608 208.513C51.0608 205.05 53.7688 202.257 57.2312 202.257C59.0977 202.257 60.4642 202.993 61.4698 203.938L63.1284 202.28C61.7212 200.938 59.8547 199.908 57.2312 199.908C52.4871 199.908 48.5 203.768 48.5 208.513C48.5 213.256 52.4871 217.118 57.2312 217.118ZM71.6721 217.118C74.7346 217.118 77.2321 214.767 77.2321 211.576C77.2321 208.366 74.7346 206.037 71.6721 206.037C68.6044 206.037 66.1069 208.366 66.1069 211.576C66.1069 214.767 68.6044 217.118 71.6721 217.118ZM71.6721 214.935C69.9914 214.935 68.5415 213.55 68.5415 211.576C68.5415 209.584 69.9914 208.221 71.6721 208.221C73.3494 208.221 74.7975 209.584 74.7975 211.576C74.7975 213.55 73.3494 214.935 71.6721 214.935V214.935ZM83.8012 217.118C86.8654 217.118 89.363 214.767 89.363 211.576C89.363 208.366 86.8654 206.037 83.8012 206.037C80.7353 206.037 78.2378 208.366 78.2378 211.576C78.2378 214.767 80.7353 217.118 83.8012 217.118ZM83.8012 214.935C82.1222 214.935 80.6723 213.55 80.6723 211.576C80.6723 209.584 82.1222 208.221 83.8012 208.221C85.4802 208.221 86.9284 209.584 86.9284 211.576C86.9284 213.55 85.4802 214.935 83.8012 214.935V214.935ZM95.7222 222.092C98.5748 222.092 100.992 220.415 100.992 216.321V206.372H98.6815V207.275H98.5975C98.0501 206.624 97.0007 206.037 95.682 206.037C92.9099 206.037 90.3721 208.471 90.3721 211.598C90.3721 214.706 92.9099 217.118 95.682 217.118C97.0007 217.118 98.0501 216.53 98.5975 215.859H98.6815V216.656C98.6815 218.778 97.5481 219.909 95.7222 219.909C94.2338 219.909 93.3086 218.841 92.9291 217.935L90.8111 218.818C91.4215 220.289 93.0358 222.092 95.7222 222.092V222.092ZM95.8884 214.935C94.2111 214.935 92.8032 213.531 92.8032 211.598C92.8032 209.646 94.2111 208.221 95.8884 208.221C97.5482 208.221 98.8494 209.646 98.8494 211.598C98.8494 213.531 97.5482 214.935 95.8884 214.935ZM105.104 200.496H102.669V216.782H105.104V200.496ZM111.778 217.118C114.316 217.118 115.786 215.567 116.395 214.663L114.504 213.405C113.877 214.325 113.016 214.935 111.778 214.935C110.54 214.935 109.656 214.369 109.091 213.256L116.5 210.19L116.248 209.563C115.786 208.324 114.378 206.037 111.505 206.037C108.651 206.037 106.279 208.284 106.279 211.576C106.279 214.684 108.63 217.118 111.778 217.118V217.118ZM108.693 211.409C108.63 209.27 110.351 208.177 111.589 208.177C112.554 208.177 113.373 208.66 113.647 209.353L108.693 211.409Z" fill="#9CA3AF"/>
<g clip-path="url(#clip0_2871_4420)">
<path d="M245.485 210.323V208.74H243.519V206.279L243.453 206.3L241.607 206.863H241.572V208.726H238.658V207.685C238.658 207.207 238.771 206.834 238.982 206.588C239.193 206.342 239.502 206.219 239.882 206.219C240.163 206.219 240.458 206.29 240.739 206.416L240.81 206.444V204.784L240.782 204.77C240.514 204.675 240.149 204.626 239.699 204.626C239.129 204.626 238.609 204.753 238.152 205.001C237.695 205.24 237.336 205.599 237.09 206.049C236.837 206.499 236.711 207.019 236.711 207.589V208.728H235.346V210.31H236.718V216.976H238.679V210.31H241.595V214.543C241.595 216.287 242.415 217.173 244.042 217.173C244.309 217.173 244.59 217.139 244.872 217.081C245.164 217.018 245.364 216.955 245.476 216.891L245.505 216.877V215.281L245.425 215.335C245.32 215.405 245.186 215.466 245.031 215.508C244.877 215.55 244.743 215.579 244.643 215.579C244.264 215.579 243.982 215.48 243.809 215.278C243.631 215.078 243.542 214.723 243.542 214.224V210.328H245.497L245.493 210.318L245.485 210.323ZM230.937 215.583C230.225 215.583 229.662 215.346 229.264 214.88C228.868 214.412 228.666 213.745 228.666 212.897C228.666 212.022 228.868 211.336 229.266 210.861C229.662 210.388 230.219 210.148 230.922 210.148C231.604 210.148 232.139 210.377 232.533 210.83C232.926 211.285 233.123 211.964 233.123 212.849C233.123 213.745 232.94 214.433 232.575 214.893C232.209 215.35 231.661 215.582 230.944 215.582L230.937 215.583ZM231.028 208.542C229.671 208.542 228.589 208.94 227.819 209.726C227.052 210.513 226.66 211.6 226.66 212.96C226.66 214.254 227.04 215.291 227.794 216.047C228.547 216.806 229.571 217.2 230.837 217.2C232.153 217.2 233.213 216.792 233.981 216.001C234.754 215.205 235.138 214.127 235.138 212.8C235.138 211.488 234.773 210.44 234.049 209.692C233.324 208.937 232.309 208.556 231.025 208.556L231.028 208.542ZM223.488 208.556C222.559 208.556 221.797 208.792 221.209 209.259C220.624 209.729 220.324 210.342 220.324 211.087C220.324 211.477 220.39 211.818 220.518 212.114C220.644 212.405 220.841 212.662 221.104 212.879C221.364 213.089 221.765 213.314 222.299 213.545C222.749 213.728 223.08 213.883 223.294 214.009C223.504 214.127 223.654 214.248 223.729 214.366C223.814 214.478 223.856 214.64 223.856 214.83C223.856 215.388 223.443 215.657 222.59 215.657C222.273 215.657 221.911 215.59 221.516 215.46C221.117 215.33 220.748 215.143 220.414 214.903L220.33 214.847V216.731L220.358 216.745C220.639 216.872 220.986 216.984 221.399 217.068C221.81 217.16 222.186 217.202 222.51 217.202C223.515 217.202 224.324 216.963 224.914 216.496C225.505 216.024 225.807 215.392 225.807 214.623C225.807 214.068 225.645 213.589 225.326 213.206C225.009 212.822 224.461 212.472 223.692 212.163C223.085 211.917 222.694 211.713 222.525 211.558C222.37 211.406 222.298 211.192 222.298 210.922C222.298 210.683 222.396 210.491 222.597 210.336C222.798 210.178 223.079 210.099 223.431 210.099C223.758 210.099 224.092 210.148 224.429 210.25C224.76 210.354 225.051 210.489 225.294 210.655L225.376 210.712V208.912L225.348 208.897C225.12 208.799 224.823 208.717 224.462 208.651C224.104 208.583 223.778 208.553 223.495 208.553L223.488 208.556ZM215.198 215.591C214.488 215.591 213.926 215.356 213.532 214.888C213.131 214.424 212.931 213.756 212.931 212.905C212.931 212.033 213.132 211.344 213.531 210.871C213.925 210.399 214.483 210.158 215.184 210.158C215.866 210.158 216.407 210.387 216.797 210.84C217.185 211.297 217.388 211.976 217.388 212.861C217.388 213.755 217.198 214.443 216.833 214.904C216.474 215.361 215.925 215.593 215.201 215.593L215.198 215.591ZM215.3 208.554C213.936 208.554 212.853 208.951 212.086 209.737C211.315 210.524 210.926 211.611 210.926 212.971C210.926 214.265 211.306 215.302 212.053 216.058C212.807 216.817 213.829 217.211 215.094 217.211C216.416 217.211 217.471 216.803 218.244 216.009C219.014 215.212 219.405 214.133 219.405 212.806C219.405 211.493 219.039 210.446 218.322 209.698C217.598 208.942 216.581 208.561 215.298 208.561L215.3 208.554ZM207.959 210.184V208.75H206.018V216.997H207.959V212.779C207.959 212.062 208.121 211.471 208.442 211.024C208.759 210.58 209.18 210.363 209.694 210.363C209.869 210.363 210.066 210.392 210.283 210.448C210.494 210.504 210.646 210.56 210.733 210.631L210.817 210.687V208.732L210.786 208.718C210.604 208.637 210.35 208.597 210.027 208.597C209.542 208.597 209.106 208.755 208.732 209.061C208.401 209.334 208.164 209.705 207.983 210.169H207.948L207.965 210.183L207.959 210.184ZM202.531 208.553C201.638 208.553 200.843 208.739 200.168 209.115C199.488 209.495 198.966 210.029 198.608 210.719C198.256 211.401 198.073 212.199 198.073 213.088C198.073 213.869 198.25 214.582 198.593 215.213C198.941 215.846 199.43 216.338 200.049 216.682C200.663 217.022 201.378 217.196 202.168 217.196C203.091 217.196 203.877 217.013 204.51 216.647L204.538 216.633V214.853L204.453 214.911C204.167 215.122 203.849 215.287 203.504 215.407C203.161 215.527 202.849 215.587 202.576 215.587C201.812 215.587 201.202 215.348 200.758 214.88C200.308 214.402 200.083 213.741 200.083 212.912C200.083 212.068 200.322 211.393 200.783 210.901C201.247 210.394 201.857 210.141 202.604 210.141C203.237 210.141 203.861 210.359 204.448 210.781L204.533 210.837V208.967L204.51 208.953C204.288 208.826 203.987 208.728 203.61 208.648C203.24 208.57 202.875 208.533 202.528 208.533L202.531 208.553ZM196.741 208.729H194.804V216.984H196.744V208.729H196.741ZM195.785 205.221C195.466 205.221 195.188 205.329 194.958 205.544C194.729 205.761 194.612 206.032 194.612 206.353C194.612 206.669 194.73 206.936 194.957 207.147C195.182 207.358 195.463 207.462 195.787 207.462C196.11 207.462 196.391 207.357 196.62 207.146C196.85 206.935 196.967 206.668 196.967 206.351C196.967 206.042 196.855 205.775 196.63 205.55C196.405 205.339 196.123 205.226 195.786 205.226L195.785 205.221ZM190.941 208.13V216.99H192.924V205.487H190.182L186.706 214.036L183.324 205.486H180.474V216.997H182.337V208.142H182.4L185.972 217H187.375L190.891 208.142H190.958L190.947 208.138L190.941 208.13ZM165.58 211.709H174.706V220.844H165.566L165.578 211.716L165.58 211.709ZM155.499 211.715H164.624V220.844H155.496L155.499 211.716V211.715ZM165.58 201.634H174.707V210.761H165.575L165.58 201.631V201.634ZM155.499 201.633H164.624V210.761H155.496L155.499 201.631V201.633Z" fill="#9CA3AF"/>
</g>
<path d="M315.914 209.875C318.287 210.452 319.255 211.348 319.255 212.968C319.255 214.884 317.791 216.123 315.524 216.123C313.923 216.123 312.438 215.554 311.231 214.476C311.206 214.454 311.191 214.423 311.188 214.39C311.186 214.357 311.197 214.324 311.218 214.299L312.285 213.03C312.296 213.017 312.309 213.006 312.324 212.999C312.339 212.991 312.356 212.986 312.373 212.985C312.389 212.984 312.406 212.986 312.423 212.991C312.439 212.996 312.453 213.005 312.466 213.016C313.504 213.914 314.431 214.296 315.568 214.296C316.592 214.296 317.228 213.853 317.228 213.141C317.228 212.498 316.913 212.138 315.049 211.709C312.859 211.179 311.592 210.494 311.592 208.557C311.592 206.751 313.061 205.49 315.164 205.49C316.594 205.49 317.818 205.913 318.905 206.785C318.957 206.827 318.968 206.903 318.929 206.959L317.978 208.299C317.968 208.313 317.955 208.324 317.941 208.333C317.926 208.342 317.91 208.348 317.893 208.351C317.876 208.353 317.859 208.353 317.843 208.349C317.826 208.345 317.811 208.337 317.797 208.327C316.884 207.647 316.013 207.316 315.134 207.316C314.229 207.316 313.619 207.752 313.619 208.398C313.619 209.083 313.967 209.409 315.914 209.874L315.914 209.875ZM324.382 207.954C323.4 207.954 322.594 208.341 321.929 209.133V208.241C321.929 208.207 321.916 208.175 321.892 208.151C321.868 208.127 321.836 208.114 321.802 208.114H320.058C320.024 208.114 319.992 208.127 319.968 208.151C319.944 208.175 319.931 208.207 319.931 208.241V218.157C319.931 218.226 319.988 218.284 320.058 218.284H321.802C321.873 218.284 321.93 218.226 321.93 218.156V215.026C322.595 215.771 323.4 216.136 324.383 216.136C326.208 216.136 328.056 214.731 328.056 212.045C328.056 209.359 326.207 207.954 324.382 207.954ZM326.026 212.046C326.026 213.413 325.184 214.368 323.978 214.368C322.785 214.368 321.885 213.37 321.885 212.046C321.885 210.722 322.785 209.724 323.978 209.724C325.165 209.724 326.027 210.7 326.027 212.046H326.026ZM332.791 207.954C330.44 207.954 328.599 209.764 328.599 212.075C328.599 214.361 330.427 216.152 332.762 216.152C335.12 216.152 336.967 214.348 336.967 212.046C336.967 209.752 335.133 207.954 332.791 207.954L332.791 207.954ZM332.791 214.382C331.54 214.382 330.597 213.377 330.597 212.045C330.597 210.708 331.508 209.738 332.762 209.738C334.02 209.738 334.969 210.742 334.969 212.075C334.969 213.411 334.053 214.381 332.791 214.381V214.382ZM341.987 208.114C342.058 208.114 342.115 208.171 342.115 208.241V209.74C342.115 209.757 342.111 209.773 342.105 209.789C342.099 209.804 342.089 209.818 342.078 209.83C342.066 209.842 342.052 209.852 342.036 209.858C342.021 209.864 342.004 209.868 341.987 209.868H340.069V213.473C340.069 214.043 340.319 214.296 340.878 214.296C341.235 214.298 341.586 214.213 341.902 214.049C341.921 214.039 341.943 214.035 341.965 214.036C341.987 214.037 342.008 214.044 342.026 214.055C342.045 214.067 342.06 214.083 342.071 214.102C342.081 214.121 342.087 214.142 342.087 214.164V215.591C342.087 215.636 342.062 215.679 342.023 215.702C341.533 215.979 341.015 216.108 340.389 216.108C338.85 216.108 338.07 215.313 338.07 213.746V209.868H337.232C337.215 209.868 337.198 209.865 337.183 209.858C337.167 209.852 337.153 209.842 337.142 209.83C337.13 209.819 337.121 209.805 337.114 209.789C337.108 209.774 337.105 209.757 337.105 209.74V208.241C337.105 208.171 337.161 208.114 337.232 208.114H338.07V206.151C338.07 206.081 338.127 206.024 338.198 206.024H339.942C340.013 206.024 340.07 206.081 340.07 206.151V208.114H341.989H341.987ZM351.653 208.121C351.706 208.121 351.754 208.153 351.773 208.203L353.81 213.519L355.67 208.206C355.679 208.181 355.695 208.16 355.717 208.144C355.738 208.129 355.764 208.12 355.791 208.12H357.606C357.627 208.12 357.648 208.125 357.666 208.135C357.684 208.145 357.7 208.159 357.712 208.176C357.723 208.193 357.731 208.213 357.733 208.234C357.735 208.255 357.732 208.276 357.725 208.295L354.699 216.114C354.072 217.728 353.359 218.327 352.072 218.327C351.383 218.327 350.826 218.185 350.209 217.851C350.18 217.836 350.159 217.81 350.149 217.779C350.139 217.749 350.14 217.715 350.154 217.686L350.745 216.389C350.753 216.373 350.763 216.359 350.776 216.347C350.789 216.335 350.804 216.326 350.821 216.32C350.837 216.315 350.855 216.313 350.873 216.314C350.89 216.316 350.907 216.321 350.923 216.33C351.254 216.511 351.577 216.602 351.885 216.602C352.264 216.602 352.543 216.477 352.826 215.849L350.332 209.868H348.703V215.851C348.703 215.921 348.646 215.979 348.576 215.979H346.832C346.815 215.979 346.798 215.975 346.783 215.969C346.767 215.962 346.753 215.953 346.741 215.941C346.729 215.929 346.72 215.915 346.714 215.9C346.707 215.884 346.704 215.867 346.704 215.851V209.868H345.866C345.832 209.868 345.8 209.854 345.776 209.83C345.752 209.806 345.739 209.774 345.738 209.74V208.234C345.738 208.163 345.796 208.106 345.866 208.106H346.704V207.737C346.704 206.022 347.555 205.115 349.166 205.115C349.828 205.115 350.27 205.22 350.616 205.322C350.67 205.339 350.706 205.389 350.706 205.445V206.914C350.707 206.934 350.702 206.955 350.693 206.973C350.684 206.991 350.671 207.007 350.654 207.019C350.638 207.03 350.619 207.038 350.599 207.041C350.578 207.044 350.558 207.043 350.539 207.036C350.211 206.927 349.919 206.855 349.556 206.855C348.947 206.855 348.675 207.171 348.675 207.88V208.121H351.653H351.653ZM344.798 208.114C344.868 208.114 344.925 208.171 344.925 208.241V215.85C344.925 215.92 344.868 215.978 344.797 215.978H343.053C343.019 215.978 342.987 215.964 342.963 215.94C342.939 215.917 342.925 215.884 342.925 215.85V208.241C342.925 208.171 342.983 208.114 343.053 208.114H344.797H344.798ZM343.934 204.649C344.266 204.649 344.584 204.781 344.819 205.015C345.053 205.25 345.185 205.568 345.185 205.9C345.185 206.231 345.053 206.549 344.819 206.784C344.584 207.019 344.266 207.15 343.934 207.15C343.603 207.15 343.285 207.019 343.05 206.784C342.815 206.549 342.684 206.231 342.684 205.9C342.684 205.568 342.815 205.25 343.05 205.015C343.285 204.781 343.603 204.649 343.934 204.649ZM359.213 210.56C359.052 210.56 358.892 210.529 358.743 210.467C358.594 210.406 358.458 210.316 358.344 210.202C358.23 210.087 358.14 209.952 358.078 209.803C358.017 209.654 357.986 209.494 357.986 209.332C357.986 209.17 358.018 209.01 358.08 208.86C358.142 208.711 358.233 208.575 358.348 208.46C358.462 208.345 358.598 208.255 358.748 208.193C358.898 208.131 359.058 208.099 359.22 208.099C359.381 208.098 359.541 208.129 359.69 208.191C359.839 208.252 359.975 208.342 360.089 208.456C360.203 208.571 360.294 208.706 360.355 208.855C360.417 209.004 360.448 209.164 360.447 209.325C360.447 209.488 360.415 209.648 360.353 209.798C360.291 209.948 360.201 210.084 360.086 210.198C359.971 210.313 359.835 210.404 359.686 210.466C359.536 210.528 359.376 210.56 359.213 210.56V210.56ZM359.22 208.221C358.591 208.221 358.116 208.721 358.116 209.333C358.116 209.944 358.588 210.437 359.213 210.437C359.842 210.437 360.318 209.938 360.318 209.326C360.318 208.714 359.845 208.221 359.22 208.221ZM359.492 209.452L359.839 209.938H359.546L359.235 209.492H358.966V209.938H358.72V208.65H359.295C359.594 208.65 359.791 208.803 359.791 209.061C359.791 209.272 359.669 209.401 359.492 209.451L359.492 209.452ZM359.284 208.871H358.965V209.278H359.284C359.444 209.278 359.539 209.2 359.539 209.074C359.539 208.941 359.444 208.87 359.284 208.87V208.871ZM296.503 199.461C290.273 199.461 285.223 204.582 285.223 210.812C285.222 216.667 289.681 221.392 295.388 222.109H297.619C303.326 221.392 307.784 216.667 307.784 210.812C307.784 204.582 302.734 199.461 296.504 199.461H296.503ZM301.677 215.732C301.629 215.811 301.566 215.88 301.491 215.934C301.416 215.989 301.332 216.028 301.242 216.049C301.152 216.071 301.059 216.075 300.968 216.061C300.876 216.046 300.789 216.014 300.71 215.966C298.061 214.347 294.727 213.981 290.8 214.878C290.71 214.899 290.617 214.901 290.526 214.886C290.435 214.871 290.348 214.838 290.269 214.789C290.191 214.739 290.123 214.675 290.07 214.6C290.016 214.525 289.978 214.44 289.958 214.35C289.937 214.26 289.934 214.167 289.95 214.076C289.965 213.984 289.998 213.897 290.048 213.819C290.097 213.741 290.161 213.673 290.236 213.62C290.312 213.566 290.397 213.528 290.487 213.508C294.784 212.526 298.47 212.949 301.444 214.766C301.603 214.863 301.716 215.019 301.76 215.201C301.804 215.382 301.774 215.573 301.676 215.732L301.677 215.732ZM303.057 212.66C302.935 212.859 302.739 213.001 302.512 213.055C302.286 213.11 302.047 213.072 301.848 212.95C298.816 211.086 294.193 210.546 290.606 211.635C290.383 211.703 290.142 211.679 289.937 211.569C289.731 211.459 289.577 211.272 289.509 211.049C289.369 210.584 289.631 210.094 290.095 209.953C294.193 208.709 299.286 209.311 302.768 211.451C302.967 211.573 303.109 211.769 303.163 211.996C303.217 212.222 303.179 212.461 303.058 212.66H303.057ZM303.176 209.462C299.54 207.302 293.542 207.104 290.07 208.157C289.803 208.238 289.513 208.21 289.267 208.078C289.02 207.946 288.836 207.721 288.755 207.453C288.673 207.186 288.702 206.897 288.834 206.65C288.966 206.403 289.19 206.219 289.458 206.138C293.443 204.928 300.067 205.162 304.254 207.646C304.373 207.717 304.477 207.81 304.56 207.921C304.643 208.032 304.704 208.158 304.738 208.293C304.772 208.427 304.78 208.567 304.76 208.704C304.74 208.841 304.694 208.973 304.623 209.092C304.552 209.211 304.459 209.316 304.348 209.399C304.237 209.482 304.11 209.542 303.976 209.577C303.842 209.611 303.702 209.618 303.565 209.599C303.428 209.579 303.296 209.532 303.176 209.461L303.176 209.462Z" fill="#9CA3AF"/>
<g clip-path="url(#clip1_2871_4420)">
<path d="M434.914 208.294C433.818 208.294 433.275 209.158 433.026 209.714C432.887 210.025 432.848 210.271 432.735 210.271C432.576 210.271 432.69 210.057 432.56 209.584C432.389 208.96 431.873 208.294 430.777 208.294C429.625 208.294 429.131 209.268 428.897 209.803C428.737 210.169 428.737 210.271 428.614 210.271C428.436 210.271 428.584 209.98 428.664 209.639C428.822 208.966 428.702 208.453 428.702 208.453H426.875V215.321H429.368C429.368 215.321 429.368 212.451 429.368 211.904C429.368 211.23 429.65 210.374 430.134 210.374C430.692 210.374 430.804 210.803 430.804 211.597C430.804 212.317 430.804 215.323 430.804 215.323H433.307C433.307 215.323 433.307 212.435 433.307 211.904C433.307 211.304 433.552 210.374 434.076 210.374C434.642 210.374 434.743 210.977 434.743 211.597C434.743 212.218 434.743 215.321 434.743 215.321H437.201C437.201 215.321 437.201 212.6 437.201 211.282C437.201 209.49 436.569 208.294 434.914 208.294" fill="#9CA3AF"/>
<path d="M477.235 208.294C476.138 208.294 475.595 209.158 475.346 209.714C475.207 210.025 475.168 210.271 475.056 210.271C474.897 210.271 475.003 210 474.88 209.584C474.698 208.964 474.243 208.294 473.097 208.294C471.945 208.294 471.452 209.268 471.218 209.803C471.058 210.169 471.058 210.271 470.935 210.271C470.756 210.271 470.904 209.98 470.984 209.639C471.142 208.966 471.022 208.453 471.022 208.453H469.195V215.321H471.689C471.689 215.321 471.689 212.451 471.689 211.904C471.689 211.23 471.971 210.374 472.454 210.374C473.012 210.374 473.124 210.803 473.124 211.597C473.124 212.317 473.124 215.323 473.124 215.323H475.627C475.627 215.323 475.627 212.435 475.627 211.904C475.627 211.304 475.872 210.374 476.397 210.374C476.963 210.374 477.063 210.977 477.063 211.597C477.063 212.218 477.063 215.321 477.063 215.321H479.521C479.521 215.321 479.521 212.6 479.521 211.282C479.521 209.49 478.889 208.294 477.235 208.294" fill="#9CA3AF"/>
<path d="M440.849 213.716C440.253 213.854 439.944 213.67 439.944 213.275C439.944 212.733 440.504 212.517 441.303 212.517C441.655 212.517 441.987 212.547 441.987 212.547C441.987 212.779 441.484 213.569 440.849 213.716ZM441.456 208.296C439.546 208.296 438.176 208.998 438.176 208.998V211.062C438.176 211.062 439.689 210.192 440.917 210.192C441.897 210.192 442.017 210.72 441.973 211.159C441.973 211.159 441.69 211.084 440.828 211.084C438.795 211.084 437.77 212.008 437.77 213.489C437.77 214.894 438.922 215.481 439.894 215.481C441.311 215.481 441.934 214.528 442.126 214.076C442.259 213.763 442.283 213.552 442.402 213.552C442.538 213.552 442.492 213.703 442.486 214.015C442.474 214.562 442.5 214.975 442.587 215.323H444.466V211.942C444.466 209.832 443.719 208.296 441.456 208.296" fill="#9CA3AF"/>
<path d="M448.574 215.323H451.068V206.374H448.574V215.323Z" fill="#9CA3AF"/>
<path d="M453.814 211.888C453.814 211.271 454.388 210.709 455.441 210.709C456.589 210.709 457.512 211.261 457.719 211.387V208.998C457.719 208.998 456.99 208.296 455.197 208.296C453.308 208.296 451.734 209.402 451.734 211.781C451.734 214.161 453.162 215.481 455.192 215.481C456.778 215.481 457.723 214.61 457.723 214.61V212.341C457.424 212.508 456.591 213.086 455.453 213.086C454.248 213.086 453.814 212.532 453.814 211.888" fill="#9CA3AF"/>
<path d="M462.767 208.296C461.324 208.296 460.775 209.664 460.664 209.902C460.553 210.139 460.498 210.276 460.408 210.273C460.25 210.268 460.36 209.981 460.421 209.796C460.537 209.445 460.783 208.526 460.783 207.396C460.783 206.63 460.68 206.374 460.68 206.374H458.527V215.323H461.021C461.021 215.323 461.021 212.462 461.021 211.906C461.021 211.349 461.243 210.376 461.871 210.376C462.391 210.376 462.554 210.762 462.554 211.538C462.554 212.314 462.554 215.323 462.554 215.323H465.048C465.048 215.323 465.048 213.23 465.048 211.687C465.048 209.924 464.755 208.296 462.767 208.296" fill="#9CA3AF"/>
<path d="M465.859 208.462V215.323H468.353V208.462C468.353 208.462 467.934 208.707 467.109 208.707C466.284 208.707 465.859 208.462 465.859 208.462" fill="#9CA3AF"/>
<path d="M467.097 206.304C466.254 206.304 465.57 206.75 465.57 207.3C465.57 207.85 466.254 208.296 467.097 208.296C467.939 208.296 468.623 207.85 468.623 207.3C468.623 206.75 467.939 206.304 467.097 206.304Z" fill="#9CA3AF"/>
<path d="M445.273 208.462V215.323H447.767V208.462C447.767 208.462 447.348 208.707 446.523 208.707C445.698 208.707 445.273 208.462 445.273 208.462" fill="#9CA3AF"/>
<path d="M446.514 206.304C445.672 206.304 444.988 206.75 444.988 207.3C444.988 207.85 445.672 208.296 446.514 208.296C447.357 208.296 448.041 207.85 448.041 207.3C448.041 206.75 447.357 206.304 446.514 206.304Z" fill="#9CA3AF"/>
<path d="M483.791 213.847C483.219 213.847 482.798 213.122 482.798 212.111C482.798 211.13 483.23 210.376 483.771 210.376C484.465 210.376 484.761 211.012 484.761 212.111C484.761 213.254 484.488 213.847 483.791 213.847ZM484.475 208.294C483.193 208.294 482.606 209.256 482.351 209.803C482.182 210.165 482.19 210.271 482.067 210.271C481.889 210.271 482.037 209.98 482.117 209.639C482.275 208.966 482.155 208.453 482.155 208.453H480.328V217.218H482.822C482.822 217.218 482.822 215.784 482.822 214.439C483.117 214.94 483.663 215.474 484.506 215.474C486.309 215.474 487.216 213.949 487.216 211.888C487.216 209.552 486.13 208.294 484.475 208.294" fill="#9CA3AF"/>
<path d="M418.067 210.37C418.235 210.35 418.396 210.349 418.543 210.37C418.629 210.174 418.643 209.836 418.566 209.468C418.452 208.921 418.298 208.59 417.978 208.642C417.659 208.693 417.647 209.09 417.761 209.636C417.825 209.944 417.94 210.207 418.067 210.37" fill="#9CA3AF"/>
<path d="M415.324 210.802C415.553 210.902 415.693 210.969 415.748 210.91C415.784 210.874 415.773 210.805 415.719 210.716C415.606 210.532 415.374 210.345 415.128 210.24C414.624 210.023 414.024 210.096 413.56 210.428C413.407 210.54 413.263 210.696 413.283 210.79C413.29 210.82 413.313 210.843 413.367 210.851C413.493 210.865 413.933 210.642 414.441 210.611C414.799 210.59 415.096 210.702 415.324 210.802" fill="#9CA3AF"/>
<path d="M414.865 211.064C414.567 211.111 414.403 211.21 414.297 211.301C414.207 211.379 414.152 211.466 414.152 211.527C414.153 211.557 414.165 211.573 414.175 211.582C414.189 211.594 414.205 211.6 414.224 211.6C414.291 211.6 414.442 211.54 414.442 211.54C414.856 211.392 415.129 211.41 415.4 211.44C415.55 211.457 415.621 211.467 415.654 211.415C415.663 211.401 415.675 211.369 415.645 211.32C415.575 211.207 415.275 211.016 414.865 211.064" fill="#9CA3AF"/>
<path d="M417.141 212.027C417.343 212.127 417.565 212.088 417.638 211.94C417.71 211.793 417.605 211.593 417.403 211.493C417.201 211.394 416.978 211.433 416.906 211.58C416.833 211.728 416.938 211.928 417.141 212.027Z" fill="#9CA3AF"/>
<path d="M418.441 210.892C418.277 210.889 418.141 211.069 418.137 211.294C418.133 211.52 418.263 211.704 418.427 211.707C418.591 211.71 418.728 211.53 418.731 211.304C418.735 211.079 418.605 210.894 418.441 210.892Z" fill="#9CA3AF"/>
<path d="M407.41 214.952C407.369 214.901 407.302 214.916 407.237 214.932C407.191 214.942 407.14 214.954 407.084 214.953C406.963 214.951 406.86 214.899 406.803 214.811C406.728 214.696 406.733 214.525 406.815 214.329C406.826 214.302 406.839 214.273 406.854 214.241C406.985 213.945 407.206 213.451 406.958 212.98C406.772 212.625 406.468 212.404 406.103 212.358C405.752 212.313 405.391 212.443 405.161 212.697C404.798 213.098 404.741 213.643 404.811 213.836C404.837 213.907 404.877 213.926 404.907 213.93C404.968 213.938 405.06 213.894 405.117 213.74C405.121 213.728 405.127 213.711 405.133 213.689C405.159 213.608 405.206 213.456 405.284 213.335C405.378 213.188 405.524 213.087 405.696 213.051C405.87 213.013 406.049 213.047 406.198 213.144C406.453 213.311 406.551 213.623 406.442 213.92C406.386 214.074 406.295 214.368 406.315 214.61C406.356 215.099 406.657 215.296 406.927 215.317C407.19 215.327 407.374 215.179 407.42 215.071C407.448 215.008 407.425 214.969 407.41 214.952" fill="#9CA3AF"/>
<path d="M409.909 205.965C410.767 204.974 411.822 204.113 412.768 203.629C412.801 203.612 412.835 203.648 412.818 203.68C412.742 203.816 412.598 204.107 412.552 204.328C412.545 204.363 412.582 204.388 412.611 204.369C413.2 203.968 414.223 203.538 415.121 203.483C415.159 203.48 415.178 203.53 415.147 203.553C415.011 203.658 414.861 203.803 414.752 203.95C414.734 203.974 414.751 204.01 414.782 204.011C415.413 204.015 416.301 204.236 416.88 204.56C416.919 204.582 416.892 204.658 416.848 204.648C415.972 204.447 414.537 204.295 413.047 204.658C411.717 204.983 410.702 205.484 409.961 206.022C409.924 206.05 409.879 206 409.909 205.965L409.909 205.965ZM414.18 215.565C414.18 215.566 414.18 215.566 414.18 215.566C414.18 215.566 414.18 215.567 414.181 215.567C414.18 215.566 414.18 215.566 414.18 215.565V215.565ZM417.716 215.983C417.741 215.972 417.759 215.943 417.756 215.914C417.752 215.879 417.721 215.853 417.685 215.857C417.685 215.857 415.855 216.128 414.127 215.495C414.315 214.883 414.816 215.104 415.572 215.165C416.936 215.246 418.159 215.047 419.062 214.788C419.845 214.563 420.874 214.12 421.672 213.49C421.942 214.081 422.037 214.732 422.037 214.732C422.037 214.732 422.245 214.695 422.42 214.802C422.584 214.904 422.705 215.114 422.623 215.659C422.455 216.677 422.022 217.502 421.295 218.262C420.853 218.738 420.316 219.153 419.701 219.454C419.375 219.625 419.027 219.774 418.66 219.893C415.92 220.788 413.115 219.804 412.21 217.692C412.138 217.533 412.077 217.366 412.029 217.192C411.644 215.8 411.971 214.13 412.993 213.078C412.994 213.078 412.993 213.077 412.993 213.077C413.057 213.011 413.121 212.932 413.121 212.832C413.121 212.749 413.068 212.662 413.022 212.6C412.665 212.081 411.425 211.197 411.674 209.486C411.853 208.256 412.928 207.391 413.93 207.442C414.015 207.446 414.1 207.451 414.184 207.456C414.619 207.482 414.998 207.538 415.355 207.553C415.954 207.579 416.492 207.492 417.129 206.961C417.344 206.781 417.517 206.626 417.808 206.577C417.839 206.571 417.915 206.544 418.068 206.551C418.223 206.56 418.371 206.602 418.504 206.691C419.016 207.031 419.088 207.854 419.115 208.457C419.13 208.801 419.171 209.633 419.185 209.872C419.218 210.418 419.362 210.495 419.652 210.591C419.815 210.644 419.967 210.684 420.19 210.747C420.867 210.937 421.268 211.13 421.521 211.377C421.671 211.532 421.742 211.696 421.763 211.853C421.843 212.435 421.311 213.154 419.904 213.807C418.366 214.521 416.5 214.701 415.211 214.558C415.112 214.547 414.761 214.507 414.759 214.507C413.728 214.368 413.14 215.701 413.759 216.614C414.158 217.202 415.244 217.585 416.331 217.585C418.824 217.586 420.739 216.521 421.452 215.602C421.473 215.575 421.475 215.572 421.509 215.521C421.544 215.468 421.515 215.439 421.472 215.469C420.889 215.867 418.303 217.449 415.537 216.973C415.537 216.973 415.201 216.918 414.894 216.798C414.65 216.703 414.14 216.469 414.078 215.945C416.31 216.636 417.716 215.983 417.716 215.983V215.983ZM405.455 210.678C404.678 210.829 403.994 211.269 403.576 211.876C403.325 211.668 402.859 211.264 402.777 211.107C402.109 209.838 403.506 207.372 404.482 205.979C406.894 202.537 410.672 199.932 412.421 200.405C412.705 200.485 413.646 201.577 413.646 201.577C413.646 201.577 411.898 202.547 410.277 203.899C408.093 205.581 406.443 208.025 405.455 210.678ZM406.759 216.498C406.642 216.518 406.522 216.526 406.401 216.523C405.233 216.492 403.971 215.44 403.846 214.193C403.707 212.815 404.411 211.754 405.658 211.502C405.808 211.472 405.988 211.455 406.182 211.465C406.881 211.503 407.91 212.04 408.146 213.562C408.354 214.91 408.023 216.283 406.759 216.498V216.498ZM422.583 214.057C422.573 214.022 422.508 213.784 422.418 213.497C422.329 213.209 422.236 213.007 422.236 213.007C422.595 212.469 422.602 211.988 422.554 211.716C422.503 211.378 422.362 211.09 422.079 210.793C421.796 210.495 421.216 210.191 420.401 209.962C420.308 209.936 420.001 209.852 419.974 209.843C419.972 209.826 419.952 208.836 419.933 208.411C419.92 208.104 419.893 207.624 419.744 207.152C419.567 206.513 419.258 205.953 418.873 205.595C419.937 204.492 420.601 203.277 420.6 202.234C420.597 200.229 418.134 199.622 415.1 200.879C415.096 200.88 414.461 201.149 414.457 201.152C414.454 201.149 413.294 200.011 413.277 199.996C409.817 196.978 399 209.002 402.459 211.922L403.214 212.562C403.018 213.07 402.941 213.652 403.004 214.278C403.085 215.082 403.5 215.852 404.171 216.447C404.809 217.012 405.648 217.37 406.462 217.369C407.808 220.471 410.883 222.373 414.488 222.481C418.356 222.595 421.602 220.781 422.963 217.521C423.052 217.292 423.429 216.261 423.429 215.351C423.429 214.436 422.912 214.057 422.583 214.057" fill="#9CA3AF"/>
</g>
<defs>
<clipPath id="clip0_2871_4420">
<rect width="90" height="19.6875" fill="white" transform="translate(155.5 201.156)"/>
</clipPath>
<clipPath id="clip1_2871_4420">
<rect width="86" height="23.541" fill="white" transform="translate(401.5 199.229)"/>
</clipPath>
</defs>
</svg>
