<svg width="536" height="345" viewBox="0 0 536 345" fill="none" xmlns="http://www.w3.org/2000/svg">
<rect x="181" y="46.7051" width="77" height="8" rx="4" fill="#9CA3AF"/>
<rect x="288" y="46.7051" width="67" height="8" rx="4" fill="#9CA3AF"/>
<rect x="106.281" y="87.4551" width="1.5" height="220.09" rx="0.75" fill="#6B7280" stroke="#6B7280" stroke-width="1.5"/>
<circle cx="107.031" cy="113.828" r="4" fill="#6B7280" stroke="#111928"/>
<circle cx="107.031" cy="193.401" r="4" fill="#6B7280" stroke="#111928"/>
<circle cx="107.031" cy="272.974" r="4" fill="#6B7280" stroke="#111928"/>
<rect x="119.441" y="111.203" width="71.7043" height="4" rx="2" fill="#9CA3AF"/>
<rect x="119.441" y="118.464" width="46.2609" height="3" rx="1.5" fill="#6B7280"/>
<rect x="119.441" y="127.386" width="126.556" height="3" rx="1.5" fill="#6B7280"/>
<rect x="119.441" y="133.386" width="121.93" height="3" rx="1.5" fill="#6B7280"/>
<rect x="119.441" y="139.386" width="102.104" height="3" rx="1.5" fill="#6B7280"/>
<rect x="119.441" y="191.098" width="71.7043" height="4" rx="2" fill="#9CA3AF"/>
<rect x="119.441" y="198.359" width="46.2609" height="3" rx="1.5" fill="#6B7280"/>
<rect x="119" y="207" width="103" height="3" rx="1.5" fill="#6B7280"/>
<rect x="119" y="213" width="99" height="3" rx="1.5" fill="#6B7280"/>
<rect x="119.309" y="270.112" width="71.7043" height="4" rx="2" fill="#9CA3AF"/>
<rect x="119.309" y="277.373" width="46.2609" height="3" rx="1.5" fill="#6B7280"/>
<rect x="119.309" y="286.295" width="126.556" height="3" rx="1.5" fill="#6B7280"/>
<rect x="119" y="292" width="99" height="3" rx="1.5" fill="#6B7280"/>
<rect x="119" y="298" width="77" height="3" rx="1.5" fill="#6B7280"/>
<rect x="293.5" y="87.2051" width="2" height="220.59" rx="1" fill="#6B7280" stroke="#6B7280"/>
<circle cx="294.5" cy="113.828" r="4" fill="#6B7280" stroke="#111928"/>
<circle cx="294.5" cy="193.401" r="4" fill="#6B7280" stroke="#111928"/>
<circle cx="294.5" cy="272.974" r="4" fill="#6B7280" stroke="#111928"/>
<rect x="306.91" y="111.203" width="71.7043" height="4" rx="2" fill="#9CA3AF"/>
<rect x="306.91" y="118.464" width="46.2609" height="3" rx="1.5" fill="#6B7280"/>
<rect x="306.91" y="127.386" width="126.556" height="3" rx="1.5" fill="#6B7280"/>
<rect x="307" y="133" width="78" height="3" rx="1.5" fill="#6B7280"/>
<rect x="306.91" y="191.098" width="71.7043" height="4" rx="2" fill="#9CA3AF"/>
<rect x="306.91" y="198.359" width="46.2609" height="3" rx="1.5" fill="#6B7280"/>
<rect x="307" y="207" width="108" height="3" rx="1.5" fill="#6B7280"/>
<rect x="307" y="213" width="96" height="3" rx="1.5" fill="#6B7280"/>
<rect x="307" y="219" width="105" height="3" rx="1.5" fill="#6B7280"/>
<rect x="307" y="225" width="80" height="3" rx="1.5" fill="#6B7280"/>
<rect x="306.777" y="270.112" width="71.7043" height="4" rx="2" fill="#9CA3AF"/>
<rect x="306.777" y="277.373" width="46.2609" height="3" rx="1.5" fill="#6B7280"/>
<rect x="306.777" y="286.295" width="126.556" height="3" rx="1.5" fill="#6B7280"/>
<rect x="306.777" y="292.295" width="121.93" height="3" rx="1.5" fill="#6B7280"/>
</svg>
