<svg width="536" height="345" viewBox="0 0 536 345" fill="none" xmlns="http://www.w3.org/2000/svg">
<rect x="191.5" y="44" width="153" height="9" rx="4.5" fill="#9CA3AF"/>
<rect x="110.5" y="67" width="315" height="6" rx="3" fill="#6B7280"/>
<rect x="125" y="79" width="286" height="6" rx="3" fill="#6B7280"/>
<g clip-path="url(#clip0_2871_4171)">
<g clip-path="url(#clip1_2871_4171)">
<rect x="80.5" y="134.5" width="140" height="8" rx="2" fill="#9CA3AF"/>
<path fill-rule="evenodd" clip-rule="evenodd" d="M427 140.801C426.841 140.96 426.625 141.05 426.399 141.05C426.174 141.05 425.958 140.96 425.798 140.801L422.999 138.002L420.2 140.801C420.04 140.956 419.825 141.041 419.602 141.04C419.38 141.038 419.166 140.948 419.009 140.791C418.851 140.633 418.762 140.42 418.76 140.197C418.758 139.974 418.844 139.759 418.998 139.599L422.398 136.199C422.558 136.04 422.774 135.95 422.999 135.95C423.225 135.95 423.441 136.04 423.6 136.199L427 139.599C427.16 139.758 427.249 139.975 427.249 140.2C427.249 140.425 427.16 140.642 427 140.801V140.801Z" fill="#9CA3AF"/>
<rect x="80.5" y="163" width="331" height="6" rx="1" fill="#6B7280"/>
<rect x="80.5" y="174" width="300.688" height="6" rx="1" fill="#6B7280"/>
<rect x="80.5" y="185" width="315.297" height="6" rx="1" fill="#6B7280"/>
<rect x="80.5" y="196" width="157.066" height="6" rx="1" fill="#6B7280"/>
</g>
<line x1="80.5" y1="214.5" x2="455.5" y2="214.5" stroke="#374151"/>
<g clip-path="url(#clip2_2871_4171)">
<rect x="80.5" y="232.5" width="99" height="8" rx="2" fill="#9CA3AF"/>
<path fill-rule="evenodd" clip-rule="evenodd" d="M418.999 234.199C419.158 234.04 419.374 233.95 419.6 233.95C419.825 233.95 420.041 234.04 420.201 234.199L423 236.998L425.799 234.199C425.877 234.118 425.971 234.053 426.075 234.008C426.178 233.964 426.29 233.94 426.403 233.939C426.516 233.939 426.628 233.96 426.732 234.003C426.837 234.045 426.931 234.109 427.011 234.188C427.091 234.268 427.154 234.363 427.197 234.468C427.24 234.572 427.261 234.684 427.26 234.797C427.259 234.91 427.236 235.021 427.191 235.125C427.147 235.229 427.082 235.322 427.001 235.401L423.601 238.801C423.441 238.96 423.225 239.05 423 239.05C422.774 239.05 422.558 238.96 422.399 238.801L418.999 235.401C418.84 235.241 418.75 235.025 418.75 234.8C418.75 234.575 418.84 234.358 418.999 234.199V234.199Z" fill="#9CA3AF"/>
</g>
<line x1="80.5" y1="257.5" x2="455.5" y2="257.5" stroke="#374151"/>
<line x1="80.5" y1="257.5" x2="455.5" y2="257.5" stroke="#374151"/>
<g clip-path="url(#clip3_2871_4171)">
<rect x="80.5" y="275.5" width="115" height="8" rx="2" fill="#9CA3AF"/>
<path fill-rule="evenodd" clip-rule="evenodd" d="M418.999 277.199C419.158 277.04 419.374 276.95 419.6 276.95C419.825 276.95 420.041 277.04 420.201 277.199L423 279.998L425.799 277.199C425.877 277.118 425.971 277.053 426.075 277.008C426.178 276.964 426.29 276.94 426.403 276.939C426.516 276.939 426.628 276.96 426.732 277.003C426.837 277.045 426.931 277.109 427.011 277.188C427.091 277.268 427.154 277.363 427.197 277.468C427.24 277.572 427.261 277.684 427.26 277.797C427.259 277.91 427.236 278.021 427.191 278.125C427.147 278.229 427.082 278.322 427.001 278.401L423.601 281.801C423.441 281.96 423.225 282.05 423 282.05C422.774 282.05 422.558 281.96 422.399 281.801L418.999 278.401C418.84 278.241 418.75 278.025 418.75 277.8C418.75 277.575 418.84 277.358 418.999 277.199V277.199Z" fill="#9CA3AF"/>
</g>
</g>
<defs>
<clipPath id="clip0_2871_4171">
<rect x="80.5" y="117" width="375" height="184" rx="8" fill="white"/>
</clipPath>
<clipPath id="clip1_2871_4171">
<rect width="375" height="98" fill="white" transform="translate(80.5 117)"/>
</clipPath>
<clipPath id="clip2_2871_4171">
<rect width="375" height="43" fill="white" transform="translate(80.5 215)"/>
</clipPath>
<clipPath id="clip3_2871_4171">
<rect width="375" height="43" fill="white" transform="translate(80.5 258)"/>
</clipPath>
</defs>
</svg>
