<svg width="536" height="345" viewBox="0 0 536 345" fill="none" xmlns="http://www.w3.org/2000/svg">
<rect x="190.562" y="49" width="154.876" height="9" rx="4.5" fill="#6B7280"/>
<rect x="142.5" y="70" width="251" height="6" rx="3" fill="#9CA3AF"/>
<rect x="167" y="82" width="202" height="6" rx="3" fill="#9CA3AF"/>
<rect x="64.666" y="120" width="28" height="28" rx="5" fill="#E1EFFE"/>
<path fill-rule="evenodd" clip-rule="evenodd" d="M73.25 129.25C73.0511 129.25 72.8603 129.329 72.7197 129.47C72.579 129.61 72.5 129.801 72.5 130C72.5 130.199 72.579 130.39 72.7197 130.53C72.8603 130.671 73.0511 130.75 73.25 130.75V136.75C73.25 137.148 73.408 137.529 73.6893 137.811C73.9706 138.092 74.3522 138.25 74.75 138.25H76.6895L75.7198 139.22C75.6481 139.289 75.591 139.372 75.5517 139.463C75.5124 139.555 75.4917 139.653 75.4908 139.753C75.4899 139.852 75.5089 139.951 75.5466 140.043C75.5843 140.135 75.64 140.219 75.7105 140.29C75.7809 140.36 75.8646 140.416 75.9568 140.453C76.049 140.491 76.1477 140.51 76.2473 140.509C76.3469 140.508 76.4453 140.488 76.5368 140.448C76.6283 140.409 76.7111 140.352 76.7802 140.28L78.5 138.56L80.2198 140.28C80.3612 140.417 80.5507 140.492 80.7473 140.491C80.9439 140.489 81.1321 140.41 81.2711 140.271C81.4102 140.132 81.489 139.944 81.4908 139.747C81.4925 139.551 81.4169 139.361 81.2802 139.22L80.3105 138.25H82.25C82.6478 138.25 83.0294 138.092 83.3107 137.811C83.592 137.529 83.75 137.148 83.75 136.75V130.75C83.9489 130.75 84.1397 130.671 84.2803 130.53C84.421 130.39 84.5 130.199 84.5 130C84.5 129.801 84.421 129.61 84.2803 129.47C84.1397 129.329 83.9489 129.25 83.75 129.25H73.25ZM82.0302 132.78C82.1669 132.639 82.2425 132.449 82.2408 132.253C82.239 132.056 82.1602 131.868 82.0211 131.729C81.8821 131.59 81.6939 131.511 81.4973 131.509C81.3007 131.508 81.1112 131.583 80.9698 131.72L78.5 134.189L77.5302 133.22C77.3896 133.079 77.1989 133 77 133C76.8011 133 76.6104 133.079 76.4698 133.22L74.9698 134.72C74.8981 134.789 74.841 134.872 74.8017 134.963C74.7624 135.055 74.7417 135.153 74.7408 135.253C74.7399 135.352 74.7589 135.451 74.7966 135.543C74.8343 135.635 74.89 135.719 74.9605 135.79C75.0309 135.86 75.1146 135.916 75.2068 135.953C75.299 135.991 75.3977 136.01 75.4973 136.009C75.5969 136.008 75.6953 135.988 75.7868 135.948C75.8783 135.909 75.9611 135.852 76.0302 135.78L77 134.81L77.9698 135.78C78.1104 135.921 78.3011 136 78.5 136C78.6989 136 78.8896 135.921 79.0302 135.78L82.0302 132.78V132.78Z" fill="#1C64F2"/>
<rect x="43.166" y="158" width="71" height="5" rx="2.5" fill="#9CA3AF"/>
<rect x="22.666" y="170" width="112" height="4" rx="2" fill="#D1D5DB"/>
<rect x="15.666" y="179" width="126" height="4" rx="2" fill="#D1D5DB"/>
<rect x="34.166" y="188" width="89" height="4" rx="2" fill="#D1D5DB"/>
<rect x="254" y="120" width="28" height="28" rx="5" fill="#E1EFFE"/>
<path fill-rule="evenodd" clip-rule="evenodd" d="M265.5 131.5V130.75C265.5 130.153 265.737 129.581 266.159 129.159C266.581 128.737 267.153 128.5 267.75 128.5H269.25C269.847 128.5 270.419 128.737 270.841 129.159C271.263 129.581 271.5 130.153 271.5 130.75V131.5H273C273.398 131.5 273.779 131.658 274.061 131.939C274.342 132.221 274.5 132.602 274.5 133V135.677C272.58 136.389 270.548 136.752 268.5 136.75C266.452 136.752 264.42 136.389 262.5 135.677V133C262.5 132.602 262.658 132.221 262.939 131.939C263.221 131.658 263.602 131.5 264 131.5H265.5ZM267 130.75C267 130.551 267.079 130.36 267.22 130.22C267.36 130.079 267.551 130 267.75 130H269.25C269.449 130 269.64 130.079 269.78 130.22C269.921 130.36 270 130.551 270 130.75V131.5H267V130.75ZM267.75 134.5C267.75 134.301 267.829 134.11 267.97 133.97C268.11 133.829 268.301 133.75 268.5 133.75H268.508C268.706 133.75 268.897 133.829 269.038 133.97C269.178 134.11 269.258 134.301 269.258 134.5C269.258 134.699 269.178 134.89 269.038 135.03C268.897 135.171 268.706 135.25 268.508 135.25H268.5C268.301 135.25 268.11 135.171 267.97 135.03C267.829 134.89 267.75 134.699 267.75 134.5Z" fill="#1C64F2"/>
<path d="M262.5 137.269V139C262.5 139.398 262.658 139.779 262.939 140.061C263.221 140.342 263.602 140.5 264 140.5H273C273.398 140.5 273.779 140.342 274.061 140.061C274.342 139.779 274.5 139.398 274.5 139V137.269C272.567 137.921 270.54 138.252 268.5 138.25C266.403 138.25 264.385 137.905 262.5 137.269Z" fill="#1C64F2"/>
<rect x="232.5" y="158" width="71" height="5" rx="2.5" fill="#9CA3AF"/>
<rect x="212" y="170" width="112" height="4" rx="2" fill="#D1D5DB"/>
<rect x="205" y="179" width="126" height="4" rx="2" fill="#D1D5DB"/>
<rect x="223.5" y="188" width="89" height="4" rx="2" fill="#D1D5DB"/>
<rect x="443.332" y="120" width="28" height="28" rx="5" fill="#E1EFFE"/>
<path d="M455.25 129.25C455.051 129.25 454.86 129.329 454.72 129.47C454.579 129.61 454.5 129.801 454.5 130C454.5 130.199 454.579 130.39 454.72 130.53C454.86 130.671 455.051 130.75 455.25 130.75H459.75C459.949 130.75 460.14 130.671 460.28 130.53C460.421 130.39 460.5 130.199 460.5 130C460.5 129.801 460.421 129.61 460.28 129.47C460.14 129.329 459.949 129.25 459.75 129.25H455.25ZM453 132.25C453 132.051 453.079 131.86 453.22 131.72C453.36 131.579 453.551 131.5 453.75 131.5H461.25C461.449 131.5 461.64 131.579 461.78 131.72C461.921 131.86 462 132.051 462 132.25C462 132.449 461.921 132.64 461.78 132.78C461.64 132.921 461.449 133 461.25 133H453.75C453.551 133 453.36 132.921 453.22 132.78C453.079 132.64 453 132.449 453 132.25ZM451.5 135.25C451.5 134.852 451.658 134.471 451.939 134.189C452.221 133.908 452.602 133.75 453 133.75H462C462.398 133.75 462.779 133.908 463.061 134.189C463.342 134.471 463.5 134.852 463.5 135.25V138.25C463.5 138.648 463.342 139.029 463.061 139.311C462.779 139.592 462.398 139.75 462 139.75H453C452.602 139.75 452.221 139.592 451.939 139.311C451.658 139.029 451.5 138.648 451.5 138.25V135.25Z" fill="#1C64F2"/>
<rect x="421.832" y="158" width="71" height="5" rx="2.5" fill="#9CA3AF"/>
<rect x="401.332" y="170" width="112" height="4" rx="2" fill="#D1D5DB"/>
<rect x="394.332" y="179" width="126" height="4" rx="2" fill="#D1D5DB"/>
<rect x="412.832" y="188" width="89" height="4" rx="2" fill="#D1D5DB"/>
<rect x="64.666" y="224" width="28" height="28" rx="5" fill="#E1EFFE"/>
<path d="M77.7468 235.934C77.8708 235.852 78.0236 235.778 78.2004 235.721V237.079C78.0402 237.029 77.8876 236.957 77.7468 236.866C77.4564 236.672 77.4004 236.491 77.4004 236.4C77.4004 236.309 77.4564 236.128 77.7468 235.934ZM79.8004 240.279V238.921C79.9764 238.978 80.13 239.052 80.254 239.134C80.5452 239.329 80.6004 239.509 80.6004 239.6C80.6004 239.691 80.5444 239.872 80.254 240.066C80.1132 240.157 79.9606 240.229 79.8004 240.279Z" fill="#1C64F2"/>
<path fill-rule="evenodd" clip-rule="evenodd" d="M78.9996 244.4C80.697 244.4 82.3249 243.726 83.5251 242.526C84.7253 241.325 85.3996 239.697 85.3996 238C85.3996 236.303 84.7253 234.675 83.5251 233.475C82.3249 232.274 80.697 231.6 78.9996 231.6C77.3022 231.6 75.6744 232.274 74.4741 233.475C73.2739 234.675 72.5996 236.303 72.5996 238C72.5996 239.697 73.2739 241.325 74.4741 242.526C75.6744 243.726 77.3022 244.4 78.9996 244.4V244.4ZM79.7996 234C79.7996 233.788 79.7153 233.584 79.5653 233.434C79.4153 233.284 79.2118 233.2 78.9996 233.2C78.7874 233.2 78.584 233.284 78.4339 233.434C78.2839 233.584 78.1996 233.788 78.1996 234V234.074C77.7217 234.159 77.2658 234.339 76.8588 234.603C76.2812 234.987 75.7996 235.607 75.7996 236.4C75.7996 237.192 76.2812 237.812 76.8588 238.197C77.2428 238.453 77.702 238.633 78.1996 238.726V240.279C77.8868 240.178 77.6556 240.026 77.5252 239.876C77.4575 239.793 77.3739 239.724 77.2792 239.674C77.1845 239.624 77.0807 239.594 76.9739 239.584C76.8672 239.575 76.7597 239.588 76.6578 239.621C76.5559 239.654 76.4617 239.707 76.3808 239.777C76.2999 239.847 76.2339 239.933 76.1867 240.029C76.1396 240.126 76.1122 240.23 76.1063 240.337C76.1003 240.444 76.116 240.551 76.1522 240.652C76.1884 240.753 76.2445 240.845 76.3172 240.924C76.7668 241.443 77.4476 241.785 78.1996 241.926V242C78.1996 242.212 78.2839 242.416 78.4339 242.566C78.584 242.716 78.7874 242.8 78.9996 242.8C79.2118 242.8 79.4153 242.716 79.5653 242.566C79.7153 242.416 79.7996 242.212 79.7996 242V241.926C80.2775 241.841 80.7334 241.661 81.1404 241.397C81.718 241.013 82.1996 240.393 82.1996 239.6C82.1996 238.808 81.718 238.188 81.1404 237.803C80.7334 237.539 80.2775 237.359 79.7996 237.274V235.721C80.1124 235.822 80.3436 235.974 80.474 236.124C80.5423 236.205 80.6261 236.272 80.7204 236.32C80.8146 236.369 80.9176 236.398 81.0233 236.406C81.129 236.414 81.2352 236.402 81.3359 236.368C81.4366 236.335 81.5297 236.282 81.6098 236.213C81.6899 236.144 81.7554 236.059 81.8024 235.964C81.8495 235.869 81.8773 235.766 81.8841 235.66C81.8909 235.554 81.8766 235.448 81.842 235.348C81.8075 235.248 81.7534 235.155 81.6828 235.076C81.2324 234.557 80.5524 234.215 79.7996 234.074V234Z" fill="#1C64F2"/>
<rect x="43.166" y="262" width="71" height="5" rx="2.5" fill="#9CA3AF"/>
<rect x="22.666" y="274" width="112" height="4" rx="2" fill="#D1D5DB"/>
<rect x="15.666" y="283" width="126" height="4" rx="2" fill="#D1D5DB"/>
<rect x="34.166" y="292" width="89" height="4" rx="2" fill="#D1D5DB"/>
<rect x="254" y="224" width="28" height="28" rx="5" fill="#E1EFFE"/>
<path fill-rule="evenodd" clip-rule="evenodd" d="M269.191 232.536C268.887 231.288 267.111 231.288 266.807 232.536C266.762 232.724 266.673 232.898 266.548 233.044C266.422 233.191 266.264 233.306 266.086 233.38C265.907 233.454 265.714 233.485 265.522 233.47C265.33 233.455 265.143 233.395 264.979 233.294C263.881 232.626 262.625 233.882 263.294 234.979C263.726 235.688 263.343 236.613 262.536 236.809C261.287 237.112 261.287 238.889 262.536 239.191C262.724 239.237 262.898 239.326 263.045 239.451C263.191 239.577 263.306 239.735 263.38 239.914C263.454 240.092 263.485 240.285 263.47 240.478C263.455 240.67 263.394 240.856 263.294 241.021C262.625 242.118 263.881 243.374 264.979 242.706C265.143 242.605 265.33 242.545 265.522 242.53C265.714 242.515 265.908 242.546 266.086 242.62C266.264 242.693 266.423 242.808 266.548 242.955C266.674 243.102 266.763 243.276 266.808 243.463C267.111 244.712 268.888 244.712 269.191 243.463C269.236 243.276 269.325 243.102 269.451 242.955C269.576 242.809 269.735 242.694 269.913 242.62C270.091 242.546 270.285 242.515 270.477 242.53C270.669 242.545 270.855 242.605 271.02 242.706C272.118 243.374 273.374 242.118 272.705 241.021C272.605 240.856 272.545 240.67 272.53 240.478C272.515 240.285 272.546 240.092 272.619 239.914C272.693 239.735 272.808 239.577 272.955 239.452C273.101 239.326 273.275 239.237 273.463 239.191C274.711 238.888 274.711 237.111 273.463 236.809C273.275 236.763 273.101 236.674 272.954 236.549C272.808 236.423 272.693 236.265 272.619 236.087C272.545 235.908 272.514 235.715 272.529 235.523C272.544 235.33 272.604 235.144 272.705 234.979C273.374 233.882 272.118 232.626 271.02 233.294C270.855 233.395 270.669 233.455 270.477 233.47C270.284 233.485 270.091 233.455 269.913 233.381C269.735 233.307 269.576 233.192 269.451 233.045C269.325 232.899 269.236 232.724 269.191 232.537L269.191 232.536ZM267.999 240.4C268.636 240.4 269.246 240.147 269.696 239.697C270.147 239.247 270.399 238.637 270.399 238C270.399 237.364 270.147 236.753 269.696 236.303C269.246 235.853 268.636 235.6 267.999 235.6C267.363 235.6 266.752 235.853 266.302 236.303C265.852 236.753 265.599 237.364 265.599 238C265.599 238.637 265.852 239.247 266.302 239.697C266.752 240.147 267.363 240.4 267.999 240.4V240.4Z" fill="#1C64F2"/>
<rect x="232.5" y="262" width="71" height="5" rx="2.5" fill="#9CA3AF"/>
<rect x="212" y="274" width="112" height="4" rx="2" fill="#D1D5DB"/>
<rect x="205" y="283" width="126" height="4" rx="2" fill="#D1D5DB"/>
<rect x="223.5" y="292" width="89" height="4" rx="2" fill="#D1D5DB"/>
<rect x="443.332" y="224" width="28" height="28" rx="5" fill="#E1EFFE"/>
<path d="M457.315 231.664C457.215 231.621 457.108 231.599 456.999 231.599C456.891 231.599 456.784 231.621 456.684 231.664L451.084 234.064C450.94 234.126 450.817 234.228 450.73 234.359C450.644 234.49 450.598 234.643 450.598 234.8C450.598 234.957 450.644 235.11 450.73 235.241C450.817 235.372 450.94 235.475 451.084 235.536L453.199 236.441C453.278 236.352 453.375 236.282 453.484 236.235L456.684 234.864C456.781 234.821 456.885 234.797 456.991 234.795C457.097 234.793 457.203 234.811 457.302 234.85C457.4 234.889 457.49 234.946 457.566 235.02C457.643 235.094 457.703 235.182 457.745 235.28C457.787 235.377 457.809 235.482 457.81 235.588C457.811 235.694 457.791 235.799 457.75 235.897C457.71 235.995 457.651 236.084 457.576 236.16C457.502 236.235 457.413 236.294 457.315 236.334L455.133 237.27L456.685 237.935C456.784 237.978 456.892 238 457 238C457.108 238 457.215 237.978 457.315 237.935L462.915 235.535C463.058 235.474 463.181 235.371 463.267 235.24C463.353 235.11 463.399 234.957 463.399 234.8C463.399 234.644 463.353 234.49 463.267 234.36C463.181 234.229 463.058 234.127 462.915 234.065L457.315 231.665V231.664ZM451.647 237.518L452.999 238.096V241.378C452.722 241.315 452.442 241.268 452.159 241.238C451.977 241.219 451.807 241.138 451.677 241.009C451.548 240.879 451.466 240.709 451.447 240.526C451.342 239.519 451.41 238.501 451.647 237.517V237.518ZM456.439 243.258C455.899 242.728 455.278 242.286 454.599 241.948V238.782L456.054 239.406C456.353 239.535 456.674 239.601 456.999 239.601C457.324 239.601 457.646 239.535 457.945 239.406L462.351 237.518C462.59 238.502 462.658 239.52 462.551 240.527C462.532 240.71 462.451 240.88 462.321 241.009C462.192 241.139 462.022 241.22 461.839 241.239C460.225 241.409 458.717 242.121 457.559 243.258C457.41 243.405 457.209 243.487 456.999 243.487C456.79 243.487 456.589 243.405 456.439 243.258V243.258ZM453.799 244.4C454.011 244.4 454.215 244.316 454.365 244.166C454.515 244.016 454.599 243.812 454.599 243.6V241.948C454.091 241.695 453.553 241.504 452.999 241.378V243.6C452.999 243.812 453.084 244.016 453.234 244.166C453.384 244.316 453.587 244.4 453.799 244.4Z" fill="#1C64F2"/>
<rect x="421.832" y="262" width="71" height="5" rx="2.5" fill="#9CA3AF"/>
<rect x="401.332" y="274" width="112" height="4" rx="2" fill="#D1D5DB"/>
<rect x="394.332" y="283" width="126" height="4" rx="2" fill="#D1D5DB"/>
<rect x="412.832" y="292" width="89" height="4" rx="2" fill="#D1D5DB"/>
</svg>
