<svg width="536" height="345" viewBox="0 0 536 345" fill="none" xmlns="http://www.w3.org/2000/svg">
<rect x="55.75" y="82" width="36" height="7" rx="3" fill="#9CA3AF"/>
<rect x="290.25" y="83" width="30" height="5" rx="2" fill="#D1D5DB"/>
<rect x="330.25" y="83" width="30" height="5" rx="2" fill="#D1D5DB"/>
<rect x="370.25" y="83" width="30" height="5" rx="2" fill="#D1D5DB"/>
<rect x="410.25" y="83" width="30" height="5" rx="2" fill="#D1D5DB"/>
<rect x="450.25" y="83" width="30" height="5" rx="2" fill="#D1D5DB"/>
<line x1="55.75" y1="100.5" x2="480.25" y2="100.5" stroke="#E5E7EB"/>
<rect x="204.5" y="113" width="127" height="4" rx="2" fill="#E5E7EB"/>
<path d="M63.25 188.167V179.833M63.25 188.167C63.25 188.609 63.0744 189.033 62.7618 189.345C62.4493 189.658 62.0254 189.833 61.5833 189.833H59.9167C59.4746 189.833 59.0507 189.658 58.7382 189.345C58.4256 189.033 58.25 188.609 58.25 188.167V179.833C58.25 179.391 58.4256 178.967 58.7382 178.655C59.0507 178.342 59.4746 178.167 59.9167 178.167H61.5833C62.0254 178.167 62.4493 178.342 62.7618 178.655C63.0744 178.967 63.25 179.391 63.25 179.833M63.25 188.167C63.25 188.609 63.4256 189.033 63.7382 189.345C64.0507 189.658 64.4746 189.833 64.9167 189.833H66.5833C67.0254 189.833 67.4493 189.658 67.7618 189.345C68.0744 189.033 68.25 188.609 68.25 188.167M63.25 179.833C63.25 179.391 63.4256 178.967 63.7382 178.655C64.0507 178.342 64.4746 178.167 64.9167 178.167H66.5833C67.0254 178.167 67.4493 178.342 67.7618 178.655C68.0744 178.967 68.25 179.391 68.25 179.833M68.25 188.167V179.833M68.25 188.167C68.25 188.609 68.4256 189.033 68.7382 189.345C69.0507 189.658 69.4746 189.833 69.9167 189.833H71.5833C72.0254 189.833 72.4493 189.658 72.7618 189.345C73.0744 189.033 73.25 188.609 73.25 188.167V179.833C73.25 179.391 73.0744 178.967 72.7618 178.655C72.4493 178.342 72.0254 178.167 71.5833 178.167H69.9167C69.4746 178.167 69.0507 178.342 68.7382 178.655C68.4256 178.967 68.25 179.391 68.25 179.833" stroke="#9CA3AF" stroke-width="2" stroke-linecap="round" stroke-linejoin="round"/>
<rect x="55.75" y="200" width="120" height="5" rx="2.5" fill="#D1D5DB"/>
<rect x="55.75" y="210" width="113" height="5" rx="2.5" fill="#D1D5DB"/>
<rect x="55.75" y="220" width="70" height="5" rx="2.5" fill="#D1D5DB"/>
<rect x="290.25" y="173" width="23.3333" height="5" rx="2" fill="#9CA3AF"/>
<rect x="290.25" y="188" width="40" height="5" rx="2" fill="#D1D5DB"/>
<rect x="290.25" y="199" width="35" height="5" rx="2" fill="#D1D5DB"/>
<rect x="290.25" y="210" width="31" height="5" rx="2" fill="#D1D5DB"/>
<rect x="290.25" y="221" width="37" height="5" rx="2" fill="#D1D5DB"/>
<rect x="356.918" y="173" width="23.3333" height="5" rx="2" fill="#9CA3AF"/>
<rect x="356.918" y="188" width="40" height="5" rx="2" fill="#D1D5DB"/>
<rect x="356.918" y="199" width="35" height="5" rx="2" fill="#D1D5DB"/>
<rect x="356.918" y="210" width="31" height="5" rx="2" fill="#D1D5DB"/>
<rect x="356.918" y="221" width="37" height="5" rx="2" fill="#D1D5DB"/>
<rect x="423.582" y="173" width="23.3333" height="5" rx="2" fill="#9CA3AF"/>
<rect x="423.582" y="188" width="40" height="5" rx="2" fill="#D1D5DB"/>
<rect x="423.582" y="199" width="35" height="5" rx="2" fill="#D1D5DB"/>
<rect x="423.582" y="210" width="31" height="5" rx="2" fill="#D1D5DB"/>
<rect x="423.582" y="221" width="37" height="5" rx="2" fill="#D1D5DB"/>
<line x1="55.75" y1="237.5" x2="480.25" y2="237.5" stroke="#E5E7EB"/>
<rect x="55.75" y="254.5" width="44" height="4" rx="2" fill="#E5E7EB"/>
<path d="M417.616 254.67C417.997 254.384 418.339 254.041 418.606 253.641C418.263 253.794 417.863 253.908 417.463 253.946C417.882 253.698 418.187 253.318 418.339 252.842C417.958 253.07 417.521 253.241 417.083 253.337C416.702 252.937 416.188 252.708 415.616 252.708C414.512 252.708 413.617 253.603 413.617 254.708C413.617 254.86 413.636 255.012 413.674 255.165C412.017 255.07 410.532 254.27 409.542 253.07C409.37 253.356 409.275 253.698 409.275 254.079C409.275 254.765 409.618 255.374 410.17 255.736C409.846 255.717 409.522 255.641 409.256 255.489V255.508C409.256 256.479 409.941 257.279 410.855 257.469C410.703 257.507 410.513 257.545 410.341 257.545C410.208 257.545 410.094 257.526 409.96 257.507C410.208 258.307 410.951 258.878 411.827 258.897C411.141 259.43 410.284 259.754 409.351 259.754C409.18 259.754 409.027 259.735 408.875 259.716C409.751 260.287 410.798 260.611 411.941 260.611C415.616 260.611 417.616 257.583 417.616 254.936C417.616 254.841 417.616 254.765 417.616 254.67Z" fill="#9CA3AF"/>
<path d="M432.017 259.052C432.017 259.014 431.979 258.976 431.922 258.976C431.865 258.976 431.827 259.014 431.827 259.052C431.827 259.09 431.865 259.128 431.922 259.109C431.979 259.109 432.017 259.09 432.017 259.052ZM431.427 258.957C431.427 258.995 431.465 259.052 431.522 259.052C431.56 259.071 431.617 259.052 431.636 259.014C431.636 258.976 431.617 258.938 431.56 258.918C431.503 258.899 431.446 258.918 431.427 258.957ZM432.284 258.938C432.227 258.938 432.188 258.976 432.188 259.033C432.188 259.071 432.246 259.09 432.303 259.071C432.36 259.052 432.398 259.033 432.379 258.995C432.379 258.957 432.322 258.918 432.284 258.938ZM433.521 251.625C430.894 251.625 428.875 253.644 428.875 256.271C428.875 258.385 430.189 260.194 432.093 260.842C432.341 260.88 432.417 260.728 432.417 260.613C432.417 260.48 432.417 259.833 432.417 259.433C432.417 259.433 431.084 259.718 430.798 258.861C430.798 258.861 430.589 258.309 430.284 258.176C430.284 258.176 429.846 257.871 430.303 257.871C430.303 257.871 430.779 257.909 431.046 258.366C431.465 259.109 432.15 258.899 432.436 258.766C432.474 258.461 432.588 258.252 432.741 258.119C431.674 258.004 430.589 257.852 430.589 256.024C430.589 255.491 430.741 255.243 431.046 254.9C430.989 254.767 430.836 254.272 431.103 253.605C431.484 253.491 432.417 254.12 432.417 254.12C432.798 254.005 433.198 253.967 433.598 253.967C434.017 253.967 434.417 254.005 434.797 254.12C434.797 254.12 435.711 253.472 436.111 253.605C436.378 254.272 436.207 254.767 436.168 254.9C436.473 255.243 436.664 255.491 436.664 256.024C436.664 257.852 435.54 258.004 434.474 258.119C434.645 258.271 434.797 258.557 434.797 259.014C434.797 259.642 434.778 260.442 434.778 260.594C434.778 260.728 434.874 260.88 435.121 260.823C437.025 260.194 438.32 258.385 438.32 256.271C438.32 253.644 436.168 251.625 433.521 251.625ZM430.722 258.195C430.684 258.214 430.703 258.271 430.722 258.309C430.76 258.328 430.798 258.347 430.836 258.328C430.855 258.309 430.855 258.252 430.817 258.214C430.779 258.195 430.741 258.176 430.722 258.195ZM430.513 258.042C430.494 258.081 430.513 258.1 430.551 258.119C430.589 258.138 430.627 258.138 430.646 258.1C430.646 258.081 430.627 258.062 430.589 258.042C430.551 258.023 430.532 258.023 430.513 258.042ZM431.122 258.728C431.103 258.747 431.103 258.804 431.16 258.842C431.198 258.88 431.255 258.899 431.274 258.861C431.293 258.842 431.293 258.785 431.255 258.747C431.217 258.709 431.16 258.69 431.122 258.728ZM430.913 258.442C430.875 258.461 430.875 258.519 430.913 258.557C430.951 258.595 430.989 258.614 431.027 258.595C431.046 258.576 431.046 258.519 431.027 258.48C430.989 258.442 430.951 258.423 430.913 258.442Z" fill="#9CA3AF"/>
<path d="M453.598 251.625C450.989 251.625 448.875 253.758 448.875 256.348C448.875 258.957 450.989 261.07 453.598 261.07C456.188 261.07 458.32 258.957 458.32 256.348C458.32 253.758 456.188 251.625 453.598 251.625ZM456.702 253.815C457.273 254.5 457.616 255.376 457.616 256.329C457.482 256.291 456.149 256.024 454.816 256.195C454.702 255.929 454.607 255.7 454.455 255.396C455.959 254.786 456.625 253.929 456.702 253.815ZM456.264 253.339C456.188 253.453 455.578 254.272 454.15 254.805C453.483 253.586 452.76 252.596 452.646 252.444C453.921 252.139 455.273 252.463 456.264 253.339ZM451.865 252.71C451.979 252.863 452.703 253.853 453.369 255.053C451.484 255.548 449.827 255.548 449.637 255.529C449.903 254.291 450.741 253.244 451.865 252.71ZM449.561 256.367C449.561 256.329 449.561 256.291 449.561 256.233C449.732 256.252 451.693 256.271 453.693 255.662C453.826 255.891 453.921 256.119 454.036 256.348C452.569 256.767 451.236 257.947 450.589 259.052C449.941 258.347 449.561 257.395 449.561 256.367ZM451.103 259.547C451.541 258.69 452.684 257.566 454.302 257.014C454.874 258.48 455.102 259.718 455.159 260.08C453.864 260.632 452.303 260.48 451.103 259.547ZM455.845 259.699C455.807 259.471 455.578 258.29 455.064 256.824C456.321 256.633 457.425 256.957 457.578 256.995C457.387 258.119 456.74 259.09 455.845 259.699Z" fill="#9CA3AF"/>
<path d="M475.937 257.109L476.204 255.357H474.509V254.215C474.509 253.72 474.737 253.263 475.499 253.263H476.28V251.758C476.28 251.758 475.575 251.625 474.909 251.625C473.519 251.625 472.604 252.482 472.604 254.005V255.357H471.043V257.109H472.604V261.375H474.509V257.109H475.937Z" fill="#9CA3AF"/>
</svg>
