<svg width="536" height="345" viewBox="0 0 536 345" fill="none" xmlns="http://www.w3.org/2000/svg">
<g opacity="0.8" filter="url(#filter0_dd_2808_7918)">
<rect width="453.433" height="36" transform="translate(41.2832 101)" fill="#FAFAFA"/>
<path d="M56.7832 123.167V114.833M56.7832 123.167C56.7832 123.609 56.6076 124.033 56.295 124.345C55.9825 124.658 55.5586 124.833 55.1165 124.833H53.4499C53.0078 124.833 52.5839 124.658 52.2714 124.345C51.9588 124.033 51.7832 123.609 51.7832 123.167V114.833C51.7832 114.391 51.9588 113.967 52.2714 113.655C52.5839 113.342 53.0078 113.167 53.4499 113.167H55.1165C55.5586 113.167 55.9825 113.342 56.295 113.655C56.6076 113.967 56.7832 114.391 56.7832 114.833M56.7832 123.167C56.7832 123.609 56.9588 124.033 57.2714 124.345C57.5839 124.658 58.0078 124.833 58.4499 124.833H60.1165C60.5586 124.833 60.9825 124.658 61.295 124.345C61.6076 124.033 61.7832 123.609 61.7832 123.167M56.7832 114.833C56.7832 114.391 56.9588 113.967 57.2714 113.655C57.5839 113.342 58.0078 113.167 58.4499 113.167H60.1165C60.5586 113.167 60.9825 113.342 61.295 113.655C61.6076 113.967 61.7832 114.391 61.7832 114.833M61.7832 123.167V114.833M61.7832 123.167C61.7832 123.609 61.9588 124.033 62.2714 124.345C62.5839 124.658 63.0078 124.833 63.4499 124.833H65.1165C65.5586 124.833 65.9825 124.658 66.295 124.345C66.6076 124.033 66.7832 123.609 66.7832 123.167V114.833C66.7832 114.391 66.6076 113.967 66.295 113.655C65.9825 113.342 65.5586 113.167 65.1165 113.167H63.4499C63.0078 113.167 62.5839 113.342 62.2714 113.655C61.9588 113.967 61.7832 114.391 61.7832 114.833" stroke="#9CA3AF" stroke-width="2" stroke-linecap="round" stroke-linejoin="round"/>
<path d="M276.681 110.764H79.0284C77.5123 110.764 76.2832 111.993 76.2832 113.51V124.49C76.2832 126.006 77.5123 127.235 79.0284 127.235H276.681C278.197 127.235 279.426 126.006 279.426 124.49V113.51C279.426 111.993 278.197 110.764 276.681 110.764Z" fill="#E4E4E7"/>
<path d="M349.182 116.255H329.099C328.175 116.255 327.426 117.484 327.426 119C327.426 120.516 328.175 121.745 329.099 121.745H349.182C350.106 121.745 350.856 120.516 350.856 119C350.856 117.484 350.106 116.255 349.182 116.255Z" fill="#9CA3AF"/>
<path d="M384.612 116.255H364.529C363.605 116.255 362.855 117.484 362.855 119C362.855 120.516 363.605 121.745 364.529 121.745H384.612C385.536 121.745 386.285 120.516 386.285 119C386.285 117.484 385.536 116.255 384.612 116.255Z" fill="#9CA3AF"/>
<path d="M423.756 116.255H400.244C399.162 116.255 398.285 117.484 398.285 119C398.285 120.516 399.162 121.745 400.244 121.745H423.756C424.838 121.745 425.715 120.516 425.715 119C425.715 117.484 424.838 116.255 423.756 116.255Z" fill="#9CA3AF"/>
<rect x="437.715" y="112.5" width="49" height="13" rx="3" fill="#1A56DB"/>
<rect x="449.715" y="116.955" width="25" height="4.09043" rx="2" fill="white"/>
</g>
<g opacity="0.8" filter="url(#filter1_dd_2808_7918)">
<rect width="453" height="75" transform="translate(41.5 169)" fill="#FAFAFA"/>
<path d="M55 189.167V180.833M55 189.167C55 189.609 54.8244 190.033 54.5118 190.345C54.1993 190.658 53.7754 190.833 53.3333 190.833H51.6667C51.2246 190.833 50.8007 190.658 50.4882 190.345C50.1756 190.033 50 189.609 50 189.167V180.833C50 180.391 50.1756 179.967 50.4882 179.655C50.8007 179.342 51.2246 179.167 51.6667 179.167H53.3333C53.7754 179.167 54.1993 179.342 54.5118 179.655C54.8244 179.967 55 180.391 55 180.833M55 189.167C55 189.609 55.1756 190.033 55.4882 190.345C55.8007 190.658 56.2246 190.833 56.6667 190.833H58.3333C58.7754 190.833 59.1993 190.658 59.5118 190.345C59.8244 190.033 60 189.609 60 189.167M55 180.833C55 180.391 55.1756 179.967 55.4882 179.655C55.8007 179.342 56.2246 179.167 56.6667 179.167H58.3333C58.7754 179.167 59.1993 179.342 59.5118 179.655C59.8244 179.967 60 180.391 60 180.833M60 189.167V180.833M60 189.167C60 189.609 60.1756 190.033 60.4882 190.345C60.8007 190.658 61.2246 190.833 61.6667 190.833H63.3333C63.7754 190.833 64.1993 190.658 64.5118 190.345C64.8244 190.033 65 189.609 65 189.167V180.833C65 180.391 64.8244 179.967 64.5118 179.655C64.1993 179.342 63.7754 179.167 63.3333 179.167H61.6667C61.2246 179.167 60.8007 179.342 60.4882 179.655C60.1756 179.967 60 180.391 60 180.833" stroke="#9CA3AF" stroke-width="2" stroke-linecap="round" stroke-linejoin="round"/>
<path d="M328.898 176.764H131.245C129.729 176.764 128.5 177.993 128.5 179.51V190.49C128.5 192.006 129.729 193.235 131.245 193.235H328.898C330.414 193.235 331.643 192.006 331.643 190.49V179.51C331.643 177.993 330.414 176.764 328.898 176.764Z" fill="#E4E4E7"/>
<g clip-path="url(#clip0_2808_7918)">
<path d="M452.498 179.4C452.074 179.4 451.667 179.568 451.367 179.869C451.067 180.169 450.898 180.576 450.898 181V182.6C450.898 183.024 451.067 183.431 451.367 183.731C451.667 184.031 452.074 184.2 452.498 184.2H454.098C454.523 184.2 454.93 184.031 455.23 183.731C455.53 183.431 455.698 183.024 455.698 182.6V181C455.698 180.576 455.53 180.169 455.23 179.869C454.93 179.568 454.523 179.4 454.098 179.4H452.498ZM452.498 185.8C452.074 185.8 451.667 185.968 451.367 186.269C451.067 186.569 450.898 186.976 450.898 187.4V189C450.898 189.424 451.067 189.831 451.367 190.131C451.667 190.431 452.074 190.6 452.498 190.6H454.098C454.523 190.6 454.93 190.431 455.23 190.131C455.53 189.831 455.698 189.424 455.698 189V187.4C455.698 186.976 455.53 186.569 455.23 186.269C454.93 185.968 454.523 185.8 454.098 185.8H452.498ZM457.298 181C457.298 180.576 457.467 180.169 457.767 179.869C458.067 179.568 458.474 179.4 458.898 179.4H460.498C460.923 179.4 461.33 179.568 461.63 179.869C461.93 180.169 462.098 180.576 462.098 181V182.6C462.098 183.024 461.93 183.431 461.63 183.731C461.33 184.031 460.923 184.2 460.498 184.2H458.898C458.474 184.2 458.067 184.031 457.767 183.731C457.467 183.431 457.298 183.024 457.298 182.6V181ZM457.298 187.4C457.298 186.976 457.467 186.569 457.767 186.269C458.067 185.968 458.474 185.8 458.898 185.8H460.498C460.923 185.8 461.33 185.968 461.63 186.269C461.93 186.569 462.098 186.976 462.098 187.4V189C462.098 189.424 461.93 189.831 461.63 190.131C461.33 190.431 460.923 190.6 460.498 190.6H458.898C458.474 190.6 458.067 190.431 457.767 190.131C457.467 189.831 457.298 189.424 457.298 189V187.4Z" fill="#6B7280"/>
<path fill-rule="evenodd" clip-rule="evenodd" d="M486.902 185C486.902 186.697 486.227 188.325 485.027 189.526C483.827 190.726 482.199 191.4 480.502 191.4C478.804 191.4 477.176 190.726 475.976 189.526C474.776 188.325 474.102 186.697 474.102 185C474.102 183.303 474.776 181.675 475.976 180.475C477.176 179.274 478.804 178.6 480.502 178.6C482.199 178.6 483.827 179.274 485.027 180.475C486.227 181.675 486.902 183.303 486.902 185V185ZM482.102 182.6C482.102 183.024 481.933 183.431 481.633 183.731C481.333 184.032 480.926 184.2 480.502 184.2C480.077 184.2 479.67 184.032 479.37 183.731C479.07 183.431 478.902 183.024 478.902 182.6C478.902 182.176 479.07 181.769 479.37 181.469C479.67 181.169 480.077 181 480.502 181C480.926 181 481.333 181.169 481.633 181.469C481.933 181.769 482.102 182.176 482.102 182.6V182.6ZM480.502 185.8C479.736 185.8 478.986 186.02 478.341 186.433C477.696 186.847 477.184 187.437 476.865 188.133C477.315 188.657 477.873 189.077 478.501 189.364C479.128 189.652 479.811 189.801 480.502 189.8C481.192 189.801 481.875 189.652 482.502 189.364C483.13 189.077 483.688 188.657 484.138 188.133C483.819 187.437 483.307 186.847 482.662 186.433C482.017 186.02 481.267 185.8 480.502 185.8V185.8Z" fill="#6B7280"/>
</g>
<rect width="453" height="26" transform="translate(41.5 201)" fill="#F4F4F5"/>
<path fill-rule="evenodd" clip-rule="evenodd" d="M60.1004 214C60.1004 215.485 59.5104 216.909 58.4602 217.96C57.41 219.01 55.9856 219.6 54.5004 219.6C53.0152 219.6 51.5908 219.01 50.5406 217.96C49.4904 216.909 48.9004 215.485 48.9004 214C48.9004 212.515 49.4904 211.09 50.5406 210.04C51.5908 208.99 53.0152 208.4 54.5004 208.4C55.9856 208.4 57.41 208.99 58.4602 210.04C59.5104 211.09 60.1004 212.515 60.1004 214V214ZM55.9004 211.9C55.9004 212.271 55.7529 212.627 55.4903 212.89C55.2278 213.152 54.8717 213.3 54.5004 213.3C54.1291 213.3 53.773 213.152 53.5104 212.89C53.2479 212.627 53.1004 212.271 53.1004 211.9C53.1004 211.529 53.2479 211.173 53.5104 210.91C53.773 210.647 54.1291 210.5 54.5004 210.5C54.8717 210.5 55.2278 210.647 55.4903 210.91C55.7529 211.173 55.9004 211.529 55.9004 211.9V211.9ZM54.5004 214.7C53.8302 214.7 53.1741 214.892 52.61 215.254C52.0459 215.616 51.5975 216.132 51.3182 216.741C51.7121 217.199 52.2004 217.567 52.7497 217.819C53.2989 218.071 53.8962 218.201 54.5004 218.2C55.1046 218.201 55.7019 218.071 56.2511 217.819C56.8004 217.567 57.2887 217.199 57.6826 216.741C57.4033 216.132 56.9549 215.616 56.3908 215.254C55.8267 214.892 55.1706 214.7 54.5004 214.7V214.7Z" fill="#6B7280"/>
<path d="M98.9286 211.5H68.0714C66.6513 211.5 65.5 212.619 65.5 214C65.5 215.381 66.6513 216.5 68.0714 216.5H98.9286C100.349 216.5 101.5 215.381 101.5 214C101.5 212.619 100.349 211.5 98.9286 211.5Z" fill="#9CA3AF"/>
<path fill-rule="evenodd" clip-rule="evenodd" d="M108.5 210.5C108.632 210.5 108.76 210.553 108.853 210.646L110.353 212.147C110.444 212.241 110.495 212.367 110.494 212.498C110.493 212.629 110.44 212.755 110.347 212.847C110.255 212.94 110.129 212.993 109.998 212.994C109.867 212.995 109.741 212.945 109.646 212.853L108.5 211.707L107.353 212.853C107.259 212.945 107.133 212.995 107.002 212.994C106.871 212.993 106.745 212.94 106.652 212.847C106.56 212.755 106.507 212.629 106.506 212.498C106.505 212.367 106.555 212.241 106.646 212.147L108.146 210.646C108.24 210.553 108.367 210.5 108.5 210.5ZM106.646 215.147C106.74 215.053 106.867 215 107 215C107.132 215 107.26 215.053 107.353 215.147L108.5 216.293L109.646 215.147C109.741 215.055 109.867 215.005 109.998 215.006C110.129 215.007 110.255 215.06 110.347 215.153C110.44 215.245 110.493 215.371 110.494 215.502C110.495 215.633 110.444 215.759 110.353 215.853L108.853 217.354C108.76 217.447 108.632 217.5 108.5 217.5C108.367 217.5 108.24 217.447 108.146 217.354L106.646 215.853C106.553 215.76 106.5 215.633 106.5 215.5C106.5 215.367 106.553 215.24 106.646 215.147V215.147Z" fill="#6B7280"/>
<g clip-path="url(#clip1_2808_7918)">
<rect x="407.5" y="208.455" width="36.5" height="11.09" rx="2" fill="#1A56DB"/>
<rect x="417.5" y="212.455" width="16.5" height="3.09" rx="1.545" fill="white"/>
<rect x="452" y="208.455" width="36.5" height="11.09" rx="2" fill="#1A56DB"/>
<rect x="462" y="212.455" width="16.5" height="3.09" rx="1.545" fill="white"/>
</g>
<rect width="453" height="17" transform="translate(41.5 227)" fill="#FAFAFA"/>
<path d="M69.9184 233H49.2245C48.2721 233 47.5 234.119 47.5 235.5C47.5 236.881 48.2721 238 49.2245 238H69.9184C70.8708 238 71.6429 236.881 71.6429 235.5C71.6429 234.119 70.8708 233 69.9184 233Z" fill="#9CA3AF"/>
<path d="M108.061 233H87.3671C86.4147 233 85.6426 234.119 85.6426 235.5C85.6426 236.881 86.4147 238 87.3671 238H108.061C109.013 238 109.785 236.881 109.785 235.5C109.785 234.119 109.013 233 108.061 233Z" fill="#9CA3AF"/>
<path d="M146.204 233H125.51C124.557 233 123.785 234.119 123.785 235.5C123.785 236.881 124.557 238 125.51 238H146.204C147.156 238 147.928 236.881 147.928 235.5C147.928 234.119 147.156 233 146.204 233Z" fill="#9CA3AF"/>
<path d="M184.348 233H163.654C162.702 233 161.93 234.119 161.93 235.5C161.93 236.881 162.702 238 163.654 238H184.348C185.3 238 186.073 236.881 186.073 235.5C186.073 234.119 185.3 233 184.348 233Z" fill="#9CA3AF"/>
<path d="M222.489 233H201.795C200.842 233 200.07 234.119 200.07 235.5C200.07 236.881 200.842 238 201.795 238H222.489C223.441 238 224.213 236.881 224.213 235.5C224.213 234.119 223.441 233 222.489 233Z" fill="#9CA3AF"/>
<path d="M260.633 233H239.939C238.987 233 238.215 234.119 238.215 235.5C238.215 236.881 238.987 238 239.939 238H260.633C261.586 238 262.358 236.881 262.358 235.5C262.358 234.119 261.586 233 260.633 233Z" fill="#9CA3AF"/>
<path d="M298.774 233H278.08C277.128 233 276.355 234.119 276.355 235.5C276.355 236.881 277.128 238 278.08 238H298.774C299.726 238 300.498 236.881 300.498 235.5C300.498 234.119 299.726 233 298.774 233Z" fill="#9CA3AF"/>
</g>
<defs>
<filter id="filter0_dd_2808_7918" x="38.2832" y="99" width="459.432" height="42" filterUnits="userSpaceOnUse" color-interpolation-filters="sRGB">
<feFlood flood-opacity="0" result="BackgroundImageFix"/>
<feColorMatrix in="SourceAlpha" type="matrix" values="0 0 0 0 0 0 0 0 0 0 0 0 0 0 0 0 0 0 127 0" result="hardAlpha"/>
<feOffset dy="1"/>
<feGaussianBlur stdDeviation="1.5"/>
<feColorMatrix type="matrix" values="0 0 0 0 0 0 0 0 0 0 0 0 0 0 0 0 0 0 0.1 0"/>
<feBlend mode="normal" in2="BackgroundImageFix" result="effect1_dropShadow_2808_7918"/>
<feColorMatrix in="SourceAlpha" type="matrix" values="0 0 0 0 0 0 0 0 0 0 0 0 0 0 0 0 0 0 127 0" result="hardAlpha"/>
<feOffset dy="1"/>
<feGaussianBlur stdDeviation="1"/>
<feColorMatrix type="matrix" values="0 0 0 0 0 0 0 0 0 0 0 0 0 0 0 0 0 0 0.06 0"/>
<feBlend mode="normal" in2="effect1_dropShadow_2808_7918" result="effect2_dropShadow_2808_7918"/>
<feBlend mode="normal" in="SourceGraphic" in2="effect2_dropShadow_2808_7918" result="shape"/>
</filter>
<filter id="filter1_dd_2808_7918" x="38.5" y="167" width="459" height="81" filterUnits="userSpaceOnUse" color-interpolation-filters="sRGB">
<feFlood flood-opacity="0" result="BackgroundImageFix"/>
<feColorMatrix in="SourceAlpha" type="matrix" values="0 0 0 0 0 0 0 0 0 0 0 0 0 0 0 0 0 0 127 0" result="hardAlpha"/>
<feOffset dy="1"/>
<feGaussianBlur stdDeviation="1.5"/>
<feColorMatrix type="matrix" values="0 0 0 0 0 0 0 0 0 0 0 0 0 0 0 0 0 0 0.1 0"/>
<feBlend mode="normal" in2="BackgroundImageFix" result="effect1_dropShadow_2808_7918"/>
<feColorMatrix in="SourceAlpha" type="matrix" values="0 0 0 0 0 0 0 0 0 0 0 0 0 0 0 0 0 0 127 0" result="hardAlpha"/>
<feOffset dy="1"/>
<feGaussianBlur stdDeviation="1"/>
<feColorMatrix type="matrix" values="0 0 0 0 0 0 0 0 0 0 0 0 0 0 0 0 0 0 0.06 0"/>
<feBlend mode="normal" in2="effect1_dropShadow_2808_7918" result="effect2_dropShadow_2808_7918"/>
<feBlend mode="normal" in="SourceGraphic" in2="effect2_dropShadow_2808_7918" result="shape"/>
</filter>
<clipPath id="clip0_2808_7918">
<rect x="392.645" y="177" width="95.8568" height="16" rx="8" fill="white"/>
</clipPath>
<clipPath id="clip1_2808_7918">
<rect width="81" height="11.09" fill="white" transform="translate(407.5 208.455)"/>
</clipPath>
</defs>
</svg>
