<svg width="536" height="345" viewBox="0 0 536 345" fill="none" xmlns="http://www.w3.org/2000/svg">
<path d="M41.7727 144.5H35.321V127.045H41.7642C43.5426 127.045 45.0739 127.395 46.358 128.094C47.6477 128.787 48.642 129.787 49.3409 131.094C50.0398 132.395 50.3892 133.952 50.3892 135.764C50.3892 137.582 50.0398 139.145 49.3409 140.452C48.6477 141.759 47.6562 142.761 46.3665 143.46C45.0767 144.153 43.5455 144.5 41.7727 144.5ZM39.5398 140.903H41.6108C42.5881 140.903 43.4148 140.739 44.0909 140.409C44.7727 140.074 45.2869 139.531 45.6335 138.781C45.9858 138.026 46.1619 137.02 46.1619 135.764C46.1619 134.509 45.9858 133.509 45.6335 132.764C45.2813 132.014 44.7614 131.474 44.0739 131.145C43.392 130.81 42.5511 130.642 41.5511 130.642H39.5398V140.903ZM58.9631 144.747C57.5881 144.747 56.4063 144.466 55.4176 143.903C54.4347 143.335 53.6761 142.545 53.142 141.534C52.6136 140.517 52.3494 139.338 52.3494 137.997C52.3494 136.651 52.6136 135.472 53.142 134.46C53.6761 133.443 54.4347 132.653 55.4176 132.091C56.4063 131.523 57.5881 131.239 58.9631 131.239C60.3381 131.239 61.517 131.523 62.5 132.091C63.4886 132.653 64.2472 133.443 64.7756 134.46C65.3097 135.472 65.5767 136.651 65.5767 137.997C65.5767 139.338 65.3097 140.517 64.7756 141.534C64.2472 142.545 63.4886 143.335 62.5 143.903C61.517 144.466 60.3381 144.747 58.9631 144.747ZM58.9886 141.602C59.4886 141.602 59.9119 141.449 60.2585 141.142C60.6051 140.835 60.8693 140.409 61.0511 139.864C61.2386 139.318 61.3324 138.687 61.3324 137.972C61.3324 137.244 61.2386 136.608 61.0511 136.062C60.8693 135.517 60.6051 135.091 60.2585 134.784C59.9119 134.477 59.4886 134.324 58.9886 134.324C58.4716 134.324 58.0341 134.477 57.6761 134.784C57.3239 135.091 57.054 135.517 56.8665 136.062C56.6847 136.608 56.5938 137.244 56.5938 137.972C56.5938 138.687 56.6847 139.318 56.8665 139.864C57.054 140.409 57.3239 140.835 57.6761 141.142C58.0341 141.449 58.4716 141.602 58.9886 141.602ZM69.8764 144.5L66.4673 131.409H70.652L72.4162 139.795H72.527L74.419 131.409H78.5014L80.4446 139.736H80.5554L82.2685 131.409H86.4531L83.0355 144.5H78.5781L76.5327 136.872H76.3878L74.3423 144.5H69.8764ZM92.2933 137.034V144.5H88.1257V131.409H92.0888V133.812H92.2337C92.5234 133.011 93.0178 132.384 93.7166 131.929C94.4155 131.469 95.2479 131.239 96.2138 131.239C97.1342 131.239 97.9325 131.446 98.6087 131.861C99.2905 132.27 99.8189 132.844 100.194 133.582C100.575 134.315 100.762 135.173 100.756 136.156V144.5H96.5888V136.974C96.5945 136.247 96.4098 135.679 96.0348 135.27C95.6655 134.861 95.1513 134.656 94.4922 134.656C94.0547 134.656 93.6683 134.753 93.3331 134.946C93.0036 135.134 92.7479 135.403 92.5661 135.756C92.3899 136.108 92.299 136.534 92.2933 137.034ZM115.933 131.409V134.477H107.513V131.409H115.933ZM109.268 144.5V130.744C109.268 129.733 109.459 128.895 109.839 128.23C110.22 127.56 110.749 127.06 111.425 126.73C112.101 126.395 112.882 126.227 113.768 126.227C114.348 126.227 114.893 126.273 115.405 126.364C115.922 126.449 116.305 126.526 116.555 126.594L115.891 129.645C115.737 129.594 115.55 129.551 115.328 129.517C115.112 129.483 114.908 129.466 114.714 129.466C114.226 129.466 113.891 129.574 113.709 129.79C113.527 130.006 113.436 130.301 113.436 130.676V144.5H109.268ZM123.627 144.747C122.252 144.747 121.07 144.466 120.082 143.903C119.099 143.335 118.34 142.545 117.806 141.534C117.278 140.517 117.013 139.338 117.013 137.997C117.013 136.651 117.278 135.472 117.806 134.46C118.34 133.443 119.099 132.653 120.082 132.091C121.07 131.523 122.252 131.239 123.627 131.239C125.002 131.239 126.181 131.523 127.164 132.091C128.153 132.653 128.911 133.443 129.44 134.46C129.974 135.472 130.241 136.651 130.241 137.997C130.241 139.338 129.974 140.517 129.44 141.534C128.911 142.545 128.153 143.335 127.164 143.903C126.181 144.466 125.002 144.747 123.627 144.747ZM123.653 141.602C124.153 141.602 124.576 141.449 124.923 141.142C125.269 140.835 125.533 140.409 125.715 139.864C125.903 139.318 125.996 138.687 125.996 137.972C125.996 137.244 125.903 136.608 125.715 136.062C125.533 135.517 125.269 135.091 124.923 134.784C124.576 134.477 124.153 134.324 123.653 134.324C123.136 134.324 122.698 134.477 122.34 134.784C121.988 135.091 121.718 135.517 121.531 136.062C121.349 136.608 121.258 137.244 121.258 137.972C121.258 138.687 121.349 139.318 121.531 139.864C121.718 140.409 121.988 140.835 122.34 141.142C122.698 141.449 123.136 141.602 123.653 141.602ZM132.376 144.5V131.409H136.424V133.795H136.56C136.799 132.932 137.188 132.29 137.728 131.869C138.268 131.443 138.896 131.23 139.612 131.23C139.805 131.23 140.004 131.244 140.208 131.273C140.413 131.295 140.603 131.332 140.779 131.384V135.006C140.58 134.937 140.319 134.884 139.995 134.844C139.677 134.804 139.393 134.784 139.143 134.784C138.648 134.784 138.202 134.895 137.805 135.116C137.413 135.332 137.103 135.636 136.876 136.028C136.654 136.415 136.543 136.869 136.543 137.392V144.5H132.376ZM35.321 152.045H40.5455L44.9773 162.852H45.1818L49.6136 152.045H54.8381V169.5H50.7301V158.778H50.5852L46.392 169.389H43.767L39.5739 158.719H39.429V169.5H35.321V152.045ZM61.1598 169.722C60.3246 169.722 59.5831 169.582 58.9354 169.304C58.2933 169.02 57.7848 168.594 57.4098 168.026C57.0405 167.452 56.8558 166.733 56.8558 165.869C56.8558 165.142 56.9837 164.528 57.2393 164.028C57.495 163.528 57.8473 163.122 58.2962 162.81C58.745 162.497 59.2621 162.261 59.8473 162.102C60.4325 161.937 61.0575 161.827 61.7223 161.77C62.4666 161.702 63.0661 161.631 63.5206 161.557C63.9751 161.477 64.3047 161.366 64.5092 161.224C64.7195 161.077 64.8246 160.869 64.8246 160.602V160.56C64.8246 160.122 64.674 159.784 64.3729 159.545C64.0717 159.307 63.6655 159.188 63.1541 159.188C62.603 159.188 62.1598 159.307 61.8246 159.545C61.4893 159.784 61.2763 160.114 61.1854 160.534L57.3416 160.398C57.4553 159.602 57.7479 158.892 58.2195 158.267C58.6967 157.636 59.3501 157.142 60.1797 156.784C61.0149 156.42 62.0178 156.239 63.1882 156.239C64.0234 156.239 64.7933 156.338 65.4979 156.537C66.2024 156.73 66.8161 157.014 67.3388 157.389C67.8615 157.759 68.2649 158.213 68.549 158.753C68.8388 159.293 68.9837 159.909 68.9837 160.602V169.5H65.0632V167.676H64.9609C64.728 168.119 64.4297 168.494 64.0661 168.801C63.7081 169.108 63.2848 169.338 62.7962 169.491C62.3132 169.645 61.7678 169.722 61.1598 169.722ZM62.4467 166.994C62.8956 166.994 63.299 166.903 63.657 166.722C64.0206 166.54 64.3104 166.29 64.5263 165.972C64.7422 165.648 64.8501 165.273 64.8501 164.847V163.602C64.7308 163.665 64.5859 163.722 64.4155 163.773C64.2507 163.824 64.0689 163.872 63.87 163.918C63.6712 163.963 63.4666 164.003 63.2564 164.037C63.0462 164.071 62.8445 164.102 62.6513 164.131C62.2592 164.193 61.924 164.29 61.6456 164.42C61.3729 164.551 61.1626 164.722 61.0149 164.932C60.8729 165.136 60.8018 165.381 60.8018 165.665C60.8018 166.097 60.9553 166.426 61.2621 166.653C61.5746 166.881 61.9695 166.994 62.4467 166.994ZM71.532 169.5V156.409H75.6996V169.5H71.532ZM73.62 154.884C73.0348 154.884 72.532 154.69 72.1115 154.304C71.6911 153.912 71.4808 153.44 71.4808 152.889C71.4808 152.344 71.6911 151.878 72.1115 151.491C72.532 151.099 73.0348 150.903 73.62 150.903C74.2109 150.903 74.7138 151.099 75.1286 151.491C75.549 151.878 75.7592 152.344 75.7592 152.889C75.7592 153.44 75.549 153.912 75.1286 154.304C74.7138 154.69 74.2109 154.884 73.62 154.884ZM82.5199 162.034V169.5H78.3523V156.409H82.3153V158.812H82.4602C82.75 158.011 83.2443 157.384 83.9432 156.929C84.642 156.469 85.4744 156.239 86.4403 156.239C87.3608 156.239 88.1591 156.446 88.8352 156.861C89.517 157.27 90.0455 157.844 90.4205 158.582C90.8011 159.315 90.9886 160.173 90.983 161.156V169.5H86.8153V161.974C86.821 161.247 86.6364 160.679 86.2614 160.27C85.892 159.861 85.3778 159.656 84.7188 159.656C84.2812 159.656 83.8949 159.753 83.5597 159.946C83.2301 160.134 82.9744 160.403 82.7926 160.756C82.6165 161.108 82.5256 161.534 82.5199 162.034ZM100.952 156.409V159.477H92.6939V156.409H100.952ZM94.424 153.273H98.5916V165.384C98.5916 165.639 98.6314 165.847 98.7109 166.006C98.7962 166.159 98.9183 166.27 99.0774 166.338C99.2365 166.401 99.4268 166.432 99.6484 166.432C99.8075 166.432 99.9751 166.418 100.151 166.389C100.333 166.355 100.469 166.327 100.56 166.304L101.191 169.312C100.992 169.369 100.711 169.44 100.347 169.526C99.9893 169.611 99.5604 169.665 99.0604 169.688C98.0831 169.733 97.245 169.619 96.5462 169.347C95.853 169.068 95.3217 168.636 94.9524 168.051C94.5888 167.466 94.4126 166.73 94.424 165.844V153.273ZM109.058 169.747C107.688 169.747 106.506 169.477 105.512 168.938C104.523 168.392 103.762 167.616 103.228 166.611C102.7 165.599 102.435 164.398 102.435 163.006C102.435 161.653 102.702 160.472 103.237 159.46C103.771 158.443 104.523 157.653 105.495 157.091C106.467 156.523 107.612 156.239 108.93 156.239C109.862 156.239 110.714 156.384 111.487 156.673C112.259 156.963 112.927 157.392 113.489 157.96C114.052 158.528 114.489 159.23 114.802 160.065C115.114 160.895 115.271 161.847 115.271 162.92V163.96H103.893V161.54H111.393C111.387 161.097 111.282 160.702 111.077 160.355C110.873 160.009 110.592 159.739 110.234 159.545C109.881 159.347 109.475 159.247 109.015 159.247C108.549 159.247 108.131 159.352 107.762 159.562C107.393 159.767 107.1 160.048 106.884 160.406C106.668 160.759 106.555 161.159 106.543 161.608V164.071C106.543 164.605 106.648 165.074 106.859 165.477C107.069 165.875 107.367 166.185 107.754 166.406C108.14 166.628 108.6 166.739 109.134 166.739C109.504 166.739 109.839 166.687 110.14 166.585C110.441 166.483 110.7 166.332 110.915 166.134C111.131 165.935 111.293 165.69 111.401 165.401L115.228 165.511C115.069 166.369 114.719 167.116 114.18 167.753C113.646 168.384 112.944 168.875 112.075 169.227C111.205 169.574 110.2 169.747 109.058 169.747ZM121.567 162.034V169.5H117.399V156.409H121.362V158.812H121.507C121.797 158.011 122.291 157.384 122.99 156.929C123.689 156.469 124.521 156.239 125.487 156.239C126.408 156.239 127.206 156.446 127.882 156.861C128.564 157.27 129.092 157.844 129.467 158.582C129.848 159.315 130.036 160.173 130.03 161.156V169.5H125.862V161.974C125.868 161.247 125.683 160.679 125.308 160.27C124.939 159.861 124.425 159.656 123.766 159.656C123.328 159.656 122.942 159.753 122.607 159.946C122.277 160.134 122.021 160.403 121.839 160.756C121.663 161.108 121.572 161.534 121.567 162.034ZM136.3 169.722C135.465 169.722 134.724 169.582 134.076 169.304C133.434 169.02 132.925 168.594 132.55 168.026C132.181 167.452 131.996 166.733 131.996 165.869C131.996 165.142 132.124 164.528 132.38 164.028C132.636 163.528 132.988 163.122 133.437 162.81C133.886 162.497 134.403 162.261 134.988 162.102C135.573 161.937 136.198 161.827 136.863 161.77C137.607 161.702 138.207 161.631 138.661 161.557C139.116 161.477 139.445 161.366 139.65 161.224C139.86 161.077 139.965 160.869 139.965 160.602V160.56C139.965 160.122 139.815 159.784 139.513 159.545C139.212 159.307 138.806 159.188 138.295 159.188C137.744 159.188 137.3 159.307 136.965 159.545C136.63 159.784 136.417 160.114 136.326 160.534L132.482 160.398C132.596 159.602 132.888 158.892 133.36 158.267C133.837 157.636 134.491 157.142 135.32 156.784C136.156 156.42 137.158 156.239 138.329 156.239C139.164 156.239 139.934 156.338 140.638 156.537C141.343 156.73 141.957 157.014 142.479 157.389C143.002 157.759 143.406 158.213 143.69 158.753C143.979 159.293 144.124 159.909 144.124 160.602V169.5H140.204V167.676H140.102C139.869 168.119 139.57 168.494 139.207 168.801C138.849 169.108 138.425 169.338 137.937 169.491C137.454 169.645 136.908 169.722 136.3 169.722ZM137.587 166.994C138.036 166.994 138.44 166.903 138.798 166.722C139.161 166.54 139.451 166.29 139.667 165.972C139.883 165.648 139.991 165.273 139.991 164.847V163.602C139.871 163.665 139.727 163.722 139.556 163.773C139.391 163.824 139.21 163.872 139.011 163.918C138.812 163.963 138.607 164.003 138.397 164.037C138.187 164.071 137.985 164.102 137.792 164.131C137.4 164.193 137.065 164.29 136.786 164.42C136.513 164.551 136.303 164.722 136.156 164.932C136.013 165.136 135.942 165.381 135.942 165.665C135.942 166.097 136.096 166.426 136.403 166.653C136.715 166.881 137.11 166.994 137.587 166.994ZM150.84 162.034V169.5H146.673V156.409H150.636V158.812H150.781C151.07 158.011 151.565 157.384 152.263 156.929C152.962 156.469 153.795 156.239 154.761 156.239C155.681 156.239 156.479 156.446 157.156 156.861C157.837 157.27 158.366 157.844 158.741 158.582C159.121 159.315 159.309 160.173 159.303 161.156V169.5H155.136V161.974C155.141 161.247 154.957 160.679 154.582 160.27C154.212 159.861 153.698 159.656 153.039 159.656C152.602 159.656 152.215 159.753 151.88 159.946C151.55 160.134 151.295 160.403 151.113 160.756C150.937 161.108 150.846 161.534 150.84 162.034ZM167.994 169.747C166.614 169.747 165.429 169.463 164.44 168.895C163.457 168.327 162.702 167.537 162.173 166.526C161.645 165.509 161.381 164.332 161.381 162.997C161.381 161.656 161.645 160.48 162.173 159.469C162.707 158.452 163.466 157.659 164.449 157.091C165.438 156.523 166.616 156.239 167.986 156.239C169.196 156.239 170.25 156.457 171.148 156.895C172.051 157.332 172.756 157.952 173.261 158.753C173.773 159.548 174.043 160.483 174.071 161.557H170.176C170.097 160.886 169.869 160.361 169.494 159.98C169.125 159.599 168.642 159.409 168.045 159.409C167.563 159.409 167.139 159.545 166.776 159.818C166.412 160.085 166.128 160.483 165.923 161.011C165.724 161.534 165.625 162.182 165.625 162.955C165.625 163.727 165.724 164.381 165.923 164.915C166.128 165.443 166.412 165.844 166.776 166.116C167.139 166.384 167.563 166.517 168.045 166.517C168.432 166.517 168.773 166.435 169.068 166.27C169.369 166.105 169.616 165.864 169.81 165.545C170.003 165.222 170.125 164.83 170.176 164.369H174.071C174.031 165.449 173.761 166.392 173.261 167.199C172.767 168.006 172.071 168.634 171.173 169.082C170.281 169.526 169.222 169.747 167.994 169.747ZM182.323 169.747C180.954 169.747 179.772 169.477 178.778 168.938C177.789 168.392 177.028 167.616 176.494 166.611C175.965 165.599 175.701 164.398 175.701 163.006C175.701 161.653 175.968 160.472 176.502 159.46C177.036 158.443 177.789 157.653 178.761 157.091C179.732 156.523 180.877 156.239 182.195 156.239C183.127 156.239 183.979 156.384 184.752 156.673C185.525 156.963 186.192 157.392 186.755 157.96C187.317 158.528 187.755 159.23 188.067 160.065C188.38 160.895 188.536 161.847 188.536 162.92V163.96H177.158V161.54H184.658C184.653 161.097 184.548 160.702 184.343 160.355C184.138 160.009 183.857 159.739 183.499 159.545C183.147 159.347 182.741 159.247 182.281 159.247C181.815 159.247 181.397 159.352 181.028 159.562C180.658 159.767 180.366 160.048 180.15 160.406C179.934 160.759 179.82 161.159 179.809 161.608V164.071C179.809 164.605 179.914 165.074 180.124 165.477C180.335 165.875 180.633 166.185 181.019 166.406C181.406 166.628 181.866 166.739 182.4 166.739C182.769 166.739 183.104 166.687 183.406 166.585C183.707 166.483 183.965 166.332 184.181 166.134C184.397 165.935 184.559 165.69 184.667 165.401L188.494 165.511C188.335 166.369 187.985 167.116 187.445 167.753C186.911 168.384 186.21 168.875 185.34 169.227C184.471 169.574 183.465 169.747 182.323 169.747Z" fill="#9CA3AF"/>
<rect x="34" y="187.5" width="211" height="6" rx="3" fill="#6B7280"/>
<rect x="34" y="201.5" width="227" height="6" rx="3" fill="#6B7280"/>
<rect x="34" y="215.5" width="171" height="6" rx="3" fill="#6B7280"/>
<rect x="324" y="101.5" width="178" height="142" rx="5" fill="#374151"/>
<path fill-rule="evenodd" clip-rule="evenodd" d="M423.844 164.676C425.868 164.676 427.509 162.958 427.509 160.838C427.509 158.718 425.868 157 423.844 157C421.82 157 420.179 158.718 420.179 160.838C420.179 162.958 421.82 164.676 423.844 164.676ZM413.7 187.916H391.545C390.767 187.916 390.287 187.069 390.687 186.402L405.803 161.203C406.185 160.566 407.101 160.549 407.5 161.176C409.458 164.257 414.383 172.018 418.573 178.713L423.117 171.092C423.485 170.476 424.348 170.456 424.757 171.054L435.22 186.333C435.678 187.003 435.232 187.921 434.443 187.929L424.29 188.032L413.7 187.916Z" fill="#6B7280"/>
</svg>
