<svg width="536" height="345" viewBox="0 0 536 345" fill="none" xmlns="http://www.w3.org/2000/svg">
<rect x="125" y="41.5" width="209" height="8" rx="4" fill="#D1D5DB"/>
<path d="M130.763 64.7384C130.45 64.4259 130.026 64.2504 129.584 64.2504C129.142 64.2504 128.718 64.4259 128.406 64.7384L126.739 66.405C126.58 66.5588 126.453 66.7427 126.366 66.946C126.278 67.1494 126.232 67.3681 126.231 67.5894C126.229 67.8107 126.271 68.0301 126.355 68.235C126.438 68.4398 126.562 68.6259 126.719 68.7824C126.875 68.9388 127.061 69.0626 127.266 69.1464C127.471 69.2302 127.69 69.2724 127.912 69.2704C128.133 69.2685 128.352 69.2225 128.555 69.1352C128.758 69.0478 128.942 68.9209 129.096 68.7617L129.555 68.3029M129.239 66.2617C129.552 66.5741 129.976 66.7497 130.418 66.7497C130.86 66.7497 131.283 66.5741 131.596 66.2617L133.263 64.595C133.566 64.2807 133.734 63.8597 133.73 63.4227C133.727 62.9857 133.551 62.5677 133.242 62.2587C132.933 61.9496 132.515 61.7744 132.078 61.7706C131.641 61.7668 131.22 61.9348 130.906 62.2384L130.448 62.6967" stroke="#3F83F8" stroke-linecap="round" stroke-linejoin="round"/>
<rect x="140" y="62.5" width="92" height="6" rx="3" fill="#3F83F8"/>
<path d="M137.724 85.4536L136.863 95.0942L132.995 96.1666L129.137 95.0957L128.277 85.4536H137.724Z" fill="#9CA3AF"/>
<path d="M133 95.3469L136.126 94.4803L136.861 86.2419H133V95.3469Z" fill="#9CA3AF"/>
<path d="M133 88.6071H131.328L131.436 89.8181H133V91.0007H130.354L130.035 87.4246H133V88.6071Z" fill="#111928"/>
<path d="M130.407 91.592H131.594L131.678 92.5351L132.995 92.8907L133 92.8894V94.1197L132.995 94.1212L130.573 93.4488L130.407 91.592Z" fill="#111928"/>
<path d="M129.757 82.8333H129.156V84.6313H129.757V84.0292H130.307V84.6313H130.908V82.8333H130.307V83.427H129.757V82.8333Z" fill="#9CA3AF"/>
<path d="M131.169 83.4295H131.698L131.698 84.6313H132.299V83.4295H132.829V82.8333H131.169V83.4295Z" fill="#9CA3AF"/>
<path d="M133.092 82.8333H133.719L134.104 83.465L134.489 82.8333H135.116V84.6313H134.517V83.7401L134.104 84.3794H134.094L133.68 83.7401V84.6313H133.092V82.8333Z" fill="#9CA3AF"/>
<path d="M136.016 82.8333H135.415V84.6313H136.861V84.0369H136.016V82.8333Z" fill="#9CA3AF"/>
<path d="M132.996 88.6071V87.4246H135.958L135.853 88.6071H132.996Z" fill="#111928"/>
<path d="M134.452 91.0007H132.996V89.8181H135.745L135.716 90.1357L135.42 93.4488L132.996 94.1207V92.8904L134.315 92.5344L134.452 91.0007Z" fill="#111928"/>
<path d="M152.996 95.5001L149.524 94.5363L148.75 85.8584H157.252L156.477 94.5349L152.996 95.5001Z" fill="#9CA3AF"/>
<path d="M155.813 93.9824L156.475 86.5679H153V94.7623L155.813 93.9824Z" fill="#9CA3AF"/>
<path d="M150.523 89.7864L150.619 90.8507H153.001V89.7864H150.523Z" fill="#111928"/>
<path d="M150.332 87.6321L150.429 88.6964H153.001V87.6321H150.332Z" fill="#111928"/>
<path d="M153.002 92.5505L152.997 92.5517L151.812 92.2316L151.736 91.3828H150.668L150.817 93.0539L152.997 93.6592L153.002 93.6578V92.5505Z" fill="#111928"/>
<path d="M150.75 83.5H152.039V84.0391H151.289V84.5781H152.039V85.1172H150.75V83.5Z" fill="#9CA3AF"/>
<path d="M152.297 83.5H153.586V83.9688H152.836V84.0625H153.586V85.1406H152.297V84.6484H153.047V84.5547H152.297V83.5Z" fill="#9CA3AF"/>
<path d="M153.844 83.5H155.133V83.9688H154.383V84.0625H155.133V85.1406H153.844V84.6484H154.594V84.5547H153.844V83.5Z" fill="#9CA3AF"/>
<path d="M155.47 89.7863L155.662 87.6321H152.996V88.6964H154.496L154.399 89.7863H152.996V90.8506H154.307L154.183 92.2309L152.996 92.5513V93.6586L155.178 93.0539L155.194 92.874L155.444 90.0721L155.47 89.7863Z" fill="#111928"/>
<rect x="167" y="83.5" width="12" height="12" fill="#9CA3AF"/>
<path d="M174.286 93.4804L175.169 92.8958C175.238 93.1134 175.677 93.63 176.231 93.63C176.785 93.63 177.042 93.3275 177.042 93.127C177.042 92.5804 176.476 92.3877 176.205 92.2952C176.16 92.2801 176.124 92.2677 176.099 92.2568C176.086 92.2513 176.067 92.2439 176.042 92.2344C175.74 92.119 174.625 91.6931 174.625 90.4588C174.625 89.0992 175.937 88.9429 176.234 88.9429C176.428 88.9429 177.362 88.9667 177.826 89.8402L176.969 90.4384C176.781 90.0577 176.469 89.932 176.277 89.932C175.802 89.932 175.703 90.28 175.703 90.4384C175.703 90.8829 176.219 91.0822 176.655 91.2504C176.769 91.2944 176.877 91.3363 176.969 91.3799C177.444 91.6042 178.143 91.9713 178.143 93.127C178.143 93.7058 177.657 94.6429 176.435 94.6429C174.793 94.6429 174.358 93.6572 174.286 93.4804Z" fill="#111928"/>
<path d="M170 93.5965L170.921 93.0122C170.993 93.2296 171.273 93.6305 171.68 93.6305C172.087 93.6305 172.295 93.2126 172.295 93.0122V89.0714H173.428V93.0122C173.446 93.5558 173.145 94.6429 171.814 94.6429C170.591 94.6429 170.082 93.9159 170 93.5965Z" fill="#111928"/>
<path d="M192.999 85.5C191.221 85.5 190.11 86.3889 189.665 88.1667C190.332 87.2778 191.11 86.9444 191.999 87.1667C192.506 87.2935 192.868 87.6614 193.27 88.0687C193.923 88.7321 194.68 89.5 196.332 89.5C198.11 89.5 199.221 88.6111 199.665 86.8333C198.999 87.7222 198.221 88.0556 197.332 87.8333C196.825 87.7065 196.462 87.3386 196.061 86.9313C195.408 86.2679 194.651 85.5 192.999 85.5ZM189.665 89.5C187.888 89.5 186.776 90.3889 186.332 92.1667C186.999 91.2778 187.776 90.9444 188.665 91.1667C189.173 91.2935 189.535 91.6614 189.936 92.0687C190.59 92.7321 191.346 93.5 192.999 93.5C194.776 93.5 195.888 92.6111 196.332 90.8333C195.665 91.7222 194.888 92.0556 193.999 91.8333C193.492 91.7065 193.129 91.3386 192.728 90.9313C192.074 90.2679 191.318 89.5 189.665 89.5Z" fill="#9CA3AF"/>
<path d="M207 89.5V95.5H213H219V89.5V83.5H213H207V89.5Z" fill="#9CA3AF"/>
<path d="M209.654 89.5397L209.65 90.0311H210.431H211.212V92.2502V94.4692H211.765H212.317V92.2502V90.0311H213.098H213.879V89.5492C213.879 89.2826 213.873 89.0597 213.866 89.054C213.86 89.0464 212.909 89.0426 211.757 89.0445L209.66 89.0502L209.654 89.5397Z" fill="#111928"/>
<path d="M216.683 89.0364C216.988 89.1126 217.22 89.2479 217.434 89.4688C217.544 89.5869 217.708 89.8021 217.721 89.8536C217.725 89.8688 217.203 90.2193 216.887 90.4155C216.876 90.4231 216.83 90.3736 216.778 90.2974C216.624 90.0726 216.462 89.9755 216.215 89.9583C215.851 89.9336 215.617 90.1241 215.618 90.4422C215.618 90.5355 215.632 90.5907 215.67 90.6669C215.75 90.8326 215.898 90.9317 216.365 91.1336C217.224 91.5031 217.592 91.7469 217.82 92.0936C218.076 92.4802 218.133 93.0974 217.959 93.5564C217.769 94.0555 217.297 94.3945 216.632 94.5069C216.426 94.5431 215.938 94.5374 215.718 94.4974C215.236 94.4117 214.778 94.1736 214.497 93.8612C214.386 93.7393 214.171 93.4212 214.184 93.3983C214.19 93.3907 214.239 93.3602 214.295 93.3279C214.348 93.2974 214.55 93.1812 214.74 93.0707L215.085 92.8707L215.158 92.9774C215.258 93.1317 215.479 93.3431 215.613 93.4136C215.996 93.6155 216.521 93.5869 216.78 93.3545C216.891 93.2536 216.937 93.1488 216.937 92.9945C216.937 92.8555 216.919 92.7945 216.847 92.6898C216.754 92.5564 216.563 92.4441 216.022 92.2098C215.403 91.9431 215.137 91.7774 214.893 91.5145C214.752 91.3621 214.618 91.1183 214.563 90.9145C214.518 90.745 214.506 90.3202 214.542 90.1488C214.67 89.5507 215.121 89.1336 215.773 89.0098C215.984 88.9698 216.476 88.985 216.683 89.0364Z" fill="#111928"/>
<rect x="125" y="109.5" width="284" height="109" rx="5" fill="#4B5563"/>
<path fill-rule="evenodd" clip-rule="evenodd" d="M277.844 156.176C279.868 156.176 281.509 154.458 281.509 152.338C281.509 150.218 279.868 148.5 277.844 148.5C275.82 148.5 274.179 150.218 274.179 152.338C274.179 154.458 275.82 156.176 277.844 156.176ZM267.7 179.416H245.545C244.767 179.416 244.287 178.569 244.687 177.902L259.803 152.703C260.185 152.066 261.101 152.049 261.5 152.676C263.458 155.757 268.383 163.518 272.573 170.213L277.117 162.592C277.485 161.976 278.348 161.956 278.757 162.554L289.22 177.833C289.678 178.503 289.232 179.421 288.443 179.429L278.29 179.532L267.7 179.416Z" fill="#9CA3AF"/>
<rect x="125" y="238.5" width="286" height="5" rx="2.5" fill="#6B7280"/>
<rect x="125" y="248.5" width="275" height="5" rx="2.5" fill="#6B7280"/>
<rect x="125" y="258.5" width="87.3333" height="5" rx="2.5" fill="#6B7280"/>
<rect x="224.332" y="258.5" width="87.3333" height="5" rx="2.5" fill="#9CA3AF"/>
<rect x="323.668" y="258.5" width="87.3333" height="5" rx="2.5" fill="#6B7280"/>
<rect x="125" y="268.5" width="286" height="5" rx="2.5" fill="#6B7280"/>
<rect x="125" y="278.5" width="241" height="5" rx="2.5" fill="#6B7280"/>
<rect x="125" y="288.5" width="78" height="5" rx="2.5" fill="#6B7280"/>
<rect x="215" y="288.5" width="78" height="5" rx="2.5" fill="#9CA3AF"/>
<rect x="305" y="288.5" width="107" height="5" rx="2.5" fill="#6B7280"/>
<rect x="125" y="298.5" width="285" height="5" rx="2.5" fill="#6B7280"/>
</svg>
