<svg width="536" height="345" viewBox="0 0 536 345" fill="none" xmlns="http://www.w3.org/2000/svg">
<g clip-path="url(#clip0_2871_3888)">
<rect x="190.562" y="22" width="154.876" height="9" rx="4.5" fill="#9CA3AF"/>
<rect x="142.5" y="43" width="251" height="6" rx="3" fill="#6B7280"/>
<rect x="167" y="55" width="202" height="6" rx="3" fill="#6B7280"/>
<rect x="24.5" y="92.5" width="151" height="230" rx="4.5" fill="#374151"/>
<rect x="81.5" y="108" width="37" height="7" rx="2" fill="#9CA3AF"/>
<path d="M86.0991 147.818V129.636H87.2638V147.818H86.0991ZM88.9045 135.815C88.8571 135.295 88.6464 134.89 88.2724 134.601C87.9031 134.307 87.3751 134.161 86.6886 134.161C86.234 134.161 85.8552 134.22 85.5522 134.338C85.2492 134.456 85.0219 134.62 84.8704 134.828C84.7189 135.032 84.6407 135.266 84.636 135.531C84.6265 135.749 84.6692 135.941 84.7638 136.107C84.8633 136.272 85.0053 136.419 85.19 136.547C85.3794 136.67 85.6067 136.779 85.8718 136.874C86.137 136.968 86.4353 137.051 86.7667 137.122L88.0167 137.406C88.7364 137.562 89.3709 137.771 89.9201 138.031C90.4741 138.292 90.9381 138.602 91.3121 138.962C91.6909 139.321 91.9774 139.736 92.1715 140.205C92.3656 140.673 92.4651 141.199 92.4698 141.781C92.4651 142.7 92.2331 143.488 91.7738 144.146C91.3145 144.804 90.654 145.309 89.7923 145.659C88.9353 146.009 87.9007 146.185 86.6886 146.185C85.4717 146.185 84.4111 146.002 83.5067 145.638C82.6024 145.273 81.8993 144.719 81.3974 143.976C80.8955 143.232 80.6374 142.293 80.6232 141.156H83.9897C84.0181 141.625 84.1436 142.016 84.3661 142.328C84.5887 142.641 84.8941 142.877 85.2823 143.038C85.6753 143.199 86.1299 143.28 86.646 143.28C87.1194 143.28 87.5219 143.216 87.8533 143.088C88.1895 142.96 88.4476 142.783 88.6275 142.555C88.8074 142.328 88.8997 142.068 88.9045 141.774C88.8997 141.5 88.8145 141.265 88.6488 141.071C88.4831 140.872 88.2274 140.702 87.8817 140.56C87.5408 140.413 87.1052 140.278 86.5749 140.155L85.055 139.8C83.7956 139.511 82.8036 139.045 82.0792 138.401C81.3548 137.752 80.9949 136.876 80.9996 135.773C80.9949 134.873 81.2364 134.085 81.7241 133.408C82.2118 132.731 82.8865 132.203 83.7482 131.824C84.61 131.445 85.5924 131.256 86.6957 131.256C87.8226 131.256 88.8003 131.447 89.6289 131.831C90.4622 132.21 91.1085 132.742 91.5678 133.429C92.0271 134.116 92.2615 134.911 92.271 135.815H88.9045ZM99.6928 131.256C100.488 131.256 101.248 131.386 101.973 131.646C102.697 131.902 103.343 132.312 103.912 132.875C104.48 133.434 104.927 134.17 105.254 135.084C105.581 135.998 105.744 137.113 105.744 138.429C105.749 139.641 105.607 140.728 105.318 141.689C105.029 142.645 104.615 143.46 104.075 144.132C103.54 144.804 102.896 145.318 102.143 145.673C101.39 146.024 100.55 146.199 99.6218 146.199C98.5991 146.199 97.6971 146.002 96.9158 145.609C96.1393 145.212 95.5167 144.677 95.0479 144.004C94.5839 143.332 94.3069 142.579 94.217 141.746H97.6758C97.7847 142.229 98.0143 142.593 98.3647 142.839C98.7151 143.081 99.1341 143.202 99.6218 143.202C100.512 143.202 101.177 142.816 101.618 142.044C102.058 141.272 102.278 140.223 102.278 138.898H102.193C101.989 139.333 101.7 139.707 101.326 140.02C100.957 140.332 100.529 140.571 100.041 140.737C99.5531 140.903 99.0394 140.986 98.4996 140.986C97.6284 140.986 96.859 140.787 96.1914 140.389C95.5285 139.991 95.0077 139.445 94.6289 138.749C94.2549 138.053 94.0655 137.257 94.0607 136.362C94.056 135.358 94.2904 134.473 94.7638 133.706C95.2373 132.934 95.8978 132.333 96.7454 131.902C97.5929 131.466 98.5754 131.251 99.6928 131.256ZM99.7141 133.955C99.2785 133.955 98.8903 134.056 98.5494 134.26C98.2132 134.464 97.948 134.738 97.7539 135.084C97.5598 135.429 97.4651 135.818 97.4698 136.249C97.4746 136.679 97.5716 137.068 97.761 137.413C97.9551 137.759 98.2179 138.034 98.5494 138.237C98.8855 138.441 99.2691 138.543 99.6999 138.543C100.022 138.543 100.32 138.483 100.595 138.365C100.869 138.247 101.109 138.083 101.312 137.875C101.516 137.662 101.674 137.416 101.788 137.136C101.906 136.857 101.963 136.559 101.958 136.241C101.954 135.82 101.854 135.437 101.66 135.091C101.466 134.745 101.199 134.471 100.858 134.267C100.521 134.059 100.14 133.955 99.7141 133.955ZM113.15 131.256C113.945 131.256 114.705 131.386 115.43 131.646C116.154 131.902 116.8 132.312 117.369 132.875C117.937 133.434 118.384 134.17 118.711 135.084C119.038 135.998 119.201 137.113 119.201 138.429C119.206 139.641 119.064 140.728 118.775 141.689C118.486 142.645 118.072 143.46 117.532 144.132C116.997 144.804 116.353 145.318 115.6 145.673C114.847 146.024 114.007 146.199 113.079 146.199C112.056 146.199 111.154 146.002 110.373 145.609C109.596 145.212 108.974 144.677 108.505 144.004C108.041 143.332 107.764 142.579 107.674 141.746H111.133C111.242 142.229 111.471 142.593 111.822 142.839C112.172 143.081 112.591 143.202 113.079 143.202C113.969 143.202 114.634 142.816 115.075 142.044C115.515 141.272 115.735 140.223 115.735 138.898H115.65C115.446 139.333 115.157 139.707 114.783 140.02C114.414 140.332 113.986 140.571 113.498 140.737C113.01 140.903 112.496 140.986 111.957 140.986C111.085 140.986 110.316 140.787 109.648 140.389C108.986 139.991 108.465 139.445 108.086 138.749C107.712 138.053 107.522 137.257 107.518 136.362C107.513 135.358 107.747 134.473 108.221 133.706C108.694 132.934 109.355 132.333 110.202 131.902C111.05 131.466 112.032 131.251 113.15 131.256ZM113.171 133.955C112.736 133.955 112.347 134.056 112.006 134.26C111.67 134.464 111.405 134.738 111.211 135.084C111.017 135.429 110.922 135.818 110.927 136.249C110.932 136.679 111.029 137.068 111.218 137.413C111.412 137.759 111.675 138.034 112.006 138.237C112.343 138.441 112.726 138.543 113.157 138.543C113.479 138.543 113.777 138.483 114.052 138.365C114.326 138.247 114.566 138.083 114.769 137.875C114.973 137.662 115.131 137.416 115.245 137.136C115.363 136.857 115.42 136.559 115.415 136.241C115.411 135.82 115.311 135.437 115.117 135.091C114.923 134.745 114.656 134.471 114.315 134.267C113.978 134.059 113.597 133.955 113.171 133.955Z" fill="#9CA3AF"/>
<g clip-path="url(#clip1_2871_3888)">
<path d="M43.75 176L44.5833 176.833L46.25 175.167M48.75 176C48.75 176.492 48.653 176.98 48.4645 177.435C48.2761 177.89 47.9999 178.303 47.6516 178.652C47.3034 179 46.89 179.276 46.4351 179.465C45.9801 179.653 45.4925 179.75 45 179.75C44.5075 179.75 44.0199 179.653 43.5649 179.465C43.11 179.276 42.6966 179 42.3483 178.652C42.0001 178.303 41.7239 177.89 41.5355 177.435C41.347 176.98 41.25 176.492 41.25 176C41.25 175.005 41.6451 174.052 42.3483 173.348C43.0516 172.645 44.0054 172.25 45 172.25C45.9946 172.25 46.9484 172.645 47.6516 173.348C48.3549 174.052 48.75 175.005 48.75 176Z" stroke="#9CA3AF" stroke-linecap="round" stroke-linejoin="round"/>
</g>
<rect x="56" y="173" width="104" height="6" rx="3" fill="#9CA3AF"/>
<g clip-path="url(#clip2_2871_3888)">
<path d="M43.75 194L44.5833 194.833L46.25 193.167M48.75 194C48.75 194.492 48.653 194.98 48.4645 195.435C48.2761 195.89 47.9999 196.303 47.6516 196.652C47.3034 197 46.89 197.276 46.4351 197.465C45.9801 197.653 45.4925 197.75 45 197.75C44.5075 197.75 44.0199 197.653 43.5649 197.465C43.11 197.276 42.6966 197 42.3483 196.652C42.0001 196.303 41.7239 195.89 41.5355 195.435C41.347 194.98 41.25 194.492 41.25 194C41.25 193.005 41.6451 192.052 42.3483 191.348C43.0516 190.645 44.0054 190.25 45 190.25C45.9946 190.25 46.9484 190.645 47.6516 191.348C48.3549 192.052 48.75 193.005 48.75 194Z" stroke="#9CA3AF" stroke-linecap="round" stroke-linejoin="round"/>
</g>
<rect x="56" y="191" width="104" height="6" rx="3" fill="#9CA3AF"/>
<g clip-path="url(#clip3_2871_3888)">
<path d="M43.75 212L44.5833 212.833L46.25 211.167M48.75 212C48.75 212.492 48.653 212.98 48.4645 213.435C48.2761 213.89 47.9999 214.303 47.6516 214.652C47.3034 215 46.89 215.276 46.4351 215.465C45.9801 215.653 45.4925 215.75 45 215.75C44.5075 215.75 44.0199 215.653 43.5649 215.465C43.11 215.276 42.6966 215 42.3483 214.652C42.0001 214.303 41.7239 213.89 41.5355 213.435C41.347 212.98 41.25 212.492 41.25 212C41.25 211.005 41.6451 210.052 42.3483 209.348C43.0516 208.645 44.0054 208.25 45 208.25C45.9946 208.25 46.9484 208.645 47.6516 209.348C48.3549 210.052 48.75 211.005 48.75 212Z" stroke="#9CA3AF" stroke-linecap="round" stroke-linejoin="round"/>
</g>
<rect x="56" y="209" width="104" height="6" rx="3" fill="#9CA3AF"/>
<g clip-path="url(#clip4_2871_3888)">
<path d="M43.75 230L44.5833 230.833L46.25 229.167M48.75 230C48.75 230.492 48.653 230.98 48.4645 231.435C48.2761 231.89 47.9999 232.303 47.6516 232.652C47.3034 233 46.89 233.276 46.4351 233.465C45.9801 233.653 45.4925 233.75 45 233.75C44.5075 233.75 44.0199 233.653 43.5649 233.465C43.11 233.276 42.6966 233 42.3483 232.652C42.0001 232.303 41.7239 231.89 41.5355 231.435C41.347 230.98 41.25 230.492 41.25 230C41.25 229.005 41.6451 228.052 42.3483 227.348C43.0516 226.645 44.0054 226.25 45 226.25C45.9946 226.25 46.9484 226.645 47.6516 227.348C48.3549 228.052 48.75 229.005 48.75 230Z" stroke="#9CA3AF" stroke-linecap="round" stroke-linejoin="round"/>
</g>
<rect x="56" y="227" width="104" height="6" rx="3" fill="#9CA3AF"/>
<g clip-path="url(#clip5_2871_3888)">
<path d="M43.75 248L44.5833 248.833L46.25 247.167M48.75 248C48.75 248.492 48.653 248.98 48.4645 249.435C48.2761 249.89 47.9999 250.303 47.6516 250.652C47.3034 251 46.89 251.276 46.4351 251.465C45.9801 251.653 45.4925 251.75 45 251.75C44.5075 251.75 44.0199 251.653 43.5649 251.465C43.11 251.276 42.6966 251 42.3483 250.652C42.0001 250.303 41.7239 249.89 41.5355 249.435C41.347 248.98 41.25 248.492 41.25 248C41.25 247.005 41.6451 246.052 42.3483 245.348C43.0516 244.645 44.0054 244.25 45 244.25C45.9946 244.25 46.9484 244.645 47.6516 245.348C48.3549 246.052 48.75 247.005 48.75 248Z" stroke="#9CA3AF" stroke-linecap="round" stroke-linejoin="round"/>
</g>
<rect x="56" y="245" width="104" height="6" rx="3" fill="#9CA3AF"/>
<g clip-path="url(#clip6_2871_3888)">
<path d="M43.75 266L44.5833 266.833L46.25 265.167M48.75 266C48.75 266.492 48.653 266.98 48.4645 267.435C48.2761 267.89 47.9999 268.303 47.6516 268.652C47.3034 269 46.89 269.276 46.4351 269.465C45.9801 269.653 45.4925 269.75 45 269.75C44.5075 269.75 44.0199 269.653 43.5649 269.465C43.11 269.276 42.6966 269 42.3483 268.652C42.0001 268.303 41.7239 267.89 41.5355 267.435C41.347 266.98 41.25 266.492 41.25 266C41.25 265.005 41.6451 264.052 42.3483 263.348C43.0516 262.645 44.0054 262.25 45 262.25C45.9946 262.25 46.9484 262.645 47.6516 263.348C48.3549 264.052 48.75 265.005 48.75 266Z" stroke="#9CA3AF" stroke-linecap="round" stroke-linejoin="round"/>
</g>
<rect x="56" y="263" width="104" height="6" rx="3" fill="#9CA3AF"/>
<rect x="40" y="291" width="120" height="16" rx="3" fill="#1A56DB"/>
<rect x="75" y="297" width="50" height="4" rx="1" fill="white"/>
<rect x="24.5" y="92.5" width="151" height="230" rx="4.5" stroke="#4B5563"/>
<rect x="192.5" y="92.5" width="151" height="230" rx="4.5" fill="#374151"/>
<rect x="249.5" y="108" width="37" height="7" rx="2" fill="#9CA3AF"/>
<path d="M247.722 147.818V129.636H248.887V147.818H247.722ZM250.528 135.815C250.48 135.295 250.269 134.89 249.895 134.601C249.526 134.307 248.998 134.161 248.312 134.161C247.857 134.161 247.478 134.22 247.175 134.338C246.872 134.456 246.645 134.62 246.493 134.828C246.342 135.032 246.264 135.266 246.259 135.531C246.25 135.749 246.292 135.941 246.387 136.107C246.486 136.272 246.628 136.419 246.813 136.547C247.002 136.67 247.23 136.779 247.495 136.874C247.76 136.968 248.058 137.051 248.39 137.122L249.64 137.406C250.359 137.562 250.994 137.771 251.543 138.031C252.097 138.292 252.561 138.602 252.935 138.962C253.314 139.321 253.6 139.736 253.795 140.205C253.989 140.673 254.088 141.199 254.093 141.781C254.088 142.7 253.856 143.488 253.397 144.146C252.938 144.804 252.277 145.309 251.415 145.659C250.558 146.009 249.524 146.185 248.312 146.185C247.095 146.185 246.034 146.002 245.13 145.638C244.225 145.273 243.522 144.719 243.02 143.976C242.519 143.232 242.26 142.293 242.246 141.156H245.613C245.641 141.625 245.767 142.016 245.989 142.328C246.212 142.641 246.517 142.877 246.905 143.038C247.298 143.199 247.753 143.28 248.269 143.28C248.742 143.28 249.145 143.216 249.476 143.088C249.813 142.96 250.071 142.783 250.251 142.555C250.43 142.328 250.523 142.068 250.528 141.774C250.523 141.5 250.438 141.265 250.272 141.071C250.106 140.872 249.85 140.702 249.505 140.56C249.164 140.413 248.728 140.278 248.198 140.155L246.678 139.8C245.419 139.511 244.427 139.045 243.702 138.401C242.978 137.752 242.618 136.876 242.623 135.773C242.618 134.873 242.859 134.085 243.347 133.408C243.835 132.731 244.51 132.203 245.371 131.824C246.233 131.445 247.215 131.256 248.319 131.256C249.446 131.256 250.423 131.447 251.252 131.831C252.085 132.21 252.732 132.742 253.191 133.429C253.65 134.116 253.885 134.911 253.894 135.815H250.528ZM255.84 146V143.472L261.145 138.827C261.543 138.467 261.882 138.138 262.161 137.839C262.44 137.536 262.653 137.233 262.8 136.93C262.947 136.623 263.02 136.289 263.02 135.929C263.02 135.527 262.933 135.183 262.758 134.899C262.582 134.61 262.341 134.388 262.033 134.232C261.725 134.075 261.373 133.997 260.975 133.997C260.573 133.997 260.22 134.08 259.917 134.246C259.614 134.407 259.377 134.641 259.206 134.949C259.041 135.257 258.958 135.631 258.958 136.071H255.627C255.627 135.081 255.849 134.227 256.295 133.507C256.74 132.787 257.365 132.233 258.17 131.845C258.979 131.452 259.919 131.256 260.989 131.256C262.092 131.256 263.051 131.44 263.866 131.81C264.68 132.179 265.31 132.695 265.755 133.358C266.205 134.016 266.43 134.781 266.43 135.652C266.43 136.206 266.318 136.755 266.096 137.3C265.873 137.844 265.473 138.446 264.895 139.104C264.323 139.762 263.508 140.55 262.452 141.469L260.712 143.074V143.166H266.607V146H255.84ZM274.07 131.256C274.865 131.256 275.625 131.386 276.35 131.646C277.074 131.902 277.72 132.312 278.289 132.875C278.857 133.434 279.304 134.17 279.631 135.084C279.958 135.998 280.121 137.113 280.121 138.429C280.126 139.641 279.984 140.728 279.695 141.689C279.406 142.645 278.992 143.46 278.452 144.132C277.917 144.804 277.273 145.318 276.52 145.673C275.767 146.024 274.927 146.199 273.999 146.199C272.976 146.199 272.074 146.002 271.293 145.609C270.516 145.212 269.894 144.677 269.425 144.004C268.961 143.332 268.684 142.579 268.594 141.746H272.053C272.162 142.229 272.391 142.593 272.742 142.839C273.092 143.081 273.511 143.202 273.999 143.202C274.889 143.202 275.554 142.816 275.994 142.044C276.435 141.272 276.655 140.223 276.655 138.898H276.57C276.366 139.333 276.077 139.707 275.703 140.02C275.334 140.332 274.905 140.571 274.418 140.737C273.93 140.903 273.416 140.986 272.877 140.986C272.005 140.986 271.236 140.787 270.568 140.389C269.905 139.991 269.385 139.445 269.006 138.749C268.632 138.053 268.442 137.257 268.438 136.362C268.433 135.358 268.667 134.473 269.141 133.706C269.614 132.934 270.275 132.333 271.122 131.902C271.97 131.466 272.952 131.251 274.07 131.256ZM274.091 133.955C273.655 133.955 273.267 134.056 272.926 134.26C272.59 134.464 272.325 134.738 272.131 135.084C271.937 135.429 271.842 135.818 271.847 136.249C271.852 136.679 271.949 137.068 272.138 137.413C272.332 137.759 272.595 138.034 272.926 138.237C273.262 138.441 273.646 138.543 274.077 138.543C274.399 138.543 274.697 138.483 274.972 138.365C275.246 138.247 275.485 138.083 275.689 137.875C275.893 137.662 276.051 137.416 276.165 137.136C276.283 136.857 276.34 136.559 276.335 136.241C276.331 135.82 276.231 135.437 276.037 135.091C275.843 134.745 275.575 134.471 275.235 134.267C274.898 134.059 274.517 133.955 274.091 133.955ZM287.527 131.256C288.322 131.256 289.082 131.386 289.807 131.646C290.531 131.902 291.177 132.312 291.746 132.875C292.314 133.434 292.761 134.17 293.088 135.084C293.415 135.998 293.578 137.113 293.578 138.429C293.583 139.641 293.441 140.728 293.152 141.689C292.863 142.645 292.449 143.46 291.909 144.132C291.374 144.804 290.73 145.318 289.977 145.673C289.224 146.024 288.384 146.199 287.456 146.199C286.433 146.199 285.531 146.002 284.75 145.609C283.973 145.212 283.351 144.677 282.882 144.004C282.418 143.332 282.141 142.579 282.051 141.746H285.51C285.619 142.229 285.848 142.593 286.199 142.839C286.549 143.081 286.968 143.202 287.456 143.202C288.346 143.202 289.011 142.816 289.452 142.044C289.892 141.272 290.112 140.223 290.112 138.898H290.027C289.823 139.333 289.534 139.707 289.16 140.02C288.791 140.332 288.363 140.571 287.875 140.737C287.387 140.903 286.873 140.986 286.334 140.986C285.462 140.986 284.693 140.787 284.025 140.389C283.363 139.991 282.842 139.445 282.463 138.749C282.089 138.053 281.899 137.257 281.895 136.362C281.89 135.358 282.124 134.473 282.598 133.706C283.071 132.934 283.732 132.333 284.579 131.902C285.427 131.466 286.409 131.251 287.527 131.256ZM287.548 133.955C287.113 133.955 286.724 134.056 286.383 134.26C286.047 134.464 285.782 134.738 285.588 135.084C285.394 135.429 285.299 135.818 285.304 136.249C285.309 136.679 285.406 137.068 285.595 137.413C285.789 137.759 286.052 138.034 286.383 138.237C286.72 138.441 287.103 138.543 287.534 138.543C287.856 138.543 288.154 138.483 288.429 138.365C288.703 138.247 288.943 138.083 289.146 137.875C289.35 137.662 289.508 137.416 289.622 137.136C289.74 136.857 289.797 136.559 289.792 136.241C289.788 135.82 289.688 135.437 289.494 135.091C289.3 134.745 289.032 134.471 288.692 134.267C288.355 134.059 287.974 133.955 287.548 133.955Z" fill="#9CA3AF"/>
<g clip-path="url(#clip7_2871_3888)">
<path d="M211.75 176L212.583 176.833L214.25 175.167M216.75 176C216.75 176.492 216.653 176.98 216.465 177.435C216.276 177.89 216 178.303 215.652 178.652C215.303 179 214.89 179.276 214.435 179.465C213.98 179.653 213.492 179.75 213 179.75C212.508 179.75 212.02 179.653 211.565 179.465C211.11 179.276 210.697 179 210.348 178.652C210 178.303 209.724 177.89 209.535 177.435C209.347 176.98 209.25 176.492 209.25 176C209.25 175.005 209.645 174.052 210.348 173.348C211.052 172.645 212.005 172.25 213 172.25C213.995 172.25 214.948 172.645 215.652 173.348C216.355 174.052 216.75 175.005 216.75 176Z" stroke="#9CA3AF" stroke-linecap="round" stroke-linejoin="round"/>
</g>
<rect x="224" y="173" width="104" height="6" rx="3" fill="#9CA3AF"/>
<g clip-path="url(#clip8_2871_3888)">
<path d="M211.75 194L212.583 194.833L214.25 193.167M216.75 194C216.75 194.492 216.653 194.98 216.465 195.435C216.276 195.89 216 196.303 215.652 196.652C215.303 197 214.89 197.276 214.435 197.465C213.98 197.653 213.492 197.75 213 197.75C212.508 197.75 212.02 197.653 211.565 197.465C211.11 197.276 210.697 197 210.348 196.652C210 196.303 209.724 195.89 209.535 195.435C209.347 194.98 209.25 194.492 209.25 194C209.25 193.005 209.645 192.052 210.348 191.348C211.052 190.645 212.005 190.25 213 190.25C213.995 190.25 214.948 190.645 215.652 191.348C216.355 192.052 216.75 193.005 216.75 194Z" stroke="#9CA3AF" stroke-linecap="round" stroke-linejoin="round"/>
</g>
<rect x="224" y="191" width="104" height="6" rx="3" fill="#9CA3AF"/>
<g clip-path="url(#clip9_2871_3888)">
<path d="M211.75 212L212.583 212.833L214.25 211.167M216.75 212C216.75 212.492 216.653 212.98 216.465 213.435C216.276 213.89 216 214.303 215.652 214.652C215.303 215 214.89 215.276 214.435 215.465C213.98 215.653 213.492 215.75 213 215.75C212.508 215.75 212.02 215.653 211.565 215.465C211.11 215.276 210.697 215 210.348 214.652C210 214.303 209.724 213.89 209.535 213.435C209.347 212.98 209.25 212.492 209.25 212C209.25 211.005 209.645 210.052 210.348 209.348C211.052 208.645 212.005 208.25 213 208.25C213.995 208.25 214.948 208.645 215.652 209.348C216.355 210.052 216.75 211.005 216.75 212Z" stroke="#9CA3AF" stroke-linecap="round" stroke-linejoin="round"/>
</g>
<rect x="224" y="209" width="104" height="6" rx="3" fill="#9CA3AF"/>
<g clip-path="url(#clip10_2871_3888)">
<path d="M211.75 230L212.583 230.833L214.25 229.167M216.75 230C216.75 230.492 216.653 230.98 216.465 231.435C216.276 231.89 216 232.303 215.652 232.652C215.303 233 214.89 233.276 214.435 233.465C213.98 233.653 213.492 233.75 213 233.75C212.508 233.75 212.02 233.653 211.565 233.465C211.11 233.276 210.697 233 210.348 232.652C210 232.303 209.724 231.89 209.535 231.435C209.347 230.98 209.25 230.492 209.25 230C209.25 229.005 209.645 228.052 210.348 227.348C211.052 226.645 212.005 226.25 213 226.25C213.995 226.25 214.948 226.645 215.652 227.348C216.355 228.052 216.75 229.005 216.75 230Z" stroke="#9CA3AF" stroke-linecap="round" stroke-linejoin="round"/>
</g>
<rect x="224" y="227" width="104" height="6" rx="3" fill="#9CA3AF"/>
<g clip-path="url(#clip11_2871_3888)">
<path d="M211.75 248L212.583 248.833L214.25 247.167M216.75 248C216.75 248.492 216.653 248.98 216.465 249.435C216.276 249.89 216 250.303 215.652 250.652C215.303 251 214.89 251.276 214.435 251.465C213.98 251.653 213.492 251.75 213 251.75C212.508 251.75 212.02 251.653 211.565 251.465C211.11 251.276 210.697 251 210.348 250.652C210 250.303 209.724 249.89 209.535 249.435C209.347 248.98 209.25 248.492 209.25 248C209.25 247.005 209.645 246.052 210.348 245.348C211.052 244.645 212.005 244.25 213 244.25C213.995 244.25 214.948 244.645 215.652 245.348C216.355 246.052 216.75 247.005 216.75 248Z" stroke="#9CA3AF" stroke-linecap="round" stroke-linejoin="round"/>
</g>
<rect x="224" y="245" width="104" height="6" rx="3" fill="#9CA3AF"/>
<g clip-path="url(#clip12_2871_3888)">
<path d="M211.75 266L212.583 266.833L214.25 265.167M216.75 266C216.75 266.492 216.653 266.98 216.465 267.435C216.276 267.89 216 268.303 215.652 268.652C215.303 269 214.89 269.276 214.435 269.465C213.98 269.653 213.492 269.75 213 269.75C212.508 269.75 212.02 269.653 211.565 269.465C211.11 269.276 210.697 269 210.348 268.652C210 268.303 209.724 267.89 209.535 267.435C209.347 266.98 209.25 266.492 209.25 266C209.25 265.005 209.645 264.052 210.348 263.348C211.052 262.645 212.005 262.25 213 262.25C213.995 262.25 214.948 262.645 215.652 263.348C216.355 264.052 216.75 265.005 216.75 266Z" stroke="#9CA3AF" stroke-linecap="round" stroke-linejoin="round"/>
</g>
<rect x="224" y="263" width="104" height="6" rx="3" fill="#9CA3AF"/>
<rect x="208" y="291" width="120" height="16" rx="3" fill="#1A56DB"/>
<rect x="243" y="297" width="50" height="4" rx="1" fill="white"/>
<rect x="192.5" y="92.5" width="151" height="230" rx="4.5" stroke="#4B5563"/>
<rect x="360.5" y="92.5" width="151" height="230" rx="4.5" fill="#374151"/>
<rect x="417.5" y="108" width="37" height="7" rx="2" fill="#9CA3AF"/>
<path d="M415.371 147.818V129.636H416.535V147.818H415.371ZM418.176 135.815C418.129 135.295 417.918 134.89 417.544 134.601C417.175 134.307 416.647 134.161 415.96 134.161C415.506 134.161 415.127 134.22 414.824 134.338C414.521 134.456 414.293 134.62 414.142 134.828C413.99 135.032 413.912 135.266 413.907 135.531C413.898 135.749 413.941 135.941 414.035 136.107C414.135 136.272 414.277 136.419 414.461 136.547C414.651 136.67 414.878 136.779 415.143 136.874C415.408 136.968 415.707 137.051 416.038 137.122L417.288 137.406C418.008 137.562 418.642 137.771 419.192 138.031C419.746 138.292 420.21 138.602 420.584 138.962C420.962 139.321 421.249 139.736 421.443 140.205C421.637 140.673 421.737 141.199 421.741 141.781C421.737 142.7 421.505 143.488 421.045 144.146C420.586 144.804 419.925 145.309 419.064 145.659C418.207 146.009 417.172 146.185 415.96 146.185C414.743 146.185 413.683 146.002 412.778 145.638C411.874 145.273 411.171 144.719 410.669 143.976C410.167 143.232 409.909 142.293 409.895 141.156H413.261C413.29 141.625 413.415 142.016 413.638 142.328C413.86 142.641 414.166 142.877 414.554 143.038C414.947 143.199 415.401 143.28 415.917 143.28C416.391 143.28 416.793 143.216 417.125 143.088C417.461 142.96 417.719 142.783 417.899 142.555C418.079 142.328 418.171 142.068 418.176 141.774C418.171 141.5 418.086 141.265 417.92 141.071C417.755 140.872 417.499 140.702 417.153 140.56C416.812 140.413 416.377 140.278 415.846 140.155L414.327 139.8C413.067 139.511 412.075 139.045 411.351 138.401C410.626 137.752 410.266 136.876 410.271 135.773C410.266 134.873 410.508 134.085 410.996 133.408C411.483 132.731 412.158 132.203 413.02 131.824C413.881 131.445 414.864 131.256 415.967 131.256C417.094 131.256 418.072 131.447 418.9 131.831C419.734 132.21 420.38 132.742 420.839 133.429C421.299 134.116 421.533 134.911 421.542 135.815H418.176ZM428.964 131.256C429.76 131.256 430.52 131.386 431.244 131.646C431.969 131.902 432.615 132.312 433.183 132.875C433.751 133.434 434.199 134.17 434.525 135.084C434.852 135.998 435.015 137.113 435.015 138.429C435.02 139.641 434.878 140.728 434.589 141.689C434.3 142.645 433.886 143.46 433.346 144.132C432.811 144.804 432.167 145.318 431.415 145.673C430.662 146.024 429.821 146.199 428.893 146.199C427.871 146.199 426.969 146.002 426.187 145.609C425.411 145.212 424.788 144.677 424.319 144.004C423.855 143.332 423.578 142.579 423.488 141.746H426.947C427.056 142.229 427.286 142.593 427.636 142.839C427.987 143.081 428.406 143.202 428.893 143.202C429.783 143.202 430.449 142.816 430.889 142.044C431.329 141.272 431.55 140.223 431.55 138.898H431.464C431.261 139.333 430.972 139.707 430.598 140.02C430.229 140.332 429.8 140.571 429.312 140.737C428.825 140.903 428.311 140.986 427.771 140.986C426.9 140.986 426.131 140.787 425.463 140.389C424.8 139.991 424.279 139.445 423.9 138.749C423.526 138.053 423.337 137.257 423.332 136.362C423.327 135.358 423.562 134.473 424.035 133.706C424.509 132.934 425.169 132.333 426.017 131.902C426.864 131.466 427.847 131.251 428.964 131.256ZM428.986 133.955C428.55 133.955 428.162 134.056 427.821 134.26C427.485 134.464 427.22 134.738 427.025 135.084C426.831 135.429 426.737 135.818 426.741 136.249C426.746 136.679 426.843 137.068 427.032 137.413C427.227 137.759 427.489 138.034 427.821 138.237C428.157 138.441 428.541 138.543 428.971 138.543C429.293 138.543 429.592 138.483 429.866 138.365C430.141 138.247 430.38 138.083 430.584 137.875C430.787 137.662 430.946 137.416 431.059 137.136C431.178 136.857 431.235 136.559 431.23 136.241C431.225 135.82 431.126 135.437 430.932 135.091C430.738 134.745 430.47 134.471 430.129 134.267C429.793 134.059 429.412 133.955 428.986 133.955ZM442.421 131.256C443.217 131.256 443.977 131.386 444.701 131.646C445.426 131.902 446.072 132.312 446.64 132.875C447.208 133.434 447.656 134.17 447.982 135.084C448.309 135.998 448.472 137.113 448.472 138.429C448.477 139.641 448.335 140.728 448.046 141.689C447.758 142.645 447.343 143.46 446.803 144.132C446.268 144.804 445.624 145.318 444.872 145.673C444.119 146.024 443.278 146.199 442.35 146.199C441.328 146.199 440.426 146.002 439.644 145.609C438.868 145.212 438.245 144.677 437.776 144.004C437.312 143.332 437.035 142.579 436.945 141.746H440.404C440.513 142.229 440.743 142.593 441.093 142.839C441.444 143.081 441.863 143.202 442.35 143.202C443.24 143.202 443.906 142.816 444.346 142.044C444.786 141.272 445.007 140.223 445.007 138.898H444.921C444.718 139.333 444.429 139.707 444.055 140.02C443.686 140.332 443.257 140.571 442.769 140.737C442.282 140.903 441.768 140.986 441.228 140.986C440.357 140.986 439.588 140.787 438.92 140.389C438.257 139.991 437.736 139.445 437.357 138.749C436.983 138.053 436.794 137.257 436.789 136.362C436.785 135.358 437.019 134.473 437.492 133.706C437.966 132.934 438.626 132.333 439.474 131.902C440.321 131.466 441.304 131.251 442.421 131.256ZM442.443 133.955C442.007 133.955 441.619 134.056 441.278 134.26C440.942 134.464 440.677 134.738 440.482 135.084C440.288 135.429 440.194 135.818 440.198 136.249C440.203 136.679 440.3 137.068 440.49 137.413C440.684 137.759 440.946 138.034 441.278 138.237C441.614 138.441 441.998 138.543 442.428 138.543C442.75 138.543 443.049 138.483 443.323 138.365C443.598 138.247 443.837 138.083 444.041 137.875C444.244 137.662 444.403 137.416 444.517 137.136C444.635 136.857 444.692 136.559 444.687 136.241C444.682 135.82 444.583 135.437 444.389 135.091C444.195 134.745 443.927 134.471 443.586 134.267C443.25 134.059 442.869 133.955 442.443 133.955ZM455.878 131.256C456.674 131.256 457.434 131.386 458.158 131.646C458.883 131.902 459.529 132.312 460.097 132.875C460.665 133.434 461.113 134.17 461.439 135.084C461.766 135.998 461.93 137.113 461.93 138.429C461.934 139.641 461.792 140.728 461.503 141.689C461.215 142.645 460.8 143.46 460.26 144.132C459.725 144.804 459.081 145.318 458.329 145.673C457.576 146.024 456.735 146.199 455.807 146.199C454.785 146.199 453.883 146.002 453.101 145.609C452.325 145.212 451.702 144.677 451.233 144.004C450.769 143.332 450.492 142.579 450.403 141.746H453.861C453.97 142.229 454.2 142.593 454.55 142.839C454.901 143.081 455.32 143.202 455.807 143.202C456.698 143.202 457.363 142.816 457.803 142.044C458.243 141.272 458.464 140.223 458.464 138.898H458.378C458.175 139.333 457.886 139.707 457.512 140.02C457.143 140.332 456.714 140.571 456.226 140.737C455.739 140.903 455.225 140.986 454.685 140.986C453.814 140.986 453.045 140.787 452.377 140.389C451.714 139.991 451.193 139.445 450.814 138.749C450.44 138.053 450.251 137.257 450.246 136.362C450.242 135.358 450.476 134.473 450.949 133.706C451.423 132.934 452.083 132.333 452.931 131.902C453.778 131.466 454.761 131.251 455.878 131.256ZM455.9 133.955C455.464 133.955 455.076 134.056 454.735 134.26C454.399 134.464 454.134 134.738 453.939 135.084C453.745 135.429 453.651 135.818 453.655 136.249C453.66 136.679 453.757 137.068 453.947 137.413C454.141 137.759 454.403 138.034 454.735 138.237C455.071 138.441 455.455 138.543 455.885 138.543C456.207 138.543 456.506 138.483 456.78 138.365C457.055 138.247 457.294 138.083 457.498 137.875C457.701 137.662 457.86 137.416 457.974 137.136C458.092 136.857 458.149 136.559 458.144 136.241C458.139 135.82 458.04 135.437 457.846 135.091C457.652 134.745 457.384 134.471 457.043 134.267C456.707 134.059 456.326 133.955 455.9 133.955Z" fill="#9CA3AF"/>
<g clip-path="url(#clip13_2871_3888)">
<path d="M379.75 176L380.583 176.833L382.25 175.167M384.75 176C384.75 176.492 384.653 176.98 384.465 177.435C384.276 177.89 384 178.303 383.652 178.652C383.303 179 382.89 179.276 382.435 179.465C381.98 179.653 381.492 179.75 381 179.75C380.508 179.75 380.02 179.653 379.565 179.465C379.11 179.276 378.697 179 378.348 178.652C378 178.303 377.724 177.89 377.535 177.435C377.347 176.98 377.25 176.492 377.25 176C377.25 175.005 377.645 174.052 378.348 173.348C379.052 172.645 380.005 172.25 381 172.25C381.995 172.25 382.948 172.645 383.652 173.348C384.355 174.052 384.75 175.005 384.75 176Z" stroke="#9CA3AF" stroke-linecap="round" stroke-linejoin="round"/>
</g>
<rect x="392" y="173" width="104" height="6" rx="3" fill="#9CA3AF"/>
<g clip-path="url(#clip14_2871_3888)">
<path d="M379.75 194L380.583 194.833L382.25 193.167M384.75 194C384.75 194.492 384.653 194.98 384.465 195.435C384.276 195.89 384 196.303 383.652 196.652C383.303 197 382.89 197.276 382.435 197.465C381.98 197.653 381.492 197.75 381 197.75C380.508 197.75 380.02 197.653 379.565 197.465C379.11 197.276 378.697 197 378.348 196.652C378 196.303 377.724 195.89 377.535 195.435C377.347 194.98 377.25 194.492 377.25 194C377.25 193.005 377.645 192.052 378.348 191.348C379.052 190.645 380.005 190.25 381 190.25C381.995 190.25 382.948 190.645 383.652 191.348C384.355 192.052 384.75 193.005 384.75 194Z" stroke="#9CA3AF" stroke-linecap="round" stroke-linejoin="round"/>
</g>
<rect x="392" y="191" width="104" height="6" rx="3" fill="#9CA3AF"/>
<g clip-path="url(#clip15_2871_3888)">
<path d="M379.75 212L380.583 212.833L382.25 211.167M384.75 212C384.75 212.492 384.653 212.98 384.465 213.435C384.276 213.89 384 214.303 383.652 214.652C383.303 215 382.89 215.276 382.435 215.465C381.98 215.653 381.492 215.75 381 215.75C380.508 215.75 380.02 215.653 379.565 215.465C379.11 215.276 378.697 215 378.348 214.652C378 214.303 377.724 213.89 377.535 213.435C377.347 212.98 377.25 212.492 377.25 212C377.25 211.005 377.645 210.052 378.348 209.348C379.052 208.645 380.005 208.25 381 208.25C381.995 208.25 382.948 208.645 383.652 209.348C384.355 210.052 384.75 211.005 384.75 212Z" stroke="#9CA3AF" stroke-linecap="round" stroke-linejoin="round"/>
</g>
<rect x="392" y="209" width="104" height="6" rx="3" fill="#9CA3AF"/>
<g clip-path="url(#clip16_2871_3888)">
<path d="M379.75 230L380.583 230.833L382.25 229.167M384.75 230C384.75 230.492 384.653 230.98 384.465 231.435C384.276 231.89 384 232.303 383.652 232.652C383.303 233 382.89 233.276 382.435 233.465C381.98 233.653 381.492 233.75 381 233.75C380.508 233.75 380.02 233.653 379.565 233.465C379.11 233.276 378.697 233 378.348 232.652C378 232.303 377.724 231.89 377.535 231.435C377.347 230.98 377.25 230.492 377.25 230C377.25 229.005 377.645 228.052 378.348 227.348C379.052 226.645 380.005 226.25 381 226.25C381.995 226.25 382.948 226.645 383.652 227.348C384.355 228.052 384.75 229.005 384.75 230Z" stroke="#9CA3AF" stroke-linecap="round" stroke-linejoin="round"/>
</g>
<rect x="392" y="227" width="104" height="6" rx="3" fill="#9CA3AF"/>
<g clip-path="url(#clip17_2871_3888)">
<path d="M379.75 248L380.583 248.833L382.25 247.167M384.75 248C384.75 248.492 384.653 248.98 384.465 249.435C384.276 249.89 384 250.303 383.652 250.652C383.303 251 382.89 251.276 382.435 251.465C381.98 251.653 381.492 251.75 381 251.75C380.508 251.75 380.02 251.653 379.565 251.465C379.11 251.276 378.697 251 378.348 250.652C378 250.303 377.724 249.89 377.535 249.435C377.347 248.98 377.25 248.492 377.25 248C377.25 247.005 377.645 246.052 378.348 245.348C379.052 244.645 380.005 244.25 381 244.25C381.995 244.25 382.948 244.645 383.652 245.348C384.355 246.052 384.75 247.005 384.75 248Z" stroke="#9CA3AF" stroke-linecap="round" stroke-linejoin="round"/>
</g>
<rect x="392" y="245" width="104" height="6" rx="3" fill="#9CA3AF"/>
<g clip-path="url(#clip18_2871_3888)">
<path d="M379.75 266L380.583 266.833L382.25 265.167M384.75 266C384.75 266.492 384.653 266.98 384.465 267.435C384.276 267.89 384 268.303 383.652 268.652C383.303 269 382.89 269.276 382.435 269.465C381.98 269.653 381.492 269.75 381 269.75C380.508 269.75 380.02 269.653 379.565 269.465C379.11 269.276 378.697 269 378.348 268.652C378 268.303 377.724 267.89 377.535 267.435C377.347 266.98 377.25 266.492 377.25 266C377.25 265.005 377.645 264.052 378.348 263.348C379.052 262.645 380.005 262.25 381 262.25C381.995 262.25 382.948 262.645 383.652 263.348C384.355 264.052 384.75 265.005 384.75 266Z" stroke="#9CA3AF" stroke-linecap="round" stroke-linejoin="round"/>
</g>
<rect x="392" y="263" width="104" height="6" rx="3" fill="#9CA3AF"/>
<rect x="376" y="291" width="120" height="16" rx="3" fill="#1A56DB"/>
<rect x="411" y="297" width="50" height="4" rx="1" fill="white"/>
<rect x="360.5" y="92.5" width="151" height="230" rx="4.5" stroke="#4B5563"/>
</g>
<defs>
<clipPath id="clip0_2871_3888">
<rect width="536" height="345" fill="white"/>
</clipPath>
<clipPath id="clip1_2871_3888">
<rect width="10" height="10" fill="white" transform="translate(40 171)"/>
</clipPath>
<clipPath id="clip2_2871_3888">
<rect width="10" height="10" fill="white" transform="translate(40 189)"/>
</clipPath>
<clipPath id="clip3_2871_3888">
<rect width="10" height="10" fill="white" transform="translate(40 207)"/>
</clipPath>
<clipPath id="clip4_2871_3888">
<rect width="10" height="10" fill="white" transform="translate(40 225)"/>
</clipPath>
<clipPath id="clip5_2871_3888">
<rect width="10" height="10" fill="white" transform="translate(40 243)"/>
</clipPath>
<clipPath id="clip6_2871_3888">
<rect width="10" height="10" fill="white" transform="translate(40 261)"/>
</clipPath>
<clipPath id="clip7_2871_3888">
<rect width="10" height="10" fill="white" transform="translate(208 171)"/>
</clipPath>
<clipPath id="clip8_2871_3888">
<rect width="10" height="10" fill="white" transform="translate(208 189)"/>
</clipPath>
<clipPath id="clip9_2871_3888">
<rect width="10" height="10" fill="white" transform="translate(208 207)"/>
</clipPath>
<clipPath id="clip10_2871_3888">
<rect width="10" height="10" fill="white" transform="translate(208 225)"/>
</clipPath>
<clipPath id="clip11_2871_3888">
<rect width="10" height="10" fill="white" transform="translate(208 243)"/>
</clipPath>
<clipPath id="clip12_2871_3888">
<rect width="10" height="10" fill="white" transform="translate(208 261)"/>
</clipPath>
<clipPath id="clip13_2871_3888">
<rect width="10" height="10" fill="white" transform="translate(376 171)"/>
</clipPath>
<clipPath id="clip14_2871_3888">
<rect width="10" height="10" fill="white" transform="translate(376 189)"/>
</clipPath>
<clipPath id="clip15_2871_3888">
<rect width="10" height="10" fill="white" transform="translate(376 207)"/>
</clipPath>
<clipPath id="clip16_2871_3888">
<rect width="10" height="10" fill="white" transform="translate(376 225)"/>
</clipPath>
<clipPath id="clip17_2871_3888">
<rect width="10" height="10" fill="white" transform="translate(376 243)"/>
</clipPath>
<clipPath id="clip18_2871_3888">
<rect width="10" height="10" fill="white" transform="translate(376 261)"/>
</clipPath>
</defs>
</svg>
