<svg width="536" height="345" viewBox="0 0 536 345" fill="none" xmlns="http://www.w3.org/2000/svg">
<g clip-path="url(#clip0_2916_3917)">
<rect x="80" y="90.5" width="376" height="164" rx="8" fill="white"/>
<rect x="80" y="90.5" width="376" height="164" rx="5" fill="white"/>
<rect x="81" y="91.5" width="84" height="6" rx="3" fill="#9CA3AF"/>
<rect x="81" y="113.5" width="51" height="3" rx="1.5" fill="#D1D5DB"/>
<rect x="80.5" y="124" width="183" height="17" rx="4.5" fill="white"/>
<rect x="88" y="131.5" width="56" height="2" rx="1" fill="#E5E7EB"/>
<rect x="80.5" y="124" width="183" height="17" rx="4.5" stroke="#D1D5DB"/>
<rect x="273" y="113.5" width="51" height="3" rx="1.5" fill="#D1D5DB"/>
<rect x="272.5" y="124" width="183" height="17" rx="4.5" fill="white"/>
<rect x="280" y="131.5" width="56" height="2" rx="1" fill="#E5E7EB"/>
<rect x="272.5" y="124" width="183" height="17" rx="4.5" stroke="#D1D5DB"/>
<rect x="81" y="154.5" width="51" height="3" rx="1.5" fill="#D1D5DB"/>
<rect x="80.5" y="165" width="183" height="17" rx="4.5" fill="white"/>
<rect x="88" y="172.5" width="56" height="2" rx="1" fill="#E5E7EB"/>
<rect x="80.5" y="165" width="183" height="17" rx="4.5" stroke="#D1D5DB"/>
<rect x="273" y="154.5" width="51" height="3" rx="1.5" fill="#D1D5DB"/>
<rect x="272.5" y="165" width="183" height="17" rx="4.5" fill="white"/>
<rect x="280" y="172.5" width="56" height="2" rx="1" fill="#E5E7EB"/>
<rect x="272.5" y="165" width="183" height="17" rx="4.5" stroke="#D1D5DB"/>
<rect x="80.5" y="197" width="6" height="6" rx="1.5" fill="white"/>
<rect x="80.5" y="197" width="6" height="6" rx="1.5" stroke="#D1D5DB"/>
<rect x="91" y="197.5" width="364" height="4" rx="2" fill="#D1D5DB"/>
<rect x="91" y="205.5" width="163" height="4" rx="2" fill="#D1D5DB"/>
<rect x="80.5" y="215" width="6" height="6" rx="1.5" fill="white"/>
<rect x="80.5" y="215" width="6" height="6" rx="1.5" stroke="#D1D5DB"/>
<rect x="91" y="216" width="82" height="4" rx="2" fill="#D1D5DB"/>
<rect x="81" y="236.5" width="66" height="17" rx="2" fill="#1A56DB"/>
<rect x="93" y="243.5" width="42" height="3" rx="1" fill="white"/>
</g>
<defs>
<clipPath id="clip0_2916_3917">
<rect width="536" height="345" fill="white"/>
</clipPath>
</defs>
</svg>
