<svg width="536" height="345" viewBox="0 0 536 345" fill="none" xmlns="http://www.w3.org/2000/svg">
<rect x="27" y="118.5" width="160" height="9" rx="4.5" fill="#9CA3AF"/>
<rect x="27" y="136.5" width="238" height="6" rx="3" fill="#6B7280"/>
<rect x="27" y="148.5" width="184" height="6" rx="3" fill="#6B7280"/>
<path d="M343.477 127.679C342.522 127.679 341.674 127.506 340.933 127.161C340.191 126.816 339.605 126.341 339.175 125.736C338.749 125.131 338.527 124.436 338.51 123.652H341.578C341.604 124.134 341.8 124.521 342.166 124.815C342.533 125.105 342.969 125.25 343.477 125.25C343.873 125.25 344.224 125.163 344.531 124.988C344.838 124.813 345.079 124.568 345.254 124.253C345.428 123.933 345.513 123.567 345.509 123.153C345.513 122.732 345.426 122.363 345.247 122.048C345.072 121.732 344.83 121.487 344.518 121.312C344.212 121.134 343.858 121.044 343.457 121.044C343.078 121.04 342.718 121.123 342.377 121.293C342.04 121.464 341.785 121.696 341.61 121.99L338.817 121.466L339.386 114.409H347.785V116.96H341.987L341.687 120.047H341.763C341.981 119.685 342.33 119.386 342.812 119.152C343.298 118.913 343.849 118.794 344.467 118.794C345.251 118.794 345.95 118.977 346.564 119.344C347.182 119.706 347.668 120.209 348.021 120.852C348.379 121.496 348.558 122.233 348.558 123.064C348.558 123.963 348.345 124.76 347.919 125.455C347.497 126.149 346.905 126.695 346.142 127.091C345.384 127.483 344.495 127.679 343.477 127.679ZM355.543 127.679C354.827 127.679 354.141 127.564 353.485 127.334C352.829 127.099 352.245 126.729 351.733 126.222C351.222 125.71 350.819 125.041 350.525 124.214C350.231 123.384 350.086 122.371 350.091 121.178C350.095 120.1 350.227 119.133 350.487 118.276C350.747 117.415 351.118 116.685 351.599 116.084C352.085 115.483 352.665 115.025 353.338 114.71C354.015 114.39 354.772 114.23 355.607 114.23C356.523 114.23 357.331 114.409 358.03 114.767C358.733 115.121 359.295 115.598 359.717 116.199C360.139 116.795 360.388 117.46 360.465 118.193H357.352C357.258 117.78 357.052 117.467 356.732 117.254C356.417 117.036 356.042 116.928 355.607 116.928C354.806 116.928 354.207 117.275 353.811 117.969C353.419 118.664 353.219 119.593 353.21 120.756H353.293C353.472 120.364 353.73 120.028 354.067 119.746C354.403 119.465 354.789 119.25 355.224 119.101C355.662 118.947 356.127 118.871 356.617 118.871C357.401 118.871 358.094 119.052 358.694 119.414C359.295 119.776 359.766 120.273 360.107 120.903C360.448 121.53 360.616 122.248 360.612 123.058C360.616 123.969 360.403 124.775 359.973 125.474C359.542 126.168 358.946 126.71 358.183 127.097C357.425 127.485 356.545 127.679 355.543 127.679ZM355.524 125.25C355.912 125.25 356.259 125.158 356.566 124.975C356.873 124.792 357.113 124.543 357.288 124.227C357.463 123.912 357.548 123.556 357.544 123.16C357.548 122.759 357.463 122.403 357.288 122.092C357.118 121.781 356.879 121.534 356.572 121.351C356.27 121.168 355.922 121.076 355.53 121.076C355.245 121.076 354.979 121.129 354.731 121.236C354.484 121.342 354.269 121.491 354.086 121.683C353.907 121.871 353.766 122.092 353.664 122.348C353.562 122.599 353.508 122.872 353.504 123.166C353.508 123.554 353.598 123.906 353.773 124.221C353.947 124.536 354.186 124.788 354.488 124.975C354.791 125.158 355.136 125.25 355.524 125.25ZM362.247 125.327V122.859L367.61 114.409H369.802V117.759H368.53L365.392 122.732V122.834H373.158V125.327H362.247ZM368.569 127.5V124.572L368.632 123.492V114.409H371.592V127.5H368.569Z" fill="#D1D5DB"/>
<rect x="334" y="140.5" width="44" height="5" rx="2.5" fill="#9CA3AF"/>
<rect x="321" y="152.5" width="70" height="4" rx="2" fill="#6B7280"/>
<path d="M436.893 114.23C437.609 114.23 438.293 114.347 438.945 114.582C439.597 114.812 440.179 115.18 440.69 115.688C441.202 116.19 441.604 116.853 441.898 117.675C442.192 118.498 442.339 119.501 442.339 120.686C442.344 121.777 442.216 122.755 441.956 123.62C441.696 124.481 441.323 125.214 440.837 125.819C440.356 126.424 439.776 126.886 439.099 127.206C438.421 127.521 437.665 127.679 436.83 127.679C435.909 127.679 435.097 127.502 434.394 127.148C433.695 126.79 433.135 126.309 432.713 125.704C432.295 125.099 432.046 124.421 431.965 123.671H435.078C435.176 124.106 435.383 124.434 435.698 124.656C436.013 124.873 436.391 124.982 436.83 124.982C437.631 124.982 438.229 124.634 438.626 123.94C439.022 123.245 439.22 122.301 439.22 121.108H439.143C438.96 121.5 438.7 121.837 438.364 122.118C438.031 122.399 437.646 122.614 437.207 122.763C436.768 122.913 436.305 122.987 435.82 122.987C435.036 122.987 434.343 122.808 433.742 122.45C433.146 122.092 432.677 121.6 432.336 120.974C431.999 120.347 431.829 119.631 431.825 118.826C431.82 117.923 432.031 117.126 432.457 116.435C432.884 115.741 433.478 115.2 434.241 114.812C435.004 114.42 435.888 114.226 436.893 114.23ZM436.913 116.659C436.521 116.659 436.171 116.751 435.864 116.934C435.562 117.117 435.323 117.364 435.148 117.675C434.974 117.987 434.888 118.336 434.893 118.724C434.897 119.112 434.984 119.461 435.155 119.772C435.33 120.083 435.566 120.33 435.864 120.513C436.167 120.697 436.512 120.788 436.9 120.788C437.19 120.788 437.458 120.735 437.705 120.629C437.952 120.522 438.168 120.375 438.351 120.188C438.534 119.996 438.677 119.774 438.779 119.523C438.886 119.271 438.937 119.003 438.933 118.717C438.928 118.338 438.839 117.993 438.664 117.682C438.489 117.371 438.249 117.124 437.942 116.94C437.639 116.753 437.296 116.659 436.913 116.659ZM449.491 127.82C448.349 127.82 447.364 127.549 446.537 127.008C445.711 126.462 445.074 125.68 444.626 124.662C444.179 123.639 443.957 122.41 443.961 120.974C443.966 119.538 444.189 118.319 444.633 117.317C445.08 116.312 445.715 115.547 446.537 115.023C447.364 114.494 448.349 114.23 449.491 114.23C450.633 114.23 451.617 114.494 452.444 115.023C453.275 115.547 453.914 116.312 454.361 117.317C454.809 118.323 455.03 119.542 455.026 120.974C455.026 122.414 454.802 123.646 454.355 124.668C453.907 125.691 453.27 126.473 452.444 127.014C451.621 127.551 450.637 127.82 449.491 127.82ZM449.491 125.231C450.172 125.231 450.724 124.884 451.146 124.189C451.568 123.49 451.777 122.418 451.773 120.974C451.773 120.028 451.677 119.248 451.485 118.634C451.293 118.016 451.027 117.556 450.686 117.254C450.345 116.951 449.947 116.8 449.491 116.8C448.813 116.8 448.265 117.143 447.848 117.829C447.43 118.511 447.219 119.559 447.215 120.974C447.211 121.933 447.302 122.727 447.49 123.358C447.682 123.989 447.95 124.46 448.295 124.771C448.64 125.077 449.039 125.231 449.491 125.231ZM460.763 125.608V116.352H463.339V125.608H460.763ZM457.42 122.271V119.689H466.676V122.271H457.42Z" fill="#D1D5DB"/>
<rect x="428" y="140.5" width="44" height="5" rx="2.5" fill="#9CA3AF"/>
<rect x="415" y="152.5" width="70" height="4" rx="2" fill="#6B7280"/>
<path d="M349.518 195.409V208.5H346.361V198.362H346.284L343.357 200.152V197.416L346.585 195.409H349.518ZM352.438 195.409H356.356L359.68 203.514H359.834L363.157 195.409H367.076V208.5H363.995V200.459H363.886L360.741 208.417H358.773L355.628 200.414H355.519V208.5H352.438V195.409Z" fill="#D1D5DB"/>
<rect x="334" y="221.5" width="44" height="5" rx="2.5" fill="#9CA3AF"/>
<rect x="321" y="233.5" width="70" height="4" rx="2" fill="#6B7280"/>
<path d="M436.945 208.679C435.947 208.679 435.063 208.509 434.292 208.168C433.525 207.822 432.92 207.347 432.477 206.742C432.033 206.137 431.808 205.44 431.799 204.652H434.982C434.995 204.937 435.087 205.191 435.257 205.413C435.428 205.63 435.66 205.8 435.954 205.924C436.248 206.048 436.582 206.109 436.957 206.109C437.332 206.109 437.663 206.043 437.948 205.911C438.238 205.775 438.464 205.589 438.626 205.355C438.788 205.116 438.866 204.844 438.862 204.537C438.866 204.23 438.779 203.957 438.6 203.719C438.421 203.48 438.168 203.295 437.839 203.163C437.516 203.031 437.132 202.964 436.689 202.964H435.417V200.714H436.689C437.077 200.714 437.418 200.651 437.712 200.523C438.01 200.395 438.242 200.216 438.408 199.986C438.575 199.751 438.656 199.483 438.651 199.18C438.656 198.886 438.585 198.629 438.44 198.407C438.3 198.181 438.102 198.006 437.846 197.883C437.594 197.759 437.303 197.697 436.97 197.697C436.621 197.697 436.303 197.759 436.018 197.883C435.737 198.006 435.513 198.181 435.347 198.407C435.18 198.633 435.093 198.895 435.085 199.193H432.061C432.07 198.413 432.287 197.727 432.713 197.135C433.139 196.538 433.719 196.072 434.452 195.735C435.189 195.398 436.028 195.23 436.97 195.23C437.908 195.23 438.732 195.394 439.444 195.722C440.156 196.05 440.71 196.498 441.106 197.065C441.502 197.627 441.7 198.264 441.7 198.976C441.705 199.713 441.464 200.32 440.978 200.798C440.496 201.275 439.876 201.569 439.118 201.68V201.782C440.132 201.901 440.897 202.229 441.413 202.766C441.933 203.303 442.19 203.974 442.186 204.78C442.186 205.538 441.962 206.212 441.515 206.8C441.072 207.384 440.454 207.844 439.661 208.18C438.873 208.513 437.967 208.679 436.945 208.679ZM449.385 208.82C448.243 208.82 447.259 208.549 446.432 208.008C445.605 207.462 444.968 206.68 444.521 205.662C444.073 204.639 443.852 203.41 443.856 201.974C443.86 200.538 444.084 199.319 444.527 198.317C444.975 197.312 445.61 196.547 446.432 196.023C447.259 195.494 448.243 195.23 449.385 195.23C450.527 195.23 451.512 195.494 452.338 196.023C453.169 196.547 453.808 197.312 454.256 198.317C454.703 199.323 454.925 200.542 454.921 201.974C454.921 203.414 454.697 204.646 454.249 205.668C453.802 206.691 453.165 207.473 452.338 208.014C451.516 208.551 450.531 208.82 449.385 208.82ZM449.385 206.231C450.067 206.231 450.619 205.884 451.041 205.189C451.463 204.49 451.671 203.418 451.667 201.974C451.667 201.028 451.571 200.248 451.379 199.634C451.188 199.016 450.921 198.556 450.58 198.254C450.24 197.951 449.841 197.8 449.385 197.8C448.708 197.8 448.16 198.143 447.742 198.829C447.325 199.511 447.114 200.559 447.11 201.974C447.105 202.933 447.197 203.727 447.384 204.358C447.576 204.989 447.845 205.46 448.19 205.771C448.535 206.077 448.933 206.231 449.385 206.231ZM459.577 205.924L459.59 202.197H460.025L462.786 198.682H466.327L462.224 203.719H461.399L459.577 205.924ZM456.758 208.5V195.409H459.884V208.5H456.758ZM462.856 208.5L460.287 204.422L462.345 202.204L466.468 208.5H462.856Z" fill="#D1D5DB"/>
<rect x="428" y="221.5" width="44" height="5" rx="2.5" fill="#9CA3AF"/>
<rect x="415" y="233.5" width="70" height="4" rx="2" fill="#6B7280"/>
</svg>
