<svg width="536" height="345" viewBox="0 0 536 345" fill="none" xmlns="http://www.w3.org/2000/svg">
<rect x="190.562" y="69.5" width="154.876" height="9" rx="4.5" fill="#9CA3AF"/>
<rect x="142.5" y="90.5" width="251" height="6" rx="3" fill="#6B7280"/>
<rect x="167" y="102.5" width="202" height="6" rx="3" fill="#6B7280"/>
<rect x="32" y="148.5" width="97" height="48" rx="5" fill="#374151"/>
<path d="M84.3891 169.514C85.4205 168.483 86 167.084 86 165.625C86 164.166 85.4205 162.767 84.3891 161.736C83.3576 160.704 81.9587 160.125 80.5 160.125C79.0413 160.125 77.6424 160.704 76.6109 161.736C75.5795 162.767 75 164.166 75 165.625C75 167.084 75.5795 168.483 76.6109 169.514C77.6424 170.546 79.0413 171.125 80.5 171.125C81.9587 171.125 83.3576 170.546 84.3891 169.514Z" stroke="#6B7280" stroke-width="2" stroke-linecap="round" stroke-linejoin="round"/>
<path d="M73.6941 178.069C75.4991 176.264 77.9473 175.25 80.5 175.25C83.0527 175.25 85.5009 176.264 87.3059 178.069C89.1109 179.874 90.125 182.322 90.125 184.875H70.875C70.875 182.322 71.8891 179.874 73.6941 178.069Z" stroke="#6B7280" stroke-width="2" stroke-linecap="round" stroke-linejoin="round"/>
<rect x="32" y="206.5" width="51" height="5" rx="2" fill="#D1D5DB"/>
<rect x="32" y="215.5" width="35" height="4" rx="2" fill="#6B7280"/>
<rect x="32" y="227.5" width="88" height="4" rx="2" fill="#6B7280"/>
<rect x="32" y="235.5" width="79" height="4" rx="2" fill="#6B7280"/>
<rect x="32" y="243.5" width="83" height="4" rx="2" fill="#6B7280"/>
<path d="M38.6826 262.969L38.8877 261.621H37.584V260.742C37.584 260.361 37.7598 260.01 38.3457 260.01H38.9463V258.853C38.9463 258.853 38.4043 258.75 37.8916 258.75C36.8223 258.75 36.1191 259.409 36.1191 260.581V261.621H34.918V262.969H36.1191V266.25H37.584V262.969H38.6826Z" fill="#6B7280"/>
<path d="M53.9736 261.092C54.2666 260.873 54.5303 260.609 54.7354 260.301C54.4717 260.418 54.1641 260.506 53.8564 260.536C54.1787 260.345 54.4131 260.052 54.5303 259.686C54.2373 259.862 53.9004 259.994 53.5635 260.067C53.2705 259.759 52.875 259.583 52.4355 259.583C51.5859 259.583 50.8975 260.272 50.8975 261.122C50.8975 261.239 50.9121 261.356 50.9414 261.473C49.667 261.4 48.5244 260.785 47.7627 259.862C47.6309 260.082 47.5576 260.345 47.5576 260.638C47.5576 261.166 47.8213 261.634 48.2461 261.913C47.9971 261.898 47.748 261.839 47.543 261.722V261.737C47.543 262.484 48.0703 263.099 48.7734 263.246C48.6562 263.275 48.5098 263.304 48.3779 263.304C48.2754 263.304 48.1875 263.29 48.085 263.275C48.2754 263.89 48.8467 264.33 49.5205 264.344C48.9932 264.754 48.334 265.003 47.6162 265.003C47.4844 265.003 47.3672 264.989 47.25 264.974C47.9238 265.414 48.7295 265.663 49.6084 265.663C52.4355 265.663 53.9736 263.333 53.9736 261.297C53.9736 261.224 53.9736 261.166 53.9736 261.092Z" fill="#6B7280"/>
<path d="M64.8828 258.75C62.876 258.75 61.25 260.391 61.25 262.383C61.25 264.39 62.876 266.016 64.8828 266.016C66.875 266.016 68.5156 264.39 68.5156 262.383C68.5156 260.391 66.875 258.75 64.8828 258.75ZM67.2705 260.435C67.71 260.962 67.9736 261.636 67.9736 262.368C67.8711 262.339 66.8457 262.134 65.8203 262.266C65.7324 262.061 65.6592 261.885 65.542 261.65C66.6992 261.182 67.2119 260.522 67.2705 260.435ZM66.9336 260.068C66.875 260.156 66.4062 260.786 65.3076 261.196C64.7949 260.259 64.2383 259.497 64.1504 259.38C65.1318 259.146 66.1719 259.395 66.9336 260.068ZM63.5498 259.585C63.6377 259.702 64.1943 260.464 64.707 261.387C63.2568 261.768 61.9824 261.768 61.8359 261.753C62.041 260.801 62.6855 259.995 63.5498 259.585ZM61.7773 262.397C61.7773 262.368 61.7773 262.339 61.7773 262.295C61.9092 262.31 63.418 262.324 64.9561 261.855C65.0586 262.031 65.1318 262.207 65.2197 262.383C64.0918 262.705 63.0664 263.613 62.5684 264.463C62.0703 263.921 61.7773 263.188 61.7773 262.397ZM62.9639 264.844C63.3008 264.185 64.1797 263.32 65.4248 262.896C65.8643 264.023 66.04 264.976 66.084 265.254C65.0879 265.679 63.8867 265.562 62.9639 264.844ZM66.6113 264.961C66.582 264.785 66.4062 263.877 66.0107 262.749C66.9775 262.603 67.8271 262.852 67.9443 262.881C67.7979 263.745 67.2998 264.492 66.6113 264.961Z" fill="#6B7280"/>
<path d="M77.667 264.463C77.667 264.434 77.6377 264.404 77.5937 264.404C77.5498 264.404 77.5205 264.434 77.5205 264.463C77.5205 264.492 77.5498 264.521 77.5937 264.507C77.6377 264.507 77.667 264.492 77.667 264.463ZM77.2129 264.39C77.2129 264.419 77.2422 264.463 77.2861 264.463C77.3154 264.478 77.3594 264.463 77.374 264.434C77.374 264.404 77.3594 264.375 77.3154 264.36C77.2715 264.346 77.2275 264.36 77.2129 264.39ZM77.8721 264.375C77.8281 264.375 77.7988 264.404 77.7988 264.448C77.7988 264.478 77.8428 264.492 77.8867 264.478C77.9307 264.463 77.96 264.448 77.9453 264.419C77.9453 264.39 77.9014 264.36 77.8721 264.375ZM78.8242 258.75C76.8027 258.75 75.25 260.303 75.25 262.324C75.25 263.95 76.2607 265.342 77.7256 265.84C77.916 265.869 77.9746 265.752 77.9746 265.664C77.9746 265.562 77.9746 265.063 77.9746 264.756C77.9746 264.756 76.9492 264.976 76.7295 264.316C76.7295 264.316 76.5684 263.892 76.334 263.789C76.334 263.789 75.9971 263.555 76.3486 263.555C76.3486 263.555 76.7148 263.584 76.9199 263.936C77.2422 264.507 77.7695 264.346 77.9893 264.243C78.0186 264.009 78.1064 263.848 78.2236 263.745C77.4033 263.657 76.5684 263.54 76.5684 262.134C76.5684 261.724 76.6855 261.533 76.9199 261.27C76.876 261.167 76.7588 260.786 76.9639 260.273C77.2568 260.186 77.9746 260.669 77.9746 260.669C78.2676 260.581 78.5752 260.552 78.8828 260.552C79.2051 260.552 79.5127 260.581 79.8057 260.669C79.8057 260.669 80.5088 260.171 80.8164 260.273C81.0215 260.786 80.8896 261.167 80.8604 261.27C81.0947 261.533 81.2412 261.724 81.2412 262.134C81.2412 263.54 80.377 263.657 79.5566 263.745C79.6885 263.862 79.8057 264.082 79.8057 264.434C79.8057 264.917 79.791 265.532 79.791 265.649C79.791 265.752 79.8643 265.869 80.0547 265.825C81.5195 265.342 82.5156 263.95 82.5156 262.324C82.5156 260.303 80.8604 258.75 78.8242 258.75ZM76.6709 263.804C76.6416 263.818 76.6562 263.862 76.6709 263.892C76.7002 263.906 76.7295 263.921 76.7588 263.906C76.7734 263.892 76.7734 263.848 76.7441 263.818C76.7148 263.804 76.6855 263.789 76.6709 263.804ZM76.5098 263.687C76.4951 263.716 76.5098 263.73 76.5391 263.745C76.5684 263.76 76.5977 263.76 76.6123 263.73C76.6123 263.716 76.5977 263.701 76.5684 263.687C76.5391 263.672 76.5244 263.672 76.5098 263.687ZM76.9785 264.214C76.9639 264.229 76.9639 264.272 77.0078 264.302C77.0371 264.331 77.0811 264.346 77.0957 264.316C77.1104 264.302 77.1104 264.258 77.0811 264.229C77.0518 264.199 77.0078 264.185 76.9785 264.214ZM76.8174 263.994C76.7881 264.009 76.7881 264.053 76.8174 264.082C76.8467 264.111 76.876 264.126 76.9053 264.111C76.9199 264.097 76.9199 264.053 76.9053 264.023C76.876 263.994 76.8467 263.979 76.8174 263.994Z" fill="#6B7280"/>
<rect x="24.5" y="141" width="112" height="134" rx="4.5" stroke="#374151"/>
<rect x="157" y="148.5" width="97" height="48" rx="5" fill="#374151"/>
<path d="M209.389 169.514C210.421 168.483 211 167.084 211 165.625C211 164.166 210.421 162.767 209.389 161.736C208.358 160.704 206.959 160.125 205.5 160.125C204.041 160.125 202.642 160.704 201.611 161.736C200.579 162.767 200 164.166 200 165.625C200 167.084 200.579 168.483 201.611 169.514C202.642 170.546 204.041 171.125 205.5 171.125C206.959 171.125 208.358 170.546 209.389 169.514Z" stroke="#6B7280" stroke-width="2" stroke-linecap="round" stroke-linejoin="round"/>
<path d="M198.694 178.069C200.499 176.264 202.947 175.25 205.5 175.25C208.053 175.25 210.501 176.264 212.306 178.069C214.111 179.874 215.125 182.322 215.125 184.875H195.875C195.875 182.322 196.889 179.874 198.694 178.069Z" stroke="#6B7280" stroke-width="2" stroke-linecap="round" stroke-linejoin="round"/>
<rect x="157" y="206.5" width="51" height="5" rx="2" fill="#D1D5DB"/>
<rect x="157" y="215.5" width="35" height="4" rx="2" fill="#6B7280"/>
<rect x="157" y="227.5" width="88" height="4" rx="2" fill="#6B7280"/>
<rect x="157" y="235.5" width="79" height="4" rx="2" fill="#6B7280"/>
<rect x="157" y="243.5" width="83" height="4" rx="2" fill="#6B7280"/>
<path d="M163.683 262.969L163.888 261.621H162.584V260.742C162.584 260.361 162.76 260.01 163.346 260.01H163.946V258.853C163.946 258.853 163.404 258.75 162.892 258.75C161.822 258.75 161.119 259.409 161.119 260.581V261.621H159.918V262.969H161.119V266.25H162.584V262.969H163.683Z" fill="#6B7280"/>
<path d="M178.974 261.092C179.267 260.873 179.53 260.609 179.735 260.301C179.472 260.418 179.164 260.506 178.856 260.536C179.179 260.345 179.413 260.052 179.53 259.686C179.237 259.862 178.9 259.994 178.563 260.067C178.271 259.759 177.875 259.583 177.436 259.583C176.586 259.583 175.897 260.272 175.897 261.122C175.897 261.239 175.912 261.356 175.941 261.473C174.667 261.4 173.524 260.785 172.763 259.862C172.631 260.082 172.558 260.345 172.558 260.638C172.558 261.166 172.821 261.634 173.246 261.913C172.997 261.898 172.748 261.839 172.543 261.722V261.737C172.543 262.484 173.07 263.099 173.773 263.246C173.656 263.275 173.51 263.304 173.378 263.304C173.275 263.304 173.187 263.29 173.085 263.275C173.275 263.89 173.847 264.33 174.521 264.344C173.993 264.754 173.334 265.003 172.616 265.003C172.484 265.003 172.367 264.989 172.25 264.974C172.924 265.414 173.729 265.663 174.608 265.663C177.436 265.663 178.974 263.333 178.974 261.297C178.974 261.224 178.974 261.166 178.974 261.092Z" fill="#6B7280"/>
<path d="M189.883 258.75C187.876 258.75 186.25 260.391 186.25 262.383C186.25 264.39 187.876 266.016 189.883 266.016C191.875 266.016 193.516 264.39 193.516 262.383C193.516 260.391 191.875 258.75 189.883 258.75ZM192.271 260.435C192.71 260.962 192.974 261.636 192.974 262.368C192.871 262.339 191.846 262.134 190.82 262.266C190.732 262.061 190.659 261.885 190.542 261.65C191.699 261.182 192.212 260.522 192.271 260.435ZM191.934 260.068C191.875 260.156 191.406 260.786 190.308 261.196C189.795 260.259 189.238 259.497 189.15 259.38C190.132 259.146 191.172 259.395 191.934 260.068ZM188.55 259.585C188.638 259.702 189.194 260.464 189.707 261.387C188.257 261.768 186.982 261.768 186.836 261.753C187.041 260.801 187.686 259.995 188.55 259.585ZM186.777 262.397C186.777 262.368 186.777 262.339 186.777 262.295C186.909 262.31 188.418 262.324 189.956 261.855C190.059 262.031 190.132 262.207 190.22 262.383C189.092 262.705 188.066 263.613 187.568 264.463C187.07 263.921 186.777 263.188 186.777 262.397ZM187.964 264.844C188.301 264.185 189.18 263.32 190.425 262.896C190.864 264.023 191.04 264.976 191.084 265.254C190.088 265.679 188.887 265.562 187.964 264.844ZM191.611 264.961C191.582 264.785 191.406 263.877 191.011 262.749C191.978 262.603 192.827 262.852 192.944 262.881C192.798 263.745 192.3 264.492 191.611 264.961Z" fill="#6B7280"/>
<path d="M202.667 264.463C202.667 264.434 202.638 264.404 202.594 264.404C202.55 264.404 202.521 264.434 202.521 264.463C202.521 264.492 202.55 264.521 202.594 264.507C202.638 264.507 202.667 264.492 202.667 264.463ZM202.213 264.39C202.213 264.419 202.242 264.463 202.286 264.463C202.315 264.478 202.359 264.463 202.374 264.434C202.374 264.404 202.359 264.375 202.315 264.36C202.271 264.346 202.228 264.36 202.213 264.39ZM202.872 264.375C202.828 264.375 202.799 264.404 202.799 264.448C202.799 264.478 202.843 264.492 202.887 264.478C202.931 264.463 202.96 264.448 202.945 264.419C202.945 264.39 202.901 264.36 202.872 264.375ZM203.824 258.75C201.803 258.75 200.25 260.303 200.25 262.324C200.25 263.95 201.261 265.342 202.726 265.84C202.916 265.869 202.975 265.752 202.975 265.664C202.975 265.562 202.975 265.063 202.975 264.756C202.975 264.756 201.949 264.976 201.729 264.316C201.729 264.316 201.568 263.892 201.334 263.789C201.334 263.789 200.997 263.555 201.349 263.555C201.349 263.555 201.715 263.584 201.92 263.936C202.242 264.507 202.77 264.346 202.989 264.243C203.019 264.009 203.106 263.848 203.224 263.745C202.403 263.657 201.568 263.54 201.568 262.134C201.568 261.724 201.686 261.533 201.92 261.27C201.876 261.167 201.759 260.786 201.964 260.273C202.257 260.186 202.975 260.669 202.975 260.669C203.268 260.581 203.575 260.552 203.883 260.552C204.205 260.552 204.513 260.581 204.806 260.669C204.806 260.669 205.509 260.171 205.816 260.273C206.021 260.786 205.89 261.167 205.86 261.27C206.095 261.533 206.241 261.724 206.241 262.134C206.241 263.54 205.377 263.657 204.557 263.745C204.688 263.862 204.806 264.082 204.806 264.434C204.806 264.917 204.791 265.532 204.791 265.649C204.791 265.752 204.864 265.869 205.055 265.825C206.52 265.342 207.516 263.95 207.516 262.324C207.516 260.303 205.86 258.75 203.824 258.75ZM201.671 263.804C201.642 263.818 201.656 263.862 201.671 263.892C201.7 263.906 201.729 263.921 201.759 263.906C201.773 263.892 201.773 263.848 201.744 263.818C201.715 263.804 201.686 263.789 201.671 263.804ZM201.51 263.687C201.495 263.716 201.51 263.73 201.539 263.745C201.568 263.76 201.598 263.76 201.612 263.73C201.612 263.716 201.598 263.701 201.568 263.687C201.539 263.672 201.524 263.672 201.51 263.687ZM201.979 264.214C201.964 264.229 201.964 264.272 202.008 264.302C202.037 264.331 202.081 264.346 202.096 264.316C202.11 264.302 202.11 264.258 202.081 264.229C202.052 264.199 202.008 264.185 201.979 264.214ZM201.817 263.994C201.788 264.009 201.788 264.053 201.817 264.082C201.847 264.111 201.876 264.126 201.905 264.111C201.92 264.097 201.92 264.053 201.905 264.023C201.876 263.994 201.847 263.979 201.817 263.994Z" fill="#6B7280"/>
<rect x="149.5" y="141" width="112" height="134" rx="4.5" stroke="#374151"/>
<rect x="282" y="148.5" width="97" height="48" rx="5" fill="#374151"/>
<path d="M334.389 169.514C335.421 168.483 336 167.084 336 165.625C336 164.166 335.421 162.767 334.389 161.736C333.358 160.704 331.959 160.125 330.5 160.125C329.041 160.125 327.642 160.704 326.611 161.736C325.579 162.767 325 164.166 325 165.625C325 167.084 325.579 168.483 326.611 169.514C327.642 170.546 329.041 171.125 330.5 171.125C331.959 171.125 333.358 170.546 334.389 169.514Z" stroke="#6B7280" stroke-width="2" stroke-linecap="round" stroke-linejoin="round"/>
<path d="M323.694 178.069C325.499 176.264 327.947 175.25 330.5 175.25C333.053 175.25 335.501 176.264 337.306 178.069C339.111 179.874 340.125 182.322 340.125 184.875H320.875C320.875 182.322 321.889 179.874 323.694 178.069Z" stroke="#6B7280" stroke-width="2" stroke-linecap="round" stroke-linejoin="round"/>
<rect x="282" y="206.5" width="51" height="5" rx="2" fill="#D1D5DB"/>
<rect x="282" y="215.5" width="35" height="4" rx="2" fill="#6B7280"/>
<rect x="282" y="227.5" width="88" height="4" rx="2" fill="#6B7280"/>
<rect x="282" y="235.5" width="79" height="4" rx="2" fill="#6B7280"/>
<rect x="282" y="243.5" width="83" height="4" rx="2" fill="#6B7280"/>
<path d="M288.683 262.969L288.888 261.621H287.584V260.742C287.584 260.361 287.76 260.01 288.346 260.01H288.946V258.853C288.946 258.853 288.404 258.75 287.892 258.75C286.822 258.75 286.119 259.409 286.119 260.581V261.621H284.918V262.969H286.119V266.25H287.584V262.969H288.683Z" fill="#6B7280"/>
<path d="M303.974 261.092C304.267 260.873 304.53 260.609 304.735 260.301C304.472 260.418 304.164 260.506 303.856 260.536C304.179 260.345 304.413 260.052 304.53 259.686C304.237 259.862 303.9 259.994 303.563 260.067C303.271 259.759 302.875 259.583 302.436 259.583C301.586 259.583 300.897 260.272 300.897 261.122C300.897 261.239 300.912 261.356 300.941 261.473C299.667 261.4 298.524 260.785 297.763 259.862C297.631 260.082 297.558 260.345 297.558 260.638C297.558 261.166 297.821 261.634 298.246 261.913C297.997 261.898 297.748 261.839 297.543 261.722V261.737C297.543 262.484 298.07 263.099 298.773 263.246C298.656 263.275 298.51 263.304 298.378 263.304C298.275 263.304 298.187 263.29 298.085 263.275C298.275 263.89 298.847 264.33 299.521 264.344C298.993 264.754 298.334 265.003 297.616 265.003C297.484 265.003 297.367 264.989 297.25 264.974C297.924 265.414 298.729 265.663 299.608 265.663C302.436 265.663 303.974 263.333 303.974 261.297C303.974 261.224 303.974 261.166 303.974 261.092Z" fill="#6B7280"/>
<path d="M314.883 258.75C312.876 258.75 311.25 260.391 311.25 262.383C311.25 264.39 312.876 266.016 314.883 266.016C316.875 266.016 318.516 264.39 318.516 262.383C318.516 260.391 316.875 258.75 314.883 258.75ZM317.271 260.435C317.71 260.962 317.974 261.636 317.974 262.368C317.871 262.339 316.846 262.134 315.82 262.266C315.732 262.061 315.659 261.885 315.542 261.65C316.699 261.182 317.212 260.522 317.271 260.435ZM316.934 260.068C316.875 260.156 316.406 260.786 315.308 261.196C314.795 260.259 314.238 259.497 314.15 259.38C315.132 259.146 316.172 259.395 316.934 260.068ZM313.55 259.585C313.638 259.702 314.194 260.464 314.707 261.387C313.257 261.768 311.982 261.768 311.836 261.753C312.041 260.801 312.686 259.995 313.55 259.585ZM311.777 262.397C311.777 262.368 311.777 262.339 311.777 262.295C311.909 262.31 313.418 262.324 314.956 261.855C315.059 262.031 315.132 262.207 315.22 262.383C314.092 262.705 313.066 263.613 312.568 264.463C312.07 263.921 311.777 263.188 311.777 262.397ZM312.964 264.844C313.301 264.185 314.18 263.32 315.425 262.896C315.864 264.023 316.04 264.976 316.084 265.254C315.088 265.679 313.887 265.562 312.964 264.844ZM316.611 264.961C316.582 264.785 316.406 263.877 316.011 262.749C316.978 262.603 317.827 262.852 317.944 262.881C317.798 263.745 317.3 264.492 316.611 264.961Z" fill="#6B7280"/>
<path d="M327.667 264.463C327.667 264.434 327.638 264.404 327.594 264.404C327.55 264.404 327.521 264.434 327.521 264.463C327.521 264.492 327.55 264.521 327.594 264.507C327.638 264.507 327.667 264.492 327.667 264.463ZM327.213 264.39C327.213 264.419 327.242 264.463 327.286 264.463C327.315 264.478 327.359 264.463 327.374 264.434C327.374 264.404 327.359 264.375 327.315 264.36C327.271 264.346 327.228 264.36 327.213 264.39ZM327.872 264.375C327.828 264.375 327.799 264.404 327.799 264.448C327.799 264.478 327.843 264.492 327.887 264.478C327.931 264.463 327.96 264.448 327.945 264.419C327.945 264.39 327.901 264.36 327.872 264.375ZM328.824 258.75C326.803 258.75 325.25 260.303 325.25 262.324C325.25 263.95 326.261 265.342 327.726 265.84C327.916 265.869 327.975 265.752 327.975 265.664C327.975 265.562 327.975 265.063 327.975 264.756C327.975 264.756 326.949 264.976 326.729 264.316C326.729 264.316 326.568 263.892 326.334 263.789C326.334 263.789 325.997 263.555 326.349 263.555C326.349 263.555 326.715 263.584 326.92 263.936C327.242 264.507 327.77 264.346 327.989 264.243C328.019 264.009 328.106 263.848 328.224 263.745C327.403 263.657 326.568 263.54 326.568 262.134C326.568 261.724 326.686 261.533 326.92 261.27C326.876 261.167 326.759 260.786 326.964 260.273C327.257 260.186 327.975 260.669 327.975 260.669C328.268 260.581 328.575 260.552 328.883 260.552C329.205 260.552 329.513 260.581 329.806 260.669C329.806 260.669 330.509 260.171 330.816 260.273C331.021 260.786 330.89 261.167 330.86 261.27C331.095 261.533 331.241 261.724 331.241 262.134C331.241 263.54 330.377 263.657 329.557 263.745C329.688 263.862 329.806 264.082 329.806 264.434C329.806 264.917 329.791 265.532 329.791 265.649C329.791 265.752 329.864 265.869 330.055 265.825C331.52 265.342 332.516 263.95 332.516 262.324C332.516 260.303 330.86 258.75 328.824 258.75ZM326.671 263.804C326.642 263.818 326.656 263.862 326.671 263.892C326.7 263.906 326.729 263.921 326.759 263.906C326.773 263.892 326.773 263.848 326.744 263.818C326.715 263.804 326.686 263.789 326.671 263.804ZM326.51 263.687C326.495 263.716 326.51 263.73 326.539 263.745C326.568 263.76 326.598 263.76 326.612 263.73C326.612 263.716 326.598 263.701 326.568 263.687C326.539 263.672 326.524 263.672 326.51 263.687ZM326.979 264.214C326.964 264.229 326.964 264.272 327.008 264.302C327.037 264.331 327.081 264.346 327.096 264.316C327.11 264.302 327.11 264.258 327.081 264.229C327.052 264.199 327.008 264.185 326.979 264.214ZM326.817 263.994C326.788 264.009 326.788 264.053 326.817 264.082C326.847 264.111 326.876 264.126 326.905 264.111C326.92 264.097 326.92 264.053 326.905 264.023C326.876 263.994 326.847 263.979 326.817 263.994Z" fill="#6B7280"/>
<rect x="274.5" y="141" width="112" height="134" rx="4.5" stroke="#374151"/>
<rect x="407" y="148.5" width="97" height="48" rx="5" fill="#374151"/>
<path d="M459.389 169.514C460.421 168.483 461 167.084 461 165.625C461 164.166 460.421 162.767 459.389 161.736C458.358 160.704 456.959 160.125 455.5 160.125C454.041 160.125 452.642 160.704 451.611 161.736C450.579 162.767 450 164.166 450 165.625C450 167.084 450.579 168.483 451.611 169.514C452.642 170.546 454.041 171.125 455.5 171.125C456.959 171.125 458.358 170.546 459.389 169.514Z" stroke="#6B7280" stroke-width="2" stroke-linecap="round" stroke-linejoin="round"/>
<path d="M448.694 178.069C450.499 176.264 452.947 175.25 455.5 175.25C458.053 175.25 460.501 176.264 462.306 178.069C464.111 179.874 465.125 182.322 465.125 184.875H445.875C445.875 182.322 446.889 179.874 448.694 178.069Z" stroke="#6B7280" stroke-width="2" stroke-linecap="round" stroke-linejoin="round"/>
<rect x="407" y="206.5" width="51" height="5" rx="2" fill="#D1D5DB"/>
<rect x="407" y="215.5" width="35" height="4" rx="2" fill="#6B7280"/>
<rect x="407" y="227.5" width="88" height="4" rx="2" fill="#6B7280"/>
<rect x="407" y="235.5" width="79" height="4" rx="2" fill="#6B7280"/>
<rect x="407" y="243.5" width="83" height="4" rx="2" fill="#6B7280"/>
<path d="M413.683 262.969L413.888 261.621H412.584V260.742C412.584 260.361 412.76 260.01 413.346 260.01H413.946V258.853C413.946 258.853 413.404 258.75 412.892 258.75C411.822 258.75 411.119 259.409 411.119 260.581V261.621H409.918V262.969H411.119V266.25H412.584V262.969H413.683Z" fill="#6B7280"/>
<path d="M428.974 261.092C429.267 260.873 429.53 260.609 429.735 260.301C429.472 260.418 429.164 260.506 428.856 260.536C429.179 260.345 429.413 260.052 429.53 259.686C429.237 259.862 428.9 259.994 428.563 260.067C428.271 259.759 427.875 259.583 427.436 259.583C426.586 259.583 425.897 260.272 425.897 261.122C425.897 261.239 425.912 261.356 425.941 261.473C424.667 261.4 423.524 260.785 422.763 259.862C422.631 260.082 422.558 260.345 422.558 260.638C422.558 261.166 422.821 261.634 423.246 261.913C422.997 261.898 422.748 261.839 422.543 261.722V261.737C422.543 262.484 423.07 263.099 423.773 263.246C423.656 263.275 423.51 263.304 423.378 263.304C423.275 263.304 423.187 263.29 423.085 263.275C423.275 263.89 423.847 264.33 424.521 264.344C423.993 264.754 423.334 265.003 422.616 265.003C422.484 265.003 422.367 264.989 422.25 264.974C422.924 265.414 423.729 265.663 424.608 265.663C427.436 265.663 428.974 263.333 428.974 261.297C428.974 261.224 428.974 261.166 428.974 261.092Z" fill="#6B7280"/>
<path d="M439.883 258.75C437.876 258.75 436.25 260.391 436.25 262.383C436.25 264.39 437.876 266.016 439.883 266.016C441.875 266.016 443.516 264.39 443.516 262.383C443.516 260.391 441.875 258.75 439.883 258.75ZM442.271 260.435C442.71 260.962 442.974 261.636 442.974 262.368C442.871 262.339 441.846 262.134 440.82 262.266C440.732 262.061 440.659 261.885 440.542 261.65C441.699 261.182 442.212 260.522 442.271 260.435ZM441.934 260.068C441.875 260.156 441.406 260.786 440.308 261.196C439.795 260.259 439.238 259.497 439.15 259.38C440.132 259.146 441.172 259.395 441.934 260.068ZM438.55 259.585C438.638 259.702 439.194 260.464 439.707 261.387C438.257 261.768 436.982 261.768 436.836 261.753C437.041 260.801 437.686 259.995 438.55 259.585ZM436.777 262.397C436.777 262.368 436.777 262.339 436.777 262.295C436.909 262.31 438.418 262.324 439.956 261.855C440.059 262.031 440.132 262.207 440.22 262.383C439.092 262.705 438.066 263.613 437.568 264.463C437.07 263.921 436.777 263.188 436.777 262.397ZM437.964 264.844C438.301 264.185 439.18 263.32 440.425 262.896C440.864 264.023 441.04 264.976 441.084 265.254C440.088 265.679 438.887 265.562 437.964 264.844ZM441.611 264.961C441.582 264.785 441.406 263.877 441.011 262.749C441.978 262.603 442.827 262.852 442.944 262.881C442.798 263.745 442.3 264.492 441.611 264.961Z" fill="#6B7280"/>
<path d="M452.667 264.463C452.667 264.434 452.638 264.404 452.594 264.404C452.55 264.404 452.521 264.434 452.521 264.463C452.521 264.492 452.55 264.521 452.594 264.507C452.638 264.507 452.667 264.492 452.667 264.463ZM452.213 264.39C452.213 264.419 452.242 264.463 452.286 264.463C452.315 264.478 452.359 264.463 452.374 264.434C452.374 264.404 452.359 264.375 452.315 264.36C452.271 264.346 452.228 264.36 452.213 264.39ZM452.872 264.375C452.828 264.375 452.799 264.404 452.799 264.448C452.799 264.478 452.843 264.492 452.887 264.478C452.931 264.463 452.96 264.448 452.945 264.419C452.945 264.39 452.901 264.36 452.872 264.375ZM453.824 258.75C451.803 258.75 450.25 260.303 450.25 262.324C450.25 263.95 451.261 265.342 452.726 265.84C452.916 265.869 452.975 265.752 452.975 265.664C452.975 265.562 452.975 265.063 452.975 264.756C452.975 264.756 451.949 264.976 451.729 264.316C451.729 264.316 451.568 263.892 451.334 263.789C451.334 263.789 450.997 263.555 451.349 263.555C451.349 263.555 451.715 263.584 451.92 263.936C452.242 264.507 452.77 264.346 452.989 264.243C453.019 264.009 453.106 263.848 453.224 263.745C452.403 263.657 451.568 263.54 451.568 262.134C451.568 261.724 451.686 261.533 451.92 261.27C451.876 261.167 451.759 260.786 451.964 260.273C452.257 260.186 452.975 260.669 452.975 260.669C453.268 260.581 453.575 260.552 453.883 260.552C454.205 260.552 454.513 260.581 454.806 260.669C454.806 260.669 455.509 260.171 455.816 260.273C456.021 260.786 455.89 261.167 455.86 261.27C456.095 261.533 456.241 261.724 456.241 262.134C456.241 263.54 455.377 263.657 454.557 263.745C454.688 263.862 454.806 264.082 454.806 264.434C454.806 264.917 454.791 265.532 454.791 265.649C454.791 265.752 454.864 265.869 455.055 265.825C456.52 265.342 457.516 263.95 457.516 262.324C457.516 260.303 455.86 258.75 453.824 258.75ZM451.671 263.804C451.642 263.818 451.656 263.862 451.671 263.892C451.7 263.906 451.729 263.921 451.759 263.906C451.773 263.892 451.773 263.848 451.744 263.818C451.715 263.804 451.686 263.789 451.671 263.804ZM451.51 263.687C451.495 263.716 451.51 263.73 451.539 263.745C451.568 263.76 451.598 263.76 451.612 263.73C451.612 263.716 451.598 263.701 451.568 263.687C451.539 263.672 451.524 263.672 451.51 263.687ZM451.979 264.214C451.964 264.229 451.964 264.272 452.008 264.302C452.037 264.331 452.081 264.346 452.096 264.316C452.11 264.302 452.11 264.258 452.081 264.229C452.052 264.199 452.008 264.185 451.979 264.214ZM451.817 263.994C451.788 264.009 451.788 264.053 451.817 264.082C451.847 264.111 451.876 264.126 451.905 264.111C451.92 264.097 451.92 264.053 451.905 264.023C451.876 263.994 451.847 263.979 451.817 263.994Z" fill="#6B7280"/>
<rect x="399.5" y="141" width="112" height="134" rx="4.5" stroke="#374151"/>
</svg>
