<svg width="536" height="345" viewBox="0 0 536 345" fill="none" xmlns="http://www.w3.org/2000/svg">
<rect x="190.562" y="100" width="154.876" height="9" rx="4.5" fill="#6B7280"/>
<rect x="86" y="141" width="364" height="6" rx="3" fill="#D1D5DB"/>
<rect x="110.5" y="153" width="315" height="6" rx="3" fill="#D1D5DB"/>
<rect x="87.5" y="165" width="361" height="6" rx="3" fill="#D1D5DB"/>
<rect x="95.5" y="177" width="345" height="6" rx="3" fill="#D1D5DB"/>
<path fill-rule="evenodd" clip-rule="evenodd" d="M191.902 203C191.902 204.697 191.227 206.325 190.027 207.526C188.827 208.726 187.199 209.4 185.502 209.4C183.804 209.4 182.176 208.726 180.976 207.526C179.776 206.325 179.102 204.697 179.102 203C179.102 201.303 179.776 199.675 180.976 198.475C182.176 197.274 183.804 196.6 185.502 196.6C187.199 196.6 188.827 197.274 190.027 198.475C191.227 199.675 191.902 201.303 191.902 203V203ZM187.102 200.6C187.102 201.024 186.933 201.431 186.633 201.731C186.333 202.032 185.926 202.2 185.502 202.2C185.077 202.2 184.67 202.032 184.37 201.731C184.07 201.431 183.902 201.024 183.902 200.6C183.902 200.176 184.07 199.769 184.37 199.469C184.67 199.169 185.077 199 185.502 199C185.926 199 186.333 199.169 186.633 199.469C186.933 199.769 187.102 200.176 187.102 200.6V200.6ZM185.502 203.8C184.736 203.8 183.986 204.02 183.341 204.433C182.696 204.847 182.184 205.437 181.865 206.133C182.315 206.657 182.873 207.077 183.501 207.364C184.128 207.652 184.811 207.801 185.502 207.8C186.192 207.801 186.875 207.652 187.502 207.364C188.13 207.077 188.688 206.657 189.138 206.133C188.819 205.437 188.307 204.847 187.662 204.433C187.017 204.02 186.267 203.8 185.502 203.8V203.8Z" fill="#9CA3AF"/>
<rect x="198.5" y="200" width="48" height="6" rx="3" fill="#9CA3AF"/>
<path d="M264.307 196.818L260.557 210.75H258.756L262.506 196.818H264.307Z" fill="#D1D5DB"/>
<rect x="277.5" y="200" width="81" height="6" rx="3" fill="#D1D5DB"/>
<path fill-rule="evenodd" clip-rule="evenodd" d="M253.32 239.972C253.142 240.15 252.9 240.25 252.648 240.25C252.396 240.25 252.155 240.15 251.977 239.972L248.177 236.172C247.998 235.994 247.898 235.752 247.898 235.5C247.898 235.248 247.998 235.007 248.177 234.828L251.977 231.028C252.156 230.855 252.396 230.76 252.645 230.762C252.894 230.764 253.132 230.864 253.308 231.04C253.484 231.216 253.584 231.454 253.587 231.703C253.589 231.953 253.493 232.193 253.32 232.372L251.142 234.55H262.148C262.4 234.55 262.642 234.65 262.82 234.828C262.998 235.006 263.098 235.248 263.098 235.5C263.098 235.752 262.998 235.994 262.82 236.172C262.642 236.35 262.4 236.45 262.148 236.45H251.142L253.32 238.628C253.498 238.807 253.598 239.048 253.598 239.3C253.598 239.552 253.498 239.794 253.32 239.972Z" fill="#9CA3AF"/>
<path fill-rule="evenodd" clip-rule="evenodd" d="M282.677 231.028C282.855 230.85 283.097 230.75 283.348 230.75C283.6 230.75 283.842 230.85 284.02 231.028L287.82 234.828C287.998 235.007 288.098 235.248 288.098 235.5C288.098 235.752 287.998 235.994 287.82 236.172L284.02 239.972C283.841 240.145 283.601 240.24 283.352 240.238C283.103 240.236 282.864 240.136 282.688 239.96C282.512 239.784 282.412 239.546 282.41 239.297C282.408 239.048 282.504 238.808 282.677 238.628L284.855 236.45H273.848C273.596 236.45 273.355 236.35 273.177 236.172C272.999 235.994 272.898 235.752 272.898 235.5C272.898 235.248 272.999 235.006 273.177 234.828C273.355 234.65 273.596 234.55 273.848 234.55H284.855L282.677 232.372C282.499 232.194 282.399 231.952 282.399 231.7C282.399 231.448 282.499 231.207 282.677 231.028V231.028Z" fill="#9CA3AF"/>
</svg>
