<svg width="536" height="345" viewBox="0 0 536 345" fill="none" xmlns="http://www.w3.org/2000/svg">
<g clip-path="url(#clip0_2950_6057)">
<rect x="24" y="16" width="178" height="313" rx="5" fill="#374151"/>
<path fill-rule="evenodd" clip-rule="evenodd" d="M123.844 164.676C125.868 164.676 127.509 162.958 127.509 160.838C127.509 158.718 125.868 157 123.844 157C121.82 157 120.179 158.718 120.179 160.838C120.179 162.958 121.82 164.676 123.844 164.676ZM113.7 187.916H91.5445C90.7673 187.916 90.2871 187.069 90.687 186.402L105.803 161.203C106.185 160.566 107.101 160.549 107.5 161.176C109.458 164.257 114.383 172.018 118.573 178.713L123.117 171.092C123.485 170.476 124.348 170.456 124.757 171.054L135.22 186.333C135.678 187.003 135.232 187.921 134.443 187.929L124.29 188.032L113.7 187.916Z" fill="#6B7280"/>
<path d="M255.459 69.8182V80H253.003V72.1151H252.943L250.666 73.5071V71.3793L253.177 69.8182H255.459Z" fill="#6B7280"/>
<rect x="237" y="87" width="33" height="3" rx="1.5" fill="#9CA3AF"/>
<line x1="288" y1="76.5" x2="308" y2="76.5" stroke="#4B5563"/>
<path d="M338.751 80V78.2301L342.464 74.9787C342.743 74.7268 342.98 74.4964 343.175 74.2876C343.371 74.0755 343.52 73.8634 343.623 73.6513C343.726 73.4358 343.777 73.2022 343.777 72.9503C343.777 72.6686 343.716 72.4283 343.593 72.2294C343.47 72.0272 343.301 71.8714 343.086 71.7621C342.871 71.6527 342.624 71.598 342.345 71.598C342.063 71.598 341.817 71.656 341.604 71.772C341.392 71.8847 341.227 72.0488 341.107 72.2642C340.991 72.4796 340.933 72.7415 340.933 73.0497H338.602C338.602 72.357 338.757 71.7588 339.069 71.255C339.38 70.7512 339.818 70.3634 340.381 70.0916C340.948 69.8165 341.606 69.679 342.355 69.679C343.127 69.679 343.799 69.8082 344.369 70.0668C344.939 70.3253 345.379 70.6866 345.691 71.1506C346.006 71.6113 346.163 72.1465 346.163 72.7564C346.163 73.1442 346.085 73.5286 345.93 73.9098C345.774 74.291 345.494 74.7119 345.089 75.1726C344.688 75.6333 344.118 76.1851 343.379 76.8281L342.161 77.9517V78.0163H346.288V80H338.751Z" fill="#6B7280"/>
<rect x="326" y="87" width="33" height="3" rx="1.5" fill="#9CA3AF"/>
<line x1="377" y1="76.5" x2="397" y2="76.5" stroke="#4B5563"/>
<path d="M431.124 80.1392C430.348 80.1392 429.66 80.0066 429.06 79.7415C428.464 79.473 427.993 79.1035 427.648 78.6328C427.304 78.1622 427.128 77.6203 427.121 77.0071H429.597C429.607 77.2292 429.679 77.4264 429.811 77.5987C429.944 77.7678 430.124 77.9003 430.353 77.9964C430.582 78.0926 430.842 78.1406 431.134 78.1406C431.425 78.1406 431.682 78.0893 431.904 77.9865C432.129 77.8804 432.305 77.7363 432.431 77.554C432.557 77.3684 432.618 77.1562 432.615 76.9176C432.618 76.679 432.55 76.4669 432.411 76.2812C432.272 76.0956 432.075 75.9515 431.82 75.8487C431.568 75.746 431.269 75.6946 430.925 75.6946H429.935V73.9446H430.925C431.226 73.9446 431.491 73.8949 431.72 73.7955C431.952 73.696 432.133 73.5568 432.262 73.3778C432.391 73.1955 432.454 72.9867 432.451 72.7514C432.454 72.5227 432.4 72.3222 432.287 72.1499C432.178 71.9742 432.023 71.8383 431.825 71.7422C431.629 71.6461 431.402 71.598 431.143 71.598C430.872 71.598 430.625 71.6461 430.403 71.7422C430.184 71.8383 430.01 71.9742 429.881 72.1499C429.751 72.3255 429.683 72.5294 429.677 72.7614H427.325C427.332 72.1548 427.501 71.6212 427.832 71.1605C428.164 70.6965 428.615 70.3336 429.185 70.0717C429.758 69.8099 430.411 69.679 431.143 69.679C431.873 69.679 432.514 69.8066 433.067 70.0618C433.621 70.317 434.052 70.665 434.36 71.1058C434.668 71.5433 434.822 72.0388 434.822 72.5923C434.826 73.1657 434.638 73.638 434.261 74.0092C433.886 74.3804 433.404 74.6091 432.814 74.6953V74.7749C433.603 74.8677 434.198 75.1229 434.599 75.5405C435.003 75.9581 435.204 76.4801 435.2 77.1065C435.2 77.6965 435.026 78.2202 434.678 78.6776C434.334 79.1316 433.853 79.4896 433.237 79.7514C432.623 80.0099 431.919 80.1392 431.124 80.1392Z" fill="#6B7280"/>
<rect x="415" y="87" width="33" height="3" rx="1.5" fill="#9CA3AF"/>
<rect x="237" y="114" width="51" height="3" rx="1.5" fill="#9CA3AF"/>
<rect x="236.5" y="124.5" width="125" height="17" rx="4.5" fill="#374151"/>
<rect x="244" y="132" width="56" height="2" rx="1" fill="#6B7280"/>
<rect x="236.5" y="124.5" width="125" height="17" rx="4.5" stroke="#4B5563"/>
<rect x="377" y="114" width="51" height="3" rx="1.5" fill="#9CA3AF"/>
<rect x="376.5" y="124.5" width="125" height="17" rx="4.5" fill="#374151"/>
<rect x="384" y="132" width="56" height="2" rx="1" fill="#6B7280"/>
<rect x="376.5" y="124.5" width="125" height="17" rx="4.5" stroke="#4B5563"/>
<rect x="237" y="155" width="51" height="3" rx="1.5" fill="#9CA3AF"/>
<rect x="236.5" y="165.5" width="125" height="17" rx="4.5" fill="#374151"/>
<rect x="244" y="173" width="56" height="2" rx="1" fill="#6B7280"/>
<rect x="236.5" y="165.5" width="125" height="17" rx="4.5" stroke="#4B5563"/>
<rect x="377" y="155" width="51" height="3" rx="1.5" fill="#9CA3AF"/>
<rect x="376.5" y="165.5" width="125" height="17" rx="4.5" fill="#374151"/>
<rect x="384" y="173" width="56" height="2" rx="1" fill="#6B7280"/>
<rect x="376.5" y="165.5" width="125" height="17" rx="4.5" stroke="#4B5563"/>
<rect x="237" y="196" width="51" height="3" rx="1.5" fill="#9CA3AF"/>
<rect x="236.5" y="206.5" width="125" height="17" rx="4.5" fill="#374151"/>
<rect x="244" y="214" width="56" height="2" rx="1" fill="#6B7280"/>
<rect x="236.5" y="206.5" width="125" height="17" rx="4.5" stroke="#4B5563"/>
<rect x="377" y="196" width="51" height="3" rx="1.5" fill="#9CA3AF"/>
<rect x="376.5" y="206.5" width="125" height="17" rx="4.5" fill="#374151"/>
<rect x="384" y="214" width="56" height="2" rx="1" fill="#6B7280"/>
<rect x="376.5" y="206.5" width="125" height="17" rx="4.5" stroke="#4B5563"/>
<rect x="236.5" y="240.5" width="6" height="6" rx="1.5" fill="#374151"/>
<rect x="236.5" y="240.5" width="6" height="6" rx="1.5" stroke="#4B5563"/>
<rect x="247" y="241.5" width="136" height="4" rx="2" fill="#4B5563"/>
<rect x="236.5" y="263.5" width="127" height="18" rx="2.5" fill="#111928"/>
<rect x="268" y="271" width="64" height="3" rx="1" fill="#6B7280"/>
<rect x="236.5" y="263.5" width="127" height="18" rx="2.5" stroke="#4B5563"/>
<rect x="375" y="264" width="126" height="17" rx="2" fill="#1A56DB"/>
<rect x="409.5" y="271" width="57" height="3" rx="1" fill="white"/>
</g>
<defs>
<clipPath id="clip0_2950_6057">
<rect width="536" height="345" fill="white"/>
</clipPath>
</defs>
</svg>
