<?xml version="1.0" encoding="UTF-8" standalone="no"?>
<svg
   version="1.0"
   width="71.250023pt"
   height="49.499996pt"
   viewBox="0 0 71.250023 49.499996"
   preserveAspectRatio="xMidYMid meet"
   id="svg15"
   sodipodi:docname="flowbite-svelte-logo-95x66.svg"
   inkscape:version="1.1.2 (b8e25be8, 2022-02-05)"
   xmlns:inkscape="http://www.inkscape.org/namespaces/inkscape"
   xmlns:sodipodi="http://sodipodi.sourceforge.net/DTD/sodipodi-0.dtd"
   xmlns="http://www.w3.org/2000/svg"
   xmlns:svg="http://www.w3.org/2000/svg">
  <defs
     id="defs19" />
  <sodipodi:namedview
     id="namedview17"
     pagecolor="#ffffff"
     bordercolor="#666666"
     borderopacity="1.0"
     inkscape:pageshadow="2"
     inkscape:pageopacity="0.0"
     inkscape:pagecheckerboard="0"
     inkscape:document-units="pt"
     showgrid="false"
     inkscape:zoom="1.5234375"
     inkscape:cx="156.55385"
     inkscape:cy="195.93846"
     inkscape:window-width="1312"
     inkscape:window-height="969"
     inkscape:window-x="86"
     inkscape:window-y="26"
     inkscape:window-maximized="0"
     inkscape:current-layer="svg15" />
  <g
     transform="matrix(0.01673265,0,0,-0.01674968,-0.5019795,51.440594)"
     fill="#000000"
     stroke="none"
     id="g13"
     style="fill:#0092ff;fill-opacity:1">
    <path
       d="m 4069,3033 c -19,-21 -52,-62 -74,-91 -21,-28 -43,-52 -47,-52 -5,0 -53,22 -108,50 -185,93 -380,130 -582,111 -245,-24 -401,-93 -554,-245 -123,-123 -196,-265 -223,-436 -40,-247 50,-497 234,-649 112,-93 225,-143 537,-241 525,-164 684,-244 753,-380 78,-153 75,-381 -6,-546 -120,-243 -381,-386 -678,-371 -130,6 -199,24 -316,81 -248,122 -399,306 -505,616 -26,77 -40,106 -54,108 -10,2 -22,-2 -27,-10 -5,-7 -9,-194 -9,-415 0,-352 2,-404 16,-417 8,-9 19,-16 23,-16 13,0 57,53 125,152 37,54 70,100 74,102 4,2 39,-20 77,-50 92,-72 286,-167 400,-196 76,-19 114,-23 245,-22 139,0 164,3 245,28 423,128 693,521 672,976 -10,226 -75,389 -207,520 -118,119 -209,160 -555,251 -232,61 -464,138 -564,186 -174,83 -263,258 -234,459 31,212 196,376 433,429 107,24 283,22 383,-4 210,-55 381,-210 466,-422 27,-67 45,-130 68,-244 7,-34 13,-40 33,-40 h 25 v 405 c 0,453 1,448 -66,373 z"
       id="path9"
       style="fill:#0092ff;fill-opacity:1" />
    <path
       d="m 30,2980 v -30 H 210 390 V 1600 250 H 210 30 v -30 -30 h 560 560 v 30 30 H 970 790 v 696 695 l 223,-3 c 220,-3 222,-3 268,-30 73,-43 113,-113 139,-244 30,-154 59,-206 74,-133 3,17 6,217 6,444 0,227 -3,427 -6,444 -4,17 -13,31 -20,31 -14,0 -23,-25 -54,-163 -11,-48 -30,-110 -41,-138 -25,-57 -85,-114 -138,-130 -20,-6 -129,-13 -243,-16 l -208,-5 v 626 626 h 328 c 180,0 356,-5 391,-10 86,-15 165,-57 233,-127 115,-119 179,-279 203,-510 7,-66 26,-96 48,-74 14,14 18,676 4,724 -16,59 13,57 -1022,57 H 30 Z"
       id="path11"
       style="fill:#0092ff;fill-opacity:1" />
  </g>
</svg>
