<svg width="350" height="230" viewBox="0 0 350 230" fill="none" xmlns="http://www.w3.org/2000/svg">
<g filter="url(#filter0_dd_1864_2045)">
<rect x="11" y="11" width="327" height="208" rx="8" fill="white"/>
<rect x="23" y="25.5" width="76" height="10" rx="3" fill="#E5E7EB"/>
<path d="M322.069 34.4229C322.116 34.4671 322.178 34.4915 322.243 34.4909C322.308 34.4903 322.371 34.464 322.418 34.4177C322.464 34.3713 322.49 34.3086 322.491 34.2431C322.491 34.1786 322.467 34.1164 322.423 34.0695L319.207 30.8537L318.853 30.5001L319.207 30.1466L322.427 26.9268L322.433 26.9207L322.433 26.9207C322.457 26.8977 322.476 26.8701 322.489 26.8396C322.502 26.8091 322.509 26.7763 322.509 26.7431C322.509 26.7099 322.503 26.677 322.491 26.6462C322.478 26.6155 322.459 26.5876 322.436 26.5641C322.412 26.5407 322.385 26.5221 322.354 26.5095C322.323 26.497 322.29 26.4906 322.257 26.4909C322.224 26.4912 322.191 26.4981 322.161 26.5112C322.13 26.5243 322.102 26.5434 322.079 26.5672L322.073 26.5735L322.073 26.5734L318.854 29.7932L318.5 30.1467L318.146 29.7932L314.927 26.5735C314.927 26.5735 314.927 26.5734 314.927 26.5734C314.88 26.5266 314.816 26.5003 314.75 26.5003C314.684 26.5003 314.62 26.5266 314.573 26.5734C314.573 26.5734 314.573 26.5734 314.573 26.5735M322.069 34.4229L314.573 26.5735M322.069 34.4229L318.854 31.2071L318.5 30.8535L318.146 31.2071L314.931 34.4229C314.884 34.4671 314.821 34.4915 314.757 34.4909C314.691 34.4903 314.629 34.464 314.582 34.4177C314.536 34.3713 314.51 34.3086 314.509 34.2431C314.509 34.1786 314.533 34.1164 314.577 34.0695L317.793 30.8537L318.147 30.5001L317.793 30.1466L314.573 26.9269M322.069 34.4229L314.573 26.9269M314.573 26.5735C314.526 26.6204 314.5 26.6839 314.5 26.7501C314.5 26.8164 314.526 26.8799 314.573 26.9268M314.573 26.5735L314.573 26.9268M314.573 26.9268C314.573 26.9268 314.573 26.9269 314.573 26.9269M314.573 26.9268L314.573 26.9269" fill="#A1A1AA" stroke="#9CA3AF"/>
<line x1="11" y1="49.5" x2="338" y2="49.5" stroke="#E4E4E7"/>
<rect x="11" y="50" width="327" height="126" rx="8" fill="white"/>
<rect x="23" y="74" width="303" height="10" rx="3" fill="#E5E7EB"/>
<rect x="23" y="96" width="303" height="10" rx="3" fill="#E5E7EB"/>
<rect x="23" y="118" width="269" height="10" rx="3" fill="#E5E7EB"/>
<rect x="23" y="142" width="157" height="10" rx="3" fill="#E5E7EB"/>
<line x1="11" y1="175.5" x2="338" y2="175.5" stroke="#E4E4E7"/>
<rect x="232" y="188" width="41" height="19" rx="2" fill="#1A56DB"/>
<rect x="285" y="188" width="41" height="19" rx="2" fill="#D1D5DB"/>
<rect x="10.5" y="10.5" width="328" height="209" rx="8.5" stroke="#D1D5DB"/>
</g>
<defs>
<filter id="filter0_dd_1864_2045" x="4" y="8" width="341" height="222" filterUnits="userSpaceOnUse" color-interpolation-filters="sRGB">
<feFlood flood-opacity="0" result="BackgroundImageFix"/>
<feColorMatrix in="SourceAlpha" type="matrix" values="0 0 0 0 0 0 0 0 0 0 0 0 0 0 0 0 0 0 127 0" result="hardAlpha"/>
<feOffset dy="4"/>
<feGaussianBlur stdDeviation="3"/>
<feColorMatrix type="matrix" values="0 0 0 0 0 0 0 0 0 0 0 0 0 0 0 0 0 0 0.1 0"/>
<feBlend mode="normal" in2="BackgroundImageFix" result="effect1_dropShadow_1864_2045"/>
<feColorMatrix in="SourceAlpha" type="matrix" values="0 0 0 0 0 0 0 0 0 0 0 0 0 0 0 0 0 0 127 0" result="hardAlpha"/>
<feOffset dy="2"/>
<feGaussianBlur stdDeviation="2"/>
<feColorMatrix type="matrix" values="0 0 0 0 0 0 0 0 0 0 0 0 0 0 0 0 0 0 0.06 0"/>
<feBlend mode="normal" in2="effect1_dropShadow_1864_2045" result="effect2_dropShadow_1864_2045"/>
<feBlend mode="normal" in="SourceGraphic" in2="effect2_dropShadow_1864_2045" result="shape"/>
</filter>
</defs>
</svg>
