<svg width="216" height="126" viewBox="0 0 216 126" fill="none" xmlns="http://www.w3.org/2000/svg">
  <path
    d="M8.6441 2.63437C8.9141 1.80547 10.0868 1.80547 10.3559 2.63437L11.3189 5.59717C11.3777 5.77761 11.4921 5.93483 11.6457 6.04636C11.7992 6.1579 11.9841 6.21803 12.1739 6.21817H15.2897C16.1618 6.21817 16.5236 7.33417 15.8189 7.84717L13.2989 9.67777C13.145 9.7894 13.0305 9.94688 12.9716 10.1276C12.9127 10.3084 12.9126 10.5031 12.9713 10.684L13.9343 13.6468C14.2043 14.4757 13.2548 15.166 12.5483 14.653L10.0283 12.8224C9.87459 12.7108 9.6895 12.6507 9.49955 12.6507C9.3096 12.6507 9.12452 12.7108 8.9708 12.8224L6.4508 14.653C5.7452 15.166 4.7966 14.4757 5.0657 13.6468L6.0287 10.684C6.08736 10.5031 6.08725 10.3084 6.0284 10.1276C5.96955 9.94688 5.85497 9.7894 5.7011 9.67777L3.182 7.84807C2.4773 7.33507 2.84 6.21907 3.7112 6.21907H6.8261C7.01604 6.21912 7.20113 6.15907 7.35487 6.04753C7.50861 5.93598 7.62312 5.77866 7.682 5.59807L8.645 2.63527L8.6441 2.63437Z"
    fill="#FACA15"
  />
  <path
    d="M27.6441 2.63437C27.9141 1.80547 29.0868 1.80547 29.3559 2.63437L30.3189 5.59717C30.3777 5.77761 30.4921 5.93483 30.6457 6.04636C30.7992 6.1579 30.9841 6.21803 31.1739 6.21817H34.2897C35.1618 6.21817 35.5236 7.33417 34.8189 7.84717L32.2989 9.67777C32.145 9.7894 32.0305 9.94688 31.9716 10.1276C31.9127 10.3084 31.9126 10.5031 31.9713 10.684L32.9343 13.6468C33.2043 14.4757 32.2548 15.166 31.5483 14.653L29.0283 12.8224C28.8746 12.7108 28.6895 12.6507 28.4995 12.6507C28.3096 12.6507 28.1245 12.7108 27.9708 12.8224L25.4508 14.653C24.7452 15.166 23.7966 14.4757 24.0657 13.6468L25.0287 10.684C25.0874 10.5031 25.0873 10.3084 25.0284 10.1276C24.9695 9.94688 24.855 9.7894 24.7011 9.67777L22.182 7.84807C21.4773 7.33507 21.84 6.21907 22.7112 6.21907H25.8261C26.016 6.21912 26.2011 6.15907 26.3549 6.04753C26.5086 5.93598 26.6231 5.77866 26.682 5.59807L27.645 2.63527L27.6441 2.63437Z"
    fill="#FACA15"
  />
  <path
    d="M46.6441 2.63437C46.9141 1.80547 48.0868 1.80547 48.3559 2.63437L49.3189 5.59717C49.3777 5.77761 49.4921 5.93483 49.6457 6.04636C49.7992 6.1579 49.9841 6.21803 50.1739 6.21817H53.2897C54.1618 6.21817 54.5236 7.33417 53.8189 7.84717L51.2989 9.67777C51.145 9.7894 51.0305 9.94688 50.9716 10.1276C50.9127 10.3084 50.9126 10.5031 50.9713 10.684L51.9343 13.6468C52.2043 14.4757 51.2548 15.166 50.5483 14.653L48.0283 12.8224C47.8746 12.7108 47.6895 12.6507 47.4995 12.6507C47.3096 12.6507 47.1245 12.7108 46.9708 12.8224L44.4508 14.653C43.7452 15.166 42.7966 14.4757 43.0657 13.6468L44.0287 10.684C44.0874 10.5031 44.0873 10.3084 44.0284 10.1276C43.9695 9.94688 43.855 9.7894 43.7011 9.67777L41.182 7.84807C40.4773 7.33507 40.84 6.21907 41.7112 6.21907H44.8261C45.016 6.21912 45.2011 6.15907 45.3549 6.04753C45.5086 5.93598 45.6231 5.77866 45.682 5.59807L46.645 2.63527L46.6441 2.63437Z"
    fill="#FACA15"
  />
  <path
    d="M65.6441 2.63437C65.9141 1.80547 67.0868 1.80547 67.3559 2.63437L68.3189 5.59717C68.3777 5.77761 68.4921 5.93483 68.6457 6.04636C68.7992 6.1579 68.9841 6.21803 69.1739 6.21817H72.2897C73.1618 6.21817 73.5236 7.33417 72.8189 7.84717L70.2989 9.67777C70.145 9.7894 70.0305 9.94688 69.9716 10.1276C69.9128 10.3084 69.9126 10.5031 69.9713 10.684L70.9343 13.6468C71.2043 14.4757 70.2548 15.166 69.5483 14.653L67.0283 12.8224C66.8746 12.7108 66.6895 12.6507 66.4996 12.6507C66.3096 12.6507 66.1245 12.7108 65.9708 12.8224L63.4508 14.653C62.7452 15.166 61.7966 14.4757 62.0657 13.6468L63.0287 10.684C63.0874 10.5031 63.0873 10.3084 63.0284 10.1276C62.9696 9.94688 62.855 9.7894 62.7011 9.67777L60.182 7.84807C59.4773 7.33507 59.84 6.21907 60.7112 6.21907H63.8261C64.016 6.21912 64.2011 6.15907 64.3549 6.04753C64.5086 5.93598 64.6231 5.77866 64.682 5.59807L65.645 2.63527L65.6441 2.63437Z"
    fill="#FACA15"
  />
  <path
    d="M84.6441 2.63437C84.9141 1.80547 86.0868 1.80547 86.3559 2.63437L87.3189 5.59717C87.3777 5.77761 87.4921 5.93483 87.6457 6.04636C87.7992 6.1579 87.9841 6.21803 88.1739 6.21817H91.2897C92.1618 6.21817 92.5236 7.33417 91.8189 7.84717L89.2989 9.67777C89.145 9.7894 89.0305 9.94688 88.9716 10.1276C88.9128 10.3084 88.9126 10.5031 88.9713 10.684L89.9343 13.6468C90.2043 14.4757 89.2548 15.166 88.5483 14.653L86.0283 12.8224C85.8746 12.7108 85.6895 12.6507 85.4996 12.6507C85.3096 12.6507 85.1245 12.7108 84.9708 12.8224L82.4508 14.653C81.7452 15.166 80.7966 14.4757 81.0657 13.6468L82.0287 10.684C82.0874 10.5031 82.0873 10.3084 82.0284 10.1276C81.9696 9.94688 81.855 9.7894 81.7011 9.67777L79.182 7.84807C78.4773 7.33507 78.84 6.21907 79.7112 6.21907H82.8261C83.016 6.21912 83.2011 6.15907 83.3549 6.04753C83.5086 5.93598 83.6231 5.77866 83.682 5.59807L84.645 2.63527L84.6441 2.63437Z"
    fill="#4B5563"
  />
  <path
    d="M8.6441 32.6344C8.9141 31.8055 10.0868 31.8055 10.3559 32.6344L11.3189 35.5972C11.3777 35.7776 11.4921 35.9348 11.6457 36.0464C11.7992 36.1579 11.9841 36.218 12.1739 36.2182H15.2897C16.1618 36.2182 16.5236 37.3342 15.8189 37.8472L13.2989 39.6778C13.145 39.7894 13.0305 39.9469 12.9716 40.1276C12.9127 40.3084 12.9126 40.5031 12.9713 40.684L13.9343 43.6468C14.2043 44.4757 13.2548 45.166 12.5483 44.653L10.0283 42.8224C9.87459 42.7108 9.6895 42.6507 9.49955 42.6507C9.3096 42.6507 9.12452 42.7108 8.9708 42.8224L6.4508 44.653C5.7452 45.166 4.7966 44.4757 5.0657 43.6468L6.0287 40.684C6.08736 40.5031 6.08725 40.3084 6.0284 40.1276C5.96955 39.9469 5.85497 39.7894 5.7011 39.6778L3.182 37.8481C2.4773 37.3351 2.84 36.2191 3.7112 36.2191H6.8261C7.01604 36.2191 7.20113 36.1591 7.35487 36.0475C7.50861 35.936 7.62312 35.7787 7.682 35.5981L8.645 32.6353L8.6441 32.6344Z"
    fill="#FACA15"
  />
  <rect x="21.5" y="37" width="17" height="4" rx="2" fill="#6B7280" />
  <rect x="44.5" y="37" width="36" height="4" rx="2" fill="#9CA3AF" />
  <path
    d="M8.6441 62.6344C8.9141 61.8055 10.0868 61.8055 10.3559 62.6344L11.3189 65.5972C11.3777 65.7776 11.4921 65.9348 11.6457 66.0464C11.7992 66.1579 11.9841 66.218 12.1739 66.2182H15.2897C16.1618 66.2182 16.5236 67.3342 15.8189 67.8472L13.2989 69.6778C13.145 69.7894 13.0305 69.9469 12.9716 70.1276C12.9127 70.3084 12.9126 70.5031 12.9713 70.684L13.9343 73.6468C14.2043 74.4757 13.2548 75.166 12.5483 74.653L10.0283 72.8224C9.87459 72.7108 9.6895 72.6507 9.49955 72.6507C9.3096 72.6507 9.12452 72.7108 8.9708 72.8224L6.4508 74.653C5.7452 75.166 4.7966 74.4757 5.0657 73.6468L6.0287 70.684C6.08736 70.5031 6.08725 70.3084 6.0284 70.1276C5.96955 69.9469 5.85497 69.7894 5.7011 69.6778L3.182 67.8481C2.4773 67.3351 2.84 66.2191 3.7112 66.2191H6.8261C7.01604 66.2191 7.20113 66.1591 7.35487 66.0475C7.50861 65.936 7.62312 65.7787 7.682 65.5981L8.645 62.6353L8.6441 62.6344Z"
    fill="#FACA15"
  />
  <path
    d="M27.6441 62.6344C27.9141 61.8055 29.0868 61.8055 29.3559 62.6344L30.3189 65.5972C30.3777 65.7776 30.4921 65.9348 30.6457 66.0464C30.7992 66.1579 30.9841 66.218 31.1739 66.2182H34.2897C35.1618 66.2182 35.5236 67.3342 34.8189 67.8472L32.2989 69.6778C32.145 69.7894 32.0305 69.9469 31.9716 70.1276C31.9127 70.3084 31.9126 70.5031 31.9713 70.684L32.9343 73.6468C33.2043 74.4757 32.2548 75.166 31.5483 74.653L29.0283 72.8224C28.8746 72.7108 28.6895 72.6507 28.4995 72.6507C28.3096 72.6507 28.1245 72.7108 27.9708 72.8224L25.4508 74.653C24.7452 75.166 23.7966 74.4757 24.0657 73.6468L25.0287 70.684C25.0874 70.5031 25.0873 70.3084 25.0284 70.1276C24.9695 69.9469 24.855 69.7894 24.7011 69.6778L22.182 67.8481C21.4773 67.3351 21.84 66.2191 22.7112 66.2191H25.8261C26.016 66.2191 26.2011 66.1591 26.3549 66.0475C26.5086 65.936 26.6231 65.7787 26.682 65.5981L27.645 62.6353L27.6441 62.6344Z"
    fill="#FACA15"
  />
  <path
    d="M46.6441 62.6344C46.9141 61.8055 48.0868 61.8055 48.3559 62.6344L49.3189 65.5972C49.3777 65.7776 49.4921 65.9348 49.6457 66.0464C49.7992 66.1579 49.9841 66.218 50.1739 66.2182H53.2897C54.1618 66.2182 54.5236 67.3342 53.8189 67.8472L51.2989 69.6778C51.145 69.7894 51.0305 69.9469 50.9716 70.1276C50.9127 70.3084 50.9126 70.5031 50.9713 70.684L51.9343 73.6468C52.2043 74.4757 51.2548 75.166 50.5483 74.653L48.0283 72.8224C47.8746 72.7108 47.6895 72.6507 47.4995 72.6507C47.3096 72.6507 47.1245 72.7108 46.9708 72.8224L44.4508 74.653C43.7452 75.166 42.7966 74.4757 43.0657 73.6468L44.0287 70.684C44.0874 70.5031 44.0873 70.3084 44.0284 70.1276C43.9695 69.9469 43.855 69.7894 43.7011 69.6778L41.182 67.8481C40.4773 67.3351 40.84 66.2191 41.7112 66.2191H44.8261C45.016 66.2191 45.2011 66.1591 45.3549 66.0475C45.5086 65.936 45.6231 65.7787 45.682 65.5981L46.645 62.6353L46.6441 62.6344Z"
    fill="#FACA15"
  />
  <path
    d="M65.6441 62.6344C65.9141 61.8055 67.0868 61.8055 67.3559 62.6344L68.3189 65.5972C68.3777 65.7776 68.4921 65.9348 68.6457 66.0464C68.7992 66.1579 68.9841 66.218 69.1739 66.2182H72.2897C73.1618 66.2182 73.5236 67.3342 72.8189 67.8472L70.2989 69.6778C70.145 69.7894 70.0305 69.9469 69.9716 70.1276C69.9128 70.3084 69.9126 70.5031 69.9713 70.684L70.9343 73.6468C71.2043 74.4757 70.2548 75.166 69.5483 74.653L67.0283 72.8224C66.8746 72.7108 66.6895 72.6507 66.4996 72.6507C66.3096 72.6507 66.1245 72.7108 65.9708 72.8224L63.4508 74.653C62.7452 75.166 61.7966 74.4757 62.0657 73.6468L63.0287 70.684C63.0874 70.5031 63.0873 70.3084 63.0284 70.1276C62.9696 69.9469 62.855 69.7894 62.7011 69.6778L60.182 67.8481C59.4773 67.3351 59.84 66.2191 60.7112 66.2191H63.8261C64.016 66.2191 64.2011 66.1591 64.3549 66.0475C64.5086 65.936 64.6231 65.7787 64.682 65.5981L65.645 62.6353L65.6441 62.6344Z"
    fill="#FACA15"
  />
  <path
    d="M84.6441 62.6344C84.9141 61.8055 86.0868 61.8055 86.3559 62.6344L87.3189 65.5972C87.3777 65.7776 87.4921 65.9348 87.6457 66.0464C87.7992 66.1579 87.9841 66.218 88.1739 66.2182H91.2897C92.1618 66.2182 92.5236 67.3342 91.8189 67.8472L89.2989 69.6778C89.145 69.7894 89.0305 69.9469 88.9716 70.1276C88.9128 70.3084 88.9126 70.5031 88.9713 70.684L89.9343 73.6468C90.2043 74.4757 89.2548 75.166 88.5483 74.653L86.0283 72.8224C85.8746 72.7108 85.6895 72.6507 85.4996 72.6507C85.3096 72.6507 85.1245 72.7108 84.9708 72.8224L82.4508 74.653C81.7452 75.166 80.7966 74.4757 81.0657 73.6468L82.0287 70.684C82.0874 70.5031 82.0873 70.3084 82.0284 70.1276C81.9696 69.9469 81.855 69.7894 81.7011 69.6778L79.182 67.8481C78.4773 67.3351 78.84 66.2191 79.7112 66.2191H82.8261C83.016 66.2191 83.2011 66.1591 83.3549 66.0475C83.5086 65.936 83.6231 65.7787 83.682 65.5981L84.645 62.6353L84.6441 62.6344Z"
    fill="#FACA15"
  />
  <rect x="97.5" y="67" width="17" height="4" rx="2" fill="#6B7280" />
  <rect x="120.5" y="67" width="36" height="4" rx="2" fill="#9CA3AF" />
  <rect x="0.5" y="86" width="17" height="4" rx="2" fill="#9CA3AF" />
  <rect x="23.5" y="86" width="169" height="4" rx="2" fill="#6B7280" />
  <rect x="198.5" y="86" width="17" height="4" rx="2" fill="#9CA3AF" />
  <rect x="0.5" y="98" width="17" height="4" rx="2" fill="#9CA3AF" />
  <rect x="23.5" y="98" width="169" height="4" rx="2" fill="#6B7280" />
  <rect x="198.5" y="98" width="17" height="4" rx="2" fill="#9CA3AF" />
  <rect x="0.5" y="110" width="17" height="4" rx="2" fill="#9CA3AF" />
  <rect x="23.5" y="110" width="169" height="4" rx="2" fill="#6B7280" />
  <rect x="198.5" y="110" width="17" height="4" rx="2" fill="#9CA3AF" />
  <rect x="0.5" y="122" width="17" height="4" rx="2" fill="#9CA3AF" />
  <rect x="23.5" y="122" width="169" height="4" rx="2" fill="#6B7280" />
  <rect x="198.5" y="122" width="17" height="4" rx="2" fill="#9CA3AF" />
</svg>
