<svg width="82" height="182" viewBox="0 0 82 182" fill="none" xmlns="http://www.w3.org/2000/svg">
    <rect x="0.501953" y="0.75" width="80.9961" height="180.5" rx="1.75" fill="#FAFAFA"/>
    <rect x="12.252" y="12.5" width="33" height="5" rx="1" fill="#9CA3AF"/>
    <rect x="12.252" y="33.5" width="5" height="5" rx="2.5" fill="#9CA3AF"/>
    <rect x="21.252" y="33.5" width="48.4961" height="5" rx="1" fill="#9CA3AF"/>
    <rect x="12.252" y="51.5" width="5" height="5" rx="2.5" fill="#9CA3AF"/>
    <rect x="21.252" y="51.5" width="48.4961" height="5" rx="1" fill="#9CA3AF"/>
    <rect x="12.252" y="69.5" width="5" height="5" rx="2.5" fill="#9CA3AF"/>
    <rect x="21.252" y="69.5" width="48.4961" height="5" rx="1" fill="#9CA3AF"/>
    <rect x="12.252" y="87.5" width="5" height="5" rx="2.5" fill="#9CA3AF"/>
    <rect x="21.252" y="87.5" width="48.4961" height="5" rx="1" fill="#9CA3AF"/>
    <rect x="12.252" y="105.5" width="5" height="5" rx="2.5" fill="#9CA3AF"/>
    <rect x="21.252" y="105.5" width="48.4961" height="5" rx="1" fill="#9CA3AF"/>
    <rect x="21.5" y="164.5" width="5" height="5" rx="2.5" fill="#D1D5DB"/>
    <rect x="38.5" y="164.5" width="5" height="5" rx="2.5" fill="#D1D5DB"/>
    <rect x="55.5" y="164.5" width="5" height="5" rx="2.5" fill="#D1D5DB"/>
    <rect x="0.501953" y="0.75" width="80.9961" height="180.5" rx="1.75" stroke="#E5E7EB" stroke-width="0.5"/>
</svg>
