<svg width="198" height="50" viewBox="0 0 198 50" fill="none" xmlns="http://www.w3.org/2000/svg">
    <rect width="198" height="50" rx="8" fill="#D1D5DB"/>
    <path d="M46 25C46 32.1797 40.1797 38 33 38C25.8203 38 20 32.1797 20 25C20 17.8203 25.8203 12 33 12C40.1797 12 46 17.8203 46 25ZM23.0331 25C23.0331 30.5046 27.4954 34.9669 33 34.9669C38.5046 34.9669 42.9669 30.5046 42.9669 25C42.9669 19.4954 38.5046 15.0331 33 15.0331C27.4954 15.0331 23.0331 19.4954 23.0331 25Z"
          fill="white"/>
    <path d="M44.0984 22.0846C44.913 21.8706 45.4083 21.0321 45.1004 20.2481C44.6644 19.1378 44.0767 18.0906 43.3523 17.1369C42.3197 15.7774 41.0295 14.6346 39.5552 13.7737C38.081 12.9129 36.4516 12.3509 34.7601 12.1197C33.5735 11.9576 32.3727 11.9605 31.1915 12.1264C30.3574 12.2436 29.8706 13.087 30.0846 13.9016C30.2986 14.7163 31.1332 15.1907 31.971 15.1035C32.7599 15.0215 33.5577 15.0339 34.3472 15.1418C35.6418 15.3187 36.8888 15.7489 38.0172 16.4078C39.1455 17.0666 40.1331 17.9413 40.9234 18.9818C41.4053 19.6163 41.8082 20.305 42.1245 21.0324C42.4604 21.8048 43.2837 22.2986 44.0984 22.0846Z"
          fill="#3F83F8"/>
    <rect x="58" y="17" width="120" height="16" rx="4" fill="white"/>
</svg>
