<svg width="234" height="122" viewBox="0 0 234 122" fill="none" xmlns="http://www.w3.org/2000/svg">
    <g filter="url(#filter0_dd_2363_3296)">
        <rect x="3" y="55.5" width="228" height="62" rx="8" fill="#374151"/>
        <path
                d="M23.8333 78.8333H23V75.5H22.1667M23 72.1667H23.0083M30.5 75.5C30.5 76.4849 30.306 77.4602 29.9291 78.3701C29.5522 79.2801 28.9997 80.1069 28.3033 80.8033C27.6069 81.4997 26.7801 82.0522 25.8701 82.4291C24.9602 82.806 23.9849 83 23 83C22.0151 83 21.0398 82.806 20.1299 82.4291C19.2199 82.0522 18.3931 81.4997 17.6967 80.8033C17.0003 80.1069 16.4478 79.2801 16.0709 78.3701C15.694 77.4602 15.5 76.4849 15.5 75.5C15.5 73.5109 16.2902 71.6032 17.6967 70.1967C19.1032 68.7902 21.0109 68 23 68C24.9891 68 26.8968 68.7902 28.3033 70.1967C29.7098 71.6032 30.5 73.5109 30.5 75.5Z"
                stroke="#9CA3AF"
                stroke-width="2"
                stroke-linecap="round"
                stroke-linejoin="round"
        />
        <rect x="41" y="65.5" width="84.6768" height="7" rx="2" fill="#D1D5DB"/>
        <rect x="41" y="80.5" width="150" height="5" rx="2" fill="#9CA3AF"/>
        <rect x="41" y="93.5" width="72.5" height="14" rx="2" fill="#1C64F2"/>
        <rect x="47" y="99" width="60.5" height="3" rx="1.5" fill="white"/>
        <rect x="118.5" y="93.5" width="72.5" height="14" rx="2" fill="#4B5563"/>
        <rect x="124.5" y="99" width="60.5" height="3" rx="1.5" fill="#9CA3AF"/>
        <path
                d="M214 72.2174L213.646 71.8639L210.641 68.8588C210.641 68.8588 210.641 68.8588 210.641 68.8588C210.604 68.8213 210.553 68.8003 210.5 68.8003C210.447 68.8003 210.396 68.8213 210.359 68.8587C210.359 68.8587 210.359 68.8588 210.359 68.8588M214 72.2174L210.359 68.8588M214 72.2174L214.354 71.8639L217.359 68.8588L217.359 68.8588L217.365 68.8526C217.383 68.8335 217.405 68.8182 217.43 68.8077L217.233 68.349L217.43 68.8077C217.454 68.7973 217.48 68.7917 217.507 68.7915C217.533 68.7913 217.56 68.7963 217.584 68.8064C217.609 68.8165 217.631 68.8313 217.65 68.8501L217.65 68.8501C217.669 68.8689 217.684 68.8912 217.694 68.9158C217.704 68.9404 217.709 68.9667 217.709 68.9932C217.708 69.0198 217.703 69.046 217.692 69.0704C217.682 69.0948 217.667 69.1169 217.648 69.1354L217.648 69.1353L217.641 69.1415L214.636 72.1466L214.283 72.5001L214.636 72.8537L217.637 75.8548M214 72.2174L217.637 75.8548M210.359 68.8588C210.321 68.8963 210.3 68.9471 210.3 69.0001C210.3 69.0531 210.321 69.104 210.359 69.1415M210.359 68.8588L210.359 69.1415M210.359 69.1415C210.359 69.1415 210.359 69.1415 210.359 69.1415L213.364 72.1466L213.717 72.5001L213.364 72.8537L210.363 75.8548C210.328 75.8922 210.308 75.9418 210.309 75.9932C210.309 76.0457 210.33 76.0958 210.367 76.1329C210.404 76.17 210.454 76.191 210.507 76.1915C210.558 76.1919 210.608 76.1726 210.645 76.1374L213.646 73.1364L214 72.7828L214.354 73.1364L217.355 76.1374C217.392 76.1726 217.442 76.1919 217.493 76.1915C217.546 76.191 217.596 76.17 217.633 76.1329C217.67 76.0958 217.691 76.0457 217.691 75.9932C217.692 75.9418 217.672 75.8922 217.637 75.8548M210.359 69.1415L217.637 75.8548"
                fill="black"
                stroke="#6B7280"
        />
    </g>
    <g filter="url(#filter1_dd_2363_3296)">
        <rect x="3" y="2.5" width="228" height="40" rx="8" fill="#374151"/>
        <path
                d="M23.8333 25.8333H23V22.5H22.1667M23 19.1667H23.0083M30.5 22.5C30.5 23.4849 30.306 24.4602 29.9291 25.3701C29.5522 26.2801 28.9997 27.1069 28.3033 27.8033C27.6069 28.4997 26.7801 29.0522 25.8701 29.4291C24.9602 29.806 23.9849 30 23 30C22.0151 30 21.0398 29.806 20.1299 29.4291C19.2199 29.0522 18.3931 28.4997 17.6967 27.8033C17.0003 27.1069 16.4478 26.2801 16.0709 25.3701C15.694 24.4602 15.5 23.4849 15.5 22.5C15.5 20.5109 16.2902 18.6032 17.6967 17.1967C19.1032 15.7902 21.0109 15 23 15C24.9891 15 26.8968 15.7902 28.3033 17.1967C29.7098 18.6032 30.5 20.5109 30.5 22.5Z"
                stroke="#9CA3AF"
                stroke-width="2"
                stroke-linecap="round"
                stroke-linejoin="round"
        />
        <rect x="41" y="19" width="150" height="7" rx="2" fill="#9CA3AF"/>
        <path
                d="M214 22.2174L213.646 21.8639L210.641 18.8588C210.641 18.8588 210.641 18.8588 210.641 18.8588C210.604 18.8213 210.553 18.8003 210.5 18.8003C210.447 18.8003 210.396 18.8213 210.359 18.8587C210.359 18.8587 210.359 18.8588 210.359 18.8588M214 22.2174L210.359 18.8588M214 22.2174L214.354 21.8639L217.359 18.8588L217.359 18.8588L217.365 18.8526C217.383 18.8335 217.405 18.8182 217.43 18.8077L217.233 18.349L217.43 18.8077C217.454 18.7973 217.48 18.7917 217.507 18.7915C217.533 18.7913 217.56 18.7963 217.584 18.8064C217.609 18.8165 217.631 18.8313 217.65 18.8501L217.65 18.8501C217.669 18.8689 217.684 18.8912 217.694 18.9158C217.704 18.9404 217.709 18.9667 217.709 18.9932C217.708 19.0198 217.703 19.046 217.692 19.0704C217.682 19.0948 217.667 19.1169 217.648 19.1354L217.648 19.1353L217.641 19.1415L214.636 22.1466L214.283 22.5001L214.636 22.8537L217.637 25.8548M214 22.2174L217.637 25.8548M210.359 18.8588C210.321 18.8963 210.3 18.9471 210.3 19.0001C210.3 19.0531 210.321 19.104 210.359 19.1415M210.359 18.8588L210.359 19.1415M210.359 19.1415C210.359 19.1415 210.359 19.1415 210.359 19.1415L213.364 22.1466L213.717 22.5001L213.364 22.8537L210.363 25.8548C210.328 25.8922 210.308 25.9418 210.309 25.9932C210.309 26.0457 210.33 26.0958 210.367 26.1329C210.404 26.17 210.454 26.191 210.507 26.1915C210.558 26.1919 210.608 26.1726 210.645 26.1374L213.646 23.1364L214 22.7828L214.354 23.1364L217.355 26.1374C217.392 26.1726 217.442 26.1919 217.493 26.1915C217.546 26.191 217.596 26.17 217.633 26.1329C217.67 26.0958 217.691 26.0457 217.691 25.9932C217.692 25.9418 217.672 25.8922 217.637 25.8548M210.359 19.1415L217.637 25.8548"
                fill="black"
                stroke="#6B7280"
        />
    </g>
    <defs>
        <filter
                id="filter0_dd_2363_3296"
                x="0"
                y="53.5"
                width="234"
                height="68"
                filterUnits="userSpaceOnUse"
                color-interpolation-filters="sRGB"
        >
            <feFlood flood-opacity="0" result="BackgroundImageFix"/>
            <feColorMatrix
                    in="SourceAlpha"
                    type="matrix"
                    values="0 0 0 0 0 0 0 0 0 0 0 0 0 0 0 0 0 0 127 0"
                    result="hardAlpha"
            />
            <feOffset dy="1"/>
            <feGaussianBlur stdDeviation="1.5"/>
            <feColorMatrix type="matrix" values="0 0 0 0 0 0 0 0 0 0 0 0 0 0 0 0 0 0 0.1 0"/>
            <feBlend mode="normal" in2="BackgroundImageFix" result="effect1_dropShadow_2363_3296"/>
            <feColorMatrix
                    in="SourceAlpha"
                    type="matrix"
                    values="0 0 0 0 0 0 0 0 0 0 0 0 0 0 0 0 0 0 127 0"
                    result="hardAlpha"
            />
            <feOffset dy="1"/>
            <feGaussianBlur stdDeviation="1"/>
            <feColorMatrix type="matrix" values="0 0 0 0 0 0 0 0 0 0 0 0 0 0 0 0 0 0 0.06 0"/>
            <feBlend mode="normal" in2="effect1_dropShadow_2363_3296" result="effect2_dropShadow_2363_3296"/>
            <feBlend mode="normal" in="SourceGraphic" in2="effect2_dropShadow_2363_3296" result="shape"/>
        </filter>
        <filter
                id="filter1_dd_2363_3296"
                x="0"
                y="0.5"
                width="234"
                height="46"
                filterUnits="userSpaceOnUse"
                color-interpolation-filters="sRGB"
        >
            <feFlood flood-opacity="0" result="BackgroundImageFix"/>
            <feColorMatrix
                    in="SourceAlpha"
                    type="matrix"
                    values="0 0 0 0 0 0 0 0 0 0 0 0 0 0 0 0 0 0 127 0"
                    result="hardAlpha"
            />
            <feOffset dy="1"/>
            <feGaussianBlur stdDeviation="1.5"/>
            <feColorMatrix type="matrix" values="0 0 0 0 0 0 0 0 0 0 0 0 0 0 0 0 0 0 0.1 0"/>
            <feBlend mode="normal" in2="BackgroundImageFix" result="effect1_dropShadow_2363_3296"/>
            <feColorMatrix
                    in="SourceAlpha"
                    type="matrix"
                    values="0 0 0 0 0 0 0 0 0 0 0 0 0 0 0 0 0 0 127 0"
                    result="hardAlpha"
            />
            <feOffset dy="1"/>
            <feGaussianBlur stdDeviation="1"/>
            <feColorMatrix type="matrix" values="0 0 0 0 0 0 0 0 0 0 0 0 0 0 0 0 0 0 0.06 0"/>
            <feBlend mode="normal" in2="effect1_dropShadow_2363_3296" result="effect2_dropShadow_2363_3296"/>
            <feBlend mode="normal" in="SourceGraphic" in2="effect2_dropShadow_2363_3296" result="shape"/>
        </filter>
    </defs>
</svg>
