<svg width="410" height="240" viewBox="0 0 410 240" fill="none" xmlns="http://www.w3.org/2000/svg">
<g filter="url(#filter0_dd_170_150920)">
<g clip-path="url(#clip0_170_150920)">
<rect x="12" y="26" width="386" height="188" rx="8" fill="white"/>
<rect x="33" y="43.5" width="140" height="8" rx="2" fill="#D1D5DB"/>
<path fill-rule="evenodd" clip-rule="evenodd" d="M369.501 49.801C369.341 49.9603 369.125 50.0498 368.9 50.0498C368.674 50.0498 368.458 49.9603 368.299 49.801L365.5 47.0019L362.701 49.801C362.54 49.9558 362.326 50.0415 362.103 50.0395C361.88 50.0376 361.667 49.9482 361.509 49.7906C361.352 49.633 361.262 49.4198 361.26 49.197C361.258 48.9741 361.344 48.7594 361.499 48.5991L364.899 45.1991C365.058 45.0397 365.274 44.9502 365.5 44.9502C365.725 44.9502 365.941 45.0397 366.101 45.1991L369.501 48.5991C369.66 48.7585 369.75 48.9746 369.75 49.2C369.75 49.4254 369.66 49.6416 369.501 49.801Z" fill="#D1D5DB"/>
<rect x="33" y="76" width="331" height="6" rx="1" fill="#E5E7EB"/>
<rect x="33" y="87" width="300.688" height="6" rx="1" fill="#E5E7EB"/>
<rect x="33" y="98" width="315.297" height="6" rx="1" fill="#E5E7EB"/>
<rect x="33" y="109" width="157.066" height="6" rx="1" fill="#E5E7EB"/>
<line x1="12" y1="127.5" x2="398" y2="127.5" stroke="#E4E4E7"/>
<rect x="33" y="145.5" width="99" height="8" rx="2" fill="#D1D5DB"/>
<path fill-rule="evenodd" clip-rule="evenodd" d="M361.499 147.199C361.658 147.04 361.874 146.95 362.1 146.95C362.325 146.95 362.541 147.04 362.701 147.199L365.5 149.998L368.299 147.199C368.377 147.118 368.471 147.053 368.575 147.008C368.678 146.964 368.79 146.94 368.903 146.939C369.016 146.939 369.128 146.96 369.232 147.003C369.337 147.045 369.431 147.109 369.511 147.188C369.591 147.268 369.654 147.363 369.697 147.468C369.74 147.572 369.761 147.684 369.76 147.797C369.759 147.91 369.736 148.021 369.691 148.125C369.647 148.229 369.582 148.322 369.501 148.401L366.101 151.801C365.941 151.96 365.725 152.05 365.5 152.05C365.274 152.05 365.058 151.96 364.899 151.801L361.499 148.401C361.34 148.241 361.25 148.025 361.25 147.8C361.25 147.575 361.34 147.358 361.499 147.199Z" fill="#D1D5DB"/>
<line x1="12" y1="170.5" x2="398" y2="170.5" stroke="#E4E4E7"/>
<line x1="12" y1="170.5" x2="398" y2="170.5" stroke="#E4E4E7"/>
<rect x="33" y="188.5" width="115" height="8" rx="2" fill="#D1D5DB"/>
<path fill-rule="evenodd" clip-rule="evenodd" d="M361.499 190.199C361.658 190.04 361.874 189.95 362.1 189.95C362.325 189.95 362.541 190.04 362.701 190.199L365.5 192.998L368.299 190.199C368.377 190.118 368.471 190.053 368.575 190.008C368.678 189.964 368.79 189.94 368.903 189.939C369.016 189.939 369.128 189.96 369.232 190.003C369.337 190.045 369.431 190.109 369.511 190.188C369.591 190.268 369.654 190.363 369.697 190.468C369.74 190.572 369.761 190.684 369.76 190.797C369.759 190.91 369.736 191.021 369.691 191.125C369.647 191.229 369.582 191.322 369.501 191.401L366.101 194.801C365.941 194.96 365.725 195.05 365.5 195.05C365.274 195.05 365.058 194.96 364.899 194.801L361.499 191.401C361.34 191.241 361.25 191.025 361.25 190.8C361.25 190.575 361.34 190.358 361.499 190.199Z" fill="#D1D5DB"/>
</g>
<rect x="12.5" y="26.5" width="385" height="187" rx="7.5" stroke="#D4D4D8"/>
</g>
<defs>
<filter id="filter0_dd_170_150920" x="6" y="24" width="398" height="200" filterUnits="userSpaceOnUse" color-interpolation-filters="sRGB">
<feFlood flood-opacity="0" result="BackgroundImageFix"/>
<feColorMatrix in="SourceAlpha" type="matrix" values="0 0 0 0 0 0 0 0 0 0 0 0 0 0 0 0 0 0 127 0" result="hardAlpha"/>
<feOffset dy="4"/>
<feGaussianBlur stdDeviation="3"/>
<feColorMatrix type="matrix" values="0 0 0 0 0 0 0 0 0 0 0 0 0 0 0 0 0 0 0.1 0"/>
<feBlend mode="normal" in2="BackgroundImageFix" result="effect1_dropShadow_170_150920"/>
<feColorMatrix in="SourceAlpha" type="matrix" values="0 0 0 0 0 0 0 0 0 0 0 0 0 0 0 0 0 0 127 0" result="hardAlpha"/>
<feOffset dy="2"/>
<feGaussianBlur stdDeviation="2"/>
<feColorMatrix type="matrix" values="0 0 0 0 0 0 0 0 0 0 0 0 0 0 0 0 0 0 0.06 0"/>
<feBlend mode="normal" in2="effect1_dropShadow_170_150920" result="effect2_dropShadow_170_150920"/>
<feBlend mode="normal" in="SourceGraphic" in2="effect2_dropShadow_170_150920" result="shape"/>
</filter>
<clipPath id="clip0_170_150920">
<rect x="12" y="26" width="386" height="188" rx="8" fill="white"/>
</clipPath>
</defs>
</svg>
