<svg width="560" height="240" viewBox="0 0 560 240" fill="none" xmlns="http://www.w3.org/2000/svg">
<rect x="10" y="11" width="539" height="59" rx="16" fill="#374151"/>
<rect x="34" y="34.5" width="491" height="12" rx="2" fill="#EF562F"/>
<rect x="10" y="90" width="539" height="59" rx="16" fill="#374151"/>
<rect x="34" y="113.5" width="258" height="12" rx="2" fill="#EF562F"/>
<path d="M503.963 126.512L517.988 112.488M517.988 126.512L503.963 112.488" stroke="#EF562F" stroke-width="3" stroke-linecap="round" stroke-linejoin="round"/>
<rect x="10" y="169" width="539" height="59" rx="16" fill="#374151"/>
<path d="M47 202.5H46V198.5H45M46 194.5H46.01M55 198.5C55 199.682 54.7672 200.852 54.3149 201.944C53.8626 203.036 53.1997 204.028 52.364 204.864C51.5282 205.7 50.5361 206.363 49.4442 206.815C48.3522 207.267 47.1819 207.5 46 207.5C44.8181 207.5 43.6478 207.267 42.5558 206.815C41.4639 206.363 40.4718 205.7 39.636 204.864C38.8003 204.028 38.1374 203.036 37.6851 201.944C37.2328 200.852 37 199.682 37 198.5C37 196.113 37.9482 193.824 39.636 192.136C41.3239 190.448 43.6131 189.5 46 189.5C48.3869 189.5 50.6761 190.448 52.364 192.136C54.0518 193.824 55 196.113 55 198.5Z" stroke="#EF562F" stroke-width="2" stroke-linecap="round" stroke-linejoin="round"/>
<rect x="74" y="192.5" width="258" height="12" rx="2" fill="#EF562F"/>
<path d="M503.963 205.512L517.988 191.488M517.988 205.512L503.963 191.488" stroke="#EF562F" stroke-width="3" stroke-linecap="round" stroke-linejoin="round"/>
</svg>
