<svg width="410" height="240" viewBox="0 0 410 240" fill="none" xmlns="http://www.w3.org/2000/svg">
<g filter="url(#filter0_d_169_148214)">
<mask id="mask0_169_148214" style="mask-type:alpha" maskUnits="userSpaceOnUse" x="135" y="60" width="30" height="30">
<circle cx="149.576" cy="74.5756" r="14.5756" fill="#E5E7EB"/>
</mask>
<g mask="url(#mask0_169_148214)">
<circle cx="149.576" cy="74.5756" r="14.5756" fill="#F4F4F5"/>
<path fill-rule="evenodd" clip-rule="evenodd" d="M149.575 76.0569C150.811 76.0569 151.995 75.5662 152.869 74.6927C153.742 73.8191 154.233 72.6344 154.233 71.3991C154.233 70.1637 153.742 68.979 152.869 68.1055C151.995 67.2319 150.811 66.7412 149.575 66.7412C148.34 66.7412 147.155 67.2319 146.282 68.1055C145.408 68.979 144.917 70.1637 144.917 71.3991C144.917 72.6344 145.408 73.8191 146.282 74.6927C147.155 75.5662 148.34 76.0569 149.575 76.0569ZM138.707 90.0305C138.707 88.6032 138.988 87.1899 139.534 85.8713C140.081 84.5527 140.881 83.3546 141.89 82.3454C142.9 81.3362 144.098 80.5356 145.416 79.9894C146.735 79.4433 148.148 79.1621 149.575 79.1621C151.003 79.1621 152.416 79.4433 153.734 79.9894C155.053 80.5356 156.251 81.3362 157.26 82.3454C158.27 83.3546 159.07 84.5527 159.616 85.8713C160.163 87.1899 160.444 88.6032 160.444 90.0305H138.707Z" fill="#9CA3AF"/>
</g>
</g>
<g filter="url(#filter1_d_169_148214)">
<rect x="176" y="156.378" width="99" height="6" rx="3" fill="#D1D5DB"/>
<rect x="176" y="168.378" width="65" height="5" rx="2.5" fill="#E5E7EB"/>
<mask id="mask1_169_148214" style="mask-type:alpha" maskUnits="userSpaceOnUse" x="135" y="150" width="30" height="30">
<circle cx="149.576" cy="164.878" r="14.5756" fill="#E5E7EB"/>
</mask>
<g mask="url(#mask1_169_148214)">
<circle cx="149.576" cy="164.878" r="14.5756" fill="#F4F4F5"/>
<path fill-rule="evenodd" clip-rule="evenodd" d="M149.575 166.36C150.811 166.36 151.995 165.869 152.869 164.995C153.742 164.122 154.233 162.937 154.233 161.702C154.233 160.466 153.742 159.282 152.869 158.408C151.995 157.535 150.811 157.044 149.575 157.044C148.34 157.044 147.155 157.535 146.282 158.408C145.408 159.282 144.917 160.466 144.917 161.702C144.917 162.937 145.408 164.122 146.282 164.995C147.155 165.869 148.34 166.36 149.575 166.36ZM138.707 180.333C138.707 178.906 138.988 177.493 139.534 176.174C140.081 174.855 140.881 173.657 141.89 172.648C142.9 171.639 144.098 170.838 145.416 170.292C146.735 169.746 148.148 169.465 149.575 169.465C151.003 169.465 152.416 169.746 153.734 170.292C155.053 170.838 156.251 171.639 157.26 172.648C158.27 173.657 159.07 174.855 159.616 176.174C160.163 177.493 160.444 178.906 160.444 180.333H138.707Z" fill="#9CA3AF"/>
</g>
</g>
<g filter="url(#filter2_d_169_148214)">
<mask id="mask2_169_148214" style="mask-type:alpha" maskUnits="userSpaceOnUse" x="135" y="105" width="30" height="30">
<circle cx="149.576" cy="119.727" r="14.5756" fill="#E5E7EB"/>
</mask>
<g mask="url(#mask2_169_148214)">
<circle cx="149.576" cy="119.727" r="14.5756" fill="#F4F4F5"/>
<path fill-rule="evenodd" clip-rule="evenodd" d="M149.575 121.208C150.811 121.208 151.995 120.718 152.869 119.844C153.742 118.971 154.233 117.786 154.233 116.55C154.233 115.315 153.742 114.13 152.869 113.257C151.995 112.383 150.811 111.893 149.575 111.893C148.34 111.893 147.155 112.383 146.282 113.257C145.408 114.13 144.917 115.315 144.917 116.55C144.917 117.786 145.408 118.971 146.282 119.844C147.155 120.718 148.34 121.208 149.575 121.208ZM138.707 135.182C138.707 133.755 138.988 132.341 139.534 131.023C140.081 129.704 140.881 128.506 141.89 127.497C142.9 126.488 144.098 125.687 145.416 125.141C146.735 124.595 148.148 124.314 149.575 124.314C151.003 124.314 152.416 124.595 153.734 125.141C155.053 125.687 156.251 126.488 157.26 127.497C158.27 128.506 159.07 129.704 159.616 131.023C160.163 132.341 160.444 133.755 160.444 135.182H138.707Z" fill="#9CA3AF"/>
</g>
</g>
<g filter="url(#filter3_d_169_148214)">
<mask id="mask3_169_148214" style="mask-type:alpha" maskUnits="userSpaceOnUse" x="150" y="105" width="30" height="30">
<circle cx="165.151" cy="119.727" r="14.5756" fill="#E5E7EB"/>
</mask>
<g mask="url(#mask3_169_148214)">
<circle cx="165.151" cy="119.727" r="14.5756" fill="#F4F4F5"/>
<path fill-rule="evenodd" clip-rule="evenodd" d="M165.152 121.208C166.387 121.208 167.572 120.718 168.445 119.844C169.319 118.971 169.809 117.786 169.809 116.55C169.809 115.315 169.319 114.13 168.445 113.257C167.572 112.383 166.387 111.893 165.152 111.893C163.916 111.893 162.731 112.383 161.858 113.257C160.984 114.13 160.494 115.315 160.494 116.55C160.494 117.786 160.984 118.971 161.858 119.844C162.731 120.718 163.916 121.208 165.152 121.208ZM154.283 135.182C154.283 133.755 154.564 132.341 155.111 131.023C155.657 129.704 156.457 128.506 157.466 127.497C158.476 126.488 159.674 125.687 160.992 125.141C162.311 124.595 163.724 124.314 165.152 124.314C166.579 124.314 167.992 124.595 169.311 125.141C170.629 125.687 171.827 126.488 172.837 127.497C173.846 128.506 174.646 129.704 175.193 131.023C175.739 132.341 176.02 133.755 176.02 135.182H154.283Z" fill="#9CA3AF"/>
</g>
<rect x="150.076" y="104.651" width="30.1512" height="30.1512" rx="15.0756" stroke="white"/>
</g>
<g filter="url(#filter4_d_169_148214)">
<mask id="mask4_169_148214" style="mask-type:alpha" maskUnits="userSpaceOnUse" x="166" y="105" width="30" height="30">
<circle cx="180.727" cy="119.727" r="14.5756" fill="#E5E7EB"/>
</mask>
<g mask="url(#mask4_169_148214)">
<circle cx="180.727" cy="119.727" r="14.5756" fill="#F4F4F5"/>
<path fill-rule="evenodd" clip-rule="evenodd" d="M180.727 121.208C181.962 121.208 183.147 120.718 184.02 119.844C184.894 118.971 185.385 117.786 185.385 116.55C185.385 115.315 184.894 114.13 184.02 113.257C183.147 112.383 181.962 111.893 180.727 111.893C179.491 111.893 178.307 112.383 177.433 113.257C176.56 114.13 176.069 115.315 176.069 116.55C176.069 117.786 176.56 118.971 177.433 119.844C178.307 120.718 179.491 121.208 180.727 121.208ZM169.858 135.182C169.858 133.755 170.14 132.341 170.686 131.023C171.232 129.704 172.032 128.506 173.042 127.497C174.051 126.488 175.249 125.687 176.568 125.141C177.886 124.595 179.299 124.314 180.727 124.314C182.154 124.314 183.567 124.595 184.886 125.141C186.204 125.687 187.403 126.488 188.412 127.497C189.421 128.506 190.222 129.704 190.768 131.023C191.314 132.341 191.595 133.755 191.595 135.182H169.858Z" fill="#9CA3AF"/>
</g>
<rect x="165.651" y="104.651" width="30.1512" height="30.1512" rx="15.0756" stroke="white"/>
</g>
<g filter="url(#filter5_d_169_148214)">
<mask id="mask5_169_148214" style="mask-type:alpha" maskUnits="userSpaceOnUse" x="181" y="105" width="30" height="30">
<circle cx="196.303" cy="119.727" r="14.5756" fill="#E5E7EB"/>
</mask>
<g mask="url(#mask5_169_148214)">
<circle cx="196.303" cy="119.727" r="14.5756" fill="#F4F4F5"/>
<path fill-rule="evenodd" clip-rule="evenodd" d="M196.303 121.208C197.538 121.208 198.723 120.718 199.596 119.844C200.47 118.971 200.961 117.786 200.961 116.55C200.961 115.315 200.47 114.13 199.596 113.257C198.723 112.383 197.538 111.893 196.303 111.893C195.068 111.893 193.883 112.383 193.009 113.257C192.136 114.13 191.645 115.315 191.645 116.55C191.645 117.786 192.136 118.971 193.009 119.844C193.883 120.718 195.068 121.208 196.303 121.208ZM185.435 135.182C185.435 133.755 185.716 132.341 186.262 131.023C186.808 129.704 187.609 128.506 188.618 127.497C189.627 126.488 190.825 125.687 192.144 125.141C193.462 124.595 194.876 124.314 196.303 124.314C197.73 124.314 199.143 124.595 200.462 125.141C201.781 125.687 202.979 126.488 203.988 127.497C204.997 128.506 205.798 129.704 206.344 131.023C206.89 132.341 207.171 133.755 207.171 135.182H185.435Z" fill="#9CA3AF"/>
</g>
<rect x="181.227" y="104.651" width="30.1512" height="30.1512" rx="15.0756" stroke="white"/>
</g>
<defs>
<filter id="filter0_d_169_148214" x="133" y="59" width="33.1514" height="33.1514" filterUnits="userSpaceOnUse" color-interpolation-filters="sRGB">
<feFlood flood-opacity="0" result="BackgroundImageFix"/>
<feColorMatrix in="SourceAlpha" type="matrix" values="0 0 0 0 0 0 0 0 0 0 0 0 0 0 0 0 0 0 127 0" result="hardAlpha"/>
<feOffset dy="1"/>
<feGaussianBlur stdDeviation="1"/>
<feColorMatrix type="matrix" values="0 0 0 0 0 0 0 0 0 0 0 0 0 0 0 0 0 0 0.08 0"/>
<feBlend mode="normal" in2="BackgroundImageFix" result="effect1_dropShadow_169_148214"/>
<feBlend mode="normal" in="SourceGraphic" in2="effect1_dropShadow_169_148214" result="shape"/>
</filter>
<filter id="filter1_d_169_148214" x="133" y="149.303" width="144" height="33.1514" filterUnits="userSpaceOnUse" color-interpolation-filters="sRGB">
<feFlood flood-opacity="0" result="BackgroundImageFix"/>
<feColorMatrix in="SourceAlpha" type="matrix" values="0 0 0 0 0 0 0 0 0 0 0 0 0 0 0 0 0 0 127 0" result="hardAlpha"/>
<feOffset dy="1"/>
<feGaussianBlur stdDeviation="1"/>
<feColorMatrix type="matrix" values="0 0 0 0 0 0 0 0 0 0 0 0 0 0 0 0 0 0 0.08 0"/>
<feBlend mode="normal" in2="BackgroundImageFix" result="effect1_dropShadow_169_148214"/>
<feBlend mode="normal" in="SourceGraphic" in2="effect1_dropShadow_169_148214" result="shape"/>
</filter>
<filter id="filter2_d_169_148214" x="133" y="104.151" width="33.1514" height="33.1514" filterUnits="userSpaceOnUse" color-interpolation-filters="sRGB">
<feFlood flood-opacity="0" result="BackgroundImageFix"/>
<feColorMatrix in="SourceAlpha" type="matrix" values="0 0 0 0 0 0 0 0 0 0 0 0 0 0 0 0 0 0 127 0" result="hardAlpha"/>
<feOffset dy="1"/>
<feGaussianBlur stdDeviation="1"/>
<feColorMatrix type="matrix" values="0 0 0 0 0 0 0 0 0 0 0 0 0 0 0 0 0 0 0.08 0"/>
<feBlend mode="normal" in2="BackgroundImageFix" result="effect1_dropShadow_169_148214"/>
<feBlend mode="normal" in="SourceGraphic" in2="effect1_dropShadow_169_148214" result="shape"/>
</filter>
<filter id="filter3_d_169_148214" x="147.576" y="103.151" width="35.1514" height="35.1514" filterUnits="userSpaceOnUse" color-interpolation-filters="sRGB">
<feFlood flood-opacity="0" result="BackgroundImageFix"/>
<feColorMatrix in="SourceAlpha" type="matrix" values="0 0 0 0 0 0 0 0 0 0 0 0 0 0 0 0 0 0 127 0" result="hardAlpha"/>
<feOffset dy="1"/>
<feGaussianBlur stdDeviation="1"/>
<feColorMatrix type="matrix" values="0 0 0 0 0 0 0 0 0 0 0 0 0 0 0 0 0 0 0.08 0"/>
<feBlend mode="normal" in2="BackgroundImageFix" result="effect1_dropShadow_169_148214"/>
<feBlend mode="normal" in="SourceGraphic" in2="effect1_dropShadow_169_148214" result="shape"/>
</filter>
<filter id="filter4_d_169_148214" x="163.151" y="103.151" width="35.1514" height="35.1514" filterUnits="userSpaceOnUse" color-interpolation-filters="sRGB">
<feFlood flood-opacity="0" result="BackgroundImageFix"/>
<feColorMatrix in="SourceAlpha" type="matrix" values="0 0 0 0 0 0 0 0 0 0 0 0 0 0 0 0 0 0 127 0" result="hardAlpha"/>
<feOffset dy="1"/>
<feGaussianBlur stdDeviation="1"/>
<feColorMatrix type="matrix" values="0 0 0 0 0 0 0 0 0 0 0 0 0 0 0 0 0 0 0.08 0"/>
<feBlend mode="normal" in2="BackgroundImageFix" result="effect1_dropShadow_169_148214"/>
<feBlend mode="normal" in="SourceGraphic" in2="effect1_dropShadow_169_148214" result="shape"/>
</filter>
<filter id="filter5_d_169_148214" x="178.727" y="103.151" width="35.1514" height="35.1514" filterUnits="userSpaceOnUse" color-interpolation-filters="sRGB">
<feFlood flood-opacity="0" result="BackgroundImageFix"/>
<feColorMatrix in="SourceAlpha" type="matrix" values="0 0 0 0 0 0 0 0 0 0 0 0 0 0 0 0 0 0 127 0" result="hardAlpha"/>
<feOffset dy="1"/>
<feGaussianBlur stdDeviation="1"/>
<feColorMatrix type="matrix" values="0 0 0 0 0 0 0 0 0 0 0 0 0 0 0 0 0 0 0.08 0"/>
<feBlend mode="normal" in2="BackgroundImageFix" result="effect1_dropShadow_169_148214"/>
<feBlend mode="normal" in="SourceGraphic" in2="effect1_dropShadow_169_148214" result="shape"/>
</filter>
</defs>
</svg>
