<svg width="410" height="240" viewBox="0 0 410 240" fill="none" xmlns="http://www.w3.org/2000/svg">
<g filter="url(#filter0_d_169_148184)">
<mask id="mask0_169_148184" style="mask-type:alpha" maskUnits="userSpaceOnUse" x="135" y="60" width="30" height="30">
<circle cx="149.576" cy="75.0756" r="14.5756" fill="#E5E7EB"/>
</mask>
<g mask="url(#mask0_169_148184)">
<circle cx="149.576" cy="75.0756" r="14.5756" fill="#4B5563"/>
<path fill-rule="evenodd" clip-rule="evenodd" d="M149.575 76.5569C150.811 76.5569 151.995 76.0662 152.869 75.1927C153.742 74.3191 154.233 73.1344 154.233 71.8991C154.233 70.6637 153.742 69.479 152.869 68.6055C151.995 67.7319 150.811 67.2412 149.575 67.2412C148.34 67.2412 147.155 67.7319 146.282 68.6055C145.408 69.479 144.917 70.6637 144.917 71.8991C144.917 73.1344 145.408 74.3191 146.282 75.1927C147.155 76.0662 148.34 76.5569 149.575 76.5569ZM138.707 90.5305C138.707 89.1032 138.988 87.6899 139.534 86.3713C140.081 85.0527 140.881 83.8546 141.89 82.8454C142.9 81.8362 144.098 81.0356 145.416 80.4894C146.735 79.9433 148.148 79.6621 149.575 79.6621C151.003 79.6621 152.416 79.9433 153.734 80.4894C155.053 81.0356 156.251 81.8362 157.26 82.8454C158.27 83.8546 159.07 85.0527 159.616 86.3713C160.163 87.6899 160.444 89.1032 160.444 90.5305H138.707Z" fill="#6B7280"/>
</g>
</g>
<g filter="url(#filter1_d_169_148184)">
<rect x="176" y="156.878" width="99" height="6" rx="3" fill="#9CA3AF"/>
<rect x="176" y="168.878" width="65" height="5" rx="2.5" fill="#6B7280"/>
<mask id="mask1_169_148184" style="mask-type:alpha" maskUnits="userSpaceOnUse" x="135" y="150" width="30" height="30">
<circle cx="149.576" cy="165.378" r="14.5756" fill="#E5E7EB"/>
</mask>
<g mask="url(#mask1_169_148184)">
<circle cx="149.576" cy="165.378" r="14.5756" fill="#4B5563"/>
<path fill-rule="evenodd" clip-rule="evenodd" d="M149.575 166.86C150.811 166.86 151.995 166.369 152.869 165.495C153.742 164.622 154.233 163.437 154.233 162.202C154.233 160.966 153.742 159.782 152.869 158.908C151.995 158.035 150.811 157.544 149.575 157.544C148.34 157.544 147.155 158.035 146.282 158.908C145.408 159.782 144.917 160.966 144.917 162.202C144.917 163.437 145.408 164.622 146.282 165.495C147.155 166.369 148.34 166.86 149.575 166.86ZM138.707 180.833C138.707 179.406 138.988 177.993 139.534 176.674C140.081 175.355 140.881 174.157 141.89 173.148C142.9 172.139 144.098 171.338 145.416 170.792C146.735 170.246 148.148 169.965 149.575 169.965C151.003 169.965 152.416 170.246 153.734 170.792C155.053 171.338 156.251 172.139 157.26 173.148C158.27 174.157 159.07 175.355 159.616 176.674C160.163 177.993 160.444 179.406 160.444 180.833H138.707Z" fill="#6B7280"/>
</g>
</g>
<g filter="url(#filter2_d_169_148184)">
<mask id="mask2_169_148184" style="mask-type:alpha" maskUnits="userSpaceOnUse" x="135" y="105" width="30" height="30">
<circle cx="149.576" cy="120.227" r="14.5756" fill="#E5E7EB"/>
</mask>
<g mask="url(#mask2_169_148184)">
<circle cx="149.576" cy="120.227" r="14.5756" fill="#4B5563"/>
<path fill-rule="evenodd" clip-rule="evenodd" d="M149.575 121.708C150.811 121.708 151.995 121.218 152.869 120.344C153.742 119.471 154.233 118.286 154.233 117.05C154.233 115.815 153.742 114.63 152.869 113.757C151.995 112.883 150.811 112.393 149.575 112.393C148.34 112.393 147.155 112.883 146.282 113.757C145.408 114.63 144.917 115.815 144.917 117.05C144.917 118.286 145.408 119.471 146.282 120.344C147.155 121.218 148.34 121.708 149.575 121.708ZM138.707 135.682C138.707 134.255 138.988 132.841 139.534 131.523C140.081 130.204 140.881 129.006 141.89 127.997C142.9 126.988 144.098 126.187 145.416 125.641C146.735 125.095 148.148 124.814 149.575 124.814C151.003 124.814 152.416 125.095 153.734 125.641C155.053 126.187 156.251 126.988 157.26 127.997C158.27 129.006 159.07 130.204 159.616 131.523C160.163 132.841 160.444 134.255 160.444 135.682H138.707Z" fill="#6B7280"/>
</g>
</g>
<g filter="url(#filter3_d_169_148184)">
<circle cx="165.151" cy="120.227" r="14.5756" fill="#4B5563"/>
<mask id="mask3_169_148184" style="mask-type:alpha" maskUnits="userSpaceOnUse" x="150" y="105" width="30" height="30">
<circle cx="165.151" cy="120.227" r="14.5756" fill="#E5E7EB"/>
</mask>
<g mask="url(#mask3_169_148184)">
<path fill-rule="evenodd" clip-rule="evenodd" d="M165.152 121.708C166.387 121.708 167.572 121.218 168.445 120.344C169.319 119.471 169.809 118.286 169.809 117.05C169.809 115.815 169.319 114.63 168.445 113.757C167.572 112.883 166.387 112.393 165.152 112.393C163.916 112.393 162.731 112.883 161.858 113.757C160.984 114.63 160.494 115.815 160.494 117.05C160.494 118.286 160.984 119.471 161.858 120.344C162.731 121.218 163.916 121.708 165.152 121.708ZM154.283 135.682C154.283 134.255 154.564 132.841 155.111 131.523C155.657 130.204 156.457 129.006 157.466 127.997C158.476 126.988 159.674 126.187 160.992 125.641C162.311 125.095 163.724 124.814 165.152 124.814C166.579 124.814 167.992 125.095 169.311 125.641C170.629 126.187 171.827 126.988 172.837 127.997C173.846 129.006 174.646 130.204 175.193 131.523C175.739 132.841 176.02 134.255 176.02 135.682H154.283Z" fill="#6B7280"/>
</g>
<rect x="150.076" y="105.151" width="30.1512" height="30.1512" rx="15.0756" stroke="#111928"/>
</g>
<g filter="url(#filter4_d_169_148184)">
<mask id="mask4_169_148184" style="mask-type:alpha" maskUnits="userSpaceOnUse" x="166" y="105" width="30" height="30">
<circle cx="180.727" cy="120.227" r="14.5756" fill="#E5E7EB"/>
</mask>
<g mask="url(#mask4_169_148184)">
<circle cx="180.727" cy="120.227" r="14.5756" fill="#4B5563"/>
<path fill-rule="evenodd" clip-rule="evenodd" d="M180.727 121.708C181.962 121.708 183.147 121.218 184.02 120.344C184.894 119.471 185.385 118.286 185.385 117.05C185.385 115.815 184.894 114.63 184.02 113.757C183.147 112.883 181.962 112.393 180.727 112.393C179.491 112.393 178.307 112.883 177.433 113.757C176.56 114.63 176.069 115.815 176.069 117.05C176.069 118.286 176.56 119.471 177.433 120.344C178.307 121.218 179.491 121.708 180.727 121.708ZM169.858 135.682C169.858 134.255 170.14 132.841 170.686 131.523C171.232 130.204 172.032 129.006 173.042 127.997C174.051 126.988 175.249 126.187 176.568 125.641C177.886 125.095 179.299 124.814 180.727 124.814C182.154 124.814 183.567 125.095 184.886 125.641C186.204 126.187 187.403 126.988 188.412 127.997C189.421 129.006 190.222 130.204 190.768 131.523C191.314 132.841 191.595 134.255 191.595 135.682H169.858Z" fill="#6B7280"/>
</g>
<rect x="165.651" y="105.151" width="30.1512" height="30.1512" rx="15.0756" stroke="#111928"/>
</g>
<g filter="url(#filter5_d_169_148184)">
<mask id="mask5_169_148184" style="mask-type:alpha" maskUnits="userSpaceOnUse" x="181" y="105" width="30" height="30">
<circle cx="196.303" cy="120.227" r="14.5756" fill="#E5E7EB"/>
</mask>
<g mask="url(#mask5_169_148184)">
<circle cx="196.303" cy="120.227" r="14.5756" fill="#4B5563"/>
<path fill-rule="evenodd" clip-rule="evenodd" d="M196.303 121.708C197.538 121.708 198.723 121.218 199.596 120.344C200.47 119.471 200.961 118.286 200.961 117.05C200.961 115.815 200.47 114.63 199.596 113.757C198.723 112.883 197.538 112.393 196.303 112.393C195.068 112.393 193.883 112.883 193.009 113.757C192.136 114.63 191.645 115.815 191.645 117.05C191.645 118.286 192.136 119.471 193.009 120.344C193.883 121.218 195.068 121.708 196.303 121.708ZM185.435 135.682C185.435 134.255 185.716 132.841 186.262 131.523C186.808 130.204 187.609 129.006 188.618 127.997C189.627 126.988 190.825 126.187 192.144 125.641C193.462 125.095 194.876 124.814 196.303 124.814C197.73 124.814 199.143 125.095 200.462 125.641C201.781 126.187 202.979 126.988 203.988 127.997C204.997 129.006 205.798 130.204 206.344 131.523C206.89 132.841 207.171 134.255 207.171 135.682H185.435Z" fill="#6B7280"/>
</g>
<rect x="181.227" y="105.151" width="30.1512" height="30.1512" rx="15.0756" stroke="#111928"/>
</g>
<defs>
<filter id="filter0_d_169_148184" x="133" y="59.5" width="33.1514" height="33.1514" filterUnits="userSpaceOnUse" color-interpolation-filters="sRGB">
<feFlood flood-opacity="0" result="BackgroundImageFix"/>
<feColorMatrix in="SourceAlpha" type="matrix" values="0 0 0 0 0 0 0 0 0 0 0 0 0 0 0 0 0 0 127 0" result="hardAlpha"/>
<feOffset dy="1"/>
<feGaussianBlur stdDeviation="1"/>
<feColorMatrix type="matrix" values="0 0 0 0 0 0 0 0 0 0 0 0 0 0 0 0 0 0 0.08 0"/>
<feBlend mode="normal" in2="BackgroundImageFix" result="effect1_dropShadow_169_148184"/>
<feBlend mode="normal" in="SourceGraphic" in2="effect1_dropShadow_169_148184" result="shape"/>
</filter>
<filter id="filter1_d_169_148184" x="133" y="149.803" width="144" height="33.1514" filterUnits="userSpaceOnUse" color-interpolation-filters="sRGB">
<feFlood flood-opacity="0" result="BackgroundImageFix"/>
<feColorMatrix in="SourceAlpha" type="matrix" values="0 0 0 0 0 0 0 0 0 0 0 0 0 0 0 0 0 0 127 0" result="hardAlpha"/>
<feOffset dy="1"/>
<feGaussianBlur stdDeviation="1"/>
<feColorMatrix type="matrix" values="0 0 0 0 0 0 0 0 0 0 0 0 0 0 0 0 0 0 0.08 0"/>
<feBlend mode="normal" in2="BackgroundImageFix" result="effect1_dropShadow_169_148184"/>
<feBlend mode="normal" in="SourceGraphic" in2="effect1_dropShadow_169_148184" result="shape"/>
</filter>
<filter id="filter2_d_169_148184" x="133" y="104.651" width="33.1514" height="33.1514" filterUnits="userSpaceOnUse" color-interpolation-filters="sRGB">
<feFlood flood-opacity="0" result="BackgroundImageFix"/>
<feColorMatrix in="SourceAlpha" type="matrix" values="0 0 0 0 0 0 0 0 0 0 0 0 0 0 0 0 0 0 127 0" result="hardAlpha"/>
<feOffset dy="1"/>
<feGaussianBlur stdDeviation="1"/>
<feColorMatrix type="matrix" values="0 0 0 0 0 0 0 0 0 0 0 0 0 0 0 0 0 0 0.08 0"/>
<feBlend mode="normal" in2="BackgroundImageFix" result="effect1_dropShadow_169_148184"/>
<feBlend mode="normal" in="SourceGraphic" in2="effect1_dropShadow_169_148184" result="shape"/>
</filter>
<filter id="filter3_d_169_148184" x="147.576" y="103.651" width="35.1514" height="35.1514" filterUnits="userSpaceOnUse" color-interpolation-filters="sRGB">
<feFlood flood-opacity="0" result="BackgroundImageFix"/>
<feColorMatrix in="SourceAlpha" type="matrix" values="0 0 0 0 0 0 0 0 0 0 0 0 0 0 0 0 0 0 127 0" result="hardAlpha"/>
<feOffset dy="1"/>
<feGaussianBlur stdDeviation="1"/>
<feColorMatrix type="matrix" values="0 0 0 0 0 0 0 0 0 0 0 0 0 0 0 0 0 0 0.08 0"/>
<feBlend mode="normal" in2="BackgroundImageFix" result="effect1_dropShadow_169_148184"/>
<feBlend mode="normal" in="SourceGraphic" in2="effect1_dropShadow_169_148184" result="shape"/>
</filter>
<filter id="filter4_d_169_148184" x="163.151" y="103.651" width="35.1514" height="35.1514" filterUnits="userSpaceOnUse" color-interpolation-filters="sRGB">
<feFlood flood-opacity="0" result="BackgroundImageFix"/>
<feColorMatrix in="SourceAlpha" type="matrix" values="0 0 0 0 0 0 0 0 0 0 0 0 0 0 0 0 0 0 127 0" result="hardAlpha"/>
<feOffset dy="1"/>
<feGaussianBlur stdDeviation="1"/>
<feColorMatrix type="matrix" values="0 0 0 0 0 0 0 0 0 0 0 0 0 0 0 0 0 0 0.08 0"/>
<feBlend mode="normal" in2="BackgroundImageFix" result="effect1_dropShadow_169_148184"/>
<feBlend mode="normal" in="SourceGraphic" in2="effect1_dropShadow_169_148184" result="shape"/>
</filter>
<filter id="filter5_d_169_148184" x="178.727" y="103.651" width="35.1514" height="35.1514" filterUnits="userSpaceOnUse" color-interpolation-filters="sRGB">
<feFlood flood-opacity="0" result="BackgroundImageFix"/>
<feColorMatrix in="SourceAlpha" type="matrix" values="0 0 0 0 0 0 0 0 0 0 0 0 0 0 0 0 0 0 127 0" result="hardAlpha"/>
<feOffset dy="1"/>
<feGaussianBlur stdDeviation="1"/>
<feColorMatrix type="matrix" values="0 0 0 0 0 0 0 0 0 0 0 0 0 0 0 0 0 0 0.08 0"/>
<feBlend mode="normal" in2="BackgroundImageFix" result="effect1_dropShadow_169_148184"/>
<feBlend mode="normal" in="SourceGraphic" in2="effect1_dropShadow_169_148184" result="shape"/>
</filter>
</defs>
</svg>
