<svg width="350" height="230" viewBox="0 0 350 230" fill="none" xmlns="http://www.w3.org/2000/svg">
<g filter="url(#filter0_dd_170_151044)">
<rect x="14" y="15" width="323" height="33" rx="4" fill="white"/>
<rect x="22" y="23" width="63" height="6" rx="3" fill="#9CA3AF"/>
<rect x="22" y="35" width="162" height="5" rx="2.5" fill="#D1D5DB"/>
<path d="M217.5 26.5C217.5 25.6716 218.172 25 219 25H258C258.828 25 259.5 25.6716 259.5 26.5V36.5C259.5 37.3284 258.828 38 258 38H219C218.172 38 217.5 37.3284 217.5 36.5V26.5Z" fill="#EB4F27"/>
<rect x="225" y="29.5" width="27" height="4" rx="1" fill="white"/>
<path d="M217.5 26.5C217.5 25.6716 218.172 25 219 25H258C258.828 25 259.5 25.6716 259.5 26.5V36.5C259.5 37.3284 258.828 38 258 38H219C218.172 38 217.5 37.3284 217.5 36.5V26.5Z" stroke="#EB4F27"/>
<rect x="272" y="29.5" width="27" height="4" rx="1" fill="#D1D5DB"/>
<path d="M264.3 26.5C264.3 25.5611 265.061 24.8 266 24.8H305C305.939 24.8 306.7 25.5611 306.7 26.5V36.5C306.7 37.4389 305.939 38.2 305 38.2H266C265.061 38.2 264.3 37.4389 264.3 36.5V26.5Z" stroke="#D1D5DB" stroke-width="0.6"/>
<mask id="path-8-inside-1_170_151044" fill="white">
<path fill-rule="evenodd" clip-rule="evenodd" d="M321.146 28.6463C321.24 28.5526 321.367 28.4999 321.5 28.4999C321.632 28.4999 321.76 28.5526 321.853 28.6463L324 30.7928L326.146 28.6463C326.193 28.5985 326.248 28.5605 326.309 28.5342C326.37 28.508 326.435 28.4942 326.502 28.4937C326.568 28.4931 326.634 28.5057 326.695 28.5309C326.757 28.556 326.813 28.5932 326.86 28.6401C326.907 28.687 326.944 28.7429 326.969 28.8043C326.994 28.8658 327.007 28.9316 327.006 28.998C327.005 29.0644 326.992 29.13 326.965 29.191C326.939 29.252 326.901 29.3072 326.853 29.3533L324.707 31.4998L326.853 33.6463C326.944 33.7406 326.995 33.8669 326.994 33.998C326.993 34.1291 326.94 34.2545 326.847 34.3472C326.755 34.4399 326.629 34.4925 326.498 34.4936C326.367 34.4948 326.241 34.4444 326.146 34.3533L324 32.2068L321.853 34.3533C321.759 34.4444 321.633 34.4948 321.502 34.4936C321.371 34.4925 321.245 34.4399 321.152 34.3472C321.06 34.2545 321.007 34.1291 321.006 33.998C321.005 33.8669 321.055 33.7406 321.146 33.6463L323.293 31.4998L321.146 29.3533C321.053 29.2595 321 29.1324 321 28.9998C321 28.8672 321.053 28.7401 321.146 28.6463Z"/>
</mask>
<path fill-rule="evenodd" clip-rule="evenodd" d="M321.146 28.6463C321.24 28.5526 321.367 28.4999 321.5 28.4999C321.632 28.4999 321.76 28.5526 321.853 28.6463L324 30.7928L326.146 28.6463C326.193 28.5985 326.248 28.5605 326.309 28.5342C326.37 28.508 326.435 28.4942 326.502 28.4937C326.568 28.4931 326.634 28.5057 326.695 28.5309C326.757 28.556 326.813 28.5932 326.86 28.6401C326.907 28.687 326.944 28.7429 326.969 28.8043C326.994 28.8658 327.007 28.9316 327.006 28.998C327.005 29.0644 326.992 29.13 326.965 29.191C326.939 29.252 326.901 29.3072 326.853 29.3533L324.707 31.4998L326.853 33.6463C326.944 33.7406 326.995 33.8669 326.994 33.998C326.993 34.1291 326.94 34.2545 326.847 34.3472C326.755 34.4399 326.629 34.4925 326.498 34.4936C326.367 34.4948 326.241 34.4444 326.146 34.3533L324 32.2068L321.853 34.3533C321.759 34.4444 321.633 34.4948 321.502 34.4936C321.371 34.4925 321.245 34.4399 321.152 34.3472C321.06 34.2545 321.007 34.1291 321.006 33.998C321.005 33.8669 321.055 33.7406 321.146 33.6463L323.293 31.4998L321.146 29.3533C321.053 29.2595 321 29.1324 321 28.9998C321 28.8672 321.053 28.7401 321.146 28.6463Z" fill="#D1D5DB"/>
<path d="M321.853 28.6463L322.56 27.9392L322.56 27.9391L321.853 28.6463ZM324 30.7928L323.293 31.4999L324 32.207L324.707 31.4999L324 30.7928ZM326.146 28.6463L326.853 29.3534L326.86 29.3473L326.866 29.341L326.146 28.6463ZM326.853 29.3533L326.159 28.634L326.152 28.64L326.146 28.6462L326.853 29.3533ZM324.707 31.4998L324 30.7927L323.293 31.4998L324 32.2069L324.707 31.4998ZM326.853 33.6463L327.573 32.9516L327.567 32.9453L327.56 32.9392L326.853 33.6463ZM326.146 34.3533L325.439 35.0604L325.445 35.0665L325.452 35.0726L326.146 34.3533ZM324 32.2068L324.707 31.4997L324 30.7926L323.293 31.4997L324 32.2068ZM321.853 34.3533L322.548 35.0726L322.554 35.0665L322.56 35.0604L321.853 34.3533ZM321.146 33.6463L320.439 32.9392L320.433 32.9453L320.427 32.9516L321.146 33.6463ZM323.293 31.4998L324 32.2069L324.707 31.4998L324 30.7927L323.293 31.4998ZM321.146 29.3533L320.439 30.0603L320.439 30.0604L321.146 29.3533ZM321.146 28.6463L320.439 27.9391L320.439 27.9393L321.146 28.6463ZM321.853 29.3535C321.76 29.4472 321.632 29.4999 321.5 29.4999V27.4999C321.102 27.4999 320.721 27.6579 320.439 27.9391L321.853 29.3535ZM321.5 29.4999C321.367 29.4999 321.24 29.4472 321.146 29.3535L322.56 27.9391C322.279 27.6579 321.898 27.4999 321.5 27.4999V29.4999ZM321.146 29.3534L323.293 31.4999L324.707 30.0857L322.56 27.9392L321.146 29.3534ZM324.707 31.4999L326.853 29.3534L325.439 27.9392L323.293 30.0857L324.707 31.4999ZM326.866 29.341C326.82 29.3888 326.764 29.4269 326.703 29.4531L325.914 27.6154C325.731 27.694 325.565 27.8083 325.427 27.9516L326.866 29.341ZM326.703 29.4531C326.642 29.4793 326.577 29.4931 326.51 29.4936L326.493 27.4937C326.294 27.4954 326.097 27.5368 325.914 27.6154L326.703 29.4531ZM326.51 29.4936C326.444 29.4942 326.378 29.4816 326.317 29.4564L327.074 27.6054C326.89 27.5299 326.692 27.492 326.493 27.4937L326.51 29.4936ZM326.317 29.4564C326.255 29.4313 326.199 29.3942 326.152 29.3472L327.567 27.933C327.426 27.7922 327.258 27.6808 327.074 27.6054L326.317 29.4564ZM326.152 29.3472C326.106 29.3003 326.068 29.2444 326.043 29.183L327.894 28.4257C327.819 28.2413 327.708 28.0738 327.567 27.933L326.152 29.3472ZM326.043 29.183C326.018 29.1215 326.005 29.0557 326.006 28.9893L328.006 29.0067C328.008 28.8075 327.97 28.61 327.894 28.4257L326.043 29.183ZM326.006 28.9893C326.007 28.9229 326.02 28.8573 326.047 28.7963L327.884 29.5857C327.963 29.4027 328.004 29.2059 328.006 29.0067L326.006 28.9893ZM326.047 28.7963C326.073 28.7353 326.111 28.6801 326.159 28.634L327.548 30.0726C327.691 29.9342 327.806 29.7687 327.884 29.5857L326.047 28.7963ZM326.146 28.6462L324 30.7927L325.414 32.2069L327.56 30.0604L326.146 28.6462ZM324 32.2069L326.146 34.3534L327.56 32.9392L325.414 30.7927L324 32.2069ZM326.134 34.341C326.043 34.2467 325.993 34.1204 325.994 33.9893L327.994 34.0067C327.997 33.6134 327.846 33.2345 327.573 32.9516L326.134 34.341ZM325.994 33.9893C325.995 33.8582 326.047 33.7328 326.14 33.6401L327.554 35.0543C327.833 34.7762 327.99 34.4 327.994 34.0067L325.994 33.9893ZM326.14 33.6401C326.233 33.5474 326.358 33.4948 326.489 33.4937L326.507 35.4936C326.9 35.4902 327.276 35.3324 327.554 35.0543L326.14 33.6401ZM326.489 33.4937C326.621 33.4925 326.747 33.5429 326.841 33.634L325.452 35.0726C325.735 35.3458 326.113 35.497 326.507 35.4936L326.489 33.4937ZM326.853 33.6462L324.707 31.4997L323.293 32.9139L325.439 35.0604L326.853 33.6462ZM323.293 31.4997L321.146 33.6462L322.56 35.0604L324.707 32.9139L323.293 31.4997ZM321.159 33.634C321.253 33.5429 321.379 33.4925 321.51 33.4937L321.493 35.4936C321.886 35.497 322.265 35.3458 322.548 35.0726L321.159 33.634ZM321.51 33.4937C321.641 33.4948 321.767 33.5474 321.86 33.6401L320.445 35.0543C320.723 35.3324 321.1 35.4902 321.493 35.4936L321.51 33.4937ZM321.86 33.6401C321.952 33.7328 322.005 33.8582 322.006 33.9893L320.006 34.0067C320.01 34.4 320.167 34.7762 320.445 35.0543L321.86 33.6401ZM322.006 33.9893C322.007 34.1204 321.957 34.2467 321.866 34.341L320.427 32.9516C320.154 33.2345 320.003 33.6134 320.006 34.0067L322.006 33.9893ZM321.854 34.3534L324 32.2069L322.586 30.7927L320.439 32.9392L321.854 34.3534ZM324 30.7927L321.854 28.6462L320.439 30.0604L322.586 32.2069L324 30.7927ZM321.854 28.6463C321.947 28.7401 322 28.8672 322 28.9998H320C320 29.3975 320.158 29.779 320.439 30.0603L321.854 28.6463ZM322 28.9998C322 29.1324 321.947 29.2595 321.854 29.3533L320.439 27.9393C320.158 28.2206 320 28.602 320 28.9998H322Z" fill="#D1D5DB" mask="url(#path-8-inside-1_170_151044)"/>
</g>
<defs>
<filter id="filter0_dd_170_151044" x="8" y="13" width="335" height="45" filterUnits="userSpaceOnUse" color-interpolation-filters="sRGB">
<feFlood flood-opacity="0" result="BackgroundImageFix"/>
<feColorMatrix in="SourceAlpha" type="matrix" values="0 0 0 0 0 0 0 0 0 0 0 0 0 0 0 0 0 0 127 0" result="hardAlpha"/>
<feOffset dy="4"/>
<feGaussianBlur stdDeviation="3"/>
<feColorMatrix type="matrix" values="0 0 0 0 0 0 0 0 0 0 0 0 0 0 0 0 0 0 0.1 0"/>
<feBlend mode="normal" in2="BackgroundImageFix" result="effect1_dropShadow_170_151044"/>
<feColorMatrix in="SourceAlpha" type="matrix" values="0 0 0 0 0 0 0 0 0 0 0 0 0 0 0 0 0 0 127 0" result="hardAlpha"/>
<feOffset dy="2"/>
<feGaussianBlur stdDeviation="2"/>
<feColorMatrix type="matrix" values="0 0 0 0 0 0 0 0 0 0 0 0 0 0 0 0 0 0 0.06 0"/>
<feBlend mode="normal" in2="effect1_dropShadow_170_151044" result="effect2_dropShadow_170_151044"/>
<feBlend mode="normal" in="SourceGraphic" in2="effect2_dropShadow_170_151044" result="shape"/>
</filter>
</defs>
</svg>
