<svg width="350" height="230" viewBox="0 0 350 230" fill="none" xmlns="http://www.w3.org/2000/svg">
<g filter="url(#filter0_dd_4141_55098)">
<rect x="14" y="15" width="323" height="33" rx="4" fill="white"/>
<rect x="22" y="23" width="63" height="6" rx="3" fill="#9CA3AF"/>
<rect x="22" y="35" width="162" height="5" rx="2.5" fill="#D1D5DB"/>
<path d="M219 25H258C258.828 25 259.5 25.6716 259.5 26.5V36.5C259.5 37.3284 258.828 38 258 38H219C218.172 38 217.5 37.3284 217.5 36.5V26.5C217.5 25.6716 218.172 25 219 25Z" fill="#1A56DB"/>
<rect x="225" y="29.5" width="27" height="4" rx="1" fill="white"/>
<path d="M219 25H258C258.828 25 259.5 25.6716 259.5 26.5V36.5C259.5 37.3284 258.828 38 258 38H219C218.172 38 217.5 37.3284 217.5 36.5V26.5C217.5 25.6716 218.172 25 219 25Z" stroke="#1A56DB"/>
<rect x="272" y="29.5" width="27" height="4" rx="1" fill="#D1D5DB"/>
<path d="M266 24.8H305C305.939 24.8 306.7 25.5611 306.7 26.5V36.5C306.7 37.4389 305.939 38.2 305 38.2H266C265.061 38.2 264.3 37.4389 264.3 36.5V26.5C264.3 25.5611 265.061 24.8 266 24.8Z" stroke="#D1D5DB" stroke-width="0.6"/>
<mask id="path-8-inside-1_4141_55098" fill="white">
<path fill-rule="evenodd" clip-rule="evenodd" d="M321.147 28.6468C321.24 28.553 321.367 28.5004 321.5 28.5004C321.633 28.5004 321.76 28.553 321.854 28.6468L324 30.7933L326.147 28.6468C326.193 28.599 326.248 28.5609 326.309 28.5347C326.37 28.5085 326.435 28.4947 326.502 28.4942C326.568 28.4936 326.634 28.5062 326.695 28.5314C326.757 28.5565 326.813 28.5936 326.86 28.6406C326.907 28.6875 326.944 28.7434 326.969 28.8048C326.994 28.8663 327.007 28.9321 327.006 28.9985C327.006 29.0649 326.992 29.1305 326.966 29.1915C326.939 29.2525 326.901 29.3077 326.854 29.3538L324.707 31.5003L326.854 33.6468C326.945 33.7411 326.995 33.8674 326.994 33.9985C326.993 34.1296 326.94 34.255 326.847 34.3477C326.755 34.4404 326.629 34.493 326.498 34.4941C326.367 34.4953 326.241 34.4449 326.147 34.3538L324 32.2073L321.854 34.3538C321.759 34.4449 321.633 34.4953 321.502 34.4941C321.371 34.493 321.245 34.4404 321.153 34.3477C321.06 34.255 321.007 34.1296 321.006 33.9985C321.005 33.8674 321.055 33.7411 321.147 33.6468L323.293 31.5003L321.147 29.3538C321.053 29.26 321 29.1329 321 29.0003C321 28.8677 321.053 28.7405 321.147 28.6468V28.6468Z"/>
</mask>
<path fill-rule="evenodd" clip-rule="evenodd" d="M321.147 28.6468C321.24 28.553 321.367 28.5004 321.5 28.5004C321.633 28.5004 321.76 28.553 321.854 28.6468L324 30.7933L326.147 28.6468C326.193 28.599 326.248 28.5609 326.309 28.5347C326.37 28.5085 326.435 28.4947 326.502 28.4942C326.568 28.4936 326.634 28.5062 326.695 28.5314C326.757 28.5565 326.813 28.5936 326.86 28.6406C326.907 28.6875 326.944 28.7434 326.969 28.8048C326.994 28.8663 327.007 28.9321 327.006 28.9985C327.006 29.0649 326.992 29.1305 326.966 29.1915C326.939 29.2525 326.901 29.3077 326.854 29.3538L324.707 31.5003L326.854 33.6468C326.945 33.7411 326.995 33.8674 326.994 33.9985C326.993 34.1296 326.94 34.255 326.847 34.3477C326.755 34.4404 326.629 34.493 326.498 34.4941C326.367 34.4953 326.241 34.4449 326.147 34.3538L324 32.2073L321.854 34.3538C321.759 34.4449 321.633 34.4953 321.502 34.4941C321.371 34.493 321.245 34.4404 321.153 34.3477C321.06 34.255 321.007 34.1296 321.006 33.9985C321.005 33.8674 321.055 33.7411 321.147 33.6468L323.293 31.5003L321.147 29.3538C321.053 29.26 321 29.1329 321 29.0003C321 28.8677 321.053 28.7405 321.147 28.6468V28.6468Z" fill="#D1D5DB"/>
<path d="M321.854 28.6468L322.561 27.9397L322.561 27.9396L321.854 28.6468ZM324 30.7933L323.293 31.5004L324 32.2075L324.707 31.5004L324 30.7933ZM326.147 28.6468L326.854 29.3539L326.86 29.3477L326.866 29.3415L326.147 28.6468ZM326.854 29.3538L326.159 28.6345L326.153 28.6405L326.146 28.6467L326.854 29.3538ZM324.707 31.5003L324 30.7932L323.293 31.5003L324 32.2074L324.707 31.5003ZM326.854 33.6468L327.573 32.9521L327.567 32.9458L327.561 32.9397L326.854 33.6468ZM326.147 34.3538L325.439 35.0609L325.446 35.067L325.452 35.0731L326.147 34.3538ZM324 32.2073L324.707 31.5002L324 30.7931L323.293 31.5002L324 32.2073ZM321.854 34.3538L322.548 35.0731L322.554 35.067L322.561 35.0609L321.854 34.3538ZM321.147 33.6468L320.439 32.9397L320.433 32.9458L320.427 32.9521L321.147 33.6468ZM323.293 31.5003L324 32.2074L324.707 31.5003L324 30.7932L323.293 31.5003ZM321.147 29.3538L320.439 30.0608L320.439 30.0609L321.147 29.3538ZM321.147 28.6468L320.44 27.9396L320.439 27.9398L321.147 28.6468ZM321.854 29.354C321.76 29.4477 321.633 29.5004 321.5 29.5004V27.5004C321.102 27.5004 320.721 27.6584 320.44 27.9396L321.854 29.354ZM321.5 29.5004C321.367 29.5004 321.24 29.4477 321.147 29.354L322.561 27.9396C322.279 27.6584 321.898 27.5004 321.5 27.5004V29.5004ZM321.146 29.3539L323.293 31.5004L324.707 30.0862L322.561 27.9397L321.146 29.3539ZM324.707 31.5004L326.854 29.3539L325.439 27.9397L323.293 30.0862L324.707 31.5004ZM326.866 29.3415C326.82 29.3893 326.765 29.4273 326.704 29.4535L325.914 27.6159C325.731 27.6945 325.566 27.8088 325.427 27.9521L326.866 29.3415ZM326.704 29.4535C326.643 29.4798 326.577 29.4935 326.511 29.4941L326.493 27.4942C326.294 27.4959 326.097 27.5373 325.914 27.6159L326.704 29.4535ZM326.511 29.4941C326.444 29.4947 326.378 29.482 326.317 29.4569L327.074 27.6058C326.89 27.5304 326.692 27.4925 326.493 27.4942L326.511 29.4941ZM326.317 29.4569C326.255 29.4318 326.2 29.3946 326.153 29.3477L327.567 27.9335C327.426 27.7926 327.259 27.6813 327.074 27.6058L326.317 29.4569ZM326.153 29.3477C326.106 29.3007 326.069 29.2449 326.043 29.1835L327.894 28.4261C327.819 28.2418 327.708 28.0743 327.567 27.9335L326.153 29.3477ZM326.043 29.1835C326.018 29.122 326.006 29.0562 326.006 28.9898L328.006 29.0072C328.008 28.808 327.97 28.6105 327.894 28.4261L326.043 29.1835ZM326.006 28.9898C326.007 28.9234 326.021 28.8578 326.047 28.7968L327.884 29.5862C327.963 29.4032 328.004 29.2063 328.006 29.0072L326.006 28.9898ZM326.047 28.7968C326.073 28.7358 326.111 28.6806 326.159 28.6345L327.548 30.0731C327.691 29.9347 327.806 29.7692 327.884 29.5862L326.047 28.7968ZM326.146 28.6467L324 30.7932L325.414 32.2074L327.561 30.0609L326.146 28.6467ZM324 32.2074L326.146 34.3539L327.561 32.9397L325.414 30.7932L324 32.2074ZM326.134 34.3415C326.043 34.2472 325.993 34.1209 325.994 33.9898L327.994 34.0072C327.997 33.6139 327.846 33.235 327.573 32.9521L326.134 34.3415ZM325.994 33.9898C325.995 33.8587 326.048 33.7333 326.14 33.6406L327.555 35.0548C327.833 34.7767 327.99 34.4005 327.994 34.0072L325.994 33.9898ZM326.14 33.6406C326.233 33.5479 326.358 33.4953 326.49 33.4942L326.507 35.4941C326.9 35.4907 327.276 35.3329 327.555 35.0548L326.14 33.6406ZM326.49 33.4942C326.621 33.493 326.747 33.5434 326.841 33.6345L325.452 35.0731C325.735 35.3463 326.114 35.4975 326.507 35.4941L326.49 33.4942ZM326.854 33.6467L324.707 31.5002L323.293 32.9144L325.439 35.0609L326.854 33.6467ZM323.293 31.5002L321.146 33.6467L322.561 35.0609L324.707 32.9144L323.293 31.5002ZM321.159 33.6345C321.253 33.5434 321.379 33.493 321.511 33.4942L321.493 35.4941C321.886 35.4975 322.265 35.3463 322.548 35.0731L321.159 33.6345ZM321.511 33.4942C321.642 33.4953 321.767 33.5479 321.86 33.6406L320.445 35.0548C320.724 35.3329 321.1 35.4907 321.493 35.4941L321.511 33.4942ZM321.86 33.6406C321.952 33.7333 322.005 33.8587 322.006 33.9898L320.006 34.0072C320.01 34.4005 320.167 34.7767 320.445 35.0548L321.86 33.6406ZM322.006 33.9898C322.007 34.1209 321.957 34.2472 321.866 34.3415L320.427 32.9521C320.154 33.235 320.003 33.6139 320.006 34.0072L322.006 33.9898ZM321.854 34.3539L324 32.2074L322.586 30.7932L320.439 32.9397L321.854 34.3539ZM324 30.7932L321.854 28.6467L320.439 30.0609L322.586 32.2074L324 30.7932ZM321.854 28.6468C321.947 28.7405 322 28.8677 322 29.0003H320C320 29.398 320.158 29.7795 320.439 30.0608L321.854 28.6468ZM322 29.0003C322 29.1329 321.947 29.26 321.854 29.3538L320.439 27.9398C320.158 28.2211 320 28.6025 320 29.0003H322Z" fill="#D1D5DB" mask="url(#path-8-inside-1_4141_55098)"/>
</g>
<defs>
<filter id="filter0_dd_4141_55098" x="8" y="13" width="335" height="45" filterUnits="userSpaceOnUse" color-interpolation-filters="sRGB">
<feFlood flood-opacity="0" result="BackgroundImageFix"/>
<feColorMatrix in="SourceAlpha" type="matrix" values="0 0 0 0 0 0 0 0 0 0 0 0 0 0 0 0 0 0 127 0" result="hardAlpha"/>
<feOffset dy="4"/>
<feGaussianBlur stdDeviation="3"/>
<feColorMatrix type="matrix" values="0 0 0 0 0 0 0 0 0 0 0 0 0 0 0 0 0 0 0.1 0"/>
<feBlend mode="normal" in2="BackgroundImageFix" result="effect1_dropShadow_4141_55098"/>
<feColorMatrix in="SourceAlpha" type="matrix" values="0 0 0 0 0 0 0 0 0 0 0 0 0 0 0 0 0 0 127 0" result="hardAlpha"/>
<feOffset dy="2"/>
<feGaussianBlur stdDeviation="2"/>
<feColorMatrix type="matrix" values="0 0 0 0 0 0 0 0 0 0 0 0 0 0 0 0 0 0 0.06 0"/>
<feBlend mode="normal" in2="effect1_dropShadow_4141_55098" result="effect2_dropShadow_4141_55098"/>
<feBlend mode="normal" in="SourceGraphic" in2="effect2_dropShadow_4141_55098" result="shape"/>
</filter>
</defs>
</svg>
