<svg width="350" height="230" viewBox="0 0 350 230" fill="none" xmlns="http://www.w3.org/2000/svg">
<rect x="55.5" y="60.5" width="239" height="43" rx="21.5" fill="#374151"/>
<path d="M83.707 74.2928C83.5195 74.1053 83.2651 74 83 74C82.7348 74 82.4805 74.1053 82.293 74.2928L75.293 81.2928C75.1108 81.4814 75.01 81.734 75.0123 81.9962C75.0146 82.2584 75.1198 82.5092 75.3052 82.6946C75.4906 82.88 75.7414 82.9852 76.0036 82.9875C76.2658 82.9897 76.5184 82.8889 76.707 82.7068L77 82.4138V88.9998C77 89.265 77.1053 89.5194 77.2929 89.7069C77.4804 89.8944 77.7348 89.9998 78 89.9998H80C80.2652 89.9998 80.5196 89.8944 80.7071 89.7069C80.8946 89.5194 81 89.265 81 88.9998V86.9998C81 86.7346 81.1053 86.4802 81.2929 86.2927C81.4804 86.1051 81.7348 85.9998 82 85.9998H84C84.2652 85.9998 84.5196 86.1051 84.7071 86.2927C84.8946 86.4802 85 86.7346 85 86.9998V88.9998C85 89.265 85.1053 89.5194 85.2929 89.7069C85.4804 89.8944 85.7348 89.9998 86 89.9998H88C88.2652 89.9998 88.5196 89.8944 88.7071 89.7069C88.8946 89.5194 89 89.265 89 88.9998V82.4138L89.293 82.7068C89.4816 82.8889 89.7342 82.9897 89.9964 82.9875C90.2586 82.9852 90.5094 82.88 90.6948 82.6946C90.8802 82.5092 90.9854 82.2584 90.9877 81.9962C90.9899 81.734 90.8891 81.4814 90.707 81.2928L83.707 74.2928Z" fill="#9CA3AF"/>
<path d="M120.333 85.333V86.1663C120.333 86.8294 120.597 87.4653 121.066 87.9341C121.534 88.4029 122.17 88.6663 122.833 88.6663H131.167C131.83 88.6663 132.466 88.4029 132.934 87.9341C133.403 87.4653 133.667 86.8294 133.667 86.1663V85.333M130.333 81.9997L127 85.333M127 85.333L123.667 81.9997M127 85.333V75.333" stroke="#9CA3AF" stroke-width="2" stroke-linecap="round" stroke-linejoin="round"/>
<rect x="161" y="68" width="28" height="28" rx="14" fill="#1C64F2"/>
<path d="M175 82H170Z" fill="white"/>
<path d="M175 77V82M175 82V87M175 82H180M175 82H170" stroke="white" stroke-width="2" stroke-linecap="round" stroke-linejoin="round"/>
<path d="M218 76C218 75.7348 217.895 75.4804 217.707 75.2929C217.52 75.1054 217.265 75 217 75C216.735 75 216.48 75.1054 216.293 75.2929C216.105 75.4804 216 75.7348 216 76V83.268C215.696 83.4435 215.444 83.696 215.268 84C215.092 84.3041 215 84.6489 215 85C215 85.3511 215.092 85.6959 215.268 86C215.444 86.304 215.696 86.5565 216 86.732V88C216 88.2652 216.105 88.5196 216.293 88.7071C216.48 88.8946 216.735 89 217 89C217.265 89 217.52 88.8946 217.707 88.7071C217.895 88.5196 218 88.2652 218 88V86.732C218.304 86.5565 218.556 86.304 218.732 86C218.907 85.6959 219 85.3511 219 85C219 84.6489 218.907 84.3041 218.732 84C218.556 83.696 218.304 83.4435 218 83.268V76ZM224 76C224 75.7348 223.895 75.4804 223.707 75.2929C223.52 75.1054 223.265 75 223 75C222.735 75 222.48 75.1054 222.293 75.2929C222.105 75.4804 222 75.7348 222 76V77.268C221.696 77.4435 221.444 77.696 221.268 78C221.092 78.3041 221 78.6489 221 79C221 79.3511 221.092 79.6959 221.268 80C221.444 80.304 221.696 80.5565 222 80.732V88C222 88.2652 222.105 88.5196 222.293 88.7071C222.48 88.8946 222.735 89 223 89C223.265 89 223.52 88.8946 223.707 88.7071C223.895 88.5196 224 88.2652 224 88V80.732C224.304 80.5565 224.556 80.304 224.732 80C224.907 79.6959 225 79.3511 225 79C225 78.6489 224.907 78.3041 224.732 78C224.556 77.696 224.304 77.4435 224 77.268V76ZM229 75C229.265 75 229.52 75.1054 229.707 75.2929C229.895 75.4804 230 75.7348 230 76V83.268C230.304 83.4435 230.556 83.696 230.732 84C230.907 84.3041 231 84.6489 231 85C231 85.3511 230.907 85.6959 230.732 86C230.556 86.304 230.304 86.5565 230 86.732V88C230 88.2652 229.895 88.5196 229.707 88.7071C229.52 88.8946 229.265 89 229 89C228.735 89 228.48 88.8946 228.293 88.7071C228.105 88.5196 228 88.2652 228 88V86.732C227.696 86.5565 227.444 86.304 227.268 86C227.092 85.6959 227 85.3511 227 85C227 84.6489 227.092 84.3041 227.268 84C227.444 83.696 227.696 83.4435 228 83.268V76C228 75.7348 228.105 75.4804 228.293 75.2929C228.48 75.1054 228.735 75 229 75Z" fill="#9CA3AF"/>
<path fill-rule="evenodd" clip-rule="evenodd" d="M275 82C275 84.1217 274.157 86.1566 272.657 87.6569C271.157 89.1571 269.122 90 267 90C264.878 90 262.843 89.1571 261.343 87.6569C259.843 86.1566 259 84.1217 259 82C259 79.8783 259.843 77.8434 261.343 76.3431C262.843 74.8429 264.878 74 267 74C269.122 74 271.157 74.8429 272.657 76.3431C274.157 77.8434 275 79.8783 275 82ZM269 79C269 79.5304 268.789 80.0391 268.414 80.4142C268.039 80.7893 267.53 81 267 81C266.47 81 265.961 80.7893 265.586 80.4142C265.211 80.0391 265 79.5304 265 79C265 78.4696 265.211 77.9609 265.586 77.5858C265.961 77.2107 266.47 77 267 77C267.53 77 268.039 77.2107 268.414 77.5858C268.789 77.9609 269 78.4696 269 79ZM267 83C266.043 82.9998 265.105 83.2745 264.299 83.7914C263.494 84.3083 262.853 85.0457 262.454 85.916C263.017 86.5706 263.714 87.0958 264.499 87.4555C265.284 87.8152 266.137 88.0009 267 88C267.863 88.0009 268.716 87.8152 269.501 87.4555C270.286 87.0958 270.983 86.5706 271.546 85.916C271.147 85.0457 270.506 84.3083 269.701 83.7914C268.895 83.2745 267.957 82.9998 267 83Z" fill="#9CA3AF"/>
<rect x="55.5" y="60.5" width="239" height="43" rx="21.5" stroke="#4B5563"/>
<g clip-path="url(#clip0_4128_55394)">
<rect width="246" height="44" transform="translate(52 126)" fill="#374151"/>
<mask id="path-9-inside-1_4128_55394" fill="white">
<path d="M52 126H110V170H52V126Z"/>
</mask>
<path d="M52 126H110V170H52V126Z" fill="#374151"/>
<path d="M81.707 134.293C81.5195 134.105 81.2651 134 81 134C80.7348 134 80.4805 134.105 80.293 134.293L73.293 141.293C73.1108 141.481 73.01 141.734 73.0123 141.996C73.0146 142.258 73.1198 142.509 73.3052 142.695C73.4906 142.88 73.7414 142.985 74.0036 142.987C74.2658 142.99 74.5184 142.889 74.707 142.707L75 142.414V149C75 149.265 75.1053 149.519 75.2929 149.707C75.4804 149.894 75.7348 150 76 150H78C78.2652 150 78.5196 149.894 78.7071 149.707C78.8946 149.519 79 149.265 79 149V147C79 146.735 79.1053 146.48 79.2929 146.293C79.4804 146.105 79.7348 146 80 146H82C82.2652 146 82.5196 146.105 82.7071 146.293C82.8946 146.48 83 146.735 83 147V149C83 149.265 83.1053 149.519 83.2929 149.707C83.4804 149.894 83.7348 150 84 150H86C86.2652 150 86.5196 149.894 86.7071 149.707C86.8946 149.519 87 149.265 87 149V142.414L87.293 142.707C87.4816 142.889 87.7342 142.99 87.9964 142.987C88.2586 142.985 88.5094 142.88 88.6948 142.695C88.8802 142.509 88.9854 142.258 88.9877 141.996C88.9899 141.734 88.8891 141.481 88.707 141.293L81.707 134.293Z" fill="#9CA3AF"/>
<rect x="64" y="158" width="34" height="6" rx="3" fill="#9CA3AF"/>
<path d="M109 126V170H111V126H109Z" fill="#4B5563" mask="url(#path-9-inside-1_4128_55394)"/>
<mask id="path-13-inside-2_4128_55394" fill="white">
<path d="M110 126H172V170H110V126Z"/>
</mask>
<path d="M110 126H172V170H110V126Z" fill="#374151"/>
<path d="M133.939 136.939C134.221 136.658 134.602 136.5 135 136.5H147C147.398 136.5 147.779 136.658 148.061 136.939C148.342 137.221 148.5 137.602 148.5 138V138.5H133.5V138C133.5 137.602 133.658 137.221 133.939 136.939Z" fill="#9CA3AF" stroke="#9CA3AF"/>
<path fill-rule="evenodd" clip-rule="evenodd" d="M149 141H133V146C133 146.53 133.211 147.039 133.586 147.414C133.961 147.789 134.47 148 135 148H147C147.53 148 148.039 147.789 148.414 147.414C148.789 147.039 149 146.53 149 146V141ZM135 145C135 144.735 135.105 144.48 135.293 144.293C135.48 144.105 135.735 144 136 144H137C137.265 144 137.52 144.105 137.707 144.293C137.895 144.48 138 144.735 138 145C138 145.265 137.895 145.52 137.707 145.707C137.52 145.895 137.265 146 137 146H136C135.735 146 135.48 145.895 135.293 145.707C135.105 145.52 135 145.265 135 145ZM140 144C139.735 144 139.48 144.105 139.293 144.293C139.105 144.48 139 144.735 139 145C139 145.265 139.105 145.52 139.293 145.707C139.48 145.895 139.735 146 140 146H141C141.265 146 141.52 145.895 141.707 145.707C141.895 145.52 142 145.265 142 145C142 144.735 141.895 144.48 141.707 144.293C141.52 144.105 141.265 144 141 144H140Z" fill="#9CA3AF"/>
<rect x="122" y="158" width="38" height="6" rx="3" fill="#9CA3AF"/>
<path d="M171 126V170H173V126H171Z" fill="#4B5563" mask="url(#path-13-inside-2_4128_55394)"/>
<mask id="path-18-inside-3_4128_55394" fill="white">
<path d="M172 126H238V170H172V126Z"/>
</mask>
<path d="M172 126H238V170H172V126Z" fill="#374151"/>
<path d="M200 136C200 135.735 199.895 135.48 199.707 135.293C199.52 135.105 199.265 135 199 135C198.735 135 198.48 135.105 198.293 135.293C198.105 135.48 198 135.735 198 136V143.268C197.696 143.444 197.444 143.696 197.268 144C197.092 144.304 197 144.649 197 145C197 145.351 197.092 145.696 197.268 146C197.444 146.304 197.696 146.556 198 146.732V148C198 148.265 198.105 148.52 198.293 148.707C198.48 148.895 198.735 149 199 149C199.265 149 199.52 148.895 199.707 148.707C199.895 148.52 200 148.265 200 148V146.732C200.304 146.556 200.556 146.304 200.732 146C200.907 145.696 201 145.351 201 145C201 144.649 200.907 144.304 200.732 144C200.556 143.696 200.304 143.444 200 143.268V136ZM206 136C206 135.735 205.895 135.48 205.707 135.293C205.52 135.105 205.265 135 205 135C204.735 135 204.48 135.105 204.293 135.293C204.105 135.48 204 135.735 204 136V137.268C203.696 137.444 203.444 137.696 203.268 138C203.092 138.304 203 138.649 203 139C203 139.351 203.092 139.696 203.268 140C203.444 140.304 203.696 140.556 204 140.732V148C204 148.265 204.105 148.52 204.293 148.707C204.48 148.895 204.735 149 205 149C205.265 149 205.52 148.895 205.707 148.707C205.895 148.52 206 148.265 206 148V140.732C206.304 140.556 206.556 140.304 206.732 140C206.907 139.696 207 139.351 207 139C207 138.649 206.907 138.304 206.732 138C206.556 137.696 206.304 137.444 206 137.268V136ZM211 135C211.265 135 211.52 135.105 211.707 135.293C211.895 135.48 212 135.735 212 136V143.268C212.304 143.444 212.556 143.696 212.732 144C212.907 144.304 213 144.649 213 145C213 145.351 212.907 145.696 212.732 146C212.556 146.304 212.304 146.556 212 146.732V148C212 148.265 211.895 148.52 211.707 148.707C211.52 148.895 211.265 149 211 149C210.735 149 210.48 148.895 210.293 148.707C210.105 148.52 210 148.265 210 148V146.732C209.696 146.556 209.444 146.304 209.268 146C209.092 145.696 209 145.351 209 145C209 144.649 209.092 144.304 209.268 144C209.444 143.696 209.696 143.444 210 143.268V136C210 135.735 210.105 135.48 210.293 135.293C210.48 135.105 210.735 135 211 135Z" fill="#9CA3AF"/>
<rect x="184" y="158" width="42" height="6" rx="3" fill="#9CA3AF"/>
<path d="M237 126V170H239V126H237Z" fill="#4B5563" mask="url(#path-18-inside-3_4128_55394)"/>
<rect width="60" height="44" transform="translate(238 126)" fill="#374151"/>
<path fill-rule="evenodd" clip-rule="evenodd" d="M276 142C276 144.122 275.157 146.157 273.657 147.657C272.157 149.157 270.122 150 268 150C265.878 150 263.843 149.157 262.343 147.657C260.843 146.157 260 144.122 260 142C260 139.878 260.843 137.843 262.343 136.343C263.843 134.843 265.878 134 268 134C270.122 134 272.157 134.843 273.657 136.343C275.157 137.843 276 139.878 276 142ZM270 139C270 139.53 269.789 140.039 269.414 140.414C269.039 140.789 268.53 141 268 141C267.47 141 266.961 140.789 266.586 140.414C266.211 140.039 266 139.53 266 139C266 138.47 266.211 137.961 266.586 137.586C266.961 137.211 267.47 137 268 137C268.53 137 269.039 137.211 269.414 137.586C269.789 137.961 270 138.47 270 139ZM268 143C267.043 143 266.105 143.274 265.299 143.791C264.494 144.308 263.853 145.046 263.454 145.916C264.017 146.571 264.714 147.096 265.499 147.455C266.284 147.815 267.137 148.001 268 148C268.863 148.001 269.716 147.815 270.501 147.455C271.286 147.096 271.983 146.571 272.546 145.916C272.147 145.046 271.506 144.308 270.701 143.791C269.895 143.274 268.957 143 268 143Z" fill="#9CA3AF"/>
<rect x="250" y="158" width="36" height="6" rx="3" fill="#9CA3AF"/>
</g>
<defs>
<clipPath id="clip0_4128_55394">
<rect width="246" height="44" fill="white" transform="translate(52 126)"/>
</clipPath>
</defs>
</svg>
