<svg width="410" height="240" viewBox="0 0 410 240" fill="none" xmlns="http://www.w3.org/2000/svg">
<rect x="71.5" y="53" width="267" height="134" rx="8" fill="#D1D5DB"/>
<circle cx="91.5" cy="120" r="8" fill="#F9FAFB"/>
<path d="M92.2499 122.917L89.3333 120L92.2499 117.083" stroke="#6B7280" stroke-linecap="round" stroke-linejoin="round"/>
<circle cx="319" cy="119.5" r="8" fill="#F9FAFB"/>
<path d="M317.75 116.583L320.667 119.5L317.75 122.417" stroke="#6B7280" stroke-linecap="round" stroke-linejoin="round"/>
<path d="M189 171C189 172.105 188.105 173 187 173C185.895 173 185 172.105 185 171C185 169.895 185.895 169 187 169C188.105 169 189 169.895 189 171Z" fill="white"/>
<path d="M198 171C198 172.105 197.105 173 196 173C194.895 173 194 172.105 194 171C194 169.895 194.895 169 196 169C197.105 169 198 169.895 198 171Z" fill="white"/>
<path d="M207 171C207 172.105 206.105 173 205 173C203.895 173 203 172.105 203 171C203 169.895 203.895 169 205 169C206.105 169 207 169.895 207 171Z" fill="white"/>
<path d="M216 171C216 172.105 215.105 173 214 173C212.895 173 212 172.105 212 171C212 169.895 212.895 169 214 169C215.105 169 216 169.895 216 171Z" fill="white"/>
<path d="M225 171C225 172.105 224.105 173 223 173C221.895 173 221 172.105 221 171C221 169.895 221.895 169 223 169C224.105 169 225 169.895 225 171Z" fill="white"/>
<path fill-rule="evenodd" clip-rule="evenodd" d="M215.844 112.176C217.868 112.176 219.509 110.458 219.509 108.338C219.509 106.218 217.868 104.5 215.844 104.5C213.82 104.5 212.179 106.218 212.179 108.338C212.179 110.458 213.82 112.176 215.844 112.176ZM205.7 135.416H183.545C182.767 135.416 182.287 134.569 182.687 133.902L197.803 108.703C198.185 108.066 199.101 108.049 199.5 108.676C201.458 111.757 206.383 119.518 210.573 126.213L215.117 118.592C215.485 117.976 216.348 117.956 216.757 118.554L227.22 133.833C227.678 134.503 227.232 135.421 226.443 135.429L216.29 135.532L205.7 135.416Z" fill="#9CA3AF"/>
</svg>
