<svg width="268" height="134" viewBox="0 0 268 134" fill="none" xmlns="http://www.w3.org/2000/svg">
<rect x="0.5" width="267" height="134" rx="8" fill="#374151"/>
<circle cx="20.5" cy="67" r="8" fill="#6B7280"/>
<path d="M21.25 69.9168L18.3334 67.0002L21.25 64.0835" stroke="white" stroke-linecap="round" stroke-linejoin="round"/>
<circle cx="248" cy="66.5" r="8" fill="#6B7280"/>
<path d="M246.75 63.5835L249.667 66.5002L246.75 69.4168" stroke="white" stroke-linecap="round" stroke-linejoin="round"/>
<path d="M118 118C118 119.105 117.105 120 116 120C114.895 120 114 119.105 114 118C114 116.895 114.895 116 116 116C117.105 116 118 116.895 118 118Z" fill="#6B7280"/>
<path d="M127 118C127 119.105 126.105 120 125 120C123.895 120 123 119.105 123 118C123 116.895 123.895 116 125 116C126.105 116 127 116.895 127 118Z" fill="#6B7280"/>
<path d="M136 118C136 119.105 135.105 120 134 120C132.895 120 132 119.105 132 118C132 116.895 132.895 116 134 116C135.105 116 136 116.895 136 118Z" fill="#6B7280"/>
<path d="M145 118C145 119.105 144.105 120 143 120C141.895 120 141 119.105 141 118C141 116.895 141.895 116 143 116C144.105 116 145 116.895 145 118Z" fill="#6B7280"/>
<path d="M154 118C154 119.105 153.105 120 152 120C150.895 120 150 119.105 150 118C150 116.895 150.895 116 152 116C153.105 116 154 116.895 154 118Z" fill="#6B7280"/>
<path fill-rule="evenodd" clip-rule="evenodd" d="M144.844 59.1759C146.868 59.1759 148.509 57.4576 148.509 55.3379C148.509 53.2183 146.868 51.5 144.844 51.5C142.82 51.5 141.179 53.2183 141.179 55.3379C141.179 57.4576 142.82 59.1759 144.844 59.1759ZM134.7 82.4164H112.545C111.767 82.4164 111.287 81.5685 111.687 80.902L126.803 55.7033C127.185 55.0658 128.101 55.049 128.5 55.6764C130.458 58.7568 135.383 66.5179 139.573 73.2128L144.117 65.5924C144.485 64.9759 145.348 64.9557 145.757 65.554L156.22 80.8333C156.678 81.5033 156.232 82.4206 155.443 82.4286L145.29 82.5323L134.7 82.4164Z" fill="#4B5563"/>
</svg>
