<svg width="133" height="153" viewBox="0 0 133 153" fill="none" xmlns="http://www.w3.org/2000/svg">
<rect x="0.25" y="0.25" width="132.5" height="152.5" rx="3.75" fill="white"/>
<rect x="8" y="8" width="53" height="6" rx="1" fill="#9CA3AF"/>
<rect x="8" y="18" width="31" height="4" rx="1" fill="#D1D5DB"/>
<rect x="96" y="8" width="29" height="11" rx="3" fill="#DEF7EC"/>
<g clip-path="url(#clip0_4675_1319)">
<path d="M104.27 12.5332L102.77 11.1046C102.735 11.0713 102.694 11.0449 102.648 11.0271C102.556 10.991 102.453 10.991 102.361 11.0271C102.316 11.0449 102.274 11.0713 102.239 11.1046L100.739 12.5332C100.704 12.5661 100.675 12.6055 100.655 12.6491C100.636 12.6927 100.625 12.7395 100.625 12.787C100.625 12.8344 100.634 12.8814 100.653 12.9253C100.672 12.9692 100.7 13.0091 100.735 13.0426C100.77 13.0761 100.812 13.1027 100.858 13.1206C100.904 13.1386 100.953 13.1476 101.003 13.1472C101.053 13.1468 101.102 13.1369 101.148 13.1182C101.194 13.0995 101.235 13.0723 101.27 13.0382L102.13 12.2192V15.6429C102.13 15.7376 102.17 15.8284 102.24 15.8954C102.31 15.9624 102.406 16 102.505 16C102.604 16 102.7 15.9624 102.77 15.8954C102.84 15.8284 102.88 15.7376 102.88 15.6429V12.2192L103.74 13.0382C103.81 13.1032 103.905 13.1392 104.003 13.1384C104.102 13.1376 104.196 13.1 104.265 13.0338C104.335 12.9676 104.374 12.878 104.375 12.7844C104.376 12.6907 104.338 12.6005 104.27 12.5332Z" fill="#057A55"/>
</g>
<path d="M109.609 10.9091V16H108.839V11.6797H108.809L107.591 12.4751V11.7393L108.861 10.9091H109.609ZM112.759 16.0845C112.366 16.0829 112.03 15.9793 111.752 15.7738C111.473 15.5683 111.261 15.2692 111.113 14.8764C110.966 14.4837 110.892 14.0105 110.892 13.457C110.892 12.9052 110.966 12.4337 111.113 12.0426C111.262 11.6515 111.476 11.3532 111.754 11.1477C112.034 10.9422 112.369 10.8395 112.759 10.8395C113.148 10.8395 113.482 10.9431 113.76 11.1502C114.039 11.3557 114.252 11.654 114.399 12.0451C114.548 12.4345 114.623 12.9052 114.623 13.457C114.623 14.0122 114.549 14.4862 114.402 14.8789C114.254 15.27 114.041 15.5691 113.763 15.7763C113.485 15.9818 113.15 16.0845 112.759 16.0845ZM112.759 15.4208C113.103 15.4208 113.373 15.2526 113.567 14.9162C113.762 14.5798 113.86 14.0934 113.86 13.457C113.86 13.0344 113.815 12.6773 113.726 12.3857C113.638 12.0923 113.511 11.8703 113.345 11.7195C113.181 11.567 112.986 11.4908 112.759 11.4908C112.416 11.4908 112.146 11.6598 111.951 11.9979C111.755 12.3359 111.657 12.8223 111.655 13.457C111.655 13.8813 111.699 14.2401 111.787 14.5334C111.876 14.825 112.003 15.0463 112.167 15.1971C112.331 15.3462 112.528 15.4208 112.759 15.4208ZM118.162 15.0455V14.777C118.162 14.5848 118.202 14.4091 118.281 14.25C118.363 14.0893 118.48 13.9608 118.634 13.8647C118.79 13.7669 118.978 13.718 119.199 13.718C119.424 13.718 119.613 13.7661 119.765 13.8622C119.918 13.9583 120.033 14.0868 120.111 14.2475C120.191 14.4083 120.23 14.5848 120.23 14.777V15.0455C120.23 15.2377 120.191 15.4142 120.111 15.5749C120.031 15.734 119.915 15.8625 119.761 15.9602C119.608 16.0563 119.421 16.1044 119.199 16.1044C118.975 16.1044 118.786 16.0563 118.632 15.9602C118.478 15.8625 118.361 15.734 118.281 15.5749C118.202 15.4142 118.162 15.2377 118.162 15.0455ZM118.741 14.777V15.0455C118.741 15.188 118.775 15.3172 118.843 15.4332C118.911 15.5492 119.03 15.6072 119.199 15.6072C119.366 15.6072 119.483 15.5492 119.549 15.4332C119.616 15.3172 119.649 15.188 119.649 15.0455V14.777C119.649 14.6345 119.616 14.5052 119.552 14.3892C119.489 14.2732 119.371 14.2152 119.199 14.2152C119.033 14.2152 118.915 14.2732 118.846 14.3892C118.776 14.5052 118.741 14.6345 118.741 14.777ZM115.602 12.1321V11.8636C115.602 11.6714 115.642 11.4949 115.721 11.3342C115.802 11.1734 115.92 11.045 116.074 10.9489C116.23 10.8527 116.418 10.8047 116.638 10.8047C116.864 10.8047 117.053 10.8527 117.205 10.9489C117.358 11.045 117.473 11.1734 117.551 11.3342C117.629 11.4949 117.667 11.6714 117.667 11.8636V12.1321C117.667 12.3243 117.628 12.5008 117.548 12.6616C117.47 12.8207 117.354 12.9491 117.2 13.0469C117.048 13.143 116.86 13.1911 116.638 13.1911C116.413 13.1911 116.223 13.143 116.069 13.0469C115.917 12.9491 115.801 12.8207 115.721 12.6616C115.642 12.5008 115.602 12.3243 115.602 12.1321ZM116.183 11.8636V12.1321C116.183 12.2746 116.217 12.4039 116.283 12.5199C116.351 12.6359 116.469 12.6939 116.638 12.6939C116.804 12.6939 116.92 12.6359 116.986 12.5199C117.054 12.4039 117.088 12.2746 117.088 12.1321V11.8636C117.088 11.7211 117.056 11.5919 116.991 11.4759C116.927 11.3598 116.809 11.3018 116.638 11.3018C116.473 11.3018 116.355 11.3598 116.285 11.4759C116.217 11.5919 116.183 11.7211 116.183 11.8636ZM115.838 16L119.338 10.9091H119.932L116.432 16H115.838Z" fill="#057A55"/>
<g opacity="0.3">
<path fill-rule="evenodd" clip-rule="evenodd" d="M8.26611 44.2097C8.26611 44.2097 16.3488 68.5166 24.907 68.5166C32.9898 68.5166 32.9898 58.2046 41.548 58.2046C49.6307 58.2046 49.6429 76.5 58.2011 76.5C66.2838 76.5 66.2716 42 74.8298 42C82.9125 42 82.9247 95.5 91.4829 95.5C99.5656 95.5 99.5656 73.5 108.124 73.5C116.207 73.5 124.753 89.8772 124.753 89.8772V114H8.26611V44.2097Z" fill="#C2C4C7"/>
<path fill-rule="evenodd" clip-rule="evenodd" d="M8.26611 44.2097C8.26611 44.2097 16.3488 68.5166 24.907 68.5166C32.9898 68.5166 32.9898 58.2046 41.548 58.2046C49.6307 58.2046 49.6429 76.5 58.2011 76.5C66.2838 76.5 66.2716 42 74.8298 42C82.9125 42 82.9247 95.5 91.4829 95.5C99.5656 95.5 99.5656 73.5 108.124 73.5C116.207 73.5 124.753 89.8772 124.753 89.8772V114H8.26611V44.2097Z" fill="url(#paint0_linear_4675_1319)"/>
</g>
<path fill-rule="evenodd" clip-rule="evenodd" d="M74.8209 40C78.6865 40 80.3831 46.4255 83.4006 66.173L84.0072 70.1514C86.7854 88.1298 88.6272 94.8889 91.477 94.8889C94.2685 94.8889 95.8448 92.5091 98.5199 85.4559L98.9445 84.3246C102.158 75.7303 104.144 72.6151 108.133 72.6151C108.597 72.6151 109.067 72.6718 109.542 72.7832C112.956 73.5841 116.505 77.121 120.063 82.5066C121.464 84.628 122.77 86.8969 123.948 89.1657C124.258 89.7613 124.477 90.3245 124.734 90.8492V91.5473V92.2573V94.3397L123.765 92.523C123.457 91.8812 123.101 91.165 122.7 90.3931C121.555 88.1872 120.285 85.9815 118.927 83.9266C115.581 78.8606 112.274 75.5659 109.284 74.8643C108.893 74.7725 108.509 74.7263 108.133 74.7263C105.146 74.7263 103.457 77.1078 100.802 83.9893L99.6252 87.0991C96.8219 94.369 94.9757 97 91.477 97C87.3301 97 85.4976 90.1619 82.3673 69.6856L81.6266 64.8426C79.0476 48.3077 77.3428 42.1111 74.8209 42.1111C71.839 42.1111 70.067 46.4224 67.2277 58.4948L66.5078 61.57C63.6247 73.715 61.8424 77.9082 58.1648 77.9082C54.4646 77.9082 52.4725 75.6299 49.58 69.4998L48.2806 66.6857C45.7881 61.3983 44.2406 59.6119 41.5087 59.6119C38.3139 59.6119 36.6314 60.8273 33.8993 64.4021L33.3584 65.1204C30.2665 69.2552 28.3909 70.7488 24.8526 70.7488C20.7523 70.7488 16.6697 65.6305 12.6688 57.142C11.2983 54.2343 10.0355 51.1244 8.9081 48.015L8.4565 46.7481C8.38491 46.5436 8.31517 46.3427 8.24731 46.1454V44.278L8.27018 41.1262L8.90273 43.0299L9.25878 44.1319L9.63425 45.2432C9.83328 45.8217 10.0491 46.4333 10.2808 47.0725C11.3842 50.1158 12.6198 53.1585 13.9559 55.9932C17.6882 63.9118 21.4578 68.6377 24.8526 68.6377C27.7682 68.6377 29.3246 67.4949 31.9417 64.0666L32.4677 63.3678C35.6782 59.0745 37.6843 57.5008 41.5087 57.5008C45.0482 57.5008 46.9143 59.7976 49.8432 66.127L50.3084 67.1442C53.2557 73.6194 54.9456 75.7971 58.1648 75.7971C60.8006 75.7971 62.4376 71.8938 65.0511 60.9064L65.9492 57.0777C68.9485 44.4521 70.8663 40 74.8209 40Z" fill="#D1D5DB"/>
<rect x="8" y="140.5" width="32" height="4" rx="1" fill="#D1D5DB"/>
<path d="M46.5061 143.959C46.3735 143.959 46.2464 143.908 46.1526 143.817L44.1526 141.876C44.1049 141.831 44.0668 141.778 44.0406 141.719C44.0144 141.659 44.0006 141.596 44 141.531C43.9994 141.467 44.0121 141.403 44.0372 141.343C44.0624 141.284 44.0995 141.23 44.1464 141.184C44.1934 141.139 44.2492 141.103 44.3107 141.078C44.3721 141.054 44.438 141.041 44.5043 141.042C44.5707 141.043 44.6363 141.056 44.6973 141.081C44.7583 141.107 44.8135 141.144 44.8596 141.19L46.5061 142.788L48.1526 141.19C48.2469 141.102 48.3732 141.053 48.5043 141.054C48.6354 141.055 48.7608 141.106 48.8536 141.196C48.9463 141.286 48.9988 141.408 49 141.535C49.0011 141.662 48.9507 141.785 48.8596 141.876L46.8596 143.817C46.7659 143.908 46.6387 143.959 46.5061 143.959Z" fill="#D1D5DB"/>
<rect x="88" y="140.5" width="37" height="4" rx="1" fill="#1C64F2"/>
<path d="M0 132.5H133V131.5H0V132.5Z" fill="#E5E7EB" mask="url(#path-9-inside-1_4675_1319)"/>
<rect x="0.25" y="0.25" width="132.5" height="152.5" rx="3.75" stroke="#E5E7EB" stroke-width="0.5"/>
<defs>
<linearGradient id="paint0_linear_4675_1319" x1="66.5093" y1="42" x2="66.5093" y2="114" gradientUnits="userSpaceOnUse">
<stop offset="0.046875" stop-color="#D8D8D8" stop-opacity="0"/>
<stop offset="0.916667" stop-color="white"/>
</linearGradient>
<clipPath id="clip0_4675_1319">
<rect width="5" height="5" fill="white" transform="translate(100 11)"/>
</clipPath>
</defs>
</svg>
