<svg width="158" height="76" viewBox="0 0 158 76" fill="none" xmlns="http://www.w3.org/2000/svg">
<rect x="0.5" y="0.5" width="12" height="12" rx="2.5" fill="white" stroke="#D1D5DB"/>
<rect x="23" y="4" width="74.9508" height="5" rx="2" fill="#9CA3AF"/>
<rect x="0.5" y="31.5" width="12" height="12" rx="2.5" fill="#1C64F2" stroke="#1C64F2"/>
<mask id="path-4-inside-1_2666_7027" fill="white">
<path fill-rule="evenodd" clip-rule="evenodd" d="M9.85346 35.1465C9.9472 35.2403 9.99985 35.3674 9.99985 35.5C9.99985 35.6326 9.9472 35.7598 9.85346 35.8535L5.85346 39.8535C5.7597 39.9473 5.63254 39.9999 5.49996 39.9999C5.36738 39.9999 5.24022 39.9473 5.14646 39.8535L3.14646 37.8535C3.05538 37.7592 3.00498 37.6329 3.00612 37.5018C3.00726 37.3707 3.05985 37.2453 3.15255 37.1526C3.24525 37.0599 3.37066 37.0073 3.50176 37.0062C3.63286 37.005 3.75916 37.0554 3.85346 37.1465L5.49996 38.793L9.14646 35.1465C9.24022 35.0528 9.36738 35.0001 9.49996 35.0001C9.63254 35.0001 9.7597 35.0528 9.85346 35.1465Z"/>
</mask>
<path fill-rule="evenodd" clip-rule="evenodd" d="M9.85346 35.1465C9.9472 35.2403 9.99985 35.3674 9.99985 35.5C9.99985 35.6326 9.9472 35.7598 9.85346 35.8535L5.85346 39.8535C5.7597 39.9473 5.63254 39.9999 5.49996 39.9999C5.36738 39.9999 5.24022 39.9473 5.14646 39.8535L3.14646 37.8535C3.05538 37.7592 3.00498 37.6329 3.00612 37.5018C3.00726 37.3707 3.05985 37.2453 3.15255 37.1526C3.24525 37.0599 3.37066 37.0073 3.50176 37.0062C3.63286 37.005 3.75916 37.0554 3.85346 37.1465L5.49996 38.793L9.14646 35.1465C9.24022 35.0528 9.36738 35.0001 9.49996 35.0001C9.63254 35.0001 9.7597 35.0528 9.85346 35.1465Z" fill="white"/>
<path d="M9.85346 35.1465L10.5607 34.4395L10.5605 34.4393L9.85346 35.1465ZM9.99985 35.5H10.9999H9.99985ZM9.85346 35.8535L10.5606 36.5606L10.5607 36.5605L9.85346 35.8535ZM5.85346 39.8535L6.56046 40.5607L6.56057 40.5606L5.85346 39.8535ZM5.14646 39.8535L4.43935 40.5606L4.43946 40.5607L5.14646 39.8535ZM3.14646 37.8535L2.42717 38.5482L2.43321 38.5545L2.43935 38.5606L3.14646 37.8535ZM3.85346 37.1465L4.56057 36.4394L4.55442 36.4333L4.54817 36.4272L3.85346 37.1465ZM5.49996 38.793L4.79285 39.5001L5.49996 40.2072L6.20707 39.5001L5.49996 38.793ZM9.14646 35.1465L8.43946 34.4393L8.43935 34.4394L9.14646 35.1465ZM9.49996 35.0001V36.0001V35.0001ZM9.14625 35.8535C9.05251 35.7598 8.99985 35.6326 8.99985 35.5H10.9999C10.9999 35.1023 10.8419 34.7208 10.5607 34.4395L9.14625 35.8535ZM8.99985 35.5C8.99985 35.3674 9.05251 35.2403 9.14625 35.1465L10.5607 36.5605C10.8419 36.2792 10.9999 35.8978 10.9999 35.5H8.99985ZM9.14635 35.1464L5.14635 39.1464L6.56057 40.5606L10.5606 36.5606L9.14635 35.1464ZM5.14646 39.1463C5.24022 39.0526 5.36738 38.9999 5.49996 38.9999V40.9999C5.89771 40.9999 6.27917 40.8419 6.56046 40.5607L5.14646 39.1463ZM5.49996 38.9999C5.63254 38.9999 5.7597 39.0526 5.85346 39.1463L4.43946 40.5607C4.72075 40.8419 5.10221 40.9999 5.49996 40.9999V38.9999ZM5.85357 39.1464L3.85357 37.1464L2.43935 38.5606L4.43935 40.5606L5.85357 39.1464ZM3.86575 37.1588C3.95683 37.2531 4.00722 37.3794 4.00608 37.5105L2.00616 37.4931C2.00274 37.8864 2.15393 38.2653 2.42717 38.5482L3.86575 37.1588ZM4.00608 37.5105C4.00495 37.6416 3.95236 37.767 3.85966 37.8597L2.44544 36.4455C2.16733 36.7236 2.00958 37.0998 2.00616 37.4931L4.00608 37.5105ZM3.85966 37.8597C3.76695 37.9524 3.64155 38.005 3.51045 38.0061L3.49307 36.0062C3.09977 36.0096 2.72356 36.1674 2.44544 36.4455L3.85966 37.8597ZM3.51045 38.0061C3.37935 38.0073 3.25305 37.9569 3.15875 37.8658L4.54817 36.4272C4.26527 36.154 3.88636 36.0028 3.49307 36.0062L3.51045 38.0061ZM3.14635 37.8536L4.79285 39.5001L6.20707 38.0859L4.56057 36.4394L3.14635 37.8536ZM6.20707 39.5001L9.85357 35.8536L8.43935 34.4394L4.79285 38.0859L6.20707 39.5001ZM9.85346 35.8537C9.7597 35.9475 9.63254 36.0001 9.49996 36.0001V34.0001C9.10221 34.0001 8.72075 34.1581 8.43946 34.4393L9.85346 35.8537ZM9.49996 36.0001C9.36738 36.0001 9.24022 35.9475 9.14646 35.8537L10.5605 34.4393C10.2792 34.1581 9.89771 34.0001 9.49996 34.0001V36.0001Z" fill="white" mask="url(#path-4-inside-1_2666_7027)"/>
<rect x="22.5315" y="35.4375" width="74.95" height="5" rx="2" fill="#9CA3AF"/>
<rect x="0.5" y="63" width="12" height="12" rx="2.5" fill="white" stroke="#D1D5DB"/>
<rect x="23" y="62" width="74.9508" height="5" rx="2" fill="#9CA3AF"/>
<rect x="23" y="73" width="128.278" height="3" rx="1.5" fill="#D1D5DB"/>
</svg>
