<svg width="220" height="240" viewBox="0 0 220 240" fill="none" xmlns="http://www.w3.org/2000/svg">
<g clip-path="url(#clip0_1864_2015)">
<rect x="7" y="8" width="205" height="50" rx="8" fill="#1A56DB"/>
<rect x="31" y="28.5" width="20" height="9" rx="2" fill="white"/>
<rect x="61" y="28.5" width="20" height="9" rx="2" fill="white"/>
<rect x="91" y="28.5" width="80.233" height="9" rx="2" fill="white"/>
<path fill-rule="evenodd" clip-rule="evenodd" d="M186.526 30.293C186.714 30.1055 186.968 30.0002 187.233 30.0002C187.498 30.0002 187.753 30.1055 187.94 30.293L191.233 33.586L194.526 30.293C194.618 30.1974 194.729 30.1213 194.851 30.0689C194.973 30.0164 195.104 29.9889 195.237 29.9877C195.369 29.9866 195.501 30.0119 195.624 30.0621C195.747 30.1124 195.859 30.1867 195.952 30.2806C196.046 30.3745 196.121 30.4861 196.171 30.609C196.221 30.7319 196.246 30.8636 196.245 30.9964C196.244 31.1291 196.217 31.2604 196.164 31.3824C196.112 31.5044 196.036 31.6147 195.94 31.707L191.94 35.707C191.753 35.8944 191.498 35.9997 191.233 35.9997C190.968 35.9997 190.714 35.8944 190.526 35.707L186.526 31.707C186.339 31.5194 186.233 31.2651 186.233 31C186.233 30.7348 186.339 30.4805 186.526 30.293V30.293Z" fill="white"/>
<g filter="url(#filter0_dd_1864_2015)">
<rect x="7" y="70" width="205" height="163" rx="8" fill="white"/>
<rect x="25" y="86" width="13.5714" height="3" rx="1.5" fill="#E5E7EB"/>
<rect x="50.5714" y="86" width="13.5714" height="3" rx="1.5" fill="#E5E7EB"/>
<rect x="76.1428" y="86" width="13.5714" height="3" rx="1.5" fill="#E5E7EB"/>
<rect x="101.714" y="86" width="13.5714" height="3" rx="1.5" fill="#E5E7EB"/>
<rect x="127.286" y="86" width="13.5714" height="3" rx="1.5" fill="#E5E7EB"/>
<rect x="152.857" y="86" width="13.5714" height="3" rx="1.5" fill="#E5E7EB"/>
<rect x="178.429" y="86" width="13.5714" height="3" rx="1.5" fill="#E5E7EB"/>
<rect x="25" y="107" width="13.5714" height="10" rx="2" fill="#E5E7EB"/>
<rect x="50.5714" y="107" width="13.5714" height="10" rx="2" fill="#E5E7EB"/>
<rect x="76.1428" y="107" width="13.5714" height="10" rx="2" fill="#1A56DB"/>
<rect x="101.714" y="107" width="13.5714" height="10" rx="2" fill="#E5E7EB"/>
<rect x="127.286" y="107" width="13.5714" height="10" rx="2" fill="#E5E7EB"/>
<rect x="152.857" y="107" width="13.5714" height="10" rx="2" fill="#E5E7EB"/>
<rect x="178.429" y="107" width="13.5714" height="10" rx="2" fill="#E5E7EB"/>
<rect x="25" y="139" width="13.5714" height="10" rx="2" fill="#E5E7EB"/>
<rect x="50.5714" y="139" width="13.5714" height="10" rx="2" fill="#E5E7EB"/>
<rect x="76.1428" y="139" width="13.5714" height="10" rx="2" fill="#E5E7EB"/>
<rect x="101.714" y="139" width="13.5714" height="10" rx="2" fill="#E5E7EB"/>
<rect x="127.286" y="139" width="13.5714" height="10" rx="2" fill="#E5E7EB"/>
<rect x="152.857" y="139" width="13.5714" height="10" rx="2" fill="#E5E7EB"/>
<rect x="178.429" y="139" width="13.5714" height="10" rx="2" fill="#E5E7EB"/>
<rect x="25" y="171" width="13.5714" height="10" rx="2" fill="#E5E7EB"/>
<rect x="50.5714" y="171" width="13.5714" height="10" rx="2" fill="#E5E7EB"/>
<rect x="76.1428" y="171" width="13.5714" height="10" rx="2" fill="#E5E7EB"/>
<rect x="101.714" y="171" width="13.5714" height="10" rx="2" fill="#E5E7EB"/>
<rect x="127.286" y="171" width="13.5714" height="10" rx="2" fill="#E5E7EB"/>
<rect x="152.857" y="171" width="13.5714" height="10" rx="2" fill="#E5E7EB"/>
<rect x="178.429" y="171" width="13.5714" height="10" rx="2" fill="#E5E7EB"/>
<rect x="25" y="203" width="13.5714" height="10" rx="2" fill="#E5E7EB"/>
<rect x="50.5714" y="203" width="13.5714" height="10" rx="2" fill="#E5E7EB"/>
<rect x="76.1428" y="203" width="13.5714" height="10" rx="2" fill="#E5E7EB"/>
<rect x="101.714" y="203" width="13.5714" height="10" rx="2" fill="#E5E7EB"/>
<rect x="127.286" y="203" width="13.5714" height="10" rx="2" fill="#E5E7EB"/>
<rect x="152.857" y="203" width="13.5714" height="10" rx="2" fill="#E5E7EB"/>
<rect x="178.429" y="203" width="13.5714" height="10" rx="2" fill="#E5E7EB"/>
<rect x="7.5" y="70.5" width="204" height="162" rx="7.5" stroke="#D1D5DB"/>
</g>
</g>
<defs>
<filter id="filter0_dd_1864_2015" x="1" y="68" width="217" height="175" filterUnits="userSpaceOnUse" color-interpolation-filters="sRGB">
<feFlood flood-opacity="0" result="BackgroundImageFix"/>
<feColorMatrix in="SourceAlpha" type="matrix" values="0 0 0 0 0 0 0 0 0 0 0 0 0 0 0 0 0 0 127 0" result="hardAlpha"/>
<feOffset dy="4"/>
<feGaussianBlur stdDeviation="3"/>
<feColorMatrix type="matrix" values="0 0 0 0 0 0 0 0 0 0 0 0 0 0 0 0 0 0 0.1 0"/>
<feBlend mode="normal" in2="BackgroundImageFix" result="effect1_dropShadow_1864_2015"/>
<feColorMatrix in="SourceAlpha" type="matrix" values="0 0 0 0 0 0 0 0 0 0 0 0 0 0 0 0 0 0 127 0" result="hardAlpha"/>
<feOffset dy="2"/>
<feGaussianBlur stdDeviation="2"/>
<feColorMatrix type="matrix" values="0 0 0 0 0 0 0 0 0 0 0 0 0 0 0 0 0 0 0.06 0"/>
<feBlend mode="normal" in2="effect1_dropShadow_1864_2015" result="effect2_dropShadow_1864_2015"/>
<feBlend mode="normal" in="SourceGraphic" in2="effect2_dropShadow_1864_2015" result="shape"/>
</filter>
<clipPath id="clip0_1864_2015">
<rect width="220" height="240" fill="white"/>
</clipPath>
</defs>
</svg>
