<svg width="220" height="240" viewBox="0 0 220 240" fill="none" xmlns="http://www.w3.org/2000/svg">
<g clip-path="url(#clip0_169_147831)">
<rect x="7" y="8" width="205" height="50" rx="8" fill="#EF562F"/>
<rect x="31" y="28.5" width="20" height="9" rx="2" fill="white"/>
<rect x="61" y="28.5" width="20" height="9" rx="2" fill="white"/>
<rect x="91" y="28.5" width="80.233" height="9" rx="2" fill="white"/>
<path fill-rule="evenodd" clip-rule="evenodd" d="M186.526 30.2931C186.713 30.1056 186.968 30.0003 187.233 30.0003C187.498 30.0003 187.752 30.1056 187.94 30.2931L191.233 33.5861L194.526 30.2931C194.618 30.1976 194.728 30.1214 194.85 30.069C194.972 30.0166 195.104 29.989 195.236 29.9878C195.369 29.9867 195.501 30.012 195.624 30.0623C195.747 30.1125 195.858 30.1868 195.952 30.2807C196.046 30.3746 196.12 30.4862 196.171 30.6091C196.221 30.732 196.246 30.8637 196.245 30.9965C196.244 31.1293 196.216 31.2605 196.164 31.3825C196.111 31.5045 196.035 31.6148 195.94 31.7071L191.94 35.7071C191.752 35.8946 191.498 35.9999 191.233 35.9999C190.968 35.9999 190.713 35.8946 190.526 35.7071L186.526 31.7071C186.338 31.5196 186.233 31.2652 186.233 31.0001C186.233 30.7349 186.338 30.4806 186.526 30.2931Z" fill="white"/>
<g filter="url(#filter0_dd_169_147831)">
<rect x="7" y="70" width="205" height="163" rx="8" fill="#374151"/>
<rect x="25" y="86" width="13.5714" height="3" rx="1.5" fill="#9CA3AF"/>
<rect x="50.5713" y="86" width="13.5714" height="3" rx="1.5" fill="#9CA3AF"/>
<rect x="76.1431" y="86" width="13.5714" height="3" rx="1.5" fill="#9CA3AF"/>
<rect x="101.714" y="86" width="13.5714" height="3" rx="1.5" fill="#9CA3AF"/>
<rect x="127.286" y="86" width="13.5714" height="3" rx="1.5" fill="#9CA3AF"/>
<rect x="152.857" y="86" width="13.5714" height="3" rx="1.5" fill="#9CA3AF"/>
<rect x="178.429" y="86" width="13.5714" height="3" rx="1.5" fill="#9CA3AF"/>
<rect x="25" y="107" width="13.5714" height="10" rx="2" fill="#9CA3AF"/>
<rect x="50.5713" y="107" width="13.5714" height="10" rx="2" fill="#9CA3AF"/>
<rect x="76.1431" y="107" width="13.5714" height="10" rx="2" fill="#EF562F"/>
<rect x="101.714" y="107" width="13.5714" height="10" rx="2" fill="#9CA3AF"/>
<rect x="127.286" y="107" width="13.5714" height="10" rx="2" fill="#9CA3AF"/>
<rect x="152.857" y="107" width="13.5714" height="10" rx="2" fill="#9CA3AF"/>
<rect x="178.429" y="107" width="13.5714" height="10" rx="2" fill="#9CA3AF"/>
<rect x="25" y="139" width="13.5714" height="10" rx="2" fill="#9CA3AF"/>
<rect x="50.5713" y="139" width="13.5714" height="10" rx="2" fill="#9CA3AF"/>
<rect x="76.1431" y="139" width="13.5714" height="10" rx="2" fill="#9CA3AF"/>
<rect x="101.714" y="139" width="13.5714" height="10" rx="2" fill="#9CA3AF"/>
<rect x="127.286" y="139" width="13.5714" height="10" rx="2" fill="#9CA3AF"/>
<rect x="152.857" y="139" width="13.5714" height="10" rx="2" fill="#9CA3AF"/>
<rect x="178.429" y="139" width="13.5714" height="10" rx="2" fill="#9CA3AF"/>
<rect x="25" y="171" width="13.5714" height="10" rx="2" fill="#9CA3AF"/>
<rect x="50.5713" y="171" width="13.5714" height="10" rx="2" fill="#9CA3AF"/>
<rect x="76.1431" y="171" width="13.5714" height="10" rx="2" fill="#9CA3AF"/>
<rect x="101.714" y="171" width="13.5714" height="10" rx="2" fill="#9CA3AF"/>
<rect x="127.286" y="171" width="13.5714" height="10" rx="2" fill="#9CA3AF"/>
<rect x="152.857" y="171" width="13.5714" height="10" rx="2" fill="#9CA3AF"/>
<rect x="178.429" y="171" width="13.5714" height="10" rx="2" fill="#9CA3AF"/>
<rect x="25" y="203" width="13.5714" height="10" rx="2" fill="#9CA3AF"/>
<rect x="50.5713" y="203" width="13.5714" height="10" rx="2" fill="#9CA3AF"/>
<rect x="76.1431" y="203" width="13.5714" height="10" rx="2" fill="#9CA3AF"/>
<rect x="101.714" y="203" width="13.5714" height="10" rx="2" fill="#9CA3AF"/>
<rect x="127.286" y="203" width="13.5714" height="10" rx="2" fill="#9CA3AF"/>
<rect x="152.857" y="203" width="13.5714" height="10" rx="2" fill="#9CA3AF"/>
<rect x="178.429" y="203" width="13.5714" height="10" rx="2" fill="#9CA3AF"/>
<rect x="7.5" y="70.5" width="204" height="162" rx="7.5" stroke="#4B5563"/>
</g>
</g>
<defs>
<filter id="filter0_dd_169_147831" x="1" y="68" width="217" height="175" filterUnits="userSpaceOnUse" color-interpolation-filters="sRGB">
<feFlood flood-opacity="0" result="BackgroundImageFix"/>
<feColorMatrix in="SourceAlpha" type="matrix" values="0 0 0 0 0 0 0 0 0 0 0 0 0 0 0 0 0 0 127 0" result="hardAlpha"/>
<feOffset dy="4"/>
<feGaussianBlur stdDeviation="3"/>
<feColorMatrix type="matrix" values="0 0 0 0 0 0 0 0 0 0 0 0 0 0 0 0 0 0 0.1 0"/>
<feBlend mode="normal" in2="BackgroundImageFix" result="effect1_dropShadow_169_147831"/>
<feColorMatrix in="SourceAlpha" type="matrix" values="0 0 0 0 0 0 0 0 0 0 0 0 0 0 0 0 0 0 127 0" result="hardAlpha"/>
<feOffset dy="2"/>
<feGaussianBlur stdDeviation="2"/>
<feColorMatrix type="matrix" values="0 0 0 0 0 0 0 0 0 0 0 0 0 0 0 0 0 0 0.06 0"/>
<feBlend mode="normal" in2="effect1_dropShadow_169_147831" result="effect2_dropShadow_169_147831"/>
<feBlend mode="normal" in="SourceGraphic" in2="effect2_dropShadow_169_147831" result="shape"/>
</filter>
<clipPath id="clip0_169_147831">
<rect width="220" height="240" fill="white"/>
</clipPath>
</defs>
</svg>
