<svg width="251" height="131" viewBox="0 0 251 131" fill="none" xmlns="http://www.w3.org/2000/svg">
<mask id="path-1-inside-1_4434_58869" fill="white">
<rect x="2" width="65" height="120" rx="8"/>
</mask>
<rect x="2" width="65" height="120" rx="8" fill="white"/>
<path d="M1 11C1 10.4477 1.44772 10 2 10V19C1.44772 19 1 18.5523 1 18V11Z" fill="#D1D5DB"/>
<path d="M0 26.3963C0 25.6252 0.62515 25 1.39631 25H2V41H1.39631C0.62515 41 0 40.3749 0 39.6037V26.3963Z" fill="#D1D5DB"/>
<path d="M0 48.3963C0 47.6252 0.62515 47 1.39631 47H2V63H1.39631C0.62515 63 0 62.3749 0 61.6037V48.3963Z" fill="#D1D5DB"/>
<path d="M69 21.3963C69 20.6251 68.3749 20 67.6037 20H67V41H67.6037C68.3749 41 69 40.3748 69 39.6037V21.3963Z" fill="#D1D5DB"/>
<rect x="4.90186" y="2.67871" width="59.1964" height="114.643" rx="8" fill="#E5E7EB"/>
<path d="M17.6697 2.67871H51.2189C51.2189 5.2263 49.1537 7.29153 46.6061 7.29153H22.2825C19.7349 7.29153 17.6697 5.2263 17.6697 2.67871Z" fill="#D1D5DB"/>
<rect x="2" width="65" height="120" rx="8" stroke="#D1D5DB" stroke-width="40" mask="url(#path-1-inside-1_4434_58869)"/>
<path d="M89 4C89 1.79086 90.7909 0 93 0H245C247.209 0 249 1.79086 249 4V93.9526H89V4Z" fill="#E5E7EB"/>
<path d="M89 93.9521H249V101.351C249 103.56 247.209 105.351 245 105.351H93C90.7909 105.351 89 103.56 89 101.351V93.9521Z" fill="#D1D5DB"/>
<path d="M149.893 105.352H188.107V127C188.107 129.209 186.316 131 184.107 131H153.893C151.684 131 149.893 129.209 149.893 127V105.352Z" fill="#E5E7EB"/>
<rect x="92.5714" y="4.0127" width="152.697" height="85.7438" rx="4" fill="#D1D5DB"/>
</svg>
