<svg width="350" height="230" viewBox="0 0 350 230" fill="none" xmlns="http://www.w3.org/2000/svg">
    <g clip-path="url(#clip0_3506_5709)">
    <g filter="url(#filter0_d_3506_5709)">
    <rect x="163" y="6" width="44" height="44" rx="22" fill="white"/>
    <path d="M181 26.0996H181.5V25.5996V23.1996C181.5 22.9079 181.616 22.6281 181.822 22.4218C182.028 22.2155 182.308 22.0996 182.6 22.0996H187.4C187.692 22.0996 187.972 22.2155 188.178 22.4218C188.384 22.6281 188.5 22.9079 188.5 23.1996V25.5996V26.0996H189H189.8C190.092 26.0996 190.372 26.2155 190.578 26.4218C190.784 26.6281 190.9 26.9079 190.9 27.1996V29.5996C190.9 29.8913 190.784 30.1711 190.578 30.3774C190.372 30.5837 190.092 30.6996 189.8 30.6996H189H188.5V31.1996V32.7996C188.5 33.0913 188.384 33.3711 188.178 33.5774C187.972 33.7837 187.692 33.8996 187.4 33.8996H182.6C182.308 33.8996 182.028 33.7837 181.822 33.5774C181.616 33.3711 181.5 33.0913 181.5 32.7996V31.1996V30.6996H181H180.2C179.908 30.6996 179.628 30.5837 179.422 30.3774C179.216 30.1711 179.1 29.8913 179.1 29.5996V27.1996C179.1 26.9079 179.216 26.6281 179.422 26.4218C179.628 26.2155 179.908 26.0996 180.2 26.0996H181ZM187.9 23.1996V22.6996H187.4H182.6H182.1V23.1996V25.5996V26.0996H182.6H187.4H187.9V25.5996V23.1996ZM187.9 29.5996V29.0996H187.4H182.6H182.1V29.5996V32.7996V33.2996H182.6H187.4H187.9V32.7996V29.5996Z" fill="#6B7280" stroke="#6B7280"/>
    <rect x="162.5" y="5.5" width="45" height="45" rx="22.5" stroke="#E5E7EB"/>
    </g>
    <g filter="url(#filter1_d_3506_5709)">
    <rect x="163" y="60" width="44" height="44" rx="22" fill="white"/>
    <path d="M183.7 79.3004V82.0621L183.522 81.884C183.403 81.7614 183.26 81.6636 183.103 81.5961C182.945 81.528 182.774 81.4921 182.601 81.4906C182.429 81.4891 182.258 81.522 182.098 81.5874C181.938 81.6527 181.793 81.7493 181.671 81.8713C181.549 81.9934 181.452 82.1385 181.387 82.2983C181.322 82.4581 181.289 82.6292 181.29 82.8019C181.292 82.9745 181.328 83.1451 181.396 83.3037C181.463 83.4608 181.561 83.603 181.684 83.7222L184.081 86.1195L184.081 86.1196C184.325 86.3633 184.655 86.5002 185 86.5002C185.345 86.5002 185.675 86.3633 185.919 86.1196L185.919 86.1195L188.319 83.7195L188.319 83.7196L188.325 83.7133C188.562 83.4682 188.693 83.1398 188.69 82.7989C188.687 82.4581 188.55 82.132 188.309 81.891C188.068 81.65 187.742 81.5132 187.401 81.5103C187.061 81.5073 186.732 81.6383 186.487 81.8751L186.487 81.8751L186.481 81.8812L186.3 82.0621V79.3004H189.8C190.092 79.3004 190.372 79.4163 190.578 79.6226C190.784 79.8289 190.9 80.1087 190.9 80.4004V86.0004C190.9 86.2921 190.784 86.5719 190.578 86.7782C190.372 86.9845 190.092 87.1004 189.8 87.1004H180.2C179.908 87.1004 179.628 86.9845 179.422 86.7782C179.216 86.5719 179.1 86.2921 179.1 86.0004V80.4004C179.1 80.1087 179.216 79.8289 179.422 79.6226C179.628 79.4163 179.908 79.3004 180.2 79.3004H183.7ZM185.3 78.3004H184.7V77.2004C184.7 77.1208 184.732 77.0445 184.788 76.9883C184.844 76.932 184.92 76.9004 185 76.9004C185.08 76.9004 185.156 76.932 185.212 76.9883C185.268 77.0445 185.3 77.1208 185.3 77.2004V78.3004Z" fill="#6B7280" stroke="#6B7280"/>
    <rect x="162.5" y="59.5" width="45" height="45" rx="22.5" stroke="#E5E7EB"/>
    </g>
    <g filter="url(#filter2_d_3506_5709)">
    <rect x="163" y="114" width="44" height="44" rx="22" fill="white"/>
    <path d="M183.1 135.2C183.1 134.908 183.216 134.628 183.422 134.422C183.628 134.216 183.908 134.1 184.2 134.1H189C189.292 134.1 189.572 134.216 189.778 134.422C189.984 134.628 190.1 134.908 190.1 135.2V140C190.1 140.291 189.984 140.571 189.778 140.777C189.572 140.984 189.292 141.1 189 141.1H184.2C183.908 141.1 183.628 140.984 183.422 140.777C183.216 140.571 183.1 140.291 183.1 140V135.2Z" fill="#6B7280" stroke="#6B7280"/>
    <path d="M181 130.4C180.576 130.4 180.169 130.569 179.869 130.869C179.569 131.169 179.4 131.576 179.4 132V136.8C179.4 137.225 179.569 137.632 179.869 137.932C180.169 138.232 180.576 138.4 181 138.4V132H187.4C187.4 131.576 187.231 131.169 186.931 130.869C186.631 130.569 186.224 130.4 185.8 130.4H181Z" fill="#6B7280"/>
    <rect x="162.5" y="113.5" width="45" height="45" rx="22.5" stroke="#E5E7EB"/>
    </g>
    <rect x="160" y="174" width="50" height="50" rx="25" fill="#1A56DB"/>
    <path d="M185 199H179.5Z" fill="white"/>
    <path d="M185 193.5V199M185 199V204.5M185 199H190.5M185 199H179.5" stroke="white" stroke-width="2" stroke-linecap="round" stroke-linejoin="round"/>
    <g filter="url(#filter3_d_3506_5709)">
    <rect x="91" y="69" width="56" height="26" rx="4" fill="#111928"/>
    <rect x="103" y="80.5" width="32" height="3" rx="1.5" fill="#9CA3AF"/>
    <path d="M153.961 82.7944L147.393 87.8175C147.145 88.0067 147 88.3003 147 88.6118V75.3882C147 75.6996 147.145 75.9933 147.393 76.1825L153.961 81.2056C154.485 81.6059 154.485 82.3941 153.961 82.7944Z" fill="#111928"/>
    </g>
    </g>
    <defs>
    <filter id="filter0_d_3506_5709" x="160" y="4" width="50" height="50" filterUnits="userSpaceOnUse" color-interpolation-filters="sRGB">
    <feFlood flood-opacity="0" result="BackgroundImageFix"/>
    <feColorMatrix in="SourceAlpha" type="matrix" values="0 0 0 0 0 0 0 0 0 0 0 0 0 0 0 0 0 0 127 0" result="hardAlpha"/>
    <feOffset dy="1"/>
    <feGaussianBlur stdDeviation="1"/>
    <feColorMatrix type="matrix" values="0 0 0 0 0 0 0 0 0 0 0 0 0 0 0 0 0 0 0.08 0"/>
    <feBlend mode="normal" in2="BackgroundImageFix" result="effect1_dropShadow_3506_5709"/>
    <feBlend mode="normal" in="SourceGraphic" in2="effect1_dropShadow_3506_5709" result="shape"/>
    </filter>
    <filter id="filter1_d_3506_5709" x="160" y="58" width="50" height="50" filterUnits="userSpaceOnUse" color-interpolation-filters="sRGB">
    <feFlood flood-opacity="0" result="BackgroundImageFix"/>
    <feColorMatrix in="SourceAlpha" type="matrix" values="0 0 0 0 0 0 0 0 0 0 0 0 0 0 0 0 0 0 127 0" result="hardAlpha"/>
    <feOffset dy="1"/>
    <feGaussianBlur stdDeviation="1"/>
    <feColorMatrix type="matrix" values="0 0 0 0 0 0 0 0 0 0 0 0 0 0 0 0 0 0 0.08 0"/>
    <feBlend mode="normal" in2="BackgroundImageFix" result="effect1_dropShadow_3506_5709"/>
    <feBlend mode="normal" in="SourceGraphic" in2="effect1_dropShadow_3506_5709" result="shape"/>
    </filter>
    <filter id="filter2_d_3506_5709" x="160" y="112" width="50" height="50" filterUnits="userSpaceOnUse" color-interpolation-filters="sRGB">
    <feFlood flood-opacity="0" result="BackgroundImageFix"/>
    <feColorMatrix in="SourceAlpha" type="matrix" values="0 0 0 0 0 0 0 0 0 0 0 0 0 0 0 0 0 0 127 0" result="hardAlpha"/>
    <feOffset dy="1"/>
    <feGaussianBlur stdDeviation="1"/>
    <feColorMatrix type="matrix" values="0 0 0 0 0 0 0 0 0 0 0 0 0 0 0 0 0 0 0.08 0"/>
    <feBlend mode="normal" in2="BackgroundImageFix" result="effect1_dropShadow_3506_5709"/>
    <feBlend mode="normal" in="SourceGraphic" in2="effect1_dropShadow_3506_5709" result="shape"/>
    </filter>
    <filter id="filter3_d_3506_5709" x="89" y="68" width="68" height="30" filterUnits="userSpaceOnUse" color-interpolation-filters="sRGB">
    <feFlood flood-opacity="0" result="BackgroundImageFix"/>
    <feColorMatrix in="SourceAlpha" type="matrix" values="0 0 0 0 0 0 0 0 0 0 0 0 0 0 0 0 0 0 127 0" result="hardAlpha"/>
    <feOffset dy="1"/>
    <feGaussianBlur stdDeviation="1"/>
    <feColorMatrix type="matrix" values="0 0 0 0 0 0 0 0 0 0 0 0 0 0 0 0 0 0 0.08 0"/>
    <feBlend mode="normal" in2="BackgroundImageFix" result="effect1_dropShadow_3506_5709"/>
    <feBlend mode="normal" in="SourceGraphic" in2="effect1_dropShadow_3506_5709" result="shape"/>
    </filter>
    <clipPath id="clip0_3506_5709">
    <rect width="350" height="230" fill="white"/>
    </clipPath>
    </defs>
    </svg>
    