<svg width="410" height="240" viewBox="0 0 410 240" fill="none" xmlns="http://www.w3.org/2000/svg">
<rect x="0.25" y="0.25" width="120.5" height="239.5" fill="#374151"/>
<rect x="12" y="12" width="54" height="5" rx="1" fill="#D1D5DB"/>
<rect x="12" y="33" width="30" height="3" rx="1" fill="#D1D5DB"/>
<rect x="12.5" y="40.5" width="96" height="14" rx="3.5" fill="#4B5563"/>
<rect x="19" y="46" width="54" height="3" rx="1" fill="#9CA3AF"/>
<rect x="12.5" y="40.5" width="96" height="14" rx="3.5" stroke="#6B7280"/>
<rect x="12" y="63" width="22" height="3" rx="1" fill="#D1D5DB"/>
<rect x="12.5" y="70.5" width="96" height="34" rx="3.5" fill="#4B5563"/>
<rect x="19" y="76" width="36" height="3" rx="1" fill="#9CA3AF"/>
<rect x="12.5" y="70.5" width="96" height="34" rx="3.5" stroke="#6B7280"/>
<rect x="12" y="113" width="36" height="3" rx="1" fill="#D1D5DB"/>
<rect x="12.5" y="120.5" width="96" height="14" rx="3.5" fill="#4B5563"/>
<rect x="19" y="126" width="33" height="3" rx="1" fill="#9CA3AF"/>
<rect x="12.5" y="120.5" width="96" height="14" rx="3.5" stroke="#6B7280"/>
<rect x="12" y="147" width="97" height="16" rx="3" fill="#EF562F"/>
<rect x="24" y="152" width="6" height="6" rx="3" fill="white"/>
<rect x="37" y="153" width="60" height="4" rx="2" fill="white"/>
<rect x="41" y="223" width="5" height="5" rx="2.5" fill="#9CA3AF"/>
<rect x="58" y="223" width="5" height="5" rx="2.5" fill="#9CA3AF"/>
<rect x="75" y="223" width="5" height="5" rx="2.5" fill="#9CA3AF"/>
<rect x="0.25" y="0.25" width="120.5" height="239.5" stroke="#4B5563" stroke-width="0.5"/>
<rect x="154" y="52" width="101" height="8" rx="3" fill="#9CA3AF"/>
<rect x="154" y="72" width="203" height="8" rx="3" fill="#6B7280"/>
<rect x="154" y="88" width="221" height="8" rx="3" fill="#6B7280"/>
<rect x="154" y="104" width="177" height="8" rx="3" fill="#6B7280"/>
<rect x="154" y="120" width="210" height="8" rx="3" fill="#6B7280"/>
<rect x="154" y="140" width="203" height="8" rx="3" fill="#6B7280"/>
<rect x="154" y="156" width="221" height="8" rx="3" fill="#6B7280"/>
<rect x="154" y="172" width="203" height="8" rx="3" fill="#6B7280"/>
<rect x="154" y="188" width="213" height="8" rx="3" fill="#6B7280"/>
</svg>
