<svg width="312" height="212" viewBox="0 0 312 212" fill="none" xmlns="http://www.w3.org/2000/svg">
<g filter="url(#filter0_d_2665_3614)">
<g filter="url(#filter1_dd_2665_3614)">
<path d="M6 10C6 5.58172 9.58172 2 14 2H83V37H14C9.58172 37 6 33.4183 6 29V10Z" fill="#4B5563"/>
<rect x="30" y="16" width="33" height="7" rx="2" fill="#9CA3AF"/>
<path d="M14 2.5H82.5V36.5H14C9.85786 36.5 6.5 33.1421 6.5 29V10C6.5 5.85786 9.85786 2.5 14 2.5Z" stroke="#4B5563"/>
</g>
<g filter="url(#filter2_dd_2665_3614)">
<path d="M83 2H298C302.418 2 306 5.58172 306 10V29C306 33.4183 302.418 37 298 37H83V2Z" fill="#374151"/>
<rect x="101" y="16" width="150" height="7" rx="2" fill="#6B7280"/>
<path d="M83.5 2.5H298C302.142 2.5 305.5 5.85786 305.5 10V29C305.5 33.1421 302.142 36.5 298 36.5H83.5V2.5Z" stroke="#4B5563"/>
</g>
<rect x="6.5" y="58.5" width="299" height="144.949" rx="3.5" fill="#111928" stroke="#4B5563" stroke-dasharray="5 5"/>
<rect width="163.155" height="59.3855" transform="translate(74.4226 92.9743)" fill="#111928"/>
<path d="M148.5 116.974C147.023 116.976 145.596 116.432 144.495 115.448C143.393 114.463 142.694 113.107 142.53 111.638C142.367 110.17 142.751 108.693 143.609 107.49C144.467 106.287 145.738 105.443 147.18 105.12C146.763 103.174 147.136 101.143 148.216 99.4725C149.297 97.802 150.997 96.6292 152.942 96.2121C154.888 95.7949 156.919 96.1677 158.59 97.2483C160.26 98.329 161.433 100.029 161.85 101.974H162C163.86 101.972 165.654 102.662 167.035 103.908C168.415 105.155 169.283 106.87 169.47 108.721C169.657 110.571 169.149 112.425 168.046 113.923C166.943 115.42 165.323 116.454 163.5 116.824M160.5 112.474L156 107.974M156 107.974L151.5 112.474M156 107.974V125.974" stroke="#6B7280" stroke-width="2" stroke-linecap="round" stroke-linejoin="round"/>
<rect x="93.0591" y="139.974" width="125.882" height="4" rx="2" fill="#9CA3AF"/>
<rect x="81" y="148.974" width="150" height="3.3855" rx="1.69275" fill="#6B7280"/>
</g>
<defs>
<filter id="filter0_d_2665_3614" x="2" y="2" width="308" height="210" filterUnits="userSpaceOnUse" color-interpolation-filters="sRGB">
<feFlood flood-opacity="0" result="BackgroundImageFix"/>
<feColorMatrix in="SourceAlpha" type="matrix" values="0 0 0 0 0 0 0 0 0 0 0 0 0 0 0 0 0 0 127 0" result="hardAlpha"/>
<feOffset dy="4"/>
<feGaussianBlur stdDeviation="2"/>
<feComposite in2="hardAlpha" operator="out"/>
<feColorMatrix type="matrix" values="0 0 0 0 0 0 0 0 0 0 0 0 0 0 0 0 0 0 0.25 0"/>
<feBlend mode="normal" in2="BackgroundImageFix" result="effect1_dropShadow_2665_3614"/>
<feBlend mode="normal" in="SourceGraphic" in2="effect1_dropShadow_2665_3614" result="shape"/>
</filter>
<filter id="filter1_dd_2665_3614" x="0" y="0" width="89" height="47" filterUnits="userSpaceOnUse" color-interpolation-filters="sRGB">
<feFlood flood-opacity="0" result="BackgroundImageFix"/>
<feColorMatrix in="SourceAlpha" type="matrix" values="0 0 0 0 0 0 0 0 0 0 0 0 0 0 0 0 0 0 127 0" result="hardAlpha"/>
<feOffset dy="4"/>
<feGaussianBlur stdDeviation="3"/>
<feColorMatrix type="matrix" values="0 0 0 0 0 0 0 0 0 0 0 0 0 0 0 0 0 0 0.1 0"/>
<feBlend mode="normal" in2="BackgroundImageFix" result="effect1_dropShadow_2665_3614"/>
<feColorMatrix in="SourceAlpha" type="matrix" values="0 0 0 0 0 0 0 0 0 0 0 0 0 0 0 0 0 0 127 0" result="hardAlpha"/>
<feOffset dy="2"/>
<feGaussianBlur stdDeviation="2"/>
<feColorMatrix type="matrix" values="0 0 0 0 0 0 0 0 0 0 0 0 0 0 0 0 0 0 0.06 0"/>
<feBlend mode="normal" in2="effect1_dropShadow_2665_3614" result="effect2_dropShadow_2665_3614"/>
<feBlend mode="normal" in="SourceGraphic" in2="effect2_dropShadow_2665_3614" result="shape"/>
</filter>
<filter id="filter2_dd_2665_3614" x="77" y="0" width="235" height="47" filterUnits="userSpaceOnUse" color-interpolation-filters="sRGB">
<feFlood flood-opacity="0" result="BackgroundImageFix"/>
<feColorMatrix in="SourceAlpha" type="matrix" values="0 0 0 0 0 0 0 0 0 0 0 0 0 0 0 0 0 0 127 0" result="hardAlpha"/>
<feOffset dy="4"/>
<feGaussianBlur stdDeviation="3"/>
<feColorMatrix type="matrix" values="0 0 0 0 0 0 0 0 0 0 0 0 0 0 0 0 0 0 0.1 0"/>
<feBlend mode="normal" in2="BackgroundImageFix" result="effect1_dropShadow_2665_3614"/>
<feColorMatrix in="SourceAlpha" type="matrix" values="0 0 0 0 0 0 0 0 0 0 0 0 0 0 0 0 0 0 127 0" result="hardAlpha"/>
<feOffset dy="2"/>
<feGaussianBlur stdDeviation="2"/>
<feColorMatrix type="matrix" values="0 0 0 0 0 0 0 0 0 0 0 0 0 0 0 0 0 0 0.06 0"/>
<feBlend mode="normal" in2="effect1_dropShadow_2665_3614" result="effect2_dropShadow_2665_3614"/>
<feBlend mode="normal" in="SourceGraphic" in2="effect2_dropShadow_2665_3614" result="shape"/>
</filter>
</defs>
</svg>
