<svg width="312" height="204" viewBox="0 0 312 204" fill="none" xmlns="http://www.w3.org/2000/svg">
<g filter="url(#filter0_dd_2665_3604)">
<path d="M6 10C6 5.58172 9.58172 2 14 2H83V37H14C9.58172 37 6 33.4183 6 29V10Z" fill="#4B5563"/>
<rect x="30" y="16" width="33" height="7" rx="2" fill="#9CA3AF"/>
<path d="M14 2.5H82.5V36.5H14C9.85786 36.5 6.5 33.1421 6.5 29V10C6.5 5.85786 9.85786 2.5 14 2.5Z" stroke="#4B5563"/>
</g>
<g filter="url(#filter1_dd_2665_3604)">
<path d="M83 2H298C302.418 2 306 5.58172 306 10V29C306 33.4183 302.418 37 298 37H83V2Z" fill="white"/>
<rect x="101" y="16" width="150" height="7" rx="2" fill="#9CA3AF"/>
<path d="M83.5 2.5H298C302.142 2.5 305.5 5.85786 305.5 10V29C305.5 33.1421 302.142 36.5 298 36.5H83.5V2.5Z" stroke="#D1D5DB"/>
</g>
<rect x="6.5" y="58.5" width="299" height="145" rx="3.5" fill="white" stroke="#E4E4E7" stroke-dasharray="5 5"/>
<path d="M148.5 116.987C147.023 116.988 145.596 116.445 144.495 115.46C143.393 114.475 142.694 113.119 142.53 111.651C142.367 110.182 142.751 108.705 143.609 107.502C144.467 106.299 145.738 105.456 147.18 105.132C146.763 103.187 147.136 101.155 148.216 99.4848C149.297 97.8143 150.997 96.6415 152.942 96.2244C154.888 95.8072 156.919 96.18 158.59 97.2606C160.26 98.3413 161.433 100.041 161.85 101.987H162C163.86 101.985 165.654 102.674 167.035 103.921C168.415 105.167 169.283 106.882 169.47 108.733C169.657 110.583 169.149 112.437 168.046 113.935C166.943 115.432 165.323 116.466 163.5 116.837M160.5 112.487L156 107.987M156 107.987L151.5 112.487M156 107.987V125.987" stroke="#9CA3AF" stroke-width="2" stroke-linecap="round" stroke-linejoin="round"/>
<rect x="93.0591" y="139.987" width="125.882" height="4" rx="2" fill="#9CA3AF"/>
<rect x="81" y="148.987" width="150" height="3.3855" rx="1.69275" fill="#D1D5DB"/>
<defs>
<filter id="filter0_dd_2665_3604" x="0" y="0" width="89" height="47" filterUnits="userSpaceOnUse" color-interpolation-filters="sRGB">
<feFlood flood-opacity="0" result="BackgroundImageFix"/>
<feColorMatrix in="SourceAlpha" type="matrix" values="0 0 0 0 0 0 0 0 0 0 0 0 0 0 0 0 0 0 127 0" result="hardAlpha"/>
<feOffset dy="4"/>
<feGaussianBlur stdDeviation="3"/>
<feColorMatrix type="matrix" values="0 0 0 0 0 0 0 0 0 0 0 0 0 0 0 0 0 0 0.1 0"/>
<feBlend mode="normal" in2="BackgroundImageFix" result="effect1_dropShadow_2665_3604"/>
<feColorMatrix in="SourceAlpha" type="matrix" values="0 0 0 0 0 0 0 0 0 0 0 0 0 0 0 0 0 0 127 0" result="hardAlpha"/>
<feOffset dy="2"/>
<feGaussianBlur stdDeviation="2"/>
<feColorMatrix type="matrix" values="0 0 0 0 0 0 0 0 0 0 0 0 0 0 0 0 0 0 0.06 0"/>
<feBlend mode="normal" in2="effect1_dropShadow_2665_3604" result="effect2_dropShadow_2665_3604"/>
<feBlend mode="normal" in="SourceGraphic" in2="effect2_dropShadow_2665_3604" result="shape"/>
</filter>
<filter id="filter1_dd_2665_3604" x="77" y="0" width="235" height="47" filterUnits="userSpaceOnUse" color-interpolation-filters="sRGB">
<feFlood flood-opacity="0" result="BackgroundImageFix"/>
<feColorMatrix in="SourceAlpha" type="matrix" values="0 0 0 0 0 0 0 0 0 0 0 0 0 0 0 0 0 0 127 0" result="hardAlpha"/>
<feOffset dy="4"/>
<feGaussianBlur stdDeviation="3"/>
<feColorMatrix type="matrix" values="0 0 0 0 0 0 0 0 0 0 0 0 0 0 0 0 0 0 0.1 0"/>
<feBlend mode="normal" in2="BackgroundImageFix" result="effect1_dropShadow_2665_3604"/>
<feColorMatrix in="SourceAlpha" type="matrix" values="0 0 0 0 0 0 0 0 0 0 0 0 0 0 0 0 0 0 127 0" result="hardAlpha"/>
<feOffset dy="2"/>
<feGaussianBlur stdDeviation="2"/>
<feColorMatrix type="matrix" values="0 0 0 0 0 0 0 0 0 0 0 0 0 0 0 0 0 0 0.06 0"/>
<feBlend mode="normal" in2="effect1_dropShadow_2665_3604" result="effect2_dropShadow_2665_3604"/>
<feBlend mode="normal" in="SourceGraphic" in2="effect2_dropShadow_2665_3604" result="shape"/>
</filter>
</defs>
</svg>
