<svg width="410" height="240" viewBox="0 0 410 240" fill="none" xmlns="http://www.w3.org/2000/svg">
<g filter="url(#filter0_dd_169_147786)">
<rect x="42" y="65" width="327" height="31" rx="4" fill="#374151"/>
<rect x="54" y="77" width="36" height="7" rx="3" fill="#9CA3AF"/>
<rect x="211.5" y="77.5" width="28.875" height="6" rx="2" fill="#6B7280"/>
<rect x="250.375" y="77.5" width="28.875" height="6" rx="2" fill="#6B7280"/>
<rect x="289.25" y="77.5" width="28.875" height="6" rx="2" fill="#6B7280"/>
<rect x="328.125" y="77.5" width="28.875" height="6" rx="2" fill="#6B7280"/>
<rect x="41.5" y="64.5" width="328" height="32" rx="4.5" stroke="#374151"/>
</g>
<g filter="url(#filter1_dd_169_147786)">
<rect x="42" y="117" width="327" height="59" rx="4" fill="#374151"/>
<rect x="54" y="129" width="36" height="7" rx="3" fill="#9CA3AF"/>
<rect x="211.5" y="129.5" width="28.875" height="6" rx="2" fill="#6B7280"/>
<rect x="250.375" y="129.5" width="28.875" height="6" rx="2" fill="#6B7280"/>
<rect x="289.25" y="129.5" width="28.875" height="6" rx="2" fill="#6B7280"/>
<rect x="328.125" y="129.5" width="28.875" height="6" rx="2" fill="#6B7280"/>
<line x1="54" y1="147.5" x2="357" y2="147.5" stroke="#4B5563"/>
<rect x="142" y="160" width="127" height="4" rx="2" fill="#6B7280"/>
<rect x="41.5" y="116.5" width="328" height="60" rx="4.5" stroke="#374151"/>
</g>
<defs>
<filter id="filter0_dd_169_147786" x="35" y="62" width="341" height="45" filterUnits="userSpaceOnUse" color-interpolation-filters="sRGB">
<feFlood flood-opacity="0" result="BackgroundImageFix"/>
<feColorMatrix in="SourceAlpha" type="matrix" values="0 0 0 0 0 0 0 0 0 0 0 0 0 0 0 0 0 0 127 0" result="hardAlpha"/>
<feOffset dy="4"/>
<feGaussianBlur stdDeviation="3"/>
<feColorMatrix type="matrix" values="0 0 0 0 0 0 0 0 0 0 0 0 0 0 0 0 0 0 0.1 0"/>
<feBlend mode="normal" in2="BackgroundImageFix" result="effect1_dropShadow_169_147786"/>
<feColorMatrix in="SourceAlpha" type="matrix" values="0 0 0 0 0 0 0 0 0 0 0 0 0 0 0 0 0 0 127 0" result="hardAlpha"/>
<feOffset dy="2"/>
<feGaussianBlur stdDeviation="2"/>
<feColorMatrix type="matrix" values="0 0 0 0 0 0 0 0 0 0 0 0 0 0 0 0 0 0 0.06 0"/>
<feBlend mode="normal" in2="effect1_dropShadow_169_147786" result="effect2_dropShadow_169_147786"/>
<feBlend mode="normal" in="SourceGraphic" in2="effect2_dropShadow_169_147786" result="shape"/>
</filter>
<filter id="filter1_dd_169_147786" x="35" y="114" width="341" height="73" filterUnits="userSpaceOnUse" color-interpolation-filters="sRGB">
<feFlood flood-opacity="0" result="BackgroundImageFix"/>
<feColorMatrix in="SourceAlpha" type="matrix" values="0 0 0 0 0 0 0 0 0 0 0 0 0 0 0 0 0 0 127 0" result="hardAlpha"/>
<feOffset dy="4"/>
<feGaussianBlur stdDeviation="3"/>
<feColorMatrix type="matrix" values="0 0 0 0 0 0 0 0 0 0 0 0 0 0 0 0 0 0 0.1 0"/>
<feBlend mode="normal" in2="BackgroundImageFix" result="effect1_dropShadow_169_147786"/>
<feColorMatrix in="SourceAlpha" type="matrix" values="0 0 0 0 0 0 0 0 0 0 0 0 0 0 0 0 0 0 127 0" result="hardAlpha"/>
<feOffset dy="2"/>
<feGaussianBlur stdDeviation="2"/>
<feColorMatrix type="matrix" values="0 0 0 0 0 0 0 0 0 0 0 0 0 0 0 0 0 0 0.06 0"/>
<feBlend mode="normal" in2="effect1_dropShadow_169_147786" result="effect2_dropShadow_169_147786"/>
<feBlend mode="normal" in="SourceGraphic" in2="effect2_dropShadow_169_147786" result="shape"/>
</filter>
</defs>
</svg>
