<svg width="341" height="125" viewBox="0 0 341 125" fill="none" xmlns="http://www.w3.org/2000/svg">
<g filter="url(#filter0_dd_2398_3279)">
<rect x="7" y="3" width="327" height="31" rx="4" fill="#374151"/>
<rect x="19" y="15" width="36" height="7" rx="3" fill="#9CA3AF"/>
<rect x="176.5" y="15.5" width="28.875" height="6" rx="2" fill="#6B7280"/>
<rect x="215.375" y="15.5" width="28.875" height="6" rx="2" fill="#6B7280"/>
<rect x="254.25" y="15.5" width="28.875" height="6" rx="2" fill="#6B7280"/>
<rect x="293.125" y="15.5" width="28.875" height="6" rx="2" fill="#6B7280"/>
<rect x="6.5" y="2.5" width="328" height="32" rx="4.5" stroke="#374151"/>
</g>
<g filter="url(#filter1_dd_2398_3279)">
<rect x="7" y="55" width="327" height="59" rx="4" fill="#374151"/>
<rect x="19" y="67" width="36" height="7" rx="3" fill="#9CA3AF"/>
<rect x="176.5" y="67.5" width="28.875" height="6" rx="2" fill="#6B7280"/>
<rect x="215.375" y="67.5" width="28.875" height="6" rx="2" fill="#6B7280"/>
<rect x="254.25" y="67.5" width="28.875" height="6" rx="2" fill="#6B7280"/>
<rect x="293.125" y="67.5" width="28.875" height="6" rx="2" fill="#6B7280"/>
<line x1="19" y1="85.5" x2="322" y2="85.5" stroke="#4B5563"/>
<rect x="107" y="98" width="127" height="4" rx="2" fill="#6B7280"/>
<rect x="6.5" y="54.5" width="328" height="60" rx="4.5" stroke="#374151"/>
</g>
<defs>
<filter id="filter0_dd_2398_3279" x="0" y="0" width="341" height="45" filterUnits="userSpaceOnUse" color-interpolation-filters="sRGB">
<feFlood flood-opacity="0" result="BackgroundImageFix"/>
<feColorMatrix in="SourceAlpha" type="matrix" values="0 0 0 0 0 0 0 0 0 0 0 0 0 0 0 0 0 0 127 0" result="hardAlpha"/>
<feOffset dy="4"/>
<feGaussianBlur stdDeviation="3"/>
<feColorMatrix type="matrix" values="0 0 0 0 0 0 0 0 0 0 0 0 0 0 0 0 0 0 0.1 0"/>
<feBlend mode="normal" in2="BackgroundImageFix" result="effect1_dropShadow_2398_3279"/>
<feColorMatrix in="SourceAlpha" type="matrix" values="0 0 0 0 0 0 0 0 0 0 0 0 0 0 0 0 0 0 127 0" result="hardAlpha"/>
<feOffset dy="2"/>
<feGaussianBlur stdDeviation="2"/>
<feColorMatrix type="matrix" values="0 0 0 0 0 0 0 0 0 0 0 0 0 0 0 0 0 0 0.06 0"/>
<feBlend mode="normal" in2="effect1_dropShadow_2398_3279" result="effect2_dropShadow_2398_3279"/>
<feBlend mode="normal" in="SourceGraphic" in2="effect2_dropShadow_2398_3279" result="shape"/>
</filter>
<filter id="filter1_dd_2398_3279" x="0" y="52" width="341" height="73" filterUnits="userSpaceOnUse" color-interpolation-filters="sRGB">
<feFlood flood-opacity="0" result="BackgroundImageFix"/>
<feColorMatrix in="SourceAlpha" type="matrix" values="0 0 0 0 0 0 0 0 0 0 0 0 0 0 0 0 0 0 127 0" result="hardAlpha"/>
<feOffset dy="4"/>
<feGaussianBlur stdDeviation="3"/>
<feColorMatrix type="matrix" values="0 0 0 0 0 0 0 0 0 0 0 0 0 0 0 0 0 0 0.1 0"/>
<feBlend mode="normal" in2="BackgroundImageFix" result="effect1_dropShadow_2398_3279"/>
<feColorMatrix in="SourceAlpha" type="matrix" values="0 0 0 0 0 0 0 0 0 0 0 0 0 0 0 0 0 0 127 0" result="hardAlpha"/>
<feOffset dy="2"/>
<feGaussianBlur stdDeviation="2"/>
<feColorMatrix type="matrix" values="0 0 0 0 0 0 0 0 0 0 0 0 0 0 0 0 0 0 0.06 0"/>
<feBlend mode="normal" in2="effect1_dropShadow_2398_3279" result="effect2_dropShadow_2398_3279"/>
<feBlend mode="normal" in="SourceGraphic" in2="effect2_dropShadow_2398_3279" result="shape"/>
</filter>
</defs>
</svg>
