<svg width="350" height="230" viewBox="0 0 350 230" fill="none" xmlns="http://www.w3.org/2000/svg">
<rect x="28.5" y="40" width="72" height="72" rx="6" fill="#374151"/>
<path fill-rule="evenodd" clip-rule="evenodd" d="M72.8726 69.6854C74.5287 69.6854 75.8712 68.1888 75.8712 66.3427C75.8712 64.4966 74.5287 63 72.8726 63C71.2165 63 69.874 64.4966 69.874 66.3427C69.874 68.1888 71.2165 69.6854 72.8726 69.6854ZM64.5732 89.9272H46.7124C45.9472 89.9272 45.4656 89.1029 45.8412 88.4363L57.9471 66.9529C58.3239 66.2842 59.2782 66.2652 59.6716 66.9243C61.3747 69.7778 65.2481 76.2778 68.5599 81.9112L72.1654 75.4753C72.5184 74.8451 73.3613 74.8383 73.7627 75.4624L82.0335 88.3204C82.4764 89.009 82.059 89.9323 81.3004 89.9405L73.238 90.0281L64.5732 89.9272Z" fill="#6B7280"/>
<rect x="108.5" y="40" width="133" height="72" rx="6" fill="#374151"/>
<path fill-rule="evenodd" clip-rule="evenodd" d="M183.873 69.6854C185.529 69.6854 186.871 68.1888 186.871 66.3427C186.871 64.4966 185.529 63 183.873 63C182.217 63 180.874 64.4966 180.874 66.3427C180.874 68.1888 182.217 69.6854 183.873 69.6854ZM175.573 89.9272H157.712C156.947 89.9272 156.466 89.1029 156.841 88.4363L168.947 66.9529C169.324 66.2842 170.278 66.2652 170.672 66.9243C172.375 69.7778 176.248 76.2778 179.56 81.9112L183.165 75.4753C183.518 74.8451 184.361 74.8383 184.763 75.4624L193.034 88.3204C193.476 89.009 193.059 89.9323 192.3 89.9405L184.238 90.0281L175.573 89.9272Z" fill="#6B7280"/>
<rect x="249.5" y="40" width="72" height="72" rx="6" fill="#374151"/>
<path fill-rule="evenodd" clip-rule="evenodd" d="M293.873 69.6854C295.529 69.6854 296.871 68.1888 296.871 66.3427C296.871 64.4966 295.529 63 293.873 63C292.217 63 290.874 64.4966 290.874 66.3427C290.874 68.1888 292.217 69.6854 293.873 69.6854ZM285.573 89.9272H267.712C266.947 89.9272 266.466 89.1029 266.841 88.4363L278.947 66.9529C279.324 66.2842 280.278 66.2652 280.672 66.9243C282.375 69.7778 286.248 76.2778 289.56 81.9112L293.165 75.4753C293.518 74.8451 294.361 74.8383 294.763 75.4624L303.034 88.3204C303.476 89.009 303.059 89.9323 302.3 89.9405L294.238 90.0281L285.573 89.9272Z" fill="#6B7280"/>
<rect x="29" y="118" width="132" height="72" rx="6" fill="#374151"/>
<path fill-rule="evenodd" clip-rule="evenodd" d="M102.873 147.685C104.529 147.685 105.871 146.189 105.871 144.343C105.871 142.497 104.529 141 102.873 141C101.217 141 99.874 142.497 99.874 144.343C99.874 146.189 101.217 147.685 102.873 147.685ZM94.5732 167.927H76.7124C75.9472 167.927 75.4656 167.103 75.8412 166.436L87.9471 144.953C88.3239 144.284 89.2782 144.265 89.6716 144.924C91.3747 147.778 95.2481 154.278 98.5599 159.911L102.165 153.475C102.518 152.845 103.361 152.838 103.763 153.462L112.034 166.32C112.476 167.009 112.059 167.932 111.3 167.941L103.238 168.028L94.5732 167.927Z" fill="#6B7280"/>
<rect x="169" y="118" width="72" height="72" rx="6" fill="#374151"/>
<path fill-rule="evenodd" clip-rule="evenodd" d="M213.873 147.685C215.529 147.685 216.871 146.189 216.871 144.343C216.871 142.497 215.529 141 213.873 141C212.217 141 210.874 142.497 210.874 144.343C210.874 146.189 212.217 147.685 213.873 147.685ZM205.573 167.927H187.712C186.947 167.927 186.466 167.103 186.841 166.436L198.947 144.953C199.324 144.284 200.278 144.265 200.672 144.924C202.375 147.778 206.248 154.278 209.56 159.911L213.165 153.475C213.518 152.845 214.361 152.838 214.763 153.462L223.034 166.32C223.476 167.009 223.059 167.932 222.3 167.941L214.238 168.028L205.573 167.927Z" fill="#6B7280"/>
<rect x="249" y="118" width="72" height="72" rx="6" fill="#374151"/>
<path fill-rule="evenodd" clip-rule="evenodd" d="M293.873 147.685C295.529 147.685 296.871 146.189 296.871 144.343C296.871 142.497 295.529 141 293.873 141C292.217 141 290.874 142.497 290.874 144.343C290.874 146.189 292.217 147.685 293.873 147.685ZM285.573 167.927H267.712C266.947 167.927 266.466 167.103 266.841 166.436L278.947 144.953C279.324 144.284 280.278 144.265 280.672 144.924C282.375 147.778 286.248 154.278 289.56 159.911L293.165 153.475C293.518 152.845 294.361 152.838 294.763 153.462L303.034 166.32C303.476 167.009 303.059 167.932 302.3 167.941L294.238 168.028L285.573 167.927Z" fill="#6B7280"/>
</svg>
