<svg width="350" height="230" viewBox="0 0 350 230" fill="none" xmlns="http://www.w3.org/2000/svg">
    <rect x="28.5" y="40" width="72" height="72" rx="6" fill="#D1D5DB"/>
    <path fill-rule="evenodd" clip-rule="evenodd" d="M72.8721 69.6854C74.5282 69.6854 75.8707 68.1888 75.8707 66.3427C75.8707 64.4966 74.5282 63 72.8721 63C71.216 63 69.8735 64.4966 69.8735 66.3427C69.8735 68.1888 71.216 69.6854 72.8721 69.6854ZM64.5727 89.9272H46.7119C45.9467 89.9272 45.4651 89.1029 45.8407 88.4363L57.9466 66.9529C58.3234 66.2842 59.2777 66.2652 59.6711 66.9243C61.3742 69.7778 65.2476 76.2778 68.5594 81.9112L72.1649 75.4753C72.518 74.8451 73.3608 74.8383 73.7622 75.4624L82.033 88.3204C82.4759 89.009 82.0585 89.9323 81.2999 89.9405L73.2375 90.0281L64.5727 89.9272Z" fill="#9CA3AF"/>
    <rect x="108.5" y="40" width="133" height="72" rx="6" fill="#D1D5DB"/>
    <path fill-rule="evenodd" clip-rule="evenodd" d="M183.872 69.6854C185.528 69.6854 186.871 68.1888 186.871 66.3427C186.871 64.4966 185.528 63 183.872 63C182.216 63 180.874 64.4966 180.874 66.3427C180.874 68.1888 182.216 69.6854 183.872 69.6854ZM175.573 89.9272H157.712C156.947 89.9272 156.465 89.1029 156.841 88.4363L168.947 66.9529C169.323 66.2842 170.278 66.2652 170.671 66.9243C172.374 69.7778 176.248 76.2778 179.559 81.9112L183.165 75.4753C183.518 74.8451 184.361 74.8383 184.762 75.4624L193.033 88.3204C193.476 89.009 193.058 89.9323 192.3 89.9405L184.237 90.0281L175.573 89.9272Z" fill="#9CA3AF"/>
    <rect x="249.5" y="40" width="72" height="72" rx="6" fill="#D1D5DB"/>
    <path fill-rule="evenodd" clip-rule="evenodd" d="M293.872 69.6854C295.528 69.6854 296.871 68.1888 296.871 66.3427C296.871 64.4966 295.528 63 293.872 63C292.216 63 290.874 64.4966 290.874 66.3427C290.874 68.1888 292.216 69.6854 293.872 69.6854ZM285.573 89.9272H267.712C266.947 89.9272 266.465 89.1029 266.841 88.4363L278.947 66.9529C279.323 66.2842 280.278 66.2652 280.671 66.9243C282.374 69.7778 286.248 76.2778 289.559 81.9112L293.165 75.4753C293.518 74.8451 294.361 74.8383 294.762 75.4624L303.033 88.3204C303.476 89.009 303.058 89.9323 302.3 89.9405L294.237 90.0281L285.573 89.9272Z" fill="#9CA3AF"/>
    <rect x="29" y="118" width="132" height="72" rx="6" fill="#D1D5DB"/>
    <path fill-rule="evenodd" clip-rule="evenodd" d="M102.872 147.685C104.528 147.685 105.871 146.189 105.871 144.343C105.871 142.497 104.528 141 102.872 141C101.216 141 99.8735 142.497 99.8735 144.343C99.8735 146.189 101.216 147.685 102.872 147.685ZM94.5727 167.927H76.7119C75.9467 167.927 75.4651 167.103 75.8407 166.436L87.9466 144.953C88.3234 144.284 89.2777 144.265 89.6711 144.924C91.3742 147.778 95.2476 154.278 98.5594 159.911L102.165 153.475C102.518 152.845 103.361 152.838 103.762 153.462L112.033 166.32C112.476 167.009 112.058 167.932 111.3 167.941L103.237 168.028L94.5727 167.927Z" fill="#9CA3AF"/>
    <rect x="169" y="118" width="72" height="72" rx="6" fill="#D1D5DB"/>
    <path fill-rule="evenodd" clip-rule="evenodd" d="M213.872 147.685C215.528 147.685 216.871 146.189 216.871 144.343C216.871 142.497 215.528 141 213.872 141C212.216 141 210.874 142.497 210.874 144.343C210.874 146.189 212.216 147.685 213.872 147.685ZM205.573 167.927H187.712C186.947 167.927 186.465 167.103 186.841 166.436L198.947 144.953C199.323 144.284 200.278 144.265 200.671 144.924C202.374 147.778 206.248 154.278 209.559 159.911L213.165 153.475C213.518 152.845 214.361 152.838 214.762 153.462L223.033 166.32C223.476 167.009 223.058 167.932 222.3 167.941L214.237 168.028L205.573 167.927Z" fill="#9CA3AF"/>
    <rect x="249" y="118" width="72" height="72" rx="6" fill="#D1D5DB"/>
    <path fill-rule="evenodd" clip-rule="evenodd" d="M293.872 147.685C295.528 147.685 296.871 146.189 296.871 144.343C296.871 142.497 295.528 141 293.872 141C292.216 141 290.874 142.497 290.874 144.343C290.874 146.189 292.216 147.685 293.872 147.685ZM285.573 167.927H267.712C266.947 167.927 266.465 167.103 266.841 166.436L278.947 144.953C279.323 144.284 280.278 144.265 280.671 144.924C282.374 147.778 286.248 154.278 289.559 159.911L293.165 153.475C293.518 152.845 294.361 152.838 294.762 153.462L303.033 166.32C303.476 167.009 303.058 167.932 302.3 167.941L294.237 168.028L285.573 167.927Z" fill="#9CA3AF"/>
</svg>    