<svg width="350" height="230" viewBox="0 0 350 230" fill="none" xmlns="http://www.w3.org/2000/svg">
<mask id="mask0_3669_18821" style="mask-type:alpha" maskUnits="userSpaceOnUse" x="59" y="57" width="30" height="30">
<circle cx="73.5756" cy="71.5756" r="14.5756" fill="#E5E7EB"/>
</mask>
<g mask="url(#mask0_3669_18821)">
<circle cx="73.5756" cy="71.5756" r="14.5756" fill="#4B5563"/>
<path fill-rule="evenodd" clip-rule="evenodd" d="M73.5756 73.0569C74.8109 73.0569 75.9957 72.5662 76.8692 71.6927C77.7427 70.8191 78.2334 69.6344 78.2334 68.3991C78.2334 67.1637 77.7427 65.979 76.8692 65.1055C75.9957 64.2319 74.8109 63.7412 73.5756 63.7412C72.3403 63.7412 71.1555 64.2319 70.282 65.1055C69.4085 65.979 68.9177 67.1637 68.9177 68.3991C68.9177 69.6344 69.4085 70.8191 70.282 71.6927C71.1555 72.5662 72.3403 73.0569 73.5756 73.0569ZM62.7073 87.0305C62.7073 85.6032 62.9884 84.1899 63.5346 82.8713C64.0808 81.5527 64.8813 80.3546 65.8905 79.3454C66.8997 78.3362 68.0979 77.5356 69.4165 76.9894C70.7351 76.4433 72.1483 76.1621 73.5756 76.1621C75.0028 76.1621 76.4161 76.4433 77.7347 76.9894C79.0533 77.5356 80.2514 78.3362 81.2607 79.3454C82.2699 80.3546 83.0704 81.5527 83.6166 82.8713C84.1628 84.1899 84.4439 85.6032 84.4439 87.0305H62.7073Z" fill="#9CA3AF"/>
</g>
<rect x="97.1512" y="61.5752" width="52" height="8" rx="2" fill="#9CA3AF"/>
<rect x="97.1512" y="75.5752" width="80" height="6" rx="3" fill="#6B7280"/>
<rect x="218" y="63.0752" width="73" height="17" rx="6" fill="#4B5563"/>
<circle cx="231" cy="71.5752" r="3" fill="#31C48D"/>
<path d="M239.507 75.0752H238.342L240.96 67.8025H242.227L244.844 75.0752H243.68L241.624 69.1235H241.567L239.507 75.0752ZM239.702 72.2272H243.481V73.1505H239.702V72.2272ZM249.792 69.6206L247.814 75.0752H246.678L244.696 69.6206H245.836L247.218 73.8181H247.274L248.652 69.6206H249.792ZM252.221 75.1959C251.875 75.1959 251.563 75.132 251.284 75.0042C251.004 74.874 250.783 74.6858 250.619 74.4395C250.459 74.1933 250.378 73.8915 250.378 73.534C250.378 73.2262 250.437 72.9729 250.556 72.7741C250.674 72.5752 250.834 72.4178 251.035 72.3018C251.236 72.1858 251.461 72.0982 251.71 72.039C251.958 71.9798 252.212 71.9348 252.47 71.904C252.796 71.8662 253.061 71.8354 253.265 71.8117C253.469 71.7857 253.617 71.7442 253.709 71.6874C253.801 71.6306 253.847 71.5383 253.847 71.4104V71.3856C253.847 71.0754 253.76 70.8351 253.585 70.6647C253.412 70.4942 253.154 70.409 252.811 70.409C252.453 70.409 252.171 70.4883 251.965 70.6469C251.762 70.8032 251.621 70.9772 251.543 71.1689L250.545 70.9417C250.663 70.6102 250.836 70.3427 251.063 70.1391C251.293 69.9331 251.557 69.784 251.855 69.6917C252.154 69.597 252.467 69.5496 252.796 69.5496C253.014 69.5496 253.245 69.5757 253.489 69.6278C253.735 69.6775 253.965 69.7698 254.178 69.9047C254.393 70.0397 254.57 70.2326 254.707 70.4836C254.844 70.7322 254.913 71.0553 254.913 71.453V75.0752H253.876V74.3295H253.833C253.765 74.4668 253.662 74.6017 253.524 74.7343C253.387 74.8669 253.211 74.9769 252.995 75.0645C252.78 75.1521 252.522 75.1959 252.221 75.1959ZM252.452 74.3437C252.745 74.3437 252.996 74.2857 253.205 74.1697C253.415 74.0537 253.575 73.9021 253.684 73.7151C253.795 73.5257 253.851 73.3233 253.851 73.1079V72.4047C253.813 72.4426 253.74 72.4781 253.631 72.5113C253.524 72.5421 253.402 72.5693 253.265 72.593C253.128 72.6143 252.994 72.6344 252.864 72.6533C252.734 72.6699 252.625 72.6841 252.537 72.6959C252.331 72.722 252.143 72.7658 251.972 72.8273C251.804 72.8889 251.669 72.9777 251.568 73.0937C251.468 73.2073 251.419 73.3588 251.419 73.5482C251.419 73.811 251.516 74.0099 251.71 74.1448C251.904 74.2774 252.151 74.3437 252.452 74.3437ZM256.327 75.0752V69.6206H257.389V75.0752H256.327ZM256.863 68.779C256.679 68.779 256.52 68.7175 256.387 68.5944C256.257 68.4689 256.192 68.3197 256.192 68.1469C256.192 67.9717 256.257 67.8226 256.387 67.6995C256.52 67.574 256.679 67.5113 256.863 67.5113C257.048 67.5113 257.205 67.574 257.336 67.6995C257.468 67.8226 257.534 67.9717 257.534 68.1469C257.534 68.3197 257.468 68.4689 257.336 68.5944C257.205 68.7175 257.048 68.779 256.863 68.779ZM259.879 67.8025V75.0752H258.817V67.8025H259.879ZM262.895 75.1959C262.549 75.1959 262.237 75.132 261.957 75.0042C261.678 74.874 261.457 74.6858 261.293 74.4395C261.132 74.1933 261.052 73.8915 261.052 73.534C261.052 73.2262 261.111 72.9729 261.229 72.7741C261.348 72.5752 261.508 72.4178 261.709 72.3018C261.91 72.1858 262.135 72.0982 262.384 72.039C262.632 71.9798 262.885 71.9348 263.143 71.904C263.47 71.8662 263.735 71.8354 263.939 71.8117C264.143 71.7857 264.29 71.7442 264.383 71.6874C264.475 71.6306 264.521 71.5383 264.521 71.4104V71.3856C264.521 71.0754 264.434 70.8351 264.259 70.6647C264.086 70.4942 263.828 70.409 263.484 70.409C263.127 70.409 262.845 70.4883 262.639 70.6469C262.436 70.8032 262.295 70.9772 262.217 71.1689L261.219 70.9417C261.337 70.6102 261.51 70.3427 261.737 70.1391C261.967 69.9331 262.231 69.784 262.529 69.6917C262.827 69.597 263.141 69.5496 263.47 69.5496C263.688 69.5496 263.919 69.5757 264.163 69.6278C264.409 69.6775 264.638 69.7698 264.852 69.9047C265.067 70.0397 265.243 70.2326 265.381 70.4836C265.518 70.7322 265.587 71.0553 265.587 71.453V75.0752H264.55V74.3295H264.507C264.438 74.4668 264.335 74.6017 264.198 74.7343C264.061 74.8669 263.884 74.9769 263.669 75.0645C263.454 75.1521 263.196 75.1959 262.895 75.1959ZM263.126 74.3437C263.419 74.3437 263.67 74.2857 263.879 74.1697C264.089 74.0537 264.249 73.9021 264.358 73.7151C264.469 73.5257 264.525 73.3233 264.525 73.1079V72.4047C264.487 72.4426 264.414 72.4781 264.305 72.5113C264.198 72.5421 264.076 72.5693 263.939 72.593C263.802 72.6143 263.668 72.6344 263.538 72.6533C263.407 72.6699 263.299 72.6841 263.211 72.6959C263.005 72.722 262.817 72.7658 262.646 72.8273C262.478 72.8889 262.343 72.9777 262.241 73.0937C262.142 73.2073 262.092 73.3588 262.092 73.5482C262.092 73.811 262.189 74.0099 262.384 74.1448C262.578 74.2774 262.825 74.3437 263.126 74.3437ZM267.086 75.0752V67.8025H268.148V70.5049H268.212C268.273 70.3912 268.362 70.2599 268.478 70.1107C268.594 69.9616 268.755 69.8314 268.961 69.7201C269.167 69.6064 269.439 69.5496 269.778 69.5496C270.218 69.5496 270.611 69.6609 270.957 69.8834C271.302 70.106 271.574 70.4268 271.77 70.8458C271.969 71.2648 272.068 71.7691 272.068 72.3586C272.068 72.9481 271.97 73.4535 271.774 73.8749C271.577 74.2939 271.307 74.6171 270.964 74.8444C270.621 75.0693 270.229 75.1817 269.789 75.1817C269.457 75.1817 269.186 75.1261 268.975 75.0148C268.767 74.9036 268.604 74.7733 268.485 74.6242C268.367 74.4751 268.276 74.3425 268.212 74.2265H268.123V75.0752H267.086ZM268.127 72.3479C268.127 72.7314 268.182 73.0676 268.294 73.3564C268.405 73.6453 268.566 73.8714 268.776 74.0347C268.987 74.1957 269.245 74.2762 269.551 74.2762C269.868 74.2762 270.133 74.1921 270.346 74.0241C270.559 73.8536 270.72 73.6228 270.829 73.3316C270.94 73.0404 270.996 72.7125 270.996 72.3479C270.996 71.9881 270.941 71.6649 270.833 71.3785C270.726 71.092 270.565 70.8659 270.35 70.7002C270.137 70.5345 269.87 70.4516 269.551 70.4516C269.243 70.4516 268.982 70.5309 268.769 70.6895C268.559 70.8482 268.399 71.0695 268.29 71.3536C268.181 71.6377 268.127 71.9691 268.127 72.3479ZM274.322 67.8025V75.0752H273.261V67.8025H274.322ZM278.102 75.1853C277.564 75.1853 277.102 75.0705 276.713 74.8408C276.327 74.6088 276.029 74.2833 275.818 73.8643C275.61 73.4429 275.506 72.9492 275.506 72.3834C275.506 71.8247 275.61 71.3323 275.818 70.9062C276.029 70.48 276.323 70.1474 276.699 69.9083C277.078 69.6692 277.521 69.5496 278.027 69.5496C278.335 69.5496 278.633 69.6005 278.922 69.7023C279.211 69.8041 279.47 69.9639 279.7 70.1817C279.929 70.3995 280.11 70.6824 280.243 71.0305C280.376 71.3761 280.442 71.7963 280.442 72.2911V72.6675H276.106V71.8721H279.401C279.401 71.5927 279.345 71.3453 279.231 71.1299C279.117 70.9121 278.958 70.7404 278.752 70.615C278.548 70.4895 278.309 70.4268 278.034 70.4268C277.736 70.4268 277.476 70.5001 277.253 70.6469C277.033 70.7913 276.862 70.9807 276.742 71.2151C276.623 71.4471 276.564 71.6992 276.564 71.9715V72.593C276.564 72.9575 276.628 73.2677 276.756 73.5233C276.886 73.779 277.067 73.9743 277.299 74.1093C277.531 74.2419 277.802 74.3081 278.112 74.3081C278.314 74.3081 278.497 74.2797 278.663 74.2229C278.829 74.1637 278.972 74.0761 279.093 73.9601C279.213 73.8441 279.306 73.7009 279.369 73.5305L280.374 73.7116C280.294 74.0075 280.15 74.2667 279.941 74.4893C279.735 74.7094 279.476 74.8811 279.164 75.0042C278.853 75.1249 278.499 75.1853 278.102 75.1853Z" fill="#31C48D"/>
<mask id="mask1_3669_18821" style="mask-type:alpha" maskUnits="userSpaceOnUse" x="59" y="100" width="30" height="30">
<circle cx="73.5756" cy="114.727" r="14.5756" fill="#E5E7EB"/>
</mask>
<g mask="url(#mask1_3669_18821)">
<circle cx="73.5756" cy="114.727" r="14.5756" fill="#4B5563"/>
<path fill-rule="evenodd" clip-rule="evenodd" d="M73.5756 116.208C74.8109 116.208 75.9957 115.718 76.8692 114.844C77.7427 113.971 78.2334 112.786 78.2334 111.55C78.2334 110.315 77.7427 109.13 76.8692 108.257C75.9957 107.383 74.8109 106.893 73.5756 106.893C72.3403 106.893 71.1555 107.383 70.282 108.257C69.4085 109.13 68.9177 110.315 68.9177 111.55C68.9177 112.786 69.4085 113.971 70.282 114.844C71.1555 115.718 72.3403 116.208 73.5756 116.208ZM62.7073 130.182C62.7073 128.755 62.9884 127.341 63.5346 126.023C64.0808 124.704 64.8813 123.506 65.8905 122.497C66.8997 121.488 68.0979 120.687 69.4165 120.141C70.7351 119.595 72.1483 119.314 73.5756 119.314C75.0028 119.314 76.4161 119.595 77.7347 120.141C79.0533 120.687 80.2514 121.488 81.2607 122.497C82.2699 123.506 83.0704 124.704 83.6166 126.023C84.1628 127.341 84.4439 128.755 84.4439 130.182H62.7073Z" fill="#9CA3AF"/>
</g>
<rect x="97.1512" y="104.727" width="41" height="8" rx="2" fill="#9CA3AF"/>
<rect x="97.1512" y="118.727" width="71" height="6" rx="3" fill="#6B7280"/>
<rect x="205" y="106.227" width="86" height="17" rx="6" fill="#4B5563"/>
<circle cx="218" cy="114.727" r="3" fill="#F98080"/>
<path d="M230.805 110.954H231.906V115.737C231.906 116.246 231.786 116.697 231.547 117.09C231.308 117.481 230.972 117.789 230.539 118.013C230.105 118.236 229.598 118.347 229.015 118.347C228.435 118.347 227.929 118.236 227.495 118.013C227.062 117.789 226.726 117.481 226.487 117.09C226.248 116.697 226.128 116.246 226.128 115.737V110.954H227.225V115.648C227.225 115.978 227.298 116.27 227.442 116.526C227.589 116.781 227.796 116.982 228.063 117.129C228.331 117.274 228.648 117.346 229.015 117.346C229.384 117.346 229.703 117.274 229.97 117.129C230.24 116.982 230.446 116.781 230.588 116.526C230.733 116.27 230.805 115.978 230.805 115.648V110.954ZM234.478 114.988V118.227H233.416V112.772H234.435V113.66H234.503C234.628 113.371 234.825 113.139 235.092 112.964C235.362 112.789 235.702 112.701 236.111 112.701C236.483 112.701 236.808 112.779 237.088 112.935C237.367 113.089 237.584 113.319 237.738 113.624C237.892 113.93 237.968 114.307 237.968 114.757V118.227H236.907V114.885C236.907 114.49 236.804 114.181 236.598 113.958C236.392 113.733 236.109 113.621 235.749 113.621C235.503 113.621 235.284 113.674 235.092 113.781C234.903 113.887 234.752 114.043 234.641 114.249C234.532 114.453 234.478 114.699 234.478 114.988ZM240.98 118.347C240.634 118.347 240.322 118.283 240.042 118.156C239.763 118.025 239.542 117.837 239.378 117.591C239.217 117.345 239.137 117.043 239.137 116.685C239.137 116.378 239.196 116.124 239.314 115.925C239.433 115.727 239.593 115.569 239.794 115.453C239.995 115.337 240.22 115.25 240.468 115.19C240.717 115.131 240.97 115.086 241.228 115.055C241.555 115.018 241.82 114.987 242.024 114.963C242.227 114.937 242.375 114.896 242.468 114.839C242.56 114.782 242.606 114.69 242.606 114.562V114.537C242.606 114.227 242.519 113.987 242.343 113.816C242.171 113.646 241.913 113.56 241.569 113.56C241.212 113.56 240.93 113.64 240.724 113.798C240.521 113.955 240.38 114.129 240.302 114.32L239.304 114.093C239.422 113.762 239.595 113.494 239.822 113.29C240.052 113.085 240.316 112.935 240.614 112.843C240.912 112.748 241.226 112.701 241.555 112.701C241.773 112.701 242.004 112.727 242.248 112.779C242.494 112.829 242.723 112.921 242.937 113.056C243.152 113.191 243.328 113.384 243.466 113.635C243.603 113.884 243.672 114.207 243.672 114.604V118.227H242.635V117.481H242.592C242.523 117.618 242.42 117.753 242.283 117.886C242.146 118.018 241.969 118.128 241.754 118.216C241.539 118.304 241.281 118.347 240.98 118.347ZM241.211 117.495C241.504 117.495 241.755 117.437 241.964 117.321C242.174 117.205 242.334 117.054 242.443 116.866C242.554 116.677 242.61 116.475 242.61 116.259V115.556C242.572 115.594 242.499 115.629 242.39 115.663C242.283 115.693 242.161 115.721 242.024 115.744C241.887 115.766 241.753 115.786 241.623 115.805C241.492 115.821 241.383 115.835 241.296 115.847C241.09 115.873 240.902 115.917 240.731 115.979C240.563 116.04 240.428 116.129 240.326 116.245C240.227 116.359 240.177 116.51 240.177 116.7C240.177 116.962 240.274 117.161 240.468 117.296C240.663 117.429 240.91 117.495 241.211 117.495ZM249.557 112.772L247.579 118.227H246.442L244.461 112.772H245.601L246.982 116.969H247.039L248.417 112.772H249.557ZM251.986 118.347C251.64 118.347 251.328 118.283 251.048 118.156C250.769 118.025 250.547 117.837 250.384 117.591C250.223 117.345 250.143 117.043 250.143 116.685C250.143 116.378 250.202 116.124 250.32 115.925C250.439 115.727 250.598 115.569 250.8 115.453C251.001 115.337 251.226 115.25 251.474 115.19C251.723 115.131 251.976 115.086 252.234 115.055C252.561 115.018 252.826 114.987 253.03 114.963C253.233 114.937 253.381 114.896 253.474 114.839C253.566 114.782 253.612 114.69 253.612 114.562V114.537C253.612 114.227 253.525 113.987 253.349 113.816C253.177 113.646 252.918 113.56 252.575 113.56C252.218 113.56 251.936 113.64 251.73 113.798C251.526 113.955 251.386 114.129 251.307 114.32L250.31 114.093C250.428 113.762 250.601 113.494 250.828 113.29C251.058 113.085 251.322 112.935 251.62 112.843C251.918 112.748 252.232 112.701 252.561 112.701C252.779 112.701 253.01 112.727 253.253 112.779C253.5 112.829 253.729 112.921 253.942 113.056C254.158 113.191 254.334 113.384 254.472 113.635C254.609 113.884 254.677 114.207 254.677 114.604V118.227H253.641V117.481H253.598C253.529 117.618 253.426 117.753 253.289 117.886C253.152 118.018 252.975 118.128 252.76 118.216C252.544 118.304 252.286 118.347 251.986 118.347ZM252.217 117.495C252.51 117.495 252.761 117.437 252.969 117.321C253.18 117.205 253.34 117.054 253.449 116.866C253.56 116.677 253.616 116.475 253.616 116.259V115.556C253.578 115.594 253.504 115.629 253.396 115.663C253.289 115.693 253.167 115.721 253.03 115.744C252.892 115.766 252.759 115.786 252.628 115.805C252.498 115.821 252.389 115.835 252.302 115.847C252.096 115.873 251.908 115.917 251.737 115.979C251.569 116.04 251.434 116.129 251.332 116.245C251.233 116.359 251.183 116.51 251.183 116.7C251.183 116.962 251.28 117.161 251.474 117.296C251.668 117.429 251.916 117.495 252.217 117.495ZM256.092 118.227V112.772H257.153V118.227H256.092ZM256.628 111.93C256.443 111.93 256.285 111.869 256.152 111.746C256.022 111.62 255.957 111.471 255.957 111.298C255.957 111.123 256.022 110.974 256.152 110.851C256.285 110.725 256.443 110.663 256.628 110.663C256.813 110.663 256.97 110.725 257.1 110.851C257.233 110.974 257.299 111.123 257.299 111.298C257.299 111.471 257.233 111.62 257.1 111.746C256.97 111.869 256.813 111.93 256.628 111.93ZM259.644 110.954V118.227H258.582V110.954H259.644ZM262.66 118.347C262.314 118.347 262.001 118.283 261.722 118.156C261.443 118.025 261.221 117.837 261.058 117.591C260.897 117.345 260.816 117.043 260.816 116.685C260.816 116.378 260.876 116.124 260.994 115.925C261.112 115.727 261.272 115.569 261.473 115.453C261.675 115.337 261.9 115.25 262.148 115.19C262.397 115.131 262.65 115.086 262.908 115.055C263.235 115.018 263.5 114.987 263.704 114.963C263.907 114.937 264.055 114.896 264.147 114.839C264.24 114.782 264.286 114.69 264.286 114.562V114.537C264.286 114.227 264.198 113.987 264.023 113.816C263.85 113.646 263.592 113.56 263.249 113.56C262.892 113.56 262.61 113.64 262.404 113.798C262.2 113.955 262.059 114.129 261.981 114.32L260.983 114.093C261.102 113.762 261.275 113.494 261.502 113.29C261.732 113.085 261.995 112.935 262.294 112.843C262.592 112.748 262.906 112.701 263.235 112.701C263.453 112.701 263.683 112.727 263.927 112.779C264.174 112.829 264.403 112.921 264.616 113.056C264.832 113.191 265.008 113.384 265.145 113.635C265.283 113.884 265.351 114.207 265.351 114.604V118.227H264.314V117.481H264.272C264.203 117.618 264.1 117.753 263.963 117.886C263.825 118.018 263.649 118.128 263.434 118.216C263.218 118.304 262.96 118.347 262.66 118.347ZM262.89 117.495C263.184 117.495 263.435 117.437 263.643 117.321C263.854 117.205 264.014 117.054 264.123 116.866C264.234 116.677 264.29 116.475 264.29 116.259V115.556C264.252 115.594 264.178 115.629 264.069 115.663C263.963 115.693 263.841 115.721 263.704 115.744C263.566 115.766 263.432 115.786 263.302 115.805C263.172 115.821 263.063 115.835 262.976 115.847C262.77 115.873 262.581 115.917 262.411 115.979C262.243 116.04 262.108 116.129 262.006 116.245C261.907 116.359 261.857 116.51 261.857 116.7C261.857 116.962 261.954 117.161 262.148 117.296C262.342 117.429 262.59 117.495 262.89 117.495ZM266.851 118.227V110.954H267.913V113.656H267.976C268.038 113.543 268.127 113.411 268.243 113.262C268.359 113.113 268.52 112.983 268.726 112.871C268.932 112.758 269.204 112.701 269.543 112.701C269.983 112.701 270.376 112.812 270.722 113.035C271.067 113.257 271.338 113.578 271.535 113.997C271.734 114.416 271.833 114.92 271.833 115.51C271.833 116.099 271.735 116.605 271.538 117.026C271.342 117.445 271.072 117.768 270.729 117.996C270.385 118.221 269.994 118.333 269.553 118.333C269.222 118.333 268.951 118.277 268.74 118.166C268.532 118.055 268.368 117.925 268.25 117.776C268.132 117.626 268.04 117.494 267.976 117.378H267.888V118.227H266.851ZM267.891 115.499C267.891 115.883 267.947 116.219 268.058 116.508C268.169 116.797 268.33 117.023 268.541 117.186C268.752 117.347 269.01 117.428 269.315 117.428C269.632 117.428 269.898 117.344 270.111 117.175C270.324 117.005 270.485 116.774 270.594 116.483C270.705 116.192 270.761 115.864 270.761 115.499C270.761 115.139 270.706 114.816 270.597 114.53C270.491 114.243 270.33 114.017 270.114 113.852C269.901 113.686 269.635 113.603 269.315 113.603C269.007 113.603 268.747 113.682 268.534 113.841C268.323 114 268.164 114.221 268.055 114.505C267.946 114.789 267.891 115.121 267.891 115.499ZM274.087 110.954V118.227H273.025V110.954H274.087ZM277.866 118.337C277.329 118.337 276.866 118.222 276.478 117.992C276.092 117.76 275.794 117.435 275.583 117.016C275.375 116.594 275.271 116.101 275.271 115.535C275.271 114.976 275.375 114.484 275.583 114.058C275.794 113.631 276.087 113.299 276.464 113.06C276.842 112.821 277.285 112.701 277.792 112.701C278.1 112.701 278.398 112.752 278.687 112.854C278.976 112.955 279.235 113.115 279.464 113.333C279.694 113.551 279.875 113.834 280.008 114.182C280.14 114.527 280.207 114.948 280.207 115.442V115.819H275.871V115.023H279.166C279.166 114.744 279.109 114.497 278.996 114.281C278.882 114.063 278.722 113.892 278.516 113.766C278.313 113.641 278.074 113.578 277.799 113.578C277.501 113.578 277.24 113.652 277.018 113.798C276.797 113.943 276.627 114.132 276.506 114.366C276.388 114.598 276.329 114.851 276.329 115.123V115.744C276.329 116.109 276.393 116.419 276.521 116.675C276.651 116.93 276.832 117.126 277.064 117.261C277.296 117.393 277.567 117.46 277.877 117.46C278.078 117.46 278.262 117.431 278.427 117.374C278.593 117.315 278.736 117.228 278.857 117.112C278.978 116.996 279.07 116.852 279.134 116.682L280.139 116.863C280.059 117.159 279.914 117.418 279.706 117.641C279.5 117.861 279.241 118.032 278.928 118.156C278.618 118.276 278.264 118.337 277.866 118.337Z" fill="#F98080"/>
<mask id="mask2_3669_18821" style="mask-type:alpha" maskUnits="userSpaceOnUse" x="59" y="143" width="30" height="30">
<circle cx="73.5756" cy="157.878" r="14.5756" fill="#E5E7EB"/>
</mask>
<g mask="url(#mask2_3669_18821)">
<circle cx="73.5756" cy="157.878" r="14.5756" fill="#4B5563"/>
<path fill-rule="evenodd" clip-rule="evenodd" d="M73.5756 159.36C74.8109 159.36 75.9957 158.869 76.8692 157.995C77.7427 157.122 78.2334 155.937 78.2334 154.702C78.2334 153.466 77.7427 152.282 76.8692 151.408C75.9957 150.535 74.8109 150.044 73.5756 150.044C72.3403 150.044 71.1555 150.535 70.282 151.408C69.4085 152.282 68.9177 153.466 68.9177 154.702C68.9177 155.937 69.4085 157.122 70.282 157.995C71.1555 158.869 72.3403 159.36 73.5756 159.36ZM62.7073 173.333C62.7073 171.906 62.9884 170.493 63.5346 169.174C64.0808 167.855 64.8813 166.657 65.8905 165.648C66.8997 164.639 68.0979 163.838 69.4165 163.292C70.7351 162.746 72.1483 162.465 73.5756 162.465C75.0028 162.465 76.4161 162.746 77.7347 163.292C79.0533 163.838 80.2514 164.639 81.2607 165.648C82.2699 166.657 83.0704 167.855 83.6166 169.174C84.1628 170.493 84.4439 171.906 84.4439 173.333H62.7073Z" fill="#9CA3AF"/>
</g>
<rect x="97.1512" y="147.878" width="60" height="8" rx="2" fill="#9CA3AF"/>
<rect x="97.1512" y="161.878" width="80" height="6" rx="3" fill="#6B7280"/>
<rect x="223" y="149.378" width="68" height="17" rx="6" fill="#4B5563"/>
<circle cx="236" cy="157.878" r="3" fill="#9CA3AF"/>
<path d="M245.097 154.105V161.378H244V154.105H245.097ZM247.672 158.139V161.378H246.61V155.923H247.629V156.811H247.697C247.822 156.522 248.019 156.29 248.286 156.115C248.556 155.94 248.896 155.852 249.306 155.852C249.677 155.852 250.003 155.93 250.282 156.087C250.561 156.241 250.778 156.47 250.932 156.776C251.086 157.081 251.163 157.459 251.163 157.908V161.378H250.101V158.036C250.101 157.641 249.998 157.332 249.792 157.109C249.586 156.885 249.303 156.772 248.943 156.772C248.697 156.772 248.478 156.825 248.286 156.932C248.097 157.038 247.947 157.195 247.835 157.401C247.727 157.604 247.672 157.85 247.672 158.139ZM254.174 161.499C253.829 161.499 253.516 161.435 253.237 161.307C252.957 161.177 252.736 160.988 252.573 160.742C252.412 160.496 252.331 160.194 252.331 159.837C252.331 159.529 252.39 159.276 252.509 159.077C252.627 158.878 252.787 158.72 252.988 158.604C253.189 158.488 253.414 158.401 253.663 158.342C253.911 158.283 254.165 158.238 254.423 158.207C254.749 158.169 255.015 158.138 255.218 158.114C255.422 158.088 255.57 158.047 255.662 157.99C255.754 157.933 255.801 157.841 255.801 157.713V157.688C255.801 157.378 255.713 157.138 255.538 156.967C255.365 156.797 255.107 156.712 254.764 156.712C254.406 156.712 254.124 156.791 253.919 156.95C253.715 157.106 253.574 157.28 253.496 157.472L252.498 157.244C252.616 156.913 252.789 156.645 253.017 156.442C253.246 156.236 253.51 156.087 253.808 155.994C254.107 155.9 254.42 155.852 254.749 155.852C254.967 155.852 255.198 155.878 255.442 155.93C255.688 155.98 255.918 156.073 256.131 156.207C256.346 156.342 256.523 156.535 256.66 156.786C256.797 157.035 256.866 157.358 256.866 157.756V161.378H255.829V160.632H255.786C255.718 160.77 255.615 160.904 255.477 161.037C255.34 161.17 255.164 161.28 254.948 161.367C254.733 161.455 254.475 161.499 254.174 161.499ZM254.405 160.646C254.699 160.646 254.95 160.588 255.158 160.472C255.369 160.356 255.528 160.205 255.637 160.018C255.749 159.828 255.804 159.626 255.804 159.411V158.707C255.766 158.745 255.693 158.781 255.584 158.814C255.477 158.845 255.356 158.872 255.218 158.896C255.081 158.917 254.947 158.937 254.817 158.956C254.687 158.973 254.578 158.987 254.49 158.999C254.284 159.025 254.096 159.069 253.926 159.13C253.758 159.192 253.623 159.28 253.521 159.396C253.421 159.51 253.372 159.662 253.372 159.851C253.372 160.114 253.469 160.313 253.663 160.448C253.857 160.58 254.104 160.646 254.405 160.646ZM260.578 161.488C260.05 161.488 259.595 161.368 259.214 161.129C258.835 160.888 258.544 160.555 258.341 160.131C258.137 159.708 258.035 159.222 258.035 158.676C258.035 158.122 258.139 157.633 258.348 157.209C258.556 156.783 258.85 156.45 259.228 156.211C259.607 155.972 260.053 155.852 260.567 155.852C260.981 155.852 261.351 155.929 261.675 156.083C261.999 156.235 262.261 156.448 262.46 156.722C262.661 156.997 262.781 157.318 262.819 157.685H261.785C261.728 157.429 261.598 157.209 261.395 157.024C261.193 156.84 260.923 156.747 260.585 156.747C260.289 156.747 260.03 156.825 259.807 156.982C259.587 157.136 259.415 157.356 259.292 157.642C259.169 157.926 259.108 158.262 259.108 158.651C259.108 159.048 259.168 159.392 259.289 159.68C259.409 159.969 259.58 160.193 259.8 160.352C260.023 160.51 260.284 160.59 260.585 160.59C260.786 160.59 260.968 160.553 261.132 160.479C261.297 160.404 261.436 160.296 261.547 160.156C261.661 160.017 261.74 159.849 261.785 159.652H262.819C262.781 160.005 262.666 160.32 262.474 160.597C262.282 160.874 262.025 161.091 261.703 161.25C261.384 161.409 261.009 161.488 260.578 161.488ZM266.5 155.923V156.776H263.521V155.923H266.5ZM264.32 154.617H265.382V159.776C265.382 159.982 265.412 160.137 265.474 160.242C265.535 160.343 265.615 160.413 265.712 160.451C265.811 160.487 265.919 160.504 266.035 160.504C266.12 160.504 266.195 160.498 266.259 160.487C266.323 160.475 266.372 160.465 266.408 160.458L266.6 161.335C266.538 161.359 266.45 161.383 266.337 161.406C266.223 161.432 266.081 161.447 265.911 161.449C265.631 161.454 265.371 161.404 265.129 161.3C264.888 161.196 264.693 161.035 264.544 160.817C264.394 160.599 264.32 160.326 264.32 159.997V154.617ZM267.675 161.378V155.923H268.737V161.378H267.675ZM268.211 155.082C268.026 155.082 267.868 155.02 267.735 154.897C267.605 154.772 267.54 154.622 267.54 154.45C267.54 154.274 267.605 154.125 267.735 154.002C267.868 153.877 268.026 153.814 268.211 153.814C268.396 153.814 268.553 153.877 268.683 154.002C268.816 154.125 268.882 154.274 268.882 154.45C268.882 154.622 268.816 154.772 268.683 154.897C268.553 155.02 268.396 155.082 268.211 155.082ZM274.831 155.923L272.853 161.378H271.717L269.735 155.923H270.875L272.257 160.121H272.313L273.691 155.923H274.831ZM277.994 161.488C277.457 161.488 276.994 161.373 276.606 161.144C276.22 160.912 275.922 160.586 275.711 160.167C275.503 159.746 275.398 159.252 275.398 158.686C275.398 158.127 275.503 157.635 275.711 157.209C275.922 156.783 276.215 156.45 276.592 156.211C276.97 155.972 277.413 155.852 277.92 155.852C278.228 155.852 278.526 155.903 278.815 156.005C279.103 156.107 279.363 156.267 279.592 156.484C279.822 156.702 280.003 156.985 280.136 157.333C280.268 157.679 280.335 158.099 280.335 158.594V158.97H275.999V158.175H279.294C279.294 157.895 279.237 157.648 279.124 157.433C279.01 157.215 278.85 157.043 278.644 156.918C278.441 156.792 278.201 156.729 277.927 156.729C277.629 156.729 277.368 156.803 277.146 156.95C276.925 157.094 276.755 157.283 276.634 157.518C276.516 157.75 276.457 158.002 276.457 158.274V158.896C276.457 159.26 276.521 159.57 276.648 159.826C276.779 160.082 276.96 160.277 277.192 160.412C277.424 160.545 277.695 160.611 278.005 160.611C278.206 160.611 278.39 160.582 278.555 160.526C278.721 160.466 278.864 160.379 278.985 160.263C279.106 160.147 279.198 160.004 279.262 159.833L280.267 160.014C280.187 160.31 280.042 160.569 279.834 160.792C279.628 161.012 279.369 161.184 279.056 161.307C278.746 161.428 278.392 161.488 277.994 161.488Z" fill="#9CA3AF"/>
</svg>
