<svg width="296" height="214" viewBox="0 0 296 214" fill="none" xmlns="http://www.w3.org/2000/svg">
<g filter="url(#filter0_dd_2665_3539)">
<rect x="6" y="2" width="284" height="48" rx="8" fill="#374151"/>
<rect x="30" y="21.5" width="150" height="9" rx="2" fill="#6B7280"/>
<rect x="6.5" y="2.5" width="283" height="47" rx="7.5" stroke="#4B5563"/>
</g>
<g filter="url(#filter1_dd_2665_3539)">
<rect x="6" y="70" width="284" height="48" rx="8" fill="#374151"/>
<path d="M32.5538 89.6004C32.6263 89.3381 32.7694 89.0984 32.9702 88.9089C33.2487 88.6462 33.617 88.4999 33.9998 88.5H33.9999H45.9999L46 88.5C46.3828 88.4999 46.7512 88.6462 47.0296 88.9089C47.2305 89.0984 47.3736 89.3381 47.4461 89.6004L39.9999 93.323L32.5538 89.6004Z" fill="#6B7280" stroke="#6B7280"/>
<path d="M48 92.118L40 96.118L32 92.118V98C32 98.5304 32.2107 99.0391 32.5858 99.4142C32.9609 99.7893 33.4696 100 34 100H46C46.5304 100 47.0391 99.7893 47.4142 99.4142C47.7893 99.0391 48 98.5304 48 98V92.118Z" fill="#6B7280"/>
<rect x="66" y="89.5" width="150" height="9" rx="2" fill="#6B7280"/>
<rect x="6.5" y="70.5" width="283" height="47" rx="7.5" stroke="#4B5563"/>
</g>
<rect x="6" y="138" width="81.86" height="7.06802" rx="2" fill="#6B7280"/>
<g filter="url(#filter2_dd_2665_3539)">
<rect x="6" y="155.068" width="284" height="48" rx="8" fill="#374151"/>
<path d="M41.7678 176.836C41.2989 177.305 40.663 177.568 40 177.568C39.337 177.568 38.7011 177.305 38.2322 176.836C37.7634 176.367 37.5 175.731 37.5 175.068C37.5 174.405 37.7634 173.769 38.2322 173.3C38.7011 172.831 39.337 172.568 40 172.568C40.663 172.568 41.2989 172.831 41.7678 173.3C42.2366 173.769 42.5 174.405 42.5 175.068C42.5 175.731 42.2366 176.367 41.7678 176.836ZM33.5193 186.568C33.5719 185.886 33.7321 185.215 33.9948 184.581C34.3214 183.792 34.8002 183.075 35.4038 182.472C36.0074 181.868 36.7239 181.389 37.5126 181.063C38.3012 180.736 39.1464 180.568 40 180.568C40.8536 180.568 41.6988 180.736 42.4874 181.063C43.2761 181.389 43.9926 181.868 44.5962 182.472C45.1998 183.075 45.6786 183.792 46.0052 184.581C46.2679 185.215 46.4281 185.886 46.4807 186.568H33.5193Z" fill="#6B7280" stroke="#6B7280"/>
<rect x="66" y="174.568" width="150" height="9" rx="2" fill="#6B7280"/>
<rect x="6.5" y="155.568" width="283" height="47" rx="7.5" stroke="#4B5563"/>
</g>
<defs>
<filter id="filter0_dd_2665_3539" x="0" y="0" width="296" height="60" filterUnits="userSpaceOnUse" color-interpolation-filters="sRGB">
<feFlood flood-opacity="0" result="BackgroundImageFix"/>
<feColorMatrix in="SourceAlpha" type="matrix" values="0 0 0 0 0 0 0 0 0 0 0 0 0 0 0 0 0 0 127 0" result="hardAlpha"/>
<feOffset dy="4"/>
<feGaussianBlur stdDeviation="3"/>
<feColorMatrix type="matrix" values="0 0 0 0 0 0 0 0 0 0 0 0 0 0 0 0 0 0 0.1 0"/>
<feBlend mode="normal" in2="BackgroundImageFix" result="effect1_dropShadow_2665_3539"/>
<feColorMatrix in="SourceAlpha" type="matrix" values="0 0 0 0 0 0 0 0 0 0 0 0 0 0 0 0 0 0 127 0" result="hardAlpha"/>
<feOffset dy="2"/>
<feGaussianBlur stdDeviation="2"/>
<feColorMatrix type="matrix" values="0 0 0 0 0 0 0 0 0 0 0 0 0 0 0 0 0 0 0.06 0"/>
<feBlend mode="normal" in2="effect1_dropShadow_2665_3539" result="effect2_dropShadow_2665_3539"/>
<feBlend mode="normal" in="SourceGraphic" in2="effect2_dropShadow_2665_3539" result="shape"/>
</filter>
<filter id="filter1_dd_2665_3539" x="0" y="68" width="296" height="60" filterUnits="userSpaceOnUse" color-interpolation-filters="sRGB">
<feFlood flood-opacity="0" result="BackgroundImageFix"/>
<feColorMatrix in="SourceAlpha" type="matrix" values="0 0 0 0 0 0 0 0 0 0 0 0 0 0 0 0 0 0 127 0" result="hardAlpha"/>
<feOffset dy="4"/>
<feGaussianBlur stdDeviation="3"/>
<feColorMatrix type="matrix" values="0 0 0 0 0 0 0 0 0 0 0 0 0 0 0 0 0 0 0.1 0"/>
<feBlend mode="normal" in2="BackgroundImageFix" result="effect1_dropShadow_2665_3539"/>
<feColorMatrix in="SourceAlpha" type="matrix" values="0 0 0 0 0 0 0 0 0 0 0 0 0 0 0 0 0 0 127 0" result="hardAlpha"/>
<feOffset dy="2"/>
<feGaussianBlur stdDeviation="2"/>
<feColorMatrix type="matrix" values="0 0 0 0 0 0 0 0 0 0 0 0 0 0 0 0 0 0 0.06 0"/>
<feBlend mode="normal" in2="effect1_dropShadow_2665_3539" result="effect2_dropShadow_2665_3539"/>
<feBlend mode="normal" in="SourceGraphic" in2="effect2_dropShadow_2665_3539" result="shape"/>
</filter>
<filter id="filter2_dd_2665_3539" x="0" y="153.068" width="296" height="60" filterUnits="userSpaceOnUse" color-interpolation-filters="sRGB">
<feFlood flood-opacity="0" result="BackgroundImageFix"/>
<feColorMatrix in="SourceAlpha" type="matrix" values="0 0 0 0 0 0 0 0 0 0 0 0 0 0 0 0 0 0 127 0" result="hardAlpha"/>
<feOffset dy="4"/>
<feGaussianBlur stdDeviation="3"/>
<feColorMatrix type="matrix" values="0 0 0 0 0 0 0 0 0 0 0 0 0 0 0 0 0 0 0.1 0"/>
<feBlend mode="normal" in2="BackgroundImageFix" result="effect1_dropShadow_2665_3539"/>
<feColorMatrix in="SourceAlpha" type="matrix" values="0 0 0 0 0 0 0 0 0 0 0 0 0 0 0 0 0 0 127 0" result="hardAlpha"/>
<feOffset dy="2"/>
<feGaussianBlur stdDeviation="2"/>
<feColorMatrix type="matrix" values="0 0 0 0 0 0 0 0 0 0 0 0 0 0 0 0 0 0 0.06 0"/>
<feBlend mode="normal" in2="effect1_dropShadow_2665_3539" result="effect2_dropShadow_2665_3539"/>
<feBlend mode="normal" in="SourceGraphic" in2="effect2_dropShadow_2665_3539" result="shape"/>
</filter>
</defs>
</svg>
