<svg width="350" height="230" viewBox="0 0 350 230" fill="none" xmlns="http://www.w3.org/2000/svg">
<g filter="url(#filter0_dd_169_149714)">
<rect x="77" y="146" width="134" height="24" rx="5" fill="#4B5563"/>
<path d="M119.67 156.727C119.637 156.416 119.497 156.175 119.251 156.002C119.007 155.829 118.69 155.743 118.299 155.743C118.024 155.743 117.789 155.784 117.592 155.867C117.396 155.95 117.246 156.062 117.141 156.205C117.037 156.347 116.984 156.509 116.982 156.691C116.982 156.843 117.016 156.974 117.085 157.085C117.156 157.196 117.251 157.291 117.372 157.369C117.493 157.445 117.627 157.509 117.773 157.561C117.92 157.613 118.068 157.657 118.217 157.692L118.899 157.863C119.174 157.927 119.438 158.013 119.691 158.122C119.947 158.231 120.175 158.368 120.376 158.534C120.58 158.7 120.741 158.9 120.859 159.134C120.978 159.369 121.037 159.643 121.037 159.958C121.037 160.384 120.928 160.759 120.71 161.084C120.492 161.406 120.178 161.658 119.766 161.84C119.356 162.02 118.86 162.11 118.278 162.11C117.712 162.11 117.221 162.022 116.804 161.847C116.39 161.672 116.065 161.416 115.831 161.08C115.599 160.744 115.473 160.335 115.455 159.852H116.751C116.77 160.105 116.848 160.316 116.985 160.484C117.122 160.652 117.301 160.777 117.521 160.86C117.744 160.943 117.992 160.984 118.267 160.984C118.554 160.984 118.804 160.942 119.02 160.857C119.238 160.769 119.408 160.648 119.531 160.494C119.654 160.338 119.717 160.156 119.719 159.947C119.717 159.758 119.661 159.602 119.553 159.479C119.444 159.353 119.291 159.249 119.094 159.166C118.9 159.081 118.673 159.005 118.413 158.939L117.585 158.726C116.986 158.572 116.513 158.339 116.165 158.026C115.819 157.711 115.646 157.294 115.646 156.773C115.646 156.344 115.762 155.969 115.994 155.647C116.229 155.325 116.547 155.075 116.95 154.898C117.352 154.718 117.808 154.628 118.317 154.628C118.833 154.628 119.285 154.718 119.673 154.898C120.064 155.075 120.371 155.323 120.593 155.64C120.816 155.955 120.93 156.317 120.938 156.727H119.67ZM122.155 164.045V156.545H123.419V157.447H123.493C123.56 157.315 123.653 157.174 123.774 157.025C123.895 156.873 124.058 156.744 124.264 156.638C124.47 156.529 124.733 156.474 125.052 156.474C125.474 156.474 125.854 156.582 126.192 156.798C126.533 157.011 126.803 157.327 127.002 157.746C127.203 158.162 127.304 158.674 127.304 159.28C127.304 159.879 127.206 160.388 127.009 160.807C126.813 161.226 126.545 161.545 126.206 161.766C125.868 161.986 125.484 162.096 125.056 162.096C124.743 162.096 124.484 162.044 124.278 161.94C124.072 161.835 123.907 161.71 123.781 161.563C123.658 161.414 123.562 161.273 123.493 161.141H123.44V164.045H122.155ZM123.415 159.273C123.415 159.625 123.465 159.934 123.564 160.2C123.666 160.465 123.812 160.672 124.001 160.821C124.193 160.968 124.425 161.041 124.697 161.041C124.981 161.041 125.219 160.965 125.411 160.814C125.603 160.66 125.747 160.451 125.844 160.185C125.944 159.918 125.993 159.614 125.993 159.273C125.993 158.934 125.945 158.634 125.848 158.371C125.751 158.108 125.606 157.902 125.415 157.753C125.223 157.604 124.984 157.529 124.697 157.529C124.423 157.529 124.189 157.601 123.998 157.746C123.806 157.89 123.66 158.093 123.561 158.353C123.464 158.613 123.415 158.92 123.415 159.273ZM129.974 162.11C129.629 162.11 129.317 162.049 129.04 161.925C128.766 161.8 128.548 161.615 128.387 161.371C128.228 161.128 128.149 160.827 128.149 160.469C128.149 160.162 128.206 159.907 128.319 159.706C128.433 159.505 128.588 159.344 128.785 159.223C128.981 159.102 129.202 159.011 129.449 158.95C129.697 158.886 129.954 158.839 130.219 158.811C130.539 158.778 130.798 158.748 130.997 158.722C131.196 158.694 131.34 158.651 131.43 158.594C131.523 158.535 131.569 158.444 131.569 158.321V158.3C131.569 158.032 131.489 157.825 131.331 157.678C131.172 157.531 130.944 157.458 130.645 157.458C130.331 157.458 130.081 157.527 129.896 157.664C129.714 157.801 129.591 157.964 129.527 158.151L128.327 157.98C128.421 157.649 128.577 157.372 128.795 157.149C129.013 156.924 129.279 156.756 129.594 156.645C129.909 156.531 130.257 156.474 130.638 156.474C130.901 156.474 131.163 156.505 131.423 156.567C131.684 156.628 131.921 156.73 132.137 156.872C132.352 157.012 132.525 157.202 132.655 157.444C132.788 157.685 132.854 157.987 132.854 158.349V162H131.618V161.251H131.576C131.498 161.402 131.388 161.544 131.246 161.677C131.106 161.807 130.93 161.912 130.716 161.993C130.506 162.071 130.258 162.11 129.974 162.11ZM130.308 161.165C130.566 161.165 130.79 161.115 130.979 161.013C131.169 160.909 131.314 160.771 131.416 160.601C131.52 160.43 131.572 160.245 131.572 160.043V159.401C131.532 159.434 131.463 159.464 131.366 159.493C131.272 159.521 131.165 159.546 131.047 159.567C130.928 159.589 130.811 159.608 130.695 159.624C130.579 159.641 130.479 159.655 130.393 159.667C130.202 159.693 130.03 159.736 129.878 159.795C129.727 159.854 129.607 159.937 129.52 160.043C129.432 160.147 129.388 160.282 129.388 160.448C129.388 160.685 129.475 160.864 129.648 160.984C129.82 161.105 130.041 161.165 130.308 161.165ZM136.526 162.107C135.982 162.107 135.514 161.987 135.123 161.748C134.735 161.509 134.436 161.179 134.225 160.757C134.017 160.333 133.912 159.846 133.912 159.294C133.912 158.74 134.019 158.251 134.232 157.827C134.445 157.401 134.746 157.07 135.134 156.833C135.525 156.594 135.986 156.474 136.519 156.474C136.962 156.474 137.354 156.556 137.694 156.719C138.038 156.88 138.311 157.109 138.515 157.405C138.718 157.698 138.834 158.042 138.863 158.435H137.634C137.584 158.172 137.466 157.953 137.279 157.778C137.094 157.6 136.847 157.511 136.537 157.511C136.274 157.511 136.043 157.582 135.844 157.724C135.645 157.864 135.49 158.065 135.379 158.328C135.27 158.591 135.216 158.906 135.216 159.273C135.216 159.644 135.27 159.964 135.379 160.232C135.488 160.497 135.641 160.701 135.837 160.846C136.036 160.988 136.269 161.059 136.537 161.059C136.726 161.059 136.895 161.023 137.045 160.952C137.196 160.879 137.323 160.774 137.425 160.636C137.526 160.499 137.596 160.332 137.634 160.136H138.863C138.832 160.522 138.718 160.864 138.522 161.162C138.325 161.458 138.058 161.69 137.719 161.858C137.381 162.024 136.983 162.107 136.526 162.107ZM142.333 162.107C141.786 162.107 141.314 161.993 140.916 161.766C140.521 161.536 140.217 161.212 140.004 160.793C139.79 160.371 139.684 159.875 139.684 159.305C139.684 158.744 139.79 158.251 140.004 157.827C140.219 157.401 140.52 157.07 140.906 156.833C141.291 156.594 141.745 156.474 142.266 156.474C142.602 156.474 142.919 156.529 143.217 156.638C143.518 156.744 143.783 156.91 144.013 157.135C144.245 157.36 144.427 157.646 144.56 157.994C144.692 158.34 144.759 158.752 144.759 159.23V159.624H140.288V158.758H143.526C143.524 158.512 143.471 158.293 143.366 158.101C143.262 157.907 143.117 157.754 142.93 157.643C142.745 157.531 142.53 157.476 142.283 157.476C142.021 157.476 141.79 157.54 141.591 157.668C141.392 157.793 141.237 157.959 141.126 158.165C141.017 158.368 140.961 158.592 140.959 158.836V159.592C140.959 159.91 141.017 160.182 141.133 160.409C141.249 160.634 141.411 160.807 141.619 160.928C141.828 161.046 142.071 161.105 142.351 161.105C142.538 161.105 142.707 161.079 142.859 161.027C143.01 160.973 143.142 160.893 143.253 160.789C143.364 160.685 143.448 160.556 143.505 160.402L144.705 160.537C144.629 160.854 144.485 161.131 144.272 161.368C144.061 161.602 143.791 161.785 143.462 161.915C143.133 162.043 142.757 162.107 142.333 162.107ZM145.903 162V154.727H147.188V157.447H147.242C147.308 157.315 147.401 157.174 147.522 157.025C147.643 156.873 147.806 156.744 148.012 156.638C148.218 156.529 148.481 156.474 148.801 156.474C149.222 156.474 149.602 156.582 149.941 156.798C150.281 157.011 150.551 157.327 150.75 157.746C150.951 158.162 151.052 158.674 151.052 159.28C151.052 159.879 150.954 160.388 150.757 160.807C150.561 161.226 150.293 161.545 149.955 161.766C149.616 161.986 149.233 162.096 148.804 162.096C148.492 162.096 148.232 162.044 148.026 161.94C147.82 161.835 147.655 161.71 147.529 161.563C147.406 161.414 147.31 161.273 147.242 161.141H147.167V162H145.903ZM147.164 159.273C147.164 159.625 147.213 159.934 147.313 160.2C147.414 160.465 147.56 160.672 147.749 160.821C147.941 160.968 148.173 161.041 148.445 161.041C148.73 161.041 148.968 160.965 149.159 160.814C149.351 160.66 149.495 160.451 149.593 160.185C149.692 159.918 149.742 159.614 149.742 159.273C149.742 158.934 149.693 158.634 149.596 158.371C149.499 158.108 149.355 157.902 149.163 157.753C148.971 157.604 148.732 157.529 148.445 157.529C148.171 157.529 147.938 157.601 147.746 157.746C147.554 157.89 147.409 158.093 147.309 158.353C147.212 158.613 147.164 158.92 147.164 159.273ZM153.714 162.11C153.369 162.11 153.058 162.049 152.781 161.925C152.506 161.8 152.288 161.615 152.127 161.371C151.969 161.128 151.889 160.827 151.889 160.469C151.889 160.162 151.946 159.907 152.06 159.706C152.173 159.505 152.328 159.344 152.525 159.223C152.721 159.102 152.943 159.011 153.189 158.95C153.438 158.886 153.694 158.839 153.96 158.811C154.279 158.778 154.538 158.748 154.737 158.722C154.936 158.694 155.08 158.651 155.17 158.594C155.263 158.535 155.309 158.444 155.309 158.321V158.3C155.309 158.032 155.23 157.825 155.071 157.678C154.912 157.531 154.684 157.458 154.386 157.458C154.071 157.458 153.821 157.527 153.636 157.664C153.454 157.801 153.331 157.964 153.267 158.151L152.067 157.98C152.161 157.649 152.318 157.372 152.536 157.149C152.753 156.924 153.02 156.756 153.335 156.645C153.649 156.531 153.997 156.474 154.379 156.474C154.641 156.474 154.903 156.505 155.163 156.567C155.424 156.628 155.662 156.73 155.877 156.872C156.093 157.012 156.265 157.202 156.396 157.444C156.528 157.685 156.594 157.987 156.594 158.349V162H155.359V161.251H155.316C155.238 161.402 155.128 161.544 154.986 161.677C154.846 161.807 154.67 161.912 154.457 161.993C154.246 162.071 153.999 162.11 153.714 162.11ZM154.048 161.165C154.306 161.165 154.53 161.115 154.719 161.013C154.909 160.909 155.054 160.771 155.156 160.601C155.26 160.43 155.312 160.245 155.312 160.043V159.401C155.272 159.434 155.204 159.464 155.107 159.493C155.012 159.521 154.905 159.546 154.787 159.567C154.669 159.589 154.551 159.608 154.435 159.624C154.319 159.641 154.219 159.655 154.134 159.667C153.942 159.693 153.77 159.736 153.619 159.795C153.467 159.854 153.348 159.937 153.26 160.043C153.172 160.147 153.129 160.282 153.129 160.448C153.129 160.685 153.215 160.864 153.388 160.984C153.561 161.105 153.781 161.165 154.048 161.165ZM157.887 162V156.545H159.134V157.455H159.19C159.29 157.14 159.46 156.897 159.702 156.727C159.946 156.554 160.224 156.467 160.536 156.467C160.607 156.467 160.687 156.471 160.774 156.478C160.864 156.483 160.939 156.491 160.998 156.503V157.685C160.943 157.666 160.857 157.65 160.739 157.636C160.623 157.619 160.51 157.611 160.401 157.611C160.167 157.611 159.956 157.662 159.769 157.763C159.585 157.863 159.439 158.001 159.332 158.179C159.226 158.357 159.173 158.561 159.173 158.793V162H157.887Z" fill="#E5E7EB"/>
<rect x="77.5" y="146.5" width="133" height="23" rx="4.5" stroke="#6B7280"/>
</g>
<g filter="url(#filter1_dd_169_149714)">
<rect x="272" y="90" width="60" height="48" rx="5" fill="#4B5563"/>
<path d="M289.717 118V110.727H294.447V111.832H291.035V113.806H294.202V114.911H291.035V116.896H294.476V118H289.717ZM297.02 114.804V118H295.735V112.545H296.963V113.472H297.027C297.153 113.167 297.353 112.924 297.627 112.744C297.904 112.564 298.247 112.474 298.654 112.474C299.03 112.474 299.358 112.555 299.637 112.716C299.919 112.877 300.137 113.11 300.291 113.415C300.447 113.721 300.524 114.091 300.522 114.527V118H299.236V114.726C299.236 114.361 299.141 114.076 298.952 113.87C298.765 113.664 298.506 113.561 298.174 113.561C297.949 113.561 297.749 113.611 297.574 113.71C297.401 113.807 297.265 113.948 297.166 114.133C297.069 114.317 297.02 114.541 297.02 114.804ZM304.552 112.545V113.54H301.417V112.545H304.552ZM302.191 111.239H303.476V116.359C303.476 116.532 303.502 116.665 303.554 116.757C303.609 116.847 303.68 116.909 303.767 116.942C303.855 116.975 303.952 116.991 304.059 116.991C304.139 116.991 304.212 116.986 304.279 116.974C304.347 116.962 304.4 116.951 304.435 116.942L304.652 117.947C304.583 117.97 304.485 117.996 304.357 118.025C304.231 118.053 304.078 118.07 303.895 118.075C303.573 118.084 303.283 118.036 303.025 117.929C302.767 117.82 302.562 117.652 302.411 117.425C302.262 117.197 302.188 116.913 302.191 116.572V111.239ZM307.983 118.107C307.437 118.107 306.964 117.993 306.567 117.766C306.171 117.536 305.867 117.212 305.654 116.793C305.441 116.371 305.334 115.875 305.334 115.305C305.334 114.744 305.441 114.251 305.654 113.827C305.869 113.401 306.17 113.07 306.556 112.833C306.942 112.594 307.395 112.474 307.916 112.474C308.252 112.474 308.569 112.529 308.868 112.638C309.168 112.744 309.434 112.91 309.663 113.135C309.895 113.36 310.077 113.646 310.21 113.994C310.343 114.34 310.409 114.752 310.409 115.23V115.624H305.938V114.758H309.177C309.174 114.512 309.121 114.293 309.017 114.101C308.913 113.907 308.767 113.754 308.58 113.643C308.395 113.531 308.18 113.476 307.934 113.476C307.671 113.476 307.44 113.54 307.241 113.668C307.042 113.793 306.887 113.959 306.776 114.165C306.667 114.368 306.612 114.592 306.609 114.836V115.592C306.609 115.91 306.667 116.182 306.783 116.409C306.899 116.634 307.061 116.807 307.27 116.928C307.478 117.046 307.722 117.105 308.001 117.105C308.188 117.105 308.358 117.079 308.509 117.027C308.661 116.973 308.792 116.893 308.903 116.789C309.015 116.685 309.099 116.556 309.155 116.402L310.356 116.537C310.28 116.854 310.135 117.131 309.922 117.368C309.712 117.602 309.442 117.785 309.113 117.915C308.784 118.043 308.407 118.107 307.983 118.107ZM311.496 118V112.545H312.743V113.455H312.8C312.899 113.14 313.07 112.897 313.311 112.727C313.555 112.554 313.833 112.467 314.146 112.467C314.217 112.467 314.296 112.471 314.384 112.478C314.473 112.483 314.548 112.491 314.607 112.503V113.685C314.553 113.666 314.466 113.65 314.348 113.636C314.232 113.619 314.12 113.611 314.011 113.611C313.776 113.611 313.566 113.662 313.379 113.763C313.194 113.863 313.048 114.001 312.942 114.179C312.835 114.357 312.782 114.561 312.782 114.793V118H311.496Z" fill="#E5E7EB"/>
<rect x="272.5" y="90.5" width="59" height="47" rx="4.5" stroke="#6B7280"/>
</g>
<g filter="url(#filter2_dd_169_149714)">
<rect x="18" y="62" width="51" height="20" rx="5" fill="#4B5563"/>
<path d="M35.2173 76V68.7273H39.9474V69.8317H36.5348V71.8061H39.7024V72.9105H36.5348V74.8956H39.9759V76H35.2173ZM45.5458 71.9872L44.3739 72.1151C44.3408 71.9967 44.2828 71.8854 44.1999 71.7812C44.1194 71.6771 44.0105 71.593 43.8732 71.5291C43.7359 71.4652 43.5678 71.4332 43.369 71.4332C43.1014 71.4332 42.8765 71.4912 42.6942 71.6072C42.5143 71.7232 42.4255 71.8736 42.4279 72.0582C42.4255 72.2169 42.4835 72.3459 42.6019 72.4453C42.7227 72.5447 42.9215 72.6264 43.1985 72.6903L44.1289 72.8892C44.645 73.0005 45.0285 73.1768 45.2795 73.4183C45.5328 73.6598 45.6606 73.9759 45.663 74.3665C45.6606 74.7098 45.56 75.0128 45.3612 75.2756C45.1647 75.536 44.8912 75.7396 44.5408 75.8864C44.1905 76.0331 43.788 76.1065 43.3335 76.1065C42.6658 76.1065 42.1284 75.9669 41.7212 75.6875C41.314 75.4058 41.0714 75.014 40.9933 74.5121L42.2468 74.3913C42.3036 74.6375 42.4244 74.8234 42.609 74.9489C42.7937 75.0743 43.034 75.1371 43.3299 75.1371C43.6353 75.1371 43.8803 75.0743 44.065 74.9489C44.252 74.8234 44.3455 74.6683 44.3455 74.4837C44.3455 74.3274 44.2852 74.1984 44.1644 74.0966C44.046 73.9948 43.8614 73.9167 43.6104 73.8622L42.68 73.6669C42.1568 73.558 41.7698 73.3745 41.5188 73.1165C41.2679 72.8561 41.1436 72.527 41.146 72.1293C41.1436 71.7931 41.2347 71.5019 41.4194 71.2557C41.6064 71.0071 41.8656 70.8153 42.1971 70.6804C42.5309 70.5431 42.9156 70.4744 43.3512 70.4744C43.9904 70.4744 44.4935 70.6106 44.8604 70.8828C45.2298 71.1551 45.4582 71.5232 45.5458 71.9872ZM49.1023 76.1065C48.5578 76.1065 48.0902 75.987 47.6996 75.7479C47.3113 75.5088 47.0118 75.1785 46.8011 74.7571C46.5928 74.3333 46.4886 73.8456 46.4886 73.294C46.4886 72.7401 46.5952 72.2512 46.8082 71.8274C47.0213 71.4013 47.322 71.0698 47.7102 70.8331C48.1009 70.594 48.5625 70.4744 49.0952 70.4744C49.5379 70.4744 49.9297 70.5561 50.2706 70.7195C50.6139 70.8804 50.8873 71.1089 51.0909 71.4048C51.2945 71.6984 51.4105 72.0417 51.4389 72.4347H50.2102C50.1605 72.1719 50.0421 71.9529 49.8551 71.7777C49.6705 71.6001 49.4231 71.5114 49.1129 71.5114C48.8501 71.5114 48.6193 71.5824 48.4205 71.7244C48.2216 71.8641 48.0665 72.0653 47.9553 72.3281C47.8464 72.5909 47.7919 72.9058 47.7919 73.2727C47.7919 73.6444 47.8464 73.964 47.9553 74.2315C48.0642 74.4967 48.2169 74.7015 48.4134 74.8459C48.6122 74.9879 48.8454 75.0589 49.1129 75.0589C49.3023 75.0589 49.4716 75.0234 49.6207 74.9524C49.7723 74.879 49.8989 74.7737 50.0007 74.6364C50.1025 74.4991 50.1723 74.3321 50.2102 74.1357H51.4389C51.4081 74.5215 51.2945 74.8636 51.098 75.1619C50.9015 75.4579 50.634 75.6899 50.2955 75.858C49.9569 76.0237 49.5592 76.1065 49.1023 76.1065Z" fill="#E5E7EB"/>
<rect x="18.5" y="62.5" width="50" height="19" rx="4.5" stroke="#6B7280"/>
</g>
<g filter="url(#filter3_dd_169_149714)">
<rect x="18" y="90" width="51" height="20" rx="5" fill="#4B5563"/>
<path d="M34.8977 97.8317V96.7273H40.7003V97.8317H38.4524V104H37.1456V97.8317H34.8977ZM42.5895 104.11C42.2438 104.11 41.9325 104.049 41.6555 103.925C41.3809 103.8 41.1631 103.615 41.0021 103.371C40.8435 103.128 40.7642 102.827 40.7642 102.469C40.7642 102.162 40.821 101.907 40.9347 101.706C41.0483 101.505 41.2034 101.344 41.3999 101.223C41.5964 101.102 41.8177 101.011 42.0639 100.95C42.3125 100.886 42.5694 100.839 42.8345 100.811C43.1541 100.778 43.4134 100.748 43.6122 100.722C43.8111 100.694 43.9555 100.651 44.0455 100.594C44.1378 100.535 44.1839 100.444 44.1839 100.321V100.3C44.1839 100.032 44.1046 99.825 43.946 99.6783C43.7874 99.5315 43.5589 99.4581 43.2607 99.4581C42.9458 99.4581 42.696 99.5268 42.5114 99.6641C42.3291 99.8014 42.206 99.9635 42.142 100.151L40.9418 99.9801C41.0365 99.6487 41.1927 99.3717 41.4105 99.1491C41.6283 98.9242 41.8946 98.7562 42.2095 98.6449C42.5244 98.5312 42.8724 98.4744 43.2536 98.4744C43.5163 98.4744 43.7779 98.5052 44.0384 98.5668C44.2988 98.6283 44.5367 98.7301 44.7521 98.8722C44.9676 99.0118 45.1404 99.2024 45.2706 99.4439C45.4032 99.6854 45.4695 99.9872 45.4695 100.349V104H44.2337V103.251H44.1911C44.1129 103.402 44.0028 103.544 43.8608 103.677C43.7211 103.807 43.5447 103.912 43.3317 103.993C43.121 104.071 42.8736 104.11 42.5895 104.11ZM42.9233 103.165C43.1813 103.165 43.4051 103.115 43.5945 103.013C43.7839 102.909 43.9295 102.771 44.0312 102.601C44.1354 102.43 44.1875 102.245 44.1875 102.043V101.401C44.1473 101.434 44.0786 101.464 43.9815 101.493C43.8868 101.521 43.7803 101.546 43.6619 101.567C43.5436 101.589 43.4264 101.608 43.3104 101.624C43.1944 101.641 43.0938 101.655 43.0085 101.667C42.8168 101.693 42.6451 101.736 42.4936 101.795C42.3421 101.854 42.2225 101.937 42.1349 102.043C42.0473 102.147 42.0036 102.282 42.0036 102.448C42.0036 102.685 42.09 102.864 42.2628 102.984C42.4356 103.105 42.6558 103.165 42.9233 103.165ZM46.8189 104V96.7273H48.1044V99.4474H48.1577C48.224 99.3149 48.3175 99.174 48.4382 99.0249C48.5589 98.8733 48.7223 98.7443 48.9283 98.6378C49.1342 98.5289 49.397 98.4744 49.7166 98.4744C50.138 98.4744 50.518 98.5821 50.8565 98.7976C51.1974 99.0107 51.4673 99.3267 51.6662 99.7457C51.8674 100.162 51.968 100.674 51.968 101.28C51.968 101.879 51.8698 102.388 51.6733 102.807C51.4768 103.226 51.2093 103.545 50.8707 103.766C50.5322 103.986 50.1487 104.096 49.7202 104.096C49.4077 104.096 49.1484 104.044 48.9425 103.94C48.7365 103.835 48.5708 103.71 48.4453 103.563C48.3222 103.414 48.2263 103.273 48.1577 103.141H48.0831V104H46.8189ZM48.0795 101.273C48.0795 101.625 48.1293 101.934 48.2287 102.2C48.3305 102.465 48.4761 102.672 48.6655 102.821C48.8572 102.968 49.0893 103.041 49.3615 103.041C49.6456 103.041 49.8835 102.965 50.0753 102.814C50.267 102.66 50.4115 102.451 50.5085 102.185C50.608 101.918 50.6577 101.614 50.6577 101.273C50.6577 100.934 50.6091 100.634 50.5121 100.371C50.415 100.108 50.2706 99.902 50.0788 99.7528C49.8871 99.6037 49.648 99.5291 49.3615 99.5291C49.0869 99.5291 48.8537 99.6013 48.6619 99.7457C48.4702 99.8902 48.3246 100.093 48.2251 100.353C48.1281 100.613 48.0795 100.92 48.0795 101.273Z" fill="#E5E7EB"/>
<rect x="18.5" y="90.5" width="50" height="19" rx="4.5" stroke="#6B7280"/>
</g>
<g filter="url(#filter4_dd_169_149714)">
<rect x="18" y="118" width="51" height="20" rx="5" fill="#4B5563"/>
<path d="M36.6697 126.727C36.6366 126.416 36.4969 126.175 36.2507 126.002C36.0069 125.829 35.6896 125.743 35.299 125.743C35.0244 125.743 34.7888 125.784 34.5923 125.867C34.3958 125.95 34.2455 126.062 34.1413 126.205C34.0372 126.347 33.9839 126.509 33.9815 126.691C33.9815 126.843 34.0159 126.974 34.0845 127.085C34.1555 127.196 34.2514 127.291 34.3722 127.369C34.4929 127.445 34.6267 127.509 34.7734 127.561C34.9202 127.613 35.0682 127.657 35.2173 127.692L35.8991 127.863C36.1738 127.927 36.4377 128.013 36.6911 128.122C36.9467 128.231 37.1752 128.368 37.3764 128.534C37.58 128.7 37.741 128.9 37.8594 129.134C37.9777 129.369 38.0369 129.643 38.0369 129.958C38.0369 130.384 37.928 130.759 37.7102 131.084C37.4924 131.406 37.1776 131.658 36.7656 131.84C36.3561 132.02 35.8601 132.11 35.2777 132.11C34.7119 132.11 34.2206 132.022 33.804 131.847C33.3897 131.672 33.0653 131.416 32.831 131.08C32.599 130.744 32.4735 130.335 32.4545 129.852H33.7507C33.7696 130.105 33.8478 130.316 33.9851 130.484C34.1224 130.652 34.3011 130.777 34.5213 130.86C34.7438 130.943 34.9924 130.984 35.267 130.984C35.5535 130.984 35.8045 130.942 36.0199 130.857C36.2377 130.769 36.4081 130.648 36.5312 130.494C36.6544 130.338 36.7171 130.156 36.7195 129.947C36.7171 129.758 36.6615 129.602 36.5526 129.479C36.4437 129.353 36.291 129.249 36.0945 129.166C35.9003 129.081 35.6731 129.005 35.4126 128.939L34.5852 128.726C33.9863 128.572 33.5128 128.339 33.1648 128.026C32.8191 127.711 32.6463 127.294 32.6463 126.773C32.6463 126.344 32.7623 125.969 32.9943 125.647C33.2287 125.325 33.5471 125.075 33.9496 124.898C34.352 124.718 34.8078 124.628 35.3168 124.628C35.8329 124.628 36.285 124.718 36.6733 124.898C37.0639 125.075 37.3705 125.323 37.593 125.64C37.8156 125.955 37.9304 126.317 37.9375 126.727H36.6697ZM40.4402 128.804V132H39.1547V124.727H40.4118V127.472H40.4757C40.6035 127.165 40.8012 126.922 41.0687 126.744C41.3386 126.564 41.6819 126.474 42.0985 126.474C42.4773 126.474 42.8076 126.554 43.0893 126.712C43.371 126.871 43.5888 127.103 43.7427 127.408C43.899 127.714 43.9771 128.087 43.9771 128.527V132H42.6916V128.726C42.6916 128.359 42.5969 128.074 42.4075 127.87C42.2205 127.664 41.9577 127.561 41.6191 127.561C41.3919 127.561 41.1883 127.611 41.0083 127.71C40.8308 127.807 40.6911 127.948 40.5893 128.133C40.4899 128.317 40.4402 128.541 40.4402 128.804ZM45.2875 132V126.545H46.573V132H45.2875ZM45.9338 125.771C45.7302 125.771 45.555 125.704 45.4082 125.569C45.2614 125.432 45.188 125.267 45.188 125.075C45.188 124.881 45.2614 124.717 45.4082 124.582C45.555 124.444 45.7302 124.376 45.9338 124.376C46.1397 124.376 46.3149 124.444 46.4593 124.582C46.6061 124.717 46.6795 124.881 46.6795 125.075C46.6795 125.267 46.6061 125.432 46.4593 125.569C46.3149 125.704 46.1397 125.771 45.9338 125.771ZM50.6577 126.545V127.54H47.4332V126.545H50.6577ZM48.2393 132V126.031C48.2393 125.664 48.3151 125.358 48.4666 125.114C48.6205 124.871 48.8265 124.688 49.0845 124.567C49.3426 124.447 49.629 124.386 49.9439 124.386C50.1664 124.386 50.3641 124.404 50.5369 124.44C50.7098 124.475 50.8376 124.507 50.9205 124.536L50.6648 125.53C50.6103 125.513 50.5417 125.497 50.4588 125.48C50.3759 125.461 50.2836 125.452 50.1818 125.452C49.9427 125.452 49.7734 125.51 49.674 125.626C49.5769 125.739 49.5284 125.903 49.5284 126.116V132H48.2393ZM54.3881 126.545V127.54H51.2525V126.545H54.3881ZM52.0266 125.239H53.3121V130.359C53.3121 130.532 53.3382 130.665 53.3903 130.757C53.4447 130.847 53.5157 130.909 53.6033 130.942C53.6909 130.975 53.788 130.991 53.8945 130.991C53.975 130.991 54.0484 130.986 54.1147 130.974C54.1834 130.962 54.2354 130.951 54.271 130.942L54.4876 131.947C54.4189 131.97 54.3207 131.996 54.1928 132.025C54.0674 132.053 53.9135 132.07 53.7312 132.075C53.4092 132.084 53.1192 132.036 52.8612 131.929C52.6031 131.82 52.3983 131.652 52.2468 131.425C52.0977 131.197 52.0243 130.913 52.0266 130.572V125.239Z" fill="#E5E7EB"/>
<rect x="18.5" y="118.5" width="50" height="19" rx="4.5" stroke="#6B7280"/>
</g>
<g filter="url(#filter5_dd_169_149714)">
<rect x="77" y="90" width="31" height="20" rx="5" fill="#4B5563"/>
<path d="M91.4268 101.557H92.62L93.3267 102.473L93.831 103.07L95.0419 104.625H93.7635L92.9396 103.581L92.5881 103.084L91.4268 101.557ZM95.2159 100.364C95.2159 101.147 95.0691 101.818 94.7756 102.377C94.4844 102.933 94.0866 103.36 93.5824 103.656C93.0805 103.951 92.5111 104.099 91.8743 104.099C91.2375 104.099 90.6669 103.951 90.1626 103.656C89.6607 103.357 89.263 102.93 88.9695 102.374C88.6783 101.815 88.5327 101.145 88.5327 100.364C88.5327 99.58 88.6783 98.91 88.9695 98.3537C89.263 97.795 89.6607 97.3677 90.1626 97.0717C90.6669 96.7758 91.2375 96.6278 91.8743 96.6278C92.5111 96.6278 93.0805 96.7758 93.5824 97.0717C94.0866 97.3677 94.4844 97.795 94.7756 98.3537C95.0691 98.91 95.2159 99.58 95.2159 100.364ZM93.8913 100.364C93.8913 99.812 93.8049 99.3468 93.6321 98.968C93.4616 98.5869 93.2249 98.2992 92.9219 98.1051C92.6188 97.9086 92.2696 97.8104 91.8743 97.8104C91.4789 97.8104 91.1297 97.9086 90.8267 98.1051C90.5237 98.2992 90.2857 98.5869 90.1129 98.968C89.9425 99.3468 89.8572 99.812 89.8572 100.364C89.8572 100.915 89.9425 101.382 90.1129 101.763C90.2857 102.142 90.5237 102.429 90.8267 102.626C91.1297 102.82 91.4789 102.917 91.8743 102.917C92.2696 102.917 92.6188 102.82 92.9219 102.626C93.2249 102.429 93.4616 102.142 93.6321 101.763C93.8049 101.382 93.8913 100.915 93.8913 100.364Z" fill="#E5E7EB"/>
<rect x="77.5" y="90.5" width="30" height="19" rx="4.5" stroke="#6B7280"/>
</g>
<g filter="url(#filter6_dd_169_149714)">
<rect x="116" y="90" width="31" height="20" rx="5" fill="#4B5563"/>
<path d="M128.248 104L126.195 96.7273H127.612L128.923 102.072H128.99L130.389 96.7273H131.678L133.081 102.075H133.145L134.455 96.7273H135.872L133.82 104H132.52L131.064 98.897H131.007L129.548 104H128.248Z" fill="#E5E7EB"/>
<rect x="116.5" y="90.5" width="30" height="19" rx="4.5" stroke="#6B7280"/>
</g>
<g filter="url(#filter7_dd_169_149714)">
<rect x="155" y="90" width="31" height="20" rx="5" fill="#4B5563"/>
<path d="M167.717 104V96.7273H172.447V97.8317H169.035V99.8061H172.202V100.911H169.035V102.896H172.476V104H167.717Z" fill="#E5E7EB"/>
<rect x="155.5" y="90.5" width="30" height="19" rx="4.5" stroke="#6B7280"/>
</g>
<g filter="url(#filter8_dd_169_149714)">
<rect x="194" y="90" width="31" height="20" rx="5" fill="#4B5563"/>
<path d="M206.717 104V96.7273H209.445C210.003 96.7273 210.472 96.8243 210.851 97.0185C211.232 97.2126 211.52 97.4848 211.714 97.8352C211.91 98.1832 212.009 98.5893 212.009 99.0533C212.009 99.5196 211.909 99.9245 211.71 100.268C211.514 100.609 211.224 100.873 210.84 101.06C210.457 101.244 209.986 101.337 209.427 101.337H207.484V100.243H209.249C209.576 100.243 209.844 100.198 210.052 100.108C210.26 100.016 210.414 99.8819 210.513 99.7067C210.615 99.5291 210.666 99.3113 210.666 99.0533C210.666 98.7952 210.615 98.575 210.513 98.3928C210.412 98.2081 210.257 98.0684 210.048 97.9737C209.84 97.8767 209.571 97.8281 209.242 97.8281H208.035V104H206.717ZM210.474 100.705L212.275 104H210.805L209.036 100.705H210.474Z" fill="#E5E7EB"/>
<rect x="194.5" y="90.5" width="30" height="19" rx="4.5" stroke="#6B7280"/>
</g>
<g filter="url(#filter9_dd_169_149714)">
<rect x="233" y="90" width="31" height="20" rx="5" fill="#4B5563"/>
<path d="M245.398 97.8317V96.7273H251.2V97.8317H248.952V104H247.646V97.8317H245.398Z" fill="#E5E7EB"/>
<rect x="233.5" y="90.5" width="30" height="19" rx="4.5" stroke="#6B7280"/>
</g>
<g filter="url(#filter10_dd_169_149714)">
<rect x="77" y="118" width="31" height="20" rx="5" fill="#4B5563"/>
<path d="M89.6513 132H88.245L90.8054 124.727H92.4318L94.9957 132H93.5895L91.647 126.219H91.5902L89.6513 132ZM89.6974 129.148H93.5327V130.207H89.6974V129.148Z" fill="#E5E7EB"/>
<rect x="77.5" y="118.5" width="30" height="19" rx="4.5" stroke="#6B7280"/>
</g>
<g filter="url(#filter11_dd_169_149714)">
<rect x="116" y="118" width="31" height="20" rx="5" fill="#4B5563"/>
<path d="M132.67 126.727C132.637 126.416 132.497 126.175 132.251 126.002C132.007 125.829 131.69 125.743 131.299 125.743C131.024 125.743 130.789 125.784 130.592 125.867C130.396 125.95 130.246 126.062 130.141 126.205C130.037 126.347 129.984 126.509 129.982 126.691C129.982 126.843 130.016 126.974 130.085 127.085C130.156 127.196 130.251 127.291 130.372 127.369C130.493 127.445 130.627 127.509 130.773 127.561C130.92 127.613 131.068 127.657 131.217 127.692L131.899 127.863C132.174 127.927 132.438 128.013 132.691 128.122C132.947 128.231 133.175 128.368 133.376 128.534C133.58 128.7 133.741 128.9 133.859 129.134C133.978 129.369 134.037 129.643 134.037 129.958C134.037 130.384 133.928 130.759 133.71 131.084C133.492 131.406 133.178 131.658 132.766 131.84C132.356 132.02 131.86 132.11 131.278 132.11C130.712 132.11 130.221 132.022 129.804 131.847C129.39 131.672 129.065 131.416 128.831 131.08C128.599 130.744 128.473 130.335 128.455 129.852H129.751C129.77 130.105 129.848 130.316 129.985 130.484C130.122 130.652 130.301 130.777 130.521 130.86C130.744 130.943 130.992 130.984 131.267 130.984C131.554 130.984 131.804 130.942 132.02 130.857C132.238 130.769 132.408 130.648 132.531 130.494C132.654 130.338 132.717 130.156 132.719 129.947C132.717 129.758 132.661 129.602 132.553 129.479C132.444 129.353 132.291 129.249 132.094 129.166C131.9 129.081 131.673 129.005 131.413 128.939L130.585 128.726C129.986 128.572 129.513 128.339 129.165 128.026C128.819 127.711 128.646 127.294 128.646 126.773C128.646 126.344 128.762 125.969 128.994 125.647C129.229 125.325 129.547 125.075 129.95 124.898C130.352 124.718 130.808 124.628 131.317 124.628C131.833 124.628 132.285 124.718 132.673 124.898C133.064 125.075 133.371 125.323 133.593 125.64C133.816 125.955 133.93 126.317 133.938 126.727H132.67Z" fill="#E5E7EB"/>
<rect x="116.5" y="118.5" width="30" height="19" rx="4.5" stroke="#6B7280"/>
</g>
<g filter="url(#filter12_dd_169_149714)">
<rect x="155" y="118" width="31" height="20" rx="5" fill="#4B5563"/>
<path d="M170.182 132H167.717V124.727H170.232C170.954 124.727 171.574 124.873 172.092 125.164C172.613 125.453 173.013 125.868 173.293 126.411C173.572 126.953 173.712 127.601 173.712 128.357C173.712 129.114 173.571 129.765 173.289 130.31C173.01 130.854 172.606 131.272 172.078 131.563C171.553 131.854 170.92 132 170.182 132ZM169.035 130.86H170.118C170.625 130.86 171.047 130.768 171.386 130.583C171.724 130.396 171.979 130.118 172.149 129.749C172.32 129.377 172.405 128.913 172.405 128.357C172.405 127.8 172.32 127.339 172.149 126.972C171.979 126.602 171.727 126.326 171.393 126.144C171.061 125.96 170.649 125.867 170.157 125.867H169.035V130.86Z" fill="#E5E7EB"/>
<rect x="155.5" y="118.5" width="30" height="19" rx="4.5" stroke="#6B7280"/>
</g>
<g filter="url(#filter13_dd_169_149714)">
<rect x="194" y="118" width="31" height="20" rx="5" fill="#4B5563"/>
<path d="M207.717 132V124.727H212.376V125.832H209.035V127.806H212.057V128.911H209.035V132H207.717Z" fill="#E5E7EB"/>
<rect x="194.5" y="118.5" width="30" height="19" rx="4.5" stroke="#6B7280"/>
</g>
<g filter="url(#filter14_dd_169_149714)">
<rect x="233" y="118" width="31" height="20" rx="5" fill="#4B5563"/>
<path d="M250.589 127.05C250.53 126.858 250.449 126.686 250.344 126.535C250.243 126.381 250.12 126.25 249.975 126.141C249.833 126.032 249.67 125.95 249.485 125.896C249.3 125.839 249.099 125.81 248.881 125.81C248.491 125.81 248.143 125.909 247.837 126.105C247.532 126.302 247.292 126.59 247.116 126.972C246.944 127.35 246.857 127.812 246.857 128.357C246.857 128.906 246.944 129.371 247.116 129.752C247.289 130.133 247.53 130.423 247.837 130.622C248.145 130.819 248.503 130.917 248.91 130.917C249.279 130.917 249.599 130.846 249.869 130.704C250.141 130.562 250.35 130.361 250.497 130.1C250.644 129.837 250.717 129.53 250.717 129.177L251.016 129.223H249.041V128.193H251.992V129.067C251.992 129.689 251.86 130.228 251.594 130.683C251.329 131.137 250.965 131.487 250.501 131.734C250.037 131.978 249.504 132.099 248.903 132.099C248.233 132.099 247.644 131.949 247.138 131.648C246.634 131.345 246.239 130.916 245.955 130.359C245.674 129.801 245.533 129.138 245.533 128.371C245.533 127.784 245.616 127.259 245.781 126.798C245.949 126.336 246.184 125.944 246.484 125.622C246.785 125.298 247.138 125.052 247.543 124.884C247.947 124.713 248.388 124.628 248.864 124.628C249.266 124.628 249.641 124.687 249.989 124.805C250.337 124.921 250.646 125.087 250.916 125.303C251.188 125.518 251.412 125.774 251.587 126.07C251.763 126.366 251.877 126.692 251.932 127.05H250.589Z" fill="#E5E7EB"/>
<rect x="233.5" y="118.5" width="30" height="19" rx="4.5" stroke="#6B7280"/>
</g>
<g filter="url(#filter15_dd_169_149714)">
<rect x="77" y="62" width="34" height="20" rx="5" fill="#4B5563"/>
<path d="M88.7173 76V68.7273H93.3764V69.8317H90.0348V71.8061H93.0568V72.9105H90.0348V76H88.7173ZM97.4638 68.7273V76H96.1463V70.0092H96.1037L94.4027 71.0959V69.8885L96.2102 68.7273H97.4638Z" fill="#E5E7EB"/>
<rect x="77.5" y="62.5" width="33" height="19" rx="4.5" stroke="#6B7280"/>
</g>
<g filter="url(#filter16_dd_169_149714)">
<rect x="119" y="62" width="33" height="20" rx="5" fill="#4B5563"/>
<path d="M129.717 76V68.7273H134.376V69.8317H131.035V71.8061H134.057V72.9105H131.035V76H129.717ZM135.506 76V75.0483L138.031 72.5732C138.272 72.3293 138.473 72.1127 138.634 71.9233C138.795 71.7339 138.916 71.5504 138.996 71.3729C139.077 71.1953 139.117 71.0059 139.117 70.8047C139.117 70.575 139.065 70.3786 138.961 70.2152C138.857 70.0495 138.714 69.9216 138.531 69.8317C138.349 69.7417 138.142 69.6967 137.91 69.6967C137.671 69.6967 137.461 69.7464 137.281 69.8459C137.101 69.9429 136.962 70.0814 136.862 70.2614C136.765 70.4413 136.717 70.6555 136.717 70.9041H135.463C135.463 70.4425 135.568 70.0412 135.779 69.7003C135.99 69.3594 136.28 69.0954 136.649 68.9084C137.021 68.7214 137.447 68.6278 137.928 68.6278C138.415 68.6278 138.844 68.719 139.213 68.9013C139.582 69.0836 139.869 69.3333 140.072 69.6506C140.278 69.9678 140.381 70.33 140.381 70.7372C140.381 71.0095 140.329 71.277 140.225 71.5398C140.121 71.8026 139.938 72.0937 139.675 72.4134C139.414 72.733 139.049 73.12 138.577 73.5746L137.324 74.8494V74.8991H140.491V76H135.506Z" fill="#E5E7EB"/>
<rect x="119.5" y="62.5" width="32" height="19" rx="4.5" stroke="#6B7280"/>
</g>
<g filter="url(#filter17_dd_169_149714)">
<rect x="160" y="62" width="37" height="20" rx="5" fill="#4B5563"/>
<path d="M172.717 76V68.7273H177.376V69.8317H174.035V71.8061H177.057V72.9105H174.035V76H172.717ZM181.116 76.0994C180.604 76.0994 180.15 76.0118 179.752 75.8366C179.357 75.6615 179.044 75.4176 178.815 75.1051C178.585 74.7926 178.463 74.4316 178.449 74.022H179.784C179.796 74.2185 179.861 74.3902 179.979 74.5369C180.098 74.6813 180.255 74.7938 180.452 74.8743C180.648 74.9548 180.868 74.995 181.112 74.995C181.373 74.995 181.603 74.95 181.805 74.8601C182.006 74.7678 182.163 74.6399 182.277 74.4766C182.391 74.3132 182.446 74.125 182.444 73.9119C182.446 73.6918 182.389 73.4976 182.273 73.3295C182.157 73.1615 181.989 73.0301 181.769 72.9354C181.551 72.8407 181.289 72.7933 180.981 72.7933H180.338V71.7777H180.981C181.234 71.7777 181.455 71.7339 181.645 71.6463C181.837 71.5587 181.987 71.4356 182.096 71.277C182.205 71.116 182.258 70.9302 182.256 70.7195C182.258 70.5135 182.212 70.3348 182.117 70.1832C182.025 70.0294 181.893 69.9098 181.723 69.8246C181.555 69.7393 181.357 69.6967 181.13 69.6967C180.907 69.6967 180.701 69.737 180.512 69.8175C180.323 69.898 180.17 70.0128 180.054 70.1619C179.938 70.3087 179.876 70.4839 179.869 70.6875H178.602C178.611 70.2803 178.728 69.9228 178.953 69.6151C179.18 69.3049 179.483 69.0634 179.862 68.8906C180.241 68.7154 180.666 68.6278 181.137 68.6278C181.622 68.6278 182.044 68.719 182.401 68.9013C182.761 69.0812 183.039 69.3239 183.236 69.6293C183.432 69.9347 183.531 70.272 183.531 70.6413C183.533 71.0509 183.412 71.3942 183.168 71.6712C182.927 71.9482 182.61 72.1293 182.217 72.2145V72.2713C182.728 72.3423 183.12 72.5317 183.392 72.8395C183.667 73.1449 183.803 73.5249 183.8 73.9794C183.8 74.3866 183.684 74.7512 183.452 75.0732C183.223 75.3928 182.906 75.6437 182.501 75.826C182.098 76.0083 181.637 76.0994 181.116 76.0994Z" fill="#E5E7EB"/>
<rect x="160.5" y="62.5" width="36" height="19" rx="4.5" stroke="#6B7280"/>
</g>
<g filter="url(#filter18_dd_169_149714)">
<rect x="205" y="62" width="37" height="20" rx="5" fill="#4B5563"/>
<path d="M217.717 76V68.7273H222.376V69.8317H219.035V71.8061H222.057V72.9105H219.035V76H217.717ZM223.374 74.6506V73.603L226.46 68.7273H227.334V70.2188H226.801L224.724 73.5107V73.5675H229.031V74.6506H223.374ZM226.844 76V74.331L226.858 73.8622V68.7273H228.101V76H226.844Z" fill="#E5E7EB"/>
<rect x="205.5" y="62.5" width="36" height="19" rx="4.5" stroke="#6B7280"/>
</g>
<g filter="url(#filter19_dd_169_149714)">
<rect x="250" y="62" width="37" height="20" rx="5" fill="#4B5563"/>
<path d="M262.717 76V68.7273H267.376V69.8317H264.035V71.8061H267.057V72.9105H264.035V76H262.717ZM271.034 76.0994C270.561 76.0994 270.137 76.0107 269.763 75.8331C269.389 75.6532 269.092 75.407 268.871 75.0945C268.654 74.782 268.538 74.4245 268.523 74.022H269.802C269.826 74.3203 269.955 74.5642 270.189 74.7536C270.423 74.9406 270.705 75.0341 271.034 75.0341C271.292 75.0341 271.522 74.9749 271.723 74.8565C271.924 74.7382 272.083 74.5736 272.199 74.3629C272.315 74.1522 272.372 73.9119 272.369 73.642C272.372 73.3674 272.314 73.1236 272.195 72.9105C272.077 72.6974 271.915 72.5305 271.709 72.4098C271.503 72.2867 271.266 72.2251 270.999 72.2251C270.781 72.2228 270.567 72.263 270.356 72.3459C270.145 72.4287 269.978 72.5376 269.855 72.6726L268.665 72.4773L269.045 68.7273H273.264V69.8281H270.136L269.926 71.7564H269.969C270.104 71.5978 270.294 71.4664 270.54 71.3622C270.787 71.2557 271.057 71.2024 271.35 71.2024C271.79 71.2024 272.183 71.3066 272.529 71.5149C272.875 71.7209 273.147 72.005 273.346 72.3672C273.545 72.7294 273.644 73.1437 273.644 73.6101C273.644 74.0907 273.533 74.5192 273.31 74.8956C273.09 75.2696 272.784 75.5644 272.391 75.7798C272 75.9929 271.548 76.0994 271.034 76.0994Z" fill="#E5E7EB"/>
<rect x="250.5" y="62.5" width="36" height="19" rx="4.5" stroke="#6B7280"/>
</g>
<g filter="url(#filter20_dd_169_149714)">
<rect x="295" y="62" width="37" height="20" rx="5" fill="#4B5563"/>
<path d="M307.717 76V68.7273H312.376V69.8317H309.035V71.8061H312.057V72.9105H309.035V76H307.717ZM316.169 76.0994C315.821 76.0971 315.481 76.0367 315.15 75.9183C314.818 75.7976 314.52 75.6023 314.255 75.3324C313.99 75.0601 313.779 74.6991 313.623 74.2493C313.467 73.7971 313.39 73.2372 313.392 72.5696C313.392 71.947 313.458 71.3918 313.591 70.9041C313.723 70.4164 313.914 70.0045 314.163 69.6683C314.411 69.3298 314.711 69.0717 315.061 68.8942C315.414 68.7166 315.808 68.6278 316.244 68.6278C316.701 68.6278 317.105 68.7178 317.458 68.8977C317.813 69.0777 318.1 69.3239 318.317 69.6364C318.535 69.9465 318.67 70.2969 318.722 70.6875H317.426C317.36 70.4081 317.224 70.1856 317.018 70.0199C316.814 69.8518 316.556 69.7678 316.244 69.7678C315.739 69.7678 315.351 69.9867 315.079 70.4247C314.809 70.8627 314.673 71.464 314.67 72.2287H314.72C314.836 72.0204 314.987 71.8416 315.171 71.6925C315.356 71.5433 315.564 71.4285 315.796 71.348C316.031 71.2652 316.278 71.2237 316.538 71.2237C316.964 71.2237 317.347 71.3255 317.685 71.5291C318.026 71.7327 318.296 72.0133 318.495 72.3707C318.694 72.7259 318.792 73.133 318.79 73.5923C318.792 74.0705 318.683 74.5002 318.463 74.8814C318.243 75.2602 317.936 75.5585 317.543 75.7763C317.15 75.9941 316.692 76.1018 316.169 76.0994ZM316.162 75.0341C316.42 75.0341 316.651 74.9714 316.854 74.8459C317.058 74.7204 317.219 74.5511 317.337 74.3381C317.456 74.125 317.514 73.8859 317.511 73.6207C317.514 73.3603 317.457 73.1248 317.341 72.9141C317.227 72.7034 317.07 72.5365 316.869 72.4134C316.667 72.2902 316.438 72.2287 316.18 72.2287C315.988 72.2287 315.809 72.2654 315.643 72.3388C315.478 72.4122 315.333 72.514 315.21 72.6442C315.087 72.772 314.99 72.9212 314.919 73.0916C314.85 73.2597 314.815 73.4396 314.812 73.6314C314.815 73.8847 314.874 74.1179 314.99 74.331C315.106 74.544 315.266 74.7145 315.469 74.8423C315.673 74.9702 315.904 75.0341 316.162 75.0341Z" fill="#E5E7EB"/>
<rect x="295.5" y="62.5" width="36" height="19" rx="4.5" stroke="#6B7280"/>
</g>
<g filter="url(#filter21_dd_169_149714)">
<rect x="219" y="146" width="52" height="24" rx="5" fill="#4B5563"/>
<path d="M240.442 157.181H239.114C239.076 156.963 239.007 156.77 238.905 156.602C238.803 156.432 238.676 156.287 238.525 156.169C238.373 156.051 238.201 155.962 238.006 155.903C237.815 155.841 237.607 155.81 237.385 155.81C236.99 155.81 236.639 155.91 236.334 156.109C236.028 156.305 235.789 156.594 235.616 156.975C235.444 157.354 235.357 157.817 235.357 158.364C235.357 158.92 235.444 159.389 235.616 159.77C235.792 160.149 236.031 160.435 236.334 160.629C236.639 160.821 236.988 160.917 237.381 160.917C237.599 160.917 237.803 160.888 237.992 160.832C238.184 160.772 238.356 160.686 238.507 160.572C238.661 160.459 238.79 160.319 238.894 160.153C239.001 159.988 239.074 159.798 239.114 159.585L240.442 159.592C240.393 159.938 240.285 160.262 240.119 160.565C239.956 160.868 239.742 161.136 239.477 161.368C239.211 161.598 238.901 161.777 238.546 161.908C238.191 162.036 237.797 162.099 237.364 162.099C236.724 162.099 236.154 161.951 235.652 161.656C235.15 161.36 234.755 160.932 234.466 160.374C234.177 159.815 234.033 159.145 234.033 158.364C234.033 157.58 234.178 156.91 234.469 156.354C234.761 155.795 235.157 155.368 235.659 155.072C236.161 154.776 236.729 154.628 237.364 154.628C237.768 154.628 238.145 154.685 238.493 154.798C238.841 154.912 239.151 155.079 239.423 155.299C239.696 155.517 239.919 155.784 240.094 156.102C240.272 156.416 240.388 156.776 240.442 157.181ZM241.592 162V156.545H242.821V157.472H242.885C242.998 157.16 243.187 156.916 243.449 156.741C243.712 156.563 244.026 156.474 244.39 156.474C244.76 156.474 245.071 156.564 245.324 156.744C245.58 156.922 245.76 157.165 245.864 157.472H245.921C246.042 157.169 246.245 156.928 246.532 156.748C246.821 156.566 247.163 156.474 247.558 156.474C248.06 156.474 248.47 156.633 248.787 156.95C249.104 157.268 249.263 157.73 249.263 158.339V162H247.974V158.538C247.974 158.199 247.884 157.952 247.704 157.795C247.524 157.637 247.304 157.558 247.043 157.558C246.733 157.558 246.49 157.655 246.315 157.849C246.142 158.04 246.056 158.29 246.056 158.598V162H244.795V158.484C244.795 158.203 244.71 157.978 244.54 157.81C244.372 157.642 244.151 157.558 243.879 157.558C243.694 157.558 243.526 157.605 243.375 157.7C243.223 157.792 243.103 157.923 243.013 158.094C242.923 158.262 242.878 158.458 242.878 158.683V162H241.592ZM252.591 162.096C252.162 162.096 251.779 161.986 251.44 161.766C251.102 161.545 250.834 161.226 250.638 160.807C250.441 160.388 250.343 159.879 250.343 159.28C250.343 158.674 250.442 158.162 250.641 157.746C250.843 157.327 251.114 157.011 251.455 156.798C251.795 156.582 252.175 156.474 252.594 156.474C252.914 156.474 253.177 156.529 253.383 156.638C253.589 156.744 253.752 156.873 253.873 157.025C253.994 157.174 254.087 157.315 254.153 157.447H254.207V154.727H255.496V162H254.232V161.141H254.153C254.087 161.273 253.991 161.414 253.866 161.563C253.74 161.71 253.575 161.835 253.369 161.94C253.163 162.044 252.903 162.096 252.591 162.096ZM252.95 161.041C253.222 161.041 253.454 160.968 253.646 160.821C253.837 160.672 253.983 160.465 254.082 160.2C254.182 159.934 254.232 159.625 254.232 159.273C254.232 158.92 254.182 158.613 254.082 158.353C253.985 158.093 253.841 157.89 253.649 157.746C253.46 157.601 253.227 157.529 252.95 157.529C252.663 157.529 252.424 157.604 252.232 157.753C252.04 157.902 251.896 158.108 251.799 158.371C251.702 158.634 251.653 158.934 251.653 159.273C251.653 159.614 251.702 159.918 251.799 160.185C251.898 160.451 252.044 160.66 252.236 160.814C252.43 160.965 252.668 161.041 252.95 161.041Z" fill="#E5E7EB"/>
<rect x="219.5" y="146.5" width="51" height="23" rx="4.5" stroke="#6B7280"/>
</g>
<g filter="url(#filter22_dd_169_149714)">
<rect x="18" y="146" width="53" height="24" rx="5" fill="#4B5563"/>
<path d="M42.9233 156.545V157.54H39.6989V156.545H42.9233ZM40.505 162V156.031C40.505 155.664 40.5807 155.358 40.7322 155.114C40.8861 154.871 41.0921 154.688 41.3501 154.567C41.6082 154.447 41.8946 154.386 42.2095 154.386C42.4321 154.386 42.6297 154.404 42.8026 154.44C42.9754 154.475 43.1032 154.507 43.1861 154.536L42.9304 155.53C42.8759 155.513 42.8073 155.497 42.7244 155.48C42.6416 155.461 42.5492 155.452 42.4474 155.452C42.2083 155.452 42.0391 155.51 41.9396 155.626C41.8426 155.739 41.794 155.903 41.794 156.116V162H40.505ZM45.2156 158.804V162H43.93V156.545H45.1587V157.472H45.2227C45.3481 157.167 45.5482 156.924 45.8228 156.744C46.0998 156.564 46.4419 156.474 46.8491 156.474C47.2255 156.474 47.5534 156.555 47.8327 156.716C48.1145 156.877 48.3323 157.11 48.4862 157.415C48.6424 157.721 48.7193 158.091 48.717 158.527V162H47.4315V158.726C47.4315 158.361 47.3368 158.076 47.1474 157.87C46.9603 157.664 46.7011 157.561 46.3697 157.561C46.1448 157.561 45.9447 157.611 45.7695 157.71C45.5967 157.807 45.4606 157.948 45.3612 158.133C45.2641 158.317 45.2156 158.541 45.2156 158.804Z" fill="#E5E7EB"/>
<rect x="18.5" y="146.5" width="52" height="23" rx="4.5" stroke="#6B7280"/>
</g>
<g filter="url(#filter23_dd_169_149714)">
<rect x="279" y="146" width="53" height="24" rx="5" fill="#4B5563"/>
<path d="M296.216 158.364C296.216 159.147 296.069 159.818 295.776 160.377C295.484 160.933 295.087 161.36 294.582 161.656C294.08 161.951 293.511 162.099 292.874 162.099C292.237 162.099 291.667 161.951 291.163 161.656C290.661 161.357 290.263 160.93 289.969 160.374C289.678 159.815 289.533 159.145 289.533 158.364C289.533 157.58 289.678 156.91 289.969 156.354C290.263 155.795 290.661 155.368 291.163 155.072C291.667 154.776 292.237 154.628 292.874 154.628C293.511 154.628 294.08 154.776 294.582 155.072C295.087 155.368 295.484 155.795 295.776 156.354C296.069 156.91 296.216 157.58 296.216 158.364ZM294.891 158.364C294.891 157.812 294.805 157.347 294.632 156.968C294.462 156.587 294.225 156.299 293.922 156.105C293.619 155.909 293.27 155.81 292.874 155.81C292.479 155.81 292.13 155.909 291.827 156.105C291.524 156.299 291.286 156.587 291.113 156.968C290.942 157.347 290.857 157.812 290.857 158.364C290.857 158.915 290.942 159.382 291.113 159.763C291.286 160.142 291.524 160.429 291.827 160.626C292.13 160.82 292.479 160.917 292.874 160.917C293.27 160.917 293.619 160.82 293.922 160.626C294.225 160.429 294.462 160.142 294.632 159.763C294.805 159.382 294.891 158.915 294.891 158.364ZM297.405 164.045V156.545H298.669V157.447H298.743C298.81 157.315 298.903 157.174 299.024 157.025C299.145 156.873 299.308 156.744 299.514 156.638C299.72 156.529 299.983 156.474 300.302 156.474C300.724 156.474 301.104 156.582 301.442 156.798C301.783 157.011 302.053 157.327 302.252 157.746C302.453 158.162 302.554 158.674 302.554 159.28C302.554 159.879 302.456 160.388 302.259 160.807C302.063 161.226 301.795 161.545 301.456 161.766C301.118 161.986 300.734 162.096 300.306 162.096C299.993 162.096 299.734 162.044 299.528 161.94C299.322 161.835 299.157 161.71 299.031 161.563C298.908 161.414 298.812 161.273 298.743 161.141H298.69V164.045H297.405ZM298.665 159.273C298.665 159.625 298.715 159.934 298.814 160.2C298.916 160.465 299.062 160.672 299.251 160.821C299.443 160.968 299.675 161.041 299.947 161.041C300.231 161.041 300.469 160.965 300.661 160.814C300.853 160.66 300.997 160.451 301.094 160.185C301.194 159.918 301.243 159.614 301.243 159.273C301.243 158.934 301.195 158.634 301.098 158.371C301.001 158.108 300.856 157.902 300.665 157.753C300.473 157.604 300.234 157.529 299.947 157.529C299.673 157.529 299.439 157.601 299.248 157.746C299.056 157.89 298.91 158.093 298.811 158.353C298.714 158.613 298.665 158.92 298.665 159.273ZM306.378 156.545V157.54H303.243V156.545H306.378ZM304.017 155.239H305.302V160.359C305.302 160.532 305.328 160.665 305.381 160.757C305.435 160.847 305.506 160.909 305.594 160.942C305.681 160.975 305.778 160.991 305.885 160.991C305.965 160.991 306.039 160.986 306.105 160.974C306.174 160.962 306.226 160.951 306.261 160.942L306.478 161.947C306.409 161.97 306.311 161.996 306.183 162.025C306.058 162.053 305.904 162.07 305.721 162.075C305.399 162.084 305.109 162.036 304.851 161.929C304.593 161.82 304.389 161.652 304.237 161.425C304.088 161.197 304.015 160.913 304.017 160.572V155.239ZM307.453 162V156.545H308.739V162H307.453ZM308.1 155.771C307.896 155.771 307.721 155.704 307.574 155.569C307.427 155.432 307.354 155.267 307.354 155.075C307.354 154.881 307.427 154.717 307.574 154.582C307.721 154.444 307.896 154.376 308.1 154.376C308.306 154.376 308.481 154.444 308.625 154.582C308.772 154.717 308.846 154.881 308.846 155.075C308.846 155.267 308.772 155.432 308.625 155.569C308.481 155.704 308.306 155.771 308.1 155.771ZM312.44 162.107C311.907 162.107 311.446 161.989 311.055 161.755C310.665 161.521 310.362 161.193 310.146 160.771C309.933 160.35 309.827 159.857 309.827 159.294C309.827 158.731 309.933 158.237 310.146 157.813C310.362 157.389 310.665 157.06 311.055 156.826C311.446 156.592 311.907 156.474 312.44 156.474C312.973 156.474 313.434 156.592 313.825 156.826C314.216 157.06 314.518 157.389 314.731 157.813C314.946 158.237 315.054 158.731 315.054 159.294C315.054 159.857 314.946 160.35 314.731 160.771C314.518 161.193 314.216 161.521 313.825 161.755C313.434 161.989 312.973 162.107 312.44 162.107ZM312.447 161.077C312.736 161.077 312.978 160.997 313.172 160.839C313.366 160.678 313.51 160.462 313.605 160.192C313.702 159.923 313.751 159.622 313.751 159.29C313.751 158.957 313.702 158.655 313.605 158.385C313.51 158.113 313.366 157.896 313.172 157.735C312.978 157.574 312.736 157.494 312.447 157.494C312.151 157.494 311.905 157.574 311.709 157.735C311.515 157.896 311.369 158.113 311.272 158.385C311.177 158.655 311.13 158.957 311.13 159.29C311.13 159.622 311.177 159.923 311.272 160.192C311.369 160.462 311.515 160.678 311.709 160.839C311.905 160.997 312.151 161.077 312.447 161.077ZM317.43 158.804V162H316.145V156.545H317.374V157.472H317.438C317.563 157.167 317.763 156.924 318.038 156.744C318.315 156.564 318.657 156.474 319.064 156.474C319.44 156.474 319.768 156.555 320.048 156.716C320.329 156.877 320.547 157.11 320.701 157.415C320.857 157.721 320.934 158.091 320.932 158.527V162H319.646V158.726C319.646 158.361 319.552 158.076 319.362 157.87C319.175 157.664 318.916 157.561 318.585 157.561C318.36 157.561 318.16 157.611 317.984 157.71C317.812 157.807 317.675 157.948 317.576 158.133C317.479 158.317 317.43 158.541 317.43 158.804Z" fill="#E5E7EB"/>
<rect x="279.5" y="146.5" width="52" height="23" rx="4.5" stroke="#6B7280"/>
</g>
<defs>
<filter id="filter0_dd_169_149714" x="74" y="144" width="140" height="30" filterUnits="userSpaceOnUse" color-interpolation-filters="sRGB">
<feFlood flood-opacity="0" result="BackgroundImageFix"/>
<feColorMatrix in="SourceAlpha" type="matrix" values="0 0 0 0 0 0 0 0 0 0 0 0 0 0 0 0 0 0 127 0" result="hardAlpha"/>
<feOffset dy="1"/>
<feGaussianBlur stdDeviation="1.5"/>
<feColorMatrix type="matrix" values="0 0 0 0 0 0 0 0 0 0 0 0 0 0 0 0 0 0 0.1 0"/>
<feBlend mode="normal" in2="BackgroundImageFix" result="effect1_dropShadow_169_149714"/>
<feColorMatrix in="SourceAlpha" type="matrix" values="0 0 0 0 0 0 0 0 0 0 0 0 0 0 0 0 0 0 127 0" result="hardAlpha"/>
<feOffset dy="1"/>
<feGaussianBlur stdDeviation="1"/>
<feColorMatrix type="matrix" values="0 0 0 0 0 0 0 0 0 0 0 0 0 0 0 0 0 0 0.06 0"/>
<feBlend mode="normal" in2="effect1_dropShadow_169_149714" result="effect2_dropShadow_169_149714"/>
<feBlend mode="normal" in="SourceGraphic" in2="effect2_dropShadow_169_149714" result="shape"/>
</filter>
<filter id="filter1_dd_169_149714" x="269" y="88" width="66" height="54" filterUnits="userSpaceOnUse" color-interpolation-filters="sRGB">
<feFlood flood-opacity="0" result="BackgroundImageFix"/>
<feColorMatrix in="SourceAlpha" type="matrix" values="0 0 0 0 0 0 0 0 0 0 0 0 0 0 0 0 0 0 127 0" result="hardAlpha"/>
<feOffset dy="1"/>
<feGaussianBlur stdDeviation="1.5"/>
<feColorMatrix type="matrix" values="0 0 0 0 0 0 0 0 0 0 0 0 0 0 0 0 0 0 0.1 0"/>
<feBlend mode="normal" in2="BackgroundImageFix" result="effect1_dropShadow_169_149714"/>
<feColorMatrix in="SourceAlpha" type="matrix" values="0 0 0 0 0 0 0 0 0 0 0 0 0 0 0 0 0 0 127 0" result="hardAlpha"/>
<feOffset dy="1"/>
<feGaussianBlur stdDeviation="1"/>
<feColorMatrix type="matrix" values="0 0 0 0 0 0 0 0 0 0 0 0 0 0 0 0 0 0 0.06 0"/>
<feBlend mode="normal" in2="effect1_dropShadow_169_149714" result="effect2_dropShadow_169_149714"/>
<feBlend mode="normal" in="SourceGraphic" in2="effect2_dropShadow_169_149714" result="shape"/>
</filter>
<filter id="filter2_dd_169_149714" x="15" y="60" width="57" height="26" filterUnits="userSpaceOnUse" color-interpolation-filters="sRGB">
<feFlood flood-opacity="0" result="BackgroundImageFix"/>
<feColorMatrix in="SourceAlpha" type="matrix" values="0 0 0 0 0 0 0 0 0 0 0 0 0 0 0 0 0 0 127 0" result="hardAlpha"/>
<feOffset dy="1"/>
<feGaussianBlur stdDeviation="1.5"/>
<feColorMatrix type="matrix" values="0 0 0 0 0 0 0 0 0 0 0 0 0 0 0 0 0 0 0.1 0"/>
<feBlend mode="normal" in2="BackgroundImageFix" result="effect1_dropShadow_169_149714"/>
<feColorMatrix in="SourceAlpha" type="matrix" values="0 0 0 0 0 0 0 0 0 0 0 0 0 0 0 0 0 0 127 0" result="hardAlpha"/>
<feOffset dy="1"/>
<feGaussianBlur stdDeviation="1"/>
<feColorMatrix type="matrix" values="0 0 0 0 0 0 0 0 0 0 0 0 0 0 0 0 0 0 0.06 0"/>
<feBlend mode="normal" in2="effect1_dropShadow_169_149714" result="effect2_dropShadow_169_149714"/>
<feBlend mode="normal" in="SourceGraphic" in2="effect2_dropShadow_169_149714" result="shape"/>
</filter>
<filter id="filter3_dd_169_149714" x="15" y="88" width="57" height="26" filterUnits="userSpaceOnUse" color-interpolation-filters="sRGB">
<feFlood flood-opacity="0" result="BackgroundImageFix"/>
<feColorMatrix in="SourceAlpha" type="matrix" values="0 0 0 0 0 0 0 0 0 0 0 0 0 0 0 0 0 0 127 0" result="hardAlpha"/>
<feOffset dy="1"/>
<feGaussianBlur stdDeviation="1.5"/>
<feColorMatrix type="matrix" values="0 0 0 0 0 0 0 0 0 0 0 0 0 0 0 0 0 0 0.1 0"/>
<feBlend mode="normal" in2="BackgroundImageFix" result="effect1_dropShadow_169_149714"/>
<feColorMatrix in="SourceAlpha" type="matrix" values="0 0 0 0 0 0 0 0 0 0 0 0 0 0 0 0 0 0 127 0" result="hardAlpha"/>
<feOffset dy="1"/>
<feGaussianBlur stdDeviation="1"/>
<feColorMatrix type="matrix" values="0 0 0 0 0 0 0 0 0 0 0 0 0 0 0 0 0 0 0.06 0"/>
<feBlend mode="normal" in2="effect1_dropShadow_169_149714" result="effect2_dropShadow_169_149714"/>
<feBlend mode="normal" in="SourceGraphic" in2="effect2_dropShadow_169_149714" result="shape"/>
</filter>
<filter id="filter4_dd_169_149714" x="15" y="116" width="57" height="26" filterUnits="userSpaceOnUse" color-interpolation-filters="sRGB">
<feFlood flood-opacity="0" result="BackgroundImageFix"/>
<feColorMatrix in="SourceAlpha" type="matrix" values="0 0 0 0 0 0 0 0 0 0 0 0 0 0 0 0 0 0 127 0" result="hardAlpha"/>
<feOffset dy="1"/>
<feGaussianBlur stdDeviation="1.5"/>
<feColorMatrix type="matrix" values="0 0 0 0 0 0 0 0 0 0 0 0 0 0 0 0 0 0 0.1 0"/>
<feBlend mode="normal" in2="BackgroundImageFix" result="effect1_dropShadow_169_149714"/>
<feColorMatrix in="SourceAlpha" type="matrix" values="0 0 0 0 0 0 0 0 0 0 0 0 0 0 0 0 0 0 127 0" result="hardAlpha"/>
<feOffset dy="1"/>
<feGaussianBlur stdDeviation="1"/>
<feColorMatrix type="matrix" values="0 0 0 0 0 0 0 0 0 0 0 0 0 0 0 0 0 0 0.06 0"/>
<feBlend mode="normal" in2="effect1_dropShadow_169_149714" result="effect2_dropShadow_169_149714"/>
<feBlend mode="normal" in="SourceGraphic" in2="effect2_dropShadow_169_149714" result="shape"/>
</filter>
<filter id="filter5_dd_169_149714" x="74" y="88" width="37" height="26" filterUnits="userSpaceOnUse" color-interpolation-filters="sRGB">
<feFlood flood-opacity="0" result="BackgroundImageFix"/>
<feColorMatrix in="SourceAlpha" type="matrix" values="0 0 0 0 0 0 0 0 0 0 0 0 0 0 0 0 0 0 127 0" result="hardAlpha"/>
<feOffset dy="1"/>
<feGaussianBlur stdDeviation="1.5"/>
<feColorMatrix type="matrix" values="0 0 0 0 0 0 0 0 0 0 0 0 0 0 0 0 0 0 0.1 0"/>
<feBlend mode="normal" in2="BackgroundImageFix" result="effect1_dropShadow_169_149714"/>
<feColorMatrix in="SourceAlpha" type="matrix" values="0 0 0 0 0 0 0 0 0 0 0 0 0 0 0 0 0 0 127 0" result="hardAlpha"/>
<feOffset dy="1"/>
<feGaussianBlur stdDeviation="1"/>
<feColorMatrix type="matrix" values="0 0 0 0 0 0 0 0 0 0 0 0 0 0 0 0 0 0 0.06 0"/>
<feBlend mode="normal" in2="effect1_dropShadow_169_149714" result="effect2_dropShadow_169_149714"/>
<feBlend mode="normal" in="SourceGraphic" in2="effect2_dropShadow_169_149714" result="shape"/>
</filter>
<filter id="filter6_dd_169_149714" x="113" y="88" width="37" height="26" filterUnits="userSpaceOnUse" color-interpolation-filters="sRGB">
<feFlood flood-opacity="0" result="BackgroundImageFix"/>
<feColorMatrix in="SourceAlpha" type="matrix" values="0 0 0 0 0 0 0 0 0 0 0 0 0 0 0 0 0 0 127 0" result="hardAlpha"/>
<feOffset dy="1"/>
<feGaussianBlur stdDeviation="1.5"/>
<feColorMatrix type="matrix" values="0 0 0 0 0 0 0 0 0 0 0 0 0 0 0 0 0 0 0.1 0"/>
<feBlend mode="normal" in2="BackgroundImageFix" result="effect1_dropShadow_169_149714"/>
<feColorMatrix in="SourceAlpha" type="matrix" values="0 0 0 0 0 0 0 0 0 0 0 0 0 0 0 0 0 0 127 0" result="hardAlpha"/>
<feOffset dy="1"/>
<feGaussianBlur stdDeviation="1"/>
<feColorMatrix type="matrix" values="0 0 0 0 0 0 0 0 0 0 0 0 0 0 0 0 0 0 0.06 0"/>
<feBlend mode="normal" in2="effect1_dropShadow_169_149714" result="effect2_dropShadow_169_149714"/>
<feBlend mode="normal" in="SourceGraphic" in2="effect2_dropShadow_169_149714" result="shape"/>
</filter>
<filter id="filter7_dd_169_149714" x="152" y="88" width="37" height="26" filterUnits="userSpaceOnUse" color-interpolation-filters="sRGB">
<feFlood flood-opacity="0" result="BackgroundImageFix"/>
<feColorMatrix in="SourceAlpha" type="matrix" values="0 0 0 0 0 0 0 0 0 0 0 0 0 0 0 0 0 0 127 0" result="hardAlpha"/>
<feOffset dy="1"/>
<feGaussianBlur stdDeviation="1.5"/>
<feColorMatrix type="matrix" values="0 0 0 0 0 0 0 0 0 0 0 0 0 0 0 0 0 0 0.1 0"/>
<feBlend mode="normal" in2="BackgroundImageFix" result="effect1_dropShadow_169_149714"/>
<feColorMatrix in="SourceAlpha" type="matrix" values="0 0 0 0 0 0 0 0 0 0 0 0 0 0 0 0 0 0 127 0" result="hardAlpha"/>
<feOffset dy="1"/>
<feGaussianBlur stdDeviation="1"/>
<feColorMatrix type="matrix" values="0 0 0 0 0 0 0 0 0 0 0 0 0 0 0 0 0 0 0.06 0"/>
<feBlend mode="normal" in2="effect1_dropShadow_169_149714" result="effect2_dropShadow_169_149714"/>
<feBlend mode="normal" in="SourceGraphic" in2="effect2_dropShadow_169_149714" result="shape"/>
</filter>
<filter id="filter8_dd_169_149714" x="191" y="88" width="37" height="26" filterUnits="userSpaceOnUse" color-interpolation-filters="sRGB">
<feFlood flood-opacity="0" result="BackgroundImageFix"/>
<feColorMatrix in="SourceAlpha" type="matrix" values="0 0 0 0 0 0 0 0 0 0 0 0 0 0 0 0 0 0 127 0" result="hardAlpha"/>
<feOffset dy="1"/>
<feGaussianBlur stdDeviation="1.5"/>
<feColorMatrix type="matrix" values="0 0 0 0 0 0 0 0 0 0 0 0 0 0 0 0 0 0 0.1 0"/>
<feBlend mode="normal" in2="BackgroundImageFix" result="effect1_dropShadow_169_149714"/>
<feColorMatrix in="SourceAlpha" type="matrix" values="0 0 0 0 0 0 0 0 0 0 0 0 0 0 0 0 0 0 127 0" result="hardAlpha"/>
<feOffset dy="1"/>
<feGaussianBlur stdDeviation="1"/>
<feColorMatrix type="matrix" values="0 0 0 0 0 0 0 0 0 0 0 0 0 0 0 0 0 0 0.06 0"/>
<feBlend mode="normal" in2="effect1_dropShadow_169_149714" result="effect2_dropShadow_169_149714"/>
<feBlend mode="normal" in="SourceGraphic" in2="effect2_dropShadow_169_149714" result="shape"/>
</filter>
<filter id="filter9_dd_169_149714" x="230" y="88" width="37" height="26" filterUnits="userSpaceOnUse" color-interpolation-filters="sRGB">
<feFlood flood-opacity="0" result="BackgroundImageFix"/>
<feColorMatrix in="SourceAlpha" type="matrix" values="0 0 0 0 0 0 0 0 0 0 0 0 0 0 0 0 0 0 127 0" result="hardAlpha"/>
<feOffset dy="1"/>
<feGaussianBlur stdDeviation="1.5"/>
<feColorMatrix type="matrix" values="0 0 0 0 0 0 0 0 0 0 0 0 0 0 0 0 0 0 0.1 0"/>
<feBlend mode="normal" in2="BackgroundImageFix" result="effect1_dropShadow_169_149714"/>
<feColorMatrix in="SourceAlpha" type="matrix" values="0 0 0 0 0 0 0 0 0 0 0 0 0 0 0 0 0 0 127 0" result="hardAlpha"/>
<feOffset dy="1"/>
<feGaussianBlur stdDeviation="1"/>
<feColorMatrix type="matrix" values="0 0 0 0 0 0 0 0 0 0 0 0 0 0 0 0 0 0 0.06 0"/>
<feBlend mode="normal" in2="effect1_dropShadow_169_149714" result="effect2_dropShadow_169_149714"/>
<feBlend mode="normal" in="SourceGraphic" in2="effect2_dropShadow_169_149714" result="shape"/>
</filter>
<filter id="filter10_dd_169_149714" x="74" y="116" width="37" height="26" filterUnits="userSpaceOnUse" color-interpolation-filters="sRGB">
<feFlood flood-opacity="0" result="BackgroundImageFix"/>
<feColorMatrix in="SourceAlpha" type="matrix" values="0 0 0 0 0 0 0 0 0 0 0 0 0 0 0 0 0 0 127 0" result="hardAlpha"/>
<feOffset dy="1"/>
<feGaussianBlur stdDeviation="1.5"/>
<feColorMatrix type="matrix" values="0 0 0 0 0 0 0 0 0 0 0 0 0 0 0 0 0 0 0.1 0"/>
<feBlend mode="normal" in2="BackgroundImageFix" result="effect1_dropShadow_169_149714"/>
<feColorMatrix in="SourceAlpha" type="matrix" values="0 0 0 0 0 0 0 0 0 0 0 0 0 0 0 0 0 0 127 0" result="hardAlpha"/>
<feOffset dy="1"/>
<feGaussianBlur stdDeviation="1"/>
<feColorMatrix type="matrix" values="0 0 0 0 0 0 0 0 0 0 0 0 0 0 0 0 0 0 0.06 0"/>
<feBlend mode="normal" in2="effect1_dropShadow_169_149714" result="effect2_dropShadow_169_149714"/>
<feBlend mode="normal" in="SourceGraphic" in2="effect2_dropShadow_169_149714" result="shape"/>
</filter>
<filter id="filter11_dd_169_149714" x="113" y="116" width="37" height="26" filterUnits="userSpaceOnUse" color-interpolation-filters="sRGB">
<feFlood flood-opacity="0" result="BackgroundImageFix"/>
<feColorMatrix in="SourceAlpha" type="matrix" values="0 0 0 0 0 0 0 0 0 0 0 0 0 0 0 0 0 0 127 0" result="hardAlpha"/>
<feOffset dy="1"/>
<feGaussianBlur stdDeviation="1.5"/>
<feColorMatrix type="matrix" values="0 0 0 0 0 0 0 0 0 0 0 0 0 0 0 0 0 0 0.1 0"/>
<feBlend mode="normal" in2="BackgroundImageFix" result="effect1_dropShadow_169_149714"/>
<feColorMatrix in="SourceAlpha" type="matrix" values="0 0 0 0 0 0 0 0 0 0 0 0 0 0 0 0 0 0 127 0" result="hardAlpha"/>
<feOffset dy="1"/>
<feGaussianBlur stdDeviation="1"/>
<feColorMatrix type="matrix" values="0 0 0 0 0 0 0 0 0 0 0 0 0 0 0 0 0 0 0.06 0"/>
<feBlend mode="normal" in2="effect1_dropShadow_169_149714" result="effect2_dropShadow_169_149714"/>
<feBlend mode="normal" in="SourceGraphic" in2="effect2_dropShadow_169_149714" result="shape"/>
</filter>
<filter id="filter12_dd_169_149714" x="152" y="116" width="37" height="26" filterUnits="userSpaceOnUse" color-interpolation-filters="sRGB">
<feFlood flood-opacity="0" result="BackgroundImageFix"/>
<feColorMatrix in="SourceAlpha" type="matrix" values="0 0 0 0 0 0 0 0 0 0 0 0 0 0 0 0 0 0 127 0" result="hardAlpha"/>
<feOffset dy="1"/>
<feGaussianBlur stdDeviation="1.5"/>
<feColorMatrix type="matrix" values="0 0 0 0 0 0 0 0 0 0 0 0 0 0 0 0 0 0 0.1 0"/>
<feBlend mode="normal" in2="BackgroundImageFix" result="effect1_dropShadow_169_149714"/>
<feColorMatrix in="SourceAlpha" type="matrix" values="0 0 0 0 0 0 0 0 0 0 0 0 0 0 0 0 0 0 127 0" result="hardAlpha"/>
<feOffset dy="1"/>
<feGaussianBlur stdDeviation="1"/>
<feColorMatrix type="matrix" values="0 0 0 0 0 0 0 0 0 0 0 0 0 0 0 0 0 0 0.06 0"/>
<feBlend mode="normal" in2="effect1_dropShadow_169_149714" result="effect2_dropShadow_169_149714"/>
<feBlend mode="normal" in="SourceGraphic" in2="effect2_dropShadow_169_149714" result="shape"/>
</filter>
<filter id="filter13_dd_169_149714" x="191" y="116" width="37" height="26" filterUnits="userSpaceOnUse" color-interpolation-filters="sRGB">
<feFlood flood-opacity="0" result="BackgroundImageFix"/>
<feColorMatrix in="SourceAlpha" type="matrix" values="0 0 0 0 0 0 0 0 0 0 0 0 0 0 0 0 0 0 127 0" result="hardAlpha"/>
<feOffset dy="1"/>
<feGaussianBlur stdDeviation="1.5"/>
<feColorMatrix type="matrix" values="0 0 0 0 0 0 0 0 0 0 0 0 0 0 0 0 0 0 0.1 0"/>
<feBlend mode="normal" in2="BackgroundImageFix" result="effect1_dropShadow_169_149714"/>
<feColorMatrix in="SourceAlpha" type="matrix" values="0 0 0 0 0 0 0 0 0 0 0 0 0 0 0 0 0 0 127 0" result="hardAlpha"/>
<feOffset dy="1"/>
<feGaussianBlur stdDeviation="1"/>
<feColorMatrix type="matrix" values="0 0 0 0 0 0 0 0 0 0 0 0 0 0 0 0 0 0 0.06 0"/>
<feBlend mode="normal" in2="effect1_dropShadow_169_149714" result="effect2_dropShadow_169_149714"/>
<feBlend mode="normal" in="SourceGraphic" in2="effect2_dropShadow_169_149714" result="shape"/>
</filter>
<filter id="filter14_dd_169_149714" x="230" y="116" width="37" height="26" filterUnits="userSpaceOnUse" color-interpolation-filters="sRGB">
<feFlood flood-opacity="0" result="BackgroundImageFix"/>
<feColorMatrix in="SourceAlpha" type="matrix" values="0 0 0 0 0 0 0 0 0 0 0 0 0 0 0 0 0 0 127 0" result="hardAlpha"/>
<feOffset dy="1"/>
<feGaussianBlur stdDeviation="1.5"/>
<feColorMatrix type="matrix" values="0 0 0 0 0 0 0 0 0 0 0 0 0 0 0 0 0 0 0.1 0"/>
<feBlend mode="normal" in2="BackgroundImageFix" result="effect1_dropShadow_169_149714"/>
<feColorMatrix in="SourceAlpha" type="matrix" values="0 0 0 0 0 0 0 0 0 0 0 0 0 0 0 0 0 0 127 0" result="hardAlpha"/>
<feOffset dy="1"/>
<feGaussianBlur stdDeviation="1"/>
<feColorMatrix type="matrix" values="0 0 0 0 0 0 0 0 0 0 0 0 0 0 0 0 0 0 0.06 0"/>
<feBlend mode="normal" in2="effect1_dropShadow_169_149714" result="effect2_dropShadow_169_149714"/>
<feBlend mode="normal" in="SourceGraphic" in2="effect2_dropShadow_169_149714" result="shape"/>
</filter>
<filter id="filter15_dd_169_149714" x="74" y="60" width="40" height="26" filterUnits="userSpaceOnUse" color-interpolation-filters="sRGB">
<feFlood flood-opacity="0" result="BackgroundImageFix"/>
<feColorMatrix in="SourceAlpha" type="matrix" values="0 0 0 0 0 0 0 0 0 0 0 0 0 0 0 0 0 0 127 0" result="hardAlpha"/>
<feOffset dy="1"/>
<feGaussianBlur stdDeviation="1.5"/>
<feColorMatrix type="matrix" values="0 0 0 0 0 0 0 0 0 0 0 0 0 0 0 0 0 0 0.1 0"/>
<feBlend mode="normal" in2="BackgroundImageFix" result="effect1_dropShadow_169_149714"/>
<feColorMatrix in="SourceAlpha" type="matrix" values="0 0 0 0 0 0 0 0 0 0 0 0 0 0 0 0 0 0 127 0" result="hardAlpha"/>
<feOffset dy="1"/>
<feGaussianBlur stdDeviation="1"/>
<feColorMatrix type="matrix" values="0 0 0 0 0 0 0 0 0 0 0 0 0 0 0 0 0 0 0.06 0"/>
<feBlend mode="normal" in2="effect1_dropShadow_169_149714" result="effect2_dropShadow_169_149714"/>
<feBlend mode="normal" in="SourceGraphic" in2="effect2_dropShadow_169_149714" result="shape"/>
</filter>
<filter id="filter16_dd_169_149714" x="116" y="60" width="39" height="26" filterUnits="userSpaceOnUse" color-interpolation-filters="sRGB">
<feFlood flood-opacity="0" result="BackgroundImageFix"/>
<feColorMatrix in="SourceAlpha" type="matrix" values="0 0 0 0 0 0 0 0 0 0 0 0 0 0 0 0 0 0 127 0" result="hardAlpha"/>
<feOffset dy="1"/>
<feGaussianBlur stdDeviation="1.5"/>
<feColorMatrix type="matrix" values="0 0 0 0 0 0 0 0 0 0 0 0 0 0 0 0 0 0 0.1 0"/>
<feBlend mode="normal" in2="BackgroundImageFix" result="effect1_dropShadow_169_149714"/>
<feColorMatrix in="SourceAlpha" type="matrix" values="0 0 0 0 0 0 0 0 0 0 0 0 0 0 0 0 0 0 127 0" result="hardAlpha"/>
<feOffset dy="1"/>
<feGaussianBlur stdDeviation="1"/>
<feColorMatrix type="matrix" values="0 0 0 0 0 0 0 0 0 0 0 0 0 0 0 0 0 0 0.06 0"/>
<feBlend mode="normal" in2="effect1_dropShadow_169_149714" result="effect2_dropShadow_169_149714"/>
<feBlend mode="normal" in="SourceGraphic" in2="effect2_dropShadow_169_149714" result="shape"/>
</filter>
<filter id="filter17_dd_169_149714" x="157" y="60" width="43" height="26" filterUnits="userSpaceOnUse" color-interpolation-filters="sRGB">
<feFlood flood-opacity="0" result="BackgroundImageFix"/>
<feColorMatrix in="SourceAlpha" type="matrix" values="0 0 0 0 0 0 0 0 0 0 0 0 0 0 0 0 0 0 127 0" result="hardAlpha"/>
<feOffset dy="1"/>
<feGaussianBlur stdDeviation="1.5"/>
<feColorMatrix type="matrix" values="0 0 0 0 0 0 0 0 0 0 0 0 0 0 0 0 0 0 0.1 0"/>
<feBlend mode="normal" in2="BackgroundImageFix" result="effect1_dropShadow_169_149714"/>
<feColorMatrix in="SourceAlpha" type="matrix" values="0 0 0 0 0 0 0 0 0 0 0 0 0 0 0 0 0 0 127 0" result="hardAlpha"/>
<feOffset dy="1"/>
<feGaussianBlur stdDeviation="1"/>
<feColorMatrix type="matrix" values="0 0 0 0 0 0 0 0 0 0 0 0 0 0 0 0 0 0 0.06 0"/>
<feBlend mode="normal" in2="effect1_dropShadow_169_149714" result="effect2_dropShadow_169_149714"/>
<feBlend mode="normal" in="SourceGraphic" in2="effect2_dropShadow_169_149714" result="shape"/>
</filter>
<filter id="filter18_dd_169_149714" x="202" y="60" width="43" height="26" filterUnits="userSpaceOnUse" color-interpolation-filters="sRGB">
<feFlood flood-opacity="0" result="BackgroundImageFix"/>
<feColorMatrix in="SourceAlpha" type="matrix" values="0 0 0 0 0 0 0 0 0 0 0 0 0 0 0 0 0 0 127 0" result="hardAlpha"/>
<feOffset dy="1"/>
<feGaussianBlur stdDeviation="1.5"/>
<feColorMatrix type="matrix" values="0 0 0 0 0 0 0 0 0 0 0 0 0 0 0 0 0 0 0.1 0"/>
<feBlend mode="normal" in2="BackgroundImageFix" result="effect1_dropShadow_169_149714"/>
<feColorMatrix in="SourceAlpha" type="matrix" values="0 0 0 0 0 0 0 0 0 0 0 0 0 0 0 0 0 0 127 0" result="hardAlpha"/>
<feOffset dy="1"/>
<feGaussianBlur stdDeviation="1"/>
<feColorMatrix type="matrix" values="0 0 0 0 0 0 0 0 0 0 0 0 0 0 0 0 0 0 0.06 0"/>
<feBlend mode="normal" in2="effect1_dropShadow_169_149714" result="effect2_dropShadow_169_149714"/>
<feBlend mode="normal" in="SourceGraphic" in2="effect2_dropShadow_169_149714" result="shape"/>
</filter>
<filter id="filter19_dd_169_149714" x="247" y="60" width="43" height="26" filterUnits="userSpaceOnUse" color-interpolation-filters="sRGB">
<feFlood flood-opacity="0" result="BackgroundImageFix"/>
<feColorMatrix in="SourceAlpha" type="matrix" values="0 0 0 0 0 0 0 0 0 0 0 0 0 0 0 0 0 0 127 0" result="hardAlpha"/>
<feOffset dy="1"/>
<feGaussianBlur stdDeviation="1.5"/>
<feColorMatrix type="matrix" values="0 0 0 0 0 0 0 0 0 0 0 0 0 0 0 0 0 0 0.1 0"/>
<feBlend mode="normal" in2="BackgroundImageFix" result="effect1_dropShadow_169_149714"/>
<feColorMatrix in="SourceAlpha" type="matrix" values="0 0 0 0 0 0 0 0 0 0 0 0 0 0 0 0 0 0 127 0" result="hardAlpha"/>
<feOffset dy="1"/>
<feGaussianBlur stdDeviation="1"/>
<feColorMatrix type="matrix" values="0 0 0 0 0 0 0 0 0 0 0 0 0 0 0 0 0 0 0.06 0"/>
<feBlend mode="normal" in2="effect1_dropShadow_169_149714" result="effect2_dropShadow_169_149714"/>
<feBlend mode="normal" in="SourceGraphic" in2="effect2_dropShadow_169_149714" result="shape"/>
</filter>
<filter id="filter20_dd_169_149714" x="292" y="60" width="43" height="26" filterUnits="userSpaceOnUse" color-interpolation-filters="sRGB">
<feFlood flood-opacity="0" result="BackgroundImageFix"/>
<feColorMatrix in="SourceAlpha" type="matrix" values="0 0 0 0 0 0 0 0 0 0 0 0 0 0 0 0 0 0 127 0" result="hardAlpha"/>
<feOffset dy="1"/>
<feGaussianBlur stdDeviation="1.5"/>
<feColorMatrix type="matrix" values="0 0 0 0 0 0 0 0 0 0 0 0 0 0 0 0 0 0 0.1 0"/>
<feBlend mode="normal" in2="BackgroundImageFix" result="effect1_dropShadow_169_149714"/>
<feColorMatrix in="SourceAlpha" type="matrix" values="0 0 0 0 0 0 0 0 0 0 0 0 0 0 0 0 0 0 127 0" result="hardAlpha"/>
<feOffset dy="1"/>
<feGaussianBlur stdDeviation="1"/>
<feColorMatrix type="matrix" values="0 0 0 0 0 0 0 0 0 0 0 0 0 0 0 0 0 0 0.06 0"/>
<feBlend mode="normal" in2="effect1_dropShadow_169_149714" result="effect2_dropShadow_169_149714"/>
<feBlend mode="normal" in="SourceGraphic" in2="effect2_dropShadow_169_149714" result="shape"/>
</filter>
<filter id="filter21_dd_169_149714" x="216" y="144" width="58" height="30" filterUnits="userSpaceOnUse" color-interpolation-filters="sRGB">
<feFlood flood-opacity="0" result="BackgroundImageFix"/>
<feColorMatrix in="SourceAlpha" type="matrix" values="0 0 0 0 0 0 0 0 0 0 0 0 0 0 0 0 0 0 127 0" result="hardAlpha"/>
<feOffset dy="1"/>
<feGaussianBlur stdDeviation="1.5"/>
<feColorMatrix type="matrix" values="0 0 0 0 0 0 0 0 0 0 0 0 0 0 0 0 0 0 0.1 0"/>
<feBlend mode="normal" in2="BackgroundImageFix" result="effect1_dropShadow_169_149714"/>
<feColorMatrix in="SourceAlpha" type="matrix" values="0 0 0 0 0 0 0 0 0 0 0 0 0 0 0 0 0 0 127 0" result="hardAlpha"/>
<feOffset dy="1"/>
<feGaussianBlur stdDeviation="1"/>
<feColorMatrix type="matrix" values="0 0 0 0 0 0 0 0 0 0 0 0 0 0 0 0 0 0 0.06 0"/>
<feBlend mode="normal" in2="effect1_dropShadow_169_149714" result="effect2_dropShadow_169_149714"/>
<feBlend mode="normal" in="SourceGraphic" in2="effect2_dropShadow_169_149714" result="shape"/>
</filter>
<filter id="filter22_dd_169_149714" x="15" y="144" width="59" height="30" filterUnits="userSpaceOnUse" color-interpolation-filters="sRGB">
<feFlood flood-opacity="0" result="BackgroundImageFix"/>
<feColorMatrix in="SourceAlpha" type="matrix" values="0 0 0 0 0 0 0 0 0 0 0 0 0 0 0 0 0 0 127 0" result="hardAlpha"/>
<feOffset dy="1"/>
<feGaussianBlur stdDeviation="1.5"/>
<feColorMatrix type="matrix" values="0 0 0 0 0 0 0 0 0 0 0 0 0 0 0 0 0 0 0.1 0"/>
<feBlend mode="normal" in2="BackgroundImageFix" result="effect1_dropShadow_169_149714"/>
<feColorMatrix in="SourceAlpha" type="matrix" values="0 0 0 0 0 0 0 0 0 0 0 0 0 0 0 0 0 0 127 0" result="hardAlpha"/>
<feOffset dy="1"/>
<feGaussianBlur stdDeviation="1"/>
<feColorMatrix type="matrix" values="0 0 0 0 0 0 0 0 0 0 0 0 0 0 0 0 0 0 0.06 0"/>
<feBlend mode="normal" in2="effect1_dropShadow_169_149714" result="effect2_dropShadow_169_149714"/>
<feBlend mode="normal" in="SourceGraphic" in2="effect2_dropShadow_169_149714" result="shape"/>
</filter>
<filter id="filter23_dd_169_149714" x="276" y="144" width="59" height="30" filterUnits="userSpaceOnUse" color-interpolation-filters="sRGB">
<feFlood flood-opacity="0" result="BackgroundImageFix"/>
<feColorMatrix in="SourceAlpha" type="matrix" values="0 0 0 0 0 0 0 0 0 0 0 0 0 0 0 0 0 0 127 0" result="hardAlpha"/>
<feOffset dy="1"/>
<feGaussianBlur stdDeviation="1.5"/>
<feColorMatrix type="matrix" values="0 0 0 0 0 0 0 0 0 0 0 0 0 0 0 0 0 0 0.1 0"/>
<feBlend mode="normal" in2="BackgroundImageFix" result="effect1_dropShadow_169_149714"/>
<feColorMatrix in="SourceAlpha" type="matrix" values="0 0 0 0 0 0 0 0 0 0 0 0 0 0 0 0 0 0 127 0" result="hardAlpha"/>
<feOffset dy="1"/>
<feGaussianBlur stdDeviation="1"/>
<feColorMatrix type="matrix" values="0 0 0 0 0 0 0 0 0 0 0 0 0 0 0 0 0 0 0.06 0"/>
<feBlend mode="normal" in2="effect1_dropShadow_169_149714" result="effect2_dropShadow_169_149714"/>
<feBlend mode="normal" in="SourceGraphic" in2="effect2_dropShadow_169_149714" result="shape"/>
</filter>
</defs>
</svg>
