<svg width="350" height="230" viewBox="0 0 350 230" fill="none" xmlns="http://www.w3.org/2000/svg">
<g filter="url(#filter0_dd_169_148971)">
<rect x="77" y="145" width="134" height="24" rx="5" fill="#F3F4F6"/>
<path d="M119.67 155.727C119.637 155.416 119.497 155.175 119.251 155.002C119.007 154.829 118.69 154.743 118.299 154.743C118.024 154.743 117.789 154.784 117.592 154.867C117.396 154.95 117.246 155.062 117.141 155.205C117.037 155.347 116.984 155.509 116.982 155.691C116.982 155.843 117.016 155.974 117.085 156.085C117.156 156.196 117.251 156.291 117.372 156.369C117.493 156.445 117.627 156.509 117.773 156.561C117.92 156.613 118.068 156.657 118.217 156.692L118.899 156.863C119.174 156.927 119.438 157.013 119.691 157.122C119.947 157.231 120.175 157.368 120.376 157.534C120.58 157.7 120.741 157.9 120.859 158.134C120.978 158.369 121.037 158.643 121.037 158.958C121.037 159.384 120.928 159.759 120.71 160.084C120.492 160.406 120.178 160.658 119.766 160.84C119.356 161.02 118.86 161.11 118.278 161.11C117.712 161.11 117.221 161.022 116.804 160.847C116.39 160.672 116.065 160.416 115.831 160.08C115.599 159.744 115.473 159.335 115.455 158.852H116.751C116.77 159.105 116.848 159.316 116.985 159.484C117.122 159.652 117.301 159.777 117.521 159.86C117.744 159.943 117.992 159.984 118.267 159.984C118.554 159.984 118.804 159.942 119.02 159.857C119.238 159.769 119.408 159.648 119.531 159.494C119.654 159.338 119.717 159.156 119.719 158.947C119.717 158.758 119.661 158.602 119.553 158.479C119.444 158.353 119.291 158.249 119.094 158.166C118.9 158.081 118.673 158.005 118.413 157.939L117.585 157.726C116.986 157.572 116.513 157.339 116.165 157.026C115.819 156.711 115.646 156.294 115.646 155.773C115.646 155.344 115.762 154.969 115.994 154.647C116.229 154.325 116.547 154.075 116.95 153.898C117.352 153.718 117.808 153.628 118.317 153.628C118.833 153.628 119.285 153.718 119.673 153.898C120.064 154.075 120.371 154.323 120.593 154.64C120.816 154.955 120.93 155.317 120.938 155.727H119.67ZM122.155 163.045V155.545H123.419V156.447H123.493C123.56 156.315 123.653 156.174 123.774 156.025C123.895 155.873 124.058 155.744 124.264 155.638C124.47 155.529 124.733 155.474 125.052 155.474C125.474 155.474 125.854 155.582 126.192 155.798C126.533 156.011 126.803 156.327 127.002 156.746C127.203 157.162 127.304 157.674 127.304 158.28C127.304 158.879 127.206 159.388 127.009 159.807C126.813 160.226 126.545 160.545 126.206 160.766C125.868 160.986 125.484 161.096 125.056 161.096C124.743 161.096 124.484 161.044 124.278 160.94C124.072 160.835 123.907 160.71 123.781 160.563C123.658 160.414 123.562 160.273 123.493 160.141H123.44V163.045H122.155ZM123.415 158.273C123.415 158.625 123.465 158.934 123.564 159.2C123.666 159.465 123.812 159.672 124.001 159.821C124.193 159.968 124.425 160.041 124.697 160.041C124.981 160.041 125.219 159.965 125.411 159.814C125.603 159.66 125.747 159.451 125.844 159.185C125.944 158.918 125.993 158.614 125.993 158.273C125.993 157.934 125.945 157.634 125.848 157.371C125.751 157.108 125.606 156.902 125.415 156.753C125.223 156.604 124.984 156.529 124.697 156.529C124.423 156.529 124.189 156.601 123.998 156.746C123.806 156.89 123.66 157.093 123.561 157.353C123.464 157.613 123.415 157.92 123.415 158.273ZM129.974 161.11C129.629 161.11 129.317 161.049 129.04 160.925C128.766 160.8 128.548 160.615 128.387 160.371C128.228 160.128 128.149 159.827 128.149 159.469C128.149 159.162 128.206 158.907 128.319 158.706C128.433 158.505 128.588 158.344 128.785 158.223C128.981 158.102 129.202 158.011 129.449 157.95C129.697 157.886 129.954 157.839 130.219 157.811C130.539 157.778 130.798 157.748 130.997 157.722C131.196 157.694 131.34 157.651 131.43 157.594C131.523 157.535 131.569 157.444 131.569 157.321V157.3C131.569 157.032 131.489 156.825 131.331 156.678C131.172 156.531 130.944 156.458 130.645 156.458C130.331 156.458 130.081 156.527 129.896 156.664C129.714 156.801 129.591 156.964 129.527 157.151L128.327 156.98C128.421 156.649 128.577 156.372 128.795 156.149C129.013 155.924 129.279 155.756 129.594 155.645C129.909 155.531 130.257 155.474 130.638 155.474C130.901 155.474 131.163 155.505 131.423 155.567C131.684 155.628 131.921 155.73 132.137 155.872C132.352 156.012 132.525 156.202 132.655 156.444C132.788 156.685 132.854 156.987 132.854 157.349V161H131.618V160.251H131.576C131.498 160.402 131.388 160.544 131.246 160.677C131.106 160.807 130.93 160.912 130.716 160.993C130.506 161.071 130.258 161.11 129.974 161.11ZM130.308 160.165C130.566 160.165 130.79 160.115 130.979 160.013C131.169 159.909 131.314 159.771 131.416 159.601C131.52 159.43 131.572 159.245 131.572 159.043V158.401C131.532 158.434 131.463 158.464 131.366 158.493C131.272 158.521 131.165 158.546 131.047 158.567C130.928 158.589 130.811 158.608 130.695 158.624C130.579 158.641 130.479 158.655 130.393 158.667C130.202 158.693 130.03 158.736 129.878 158.795C129.727 158.854 129.607 158.937 129.52 159.043C129.432 159.147 129.388 159.282 129.388 159.448C129.388 159.685 129.475 159.864 129.648 159.984C129.82 160.105 130.041 160.165 130.308 160.165ZM136.526 161.107C135.982 161.107 135.514 160.987 135.123 160.748C134.735 160.509 134.436 160.179 134.225 159.757C134.017 159.333 133.912 158.846 133.912 158.294C133.912 157.74 134.019 157.251 134.232 156.827C134.445 156.401 134.746 156.07 135.134 155.833C135.525 155.594 135.986 155.474 136.519 155.474C136.962 155.474 137.354 155.556 137.694 155.719C138.038 155.88 138.311 156.109 138.515 156.405C138.718 156.698 138.834 157.042 138.863 157.435H137.634C137.584 157.172 137.466 156.953 137.279 156.778C137.094 156.6 136.847 156.511 136.537 156.511C136.274 156.511 136.043 156.582 135.844 156.724C135.645 156.864 135.49 157.065 135.379 157.328C135.27 157.591 135.216 157.906 135.216 158.273C135.216 158.644 135.27 158.964 135.379 159.232C135.488 159.497 135.641 159.701 135.837 159.846C136.036 159.988 136.269 160.059 136.537 160.059C136.726 160.059 136.895 160.023 137.045 159.952C137.196 159.879 137.323 159.774 137.425 159.636C137.526 159.499 137.596 159.332 137.634 159.136H138.863C138.832 159.522 138.718 159.864 138.522 160.162C138.325 160.458 138.058 160.69 137.719 160.858C137.381 161.024 136.983 161.107 136.526 161.107ZM142.333 161.107C141.786 161.107 141.314 160.993 140.916 160.766C140.521 160.536 140.217 160.212 140.004 159.793C139.79 159.371 139.684 158.875 139.684 158.305C139.684 157.744 139.79 157.251 140.004 156.827C140.219 156.401 140.52 156.07 140.906 155.833C141.291 155.594 141.745 155.474 142.266 155.474C142.602 155.474 142.919 155.529 143.217 155.638C143.518 155.744 143.783 155.91 144.013 156.135C144.245 156.36 144.427 156.646 144.56 156.994C144.692 157.34 144.759 157.752 144.759 158.23V158.624H140.288V157.758H143.526C143.524 157.512 143.471 157.293 143.366 157.101C143.262 156.907 143.117 156.754 142.93 156.643C142.745 156.531 142.53 156.476 142.283 156.476C142.021 156.476 141.79 156.54 141.591 156.668C141.392 156.793 141.237 156.959 141.126 157.165C141.017 157.368 140.961 157.592 140.959 157.836V158.592C140.959 158.91 141.017 159.182 141.133 159.409C141.249 159.634 141.411 159.807 141.619 159.928C141.828 160.046 142.071 160.105 142.351 160.105C142.538 160.105 142.707 160.079 142.859 160.027C143.01 159.973 143.142 159.893 143.253 159.789C143.364 159.685 143.448 159.556 143.505 159.402L144.705 159.537C144.629 159.854 144.485 160.131 144.272 160.368C144.061 160.602 143.791 160.785 143.462 160.915C143.133 161.043 142.757 161.107 142.333 161.107ZM145.903 161V153.727H147.188V156.447H147.242C147.308 156.315 147.401 156.174 147.522 156.025C147.643 155.873 147.806 155.744 148.012 155.638C148.218 155.529 148.481 155.474 148.801 155.474C149.222 155.474 149.602 155.582 149.941 155.798C150.281 156.011 150.551 156.327 150.75 156.746C150.951 157.162 151.052 157.674 151.052 158.28C151.052 158.879 150.954 159.388 150.757 159.807C150.561 160.226 150.293 160.545 149.955 160.766C149.616 160.986 149.233 161.096 148.804 161.096C148.492 161.096 148.232 161.044 148.026 160.94C147.82 160.835 147.655 160.71 147.529 160.563C147.406 160.414 147.31 160.273 147.242 160.141H147.167V161H145.903ZM147.164 158.273C147.164 158.625 147.213 158.934 147.313 159.2C147.414 159.465 147.56 159.672 147.749 159.821C147.941 159.968 148.173 160.041 148.445 160.041C148.73 160.041 148.968 159.965 149.159 159.814C149.351 159.66 149.495 159.451 149.593 159.185C149.692 158.918 149.742 158.614 149.742 158.273C149.742 157.934 149.693 157.634 149.596 157.371C149.499 157.108 149.355 156.902 149.163 156.753C148.971 156.604 148.732 156.529 148.445 156.529C148.171 156.529 147.938 156.601 147.746 156.746C147.554 156.89 147.409 157.093 147.309 157.353C147.212 157.613 147.164 157.92 147.164 158.273ZM153.714 161.11C153.369 161.11 153.058 161.049 152.781 160.925C152.506 160.8 152.288 160.615 152.127 160.371C151.969 160.128 151.889 159.827 151.889 159.469C151.889 159.162 151.946 158.907 152.06 158.706C152.173 158.505 152.328 158.344 152.525 158.223C152.721 158.102 152.943 158.011 153.189 157.95C153.438 157.886 153.694 157.839 153.96 157.811C154.279 157.778 154.538 157.748 154.737 157.722C154.936 157.694 155.08 157.651 155.17 157.594C155.263 157.535 155.309 157.444 155.309 157.321V157.3C155.309 157.032 155.23 156.825 155.071 156.678C154.912 156.531 154.684 156.458 154.386 156.458C154.071 156.458 153.821 156.527 153.636 156.664C153.454 156.801 153.331 156.964 153.267 157.151L152.067 156.98C152.161 156.649 152.318 156.372 152.536 156.149C152.753 155.924 153.02 155.756 153.335 155.645C153.649 155.531 153.997 155.474 154.379 155.474C154.641 155.474 154.903 155.505 155.163 155.567C155.424 155.628 155.662 155.73 155.877 155.872C156.093 156.012 156.265 156.202 156.396 156.444C156.528 156.685 156.594 156.987 156.594 157.349V161H155.359V160.251H155.316C155.238 160.402 155.128 160.544 154.986 160.677C154.846 160.807 154.67 160.912 154.457 160.993C154.246 161.071 153.999 161.11 153.714 161.11ZM154.048 160.165C154.306 160.165 154.53 160.115 154.719 160.013C154.909 159.909 155.054 159.771 155.156 159.601C155.26 159.43 155.312 159.245 155.312 159.043V158.401C155.272 158.434 155.204 158.464 155.107 158.493C155.012 158.521 154.905 158.546 154.787 158.567C154.669 158.589 154.551 158.608 154.435 158.624C154.319 158.641 154.219 158.655 154.134 158.667C153.942 158.693 153.77 158.736 153.619 158.795C153.467 158.854 153.348 158.937 153.26 159.043C153.172 159.147 153.129 159.282 153.129 159.448C153.129 159.685 153.215 159.864 153.388 159.984C153.561 160.105 153.781 160.165 154.048 160.165ZM157.887 161V155.545H159.134V156.455H159.19C159.29 156.14 159.46 155.897 159.702 155.727C159.946 155.554 160.224 155.467 160.536 155.467C160.607 155.467 160.687 155.471 160.774 155.478C160.864 155.483 160.939 155.491 160.998 155.503V156.685C160.943 156.666 160.857 156.65 160.739 156.636C160.623 156.619 160.51 156.611 160.401 156.611C160.167 156.611 159.956 156.662 159.769 156.763C159.585 156.863 159.439 157.001 159.332 157.179C159.226 157.357 159.173 157.561 159.173 157.793V161H157.887Z" fill="#4B5563"/>
<rect x="77.5" y="145.5" width="133" height="23" rx="4.5" stroke="#D1D5DB"/>
</g>
<g filter="url(#filter1_dd_169_148971)">
<rect x="272" y="89" width="60" height="48" rx="5" fill="#F3F4F6"/>
<path d="M289.717 117V109.727H294.447V110.832H291.035V112.806H294.202V113.911H291.035V115.896H294.476V117H289.717ZM297.02 113.804V117H295.735V111.545H296.963V112.472H297.027C297.153 112.167 297.353 111.924 297.627 111.744C297.904 111.564 298.247 111.474 298.654 111.474C299.03 111.474 299.358 111.555 299.637 111.716C299.919 111.877 300.137 112.11 300.291 112.415C300.447 112.721 300.524 113.091 300.522 113.527V117H299.236V113.726C299.236 113.361 299.141 113.076 298.952 112.87C298.765 112.664 298.506 112.561 298.174 112.561C297.949 112.561 297.749 112.611 297.574 112.71C297.401 112.807 297.265 112.948 297.166 113.133C297.069 113.317 297.02 113.541 297.02 113.804ZM304.552 111.545V112.54H301.417V111.545H304.552ZM302.191 110.239H303.476V115.359C303.476 115.532 303.502 115.665 303.554 115.757C303.609 115.847 303.68 115.909 303.767 115.942C303.855 115.975 303.952 115.991 304.059 115.991C304.139 115.991 304.212 115.986 304.279 115.974C304.347 115.962 304.4 115.951 304.435 115.942L304.652 116.947C304.583 116.97 304.485 116.996 304.357 117.025C304.231 117.053 304.078 117.07 303.895 117.075C303.573 117.084 303.283 117.036 303.025 116.929C302.767 116.82 302.562 116.652 302.411 116.425C302.262 116.197 302.188 115.913 302.191 115.572V110.239ZM307.983 117.107C307.437 117.107 306.964 116.993 306.567 116.766C306.171 116.536 305.867 116.212 305.654 115.793C305.441 115.371 305.334 114.875 305.334 114.305C305.334 113.744 305.441 113.251 305.654 112.827C305.869 112.401 306.17 112.07 306.556 111.833C306.942 111.594 307.395 111.474 307.916 111.474C308.252 111.474 308.569 111.529 308.868 111.638C309.168 111.744 309.434 111.91 309.663 112.135C309.895 112.36 310.077 112.646 310.21 112.994C310.343 113.34 310.409 113.752 310.409 114.23V114.624H305.938V113.758H309.177C309.174 113.512 309.121 113.293 309.017 113.101C308.913 112.907 308.767 112.754 308.58 112.643C308.395 112.531 308.18 112.476 307.934 112.476C307.671 112.476 307.44 112.54 307.241 112.668C307.042 112.793 306.887 112.959 306.776 113.165C306.667 113.368 306.612 113.592 306.609 113.836V114.592C306.609 114.91 306.667 115.182 306.783 115.409C306.899 115.634 307.061 115.807 307.27 115.928C307.478 116.046 307.722 116.105 308.001 116.105C308.188 116.105 308.358 116.079 308.509 116.027C308.661 115.973 308.792 115.893 308.903 115.789C309.015 115.685 309.099 115.556 309.155 115.402L310.356 115.537C310.28 115.854 310.135 116.131 309.922 116.368C309.712 116.602 309.442 116.785 309.113 116.915C308.784 117.043 308.407 117.107 307.983 117.107ZM311.496 117V111.545H312.743V112.455H312.8C312.899 112.14 313.07 111.897 313.311 111.727C313.555 111.554 313.833 111.467 314.146 111.467C314.217 111.467 314.296 111.471 314.384 111.478C314.473 111.483 314.548 111.491 314.607 111.503V112.685C314.553 112.666 314.466 112.65 314.348 112.636C314.232 112.619 314.12 112.611 314.011 112.611C313.776 112.611 313.566 112.662 313.379 112.763C313.194 112.863 313.048 113.001 312.942 113.179C312.835 113.357 312.782 113.561 312.782 113.793V117H311.496Z" fill="#4B5563"/>
<rect x="272.5" y="89.5" width="59" height="47" rx="4.5" stroke="#D1D5DB"/>
</g>
<rect width="51" height="76" transform="translate(18 61)" fill="#F3F4F6"/>
<g filter="url(#filter2_dd_169_148971)">
<rect x="18" y="61" width="51" height="20" rx="5" fill="#F4F4F5"/>
<path d="M35.2173 75V67.7273H39.9474V68.8317H36.5348V70.8061H39.7024V71.9105H36.5348V73.8956H39.9759V75H35.2173ZM45.5458 70.9872L44.3739 71.1151C44.3408 70.9967 44.2828 70.8854 44.1999 70.7812C44.1194 70.6771 44.0105 70.593 43.8732 70.5291C43.7359 70.4652 43.5678 70.4332 43.369 70.4332C43.1014 70.4332 42.8765 70.4912 42.6942 70.6072C42.5143 70.7232 42.4255 70.8736 42.4279 71.0582C42.4255 71.2169 42.4835 71.3459 42.6019 71.4453C42.7227 71.5447 42.9215 71.6264 43.1985 71.6903L44.1289 71.8892C44.645 72.0005 45.0285 72.1768 45.2795 72.4183C45.5328 72.6598 45.6606 72.9759 45.663 73.3665C45.6606 73.7098 45.56 74.0128 45.3612 74.2756C45.1647 74.536 44.8912 74.7396 44.5408 74.8864C44.1905 75.0331 43.788 75.1065 43.3335 75.1065C42.6658 75.1065 42.1284 74.9669 41.7212 74.6875C41.314 74.4058 41.0714 74.014 40.9933 73.5121L42.2468 73.3913C42.3036 73.6375 42.4244 73.8234 42.609 73.9489C42.7937 74.0743 43.034 74.1371 43.3299 74.1371C43.6353 74.1371 43.8803 74.0743 44.065 73.9489C44.252 73.8234 44.3455 73.6683 44.3455 73.4837C44.3455 73.3274 44.2852 73.1984 44.1644 73.0966C44.046 72.9948 43.8614 72.9167 43.6104 72.8622L42.68 72.6669C42.1568 72.558 41.7698 72.3745 41.5188 72.1165C41.2679 71.8561 41.1436 71.527 41.146 71.1293C41.1436 70.7931 41.2347 70.5019 41.4194 70.2557C41.6064 70.0071 41.8656 69.8153 42.1971 69.6804C42.5309 69.5431 42.9156 69.4744 43.3512 69.4744C43.9904 69.4744 44.4935 69.6106 44.8604 69.8828C45.2298 70.1551 45.4582 70.5232 45.5458 70.9872ZM49.1023 75.1065C48.5578 75.1065 48.0902 74.987 47.6996 74.7479C47.3113 74.5088 47.0118 74.1785 46.8011 73.7571C46.5928 73.3333 46.4886 72.8456 46.4886 72.294C46.4886 71.7401 46.5952 71.2512 46.8082 70.8274C47.0213 70.4013 47.322 70.0698 47.7102 69.8331C48.1009 69.594 48.5625 69.4744 49.0952 69.4744C49.5379 69.4744 49.9297 69.5561 50.2706 69.7195C50.6139 69.8804 50.8873 70.1089 51.0909 70.4048C51.2945 70.6984 51.4105 71.0417 51.4389 71.4347H50.2102C50.1605 71.1719 50.0421 70.9529 49.8551 70.7777C49.6705 70.6001 49.4231 70.5114 49.1129 70.5114C48.8501 70.5114 48.6193 70.5824 48.4205 70.7244C48.2216 70.8641 48.0665 71.0653 47.9553 71.3281C47.8464 71.5909 47.7919 71.9058 47.7919 72.2727C47.7919 72.6444 47.8464 72.964 47.9553 73.2315C48.0642 73.4967 48.2169 73.7015 48.4134 73.8459C48.6122 73.9879 48.8454 74.0589 49.1129 74.0589C49.3023 74.0589 49.4716 74.0234 49.6207 73.9524C49.7723 73.879 49.8989 73.7737 50.0007 73.6364C50.1025 73.4991 50.1723 73.3321 50.2102 73.1357H51.4389C51.4081 73.5215 51.2945 73.8636 51.098 74.1619C50.9015 74.4579 50.634 74.6899 50.2955 74.858C49.9569 75.0237 49.5592 75.1065 49.1023 75.1065Z" fill="#4B5563"/>
<rect x="18.5" y="61.5" width="50" height="19" rx="4.5" stroke="#D1D5DB"/>
</g>
<g filter="url(#filter3_dd_169_148971)">
<rect x="18" y="89" width="51" height="20" rx="5" fill="#F4F4F5"/>
<path d="M34.8977 96.8317V95.7273H40.7003V96.8317H38.4524V103H37.1456V96.8317H34.8977ZM42.5895 103.11C42.2438 103.11 41.9325 103.049 41.6555 102.925C41.3809 102.8 41.1631 102.615 41.0021 102.371C40.8435 102.128 40.7642 101.827 40.7642 101.469C40.7642 101.162 40.821 100.907 40.9347 100.706C41.0483 100.505 41.2034 100.344 41.3999 100.223C41.5964 100.102 41.8177 100.011 42.0639 99.9496C42.3125 99.8857 42.5694 99.8395 42.8345 99.8111C43.1541 99.7779 43.4134 99.7483 43.6122 99.7223C43.8111 99.6939 43.9555 99.6513 44.0455 99.5945C44.1378 99.5353 44.1839 99.4441 44.1839 99.321V99.2997C44.1839 99.0322 44.1046 98.825 43.946 98.6783C43.7874 98.5315 43.5589 98.4581 43.2607 98.4581C42.9458 98.4581 42.696 98.5268 42.5114 98.6641C42.3291 98.8014 42.206 98.9635 42.142 99.1506L40.9418 98.9801C41.0365 98.6487 41.1927 98.3717 41.4105 98.1491C41.6283 97.9242 41.8946 97.7562 42.2095 97.6449C42.5244 97.5312 42.8724 97.4744 43.2536 97.4744C43.5163 97.4744 43.7779 97.5052 44.0384 97.5668C44.2988 97.6283 44.5367 97.7301 44.7521 97.8722C44.9676 98.0118 45.1404 98.2024 45.2706 98.4439C45.4032 98.6854 45.4695 98.9872 45.4695 99.3494V103H44.2337V102.251H44.1911C44.1129 102.402 44.0028 102.544 43.8608 102.677C43.7211 102.807 43.5447 102.912 43.3317 102.993C43.121 103.071 42.8736 103.11 42.5895 103.11ZM42.9233 102.165C43.1813 102.165 43.4051 102.115 43.5945 102.013C43.7839 101.909 43.9295 101.771 44.0312 101.601C44.1354 101.43 44.1875 101.245 44.1875 101.043V100.401C44.1473 100.434 44.0786 100.464 43.9815 100.493C43.8868 100.521 43.7803 100.546 43.6619 100.567C43.5436 100.589 43.4264 100.608 43.3104 100.624C43.1944 100.641 43.0938 100.655 43.0085 100.667C42.8168 100.693 42.6451 100.736 42.4936 100.795C42.3421 100.854 42.2225 100.937 42.1349 101.043C42.0473 101.147 42.0036 101.282 42.0036 101.448C42.0036 101.685 42.09 101.864 42.2628 101.984C42.4356 102.105 42.6558 102.165 42.9233 102.165ZM46.8189 103V95.7273H48.1044V98.4474H48.1577C48.224 98.3149 48.3175 98.174 48.4382 98.0249C48.5589 97.8733 48.7223 97.7443 48.9283 97.6378C49.1342 97.5289 49.397 97.4744 49.7166 97.4744C50.138 97.4744 50.518 97.5821 50.8565 97.7976C51.1974 98.0107 51.4673 98.3267 51.6662 98.7457C51.8674 99.1624 51.968 99.6738 51.968 100.28C51.968 100.879 51.8698 101.388 51.6733 101.807C51.4768 102.226 51.2093 102.545 50.8707 102.766C50.5322 102.986 50.1487 103.096 49.7202 103.096C49.4077 103.096 49.1484 103.044 48.9425 102.94C48.7365 102.835 48.5708 102.71 48.4453 102.563C48.3222 102.414 48.2263 102.273 48.1577 102.141H48.0831V103H46.8189ZM48.0795 100.273C48.0795 100.625 48.1293 100.934 48.2287 101.2C48.3305 101.465 48.4761 101.672 48.6655 101.821C48.8572 101.968 49.0893 102.041 49.3615 102.041C49.6456 102.041 49.8835 101.965 50.0753 101.814C50.267 101.66 50.4115 101.451 50.5085 101.185C50.608 100.918 50.6577 100.614 50.6577 100.273C50.6577 99.9342 50.6091 99.6335 50.5121 99.3707C50.415 99.108 50.2706 98.902 50.0788 98.7528C49.8871 98.6037 49.648 98.5291 49.3615 98.5291C49.0869 98.5291 48.8537 98.6013 48.6619 98.7457C48.4702 98.8902 48.3246 99.0926 48.2251 99.353C48.1281 99.6134 48.0795 99.92 48.0795 100.273Z" fill="#4B5563"/>
<rect x="18.5" y="89.5" width="50" height="19" rx="4.5" stroke="#D1D5DB"/>
</g>
<g filter="url(#filter4_dd_169_148971)">
<rect x="18" y="117" width="51" height="20" rx="5" fill="#F4F4F5"/>
<path d="M36.6697 125.727C36.6366 125.416 36.4969 125.175 36.2507 125.002C36.0069 124.829 35.6896 124.743 35.299 124.743C35.0244 124.743 34.7888 124.784 34.5923 124.867C34.3958 124.95 34.2455 125.062 34.1413 125.205C34.0372 125.347 33.9839 125.509 33.9815 125.691C33.9815 125.843 34.0159 125.974 34.0845 126.085C34.1555 126.196 34.2514 126.291 34.3722 126.369C34.4929 126.445 34.6267 126.509 34.7734 126.561C34.9202 126.613 35.0682 126.657 35.2173 126.692L35.8991 126.863C36.1738 126.927 36.4377 127.013 36.6911 127.122C36.9467 127.231 37.1752 127.368 37.3764 127.534C37.58 127.7 37.741 127.9 37.8594 128.134C37.9777 128.369 38.0369 128.643 38.0369 128.958C38.0369 129.384 37.928 129.759 37.7102 130.084C37.4924 130.406 37.1776 130.658 36.7656 130.84C36.3561 131.02 35.8601 131.11 35.2777 131.11C34.7119 131.11 34.2206 131.022 33.804 130.847C33.3897 130.672 33.0653 130.416 32.831 130.08C32.599 129.744 32.4735 129.335 32.4545 128.852H33.7507C33.7696 129.105 33.8478 129.316 33.9851 129.484C34.1224 129.652 34.3011 129.777 34.5213 129.86C34.7438 129.943 34.9924 129.984 35.267 129.984C35.5535 129.984 35.8045 129.942 36.0199 129.857C36.2377 129.769 36.4081 129.648 36.5312 129.494C36.6544 129.338 36.7171 129.156 36.7195 128.947C36.7171 128.758 36.6615 128.602 36.5526 128.479C36.4437 128.353 36.291 128.249 36.0945 128.166C35.9003 128.081 35.6731 128.005 35.4126 127.939L34.5852 127.726C33.9863 127.572 33.5128 127.339 33.1648 127.026C32.8191 126.711 32.6463 126.294 32.6463 125.773C32.6463 125.344 32.7623 124.969 32.9943 124.647C33.2287 124.325 33.5471 124.075 33.9496 123.898C34.352 123.718 34.8078 123.628 35.3168 123.628C35.8329 123.628 36.285 123.718 36.6733 123.898C37.0639 124.075 37.3705 124.323 37.593 124.64C37.8156 124.955 37.9304 125.317 37.9375 125.727H36.6697ZM40.4402 127.804V131H39.1547V123.727H40.4118V126.472H40.4757C40.6035 126.165 40.8012 125.922 41.0687 125.744C41.3386 125.564 41.6819 125.474 42.0985 125.474C42.4773 125.474 42.8076 125.554 43.0893 125.712C43.371 125.871 43.5888 126.103 43.7427 126.408C43.899 126.714 43.9771 127.087 43.9771 127.527V131H42.6916V127.726C42.6916 127.359 42.5969 127.074 42.4075 126.87C42.2205 126.664 41.9577 126.561 41.6191 126.561C41.3919 126.561 41.1883 126.611 41.0083 126.71C40.8308 126.807 40.6911 126.948 40.5893 127.133C40.4899 127.317 40.4402 127.541 40.4402 127.804ZM45.2875 131V125.545H46.573V131H45.2875ZM45.9338 124.771C45.7302 124.771 45.555 124.704 45.4082 124.569C45.2614 124.432 45.188 124.267 45.188 124.075C45.188 123.881 45.2614 123.717 45.4082 123.582C45.555 123.444 45.7302 123.376 45.9338 123.376C46.1397 123.376 46.3149 123.444 46.4593 123.582C46.6061 123.717 46.6795 123.881 46.6795 124.075C46.6795 124.267 46.6061 124.432 46.4593 124.569C46.3149 124.704 46.1397 124.771 45.9338 124.771ZM50.6577 125.545V126.54H47.4332V125.545H50.6577ZM48.2393 131V125.031C48.2393 124.664 48.3151 124.358 48.4666 124.114C48.6205 123.871 48.8265 123.688 49.0845 123.567C49.3426 123.447 49.629 123.386 49.9439 123.386C50.1664 123.386 50.3641 123.404 50.5369 123.44C50.7098 123.475 50.8376 123.507 50.9205 123.536L50.6648 124.53C50.6103 124.513 50.5417 124.497 50.4588 124.48C50.3759 124.461 50.2836 124.452 50.1818 124.452C49.9427 124.452 49.7734 124.51 49.674 124.626C49.5769 124.739 49.5284 124.903 49.5284 125.116V131H48.2393ZM54.3881 125.545V126.54H51.2525V125.545H54.3881ZM52.0266 124.239H53.3121V129.359C53.3121 129.532 53.3382 129.665 53.3903 129.757C53.4447 129.847 53.5157 129.909 53.6033 129.942C53.6909 129.975 53.788 129.991 53.8945 129.991C53.975 129.991 54.0484 129.986 54.1147 129.974C54.1834 129.962 54.2354 129.951 54.271 129.942L54.4876 130.947C54.4189 130.97 54.3207 130.996 54.1928 131.025C54.0674 131.053 53.9135 131.07 53.7312 131.075C53.4092 131.084 53.1192 131.036 52.8612 130.929C52.6031 130.82 52.3983 130.652 52.2468 130.425C52.0977 130.197 52.0243 129.913 52.0266 129.572V124.239Z" fill="#4B5563"/>
<rect x="18.5" y="117.5" width="50" height="19" rx="4.5" stroke="#D1D5DB"/>
</g>
<g filter="url(#filter5_dd_169_148971)">
<rect x="77" y="89" width="31" height="20" rx="5" fill="#F3F4F6"/>
<path d="M91.4268 100.557H92.62L93.3267 101.473L93.831 102.07L95.0419 103.625H93.7635L92.9396 102.581L92.5881 102.084L91.4268 100.557ZM95.2159 99.3636C95.2159 100.147 95.0691 100.818 94.7756 101.377C94.4844 101.933 94.0866 102.36 93.5824 102.656C93.0805 102.951 92.5111 103.099 91.8743 103.099C91.2375 103.099 90.6669 102.951 90.1626 102.656C89.6607 102.357 89.263 101.93 88.9695 101.374C88.6783 100.815 88.5327 100.145 88.5327 99.3636C88.5327 98.58 88.6783 97.91 88.9695 97.3537C89.263 96.795 89.6607 96.3677 90.1626 96.0717C90.6669 95.7758 91.2375 95.6278 91.8743 95.6278C92.5111 95.6278 93.0805 95.7758 93.5824 96.0717C94.0866 96.3677 94.4844 96.795 94.7756 97.3537C95.0691 97.91 95.2159 98.58 95.2159 99.3636ZM93.8913 99.3636C93.8913 98.812 93.8049 98.3468 93.6321 97.968C93.4616 97.5869 93.2249 97.2992 92.9219 97.1051C92.6188 96.9086 92.2696 96.8104 91.8743 96.8104C91.4789 96.8104 91.1297 96.9086 90.8267 97.1051C90.5237 97.2992 90.2857 97.5869 90.1129 97.968C89.9425 98.3468 89.8572 98.812 89.8572 99.3636C89.8572 99.9152 89.9425 100.382 90.1129 100.763C90.2857 101.142 90.5237 101.429 90.8267 101.626C91.1297 101.82 91.4789 101.917 91.8743 101.917C92.2696 101.917 92.6188 101.82 92.9219 101.626C93.2249 101.429 93.4616 101.142 93.6321 100.763C93.8049 100.382 93.8913 99.9152 93.8913 99.3636Z" fill="#4B5563"/>
<rect x="77.5" y="89.5" width="30" height="19" rx="4.5" stroke="#D1D5DB"/>
</g>
<g filter="url(#filter6_dd_169_148971)">
<rect x="116" y="89" width="31" height="20" rx="5" fill="#F3F4F6"/>
<path d="M128.248 103L126.195 95.7273H127.612L128.923 101.072H128.99L130.389 95.7273H131.678L133.081 101.075H133.145L134.455 95.7273H135.872L133.82 103H132.52L131.064 97.897H131.007L129.548 103H128.248Z" fill="#4B5563"/>
<rect x="116.5" y="89.5" width="30" height="19" rx="4.5" stroke="#D1D5DB"/>
</g>
<g filter="url(#filter7_dd_169_148971)">
<rect x="155" y="89" width="31" height="20" rx="5" fill="#F3F4F6"/>
<path d="M167.717 103V95.7273H172.447V96.8317H169.035V98.8061H172.202V99.9105H169.035V101.896H172.476V103H167.717Z" fill="#4B5563"/>
<rect x="155.5" y="89.5" width="30" height="19" rx="4.5" stroke="#D1D5DB"/>
</g>
<g filter="url(#filter8_dd_169_148971)">
<rect x="194" y="89" width="31" height="20" rx="5" fill="#F3F4F6"/>
<path d="M206.717 103V95.7273H209.445C210.003 95.7273 210.472 95.8243 210.851 96.0185C211.232 96.2126 211.52 96.4848 211.714 96.8352C211.91 97.1832 212.009 97.5893 212.009 98.0533C212.009 98.5196 211.909 98.9245 211.71 99.2678C211.514 99.6087 211.224 99.8726 210.84 100.06C210.457 100.244 209.986 100.337 209.427 100.337H207.484V99.2429H209.249C209.576 99.2429 209.844 99.1979 210.052 99.108C210.26 99.0156 210.414 98.8819 210.513 98.7067C210.615 98.5291 210.666 98.3113 210.666 98.0533C210.666 97.7952 210.615 97.575 210.513 97.3928C210.412 97.2081 210.257 97.0684 210.048 96.9737C209.84 96.8767 209.571 96.8281 209.242 96.8281H208.035V103H206.717ZM210.474 99.7045L212.275 103H210.805L209.036 99.7045H210.474Z" fill="#4B5563"/>
<rect x="194.5" y="89.5" width="30" height="19" rx="4.5" stroke="#D1D5DB"/>
</g>
<g filter="url(#filter9_dd_169_148971)">
<rect x="233" y="89" width="31" height="20" rx="5" fill="#F3F4F6"/>
<path d="M245.398 96.8317V95.7273H251.2V96.8317H248.952V103H247.646V96.8317H245.398Z" fill="#4B5563"/>
<rect x="233.5" y="89.5" width="30" height="19" rx="4.5" stroke="#D1D5DB"/>
</g>
<g filter="url(#filter10_dd_169_148971)">
<rect x="77" y="117" width="31" height="20" rx="5" fill="#F3F4F6"/>
<path d="M89.6513 131H88.245L90.8054 123.727H92.4318L94.9957 131H93.5895L91.647 125.219H91.5902L89.6513 131ZM89.6974 128.148H93.5327V129.207H89.6974V128.148Z" fill="#4B5563"/>
<rect x="77.5" y="117.5" width="30" height="19" rx="4.5" stroke="#D1D5DB"/>
</g>
<g filter="url(#filter11_dd_169_148971)">
<rect x="116" y="117" width="31" height="20" rx="5" fill="#F3F4F6"/>
<path d="M132.67 125.727C132.637 125.416 132.497 125.175 132.251 125.002C132.007 124.829 131.69 124.743 131.299 124.743C131.024 124.743 130.789 124.784 130.592 124.867C130.396 124.95 130.246 125.062 130.141 125.205C130.037 125.347 129.984 125.509 129.982 125.691C129.982 125.843 130.016 125.974 130.085 126.085C130.156 126.196 130.251 126.291 130.372 126.369C130.493 126.445 130.627 126.509 130.773 126.561C130.92 126.613 131.068 126.657 131.217 126.692L131.899 126.863C132.174 126.927 132.438 127.013 132.691 127.122C132.947 127.231 133.175 127.368 133.376 127.534C133.58 127.7 133.741 127.9 133.859 128.134C133.978 128.369 134.037 128.643 134.037 128.958C134.037 129.384 133.928 129.759 133.71 130.084C133.492 130.406 133.178 130.658 132.766 130.84C132.356 131.02 131.86 131.11 131.278 131.11C130.712 131.11 130.221 131.022 129.804 130.847C129.39 130.672 129.065 130.416 128.831 130.08C128.599 129.744 128.473 129.335 128.455 128.852H129.751C129.77 129.105 129.848 129.316 129.985 129.484C130.122 129.652 130.301 129.777 130.521 129.86C130.744 129.943 130.992 129.984 131.267 129.984C131.554 129.984 131.804 129.942 132.02 129.857C132.238 129.769 132.408 129.648 132.531 129.494C132.654 129.338 132.717 129.156 132.719 128.947C132.717 128.758 132.661 128.602 132.553 128.479C132.444 128.353 132.291 128.249 132.094 128.166C131.9 128.081 131.673 128.005 131.413 127.939L130.585 127.726C129.986 127.572 129.513 127.339 129.165 127.026C128.819 126.711 128.646 126.294 128.646 125.773C128.646 125.344 128.762 124.969 128.994 124.647C129.229 124.325 129.547 124.075 129.95 123.898C130.352 123.718 130.808 123.628 131.317 123.628C131.833 123.628 132.285 123.718 132.673 123.898C133.064 124.075 133.371 124.323 133.593 124.64C133.816 124.955 133.93 125.317 133.938 125.727H132.67Z" fill="#4B5563"/>
<rect x="116.5" y="117.5" width="30" height="19" rx="4.5" stroke="#D1D5DB"/>
</g>
<g filter="url(#filter12_dd_169_148971)">
<rect x="155" y="117" width="31" height="20" rx="5" fill="#F3F4F6"/>
<path d="M170.182 131H167.717V123.727H170.232C170.954 123.727 171.574 123.873 172.092 124.164C172.613 124.453 173.013 124.868 173.293 125.411C173.572 125.953 173.712 126.601 173.712 127.357C173.712 128.114 173.571 128.765 173.289 129.31C173.01 129.854 172.606 130.272 172.078 130.563C171.553 130.854 170.92 131 170.182 131ZM169.035 129.86H170.118C170.625 129.86 171.047 129.768 171.386 129.583C171.724 129.396 171.979 129.118 172.149 128.749C172.32 128.377 172.405 127.913 172.405 127.357C172.405 126.8 172.32 126.339 172.149 125.972C171.979 125.602 171.727 125.326 171.393 125.144C171.061 124.96 170.649 124.867 170.157 124.867H169.035V129.86Z" fill="#4B5563"/>
<rect x="155.5" y="117.5" width="30" height="19" rx="4.5" stroke="#D1D5DB"/>
</g>
<g filter="url(#filter13_dd_169_148971)">
<rect x="194" y="117" width="31" height="20" rx="5" fill="#F3F4F6"/>
<path d="M207.717 131V123.727H212.376V124.832H209.035V126.806H212.057V127.911H209.035V131H207.717Z" fill="#4B5563"/>
<rect x="194.5" y="117.5" width="30" height="19" rx="4.5" stroke="#D1D5DB"/>
</g>
<g filter="url(#filter14_dd_169_148971)">
<rect x="233" y="117" width="31" height="20" rx="5" fill="#F3F4F6"/>
<path d="M250.589 126.05C250.53 125.858 250.449 125.686 250.344 125.535C250.243 125.381 250.12 125.25 249.975 125.141C249.833 125.032 249.67 124.95 249.485 124.896C249.3 124.839 249.099 124.81 248.881 124.81C248.491 124.81 248.143 124.909 247.837 125.105C247.532 125.302 247.292 125.59 247.116 125.972C246.944 126.35 246.857 126.812 246.857 127.357C246.857 127.906 246.944 128.371 247.116 128.752C247.289 129.133 247.53 129.423 247.837 129.622C248.145 129.819 248.503 129.917 248.91 129.917C249.279 129.917 249.599 129.846 249.869 129.704C250.141 129.562 250.35 129.361 250.497 129.1C250.644 128.837 250.717 128.53 250.717 128.177L251.016 128.223H249.041V127.193H251.992V128.067C251.992 128.689 251.86 129.228 251.594 129.683C251.329 130.137 250.965 130.487 250.501 130.734C250.037 130.978 249.504 131.099 248.903 131.099C248.233 131.099 247.644 130.949 247.138 130.648C246.634 130.345 246.239 129.916 245.955 129.359C245.674 128.801 245.533 128.138 245.533 127.371C245.533 126.784 245.616 126.259 245.781 125.798C245.949 125.336 246.184 124.944 246.484 124.622C246.785 124.298 247.138 124.052 247.543 123.884C247.947 123.713 248.388 123.628 248.864 123.628C249.266 123.628 249.641 123.687 249.989 123.805C250.337 123.921 250.646 124.087 250.916 124.303C251.188 124.518 251.412 124.774 251.587 125.07C251.763 125.366 251.877 125.692 251.932 126.05H250.589Z" fill="#4B5563"/>
<rect x="233.5" y="117.5" width="30" height="19" rx="4.5" stroke="#D1D5DB"/>
</g>
<rect width="255" height="20" transform="translate(77 61)" fill="#F3F4F6"/>
<g filter="url(#filter15_dd_169_148971)">
<rect x="77" y="61" width="34" height="20" rx="5" fill="#F4F4F5"/>
<path d="M88.7173 75V67.7273H93.3764V68.8317H90.0348V70.8061H93.0568V71.9105H90.0348V75H88.7173ZM97.4638 67.7273V75H96.1463V69.0092H96.1037L94.4027 70.0959V68.8885L96.2102 67.7273H97.4638Z" fill="#4B5563"/>
<rect x="77.5" y="61.5" width="33" height="19" rx="4.5" stroke="#D1D5DB"/>
</g>
<g filter="url(#filter16_dd_169_148971)">
<rect x="119" y="61" width="33" height="20" rx="5" fill="#F4F4F5"/>
<path d="M129.717 75V67.7273H134.376V68.8317H131.035V70.8061H134.057V71.9105H131.035V75H129.717ZM135.506 75V74.0483L138.031 71.5732C138.272 71.3293 138.473 71.1127 138.634 70.9233C138.795 70.7339 138.916 70.5504 138.996 70.3729C139.077 70.1953 139.117 70.0059 139.117 69.8047C139.117 69.575 139.065 69.3786 138.961 69.2152C138.857 69.0495 138.714 68.9216 138.531 68.8317C138.349 68.7417 138.142 68.6967 137.91 68.6967C137.671 68.6967 137.461 68.7464 137.281 68.8459C137.101 68.9429 136.962 69.0814 136.862 69.2614C136.765 69.4413 136.717 69.6555 136.717 69.9041H135.463C135.463 69.4425 135.568 69.0412 135.779 68.7003C135.99 68.3594 136.28 68.0954 136.649 67.9084C137.021 67.7214 137.447 67.6278 137.928 67.6278C138.415 67.6278 138.844 67.719 139.213 67.9013C139.582 68.0836 139.869 68.3333 140.072 68.6506C140.278 68.9678 140.381 69.33 140.381 69.7372C140.381 70.0095 140.329 70.277 140.225 70.5398C140.121 70.8026 139.938 71.0937 139.675 71.4134C139.414 71.733 139.049 72.12 138.577 72.5746L137.324 73.8494V73.8991H140.491V75H135.506Z" fill="#4B5563"/>
<rect x="119.5" y="61.5" width="32" height="19" rx="4.5" stroke="#D1D5DB"/>
</g>
<g filter="url(#filter17_dd_169_148971)">
<rect x="160" y="61" width="37" height="20" rx="5" fill="#F4F4F5"/>
<path d="M172.717 75V67.7273H177.376V68.8317H174.035V70.8061H177.057V71.9105H174.035V75H172.717ZM181.116 75.0994C180.604 75.0994 180.15 75.0118 179.752 74.8366C179.357 74.6615 179.044 74.4176 178.815 74.1051C178.585 73.7926 178.463 73.4316 178.449 73.022H179.784C179.796 73.2185 179.861 73.3902 179.979 73.5369C180.098 73.6813 180.255 73.7938 180.452 73.8743C180.648 73.9548 180.868 73.995 181.112 73.995C181.373 73.995 181.603 73.95 181.805 73.8601C182.006 73.7678 182.163 73.6399 182.277 73.4766C182.391 73.3132 182.446 73.125 182.444 72.9119C182.446 72.6918 182.389 72.4976 182.273 72.3295C182.157 72.1615 181.989 72.0301 181.769 71.9354C181.551 71.8407 181.289 71.7933 180.981 71.7933H180.338V70.7777H180.981C181.234 70.7777 181.455 70.7339 181.645 70.6463C181.837 70.5587 181.987 70.4356 182.096 70.277C182.205 70.116 182.258 69.9302 182.256 69.7195C182.258 69.5135 182.212 69.3348 182.117 69.1832C182.025 69.0294 181.893 68.9098 181.723 68.8246C181.555 68.7393 181.357 68.6967 181.13 68.6967C180.907 68.6967 180.701 68.737 180.512 68.8175C180.323 68.898 180.17 69.0128 180.054 69.1619C179.938 69.3087 179.876 69.4839 179.869 69.6875H178.602C178.611 69.2803 178.728 68.9228 178.953 68.6151C179.18 68.3049 179.483 68.0634 179.862 67.8906C180.241 67.7154 180.666 67.6278 181.137 67.6278C181.622 67.6278 182.044 67.719 182.401 67.9013C182.761 68.0812 183.039 68.3239 183.236 68.6293C183.432 68.9347 183.531 69.272 183.531 69.6413C183.533 70.0509 183.412 70.3942 183.168 70.6712C182.927 70.9482 182.61 71.1293 182.217 71.2145V71.2713C182.728 71.3423 183.12 71.5317 183.392 71.8395C183.667 72.1449 183.803 72.5249 183.8 72.9794C183.8 73.3866 183.684 73.7512 183.452 74.0732C183.223 74.3928 182.906 74.6437 182.501 74.826C182.098 75.0083 181.637 75.0994 181.116 75.0994Z" fill="#4B5563"/>
<rect x="160.5" y="61.5" width="36" height="19" rx="4.5" stroke="#D1D5DB"/>
</g>
<g filter="url(#filter18_dd_169_148971)">
<rect x="205" y="61" width="37" height="20" rx="5" fill="#F4F4F5"/>
<path d="M217.717 75V67.7273H222.376V68.8317H219.035V70.8061H222.057V71.9105H219.035V75H217.717ZM223.374 73.6506V72.603L226.46 67.7273H227.334V69.2188H226.801L224.724 72.5107V72.5675H229.031V73.6506H223.374ZM226.844 75V73.331L226.858 72.8622V67.7273H228.101V75H226.844Z" fill="#4B5563"/>
<rect x="205.5" y="61.5" width="36" height="19" rx="4.5" stroke="#D1D5DB"/>
</g>
<g filter="url(#filter19_dd_169_148971)">
<rect x="250" y="61" width="37" height="20" rx="5" fill="#F4F4F5"/>
<path d="M262.717 75V67.7273H267.376V68.8317H264.035V70.8061H267.057V71.9105H264.035V75H262.717ZM271.034 75.0994C270.561 75.0994 270.137 75.0107 269.763 74.8331C269.389 74.6532 269.092 74.407 268.871 74.0945C268.654 73.782 268.538 73.4245 268.523 73.022H269.802C269.826 73.3203 269.955 73.5642 270.189 73.7536C270.423 73.9406 270.705 74.0341 271.034 74.0341C271.292 74.0341 271.522 73.9749 271.723 73.8565C271.924 73.7382 272.083 73.5736 272.199 73.3629C272.315 73.1522 272.372 72.9119 272.369 72.642C272.372 72.3674 272.314 72.1236 272.195 71.9105C272.077 71.6974 271.915 71.5305 271.709 71.4098C271.503 71.2867 271.266 71.2251 270.999 71.2251C270.781 71.2228 270.567 71.263 270.356 71.3459C270.145 71.4287 269.978 71.5376 269.855 71.6726L268.665 71.4773L269.045 67.7273H273.264V68.8281H270.136L269.926 70.7564H269.969C270.104 70.5978 270.294 70.4664 270.54 70.3622C270.787 70.2557 271.057 70.2024 271.35 70.2024C271.79 70.2024 272.183 70.3066 272.529 70.5149C272.875 70.7209 273.147 71.005 273.346 71.3672C273.545 71.7294 273.644 72.1437 273.644 72.6101C273.644 73.0907 273.533 73.5192 273.31 73.8956C273.09 74.2696 272.784 74.5644 272.391 74.7798C272 74.9929 271.548 75.0994 271.034 75.0994Z" fill="#4B5563"/>
<rect x="250.5" y="61.5" width="36" height="19" rx="4.5" stroke="#D1D5DB"/>
</g>
<g filter="url(#filter20_dd_169_148971)">
<rect x="295" y="61" width="37" height="20" rx="5" fill="#F4F4F5"/>
<path d="M307.717 75V67.7273H312.376V68.8317H309.035V70.8061H312.057V71.9105H309.035V75H307.717ZM316.169 75.0994C315.821 75.0971 315.481 75.0367 315.15 74.9183C314.818 74.7976 314.52 74.6023 314.255 74.3324C313.99 74.0601 313.779 73.6991 313.623 73.2493C313.467 72.7971 313.39 72.2372 313.392 71.5696C313.392 70.947 313.458 70.3918 313.591 69.9041C313.723 69.4164 313.914 69.0045 314.163 68.6683C314.411 68.3298 314.711 68.0717 315.061 67.8942C315.414 67.7166 315.808 67.6278 316.244 67.6278C316.701 67.6278 317.105 67.7178 317.458 67.8977C317.813 68.0777 318.1 68.3239 318.317 68.6364C318.535 68.9465 318.67 69.2969 318.722 69.6875H317.426C317.36 69.4081 317.224 69.1856 317.018 69.0199C316.814 68.8518 316.556 68.7678 316.244 68.7678C315.739 68.7678 315.351 68.9867 315.079 69.4247C314.809 69.8627 314.673 70.464 314.67 71.2287H314.72C314.836 71.0204 314.987 70.8416 315.171 70.6925C315.356 70.5433 315.564 70.4285 315.796 70.348C316.031 70.2652 316.278 70.2237 316.538 70.2237C316.964 70.2237 317.347 70.3255 317.685 70.5291C318.026 70.7327 318.296 71.0133 318.495 71.3707C318.694 71.7259 318.792 72.133 318.79 72.5923C318.792 73.0705 318.683 73.5002 318.463 73.8814C318.243 74.2602 317.936 74.5585 317.543 74.7763C317.15 74.9941 316.692 75.1018 316.169 75.0994ZM316.162 74.0341C316.42 74.0341 316.651 73.9714 316.854 73.8459C317.058 73.7204 317.219 73.5511 317.337 73.3381C317.456 73.125 317.514 72.8859 317.511 72.6207C317.514 72.3603 317.457 72.1248 317.341 71.9141C317.227 71.7034 317.07 71.5365 316.869 71.4134C316.667 71.2902 316.438 71.2287 316.18 71.2287C315.988 71.2287 315.809 71.2654 315.643 71.3388C315.478 71.4122 315.333 71.514 315.21 71.6442C315.087 71.772 314.99 71.9212 314.919 72.0916C314.85 72.2597 314.815 72.4396 314.812 72.6314C314.815 72.8847 314.874 73.1179 314.99 73.331C315.106 73.544 315.266 73.7145 315.469 73.8423C315.673 73.9702 315.904 74.0341 316.162 74.0341Z" fill="#4B5563"/>
<rect x="295.5" y="61.5" width="36" height="19" rx="4.5" stroke="#D1D5DB"/>
</g>
<g filter="url(#filter21_dd_169_148971)">
<rect x="219" y="145" width="52" height="24" rx="5" fill="#F3F4F6"/>
<path d="M240.442 156.181H239.114C239.076 155.963 239.007 155.77 238.905 155.602C238.803 155.432 238.676 155.287 238.525 155.169C238.373 155.051 238.201 154.962 238.006 154.903C237.815 154.841 237.607 154.81 237.385 154.81C236.99 154.81 236.639 154.91 236.334 155.109C236.028 155.305 235.789 155.594 235.616 155.975C235.444 156.354 235.357 156.817 235.357 157.364C235.357 157.92 235.444 158.389 235.616 158.77C235.792 159.149 236.031 159.435 236.334 159.629C236.639 159.821 236.988 159.917 237.381 159.917C237.599 159.917 237.803 159.888 237.992 159.832C238.184 159.772 238.356 159.686 238.507 159.572C238.661 159.459 238.79 159.319 238.894 159.153C239.001 158.988 239.074 158.798 239.114 158.585L240.442 158.592C240.393 158.938 240.285 159.262 240.119 159.565C239.956 159.868 239.742 160.136 239.477 160.368C239.211 160.598 238.901 160.777 238.546 160.908C238.191 161.036 237.797 161.099 237.364 161.099C236.724 161.099 236.154 160.951 235.652 160.656C235.15 160.36 234.755 159.932 234.466 159.374C234.177 158.815 234.033 158.145 234.033 157.364C234.033 156.58 234.178 155.91 234.469 155.354C234.761 154.795 235.157 154.368 235.659 154.072C236.161 153.776 236.729 153.628 237.364 153.628C237.768 153.628 238.145 153.685 238.493 153.798C238.841 153.912 239.151 154.079 239.423 154.299C239.696 154.517 239.919 154.784 240.094 155.102C240.272 155.416 240.388 155.776 240.442 156.181ZM241.592 161V155.545H242.821V156.472H242.885C242.998 156.16 243.187 155.916 243.449 155.741C243.712 155.563 244.026 155.474 244.39 155.474C244.76 155.474 245.071 155.564 245.324 155.744C245.58 155.922 245.76 156.165 245.864 156.472H245.921C246.042 156.169 246.245 155.928 246.532 155.748C246.821 155.566 247.163 155.474 247.558 155.474C248.06 155.474 248.47 155.633 248.787 155.95C249.104 156.268 249.263 156.73 249.263 157.339V161H247.974V157.538C247.974 157.199 247.884 156.952 247.704 156.795C247.524 156.637 247.304 156.558 247.043 156.558C246.733 156.558 246.49 156.655 246.315 156.849C246.142 157.04 246.056 157.29 246.056 157.598V161H244.795V157.484C244.795 157.203 244.71 156.978 244.54 156.81C244.372 156.642 244.151 156.558 243.879 156.558C243.694 156.558 243.526 156.605 243.375 156.7C243.223 156.792 243.103 156.923 243.013 157.094C242.923 157.262 242.878 157.458 242.878 157.683V161H241.592ZM252.591 161.096C252.162 161.096 251.779 160.986 251.44 160.766C251.102 160.545 250.834 160.226 250.638 159.807C250.441 159.388 250.343 158.879 250.343 158.28C250.343 157.674 250.442 157.162 250.641 156.746C250.843 156.327 251.114 156.011 251.455 155.798C251.795 155.582 252.175 155.474 252.594 155.474C252.914 155.474 253.177 155.529 253.383 155.638C253.589 155.744 253.752 155.873 253.873 156.025C253.994 156.174 254.087 156.315 254.153 156.447H254.207V153.727H255.496V161H254.232V160.141H254.153C254.087 160.273 253.991 160.414 253.866 160.563C253.74 160.71 253.575 160.835 253.369 160.94C253.163 161.044 252.903 161.096 252.591 161.096ZM252.95 160.041C253.222 160.041 253.454 159.968 253.646 159.821C253.837 159.672 253.983 159.465 254.082 159.2C254.182 158.934 254.232 158.625 254.232 158.273C254.232 157.92 254.182 157.613 254.082 157.353C253.985 157.093 253.841 156.89 253.649 156.746C253.46 156.601 253.227 156.529 252.95 156.529C252.663 156.529 252.424 156.604 252.232 156.753C252.04 156.902 251.896 157.108 251.799 157.371C251.702 157.634 251.653 157.934 251.653 158.273C251.653 158.614 251.702 158.918 251.799 159.185C251.898 159.451 252.044 159.66 252.236 159.814C252.43 159.965 252.668 160.041 252.95 160.041Z" fill="#4B5563"/>
<rect x="219.5" y="145.5" width="51" height="23" rx="4.5" stroke="#D1D5DB"/>
</g>
<g filter="url(#filter22_dd_169_148971)">
<rect x="18" y="145" width="53" height="24" rx="5" fill="#F3F4F6"/>
<path d="M42.9233 155.545V156.54H39.6989V155.545H42.9233ZM40.505 161V155.031C40.505 154.664 40.5807 154.358 40.7322 154.114C40.8861 153.871 41.0921 153.688 41.3501 153.567C41.6082 153.447 41.8946 153.386 42.2095 153.386C42.4321 153.386 42.6297 153.404 42.8026 153.44C42.9754 153.475 43.1032 153.507 43.1861 153.536L42.9304 154.53C42.8759 154.513 42.8073 154.497 42.7244 154.48C42.6416 154.461 42.5492 154.452 42.4474 154.452C42.2083 154.452 42.0391 154.51 41.9396 154.626C41.8426 154.739 41.794 154.903 41.794 155.116V161H40.505ZM45.2156 157.804V161H43.93V155.545H45.1587V156.472H45.2227C45.3481 156.167 45.5482 155.924 45.8228 155.744C46.0998 155.564 46.4419 155.474 46.8491 155.474C47.2255 155.474 47.5534 155.555 47.8327 155.716C48.1145 155.877 48.3323 156.11 48.4862 156.415C48.6424 156.721 48.7193 157.091 48.717 157.527V161H47.4315V157.726C47.4315 157.361 47.3368 157.076 47.1474 156.87C46.9603 156.664 46.7011 156.561 46.3697 156.561C46.1448 156.561 45.9447 156.611 45.7695 156.71C45.5967 156.807 45.4606 156.948 45.3612 157.133C45.2641 157.317 45.2156 157.541 45.2156 157.804Z" fill="#4B5563"/>
<rect x="18.5" y="145.5" width="52" height="23" rx="4.5" stroke="#D1D5DB"/>
</g>
<g filter="url(#filter23_dd_169_148971)">
<rect x="279" y="145" width="53" height="24" rx="5" fill="#F3F4F6"/>
<path d="M296.216 157.364C296.216 158.147 296.069 158.818 295.776 159.377C295.484 159.933 295.087 160.36 294.582 160.656C294.08 160.951 293.511 161.099 292.874 161.099C292.237 161.099 291.667 160.951 291.163 160.656C290.661 160.357 290.263 159.93 289.969 159.374C289.678 158.815 289.533 158.145 289.533 157.364C289.533 156.58 289.678 155.91 289.969 155.354C290.263 154.795 290.661 154.368 291.163 154.072C291.667 153.776 292.237 153.628 292.874 153.628C293.511 153.628 294.08 153.776 294.582 154.072C295.087 154.368 295.484 154.795 295.776 155.354C296.069 155.91 296.216 156.58 296.216 157.364ZM294.891 157.364C294.891 156.812 294.805 156.347 294.632 155.968C294.462 155.587 294.225 155.299 293.922 155.105C293.619 154.909 293.27 154.81 292.874 154.81C292.479 154.81 292.13 154.909 291.827 155.105C291.524 155.299 291.286 155.587 291.113 155.968C290.942 156.347 290.857 156.812 290.857 157.364C290.857 157.915 290.942 158.382 291.113 158.763C291.286 159.142 291.524 159.429 291.827 159.626C292.13 159.82 292.479 159.917 292.874 159.917C293.27 159.917 293.619 159.82 293.922 159.626C294.225 159.429 294.462 159.142 294.632 158.763C294.805 158.382 294.891 157.915 294.891 157.364ZM297.405 163.045V155.545H298.669V156.447H298.743C298.81 156.315 298.903 156.174 299.024 156.025C299.145 155.873 299.308 155.744 299.514 155.638C299.72 155.529 299.983 155.474 300.302 155.474C300.724 155.474 301.104 155.582 301.442 155.798C301.783 156.011 302.053 156.327 302.252 156.746C302.453 157.162 302.554 157.674 302.554 158.28C302.554 158.879 302.456 159.388 302.259 159.807C302.063 160.226 301.795 160.545 301.456 160.766C301.118 160.986 300.734 161.096 300.306 161.096C299.993 161.096 299.734 161.044 299.528 160.94C299.322 160.835 299.157 160.71 299.031 160.563C298.908 160.414 298.812 160.273 298.743 160.141H298.69V163.045H297.405ZM298.665 158.273C298.665 158.625 298.715 158.934 298.814 159.2C298.916 159.465 299.062 159.672 299.251 159.821C299.443 159.968 299.675 160.041 299.947 160.041C300.231 160.041 300.469 159.965 300.661 159.814C300.853 159.66 300.997 159.451 301.094 159.185C301.194 158.918 301.243 158.614 301.243 158.273C301.243 157.934 301.195 157.634 301.098 157.371C301.001 157.108 300.856 156.902 300.665 156.753C300.473 156.604 300.234 156.529 299.947 156.529C299.673 156.529 299.439 156.601 299.248 156.746C299.056 156.89 298.91 157.093 298.811 157.353C298.714 157.613 298.665 157.92 298.665 158.273ZM306.378 155.545V156.54H303.243V155.545H306.378ZM304.017 154.239H305.302V159.359C305.302 159.532 305.328 159.665 305.381 159.757C305.435 159.847 305.506 159.909 305.594 159.942C305.681 159.975 305.778 159.991 305.885 159.991C305.965 159.991 306.039 159.986 306.105 159.974C306.174 159.962 306.226 159.951 306.261 159.942L306.478 160.947C306.409 160.97 306.311 160.996 306.183 161.025C306.058 161.053 305.904 161.07 305.721 161.075C305.399 161.084 305.109 161.036 304.851 160.929C304.593 160.82 304.389 160.652 304.237 160.425C304.088 160.197 304.015 159.913 304.017 159.572V154.239ZM307.453 161V155.545H308.739V161H307.453ZM308.1 154.771C307.896 154.771 307.721 154.704 307.574 154.569C307.427 154.432 307.354 154.267 307.354 154.075C307.354 153.881 307.427 153.717 307.574 153.582C307.721 153.444 307.896 153.376 308.1 153.376C308.306 153.376 308.481 153.444 308.625 153.582C308.772 153.717 308.846 153.881 308.846 154.075C308.846 154.267 308.772 154.432 308.625 154.569C308.481 154.704 308.306 154.771 308.1 154.771ZM312.44 161.107C311.907 161.107 311.446 160.989 311.055 160.755C310.665 160.521 310.362 160.193 310.146 159.771C309.933 159.35 309.827 158.857 309.827 158.294C309.827 157.731 309.933 157.237 310.146 156.813C310.362 156.389 310.665 156.06 311.055 155.826C311.446 155.592 311.907 155.474 312.44 155.474C312.973 155.474 313.434 155.592 313.825 155.826C314.216 156.06 314.518 156.389 314.731 156.813C314.946 157.237 315.054 157.731 315.054 158.294C315.054 158.857 314.946 159.35 314.731 159.771C314.518 160.193 314.216 160.521 313.825 160.755C313.434 160.989 312.973 161.107 312.44 161.107ZM312.447 160.077C312.736 160.077 312.978 159.997 313.172 159.839C313.366 159.678 313.51 159.462 313.605 159.192C313.702 158.923 313.751 158.622 313.751 158.29C313.751 157.957 313.702 157.655 313.605 157.385C313.51 157.113 313.366 156.896 313.172 156.735C312.978 156.574 312.736 156.494 312.447 156.494C312.151 156.494 311.905 156.574 311.709 156.735C311.515 156.896 311.369 157.113 311.272 157.385C311.177 157.655 311.13 157.957 311.13 158.29C311.13 158.622 311.177 158.923 311.272 159.192C311.369 159.462 311.515 159.678 311.709 159.839C311.905 159.997 312.151 160.077 312.447 160.077ZM317.43 157.804V161H316.145V155.545H317.374V156.472H317.438C317.563 156.167 317.763 155.924 318.038 155.744C318.315 155.564 318.657 155.474 319.064 155.474C319.44 155.474 319.768 155.555 320.048 155.716C320.329 155.877 320.547 156.11 320.701 156.415C320.857 156.721 320.934 157.091 320.932 157.527V161H319.646V157.726C319.646 157.361 319.552 157.076 319.362 156.87C319.175 156.664 318.916 156.561 318.585 156.561C318.36 156.561 318.16 156.611 317.984 156.71C317.812 156.807 317.675 156.948 317.576 157.133C317.479 157.317 317.43 157.541 317.43 157.804Z" fill="#4B5563"/>
<rect x="279.5" y="145.5" width="52" height="23" rx="4.5" stroke="#D1D5DB"/>
</g>
<defs>
<filter id="filter0_dd_169_148971" x="74" y="143" width="140" height="30" filterUnits="userSpaceOnUse" color-interpolation-filters="sRGB">
<feFlood flood-opacity="0" result="BackgroundImageFix"/>
<feColorMatrix in="SourceAlpha" type="matrix" values="0 0 0 0 0 0 0 0 0 0 0 0 0 0 0 0 0 0 127 0" result="hardAlpha"/>
<feOffset dy="1"/>
<feGaussianBlur stdDeviation="1.5"/>
<feColorMatrix type="matrix" values="0 0 0 0 0 0 0 0 0 0 0 0 0 0 0 0 0 0 0.1 0"/>
<feBlend mode="normal" in2="BackgroundImageFix" result="effect1_dropShadow_169_148971"/>
<feColorMatrix in="SourceAlpha" type="matrix" values="0 0 0 0 0 0 0 0 0 0 0 0 0 0 0 0 0 0 127 0" result="hardAlpha"/>
<feOffset dy="1"/>
<feGaussianBlur stdDeviation="1"/>
<feColorMatrix type="matrix" values="0 0 0 0 0 0 0 0 0 0 0 0 0 0 0 0 0 0 0.06 0"/>
<feBlend mode="normal" in2="effect1_dropShadow_169_148971" result="effect2_dropShadow_169_148971"/>
<feBlend mode="normal" in="SourceGraphic" in2="effect2_dropShadow_169_148971" result="shape"/>
</filter>
<filter id="filter1_dd_169_148971" x="269" y="87" width="66" height="54" filterUnits="userSpaceOnUse" color-interpolation-filters="sRGB">
<feFlood flood-opacity="0" result="BackgroundImageFix"/>
<feColorMatrix in="SourceAlpha" type="matrix" values="0 0 0 0 0 0 0 0 0 0 0 0 0 0 0 0 0 0 127 0" result="hardAlpha"/>
<feOffset dy="1"/>
<feGaussianBlur stdDeviation="1.5"/>
<feColorMatrix type="matrix" values="0 0 0 0 0 0 0 0 0 0 0 0 0 0 0 0 0 0 0.1 0"/>
<feBlend mode="normal" in2="BackgroundImageFix" result="effect1_dropShadow_169_148971"/>
<feColorMatrix in="SourceAlpha" type="matrix" values="0 0 0 0 0 0 0 0 0 0 0 0 0 0 0 0 0 0 127 0" result="hardAlpha"/>
<feOffset dy="1"/>
<feGaussianBlur stdDeviation="1"/>
<feColorMatrix type="matrix" values="0 0 0 0 0 0 0 0 0 0 0 0 0 0 0 0 0 0 0.06 0"/>
<feBlend mode="normal" in2="effect1_dropShadow_169_148971" result="effect2_dropShadow_169_148971"/>
<feBlend mode="normal" in="SourceGraphic" in2="effect2_dropShadow_169_148971" result="shape"/>
</filter>
<filter id="filter2_dd_169_148971" x="15" y="59" width="57" height="26" filterUnits="userSpaceOnUse" color-interpolation-filters="sRGB">
<feFlood flood-opacity="0" result="BackgroundImageFix"/>
<feColorMatrix in="SourceAlpha" type="matrix" values="0 0 0 0 0 0 0 0 0 0 0 0 0 0 0 0 0 0 127 0" result="hardAlpha"/>
<feOffset dy="1"/>
<feGaussianBlur stdDeviation="1.5"/>
<feColorMatrix type="matrix" values="0 0 0 0 0 0 0 0 0 0 0 0 0 0 0 0 0 0 0.1 0"/>
<feBlend mode="normal" in2="BackgroundImageFix" result="effect1_dropShadow_169_148971"/>
<feColorMatrix in="SourceAlpha" type="matrix" values="0 0 0 0 0 0 0 0 0 0 0 0 0 0 0 0 0 0 127 0" result="hardAlpha"/>
<feOffset dy="1"/>
<feGaussianBlur stdDeviation="1"/>
<feColorMatrix type="matrix" values="0 0 0 0 0 0 0 0 0 0 0 0 0 0 0 0 0 0 0.06 0"/>
<feBlend mode="normal" in2="effect1_dropShadow_169_148971" result="effect2_dropShadow_169_148971"/>
<feBlend mode="normal" in="SourceGraphic" in2="effect2_dropShadow_169_148971" result="shape"/>
</filter>
<filter id="filter3_dd_169_148971" x="15" y="87" width="57" height="26" filterUnits="userSpaceOnUse" color-interpolation-filters="sRGB">
<feFlood flood-opacity="0" result="BackgroundImageFix"/>
<feColorMatrix in="SourceAlpha" type="matrix" values="0 0 0 0 0 0 0 0 0 0 0 0 0 0 0 0 0 0 127 0" result="hardAlpha"/>
<feOffset dy="1"/>
<feGaussianBlur stdDeviation="1.5"/>
<feColorMatrix type="matrix" values="0 0 0 0 0 0 0 0 0 0 0 0 0 0 0 0 0 0 0.1 0"/>
<feBlend mode="normal" in2="BackgroundImageFix" result="effect1_dropShadow_169_148971"/>
<feColorMatrix in="SourceAlpha" type="matrix" values="0 0 0 0 0 0 0 0 0 0 0 0 0 0 0 0 0 0 127 0" result="hardAlpha"/>
<feOffset dy="1"/>
<feGaussianBlur stdDeviation="1"/>
<feColorMatrix type="matrix" values="0 0 0 0 0 0 0 0 0 0 0 0 0 0 0 0 0 0 0.06 0"/>
<feBlend mode="normal" in2="effect1_dropShadow_169_148971" result="effect2_dropShadow_169_148971"/>
<feBlend mode="normal" in="SourceGraphic" in2="effect2_dropShadow_169_148971" result="shape"/>
</filter>
<filter id="filter4_dd_169_148971" x="15" y="115" width="57" height="26" filterUnits="userSpaceOnUse" color-interpolation-filters="sRGB">
<feFlood flood-opacity="0" result="BackgroundImageFix"/>
<feColorMatrix in="SourceAlpha" type="matrix" values="0 0 0 0 0 0 0 0 0 0 0 0 0 0 0 0 0 0 127 0" result="hardAlpha"/>
<feOffset dy="1"/>
<feGaussianBlur stdDeviation="1.5"/>
<feColorMatrix type="matrix" values="0 0 0 0 0 0 0 0 0 0 0 0 0 0 0 0 0 0 0.1 0"/>
<feBlend mode="normal" in2="BackgroundImageFix" result="effect1_dropShadow_169_148971"/>
<feColorMatrix in="SourceAlpha" type="matrix" values="0 0 0 0 0 0 0 0 0 0 0 0 0 0 0 0 0 0 127 0" result="hardAlpha"/>
<feOffset dy="1"/>
<feGaussianBlur stdDeviation="1"/>
<feColorMatrix type="matrix" values="0 0 0 0 0 0 0 0 0 0 0 0 0 0 0 0 0 0 0.06 0"/>
<feBlend mode="normal" in2="effect1_dropShadow_169_148971" result="effect2_dropShadow_169_148971"/>
<feBlend mode="normal" in="SourceGraphic" in2="effect2_dropShadow_169_148971" result="shape"/>
</filter>
<filter id="filter5_dd_169_148971" x="74" y="87" width="37" height="26" filterUnits="userSpaceOnUse" color-interpolation-filters="sRGB">
<feFlood flood-opacity="0" result="BackgroundImageFix"/>
<feColorMatrix in="SourceAlpha" type="matrix" values="0 0 0 0 0 0 0 0 0 0 0 0 0 0 0 0 0 0 127 0" result="hardAlpha"/>
<feOffset dy="1"/>
<feGaussianBlur stdDeviation="1.5"/>
<feColorMatrix type="matrix" values="0 0 0 0 0 0 0 0 0 0 0 0 0 0 0 0 0 0 0.1 0"/>
<feBlend mode="normal" in2="BackgroundImageFix" result="effect1_dropShadow_169_148971"/>
<feColorMatrix in="SourceAlpha" type="matrix" values="0 0 0 0 0 0 0 0 0 0 0 0 0 0 0 0 0 0 127 0" result="hardAlpha"/>
<feOffset dy="1"/>
<feGaussianBlur stdDeviation="1"/>
<feColorMatrix type="matrix" values="0 0 0 0 0 0 0 0 0 0 0 0 0 0 0 0 0 0 0.06 0"/>
<feBlend mode="normal" in2="effect1_dropShadow_169_148971" result="effect2_dropShadow_169_148971"/>
<feBlend mode="normal" in="SourceGraphic" in2="effect2_dropShadow_169_148971" result="shape"/>
</filter>
<filter id="filter6_dd_169_148971" x="113" y="87" width="37" height="26" filterUnits="userSpaceOnUse" color-interpolation-filters="sRGB">
<feFlood flood-opacity="0" result="BackgroundImageFix"/>
<feColorMatrix in="SourceAlpha" type="matrix" values="0 0 0 0 0 0 0 0 0 0 0 0 0 0 0 0 0 0 127 0" result="hardAlpha"/>
<feOffset dy="1"/>
<feGaussianBlur stdDeviation="1.5"/>
<feColorMatrix type="matrix" values="0 0 0 0 0 0 0 0 0 0 0 0 0 0 0 0 0 0 0.1 0"/>
<feBlend mode="normal" in2="BackgroundImageFix" result="effect1_dropShadow_169_148971"/>
<feColorMatrix in="SourceAlpha" type="matrix" values="0 0 0 0 0 0 0 0 0 0 0 0 0 0 0 0 0 0 127 0" result="hardAlpha"/>
<feOffset dy="1"/>
<feGaussianBlur stdDeviation="1"/>
<feColorMatrix type="matrix" values="0 0 0 0 0 0 0 0 0 0 0 0 0 0 0 0 0 0 0.06 0"/>
<feBlend mode="normal" in2="effect1_dropShadow_169_148971" result="effect2_dropShadow_169_148971"/>
<feBlend mode="normal" in="SourceGraphic" in2="effect2_dropShadow_169_148971" result="shape"/>
</filter>
<filter id="filter7_dd_169_148971" x="152" y="87" width="37" height="26" filterUnits="userSpaceOnUse" color-interpolation-filters="sRGB">
<feFlood flood-opacity="0" result="BackgroundImageFix"/>
<feColorMatrix in="SourceAlpha" type="matrix" values="0 0 0 0 0 0 0 0 0 0 0 0 0 0 0 0 0 0 127 0" result="hardAlpha"/>
<feOffset dy="1"/>
<feGaussianBlur stdDeviation="1.5"/>
<feColorMatrix type="matrix" values="0 0 0 0 0 0 0 0 0 0 0 0 0 0 0 0 0 0 0.1 0"/>
<feBlend mode="normal" in2="BackgroundImageFix" result="effect1_dropShadow_169_148971"/>
<feColorMatrix in="SourceAlpha" type="matrix" values="0 0 0 0 0 0 0 0 0 0 0 0 0 0 0 0 0 0 127 0" result="hardAlpha"/>
<feOffset dy="1"/>
<feGaussianBlur stdDeviation="1"/>
<feColorMatrix type="matrix" values="0 0 0 0 0 0 0 0 0 0 0 0 0 0 0 0 0 0 0.06 0"/>
<feBlend mode="normal" in2="effect1_dropShadow_169_148971" result="effect2_dropShadow_169_148971"/>
<feBlend mode="normal" in="SourceGraphic" in2="effect2_dropShadow_169_148971" result="shape"/>
</filter>
<filter id="filter8_dd_169_148971" x="191" y="87" width="37" height="26" filterUnits="userSpaceOnUse" color-interpolation-filters="sRGB">
<feFlood flood-opacity="0" result="BackgroundImageFix"/>
<feColorMatrix in="SourceAlpha" type="matrix" values="0 0 0 0 0 0 0 0 0 0 0 0 0 0 0 0 0 0 127 0" result="hardAlpha"/>
<feOffset dy="1"/>
<feGaussianBlur stdDeviation="1.5"/>
<feColorMatrix type="matrix" values="0 0 0 0 0 0 0 0 0 0 0 0 0 0 0 0 0 0 0.1 0"/>
<feBlend mode="normal" in2="BackgroundImageFix" result="effect1_dropShadow_169_148971"/>
<feColorMatrix in="SourceAlpha" type="matrix" values="0 0 0 0 0 0 0 0 0 0 0 0 0 0 0 0 0 0 127 0" result="hardAlpha"/>
<feOffset dy="1"/>
<feGaussianBlur stdDeviation="1"/>
<feColorMatrix type="matrix" values="0 0 0 0 0 0 0 0 0 0 0 0 0 0 0 0 0 0 0.06 0"/>
<feBlend mode="normal" in2="effect1_dropShadow_169_148971" result="effect2_dropShadow_169_148971"/>
<feBlend mode="normal" in="SourceGraphic" in2="effect2_dropShadow_169_148971" result="shape"/>
</filter>
<filter id="filter9_dd_169_148971" x="230" y="87" width="37" height="26" filterUnits="userSpaceOnUse" color-interpolation-filters="sRGB">
<feFlood flood-opacity="0" result="BackgroundImageFix"/>
<feColorMatrix in="SourceAlpha" type="matrix" values="0 0 0 0 0 0 0 0 0 0 0 0 0 0 0 0 0 0 127 0" result="hardAlpha"/>
<feOffset dy="1"/>
<feGaussianBlur stdDeviation="1.5"/>
<feColorMatrix type="matrix" values="0 0 0 0 0 0 0 0 0 0 0 0 0 0 0 0 0 0 0.1 0"/>
<feBlend mode="normal" in2="BackgroundImageFix" result="effect1_dropShadow_169_148971"/>
<feColorMatrix in="SourceAlpha" type="matrix" values="0 0 0 0 0 0 0 0 0 0 0 0 0 0 0 0 0 0 127 0" result="hardAlpha"/>
<feOffset dy="1"/>
<feGaussianBlur stdDeviation="1"/>
<feColorMatrix type="matrix" values="0 0 0 0 0 0 0 0 0 0 0 0 0 0 0 0 0 0 0.06 0"/>
<feBlend mode="normal" in2="effect1_dropShadow_169_148971" result="effect2_dropShadow_169_148971"/>
<feBlend mode="normal" in="SourceGraphic" in2="effect2_dropShadow_169_148971" result="shape"/>
</filter>
<filter id="filter10_dd_169_148971" x="74" y="115" width="37" height="26" filterUnits="userSpaceOnUse" color-interpolation-filters="sRGB">
<feFlood flood-opacity="0" result="BackgroundImageFix"/>
<feColorMatrix in="SourceAlpha" type="matrix" values="0 0 0 0 0 0 0 0 0 0 0 0 0 0 0 0 0 0 127 0" result="hardAlpha"/>
<feOffset dy="1"/>
<feGaussianBlur stdDeviation="1.5"/>
<feColorMatrix type="matrix" values="0 0 0 0 0 0 0 0 0 0 0 0 0 0 0 0 0 0 0.1 0"/>
<feBlend mode="normal" in2="BackgroundImageFix" result="effect1_dropShadow_169_148971"/>
<feColorMatrix in="SourceAlpha" type="matrix" values="0 0 0 0 0 0 0 0 0 0 0 0 0 0 0 0 0 0 127 0" result="hardAlpha"/>
<feOffset dy="1"/>
<feGaussianBlur stdDeviation="1"/>
<feColorMatrix type="matrix" values="0 0 0 0 0 0 0 0 0 0 0 0 0 0 0 0 0 0 0.06 0"/>
<feBlend mode="normal" in2="effect1_dropShadow_169_148971" result="effect2_dropShadow_169_148971"/>
<feBlend mode="normal" in="SourceGraphic" in2="effect2_dropShadow_169_148971" result="shape"/>
</filter>
<filter id="filter11_dd_169_148971" x="113" y="115" width="37" height="26" filterUnits="userSpaceOnUse" color-interpolation-filters="sRGB">
<feFlood flood-opacity="0" result="BackgroundImageFix"/>
<feColorMatrix in="SourceAlpha" type="matrix" values="0 0 0 0 0 0 0 0 0 0 0 0 0 0 0 0 0 0 127 0" result="hardAlpha"/>
<feOffset dy="1"/>
<feGaussianBlur stdDeviation="1.5"/>
<feColorMatrix type="matrix" values="0 0 0 0 0 0 0 0 0 0 0 0 0 0 0 0 0 0 0.1 0"/>
<feBlend mode="normal" in2="BackgroundImageFix" result="effect1_dropShadow_169_148971"/>
<feColorMatrix in="SourceAlpha" type="matrix" values="0 0 0 0 0 0 0 0 0 0 0 0 0 0 0 0 0 0 127 0" result="hardAlpha"/>
<feOffset dy="1"/>
<feGaussianBlur stdDeviation="1"/>
<feColorMatrix type="matrix" values="0 0 0 0 0 0 0 0 0 0 0 0 0 0 0 0 0 0 0.06 0"/>
<feBlend mode="normal" in2="effect1_dropShadow_169_148971" result="effect2_dropShadow_169_148971"/>
<feBlend mode="normal" in="SourceGraphic" in2="effect2_dropShadow_169_148971" result="shape"/>
</filter>
<filter id="filter12_dd_169_148971" x="152" y="115" width="37" height="26" filterUnits="userSpaceOnUse" color-interpolation-filters="sRGB">
<feFlood flood-opacity="0" result="BackgroundImageFix"/>
<feColorMatrix in="SourceAlpha" type="matrix" values="0 0 0 0 0 0 0 0 0 0 0 0 0 0 0 0 0 0 127 0" result="hardAlpha"/>
<feOffset dy="1"/>
<feGaussianBlur stdDeviation="1.5"/>
<feColorMatrix type="matrix" values="0 0 0 0 0 0 0 0 0 0 0 0 0 0 0 0 0 0 0.1 0"/>
<feBlend mode="normal" in2="BackgroundImageFix" result="effect1_dropShadow_169_148971"/>
<feColorMatrix in="SourceAlpha" type="matrix" values="0 0 0 0 0 0 0 0 0 0 0 0 0 0 0 0 0 0 127 0" result="hardAlpha"/>
<feOffset dy="1"/>
<feGaussianBlur stdDeviation="1"/>
<feColorMatrix type="matrix" values="0 0 0 0 0 0 0 0 0 0 0 0 0 0 0 0 0 0 0.06 0"/>
<feBlend mode="normal" in2="effect1_dropShadow_169_148971" result="effect2_dropShadow_169_148971"/>
<feBlend mode="normal" in="SourceGraphic" in2="effect2_dropShadow_169_148971" result="shape"/>
</filter>
<filter id="filter13_dd_169_148971" x="191" y="115" width="37" height="26" filterUnits="userSpaceOnUse" color-interpolation-filters="sRGB">
<feFlood flood-opacity="0" result="BackgroundImageFix"/>
<feColorMatrix in="SourceAlpha" type="matrix" values="0 0 0 0 0 0 0 0 0 0 0 0 0 0 0 0 0 0 127 0" result="hardAlpha"/>
<feOffset dy="1"/>
<feGaussianBlur stdDeviation="1.5"/>
<feColorMatrix type="matrix" values="0 0 0 0 0 0 0 0 0 0 0 0 0 0 0 0 0 0 0.1 0"/>
<feBlend mode="normal" in2="BackgroundImageFix" result="effect1_dropShadow_169_148971"/>
<feColorMatrix in="SourceAlpha" type="matrix" values="0 0 0 0 0 0 0 0 0 0 0 0 0 0 0 0 0 0 127 0" result="hardAlpha"/>
<feOffset dy="1"/>
<feGaussianBlur stdDeviation="1"/>
<feColorMatrix type="matrix" values="0 0 0 0 0 0 0 0 0 0 0 0 0 0 0 0 0 0 0.06 0"/>
<feBlend mode="normal" in2="effect1_dropShadow_169_148971" result="effect2_dropShadow_169_148971"/>
<feBlend mode="normal" in="SourceGraphic" in2="effect2_dropShadow_169_148971" result="shape"/>
</filter>
<filter id="filter14_dd_169_148971" x="230" y="115" width="37" height="26" filterUnits="userSpaceOnUse" color-interpolation-filters="sRGB">
<feFlood flood-opacity="0" result="BackgroundImageFix"/>
<feColorMatrix in="SourceAlpha" type="matrix" values="0 0 0 0 0 0 0 0 0 0 0 0 0 0 0 0 0 0 127 0" result="hardAlpha"/>
<feOffset dy="1"/>
<feGaussianBlur stdDeviation="1.5"/>
<feColorMatrix type="matrix" values="0 0 0 0 0 0 0 0 0 0 0 0 0 0 0 0 0 0 0.1 0"/>
<feBlend mode="normal" in2="BackgroundImageFix" result="effect1_dropShadow_169_148971"/>
<feColorMatrix in="SourceAlpha" type="matrix" values="0 0 0 0 0 0 0 0 0 0 0 0 0 0 0 0 0 0 127 0" result="hardAlpha"/>
<feOffset dy="1"/>
<feGaussianBlur stdDeviation="1"/>
<feColorMatrix type="matrix" values="0 0 0 0 0 0 0 0 0 0 0 0 0 0 0 0 0 0 0.06 0"/>
<feBlend mode="normal" in2="effect1_dropShadow_169_148971" result="effect2_dropShadow_169_148971"/>
<feBlend mode="normal" in="SourceGraphic" in2="effect2_dropShadow_169_148971" result="shape"/>
</filter>
<filter id="filter15_dd_169_148971" x="74" y="59" width="40" height="26" filterUnits="userSpaceOnUse" color-interpolation-filters="sRGB">
<feFlood flood-opacity="0" result="BackgroundImageFix"/>
<feColorMatrix in="SourceAlpha" type="matrix" values="0 0 0 0 0 0 0 0 0 0 0 0 0 0 0 0 0 0 127 0" result="hardAlpha"/>
<feOffset dy="1"/>
<feGaussianBlur stdDeviation="1.5"/>
<feColorMatrix type="matrix" values="0 0 0 0 0 0 0 0 0 0 0 0 0 0 0 0 0 0 0.1 0"/>
<feBlend mode="normal" in2="BackgroundImageFix" result="effect1_dropShadow_169_148971"/>
<feColorMatrix in="SourceAlpha" type="matrix" values="0 0 0 0 0 0 0 0 0 0 0 0 0 0 0 0 0 0 127 0" result="hardAlpha"/>
<feOffset dy="1"/>
<feGaussianBlur stdDeviation="1"/>
<feColorMatrix type="matrix" values="0 0 0 0 0 0 0 0 0 0 0 0 0 0 0 0 0 0 0.06 0"/>
<feBlend mode="normal" in2="effect1_dropShadow_169_148971" result="effect2_dropShadow_169_148971"/>
<feBlend mode="normal" in="SourceGraphic" in2="effect2_dropShadow_169_148971" result="shape"/>
</filter>
<filter id="filter16_dd_169_148971" x="116" y="59" width="39" height="26" filterUnits="userSpaceOnUse" color-interpolation-filters="sRGB">
<feFlood flood-opacity="0" result="BackgroundImageFix"/>
<feColorMatrix in="SourceAlpha" type="matrix" values="0 0 0 0 0 0 0 0 0 0 0 0 0 0 0 0 0 0 127 0" result="hardAlpha"/>
<feOffset dy="1"/>
<feGaussianBlur stdDeviation="1.5"/>
<feColorMatrix type="matrix" values="0 0 0 0 0 0 0 0 0 0 0 0 0 0 0 0 0 0 0.1 0"/>
<feBlend mode="normal" in2="BackgroundImageFix" result="effect1_dropShadow_169_148971"/>
<feColorMatrix in="SourceAlpha" type="matrix" values="0 0 0 0 0 0 0 0 0 0 0 0 0 0 0 0 0 0 127 0" result="hardAlpha"/>
<feOffset dy="1"/>
<feGaussianBlur stdDeviation="1"/>
<feColorMatrix type="matrix" values="0 0 0 0 0 0 0 0 0 0 0 0 0 0 0 0 0 0 0.06 0"/>
<feBlend mode="normal" in2="effect1_dropShadow_169_148971" result="effect2_dropShadow_169_148971"/>
<feBlend mode="normal" in="SourceGraphic" in2="effect2_dropShadow_169_148971" result="shape"/>
</filter>
<filter id="filter17_dd_169_148971" x="157" y="59" width="43" height="26" filterUnits="userSpaceOnUse" color-interpolation-filters="sRGB">
<feFlood flood-opacity="0" result="BackgroundImageFix"/>
<feColorMatrix in="SourceAlpha" type="matrix" values="0 0 0 0 0 0 0 0 0 0 0 0 0 0 0 0 0 0 127 0" result="hardAlpha"/>
<feOffset dy="1"/>
<feGaussianBlur stdDeviation="1.5"/>
<feColorMatrix type="matrix" values="0 0 0 0 0 0 0 0 0 0 0 0 0 0 0 0 0 0 0.1 0"/>
<feBlend mode="normal" in2="BackgroundImageFix" result="effect1_dropShadow_169_148971"/>
<feColorMatrix in="SourceAlpha" type="matrix" values="0 0 0 0 0 0 0 0 0 0 0 0 0 0 0 0 0 0 127 0" result="hardAlpha"/>
<feOffset dy="1"/>
<feGaussianBlur stdDeviation="1"/>
<feColorMatrix type="matrix" values="0 0 0 0 0 0 0 0 0 0 0 0 0 0 0 0 0 0 0.06 0"/>
<feBlend mode="normal" in2="effect1_dropShadow_169_148971" result="effect2_dropShadow_169_148971"/>
<feBlend mode="normal" in="SourceGraphic" in2="effect2_dropShadow_169_148971" result="shape"/>
</filter>
<filter id="filter18_dd_169_148971" x="202" y="59" width="43" height="26" filterUnits="userSpaceOnUse" color-interpolation-filters="sRGB">
<feFlood flood-opacity="0" result="BackgroundImageFix"/>
<feColorMatrix in="SourceAlpha" type="matrix" values="0 0 0 0 0 0 0 0 0 0 0 0 0 0 0 0 0 0 127 0" result="hardAlpha"/>
<feOffset dy="1"/>
<feGaussianBlur stdDeviation="1.5"/>
<feColorMatrix type="matrix" values="0 0 0 0 0 0 0 0 0 0 0 0 0 0 0 0 0 0 0.1 0"/>
<feBlend mode="normal" in2="BackgroundImageFix" result="effect1_dropShadow_169_148971"/>
<feColorMatrix in="SourceAlpha" type="matrix" values="0 0 0 0 0 0 0 0 0 0 0 0 0 0 0 0 0 0 127 0" result="hardAlpha"/>
<feOffset dy="1"/>
<feGaussianBlur stdDeviation="1"/>
<feColorMatrix type="matrix" values="0 0 0 0 0 0 0 0 0 0 0 0 0 0 0 0 0 0 0.06 0"/>
<feBlend mode="normal" in2="effect1_dropShadow_169_148971" result="effect2_dropShadow_169_148971"/>
<feBlend mode="normal" in="SourceGraphic" in2="effect2_dropShadow_169_148971" result="shape"/>
</filter>
<filter id="filter19_dd_169_148971" x="247" y="59" width="43" height="26" filterUnits="userSpaceOnUse" color-interpolation-filters="sRGB">
<feFlood flood-opacity="0" result="BackgroundImageFix"/>
<feColorMatrix in="SourceAlpha" type="matrix" values="0 0 0 0 0 0 0 0 0 0 0 0 0 0 0 0 0 0 127 0" result="hardAlpha"/>
<feOffset dy="1"/>
<feGaussianBlur stdDeviation="1.5"/>
<feColorMatrix type="matrix" values="0 0 0 0 0 0 0 0 0 0 0 0 0 0 0 0 0 0 0.1 0"/>
<feBlend mode="normal" in2="BackgroundImageFix" result="effect1_dropShadow_169_148971"/>
<feColorMatrix in="SourceAlpha" type="matrix" values="0 0 0 0 0 0 0 0 0 0 0 0 0 0 0 0 0 0 127 0" result="hardAlpha"/>
<feOffset dy="1"/>
<feGaussianBlur stdDeviation="1"/>
<feColorMatrix type="matrix" values="0 0 0 0 0 0 0 0 0 0 0 0 0 0 0 0 0 0 0.06 0"/>
<feBlend mode="normal" in2="effect1_dropShadow_169_148971" result="effect2_dropShadow_169_148971"/>
<feBlend mode="normal" in="SourceGraphic" in2="effect2_dropShadow_169_148971" result="shape"/>
</filter>
<filter id="filter20_dd_169_148971" x="292" y="59" width="43" height="26" filterUnits="userSpaceOnUse" color-interpolation-filters="sRGB">
<feFlood flood-opacity="0" result="BackgroundImageFix"/>
<feColorMatrix in="SourceAlpha" type="matrix" values="0 0 0 0 0 0 0 0 0 0 0 0 0 0 0 0 0 0 127 0" result="hardAlpha"/>
<feOffset dy="1"/>
<feGaussianBlur stdDeviation="1.5"/>
<feColorMatrix type="matrix" values="0 0 0 0 0 0 0 0 0 0 0 0 0 0 0 0 0 0 0.1 0"/>
<feBlend mode="normal" in2="BackgroundImageFix" result="effect1_dropShadow_169_148971"/>
<feColorMatrix in="SourceAlpha" type="matrix" values="0 0 0 0 0 0 0 0 0 0 0 0 0 0 0 0 0 0 127 0" result="hardAlpha"/>
<feOffset dy="1"/>
<feGaussianBlur stdDeviation="1"/>
<feColorMatrix type="matrix" values="0 0 0 0 0 0 0 0 0 0 0 0 0 0 0 0 0 0 0.06 0"/>
<feBlend mode="normal" in2="effect1_dropShadow_169_148971" result="effect2_dropShadow_169_148971"/>
<feBlend mode="normal" in="SourceGraphic" in2="effect2_dropShadow_169_148971" result="shape"/>
</filter>
<filter id="filter21_dd_169_148971" x="216" y="143" width="58" height="30" filterUnits="userSpaceOnUse" color-interpolation-filters="sRGB">
<feFlood flood-opacity="0" result="BackgroundImageFix"/>
<feColorMatrix in="SourceAlpha" type="matrix" values="0 0 0 0 0 0 0 0 0 0 0 0 0 0 0 0 0 0 127 0" result="hardAlpha"/>
<feOffset dy="1"/>
<feGaussianBlur stdDeviation="1.5"/>
<feColorMatrix type="matrix" values="0 0 0 0 0 0 0 0 0 0 0 0 0 0 0 0 0 0 0.1 0"/>
<feBlend mode="normal" in2="BackgroundImageFix" result="effect1_dropShadow_169_148971"/>
<feColorMatrix in="SourceAlpha" type="matrix" values="0 0 0 0 0 0 0 0 0 0 0 0 0 0 0 0 0 0 127 0" result="hardAlpha"/>
<feOffset dy="1"/>
<feGaussianBlur stdDeviation="1"/>
<feColorMatrix type="matrix" values="0 0 0 0 0 0 0 0 0 0 0 0 0 0 0 0 0 0 0.06 0"/>
<feBlend mode="normal" in2="effect1_dropShadow_169_148971" result="effect2_dropShadow_169_148971"/>
<feBlend mode="normal" in="SourceGraphic" in2="effect2_dropShadow_169_148971" result="shape"/>
</filter>
<filter id="filter22_dd_169_148971" x="15" y="143" width="59" height="30" filterUnits="userSpaceOnUse" color-interpolation-filters="sRGB">
<feFlood flood-opacity="0" result="BackgroundImageFix"/>
<feColorMatrix in="SourceAlpha" type="matrix" values="0 0 0 0 0 0 0 0 0 0 0 0 0 0 0 0 0 0 127 0" result="hardAlpha"/>
<feOffset dy="1"/>
<feGaussianBlur stdDeviation="1.5"/>
<feColorMatrix type="matrix" values="0 0 0 0 0 0 0 0 0 0 0 0 0 0 0 0 0 0 0.1 0"/>
<feBlend mode="normal" in2="BackgroundImageFix" result="effect1_dropShadow_169_148971"/>
<feColorMatrix in="SourceAlpha" type="matrix" values="0 0 0 0 0 0 0 0 0 0 0 0 0 0 0 0 0 0 127 0" result="hardAlpha"/>
<feOffset dy="1"/>
<feGaussianBlur stdDeviation="1"/>
<feColorMatrix type="matrix" values="0 0 0 0 0 0 0 0 0 0 0 0 0 0 0 0 0 0 0.06 0"/>
<feBlend mode="normal" in2="effect1_dropShadow_169_148971" result="effect2_dropShadow_169_148971"/>
<feBlend mode="normal" in="SourceGraphic" in2="effect2_dropShadow_169_148971" result="shape"/>
</filter>
<filter id="filter23_dd_169_148971" x="276" y="143" width="59" height="30" filterUnits="userSpaceOnUse" color-interpolation-filters="sRGB">
<feFlood flood-opacity="0" result="BackgroundImageFix"/>
<feColorMatrix in="SourceAlpha" type="matrix" values="0 0 0 0 0 0 0 0 0 0 0 0 0 0 0 0 0 0 127 0" result="hardAlpha"/>
<feOffset dy="1"/>
<feGaussianBlur stdDeviation="1.5"/>
<feColorMatrix type="matrix" values="0 0 0 0 0 0 0 0 0 0 0 0 0 0 0 0 0 0 0.1 0"/>
<feBlend mode="normal" in2="BackgroundImageFix" result="effect1_dropShadow_169_148971"/>
<feColorMatrix in="SourceAlpha" type="matrix" values="0 0 0 0 0 0 0 0 0 0 0 0 0 0 0 0 0 0 127 0" result="hardAlpha"/>
<feOffset dy="1"/>
<feGaussianBlur stdDeviation="1"/>
<feColorMatrix type="matrix" values="0 0 0 0 0 0 0 0 0 0 0 0 0 0 0 0 0 0 0.06 0"/>
<feBlend mode="normal" in2="effect1_dropShadow_169_148971" result="effect2_dropShadow_169_148971"/>
<feBlend mode="normal" in="SourceGraphic" in2="effect2_dropShadow_169_148971" result="shape"/>
</filter>
</defs>
</svg>
