<svg width="320" height="114" viewBox="0 0 320 114" fill="none" xmlns="http://www.w3.org/2000/svg">
<g filter="url(#filter0_dd_3028_5059)">
<rect x="62" y="86" width="134" height="24" rx="5" fill="#F3F4F6"/>
<path d="M104.67 96.7266C104.637 96.4164 104.497 96.175 104.251 96.0021C104.007 95.8293 103.69 95.7429 103.299 95.7429C103.024 95.7429 102.789 95.7843 102.592 95.8672C102.396 95.95 102.246 96.0625 102.141 96.2045C102.037 96.3466 101.984 96.5088 101.982 96.6911C101.982 96.8426 102.016 96.974 102.085 97.0852C102.156 97.1965 102.251 97.2912 102.372 97.3693C102.493 97.4451 102.627 97.509 102.773 97.5611C102.92 97.6132 103.068 97.657 103.217 97.6925L103.899 97.8629C104.174 97.9268 104.438 98.0133 104.691 98.1222C104.947 98.2311 105.175 98.3684 105.376 98.5341C105.58 98.6998 105.741 98.8999 105.859 99.1342C105.978 99.3686 106.037 99.6432 106.037 99.9581C106.037 100.384 105.928 100.759 105.71 101.084C105.492 101.406 105.178 101.658 104.766 101.84C104.356 102.02 103.86 102.11 103.278 102.11C102.712 102.11 102.221 102.022 101.804 101.847C101.39 101.672 101.065 101.416 100.831 101.08C100.599 100.744 100.473 100.335 100.455 99.8516H101.751C101.77 100.105 101.848 100.316 101.985 100.484C102.122 100.652 102.301 100.777 102.521 100.86C102.744 100.943 102.992 100.984 103.267 100.984C103.554 100.984 103.804 100.942 104.02 100.857C104.238 100.769 104.408 100.648 104.531 100.494C104.654 100.338 104.717 100.156 104.719 99.9474C104.717 99.758 104.661 99.6018 104.553 99.4787C104.444 99.3532 104.291 99.2491 104.094 99.1662C103.9 99.081 103.673 99.0052 103.413 98.9389L102.585 98.7259C101.986 98.572 101.513 98.3388 101.165 98.0263C100.819 97.7114 100.646 97.2936 100.646 96.7727C100.646 96.3442 100.762 95.969 100.994 95.647C101.229 95.325 101.547 95.0753 101.95 94.8977C102.352 94.7178 102.808 94.6278 103.317 94.6278C103.833 94.6278 104.285 94.7178 104.673 94.8977C105.064 95.0753 105.371 95.3227 105.593 95.6399C105.816 95.9548 105.93 96.317 105.938 96.7266H104.67ZM107.155 104.045V96.5455H108.419V97.4474H108.493C108.56 97.3149 108.653 97.174 108.774 97.0249C108.895 96.8733 109.058 96.7443 109.264 96.6378C109.47 96.5289 109.733 96.4744 110.052 96.4744C110.474 96.4744 110.854 96.5821 111.192 96.7976C111.533 97.0107 111.803 97.3267 112.002 97.7457C112.203 98.1624 112.304 98.6738 112.304 99.2798C112.304 99.8788 112.206 100.388 112.009 100.807C111.813 101.226 111.545 101.545 111.206 101.766C110.868 101.986 110.484 102.096 110.056 102.096C109.743 102.096 109.484 102.044 109.278 101.94C109.072 101.835 108.907 101.71 108.781 101.563C108.658 101.414 108.562 101.273 108.493 101.141H108.44V104.045H107.155ZM108.415 99.2727C108.415 99.6255 108.465 99.9344 108.564 100.2C108.666 100.465 108.812 100.672 109.001 100.821C109.193 100.968 109.425 101.041 109.697 101.041C109.981 101.041 110.219 100.965 110.411 100.814C110.603 100.66 110.747 100.451 110.844 100.185C110.944 99.9179 110.993 99.6136 110.993 99.2727C110.993 98.9342 110.945 98.6335 110.848 98.3707C110.751 98.108 110.606 97.902 110.415 97.7528C110.223 97.6037 109.984 97.5291 109.697 97.5291C109.423 97.5291 109.189 97.6013 108.998 97.7457C108.806 97.8902 108.66 98.0926 108.561 98.353C108.464 98.6134 108.415 98.92 108.415 99.2727ZM114.974 102.11C114.629 102.11 114.317 102.049 114.04 101.925C113.766 101.8 113.548 101.615 113.387 101.371C113.228 101.128 113.149 100.827 113.149 100.469C113.149 100.162 113.206 99.9072 113.319 99.706C113.433 99.5047 113.588 99.3438 113.785 99.223C113.981 99.1023 114.202 99.0111 114.449 98.9496C114.697 98.8857 114.954 98.8395 115.219 98.8111C115.539 98.7779 115.798 98.7483 115.997 98.7223C116.196 98.6939 116.34 98.6513 116.43 98.5945C116.523 98.5353 116.569 98.4441 116.569 98.321V98.2997C116.569 98.0322 116.489 97.825 116.331 97.6783C116.172 97.5315 115.944 97.4581 115.645 97.4581C115.331 97.4581 115.081 97.5268 114.896 97.6641C114.714 97.8014 114.591 97.9635 114.527 98.1506L113.327 97.9801C113.421 97.6487 113.577 97.3717 113.795 97.1491C114.013 96.9242 114.279 96.7562 114.594 96.6449C114.909 96.5312 115.257 96.4744 115.638 96.4744C115.901 96.4744 116.163 96.5052 116.423 96.5668C116.684 96.6283 116.921 96.7301 117.137 96.8722C117.352 97.0118 117.525 97.2024 117.655 97.4439C117.788 97.6854 117.854 97.9872 117.854 98.3494V102H116.618V101.251H116.576C116.498 101.402 116.388 101.544 116.246 101.677C116.106 101.807 115.93 101.912 115.716 101.993C115.506 102.071 115.258 102.11 114.974 102.11ZM115.308 101.165C115.566 101.165 115.79 101.115 115.979 101.013C116.169 100.909 116.314 100.771 116.416 100.601C116.52 100.43 116.572 100.245 116.572 100.043V99.4006C116.532 99.4337 116.463 99.4645 116.366 99.4929C116.272 99.5213 116.165 99.5462 116.047 99.5675C115.928 99.5888 115.811 99.6077 115.695 99.6243C115.579 99.6409 115.479 99.6551 115.393 99.6669C115.202 99.6929 115.03 99.7356 114.878 99.7947C114.727 99.8539 114.607 99.9368 114.52 100.043C114.432 100.147 114.388 100.282 114.388 100.448C114.388 100.685 114.475 100.864 114.648 100.984C114.82 101.105 115.041 101.165 115.308 101.165ZM121.526 102.107C120.982 102.107 120.514 101.987 120.123 101.748C119.735 101.509 119.436 101.179 119.225 100.757C119.017 100.333 118.912 99.8456 118.912 99.294C118.912 98.7401 119.019 98.2512 119.232 97.8274C119.445 97.4013 119.746 97.0698 120.134 96.8331C120.525 96.594 120.986 96.4744 121.519 96.4744C121.962 96.4744 122.354 96.5561 122.694 96.7195C123.038 96.8804 123.311 97.1089 123.515 97.4048C123.718 97.6984 123.834 98.0417 123.863 98.4347H122.634C122.584 98.1719 122.466 97.9529 122.279 97.7777C122.094 97.6001 121.847 97.5114 121.537 97.5114C121.274 97.5114 121.043 97.5824 120.844 97.7244C120.645 97.8641 120.49 98.0653 120.379 98.3281C120.27 98.5909 120.216 98.9058 120.216 99.2727C120.216 99.6444 120.27 99.964 120.379 100.232C120.488 100.497 120.641 100.701 120.837 100.846C121.036 100.988 121.269 101.059 121.537 101.059C121.726 101.059 121.895 101.023 122.045 100.952C122.196 100.879 122.323 100.774 122.425 100.636C122.526 100.499 122.596 100.332 122.634 100.136H123.863C123.832 100.522 123.718 100.864 123.522 101.162C123.325 101.458 123.058 101.69 122.719 101.858C122.381 102.024 121.983 102.107 121.526 102.107ZM127.333 102.107C126.786 102.107 126.314 101.993 125.916 101.766C125.521 101.536 125.217 101.212 125.004 100.793C124.79 100.371 124.684 99.8752 124.684 99.3047C124.684 98.7436 124.79 98.2512 125.004 97.8274C125.219 97.4013 125.52 97.0698 125.906 96.8331C126.291 96.594 126.745 96.4744 127.266 96.4744C127.602 96.4744 127.919 96.5289 128.217 96.6378C128.518 96.7443 128.783 96.91 129.013 97.1349C129.245 97.3598 129.427 97.6463 129.56 97.9943C129.692 98.34 129.759 98.7519 129.759 99.2301V99.6243H125.288V98.7578H128.526C128.524 98.5116 128.471 98.2926 128.366 98.1009C128.262 97.9067 128.117 97.754 127.93 97.6428C127.745 97.5315 127.53 97.4759 127.283 97.4759C127.021 97.4759 126.79 97.5398 126.591 97.6676C126.392 97.7931 126.237 97.9588 126.126 98.1648C126.017 98.3684 125.961 98.5921 125.959 98.8359V99.5923C125.959 99.9096 126.017 100.182 126.133 100.409C126.249 100.634 126.411 100.807 126.619 100.928C126.828 101.046 127.071 101.105 127.351 101.105C127.538 101.105 127.707 101.079 127.859 101.027C128.01 100.973 128.142 100.893 128.253 100.789C128.364 100.685 128.448 100.556 128.505 100.402L129.705 100.537C129.629 100.854 129.485 101.131 129.272 101.368C129.061 101.602 128.791 101.785 128.462 101.915C128.133 102.043 127.757 102.107 127.333 102.107ZM130.903 102V94.7273H132.188V97.4474H132.242C132.308 97.3149 132.401 97.174 132.522 97.0249C132.643 96.8733 132.806 96.7443 133.012 96.6378C133.218 96.5289 133.481 96.4744 133.801 96.4744C134.222 96.4744 134.602 96.5821 134.941 96.7976C135.281 97.0107 135.551 97.3267 135.75 97.7457C135.951 98.1624 136.052 98.6738 136.052 99.2798C136.052 99.8788 135.954 100.388 135.757 100.807C135.561 101.226 135.293 101.545 134.955 101.766C134.616 101.986 134.233 102.096 133.804 102.096C133.492 102.096 133.232 102.044 133.026 101.94C132.82 101.835 132.655 101.71 132.529 101.563C132.406 101.414 132.31 101.273 132.242 101.141H132.167V102H130.903ZM132.164 99.2727C132.164 99.6255 132.213 99.9344 132.313 100.2C132.414 100.465 132.56 100.672 132.749 100.821C132.941 100.968 133.173 101.041 133.445 101.041C133.73 101.041 133.968 100.965 134.159 100.814C134.351 100.66 134.495 100.451 134.593 100.185C134.692 99.9179 134.742 99.6136 134.742 99.2727C134.742 98.9342 134.693 98.6335 134.596 98.3707C134.499 98.108 134.355 97.902 134.163 97.7528C133.971 97.6037 133.732 97.5291 133.445 97.5291C133.171 97.5291 132.938 97.6013 132.746 97.7457C132.554 97.8902 132.409 98.0926 132.309 98.353C132.212 98.6134 132.164 98.92 132.164 99.2727ZM138.714 102.11C138.369 102.11 138.058 102.049 137.781 101.925C137.506 101.8 137.288 101.615 137.127 101.371C136.969 101.128 136.889 100.827 136.889 100.469C136.889 100.162 136.946 99.9072 137.06 99.706C137.173 99.5047 137.328 99.3438 137.525 99.223C137.721 99.1023 137.943 99.0111 138.189 98.9496C138.438 98.8857 138.694 98.8395 138.96 98.8111C139.279 98.7779 139.538 98.7483 139.737 98.7223C139.936 98.6939 140.08 98.6513 140.17 98.5945C140.263 98.5353 140.309 98.4441 140.309 98.321V98.2997C140.309 98.0322 140.23 97.825 140.071 97.6783C139.912 97.5315 139.684 97.4581 139.386 97.4581C139.071 97.4581 138.821 97.5268 138.636 97.6641C138.454 97.8014 138.331 97.9635 138.267 98.1506L137.067 97.9801C137.161 97.6487 137.318 97.3717 137.536 97.1491C137.753 96.9242 138.02 96.7562 138.335 96.6449C138.649 96.5312 138.997 96.4744 139.379 96.4744C139.641 96.4744 139.903 96.5052 140.163 96.5668C140.424 96.6283 140.662 96.7301 140.877 96.8722C141.093 97.0118 141.265 97.2024 141.396 97.4439C141.528 97.6854 141.594 97.9872 141.594 98.3494V102H140.359V101.251H140.316C140.238 101.402 140.128 101.544 139.986 101.677C139.846 101.807 139.67 101.912 139.457 101.993C139.246 102.071 138.999 102.11 138.714 102.11ZM139.048 101.165C139.306 101.165 139.53 101.115 139.719 101.013C139.909 100.909 140.054 100.771 140.156 100.601C140.26 100.43 140.312 100.245 140.312 100.043V99.4006C140.272 99.4337 140.204 99.4645 140.107 99.4929C140.012 99.5213 139.905 99.5462 139.787 99.5675C139.669 99.5888 139.551 99.6077 139.435 99.6243C139.319 99.6409 139.219 99.6551 139.134 99.6669C138.942 99.6929 138.77 99.7356 138.619 99.7947C138.467 99.8539 138.348 99.9368 138.26 100.043C138.172 100.147 138.129 100.282 138.129 100.448C138.129 100.685 138.215 100.864 138.388 100.984C138.561 101.105 138.781 101.165 139.048 101.165ZM142.887 102V96.5455H144.134V97.4545H144.19C144.29 97.1397 144.46 96.897 144.702 96.7266C144.946 96.5537 145.224 96.4673 145.536 96.4673C145.607 96.4673 145.687 96.4709 145.774 96.478C145.864 96.4827 145.939 96.491 145.998 96.5028V97.6854C145.943 97.6664 145.857 97.6499 145.739 97.6357C145.623 97.6191 145.51 97.6108 145.401 97.6108C145.167 97.6108 144.956 97.6617 144.769 97.7635C144.585 97.8629 144.439 98.0014 144.332 98.179C144.226 98.3565 144.173 98.5613 144.173 98.7933V102H142.887Z" fill="#4B5563"/>
<rect x="62.5" y="86.5" width="133" height="23" rx="4.5" stroke="#D1D5DB"/>
</g>
<g filter="url(#filter1_dd_3028_5059)">
<rect x="257" y="30" width="60" height="48" rx="5" fill="#F3F4F6"/>
<path d="M274.717 58V50.7273H279.447V51.8317H276.035V53.8061H279.202V54.9105H276.035V56.8956H279.476V58H274.717ZM282.02 54.804V58H280.735V52.5455H281.963V53.4723H282.027C282.153 53.1669 282.353 52.9242 282.627 52.7443C282.904 52.5644 283.247 52.4744 283.654 52.4744C284.03 52.4744 284.358 52.5549 284.637 52.7159C284.919 52.8769 285.137 53.1101 285.291 53.4155C285.447 53.7209 285.524 54.0914 285.522 54.527V58H284.236V54.7259C284.236 54.3613 284.141 54.076 283.952 53.87C283.765 53.6641 283.506 53.5611 283.174 53.5611C282.949 53.5611 282.749 53.6108 282.574 53.7102C282.401 53.8073 282.265 53.9482 282.166 54.1328C282.069 54.3175 282.02 54.5412 282.02 54.804ZM289.552 52.5455V53.5398H286.417V52.5455H289.552ZM287.191 51.2386H288.476V56.3594C288.476 56.5322 288.502 56.6648 288.554 56.7571C288.609 56.8471 288.68 56.9086 288.767 56.9418C288.855 56.9749 288.952 56.9915 289.059 56.9915C289.139 56.9915 289.212 56.9856 289.279 56.9737C289.347 56.9619 289.4 56.9512 289.435 56.9418L289.652 57.9467C289.583 57.9704 289.485 57.9964 289.357 58.0249C289.231 58.0533 289.078 58.0698 288.895 58.0746C288.573 58.084 288.283 58.0355 288.025 57.929C287.767 57.8201 287.562 57.652 287.411 57.4247C287.262 57.1974 287.188 56.9134 287.191 56.5724V51.2386ZM292.983 58.1065C292.437 58.1065 291.964 57.9929 291.567 57.7656C291.171 57.536 290.867 57.2116 290.654 56.7926C290.441 56.3712 290.334 55.8752 290.334 55.3047C290.334 54.7436 290.441 54.2512 290.654 53.8274C290.869 53.4013 291.17 53.0698 291.556 52.8331C291.942 52.594 292.395 52.4744 292.916 52.4744C293.252 52.4744 293.569 52.5289 293.868 52.6378C294.168 52.7443 294.434 52.91 294.663 53.1349C294.895 53.3598 295.077 53.6463 295.21 53.9943C295.343 54.34 295.409 54.7519 295.409 55.2301V55.6243H290.938V54.7578H294.177C294.174 54.5116 294.121 54.2926 294.017 54.1009C293.913 53.9067 293.767 53.754 293.58 53.6428C293.395 53.5315 293.18 53.4759 292.934 53.4759C292.671 53.4759 292.44 53.5398 292.241 53.6676C292.042 53.7931 291.887 53.9588 291.776 54.1648C291.667 54.3684 291.612 54.5921 291.609 54.8359V55.5923C291.609 55.9096 291.667 56.1818 291.783 56.4091C291.899 56.634 292.061 56.8068 292.27 56.9276C292.478 57.0459 292.722 57.1051 293.001 57.1051C293.188 57.1051 293.358 57.0791 293.509 57.027C293.661 56.9725 293.792 56.8932 293.903 56.7891C294.015 56.6849 294.099 56.5559 294.155 56.402L295.356 56.5369C295.28 56.8542 295.135 57.1312 294.922 57.3679C294.712 57.6023 294.442 57.7846 294.113 57.9148C293.784 58.0426 293.407 58.1065 292.983 58.1065ZM296.496 58V52.5455H297.743V53.4545H297.8C297.899 53.1397 298.07 52.897 298.311 52.7266C298.555 52.5537 298.833 52.4673 299.146 52.4673C299.217 52.4673 299.296 52.4709 299.384 52.478C299.473 52.4827 299.548 52.491 299.607 52.5028V53.6854C299.553 53.6664 299.466 53.6499 299.348 53.6357C299.232 53.6191 299.12 53.6108 299.011 53.6108C298.776 53.6108 298.566 53.6617 298.379 53.7635C298.194 53.8629 298.048 54.0014 297.942 54.179C297.835 54.3565 297.782 54.5613 297.782 54.7933V58H296.496Z" fill="#4B5563"/>
<rect x="257.5" y="30.5" width="59" height="47" rx="4.5" stroke="#D1D5DB"/>
</g>
<rect width="51" height="76" transform="translate(3 2)" fill="#F3F4F6"/>
<g filter="url(#filter2_dd_3028_5059)">
<rect x="3" y="2" width="51" height="20" rx="5" fill="#F4F4F5"/>
<path d="M20.2173 16V8.72727H24.9474V9.83168H21.5348V11.8061H24.7024V12.9105H21.5348V14.8956H24.9759V16H20.2173ZM30.5458 11.9872L29.3739 12.1151C29.3408 11.9967 29.2828 11.8854 29.1999 11.7812C29.1194 11.6771 29.0105 11.593 28.8732 11.5291C28.7359 11.4652 28.5678 11.4332 28.369 11.4332C28.1014 11.4332 27.8765 11.4912 27.6942 11.6072C27.5143 11.7232 27.4255 11.8736 27.4279 12.0582C27.4255 12.2169 27.4835 12.3459 27.6019 12.4453C27.7227 12.5447 27.9215 12.6264 28.1985 12.6903L29.1289 12.8892C29.645 13.0005 30.0285 13.1768 30.2795 13.4183C30.5328 13.6598 30.6606 13.9759 30.663 14.3665C30.6606 14.7098 30.56 15.0128 30.3612 15.2756C30.1647 15.536 29.8912 15.7396 29.5408 15.8864C29.1905 16.0331 28.788 16.1065 28.3335 16.1065C27.6658 16.1065 27.1284 15.9669 26.7212 15.6875C26.314 15.4058 26.0714 15.014 25.9933 14.5121L27.2468 14.3913C27.3036 14.6375 27.4244 14.8234 27.609 14.9489C27.7937 15.0743 28.034 15.1371 28.3299 15.1371C28.6353 15.1371 28.8803 15.0743 29.065 14.9489C29.252 14.8234 29.3455 14.6683 29.3455 14.4837C29.3455 14.3274 29.2852 14.1984 29.1644 14.0966C29.046 13.9948 28.8614 13.9167 28.6104 13.8622L27.68 13.6669C27.1568 13.558 26.7698 13.3745 26.5188 13.1165C26.2679 12.8561 26.1436 12.527 26.146 12.1293C26.1436 11.7931 26.2347 11.5019 26.4194 11.2557C26.6064 11.0071 26.8656 10.8153 27.1971 10.6804C27.5309 10.5431 27.9156 10.4744 28.3512 10.4744C28.9904 10.4744 29.4935 10.6106 29.8604 10.8828C30.2298 11.1551 30.4582 11.5232 30.5458 11.9872ZM34.1023 16.1065C33.5578 16.1065 33.0902 15.987 32.6996 15.7479C32.3113 15.5088 32.0118 15.1785 31.8011 14.7571C31.5928 14.3333 31.4886 13.8456 31.4886 13.294C31.4886 12.7401 31.5952 12.2512 31.8082 11.8274C32.0213 11.4013 32.322 11.0698 32.7102 10.8331C33.1009 10.594 33.5625 10.4744 34.0952 10.4744C34.5379 10.4744 34.9297 10.5561 35.2706 10.7195C35.6139 10.8804 35.8873 11.1089 36.0909 11.4048C36.2945 11.6984 36.4105 12.0417 36.4389 12.4347H35.2102C35.1605 12.1719 35.0421 11.9529 34.8551 11.7777C34.6705 11.6001 34.4231 11.5114 34.1129 11.5114C33.8501 11.5114 33.6193 11.5824 33.4205 11.7244C33.2216 11.8641 33.0665 12.0653 32.9553 12.3281C32.8464 12.5909 32.7919 12.9058 32.7919 13.2727C32.7919 13.6444 32.8464 13.964 32.9553 14.2315C33.0642 14.4967 33.2169 14.7015 33.4134 14.8459C33.6122 14.9879 33.8454 15.0589 34.1129 15.0589C34.3023 15.0589 34.4716 15.0234 34.6207 14.9524C34.7723 14.879 34.8989 14.7737 35.0007 14.6364C35.1025 14.4991 35.1723 14.3321 35.2102 14.1357H36.4389C36.4081 14.5215 36.2945 14.8636 36.098 15.1619C35.9015 15.4579 35.634 15.6899 35.2955 15.858C34.9569 16.0237 34.5592 16.1065 34.1023 16.1065Z" fill="#4B5563"/>
<rect x="3.5" y="2.5" width="50" height="19" rx="4.5" stroke="#D1D5DB"/>
</g>
<g filter="url(#filter3_dd_3028_5059)">
<rect x="3" y="30" width="51" height="20" rx="5" fill="#F4F4F5"/>
<path d="M19.8977 37.8317V36.7273H25.7003V37.8317H23.4524V44H22.1456V37.8317H19.8977ZM27.5895 44.1101C27.2438 44.1101 26.9325 44.0485 26.6555 43.9254C26.3809 43.8 26.1631 43.6153 26.0021 43.3714C25.8435 43.1276 25.7642 42.8269 25.7642 42.4695C25.7642 42.1617 25.821 41.9072 25.9347 41.706C26.0483 41.5047 26.2034 41.3438 26.3999 41.223C26.5964 41.1023 26.8177 41.0111 27.0639 40.9496C27.3125 40.8857 27.5694 40.8395 27.8345 40.8111C28.1541 40.7779 28.4134 40.7483 28.6122 40.7223C28.8111 40.6939 28.9555 40.6513 29.0455 40.5945C29.1378 40.5353 29.1839 40.4441 29.1839 40.321V40.2997C29.1839 40.0322 29.1046 39.825 28.946 39.6783C28.7874 39.5315 28.5589 39.4581 28.2607 39.4581C27.9458 39.4581 27.696 39.5268 27.5114 39.6641C27.3291 39.8014 27.206 39.9635 27.142 40.1506L25.9418 39.9801C26.0365 39.6487 26.1927 39.3717 26.4105 39.1491C26.6283 38.9242 26.8946 38.7562 27.2095 38.6449C27.5244 38.5312 27.8724 38.4744 28.2536 38.4744C28.5163 38.4744 28.7779 38.5052 29.0384 38.5668C29.2988 38.6283 29.5367 38.7301 29.7521 38.8722C29.9676 39.0118 30.1404 39.2024 30.2706 39.4439C30.4032 39.6854 30.4695 39.9872 30.4695 40.3494V44H29.2337V43.2507H29.1911C29.1129 43.4022 29.0028 43.5443 28.8608 43.6768C28.7211 43.8071 28.5447 43.9124 28.3317 43.9929C28.121 44.071 27.8736 44.1101 27.5895 44.1101ZM27.9233 43.1655C28.1813 43.1655 28.4051 43.1146 28.5945 43.0128C28.7839 42.9086 28.9295 42.7713 29.0312 42.6009C29.1354 42.4304 29.1875 42.2446 29.1875 42.0433V41.4006C29.1473 41.4337 29.0786 41.4645 28.9815 41.4929C28.8868 41.5213 28.7803 41.5462 28.6619 41.5675C28.5436 41.5888 28.4264 41.6077 28.3104 41.6243C28.1944 41.6409 28.0938 41.6551 28.0085 41.6669C27.8168 41.6929 27.6451 41.7356 27.4936 41.7947C27.3421 41.8539 27.2225 41.9368 27.1349 42.0433C27.0473 42.1475 27.0036 42.2824 27.0036 42.4482C27.0036 42.6849 27.09 42.8636 27.2628 42.9844C27.4356 43.1051 27.6558 43.1655 27.9233 43.1655ZM31.8189 44V36.7273H33.1044V39.4474H33.1577C33.224 39.3149 33.3175 39.174 33.4382 39.0249C33.5589 38.8733 33.7223 38.7443 33.9283 38.6378C34.1342 38.5289 34.397 38.4744 34.7166 38.4744C35.138 38.4744 35.518 38.5821 35.8565 38.7976C36.1974 39.0107 36.4673 39.3267 36.6662 39.7457C36.8674 40.1624 36.968 40.6738 36.968 41.2798C36.968 41.8788 36.8698 42.3878 36.6733 42.8068C36.4768 43.2259 36.2093 43.5455 35.8707 43.7656C35.5322 43.9858 35.1487 44.0959 34.7202 44.0959C34.4077 44.0959 34.1484 44.0438 33.9425 43.9396C33.7365 43.8355 33.5708 43.71 33.4453 43.5632C33.3222 43.4141 33.2263 43.2732 33.1577 43.1406H33.0831V44H31.8189ZM33.0795 41.2727C33.0795 41.6255 33.1293 41.9344 33.2287 42.1996C33.3305 42.4647 33.4761 42.6719 33.6655 42.821C33.8572 42.9678 34.0893 43.0412 34.3615 43.0412C34.6456 43.0412 34.8835 42.9654 35.0753 42.8139C35.267 42.66 35.4115 42.4505 35.5085 42.1854C35.608 41.9179 35.6577 41.6136 35.6577 41.2727C35.6577 40.9342 35.6091 40.6335 35.5121 40.3707C35.415 40.108 35.2706 39.902 35.0788 39.7528C34.8871 39.6037 34.648 39.5291 34.3615 39.5291C34.0869 39.5291 33.8537 39.6013 33.6619 39.7457C33.4702 39.8902 33.3246 40.0926 33.2251 40.353C33.1281 40.6134 33.0795 40.92 33.0795 41.2727Z" fill="#4B5563"/>
<rect x="3.5" y="30.5" width="50" height="19" rx="4.5" stroke="#D1D5DB"/>
</g>
<g filter="url(#filter4_dd_3028_5059)">
<rect x="3" y="58" width="51" height="20" rx="5" fill="#F4F4F5"/>
<path d="M21.6697 66.7266C21.6366 66.4164 21.4969 66.175 21.2507 66.0021C21.0069 65.8293 20.6896 65.7429 20.299 65.7429C20.0244 65.7429 19.7888 65.7843 19.5923 65.8672C19.3958 65.95 19.2455 66.0625 19.1413 66.2045C19.0372 66.3466 18.9839 66.5088 18.9815 66.6911C18.9815 66.8426 19.0159 66.974 19.0845 67.0852C19.1555 67.1965 19.2514 67.2912 19.3722 67.3693C19.4929 67.4451 19.6267 67.509 19.7734 67.5611C19.9202 67.6132 20.0682 67.657 20.2173 67.6925L20.8991 67.8629C21.1738 67.9268 21.4377 68.0133 21.6911 68.1222C21.9467 68.2311 22.1752 68.3684 22.3764 68.5341C22.58 68.6998 22.741 68.8999 22.8594 69.1342C22.9777 69.3686 23.0369 69.6432 23.0369 69.9581C23.0369 70.3842 22.928 70.7595 22.7102 71.0838C22.4924 71.4058 22.1776 71.6579 21.7656 71.8402C21.3561 72.0201 20.8601 72.1101 20.2777 72.1101C19.7119 72.1101 19.2206 72.0225 18.804 71.8473C18.3897 71.6721 18.0653 71.4164 17.831 71.0803C17.599 70.7441 17.4735 70.3345 17.4545 69.8516H18.7507C18.7696 70.1049 18.8478 70.3156 18.9851 70.4837C19.1224 70.6518 19.3011 70.7772 19.5213 70.8601C19.7438 70.9429 19.9924 70.9844 20.267 70.9844C20.5535 70.9844 20.8045 70.9418 21.0199 70.8565C21.2377 70.7689 21.4081 70.6482 21.5312 70.4943C21.6544 70.3381 21.7171 70.1558 21.7195 69.9474C21.7171 69.758 21.6615 69.6018 21.5526 69.4787C21.4437 69.3532 21.291 69.2491 21.0945 69.1662C20.9003 69.081 20.6731 69.0052 20.4126 68.9389L19.5852 68.7259C18.9863 68.572 18.5128 68.3388 18.1648 68.0263C17.8191 67.7114 17.6463 67.2936 17.6463 66.7727C17.6463 66.3442 17.7623 65.969 17.9943 65.647C18.2287 65.325 18.5471 65.0753 18.9496 64.8977C19.352 64.7178 19.8078 64.6278 20.3168 64.6278C20.8329 64.6278 21.285 64.7178 21.6733 64.8977C22.0639 65.0753 22.3705 65.3227 22.593 65.6399C22.8156 65.9548 22.9304 66.317 22.9375 66.7266H21.6697ZM25.4402 68.804V72H24.1547V64.7273H25.4118V67.4723H25.4757C25.6035 67.1645 25.8012 66.9219 26.0687 66.7443C26.3386 66.5644 26.6819 66.4744 27.0985 66.4744C27.4773 66.4744 27.8076 66.5537 28.0893 66.7124C28.371 66.871 28.5888 67.103 28.7427 67.4084C28.899 67.7138 28.9771 68.0866 28.9771 68.527V72H27.6916V68.7259C27.6916 68.3589 27.5969 68.0736 27.4075 67.87C27.2205 67.6641 26.9577 67.5611 26.6191 67.5611C26.3919 67.5611 26.1883 67.6108 26.0083 67.7102C25.8308 67.8073 25.6911 67.9482 25.5893 68.1328C25.4899 68.3175 25.4402 68.5412 25.4402 68.804ZM30.2875 72V66.5455H31.573V72H30.2875ZM30.9338 65.7713C30.7302 65.7713 30.555 65.7038 30.4082 65.5689C30.2614 65.4316 30.188 65.267 30.188 65.0753C30.188 64.8812 30.2614 64.7166 30.4082 64.5817C30.555 64.4444 30.7302 64.3757 30.9338 64.3757C31.1397 64.3757 31.3149 64.4444 31.4593 64.5817C31.6061 64.7166 31.6795 64.8812 31.6795 65.0753C31.6795 65.267 31.6061 65.4316 31.4593 65.5689C31.3149 65.7038 31.1397 65.7713 30.9338 65.7713ZM35.6577 66.5455V67.5398H32.4332V66.5455H35.6577ZM33.2393 72V66.0305C33.2393 65.6636 33.3151 65.3582 33.4666 65.1143C33.6205 64.8705 33.8265 64.6882 34.0845 64.5675C34.3426 64.4467 34.629 64.3864 34.9439 64.3864C35.1664 64.3864 35.3641 64.4041 35.5369 64.4396C35.7098 64.4751 35.8376 64.5071 35.9205 64.5355L35.6648 65.5298C35.6103 65.5133 35.5417 65.4967 35.4588 65.4801C35.3759 65.4612 35.2836 65.4517 35.1818 65.4517C34.9427 65.4517 34.7734 65.5097 34.674 65.6257C34.5769 65.7393 34.5284 65.9027 34.5284 66.1158V72H33.2393ZM39.3881 66.5455V67.5398H36.2525V66.5455H39.3881ZM37.0266 65.2386H38.3121V70.3594C38.3121 70.5322 38.3382 70.6648 38.3903 70.7571C38.4447 70.8471 38.5157 70.9086 38.6033 70.9418C38.6909 70.9749 38.788 70.9915 38.8945 70.9915C38.975 70.9915 39.0484 70.9856 39.1147 70.9737C39.1834 70.9619 39.2354 70.9512 39.271 70.9418L39.4876 71.9467C39.4189 71.9704 39.3207 71.9964 39.1928 72.0249C39.0674 72.0533 38.9135 72.0698 38.7312 72.0746C38.4092 72.084 38.1192 72.0355 37.8612 71.929C37.6031 71.8201 37.3983 71.652 37.2468 71.4247C37.0977 71.1974 37.0243 70.9134 37.0266 70.5724V65.2386Z" fill="#4B5563"/>
<rect x="3.5" y="58.5" width="50" height="19" rx="4.5" stroke="#D1D5DB"/>
</g>
<g filter="url(#filter5_dd_3028_5059)">
<rect x="62" y="30" width="31" height="20" rx="5" fill="#F3F4F6"/>
<path d="M76.4268 41.5568H77.62L78.3267 42.473L78.831 43.0696L80.0419 44.625H78.7635L77.9396 43.581L77.5881 43.0838L76.4268 41.5568ZM80.2159 40.3636C80.2159 41.1473 80.0691 41.8184 79.7756 42.3771C79.4844 42.9335 79.0866 43.3596 78.5824 43.6555C78.0805 43.9515 77.5111 44.0994 76.8743 44.0994C76.2375 44.0994 75.6669 43.9515 75.1626 43.6555C74.6607 43.3572 74.263 42.9299 73.9695 42.3736C73.6783 41.8149 73.5327 41.1449 73.5327 40.3636C73.5327 39.58 73.6783 38.91 73.9695 38.3537C74.263 37.795 74.6607 37.3677 75.1626 37.0717C75.6669 36.7758 76.2375 36.6278 76.8743 36.6278C77.5111 36.6278 78.0805 36.7758 78.5824 37.0717C79.0866 37.3677 79.4844 37.795 79.7756 38.3537C80.0691 38.91 80.2159 39.58 80.2159 40.3636ZM78.8913 40.3636C78.8913 39.812 78.8049 39.3468 78.6321 38.968C78.4616 38.5869 78.2249 38.2992 77.9219 38.1051C77.6188 37.9086 77.2696 37.8104 76.8743 37.8104C76.4789 37.8104 76.1297 37.9086 75.8267 38.1051C75.5237 38.2992 75.2857 38.5869 75.1129 38.968C74.9425 39.3468 74.8572 39.812 74.8572 40.3636C74.8572 40.9152 74.9425 41.3816 75.1129 41.7628C75.2857 42.1416 75.5237 42.4292 75.8267 42.6257C76.1297 42.8198 76.4789 42.9169 76.8743 42.9169C77.2696 42.9169 77.6188 42.8198 77.9219 42.6257C78.2249 42.4292 78.4616 42.1416 78.6321 41.7628C78.8049 41.3816 78.8913 40.9152 78.8913 40.3636Z" fill="#4B5563"/>
<rect x="62.5" y="30.5" width="30" height="19" rx="4.5" stroke="#D1D5DB"/>
</g>
<g filter="url(#filter6_dd_3028_5059)">
<rect x="101" y="30" width="31" height="20" rx="5" fill="#F3F4F6"/>
<path d="M113.248 44L111.195 36.7273H112.612L113.923 42.0717H113.99L115.389 36.7273H116.678L118.081 42.0753H118.145L119.455 36.7273H120.872L118.82 44H117.52L116.064 38.897H116.007L114.548 44H113.248Z" fill="#4B5563"/>
<rect x="101.5" y="30.5" width="30" height="19" rx="4.5" stroke="#D1D5DB"/>
</g>
<g filter="url(#filter7_dd_3028_5059)">
<rect x="140" y="30" width="31" height="20" rx="5" fill="#F3F4F6"/>
<path d="M152.717 44V36.7273H157.447V37.8317H154.035V39.8061H157.202V40.9105H154.035V42.8956H157.476V44H152.717Z" fill="#4B5563"/>
<rect x="140.5" y="30.5" width="30" height="19" rx="4.5" stroke="#D1D5DB"/>
</g>
<g filter="url(#filter8_dd_3028_5059)">
<rect x="179" y="30" width="31" height="20" rx="5" fill="#F3F4F6"/>
<path d="M191.717 44V36.7273H194.445C195.003 36.7273 195.472 36.8243 195.851 37.0185C196.232 37.2126 196.52 37.4848 196.714 37.8352C196.91 38.1832 197.009 38.5893 197.009 39.0533C197.009 39.5196 196.909 39.9245 196.71 40.2678C196.514 40.6087 196.224 40.8726 195.84 41.0597C195.457 41.2443 194.986 41.3366 194.427 41.3366H192.484V40.2429H194.249C194.576 40.2429 194.844 40.1979 195.052 40.108C195.26 40.0156 195.414 39.8819 195.513 39.7067C195.615 39.5291 195.666 39.3113 195.666 39.0533C195.666 38.7952 195.615 38.575 195.513 38.3928C195.412 38.2081 195.257 38.0684 195.048 37.9737C194.84 37.8767 194.571 37.8281 194.242 37.8281H193.035V44H191.717ZM195.474 40.7045L197.275 44H195.805L194.036 40.7045H195.474Z" fill="#4B5563"/>
<rect x="179.5" y="30.5" width="30" height="19" rx="4.5" stroke="#D1D5DB"/>
</g>
<g filter="url(#filter9_dd_3028_5059)">
<rect x="218" y="30" width="31" height="20" rx="5" fill="#F3F4F6"/>
<path d="M230.398 37.8317V36.7273H236.2V37.8317H233.952V44H232.646V37.8317H230.398Z" fill="#4B5563"/>
<rect x="218.5" y="30.5" width="30" height="19" rx="4.5" stroke="#D1D5DB"/>
</g>
<g filter="url(#filter10_dd_3028_5059)">
<rect x="62" y="58" width="31" height="20" rx="5" fill="#F3F4F6"/>
<path d="M74.6513 72H73.245L75.8054 64.7273H77.4318L79.9957 72H78.5895L76.647 66.2188H76.5902L74.6513 72ZM74.6974 69.1484H78.5327V70.2067H74.6974V69.1484Z" fill="#4B5563"/>
<rect x="62.5" y="58.5" width="30" height="19" rx="4.5" stroke="#D1D5DB"/>
</g>
<g filter="url(#filter11_dd_3028_5059)">
<rect x="101" y="58" width="31" height="20" rx="5" fill="#F3F4F6"/>
<path d="M117.67 66.7266C117.637 66.4164 117.497 66.175 117.251 66.0021C117.007 65.8293 116.69 65.7429 116.299 65.7429C116.024 65.7429 115.789 65.7843 115.592 65.8672C115.396 65.95 115.246 66.0625 115.141 66.2045C115.037 66.3466 114.984 66.5088 114.982 66.6911C114.982 66.8426 115.016 66.974 115.085 67.0852C115.156 67.1965 115.251 67.2912 115.372 67.3693C115.493 67.4451 115.627 67.509 115.773 67.5611C115.92 67.6132 116.068 67.657 116.217 67.6925L116.899 67.8629C117.174 67.9268 117.438 68.0133 117.691 68.1222C117.947 68.2311 118.175 68.3684 118.376 68.5341C118.58 68.6998 118.741 68.8999 118.859 69.1342C118.978 69.3686 119.037 69.6432 119.037 69.9581C119.037 70.3842 118.928 70.7595 118.71 71.0838C118.492 71.4058 118.178 71.6579 117.766 71.8402C117.356 72.0201 116.86 72.1101 116.278 72.1101C115.712 72.1101 115.221 72.0225 114.804 71.8473C114.39 71.6721 114.065 71.4164 113.831 71.0803C113.599 70.7441 113.473 70.3345 113.455 69.8516H114.751C114.77 70.1049 114.848 70.3156 114.985 70.4837C115.122 70.6518 115.301 70.7772 115.521 70.8601C115.744 70.9429 115.992 70.9844 116.267 70.9844C116.554 70.9844 116.804 70.9418 117.02 70.8565C117.238 70.7689 117.408 70.6482 117.531 70.4943C117.654 70.3381 117.717 70.1558 117.719 69.9474C117.717 69.758 117.661 69.6018 117.553 69.4787C117.444 69.3532 117.291 69.2491 117.094 69.1662C116.9 69.081 116.673 69.0052 116.413 68.9389L115.585 68.7259C114.986 68.572 114.513 68.3388 114.165 68.0263C113.819 67.7114 113.646 67.2936 113.646 66.7727C113.646 66.3442 113.762 65.969 113.994 65.647C114.229 65.325 114.547 65.0753 114.95 64.8977C115.352 64.7178 115.808 64.6278 116.317 64.6278C116.833 64.6278 117.285 64.7178 117.673 64.8977C118.064 65.0753 118.371 65.3227 118.593 65.6399C118.816 65.9548 118.93 66.317 118.938 66.7266H117.67Z" fill="#4B5563"/>
<rect x="101.5" y="58.5" width="30" height="19" rx="4.5" stroke="#D1D5DB"/>
</g>
<g filter="url(#filter12_dd_3028_5059)">
<rect x="140" y="58" width="31" height="20" rx="5" fill="#F3F4F6"/>
<path d="M155.182 72H152.717V64.7273H155.232C155.954 64.7273 156.574 64.8729 157.092 65.1641C157.613 65.4529 158.013 65.8684 158.293 66.4105C158.572 66.9527 158.712 67.6013 158.712 68.3565C158.712 69.1141 158.571 69.7652 158.289 70.3097C158.01 70.8542 157.606 71.272 157.078 71.5632C156.553 71.8544 155.92 72 155.182 72ZM154.035 70.8601H155.118C155.625 70.8601 156.047 70.7678 156.386 70.5831C156.724 70.3961 156.979 70.1179 157.149 69.7486C157.32 69.3769 157.405 68.9129 157.405 68.3565C157.405 67.8002 157.32 67.3385 157.149 66.9716C156.979 66.6023 156.727 66.3265 156.393 66.1442C156.061 65.9595 155.649 65.8672 155.157 65.8672H154.035V70.8601Z" fill="#4B5563"/>
<rect x="140.5" y="58.5" width="30" height="19" rx="4.5" stroke="#D1D5DB"/>
</g>
<g filter="url(#filter13_dd_3028_5059)">
<rect x="179" y="58" width="31" height="20" rx="5" fill="#F3F4F6"/>
<path d="M192.717 72V64.7273H197.376V65.8317H194.035V67.8061H197.057V68.9105H194.035V72H192.717Z" fill="#4B5563"/>
<rect x="179.5" y="58.5" width="30" height="19" rx="4.5" stroke="#D1D5DB"/>
</g>
<g filter="url(#filter14_dd_3028_5059)">
<rect x="218" y="58" width="31" height="20" rx="5" fill="#F3F4F6"/>
<path d="M235.589 67.0497C235.53 66.858 235.449 66.6863 235.344 66.5348C235.243 66.3809 235.12 66.2495 234.975 66.1406C234.833 66.0317 234.67 65.95 234.485 65.8956C234.3 65.8388 234.099 65.8104 233.881 65.8104C233.491 65.8104 233.143 65.9086 232.837 66.1051C232.532 66.3016 232.292 66.5904 232.116 66.9716C231.944 67.3504 231.857 67.812 231.857 68.3565C231.857 68.9058 231.944 69.371 232.116 69.7521C232.289 70.1333 232.53 70.4233 232.837 70.6222C233.145 70.8187 233.503 70.9169 233.91 70.9169C234.279 70.9169 234.599 70.8459 234.869 70.7038C235.141 70.5618 235.35 70.3606 235.497 70.1001C235.644 69.8374 235.717 69.5296 235.717 69.1768L236.016 69.223H234.041V68.1932H236.992V69.0668C236.992 69.6894 236.86 70.228 236.594 70.6825C236.329 71.1371 235.965 71.4875 235.501 71.7337C235.037 71.9775 234.504 72.0994 233.903 72.0994C233.233 72.0994 232.644 71.9491 232.138 71.6484C231.634 71.3454 231.239 70.9157 230.955 70.3594C230.674 69.8007 230.533 69.1378 230.533 68.3707C230.533 67.7836 230.616 67.2592 230.781 66.7976C230.949 66.3359 231.184 65.9441 231.484 65.6222C231.785 65.2978 232.138 65.0516 232.543 64.8835C232.947 64.7131 233.388 64.6278 233.864 64.6278C234.266 64.6278 234.641 64.687 234.989 64.8054C235.337 64.9214 235.646 65.0871 235.916 65.3026C236.188 65.518 236.412 65.7737 236.587 66.0696C236.763 66.3655 236.877 66.6922 236.932 67.0497H235.589Z" fill="#4B5563"/>
<rect x="218.5" y="58.5" width="30" height="19" rx="4.5" stroke="#D1D5DB"/>
</g>
<rect width="255" height="20" transform="translate(62 2)" fill="#F3F4F6"/>
<g filter="url(#filter15_dd_3028_5059)">
<rect x="62" y="2" width="34" height="20" rx="5" fill="#F4F4F5"/>
<path d="M73.7173 16V8.72727H78.3764V9.83168H75.0348V11.8061H78.0568V12.9105H75.0348V16H73.7173ZM82.4638 8.72727V16H81.1463V10.0092H81.1037L79.4027 11.0959V9.88849L81.2102 8.72727H82.4638Z" fill="#4B5563"/>
<rect x="62.5" y="2.5" width="33" height="19" rx="4.5" stroke="#D1D5DB"/>
</g>
<g filter="url(#filter16_dd_3028_5059)">
<rect x="104" y="2" width="33" height="20" rx="5" fill="#F4F4F5"/>
<path d="M114.717 16V8.72727H119.376V9.83168H116.035V11.8061H119.057V12.9105H116.035V16H114.717ZM120.506 16V15.0483L123.031 12.5732C123.272 12.3293 123.473 12.1127 123.634 11.9233C123.795 11.7339 123.916 11.5504 123.996 11.3729C124.077 11.1953 124.117 11.0059 124.117 10.8047C124.117 10.575 124.065 10.3786 123.961 10.2152C123.857 10.0495 123.714 9.92164 123.531 9.83168C123.349 9.74171 123.142 9.69673 122.91 9.69673C122.671 9.69673 122.461 9.74645 122.281 9.84588C122.101 9.94294 121.962 10.0814 121.862 10.2614C121.765 10.4413 121.717 10.6555 121.717 10.9041H120.463C120.463 10.4425 120.568 10.0412 120.779 9.70028C120.99 9.35937 121.28 9.09541 121.649 8.90838C122.021 8.72135 122.447 8.62784 122.928 8.62784C123.415 8.62784 123.844 8.71899 124.213 8.90128C124.582 9.08357 124.869 9.33333 125.072 9.65057C125.278 9.9678 125.381 10.33 125.381 10.7372C125.381 11.0095 125.329 11.277 125.225 11.5398C125.121 11.8026 124.938 12.0937 124.675 12.4134C124.414 12.733 124.049 13.12 123.577 13.5746L122.324 14.8494V14.8991H125.491V16H120.506Z" fill="#4B5563"/>
<rect x="104.5" y="2.5" width="32" height="19" rx="4.5" stroke="#D1D5DB"/>
</g>
<g filter="url(#filter17_dd_3028_5059)">
<rect x="145" y="2" width="37" height="20" rx="5" fill="#F4F4F5"/>
<path d="M157.717 16V8.72727H162.376V9.83168H159.035V11.8061H162.057V12.9105H159.035V16H157.717ZM166.116 16.0994C165.604 16.0994 165.15 16.0118 164.752 15.8366C164.357 15.6615 164.044 15.4176 163.815 15.1051C163.585 14.7926 163.463 14.4316 163.449 14.022H164.784C164.796 14.2185 164.861 14.3902 164.979 14.5369C165.098 14.6813 165.255 14.7938 165.452 14.8743C165.648 14.9548 165.868 14.995 166.112 14.995C166.373 14.995 166.603 14.95 166.805 14.8601C167.006 14.7678 167.163 14.6399 167.277 14.4766C167.391 14.3132 167.446 14.125 167.444 13.9119C167.446 13.6918 167.389 13.4976 167.273 13.3295C167.157 13.1615 166.989 13.0301 166.769 12.9354C166.551 12.8407 166.289 12.7933 165.981 12.7933H165.338V11.7777H165.981C166.234 11.7777 166.455 11.7339 166.645 11.6463C166.837 11.5587 166.987 11.4356 167.096 11.277C167.205 11.116 167.258 10.9302 167.256 10.7195C167.258 10.5135 167.212 10.3348 167.117 10.1832C167.025 10.0294 166.893 9.9098 166.723 9.82457C166.555 9.73935 166.357 9.69673 166.13 9.69673C165.907 9.69673 165.701 9.73698 165.512 9.81747C165.323 9.89796 165.17 10.0128 165.054 10.1619C164.938 10.3087 164.876 10.4839 164.869 10.6875H163.602C163.611 10.2803 163.728 9.92282 163.953 9.61506C164.18 9.30492 164.483 9.06345 164.862 8.89062C165.241 8.71544 165.666 8.62784 166.137 8.62784C166.622 8.62784 167.044 8.71899 167.401 8.90128C167.761 9.0812 168.039 9.32386 168.236 9.62926C168.432 9.93466 168.531 10.272 168.531 10.6413C168.533 11.0509 168.412 11.3942 168.168 11.6712C167.927 11.9482 167.61 12.1293 167.217 12.2145V12.2713C167.728 12.3423 168.12 12.5317 168.392 12.8395C168.667 13.1449 168.803 13.5249 168.8 13.9794C168.8 14.3866 168.684 14.7512 168.452 15.0732C168.223 15.3928 167.906 15.6437 167.501 15.826C167.098 16.0083 166.637 16.0994 166.116 16.0994Z" fill="#4B5563"/>
<rect x="145.5" y="2.5" width="36" height="19" rx="4.5" stroke="#D1D5DB"/>
</g>
<g filter="url(#filter18_dd_3028_5059)">
<rect x="190" y="2" width="37" height="20" rx="5" fill="#F4F4F5"/>
<path d="M202.717 16V8.72727H207.376V9.83168H204.035V11.8061H207.057V12.9105H204.035V16H202.717ZM208.374 14.6506V13.603L211.46 8.72727H212.334V10.2188H211.801L209.724 13.5107V13.5675H214.031V14.6506H208.374ZM211.844 16V14.331L211.858 13.8622V8.72727H213.101V16H211.844Z" fill="#4B5563"/>
<rect x="190.5" y="2.5" width="36" height="19" rx="4.5" stroke="#D1D5DB"/>
</g>
<g filter="url(#filter19_dd_3028_5059)">
<rect x="235" y="2" width="37" height="20" rx="5" fill="#F4F4F5"/>
<path d="M247.717 16V8.72727H252.376V9.83168H249.035V11.8061H252.057V12.9105H249.035V16H247.717ZM256.034 16.0994C255.561 16.0994 255.137 16.0107 254.763 15.8331C254.389 15.6532 254.092 15.407 253.871 15.0945C253.654 14.782 253.538 14.4245 253.523 14.022H254.802C254.826 14.3203 254.955 14.5642 255.189 14.7536C255.423 14.9406 255.705 15.0341 256.034 15.0341C256.292 15.0341 256.522 14.9749 256.723 14.8565C256.924 14.7382 257.083 14.5736 257.199 14.3629C257.315 14.1522 257.372 13.9119 257.369 13.642C257.372 13.3674 257.314 13.1236 257.195 12.9105C257.077 12.6974 256.915 12.5305 256.709 12.4098C256.503 12.2867 256.266 12.2251 255.999 12.2251C255.781 12.2228 255.567 12.263 255.356 12.3459C255.145 12.4287 254.978 12.5376 254.855 12.6726L253.665 12.4773L254.045 8.72727H258.264V9.82812H255.136L254.926 11.7564H254.969C255.104 11.5978 255.294 11.4664 255.54 11.3622C255.787 11.2557 256.057 11.2024 256.35 11.2024C256.79 11.2024 257.183 11.3066 257.529 11.5149C257.875 11.7209 258.147 12.005 258.346 12.3672C258.545 12.7294 258.644 13.1437 258.644 13.6101C258.644 14.0907 258.533 14.5192 258.31 14.8956C258.09 15.2696 257.784 15.5644 257.391 15.7798C257 15.9929 256.548 16.0994 256.034 16.0994Z" fill="#4B5563"/>
<rect x="235.5" y="2.5" width="36" height="19" rx="4.5" stroke="#D1D5DB"/>
</g>
<g filter="url(#filter20_dd_3028_5059)">
<rect x="280" y="2" width="37" height="20" rx="5" fill="#F4F4F5"/>
<path d="M292.717 16V8.72727H297.376V9.83168H294.035V11.8061H297.057V12.9105H294.035V16H292.717ZM301.169 16.0994C300.821 16.0971 300.481 16.0367 300.15 15.9183C299.818 15.7976 299.52 15.6023 299.255 15.3324C298.99 15.0601 298.779 14.6991 298.623 14.2493C298.467 13.7971 298.39 13.2372 298.392 12.5696C298.392 11.947 298.458 11.3918 298.591 10.9041C298.723 10.4164 298.914 10.0045 299.163 9.66832C299.411 9.32978 299.711 9.07173 300.061 8.89418C300.414 8.71662 300.808 8.62784 301.244 8.62784C301.701 8.62784 302.105 8.7178 302.458 8.89773C302.813 9.07765 303.1 9.32386 303.317 9.63636C303.535 9.9465 303.67 10.2969 303.722 10.6875H302.426C302.36 10.4081 302.224 10.1856 302.018 10.0199C301.814 9.8518 301.556 9.76776 301.244 9.76776C300.739 9.76776 300.351 9.98674 300.079 10.4247C299.809 10.8627 299.673 11.464 299.67 12.2287H299.72C299.836 12.0204 299.987 11.8416 300.171 11.6925C300.356 11.5433 300.564 11.4285 300.796 11.348C301.031 11.2652 301.278 11.2237 301.538 11.2237C301.964 11.2237 302.347 11.3255 302.685 11.5291C303.026 11.7327 303.296 12.0133 303.495 12.3707C303.694 12.7259 303.792 13.133 303.79 13.5923C303.792 14.0705 303.683 14.5002 303.463 14.8814C303.243 15.2602 302.936 15.5585 302.543 15.7763C302.15 15.9941 301.692 16.1018 301.169 16.0994ZM301.162 15.0341C301.42 15.0341 301.651 14.9714 301.854 14.8459C302.058 14.7204 302.219 14.5511 302.337 14.3381C302.456 14.125 302.514 13.8859 302.511 13.6207C302.514 13.3603 302.457 13.1248 302.341 12.9141C302.227 12.7034 302.07 12.5365 301.869 12.4134C301.667 12.2902 301.438 12.2287 301.18 12.2287C300.988 12.2287 300.809 12.2654 300.643 12.3388C300.478 12.4122 300.333 12.514 300.21 12.6442C300.087 12.772 299.99 12.9212 299.919 13.0916C299.85 13.2597 299.815 13.4396 299.812 13.6314C299.815 13.8847 299.874 14.1179 299.99 14.331C300.106 14.544 300.266 14.7145 300.469 14.8423C300.673 14.9702 300.904 15.0341 301.162 15.0341Z" fill="#4B5563"/>
<rect x="280.5" y="2.5" width="36" height="19" rx="4.5" stroke="#D1D5DB"/>
</g>
<g filter="url(#filter21_dd_3028_5059)">
<rect x="204" y="86" width="52" height="24" rx="5" fill="#F3F4F6"/>
<path d="M225.442 97.1811H224.114C224.076 96.9633 224.007 96.7704 223.905 96.6023C223.803 96.4318 223.676 96.2874 223.525 96.169C223.373 96.0507 223.201 95.9619 223.006 95.9027C222.815 95.8411 222.607 95.8104 222.385 95.8104C221.99 95.8104 221.639 95.9098 221.334 96.1087C221.028 96.3052 220.789 96.594 220.616 96.9751C220.444 97.3539 220.357 97.8168 220.357 98.3636C220.357 98.92 220.444 99.3887 220.616 99.7699C220.792 100.149 221.031 100.435 221.334 100.629C221.639 100.821 221.988 100.917 222.381 100.917C222.599 100.917 222.803 100.888 222.992 100.832C223.184 100.772 223.356 100.686 223.507 100.572C223.661 100.459 223.79 100.319 223.894 100.153C224.001 99.9877 224.074 99.7983 224.114 99.5852L225.442 99.5923C225.393 99.938 225.285 100.262 225.119 100.565C224.956 100.868 224.742 101.136 224.477 101.368C224.211 101.598 223.901 101.777 223.546 101.908C223.191 102.036 222.797 102.099 222.364 102.099C221.724 102.099 221.154 101.951 220.652 101.656C220.15 101.36 219.755 100.932 219.466 100.374C219.177 99.8149 219.033 99.1449 219.033 98.3636C219.033 97.58 219.178 96.91 219.469 96.3537C219.761 95.795 220.157 95.3677 220.659 95.0717C221.161 94.7758 221.729 94.6278 222.364 94.6278C222.768 94.6278 223.145 94.6847 223.493 94.7983C223.841 94.9119 224.151 95.0788 224.423 95.299C224.696 95.5168 224.919 95.7843 225.094 96.1016C225.272 96.4164 225.388 96.7763 225.442 97.1811ZM226.592 102V96.5455H227.821V97.4723H227.885C227.998 97.1598 228.187 96.916 228.449 96.7408C228.712 96.5632 229.026 96.4744 229.39 96.4744C229.76 96.4744 230.071 96.5644 230.324 96.7443C230.58 96.9219 230.76 97.1645 230.864 97.4723H230.921C231.042 97.1693 231.245 96.9278 231.532 96.7479C231.821 96.5656 232.163 96.4744 232.558 96.4744C233.06 96.4744 233.47 96.633 233.787 96.9503C234.104 97.2675 234.263 97.7304 234.263 98.3388V102H232.974V98.5376C232.974 98.1991 232.884 97.9517 232.704 97.7955C232.524 97.6368 232.304 97.5575 232.043 97.5575C231.733 97.5575 231.49 97.6546 231.315 97.8487C231.142 98.0405 231.056 98.2902 231.056 98.598V102H229.795V98.4844C229.795 98.2027 229.71 97.9777 229.54 97.8097C229.372 97.6416 229.151 97.5575 228.879 97.5575C228.694 97.5575 228.526 97.6049 228.375 97.6996C228.223 97.7919 228.103 97.9233 228.013 98.0938C227.923 98.2618 227.878 98.4583 227.878 98.6832V102H226.592ZM237.591 102.096C237.162 102.096 236.779 101.986 236.44 101.766C236.102 101.545 235.834 101.226 235.638 100.807C235.441 100.388 235.343 99.8788 235.343 99.2798C235.343 98.6738 235.442 98.1624 235.641 97.7457C235.843 97.3267 236.114 97.0107 236.455 96.7976C236.795 96.5821 237.175 96.4744 237.594 96.4744C237.914 96.4744 238.177 96.5289 238.383 96.6378C238.589 96.7443 238.752 96.8733 238.873 97.0249C238.994 97.174 239.087 97.3149 239.153 97.4474H239.207V94.7273H240.496V102H239.232V101.141H239.153C239.087 101.273 238.991 101.414 238.866 101.563C238.74 101.71 238.575 101.835 238.369 101.94C238.163 102.044 237.903 102.096 237.591 102.096ZM237.95 101.041C238.222 101.041 238.454 100.968 238.646 100.821C238.837 100.672 238.983 100.465 239.082 100.2C239.182 99.9344 239.232 99.6255 239.232 99.2727C239.232 98.92 239.182 98.6134 239.082 98.353C238.985 98.0926 238.841 97.8902 238.649 97.7457C238.46 97.6013 238.227 97.5291 237.95 97.5291C237.663 97.5291 237.424 97.6037 237.232 97.7528C237.04 97.902 236.896 98.108 236.799 98.3707C236.702 98.6335 236.653 98.9342 236.653 99.2727C236.653 99.6136 236.702 99.9179 236.799 100.185C236.898 100.451 237.044 100.66 237.236 100.814C237.43 100.965 237.668 101.041 237.95 101.041Z" fill="#4B5563"/>
<rect x="204.5" y="86.5" width="51" height="23" rx="4.5" stroke="#D1D5DB"/>
</g>
<g filter="url(#filter22_dd_3028_5059)">
<rect x="3" y="86" width="53" height="24" rx="5" fill="#F3F4F6"/>
<path d="M27.9233 96.5455V97.5398H24.6989V96.5455H27.9233ZM25.505 102V96.0305C25.505 95.6636 25.5807 95.3582 25.7322 95.1143C25.8861 94.8705 26.0921 94.6882 26.3501 94.5675C26.6082 94.4467 26.8946 94.3864 27.2095 94.3864C27.4321 94.3864 27.6297 94.4041 27.8026 94.4396C27.9754 94.4751 28.1032 94.5071 28.1861 94.5355L27.9304 95.5298C27.8759 95.5133 27.8073 95.4967 27.7244 95.4801C27.6416 95.4612 27.5492 95.4517 27.4474 95.4517C27.2083 95.4517 27.0391 95.5097 26.9396 95.6257C26.8426 95.7393 26.794 95.9027 26.794 96.1158V102H25.505ZM30.2156 98.804V102H28.93V96.5455H30.1587V97.4723H30.2227C30.3481 97.1669 30.5482 96.9242 30.8228 96.7443C31.0998 96.5644 31.4419 96.4744 31.8491 96.4744C32.2255 96.4744 32.5534 96.5549 32.8327 96.7159C33.1145 96.8769 33.3323 97.1101 33.4862 97.4155C33.6424 97.7209 33.7193 98.0914 33.717 98.527V102H32.4315V98.7259C32.4315 98.3613 32.3368 98.076 32.1474 97.87C31.9603 97.6641 31.7011 97.5611 31.3697 97.5611C31.1448 97.5611 30.9447 97.6108 30.7695 97.7102C30.5967 97.8073 30.4606 97.9482 30.3612 98.1328C30.2641 98.3175 30.2156 98.5412 30.2156 98.804Z" fill="#4B5563"/>
<rect x="3.5" y="86.5" width="52" height="23" rx="4.5" stroke="#D1D5DB"/>
</g>
<g filter="url(#filter23_dd_3028_5059)">
<rect x="264" y="86" width="53" height="24" rx="5" fill="#F3F4F6"/>
<path d="M281.216 98.3636C281.216 99.1473 281.069 99.8184 280.776 100.377C280.484 100.933 280.087 101.36 279.582 101.656C279.08 101.951 278.511 102.099 277.874 102.099C277.237 102.099 276.667 101.951 276.163 101.656C275.661 101.357 275.263 100.93 274.969 100.374C274.678 99.8149 274.533 99.1449 274.533 98.3636C274.533 97.58 274.678 96.91 274.969 96.3537C275.263 95.795 275.661 95.3677 276.163 95.0717C276.667 94.7758 277.237 94.6278 277.874 94.6278C278.511 94.6278 279.08 94.7758 279.582 95.0717C280.087 95.3677 280.484 95.795 280.776 96.3537C281.069 96.91 281.216 97.58 281.216 98.3636ZM279.891 98.3636C279.891 97.812 279.805 97.3468 279.632 96.968C279.462 96.5869 279.225 96.2992 278.922 96.1051C278.619 95.9086 278.27 95.8104 277.874 95.8104C277.479 95.8104 277.13 95.9086 276.827 96.1051C276.524 96.2992 276.286 96.5869 276.113 96.968C275.942 97.3468 275.857 97.812 275.857 98.3636C275.857 98.9152 275.942 99.3816 276.113 99.7628C276.286 100.142 276.524 100.429 276.827 100.626C277.13 100.82 277.479 100.917 277.874 100.917C278.27 100.917 278.619 100.82 278.922 100.626C279.225 100.429 279.462 100.142 279.632 99.7628C279.805 99.3816 279.891 98.9152 279.891 98.3636ZM282.405 104.045V96.5455H283.669V97.4474H283.743C283.81 97.3149 283.903 97.174 284.024 97.0249C284.145 96.8733 284.308 96.7443 284.514 96.6378C284.72 96.5289 284.983 96.4744 285.302 96.4744C285.724 96.4744 286.104 96.5821 286.442 96.7976C286.783 97.0107 287.053 97.3267 287.252 97.7457C287.453 98.1624 287.554 98.6738 287.554 99.2798C287.554 99.8788 287.456 100.388 287.259 100.807C287.063 101.226 286.795 101.545 286.456 101.766C286.118 101.986 285.734 102.096 285.306 102.096C284.993 102.096 284.734 102.044 284.528 101.94C284.322 101.835 284.157 101.71 284.031 101.563C283.908 101.414 283.812 101.273 283.743 101.141H283.69V104.045H282.405ZM283.665 99.2727C283.665 99.6255 283.715 99.9344 283.814 100.2C283.916 100.465 284.062 100.672 284.251 100.821C284.443 100.968 284.675 101.041 284.947 101.041C285.231 101.041 285.469 100.965 285.661 100.814C285.853 100.66 285.997 100.451 286.094 100.185C286.194 99.9179 286.243 99.6136 286.243 99.2727C286.243 98.9342 286.195 98.6335 286.098 98.3707C286.001 98.108 285.856 97.902 285.665 97.7528C285.473 97.6037 285.234 97.5291 284.947 97.5291C284.673 97.5291 284.439 97.6013 284.248 97.7457C284.056 97.8902 283.91 98.0926 283.811 98.353C283.714 98.6134 283.665 98.92 283.665 99.2727ZM291.378 96.5455V97.5398H288.243V96.5455H291.378ZM289.017 95.2386H290.302V100.359C290.302 100.532 290.328 100.665 290.381 100.757C290.435 100.847 290.506 100.909 290.594 100.942C290.681 100.975 290.778 100.991 290.885 100.991C290.965 100.991 291.039 100.986 291.105 100.974C291.174 100.962 291.226 100.951 291.261 100.942L291.478 101.947C291.409 101.97 291.311 101.996 291.183 102.025C291.058 102.053 290.904 102.07 290.721 102.075C290.399 102.084 290.109 102.036 289.851 101.929C289.593 101.82 289.389 101.652 289.237 101.425C289.088 101.197 289.015 100.913 289.017 100.572V95.2386ZM292.453 102V96.5455H293.739V102H292.453ZM293.1 95.7713C292.896 95.7713 292.721 95.7038 292.574 95.5689C292.427 95.4316 292.354 95.267 292.354 95.0753C292.354 94.8812 292.427 94.7166 292.574 94.5817C292.721 94.4444 292.896 94.3757 293.1 94.3757C293.306 94.3757 293.481 94.4444 293.625 94.5817C293.772 94.7166 293.846 94.8812 293.846 95.0753C293.846 95.267 293.772 95.4316 293.625 95.5689C293.481 95.7038 293.306 95.7713 293.1 95.7713ZM297.44 102.107C296.907 102.107 296.446 101.989 296.055 101.755C295.665 101.521 295.362 101.193 295.146 100.771C294.933 100.35 294.827 99.8575 294.827 99.294C294.827 98.7306 294.933 98.237 295.146 97.8132C295.362 97.3894 295.665 97.0604 296.055 96.826C296.446 96.5916 296.907 96.4744 297.44 96.4744C297.973 96.4744 298.434 96.5916 298.825 96.826C299.216 97.0604 299.518 97.3894 299.731 97.8132C299.946 98.237 300.054 98.7306 300.054 99.294C300.054 99.8575 299.946 100.35 299.731 100.771C299.518 101.193 299.216 101.521 298.825 101.755C298.434 101.989 297.973 102.107 297.44 102.107ZM297.447 101.077C297.736 101.077 297.978 100.997 298.172 100.839C298.366 100.678 298.51 100.462 298.605 100.192C298.702 99.9226 298.751 99.6219 298.751 99.2905C298.751 98.9567 298.702 98.6548 298.605 98.3849C298.51 98.1127 298.366 97.8961 298.172 97.7351C297.978 97.5741 297.736 97.4936 297.447 97.4936C297.151 97.4936 296.905 97.5741 296.709 97.7351C296.515 97.8961 296.369 98.1127 296.272 98.3849C296.177 98.6548 296.13 98.9567 296.13 99.2905C296.13 99.6219 296.177 99.9226 296.272 100.192C296.369 100.462 296.515 100.678 296.709 100.839C296.905 100.997 297.151 101.077 297.447 101.077ZM302.43 98.804V102H301.145V96.5455H302.374V97.4723H302.438C302.563 97.1669 302.763 96.9242 303.038 96.7443C303.315 96.5644 303.657 96.4744 304.064 96.4744C304.44 96.4744 304.768 96.5549 305.048 96.7159C305.329 96.8769 305.547 97.1101 305.701 97.4155C305.857 97.7209 305.934 98.0914 305.932 98.527V102H304.646V98.7259C304.646 98.3613 304.552 98.076 304.362 97.87C304.175 97.6641 303.916 97.5611 303.585 97.5611C303.36 97.5611 303.16 97.6108 302.984 97.7102C302.812 97.8073 302.675 97.9482 302.576 98.1328C302.479 98.3175 302.43 98.5412 302.43 98.804Z" fill="#4B5563"/>
<rect x="264.5" y="86.5" width="52" height="23" rx="4.5" stroke="#D1D5DB"/>
</g>
<defs>
<filter id="filter0_dd_3028_5059" x="59" y="84" width="140" height="30" filterUnits="userSpaceOnUse" color-interpolation-filters="sRGB">
<feFlood flood-opacity="0" result="BackgroundImageFix"/>
<feColorMatrix in="SourceAlpha" type="matrix" values="0 0 0 0 0 0 0 0 0 0 0 0 0 0 0 0 0 0 127 0" result="hardAlpha"/>
<feOffset dy="1"/>
<feGaussianBlur stdDeviation="1.5"/>
<feColorMatrix type="matrix" values="0 0 0 0 0 0 0 0 0 0 0 0 0 0 0 0 0 0 0.1 0"/>
<feBlend mode="normal" in2="BackgroundImageFix" result="effect1_dropShadow_3028_5059"/>
<feColorMatrix in="SourceAlpha" type="matrix" values="0 0 0 0 0 0 0 0 0 0 0 0 0 0 0 0 0 0 127 0" result="hardAlpha"/>
<feOffset dy="1"/>
<feGaussianBlur stdDeviation="1"/>
<feColorMatrix type="matrix" values="0 0 0 0 0 0 0 0 0 0 0 0 0 0 0 0 0 0 0.06 0"/>
<feBlend mode="normal" in2="effect1_dropShadow_3028_5059" result="effect2_dropShadow_3028_5059"/>
<feBlend mode="normal" in="SourceGraphic" in2="effect2_dropShadow_3028_5059" result="shape"/>
</filter>
<filter id="filter1_dd_3028_5059" x="254" y="28" width="66" height="54" filterUnits="userSpaceOnUse" color-interpolation-filters="sRGB">
<feFlood flood-opacity="0" result="BackgroundImageFix"/>
<feColorMatrix in="SourceAlpha" type="matrix" values="0 0 0 0 0 0 0 0 0 0 0 0 0 0 0 0 0 0 127 0" result="hardAlpha"/>
<feOffset dy="1"/>
<feGaussianBlur stdDeviation="1.5"/>
<feColorMatrix type="matrix" values="0 0 0 0 0 0 0 0 0 0 0 0 0 0 0 0 0 0 0.1 0"/>
<feBlend mode="normal" in2="BackgroundImageFix" result="effect1_dropShadow_3028_5059"/>
<feColorMatrix in="SourceAlpha" type="matrix" values="0 0 0 0 0 0 0 0 0 0 0 0 0 0 0 0 0 0 127 0" result="hardAlpha"/>
<feOffset dy="1"/>
<feGaussianBlur stdDeviation="1"/>
<feColorMatrix type="matrix" values="0 0 0 0 0 0 0 0 0 0 0 0 0 0 0 0 0 0 0.06 0"/>
<feBlend mode="normal" in2="effect1_dropShadow_3028_5059" result="effect2_dropShadow_3028_5059"/>
<feBlend mode="normal" in="SourceGraphic" in2="effect2_dropShadow_3028_5059" result="shape"/>
</filter>
<filter id="filter2_dd_3028_5059" x="0" y="0" width="57" height="26" filterUnits="userSpaceOnUse" color-interpolation-filters="sRGB">
<feFlood flood-opacity="0" result="BackgroundImageFix"/>
<feColorMatrix in="SourceAlpha" type="matrix" values="0 0 0 0 0 0 0 0 0 0 0 0 0 0 0 0 0 0 127 0" result="hardAlpha"/>
<feOffset dy="1"/>
<feGaussianBlur stdDeviation="1.5"/>
<feColorMatrix type="matrix" values="0 0 0 0 0 0 0 0 0 0 0 0 0 0 0 0 0 0 0.1 0"/>
<feBlend mode="normal" in2="BackgroundImageFix" result="effect1_dropShadow_3028_5059"/>
<feColorMatrix in="SourceAlpha" type="matrix" values="0 0 0 0 0 0 0 0 0 0 0 0 0 0 0 0 0 0 127 0" result="hardAlpha"/>
<feOffset dy="1"/>
<feGaussianBlur stdDeviation="1"/>
<feColorMatrix type="matrix" values="0 0 0 0 0 0 0 0 0 0 0 0 0 0 0 0 0 0 0.06 0"/>
<feBlend mode="normal" in2="effect1_dropShadow_3028_5059" result="effect2_dropShadow_3028_5059"/>
<feBlend mode="normal" in="SourceGraphic" in2="effect2_dropShadow_3028_5059" result="shape"/>
</filter>
<filter id="filter3_dd_3028_5059" x="0" y="28" width="57" height="26" filterUnits="userSpaceOnUse" color-interpolation-filters="sRGB">
<feFlood flood-opacity="0" result="BackgroundImageFix"/>
<feColorMatrix in="SourceAlpha" type="matrix" values="0 0 0 0 0 0 0 0 0 0 0 0 0 0 0 0 0 0 127 0" result="hardAlpha"/>
<feOffset dy="1"/>
<feGaussianBlur stdDeviation="1.5"/>
<feColorMatrix type="matrix" values="0 0 0 0 0 0 0 0 0 0 0 0 0 0 0 0 0 0 0.1 0"/>
<feBlend mode="normal" in2="BackgroundImageFix" result="effect1_dropShadow_3028_5059"/>
<feColorMatrix in="SourceAlpha" type="matrix" values="0 0 0 0 0 0 0 0 0 0 0 0 0 0 0 0 0 0 127 0" result="hardAlpha"/>
<feOffset dy="1"/>
<feGaussianBlur stdDeviation="1"/>
<feColorMatrix type="matrix" values="0 0 0 0 0 0 0 0 0 0 0 0 0 0 0 0 0 0 0.06 0"/>
<feBlend mode="normal" in2="effect1_dropShadow_3028_5059" result="effect2_dropShadow_3028_5059"/>
<feBlend mode="normal" in="SourceGraphic" in2="effect2_dropShadow_3028_5059" result="shape"/>
</filter>
<filter id="filter4_dd_3028_5059" x="0" y="56" width="57" height="26" filterUnits="userSpaceOnUse" color-interpolation-filters="sRGB">
<feFlood flood-opacity="0" result="BackgroundImageFix"/>
<feColorMatrix in="SourceAlpha" type="matrix" values="0 0 0 0 0 0 0 0 0 0 0 0 0 0 0 0 0 0 127 0" result="hardAlpha"/>
<feOffset dy="1"/>
<feGaussianBlur stdDeviation="1.5"/>
<feColorMatrix type="matrix" values="0 0 0 0 0 0 0 0 0 0 0 0 0 0 0 0 0 0 0.1 0"/>
<feBlend mode="normal" in2="BackgroundImageFix" result="effect1_dropShadow_3028_5059"/>
<feColorMatrix in="SourceAlpha" type="matrix" values="0 0 0 0 0 0 0 0 0 0 0 0 0 0 0 0 0 0 127 0" result="hardAlpha"/>
<feOffset dy="1"/>
<feGaussianBlur stdDeviation="1"/>
<feColorMatrix type="matrix" values="0 0 0 0 0 0 0 0 0 0 0 0 0 0 0 0 0 0 0.06 0"/>
<feBlend mode="normal" in2="effect1_dropShadow_3028_5059" result="effect2_dropShadow_3028_5059"/>
<feBlend mode="normal" in="SourceGraphic" in2="effect2_dropShadow_3028_5059" result="shape"/>
</filter>
<filter id="filter5_dd_3028_5059" x="59" y="28" width="37" height="26" filterUnits="userSpaceOnUse" color-interpolation-filters="sRGB">
<feFlood flood-opacity="0" result="BackgroundImageFix"/>
<feColorMatrix in="SourceAlpha" type="matrix" values="0 0 0 0 0 0 0 0 0 0 0 0 0 0 0 0 0 0 127 0" result="hardAlpha"/>
<feOffset dy="1"/>
<feGaussianBlur stdDeviation="1.5"/>
<feColorMatrix type="matrix" values="0 0 0 0 0 0 0 0 0 0 0 0 0 0 0 0 0 0 0.1 0"/>
<feBlend mode="normal" in2="BackgroundImageFix" result="effect1_dropShadow_3028_5059"/>
<feColorMatrix in="SourceAlpha" type="matrix" values="0 0 0 0 0 0 0 0 0 0 0 0 0 0 0 0 0 0 127 0" result="hardAlpha"/>
<feOffset dy="1"/>
<feGaussianBlur stdDeviation="1"/>
<feColorMatrix type="matrix" values="0 0 0 0 0 0 0 0 0 0 0 0 0 0 0 0 0 0 0.06 0"/>
<feBlend mode="normal" in2="effect1_dropShadow_3028_5059" result="effect2_dropShadow_3028_5059"/>
<feBlend mode="normal" in="SourceGraphic" in2="effect2_dropShadow_3028_5059" result="shape"/>
</filter>
<filter id="filter6_dd_3028_5059" x="98" y="28" width="37" height="26" filterUnits="userSpaceOnUse" color-interpolation-filters="sRGB">
<feFlood flood-opacity="0" result="BackgroundImageFix"/>
<feColorMatrix in="SourceAlpha" type="matrix" values="0 0 0 0 0 0 0 0 0 0 0 0 0 0 0 0 0 0 127 0" result="hardAlpha"/>
<feOffset dy="1"/>
<feGaussianBlur stdDeviation="1.5"/>
<feColorMatrix type="matrix" values="0 0 0 0 0 0 0 0 0 0 0 0 0 0 0 0 0 0 0.1 0"/>
<feBlend mode="normal" in2="BackgroundImageFix" result="effect1_dropShadow_3028_5059"/>
<feColorMatrix in="SourceAlpha" type="matrix" values="0 0 0 0 0 0 0 0 0 0 0 0 0 0 0 0 0 0 127 0" result="hardAlpha"/>
<feOffset dy="1"/>
<feGaussianBlur stdDeviation="1"/>
<feColorMatrix type="matrix" values="0 0 0 0 0 0 0 0 0 0 0 0 0 0 0 0 0 0 0.06 0"/>
<feBlend mode="normal" in2="effect1_dropShadow_3028_5059" result="effect2_dropShadow_3028_5059"/>
<feBlend mode="normal" in="SourceGraphic" in2="effect2_dropShadow_3028_5059" result="shape"/>
</filter>
<filter id="filter7_dd_3028_5059" x="137" y="28" width="37" height="26" filterUnits="userSpaceOnUse" color-interpolation-filters="sRGB">
<feFlood flood-opacity="0" result="BackgroundImageFix"/>
<feColorMatrix in="SourceAlpha" type="matrix" values="0 0 0 0 0 0 0 0 0 0 0 0 0 0 0 0 0 0 127 0" result="hardAlpha"/>
<feOffset dy="1"/>
<feGaussianBlur stdDeviation="1.5"/>
<feColorMatrix type="matrix" values="0 0 0 0 0 0 0 0 0 0 0 0 0 0 0 0 0 0 0.1 0"/>
<feBlend mode="normal" in2="BackgroundImageFix" result="effect1_dropShadow_3028_5059"/>
<feColorMatrix in="SourceAlpha" type="matrix" values="0 0 0 0 0 0 0 0 0 0 0 0 0 0 0 0 0 0 127 0" result="hardAlpha"/>
<feOffset dy="1"/>
<feGaussianBlur stdDeviation="1"/>
<feColorMatrix type="matrix" values="0 0 0 0 0 0 0 0 0 0 0 0 0 0 0 0 0 0 0.06 0"/>
<feBlend mode="normal" in2="effect1_dropShadow_3028_5059" result="effect2_dropShadow_3028_5059"/>
<feBlend mode="normal" in="SourceGraphic" in2="effect2_dropShadow_3028_5059" result="shape"/>
</filter>
<filter id="filter8_dd_3028_5059" x="176" y="28" width="37" height="26" filterUnits="userSpaceOnUse" color-interpolation-filters="sRGB">
<feFlood flood-opacity="0" result="BackgroundImageFix"/>
<feColorMatrix in="SourceAlpha" type="matrix" values="0 0 0 0 0 0 0 0 0 0 0 0 0 0 0 0 0 0 127 0" result="hardAlpha"/>
<feOffset dy="1"/>
<feGaussianBlur stdDeviation="1.5"/>
<feColorMatrix type="matrix" values="0 0 0 0 0 0 0 0 0 0 0 0 0 0 0 0 0 0 0.1 0"/>
<feBlend mode="normal" in2="BackgroundImageFix" result="effect1_dropShadow_3028_5059"/>
<feColorMatrix in="SourceAlpha" type="matrix" values="0 0 0 0 0 0 0 0 0 0 0 0 0 0 0 0 0 0 127 0" result="hardAlpha"/>
<feOffset dy="1"/>
<feGaussianBlur stdDeviation="1"/>
<feColorMatrix type="matrix" values="0 0 0 0 0 0 0 0 0 0 0 0 0 0 0 0 0 0 0.06 0"/>
<feBlend mode="normal" in2="effect1_dropShadow_3028_5059" result="effect2_dropShadow_3028_5059"/>
<feBlend mode="normal" in="SourceGraphic" in2="effect2_dropShadow_3028_5059" result="shape"/>
</filter>
<filter id="filter9_dd_3028_5059" x="215" y="28" width="37" height="26" filterUnits="userSpaceOnUse" color-interpolation-filters="sRGB">
<feFlood flood-opacity="0" result="BackgroundImageFix"/>
<feColorMatrix in="SourceAlpha" type="matrix" values="0 0 0 0 0 0 0 0 0 0 0 0 0 0 0 0 0 0 127 0" result="hardAlpha"/>
<feOffset dy="1"/>
<feGaussianBlur stdDeviation="1.5"/>
<feColorMatrix type="matrix" values="0 0 0 0 0 0 0 0 0 0 0 0 0 0 0 0 0 0 0.1 0"/>
<feBlend mode="normal" in2="BackgroundImageFix" result="effect1_dropShadow_3028_5059"/>
<feColorMatrix in="SourceAlpha" type="matrix" values="0 0 0 0 0 0 0 0 0 0 0 0 0 0 0 0 0 0 127 0" result="hardAlpha"/>
<feOffset dy="1"/>
<feGaussianBlur stdDeviation="1"/>
<feColorMatrix type="matrix" values="0 0 0 0 0 0 0 0 0 0 0 0 0 0 0 0 0 0 0.06 0"/>
<feBlend mode="normal" in2="effect1_dropShadow_3028_5059" result="effect2_dropShadow_3028_5059"/>
<feBlend mode="normal" in="SourceGraphic" in2="effect2_dropShadow_3028_5059" result="shape"/>
</filter>
<filter id="filter10_dd_3028_5059" x="59" y="56" width="37" height="26" filterUnits="userSpaceOnUse" color-interpolation-filters="sRGB">
<feFlood flood-opacity="0" result="BackgroundImageFix"/>
<feColorMatrix in="SourceAlpha" type="matrix" values="0 0 0 0 0 0 0 0 0 0 0 0 0 0 0 0 0 0 127 0" result="hardAlpha"/>
<feOffset dy="1"/>
<feGaussianBlur stdDeviation="1.5"/>
<feColorMatrix type="matrix" values="0 0 0 0 0 0 0 0 0 0 0 0 0 0 0 0 0 0 0.1 0"/>
<feBlend mode="normal" in2="BackgroundImageFix" result="effect1_dropShadow_3028_5059"/>
<feColorMatrix in="SourceAlpha" type="matrix" values="0 0 0 0 0 0 0 0 0 0 0 0 0 0 0 0 0 0 127 0" result="hardAlpha"/>
<feOffset dy="1"/>
<feGaussianBlur stdDeviation="1"/>
<feColorMatrix type="matrix" values="0 0 0 0 0 0 0 0 0 0 0 0 0 0 0 0 0 0 0.06 0"/>
<feBlend mode="normal" in2="effect1_dropShadow_3028_5059" result="effect2_dropShadow_3028_5059"/>
<feBlend mode="normal" in="SourceGraphic" in2="effect2_dropShadow_3028_5059" result="shape"/>
</filter>
<filter id="filter11_dd_3028_5059" x="98" y="56" width="37" height="26" filterUnits="userSpaceOnUse" color-interpolation-filters="sRGB">
<feFlood flood-opacity="0" result="BackgroundImageFix"/>
<feColorMatrix in="SourceAlpha" type="matrix" values="0 0 0 0 0 0 0 0 0 0 0 0 0 0 0 0 0 0 127 0" result="hardAlpha"/>
<feOffset dy="1"/>
<feGaussianBlur stdDeviation="1.5"/>
<feColorMatrix type="matrix" values="0 0 0 0 0 0 0 0 0 0 0 0 0 0 0 0 0 0 0.1 0"/>
<feBlend mode="normal" in2="BackgroundImageFix" result="effect1_dropShadow_3028_5059"/>
<feColorMatrix in="SourceAlpha" type="matrix" values="0 0 0 0 0 0 0 0 0 0 0 0 0 0 0 0 0 0 127 0" result="hardAlpha"/>
<feOffset dy="1"/>
<feGaussianBlur stdDeviation="1"/>
<feColorMatrix type="matrix" values="0 0 0 0 0 0 0 0 0 0 0 0 0 0 0 0 0 0 0.06 0"/>
<feBlend mode="normal" in2="effect1_dropShadow_3028_5059" result="effect2_dropShadow_3028_5059"/>
<feBlend mode="normal" in="SourceGraphic" in2="effect2_dropShadow_3028_5059" result="shape"/>
</filter>
<filter id="filter12_dd_3028_5059" x="137" y="56" width="37" height="26" filterUnits="userSpaceOnUse" color-interpolation-filters="sRGB">
<feFlood flood-opacity="0" result="BackgroundImageFix"/>
<feColorMatrix in="SourceAlpha" type="matrix" values="0 0 0 0 0 0 0 0 0 0 0 0 0 0 0 0 0 0 127 0" result="hardAlpha"/>
<feOffset dy="1"/>
<feGaussianBlur stdDeviation="1.5"/>
<feColorMatrix type="matrix" values="0 0 0 0 0 0 0 0 0 0 0 0 0 0 0 0 0 0 0.1 0"/>
<feBlend mode="normal" in2="BackgroundImageFix" result="effect1_dropShadow_3028_5059"/>
<feColorMatrix in="SourceAlpha" type="matrix" values="0 0 0 0 0 0 0 0 0 0 0 0 0 0 0 0 0 0 127 0" result="hardAlpha"/>
<feOffset dy="1"/>
<feGaussianBlur stdDeviation="1"/>
<feColorMatrix type="matrix" values="0 0 0 0 0 0 0 0 0 0 0 0 0 0 0 0 0 0 0.06 0"/>
<feBlend mode="normal" in2="effect1_dropShadow_3028_5059" result="effect2_dropShadow_3028_5059"/>
<feBlend mode="normal" in="SourceGraphic" in2="effect2_dropShadow_3028_5059" result="shape"/>
</filter>
<filter id="filter13_dd_3028_5059" x="176" y="56" width="37" height="26" filterUnits="userSpaceOnUse" color-interpolation-filters="sRGB">
<feFlood flood-opacity="0" result="BackgroundImageFix"/>
<feColorMatrix in="SourceAlpha" type="matrix" values="0 0 0 0 0 0 0 0 0 0 0 0 0 0 0 0 0 0 127 0" result="hardAlpha"/>
<feOffset dy="1"/>
<feGaussianBlur stdDeviation="1.5"/>
<feColorMatrix type="matrix" values="0 0 0 0 0 0 0 0 0 0 0 0 0 0 0 0 0 0 0.1 0"/>
<feBlend mode="normal" in2="BackgroundImageFix" result="effect1_dropShadow_3028_5059"/>
<feColorMatrix in="SourceAlpha" type="matrix" values="0 0 0 0 0 0 0 0 0 0 0 0 0 0 0 0 0 0 127 0" result="hardAlpha"/>
<feOffset dy="1"/>
<feGaussianBlur stdDeviation="1"/>
<feColorMatrix type="matrix" values="0 0 0 0 0 0 0 0 0 0 0 0 0 0 0 0 0 0 0.06 0"/>
<feBlend mode="normal" in2="effect1_dropShadow_3028_5059" result="effect2_dropShadow_3028_5059"/>
<feBlend mode="normal" in="SourceGraphic" in2="effect2_dropShadow_3028_5059" result="shape"/>
</filter>
<filter id="filter14_dd_3028_5059" x="215" y="56" width="37" height="26" filterUnits="userSpaceOnUse" color-interpolation-filters="sRGB">
<feFlood flood-opacity="0" result="BackgroundImageFix"/>
<feColorMatrix in="SourceAlpha" type="matrix" values="0 0 0 0 0 0 0 0 0 0 0 0 0 0 0 0 0 0 127 0" result="hardAlpha"/>
<feOffset dy="1"/>
<feGaussianBlur stdDeviation="1.5"/>
<feColorMatrix type="matrix" values="0 0 0 0 0 0 0 0 0 0 0 0 0 0 0 0 0 0 0.1 0"/>
<feBlend mode="normal" in2="BackgroundImageFix" result="effect1_dropShadow_3028_5059"/>
<feColorMatrix in="SourceAlpha" type="matrix" values="0 0 0 0 0 0 0 0 0 0 0 0 0 0 0 0 0 0 127 0" result="hardAlpha"/>
<feOffset dy="1"/>
<feGaussianBlur stdDeviation="1"/>
<feColorMatrix type="matrix" values="0 0 0 0 0 0 0 0 0 0 0 0 0 0 0 0 0 0 0.06 0"/>
<feBlend mode="normal" in2="effect1_dropShadow_3028_5059" result="effect2_dropShadow_3028_5059"/>
<feBlend mode="normal" in="SourceGraphic" in2="effect2_dropShadow_3028_5059" result="shape"/>
</filter>
<filter id="filter15_dd_3028_5059" x="59" y="0" width="40" height="26" filterUnits="userSpaceOnUse" color-interpolation-filters="sRGB">
<feFlood flood-opacity="0" result="BackgroundImageFix"/>
<feColorMatrix in="SourceAlpha" type="matrix" values="0 0 0 0 0 0 0 0 0 0 0 0 0 0 0 0 0 0 127 0" result="hardAlpha"/>
<feOffset dy="1"/>
<feGaussianBlur stdDeviation="1.5"/>
<feColorMatrix type="matrix" values="0 0 0 0 0 0 0 0 0 0 0 0 0 0 0 0 0 0 0.1 0"/>
<feBlend mode="normal" in2="BackgroundImageFix" result="effect1_dropShadow_3028_5059"/>
<feColorMatrix in="SourceAlpha" type="matrix" values="0 0 0 0 0 0 0 0 0 0 0 0 0 0 0 0 0 0 127 0" result="hardAlpha"/>
<feOffset dy="1"/>
<feGaussianBlur stdDeviation="1"/>
<feColorMatrix type="matrix" values="0 0 0 0 0 0 0 0 0 0 0 0 0 0 0 0 0 0 0.06 0"/>
<feBlend mode="normal" in2="effect1_dropShadow_3028_5059" result="effect2_dropShadow_3028_5059"/>
<feBlend mode="normal" in="SourceGraphic" in2="effect2_dropShadow_3028_5059" result="shape"/>
</filter>
<filter id="filter16_dd_3028_5059" x="101" y="0" width="39" height="26" filterUnits="userSpaceOnUse" color-interpolation-filters="sRGB">
<feFlood flood-opacity="0" result="BackgroundImageFix"/>
<feColorMatrix in="SourceAlpha" type="matrix" values="0 0 0 0 0 0 0 0 0 0 0 0 0 0 0 0 0 0 127 0" result="hardAlpha"/>
<feOffset dy="1"/>
<feGaussianBlur stdDeviation="1.5"/>
<feColorMatrix type="matrix" values="0 0 0 0 0 0 0 0 0 0 0 0 0 0 0 0 0 0 0.1 0"/>
<feBlend mode="normal" in2="BackgroundImageFix" result="effect1_dropShadow_3028_5059"/>
<feColorMatrix in="SourceAlpha" type="matrix" values="0 0 0 0 0 0 0 0 0 0 0 0 0 0 0 0 0 0 127 0" result="hardAlpha"/>
<feOffset dy="1"/>
<feGaussianBlur stdDeviation="1"/>
<feColorMatrix type="matrix" values="0 0 0 0 0 0 0 0 0 0 0 0 0 0 0 0 0 0 0.06 0"/>
<feBlend mode="normal" in2="effect1_dropShadow_3028_5059" result="effect2_dropShadow_3028_5059"/>
<feBlend mode="normal" in="SourceGraphic" in2="effect2_dropShadow_3028_5059" result="shape"/>
</filter>
<filter id="filter17_dd_3028_5059" x="142" y="0" width="43" height="26" filterUnits="userSpaceOnUse" color-interpolation-filters="sRGB">
<feFlood flood-opacity="0" result="BackgroundImageFix"/>
<feColorMatrix in="SourceAlpha" type="matrix" values="0 0 0 0 0 0 0 0 0 0 0 0 0 0 0 0 0 0 127 0" result="hardAlpha"/>
<feOffset dy="1"/>
<feGaussianBlur stdDeviation="1.5"/>
<feColorMatrix type="matrix" values="0 0 0 0 0 0 0 0 0 0 0 0 0 0 0 0 0 0 0.1 0"/>
<feBlend mode="normal" in2="BackgroundImageFix" result="effect1_dropShadow_3028_5059"/>
<feColorMatrix in="SourceAlpha" type="matrix" values="0 0 0 0 0 0 0 0 0 0 0 0 0 0 0 0 0 0 127 0" result="hardAlpha"/>
<feOffset dy="1"/>
<feGaussianBlur stdDeviation="1"/>
<feColorMatrix type="matrix" values="0 0 0 0 0 0 0 0 0 0 0 0 0 0 0 0 0 0 0.06 0"/>
<feBlend mode="normal" in2="effect1_dropShadow_3028_5059" result="effect2_dropShadow_3028_5059"/>
<feBlend mode="normal" in="SourceGraphic" in2="effect2_dropShadow_3028_5059" result="shape"/>
</filter>
<filter id="filter18_dd_3028_5059" x="187" y="0" width="43" height="26" filterUnits="userSpaceOnUse" color-interpolation-filters="sRGB">
<feFlood flood-opacity="0" result="BackgroundImageFix"/>
<feColorMatrix in="SourceAlpha" type="matrix" values="0 0 0 0 0 0 0 0 0 0 0 0 0 0 0 0 0 0 127 0" result="hardAlpha"/>
<feOffset dy="1"/>
<feGaussianBlur stdDeviation="1.5"/>
<feColorMatrix type="matrix" values="0 0 0 0 0 0 0 0 0 0 0 0 0 0 0 0 0 0 0.1 0"/>
<feBlend mode="normal" in2="BackgroundImageFix" result="effect1_dropShadow_3028_5059"/>
<feColorMatrix in="SourceAlpha" type="matrix" values="0 0 0 0 0 0 0 0 0 0 0 0 0 0 0 0 0 0 127 0" result="hardAlpha"/>
<feOffset dy="1"/>
<feGaussianBlur stdDeviation="1"/>
<feColorMatrix type="matrix" values="0 0 0 0 0 0 0 0 0 0 0 0 0 0 0 0 0 0 0.06 0"/>
<feBlend mode="normal" in2="effect1_dropShadow_3028_5059" result="effect2_dropShadow_3028_5059"/>
<feBlend mode="normal" in="SourceGraphic" in2="effect2_dropShadow_3028_5059" result="shape"/>
</filter>
<filter id="filter19_dd_3028_5059" x="232" y="0" width="43" height="26" filterUnits="userSpaceOnUse" color-interpolation-filters="sRGB">
<feFlood flood-opacity="0" result="BackgroundImageFix"/>
<feColorMatrix in="SourceAlpha" type="matrix" values="0 0 0 0 0 0 0 0 0 0 0 0 0 0 0 0 0 0 127 0" result="hardAlpha"/>
<feOffset dy="1"/>
<feGaussianBlur stdDeviation="1.5"/>
<feColorMatrix type="matrix" values="0 0 0 0 0 0 0 0 0 0 0 0 0 0 0 0 0 0 0.1 0"/>
<feBlend mode="normal" in2="BackgroundImageFix" result="effect1_dropShadow_3028_5059"/>
<feColorMatrix in="SourceAlpha" type="matrix" values="0 0 0 0 0 0 0 0 0 0 0 0 0 0 0 0 0 0 127 0" result="hardAlpha"/>
<feOffset dy="1"/>
<feGaussianBlur stdDeviation="1"/>
<feColorMatrix type="matrix" values="0 0 0 0 0 0 0 0 0 0 0 0 0 0 0 0 0 0 0.06 0"/>
<feBlend mode="normal" in2="effect1_dropShadow_3028_5059" result="effect2_dropShadow_3028_5059"/>
<feBlend mode="normal" in="SourceGraphic" in2="effect2_dropShadow_3028_5059" result="shape"/>
</filter>
<filter id="filter20_dd_3028_5059" x="277" y="0" width="43" height="26" filterUnits="userSpaceOnUse" color-interpolation-filters="sRGB">
<feFlood flood-opacity="0" result="BackgroundImageFix"/>
<feColorMatrix in="SourceAlpha" type="matrix" values="0 0 0 0 0 0 0 0 0 0 0 0 0 0 0 0 0 0 127 0" result="hardAlpha"/>
<feOffset dy="1"/>
<feGaussianBlur stdDeviation="1.5"/>
<feColorMatrix type="matrix" values="0 0 0 0 0 0 0 0 0 0 0 0 0 0 0 0 0 0 0.1 0"/>
<feBlend mode="normal" in2="BackgroundImageFix" result="effect1_dropShadow_3028_5059"/>
<feColorMatrix in="SourceAlpha" type="matrix" values="0 0 0 0 0 0 0 0 0 0 0 0 0 0 0 0 0 0 127 0" result="hardAlpha"/>
<feOffset dy="1"/>
<feGaussianBlur stdDeviation="1"/>
<feColorMatrix type="matrix" values="0 0 0 0 0 0 0 0 0 0 0 0 0 0 0 0 0 0 0.06 0"/>
<feBlend mode="normal" in2="effect1_dropShadow_3028_5059" result="effect2_dropShadow_3028_5059"/>
<feBlend mode="normal" in="SourceGraphic" in2="effect2_dropShadow_3028_5059" result="shape"/>
</filter>
<filter id="filter21_dd_3028_5059" x="201" y="84" width="58" height="30" filterUnits="userSpaceOnUse" color-interpolation-filters="sRGB">
<feFlood flood-opacity="0" result="BackgroundImageFix"/>
<feColorMatrix in="SourceAlpha" type="matrix" values="0 0 0 0 0 0 0 0 0 0 0 0 0 0 0 0 0 0 127 0" result="hardAlpha"/>
<feOffset dy="1"/>
<feGaussianBlur stdDeviation="1.5"/>
<feColorMatrix type="matrix" values="0 0 0 0 0 0 0 0 0 0 0 0 0 0 0 0 0 0 0.1 0"/>
<feBlend mode="normal" in2="BackgroundImageFix" result="effect1_dropShadow_3028_5059"/>
<feColorMatrix in="SourceAlpha" type="matrix" values="0 0 0 0 0 0 0 0 0 0 0 0 0 0 0 0 0 0 127 0" result="hardAlpha"/>
<feOffset dy="1"/>
<feGaussianBlur stdDeviation="1"/>
<feColorMatrix type="matrix" values="0 0 0 0 0 0 0 0 0 0 0 0 0 0 0 0 0 0 0.06 0"/>
<feBlend mode="normal" in2="effect1_dropShadow_3028_5059" result="effect2_dropShadow_3028_5059"/>
<feBlend mode="normal" in="SourceGraphic" in2="effect2_dropShadow_3028_5059" result="shape"/>
</filter>
<filter id="filter22_dd_3028_5059" x="0" y="84" width="59" height="30" filterUnits="userSpaceOnUse" color-interpolation-filters="sRGB">
<feFlood flood-opacity="0" result="BackgroundImageFix"/>
<feColorMatrix in="SourceAlpha" type="matrix" values="0 0 0 0 0 0 0 0 0 0 0 0 0 0 0 0 0 0 127 0" result="hardAlpha"/>
<feOffset dy="1"/>
<feGaussianBlur stdDeviation="1.5"/>
<feColorMatrix type="matrix" values="0 0 0 0 0 0 0 0 0 0 0 0 0 0 0 0 0 0 0.1 0"/>
<feBlend mode="normal" in2="BackgroundImageFix" result="effect1_dropShadow_3028_5059"/>
<feColorMatrix in="SourceAlpha" type="matrix" values="0 0 0 0 0 0 0 0 0 0 0 0 0 0 0 0 0 0 127 0" result="hardAlpha"/>
<feOffset dy="1"/>
<feGaussianBlur stdDeviation="1"/>
<feColorMatrix type="matrix" values="0 0 0 0 0 0 0 0 0 0 0 0 0 0 0 0 0 0 0.06 0"/>
<feBlend mode="normal" in2="effect1_dropShadow_3028_5059" result="effect2_dropShadow_3028_5059"/>
<feBlend mode="normal" in="SourceGraphic" in2="effect2_dropShadow_3028_5059" result="shape"/>
</filter>
<filter id="filter23_dd_3028_5059" x="261" y="84" width="59" height="30" filterUnits="userSpaceOnUse" color-interpolation-filters="sRGB">
<feFlood flood-opacity="0" result="BackgroundImageFix"/>
<feColorMatrix in="SourceAlpha" type="matrix" values="0 0 0 0 0 0 0 0 0 0 0 0 0 0 0 0 0 0 127 0" result="hardAlpha"/>
<feOffset dy="1"/>
<feGaussianBlur stdDeviation="1.5"/>
<feColorMatrix type="matrix" values="0 0 0 0 0 0 0 0 0 0 0 0 0 0 0 0 0 0 0.1 0"/>
<feBlend mode="normal" in2="BackgroundImageFix" result="effect1_dropShadow_3028_5059"/>
<feColorMatrix in="SourceAlpha" type="matrix" values="0 0 0 0 0 0 0 0 0 0 0 0 0 0 0 0 0 0 127 0" result="hardAlpha"/>
<feOffset dy="1"/>
<feGaussianBlur stdDeviation="1"/>
<feColorMatrix type="matrix" values="0 0 0 0 0 0 0 0 0 0 0 0 0 0 0 0 0 0 0.06 0"/>
<feBlend mode="normal" in2="effect1_dropShadow_3028_5059" result="effect2_dropShadow_3028_5059"/>
<feBlend mode="normal" in="SourceGraphic" in2="effect2_dropShadow_3028_5059" result="shape"/>
</filter>
</defs>
</svg>
