<svg width="350" height="230" viewBox="0 0 350 230" fill="none" xmlns="http://www.w3.org/2000/svg">
<rect x="94" y="109.5" width="133" height="12" rx="6" fill="#EF562F"/>
<path fill-rule="evenodd" clip-rule="evenodd" d="M247.216 109.815C247.409 109.614 247.641 109.455 247.897 109.344C248.154 109.234 248.429 109.176 248.708 109.174C248.987 109.172 249.263 109.225 249.521 109.33C249.78 109.436 250.014 109.592 250.211 109.789C250.408 109.986 250.564 110.221 250.67 110.479C250.775 110.737 250.829 111.013 250.826 111.292C250.824 111.571 250.766 111.847 250.656 112.103C250.546 112.359 250.386 112.591 250.185 112.784L247.035 115.934C246.641 116.328 246.107 116.549 245.55 116.549C244.994 116.549 244.46 116.328 244.066 115.934C243.868 115.743 243.602 115.637 243.327 115.64C243.052 115.642 242.789 115.753 242.594 115.947C242.399 116.142 242.289 116.405 242.286 116.681C242.284 116.956 242.39 117.221 242.581 117.419C243.369 118.207 244.437 118.649 245.55 118.649C246.664 118.649 247.732 118.207 248.52 117.419L251.67 114.269C252.435 113.477 252.858 112.416 252.849 111.315C252.839 110.214 252.397 109.16 251.619 108.382C250.84 107.603 249.787 107.161 248.685 107.152C247.584 107.142 246.523 107.565 245.731 108.33L244.156 109.905C244.056 110.002 243.976 110.118 243.921 110.246C243.866 110.374 243.837 110.512 243.836 110.651C243.834 110.791 243.861 110.929 243.914 111.058C243.966 111.187 244.044 111.304 244.143 111.403C244.242 111.502 244.359 111.58 244.488 111.632C244.617 111.685 244.755 111.712 244.895 111.711C245.034 111.709 245.172 111.68 245.3 111.625C245.428 111.57 245.544 111.49 245.641 111.39L247.216 109.815ZM241.966 115.065C242.36 114.671 242.894 114.45 243.45 114.45C244.007 114.45 244.541 114.671 244.935 115.065C245.032 115.165 245.148 115.245 245.276 115.3C245.404 115.355 245.542 115.384 245.681 115.386C245.821 115.387 245.959 115.36 246.088 115.307C246.217 115.255 246.334 115.177 246.433 115.078C246.531 114.979 246.609 114.862 246.662 114.733C246.715 114.604 246.742 114.466 246.74 114.326C246.739 114.187 246.71 114.049 246.655 113.921C246.6 113.793 246.52 113.677 246.42 113.58C245.632 112.793 244.564 112.351 243.45 112.351C242.337 112.351 241.269 112.793 240.481 113.58L237.331 116.73C236.93 117.118 236.61 117.581 236.39 118.094C236.17 118.606 236.054 119.157 236.049 119.715C236.044 120.273 236.15 120.826 236.362 121.342C236.573 121.858 236.885 122.327 237.279 122.721C237.673 123.116 238.142 123.427 238.658 123.639C239.175 123.85 239.728 123.956 240.285 123.951C240.843 123.946 241.394 123.831 241.907 123.61C242.419 123.39 242.882 123.07 243.27 122.669L244.845 121.094C244.945 120.997 245.025 120.881 245.08 120.753C245.135 120.625 245.164 120.487 245.165 120.348C245.167 120.209 245.14 120.07 245.087 119.941C245.034 119.812 244.956 119.695 244.858 119.596C244.759 119.498 244.642 119.42 244.513 119.367C244.384 119.314 244.246 119.288 244.106 119.289C243.967 119.29 243.829 119.319 243.701 119.374C243.573 119.429 243.457 119.509 243.36 119.609L241.785 121.184C241.591 121.385 241.36 121.545 241.103 121.655C240.847 121.765 240.572 121.823 240.293 121.825C240.014 121.828 239.738 121.775 239.479 121.669C239.221 121.564 238.987 121.408 238.79 121.21C238.593 121.013 238.437 120.779 238.331 120.521C238.225 120.263 238.172 119.986 238.175 119.707C238.177 119.428 238.235 119.153 238.345 118.897C238.455 118.641 238.615 118.409 238.816 118.215L241.966 115.065Z" fill="#EF562F"/>
</svg>
