<svg width="350" height="230" viewBox="0 0 350 230" fill="none" xmlns="http://www.w3.org/2000/svg">
<rect x="94" y="109.5" width="133" height="12" rx="6" fill="#1C64F2"/>
<path fill-rule="evenodd" clip-rule="evenodd" d="M247.215 109.815C247.409 109.614 247.641 109.455 247.897 109.344C248.153 109.234 248.429 109.176 248.708 109.174C248.986 109.172 249.263 109.225 249.521 109.33C249.779 109.436 250.014 109.592 250.211 109.789C250.408 109.986 250.564 110.221 250.669 110.479C250.775 110.737 250.828 111.013 250.826 111.292C250.823 111.571 250.765 111.847 250.655 112.103C250.545 112.359 250.385 112.591 250.185 112.784L247.035 115.934C246.641 116.328 246.107 116.549 245.55 116.549C244.993 116.549 244.459 116.328 244.065 115.934C243.867 115.743 243.602 115.637 243.327 115.64C243.051 115.642 242.788 115.753 242.593 115.947C242.399 116.142 242.288 116.405 242.286 116.681C242.284 116.956 242.389 117.221 242.581 117.419C243.368 118.207 244.436 118.649 245.55 118.649C246.664 118.649 247.732 118.207 248.519 117.419L251.669 114.269C252.434 113.477 252.858 112.416 252.848 111.315C252.839 110.214 252.397 109.16 251.618 108.382C250.84 107.603 249.786 107.161 248.685 107.152C247.584 107.142 246.523 107.565 245.731 108.33L244.156 109.905C244.055 110.002 243.975 110.118 243.92 110.246C243.865 110.374 243.836 110.512 243.835 110.651C243.834 110.791 243.86 110.929 243.913 111.058C243.966 111.187 244.044 111.304 244.143 111.403C244.241 111.502 244.358 111.58 244.487 111.632C244.616 111.685 244.755 111.712 244.894 111.711C245.034 111.709 245.171 111.68 245.299 111.625C245.428 111.57 245.543 111.49 245.64 111.39L247.215 109.815ZM241.965 115.065C242.359 114.671 242.893 114.45 243.45 114.45C244.007 114.45 244.541 114.671 244.935 115.065C245.032 115.165 245.147 115.245 245.276 115.3C245.404 115.355 245.541 115.384 245.681 115.386C245.82 115.387 245.959 115.36 246.088 115.307C246.217 115.255 246.334 115.177 246.432 115.078C246.531 114.979 246.609 114.862 246.662 114.733C246.715 114.604 246.741 114.466 246.74 114.326C246.739 114.187 246.71 114.049 246.655 113.921C246.6 113.793 246.52 113.677 246.419 113.58C245.632 112.793 244.564 112.351 243.45 112.351C242.336 112.351 241.268 112.793 240.481 113.58L237.331 116.73C236.929 117.118 236.61 117.581 236.389 118.094C236.169 118.606 236.053 119.157 236.049 119.715C236.044 120.273 236.15 120.826 236.361 121.342C236.572 121.858 236.884 122.327 237.279 122.721C237.673 123.116 238.142 123.427 238.658 123.639C239.174 123.85 239.727 123.956 240.285 123.951C240.843 123.946 241.394 123.831 241.906 123.61C242.419 123.39 242.882 123.07 243.269 122.669L244.844 121.094C244.945 120.997 245.025 120.881 245.08 120.753C245.135 120.625 245.164 120.487 245.165 120.348C245.166 120.209 245.14 120.07 245.087 119.941C245.034 119.812 244.956 119.695 244.857 119.596C244.759 119.498 244.642 119.42 244.513 119.367C244.384 119.314 244.245 119.288 244.106 119.289C243.966 119.29 243.829 119.319 243.701 119.374C243.572 119.429 243.457 119.509 243.36 119.609L241.785 121.184C241.591 121.385 241.359 121.545 241.103 121.655C240.847 121.765 240.571 121.823 240.292 121.825C240.014 121.828 239.737 121.775 239.479 121.669C239.221 121.564 238.986 121.408 238.789 121.21C238.592 121.013 238.436 120.779 238.331 120.521C238.225 120.263 238.172 119.986 238.174 119.707C238.177 119.428 238.235 119.153 238.345 118.897C238.455 118.641 238.615 118.409 238.815 118.215L241.965 115.065Z" fill="#1C64F2"/>
</svg>
