<svg width="280" height="220" viewBox="0 0 280 220" fill="none" xmlns="http://www.w3.org/2000/svg">
<g filter="url(#filter0_dd_169_147879)">
<g clip-path="url(#clip0_169_147879)">
<rect x="10" y="12" width="260" height="196" rx="8" fill="#374151"/>
<g clip-path="url(#clip1_169_147879)">
<circle cx="39.5719" cy="36.4284" r="6.50942" fill="#374151" stroke="#6B7280" stroke-width="3"/>
</g>
<rect x="64" y="31.5" width="182" height="10" rx="4" fill="#9CA3AF"/>
<line x1="10" y1="60.5" x2="270" y2="60.5" stroke="#4B5563"/>
<g clip-path="url(#clip2_169_147879)">
<circle cx="39.5719" cy="85.4284" r="6.50942" fill="#374151" stroke="#6B7280" stroke-width="3"/>
</g>
<rect x="64" y="80.5" width="182" height="10" rx="4" fill="#9CA3AF"/>
<line x1="10" y1="109.5" x2="270" y2="109.5" stroke="#4B5563"/>
<g clip-path="url(#clip3_169_147879)">
<circle cx="39.5719" cy="134.428" r="6.50942" fill="#374151" stroke="#6B7280" stroke-width="3"/>
</g>
<rect x="64" y="129.5" width="182" height="10" rx="4" fill="#9CA3AF"/>
<line x1="10" y1="158.5" x2="270" y2="158.5" stroke="#4B5563"/>
<g clip-path="url(#clip4_169_147879)">
<circle cx="39.5719" cy="183.428" r="6.50942" fill="#374151" stroke="#6B7280" stroke-width="3"/>
</g>
<rect x="64" y="178.5" width="182" height="10" rx="4" fill="#9CA3AF"/>
</g>
<rect x="10.5" y="12.5" width="259" height="195" rx="7.5" stroke="#4B5563"/>
</g>
<defs>
<filter id="filter0_dd_169_147879" x="4" y="10" width="272" height="208" filterUnits="userSpaceOnUse" color-interpolation-filters="sRGB">
<feFlood flood-opacity="0" result="BackgroundImageFix"/>
<feColorMatrix in="SourceAlpha" type="matrix" values="0 0 0 0 0 0 0 0 0 0 0 0 0 0 0 0 0 0 127 0" result="hardAlpha"/>
<feOffset dy="4"/>
<feGaussianBlur stdDeviation="3"/>
<feColorMatrix type="matrix" values="0 0 0 0 0 0 0 0 0 0 0 0 0 0 0 0 0 0 0.1 0"/>
<feBlend mode="normal" in2="BackgroundImageFix" result="effect1_dropShadow_169_147879"/>
<feColorMatrix in="SourceAlpha" type="matrix" values="0 0 0 0 0 0 0 0 0 0 0 0 0 0 0 0 0 0 127 0" result="hardAlpha"/>
<feOffset dy="2"/>
<feGaussianBlur stdDeviation="2"/>
<feColorMatrix type="matrix" values="0 0 0 0 0 0 0 0 0 0 0 0 0 0 0 0 0 0 0.06 0"/>
<feBlend mode="normal" in2="effect1_dropShadow_169_147879" result="effect2_dropShadow_169_147879"/>
<feBlend mode="normal" in="SourceGraphic" in2="effect2_dropShadow_169_147879" result="shape"/>
</filter>
<clipPath id="clip0_169_147879">
<rect x="10" y="12" width="260" height="196" rx="8" fill="white"/>
</clipPath>
<clipPath id="clip1_169_147879">
<rect width="17" height="17" fill="white" transform="translate(31 28)"/>
</clipPath>
<clipPath id="clip2_169_147879">
<rect width="17" height="17" fill="white" transform="translate(31 77)"/>
</clipPath>
<clipPath id="clip3_169_147879">
<rect width="17" height="17" fill="white" transform="translate(31 126)"/>
</clipPath>
<clipPath id="clip4_169_147879">
<rect width="17" height="17" fill="white" transform="translate(31 175)"/>
</clipPath>
</defs>
</svg>
