<svg width="410" height="240" viewBox="0 0 410 240" fill="none" xmlns="http://www.w3.org/2000/svg">
<g filter="url(#filter0_dd_169_148875)">
<rect x="41" y="44" width="327" height="73" rx="4" fill="#374151"/>
<rect x="51" y="54" width="23.3333" height="5" rx="2" fill="#D1D5DB"/>
<rect x="51" y="69" width="40" height="5" rx="2" fill="#9CA3AF"/>
<rect x="51" y="80" width="35" height="5" rx="2" fill="#9CA3AF"/>
<rect x="51" y="91" width="31" height="5" rx="2" fill="#9CA3AF"/>
<rect x="51" y="102" width="37" height="5" rx="2" fill="#9CA3AF"/>
<rect x="130.25" y="54" width="23.3333" height="5" rx="2" fill="#D1D5DB"/>
<rect x="130.25" y="69" width="40" height="5" rx="2" fill="#9CA3AF"/>
<rect x="130.25" y="80" width="35" height="5" rx="2" fill="#9CA3AF"/>
<rect x="130.25" y="91" width="31" height="5" rx="2" fill="#9CA3AF"/>
<rect x="130.25" y="102" width="37" height="5" rx="2" fill="#9CA3AF"/>
<rect x="209.5" y="54" width="23.3333" height="5" rx="2" fill="#D1D5DB"/>
<rect x="209.5" y="69" width="40" height="5" rx="2" fill="#9CA3AF"/>
<rect x="209.5" y="80" width="35" height="5" rx="2" fill="#9CA3AF"/>
<rect x="209.5" y="91" width="31" height="5" rx="2" fill="#9CA3AF"/>
<rect x="209.5" y="102" width="37" height="5" rx="2" fill="#9CA3AF"/>
<rect x="288.75" y="54" width="23.3333" height="5" rx="2" fill="#D1D5DB"/>
<rect x="288.75" y="69" width="40" height="5" rx="2" fill="#9CA3AF"/>
<rect x="288.75" y="80" width="35" height="5" rx="2" fill="#9CA3AF"/>
<rect x="288.75" y="91" width="31" height="5" rx="2" fill="#9CA3AF"/>
<rect x="288.75" y="102" width="37" height="5" rx="2" fill="#9CA3AF"/>
</g>
<g filter="url(#filter1_dd_169_148875)">
<rect x="41" y="138" width="327" height="59" rx="4" fill="#374151"/>
<rect x="51" y="148" width="57" height="5" rx="2" fill="#9CA3AF"/>
<rect x="51" y="159" width="48" height="5" rx="2" fill="#9CA3AF"/>
<rect x="51" y="170" width="45" height="5" rx="2" fill="#9CA3AF"/>
<rect x="51" y="181" width="53" height="5" rx="2" fill="#9CA3AF"/>
<rect x="137.145" y="148" width="45" height="5" rx="2" fill="#9CA3AF"/>
<rect x="137.145" y="159" width="49" height="5" rx="2" fill="#9CA3AF"/>
<rect x="137.145" y="170" width="39" height="5" rx="2" fill="#9CA3AF"/>
<rect x="137.145" y="181" width="46" height="5" rx="2" fill="#9CA3AF"/>
<rect x="223.289" y="148" width="55" height="5" rx="2" fill="#9CA3AF"/>
<rect x="223.289" y="159" width="49" height="5" rx="2" fill="#9CA3AF"/>
<rect x="223.289" y="170" width="58" height="5" rx="2" fill="#9CA3AF"/>
<rect x="309.434" y="148" width="48.5663" height="39" rx="3" fill="#6B7280"/>
<path fill-rule="evenodd" clip-rule="evenodd" d="M339.873 163.08C341.014 163.08 341.939 162.111 341.939 160.916C341.939 159.722 341.014 158.753 339.873 158.753C338.732 158.753 337.807 159.722 337.807 160.916C337.807 162.111 338.732 163.08 339.873 163.08ZM334.17 176.182H322.435C321.658 176.182 321.178 175.334 321.578 174.667L329.339 161.728C329.722 161.091 330.64 161.077 331.039 161.705C332.314 163.713 334.776 167.597 336.901 170.994L339.125 167.265C339.493 166.648 340.355 166.628 340.765 167.226L345.815 174.601C346.274 175.271 345.827 176.189 345.038 176.197L340.125 176.247L334.17 176.182Z" fill="#9CA3AF"/>
</g>
<defs>
<filter id="filter0_dd_169_148875" x="38" y="42" width="333" height="79" filterUnits="userSpaceOnUse" color-interpolation-filters="sRGB">
<feFlood flood-opacity="0" result="BackgroundImageFix"/>
<feColorMatrix in="SourceAlpha" type="matrix" values="0 0 0 0 0 0 0 0 0 0 0 0 0 0 0 0 0 0 127 0" result="hardAlpha"/>
<feOffset dy="1"/>
<feGaussianBlur stdDeviation="1.5"/>
<feColorMatrix type="matrix" values="0 0 0 0 0 0 0 0 0 0 0 0 0 0 0 0 0 0 0.1 0"/>
<feBlend mode="normal" in2="BackgroundImageFix" result="effect1_dropShadow_169_148875"/>
<feColorMatrix in="SourceAlpha" type="matrix" values="0 0 0 0 0 0 0 0 0 0 0 0 0 0 0 0 0 0 127 0" result="hardAlpha"/>
<feOffset dy="1"/>
<feGaussianBlur stdDeviation="1"/>
<feColorMatrix type="matrix" values="0 0 0 0 0 0 0 0 0 0 0 0 0 0 0 0 0 0 0.06 0"/>
<feBlend mode="normal" in2="effect1_dropShadow_169_148875" result="effect2_dropShadow_169_148875"/>
<feBlend mode="normal" in="SourceGraphic" in2="effect2_dropShadow_169_148875" result="shape"/>
</filter>
<filter id="filter1_dd_169_148875" x="38" y="136" width="333" height="65" filterUnits="userSpaceOnUse" color-interpolation-filters="sRGB">
<feFlood flood-opacity="0" result="BackgroundImageFix"/>
<feColorMatrix in="SourceAlpha" type="matrix" values="0 0 0 0 0 0 0 0 0 0 0 0 0 0 0 0 0 0 127 0" result="hardAlpha"/>
<feOffset dy="1"/>
<feGaussianBlur stdDeviation="1.5"/>
<feColorMatrix type="matrix" values="0 0 0 0 0 0 0 0 0 0 0 0 0 0 0 0 0 0 0.1 0"/>
<feBlend mode="normal" in2="BackgroundImageFix" result="effect1_dropShadow_169_148875"/>
<feColorMatrix in="SourceAlpha" type="matrix" values="0 0 0 0 0 0 0 0 0 0 0 0 0 0 0 0 0 0 127 0" result="hardAlpha"/>
<feOffset dy="1"/>
<feGaussianBlur stdDeviation="1"/>
<feColorMatrix type="matrix" values="0 0 0 0 0 0 0 0 0 0 0 0 0 0 0 0 0 0 0.06 0"/>
<feBlend mode="normal" in2="effect1_dropShadow_169_148875" result="effect2_dropShadow_169_148875"/>
<feBlend mode="normal" in="SourceGraphic" in2="effect2_dropShadow_169_148875" result="shape"/>
</filter>
</defs>
</svg>
