<svg width="333" height="159" viewBox="0 0 333 159" fill="none" xmlns="http://www.w3.org/2000/svg">
    <g filter="url(#filter0_dd_2987_4945)">
    <rect x="3" y="2" width="327" height="73" rx="4" fill="#374151"/>
    <rect x="13" y="12" width="23.3333" height="5" rx="2" fill="#D1D5DB"/>
    <rect x="13" y="27" width="40" height="5" rx="2" fill="#9CA3AF"/>
    <rect x="13" y="38" width="35" height="5" rx="2" fill="#9CA3AF"/>
    <rect x="13" y="49" width="31" height="5" rx="2" fill="#9CA3AF"/>
    <rect x="13" y="60" width="37" height="5" rx="2" fill="#9CA3AF"/>
    <rect x="92.25" y="12" width="23.3333" height="5" rx="2" fill="#D1D5DB"/>
    <rect x="92.25" y="27" width="40" height="5" rx="2" fill="#9CA3AF"/>
    <rect x="92.25" y="38" width="35" height="5" rx="2" fill="#9CA3AF"/>
    <rect x="92.25" y="49" width="31" height="5" rx="2" fill="#9CA3AF"/>
    <rect x="92.25" y="60" width="37" height="5" rx="2" fill="#9CA3AF"/>
    <rect x="171.5" y="12" width="23.3333" height="5" rx="2" fill="#D1D5DB"/>
    <rect x="171.5" y="27" width="40" height="5" rx="2" fill="#9CA3AF"/>
    <rect x="171.5" y="38" width="35" height="5" rx="2" fill="#9CA3AF"/>
    <rect x="171.5" y="49" width="31" height="5" rx="2" fill="#9CA3AF"/>
    <rect x="171.5" y="60" width="37" height="5" rx="2" fill="#9CA3AF"/>
    <rect x="250.75" y="12" width="23.3333" height="5" rx="2" fill="#D1D5DB"/>
    <rect x="250.75" y="27" width="40" height="5" rx="2" fill="#9CA3AF"/>
    <rect x="250.75" y="38" width="35" height="5" rx="2" fill="#9CA3AF"/>
    <rect x="250.75" y="49" width="31" height="5" rx="2" fill="#9CA3AF"/>
    <rect x="250.75" y="60" width="37" height="5" rx="2" fill="#9CA3AF"/>
    </g>
    <g filter="url(#filter1_dd_2987_4945)">
    <rect x="3" y="96" width="327" height="59" rx="4" fill="#374151"/>
    <rect x="13" y="106" width="57" height="5" rx="2" fill="#9CA3AF"/>
    <rect x="13" y="117" width="48" height="5" rx="2" fill="#9CA3AF"/>
    <rect x="13" y="128" width="45" height="5" rx="2" fill="#9CA3AF"/>
    <rect x="13" y="139" width="53" height="5" rx="2" fill="#9CA3AF"/>
    <rect x="99.1445" y="106" width="45" height="5" rx="2" fill="#9CA3AF"/>
    <rect x="99.1445" y="117" width="49" height="5" rx="2" fill="#9CA3AF"/>
    <rect x="99.1445" y="128" width="39" height="5" rx="2" fill="#9CA3AF"/>
    <rect x="99.1445" y="139" width="46" height="5" rx="2" fill="#9CA3AF"/>
    <rect x="185.289" y="106" width="55" height="5" rx="2" fill="#9CA3AF"/>
    <rect x="185.289" y="117" width="49" height="5" rx="2" fill="#9CA3AF"/>
    <rect x="185.289" y="128" width="58" height="5" rx="2" fill="#9CA3AF"/>
    <rect x="271.434" y="106" width="48.5663" height="39" rx="3" fill="#6B7280"/>
    <path fill-rule="evenodd" clip-rule="evenodd" d="M301.873 121.08C303.014 121.08 303.939 120.111 303.939 118.916C303.939 117.722 303.014 116.753 301.873 116.753C300.732 116.753 299.807 117.722 299.807 118.916C299.807 120.111 300.732 121.08 301.873 121.08ZM296.17 134.182H284.435C283.658 134.182 283.178 133.334 283.578 132.667L291.339 119.728C291.722 119.091 292.64 119.077 293.039 119.705C294.314 121.713 296.776 125.597 298.901 128.994L301.125 125.265C301.493 124.648 302.356 124.628 302.765 125.226L307.815 132.601C308.274 133.271 307.828 134.189 307.038 134.197L302.125 134.247L296.17 134.182Z" fill="#9CA3AF"/>
    </g>
    <defs>
    <filter id="filter0_dd_2987_4945" x="0" y="0" width="333" height="79" filterUnits="userSpaceOnUse" color-interpolation-filters="sRGB">
    <feFlood flood-opacity="0" result="BackgroundImageFix"/>
    <feColorMatrix in="SourceAlpha" type="matrix" values="0 0 0 0 0 0 0 0 0 0 0 0 0 0 0 0 0 0 127 0" result="hardAlpha"/>
    <feOffset dy="1"/>
    <feGaussianBlur stdDeviation="1.5"/>
    <feColorMatrix type="matrix" values="0 0 0 0 0 0 0 0 0 0 0 0 0 0 0 0 0 0 0.1 0"/>
    <feBlend mode="normal" in2="BackgroundImageFix" result="effect1_dropShadow_2987_4945"/>
    <feColorMatrix in="SourceAlpha" type="matrix" values="0 0 0 0 0 0 0 0 0 0 0 0 0 0 0 0 0 0 127 0" result="hardAlpha"/>
    <feOffset dy="1"/>
    <feGaussianBlur stdDeviation="1"/>
    <feColorMatrix type="matrix" values="0 0 0 0 0 0 0 0 0 0 0 0 0 0 0 0 0 0 0.06 0"/>
    <feBlend mode="normal" in2="effect1_dropShadow_2987_4945" result="effect2_dropShadow_2987_4945"/>
    <feBlend mode="normal" in="SourceGraphic" in2="effect2_dropShadow_2987_4945" result="shape"/>
    </filter>
    <filter id="filter1_dd_2987_4945" x="0" y="94" width="333" height="65" filterUnits="userSpaceOnUse" color-interpolation-filters="sRGB">
    <feFlood flood-opacity="0" result="BackgroundImageFix"/>
    <feColorMatrix in="SourceAlpha" type="matrix" values="0 0 0 0 0 0 0 0 0 0 0 0 0 0 0 0 0 0 127 0" result="hardAlpha"/>
    <feOffset dy="1"/>
    <feGaussianBlur stdDeviation="1.5"/>
    <feColorMatrix type="matrix" values="0 0 0 0 0 0 0 0 0 0 0 0 0 0 0 0 0 0 0.1 0"/>
    <feBlend mode="normal" in2="BackgroundImageFix" result="effect1_dropShadow_2987_4945"/>
    <feColorMatrix in="SourceAlpha" type="matrix" values="0 0 0 0 0 0 0 0 0 0 0 0 0 0 0 0 0 0 127 0" result="hardAlpha"/>
    <feOffset dy="1"/>
    <feGaussianBlur stdDeviation="1"/>
    <feColorMatrix type="matrix" values="0 0 0 0 0 0 0 0 0 0 0 0 0 0 0 0 0 0 0.06 0"/>
    <feBlend mode="normal" in2="effect1_dropShadow_2987_4945" result="effect2_dropShadow_2987_4945"/>
    <feBlend mode="normal" in="SourceGraphic" in2="effect2_dropShadow_2987_4945" result="shape"/>
    </filter>
    </defs>
    </svg>
    