<svg width="470" height="165" viewBox="0 0 470 165" fill="none" xmlns="http://www.w3.org/2000/svg">
<g opacity="0.8" filter="url(#filter0_dd_169_147367)">
<rect width="453.433" height="36" transform="translate(8 8)" fill="#FAFAFA"/>
<path d="M23.5 30.1665V21.8332M23.5 30.1665C23.5 30.6085 23.3244 31.0325 23.0118 31.345C22.6993 31.6576 22.2754 31.8332 21.8333 31.8332H20.1667C19.7246 31.8332 19.3007 31.6576 18.9882 31.345C18.6756 31.0325 18.5 30.6085 18.5 30.1665V21.8332C18.5 21.3911 18.6756 20.9672 18.9882 20.6547C19.3007 20.3421 19.7246 20.1665 20.1667 20.1665H21.8333C22.2754 20.1665 22.6993 20.3421 23.0118 20.6547C23.3244 20.9672 23.5 21.3911 23.5 21.8332M23.5 30.1665C23.5 30.6085 23.6756 31.0325 23.9882 31.345C24.3007 31.6576 24.7246 31.8332 25.1667 31.8332H26.8333C27.2754 31.8332 27.6993 31.6576 28.0118 31.345C28.3244 31.0325 28.5 30.6085 28.5 30.1665M23.5 21.8332C23.5 21.3911 23.6756 20.9672 23.9882 20.6547C24.3007 20.3421 24.7246 20.1665 25.1667 20.1665H26.8333C27.2754 20.1665 27.6993 20.3421 28.0118 20.6547C28.3244 20.9672 28.5 21.3911 28.5 21.8332M28.5 30.1665V21.8332M28.5 30.1665C28.5 30.6085 28.6756 31.0325 28.9882 31.345C29.3007 31.6576 29.7246 31.8332 30.1667 31.8332H31.8333C32.2754 31.8332 32.6993 31.6576 33.0118 31.345C33.3244 31.0325 33.5 30.6085 33.5 30.1665V21.8332C33.5 21.3911 33.3244 20.9672 33.0118 20.6547C32.6993 20.3421 32.2754 20.1665 31.8333 20.1665H30.1667C29.7246 20.1665 29.3007 20.3421 28.9882 20.6547C28.6756 20.9672 28.5 21.3911 28.5 21.8332" stroke="#9CA3AF" stroke-width="2" stroke-linecap="round" stroke-linejoin="round"/>
<path d="M243.398 17.7646H45.7452C44.2291 17.7646 43 18.9937 43 20.5098V31.4905C43 33.0067 44.2291 34.2357 45.7452 34.2357H243.398C244.914 34.2357 246.143 33.0067 246.143 31.4905V20.5098C246.143 18.9937 244.914 17.7646 243.398 17.7646Z" fill="#E4E4E7"/>
<path d="M315.9 23.2549H295.817C294.893 23.2549 294.143 24.4839 294.143 26.0001C294.143 27.5162 294.893 28.7452 295.817 28.7452H315.9C316.824 28.7452 317.573 27.5162 317.573 26.0001C317.573 24.4839 316.824 23.2549 315.9 23.2549Z" fill="#9CA3AF"/>
<path d="M351.33 23.2549H331.247C330.323 23.2549 329.573 24.4839 329.573 26.0001C329.573 27.5162 330.323 28.7452 331.247 28.7452H351.33C352.254 28.7452 353.003 27.5162 353.003 26.0001C353.003 24.4839 352.254 23.2549 351.33 23.2549Z" fill="#9CA3AF"/>
<path d="M390.474 23.2549H366.963C365.88 23.2549 365.003 24.4839 365.003 26.0001C365.003 27.5162 365.88 28.7452 366.963 28.7452H390.474C391.556 28.7452 392.433 27.5162 392.433 26.0001C392.433 24.4839 391.556 23.2549 390.474 23.2549Z" fill="#9CA3AF"/>
<rect x="404.433" y="19.5" width="49" height="13" rx="3" fill="#EB4F27"/>
<rect x="416.433" y="23.9546" width="25" height="4.09043" rx="2" fill="white"/>
</g>
<g opacity="0.8" filter="url(#filter1_dd_169_147367)">
<rect width="454.433" height="36" transform="translate(8 64)" fill="#FAFAFA"/>
<path d="M23.5 86.1665V77.8332M23.5 86.1665C23.5 86.6085 23.3244 87.0325 23.0118 87.345C22.6993 87.6576 22.2754 87.8332 21.8333 87.8332H20.1667C19.7246 87.8332 19.3007 87.6576 18.9882 87.345C18.6756 87.0325 18.5 86.6085 18.5 86.1665V77.8332C18.5 77.3911 18.6756 76.9672 18.9882 76.6547C19.3007 76.3421 19.7246 76.1665 20.1667 76.1665H21.8333C22.2754 76.1665 22.6993 76.3421 23.0118 76.6547C23.3244 76.9672 23.5 77.3911 23.5 77.8332M23.5 86.1665C23.5 86.6085 23.6756 87.0325 23.9882 87.345C24.3007 87.6576 24.7246 87.8332 25.1667 87.8332H26.8333C27.2754 87.8332 27.6993 87.6576 28.0118 87.345C28.3244 87.0325 28.5 86.6085 28.5 86.1665M23.5 77.8332C23.5 77.3911 23.6756 76.9672 23.9882 76.6547C24.3007 76.3421 24.7246 76.1665 25.1667 76.1665H26.8333C27.2754 76.1665 27.6993 76.3421 28.0118 76.6547C28.3244 76.9672 28.5 77.3911 28.5 77.8332M28.5 86.1665V77.8332M28.5 86.1665C28.5 86.6085 28.6756 87.0325 28.9882 87.345C29.3007 87.6576 29.7246 87.8332 30.1667 87.8332H31.8333C32.2754 87.8332 32.6993 87.6576 33.0118 87.345C33.3244 87.0325 33.5 86.6085 33.5 86.1665V77.8332C33.5 77.3911 33.3244 76.9672 33.0118 76.6547C32.6993 76.3421 32.2754 76.1665 31.8333 76.1665H30.1667C29.7246 76.1665 29.3007 76.3421 28.9882 76.6547C28.6756 76.9672 28.5 77.3911 28.5 77.8332" stroke="#9CA3AF" stroke-width="2" stroke-linecap="round" stroke-linejoin="round"/>
<path d="M64.7564 79.2549H44.6736C43.7493 79.2549 43 80.4839 43 82.0001C43 83.5162 43.7493 84.7452 44.6736 84.7452H64.7564C65.6807 84.7452 66.43 83.5162 66.43 82.0001C66.43 80.4839 65.6807 79.2549 64.7564 79.2549Z" fill="#9CA3AF"/>
<path d="M95.1864 79.2549H75.1036C74.1793 79.2549 73.43 80.4839 73.43 82.0001C73.43 83.5162 74.1793 84.7452 75.1036 84.7452H95.1864C96.1107 84.7452 96.86 83.5162 96.86 82.0001C96.86 80.4839 96.1107 79.2549 95.1864 79.2549Z" fill="#9CA3AF"/>
<path d="M129.331 79.2549H105.819C104.737 79.2549 103.86 80.4839 103.86 82.0001C103.86 83.5162 104.737 84.7452 105.819 84.7452H129.331C130.413 84.7452 131.29 83.5162 131.29 82.0001C131.29 80.4839 130.413 79.2549 129.331 79.2549Z" fill="#9CA3AF"/>
<path d="M390.688 73.7646H193.035C191.519 73.7646 190.29 74.9937 190.29 76.5098V87.4905C190.29 89.0067 191.519 90.2357 193.035 90.2357H390.688C392.204 90.2357 393.433 89.0067 393.433 87.4905V76.5098C393.433 74.9937 392.204 73.7646 390.688 73.7646Z" fill="#E4E4E7"/>
<rect x="405.433" y="75.5" width="49" height="13" rx="3" fill="#EB4F27"/>
<rect x="417.433" y="79.9546" width="25" height="4.09043" rx="2" fill="white"/>
</g>
<g opacity="0.8" filter="url(#filter2_dd_169_147367)">
<rect width="453" height="36" transform="translate(8 120)" fill="#FAFAFA"/>
<path d="M37.7564 135.255H17.6736C16.7493 135.255 16 136.484 16 138C16 139.516 16.7493 140.745 17.6736 140.745H37.7564C38.6807 140.745 39.43 139.516 39.43 138C39.43 136.484 38.6807 135.255 37.7564 135.255Z" fill="#9CA3AF"/>
<path d="M71.9007 135.255H48.3893C47.3072 135.255 46.43 136.484 46.43 138C46.43 139.516 47.3072 140.745 48.3893 140.745H71.9007C72.9828 140.745 73.86 139.516 73.86 138C73.86 136.484 72.9828 135.255 71.9007 135.255Z" fill="#9CA3AF"/>
<path d="M102.616 135.255H82.5336C81.6093 135.255 80.86 136.484 80.86 138C80.86 139.516 81.6093 140.745 82.5336 140.745H102.616C103.541 140.745 104.29 139.516 104.29 138C104.29 136.484 103.541 135.255 102.616 135.255Z" fill="#9CA3AF"/>
<path d="M136.761 135.255H113.249C112.167 135.255 111.29 136.484 111.29 138C111.29 139.516 112.167 140.745 113.249 140.745H136.761C137.843 140.745 138.72 139.516 138.72 138C138.72 136.484 137.843 135.255 136.761 135.255Z" fill="#9CA3AF"/>
<path d="M232 142.167V133.833M232 142.167C232 142.609 231.824 143.032 231.512 143.345C231.199 143.658 230.775 143.833 230.333 143.833H228.667C228.225 143.833 227.801 143.658 227.488 143.345C227.176 143.032 227 142.609 227 142.167V133.833C227 133.391 227.176 132.967 227.488 132.655C227.801 132.342 228.225 132.167 228.667 132.167H230.333C230.775 132.167 231.199 132.342 231.512 132.655C231.824 132.967 232 133.391 232 133.833M232 142.167C232 142.609 232.176 143.032 232.488 143.345C232.801 143.658 233.225 143.833 233.667 143.833H235.333C235.775 143.833 236.199 143.658 236.512 143.345C236.824 143.032 237 142.609 237 142.167M232 133.833C232 133.391 232.176 132.967 232.488 132.655C232.801 132.342 233.225 132.167 233.667 132.167H235.333C235.775 132.167 236.199 132.342 236.512 132.655C236.824 132.967 237 133.391 237 133.833M237 142.167V133.833M237 142.167C237 142.609 237.176 143.032 237.488 143.345C237.801 143.658 238.225 143.833 238.667 143.833H240.333C240.775 143.833 241.199 143.658 241.512 143.345C241.824 143.032 242 142.609 242 142.167V133.833C242 133.391 241.824 132.967 241.512 132.655C241.199 132.342 240.775 132.167 240.333 132.167H238.667C238.225 132.167 237.801 132.342 237.488 132.655C237.176 132.967 237 133.391 237 133.833" stroke="#9CA3AF" stroke-width="2" stroke-linecap="round" stroke-linejoin="round"/>
<rect x="343" y="131.5" width="49" height="13" rx="3" fill="#D1D5DB"/>
<rect x="355" y="135.955" width="25" height="4.09043" rx="2" fill="white"/>
<rect x="404" y="131.5" width="49" height="13" rx="3" fill="#EB4F27"/>
<rect x="416" y="135.955" width="25" height="4.09043" rx="2" fill="white"/>
</g>
<defs>
<filter id="filter0_dd_169_147367" x="5" y="6" width="459.433" height="42" filterUnits="userSpaceOnUse" color-interpolation-filters="sRGB">
<feFlood flood-opacity="0" result="BackgroundImageFix"/>
<feColorMatrix in="SourceAlpha" type="matrix" values="0 0 0 0 0 0 0 0 0 0 0 0 0 0 0 0 0 0 127 0" result="hardAlpha"/>
<feOffset dy="1"/>
<feGaussianBlur stdDeviation="1.5"/>
<feColorMatrix type="matrix" values="0 0 0 0 0 0 0 0 0 0 0 0 0 0 0 0 0 0 0.1 0"/>
<feBlend mode="normal" in2="BackgroundImageFix" result="effect1_dropShadow_169_147367"/>
<feColorMatrix in="SourceAlpha" type="matrix" values="0 0 0 0 0 0 0 0 0 0 0 0 0 0 0 0 0 0 127 0" result="hardAlpha"/>
<feOffset dy="1"/>
<feGaussianBlur stdDeviation="1"/>
<feColorMatrix type="matrix" values="0 0 0 0 0 0 0 0 0 0 0 0 0 0 0 0 0 0 0.06 0"/>
<feBlend mode="normal" in2="effect1_dropShadow_169_147367" result="effect2_dropShadow_169_147367"/>
<feBlend mode="normal" in="SourceGraphic" in2="effect2_dropShadow_169_147367" result="shape"/>
</filter>
<filter id="filter1_dd_169_147367" x="5" y="62" width="460.433" height="42" filterUnits="userSpaceOnUse" color-interpolation-filters="sRGB">
<feFlood flood-opacity="0" result="BackgroundImageFix"/>
<feColorMatrix in="SourceAlpha" type="matrix" values="0 0 0 0 0 0 0 0 0 0 0 0 0 0 0 0 0 0 127 0" result="hardAlpha"/>
<feOffset dy="1"/>
<feGaussianBlur stdDeviation="1.5"/>
<feColorMatrix type="matrix" values="0 0 0 0 0 0 0 0 0 0 0 0 0 0 0 0 0 0 0.1 0"/>
<feBlend mode="normal" in2="BackgroundImageFix" result="effect1_dropShadow_169_147367"/>
<feColorMatrix in="SourceAlpha" type="matrix" values="0 0 0 0 0 0 0 0 0 0 0 0 0 0 0 0 0 0 127 0" result="hardAlpha"/>
<feOffset dy="1"/>
<feGaussianBlur stdDeviation="1"/>
<feColorMatrix type="matrix" values="0 0 0 0 0 0 0 0 0 0 0 0 0 0 0 0 0 0 0.06 0"/>
<feBlend mode="normal" in2="effect1_dropShadow_169_147367" result="effect2_dropShadow_169_147367"/>
<feBlend mode="normal" in="SourceGraphic" in2="effect2_dropShadow_169_147367" result="shape"/>
</filter>
<filter id="filter2_dd_169_147367" x="5" y="118" width="459" height="42" filterUnits="userSpaceOnUse" color-interpolation-filters="sRGB">
<feFlood flood-opacity="0" result="BackgroundImageFix"/>
<feColorMatrix in="SourceAlpha" type="matrix" values="0 0 0 0 0 0 0 0 0 0 0 0 0 0 0 0 0 0 127 0" result="hardAlpha"/>
<feOffset dy="1"/>
<feGaussianBlur stdDeviation="1.5"/>
<feColorMatrix type="matrix" values="0 0 0 0 0 0 0 0 0 0 0 0 0 0 0 0 0 0 0.1 0"/>
<feBlend mode="normal" in2="BackgroundImageFix" result="effect1_dropShadow_169_147367"/>
<feColorMatrix in="SourceAlpha" type="matrix" values="0 0 0 0 0 0 0 0 0 0 0 0 0 0 0 0 0 0 127 0" result="hardAlpha"/>
<feOffset dy="1"/>
<feGaussianBlur stdDeviation="1"/>
<feColorMatrix type="matrix" values="0 0 0 0 0 0 0 0 0 0 0 0 0 0 0 0 0 0 0.06 0"/>
<feBlend mode="normal" in2="effect1_dropShadow_169_147367" result="effect2_dropShadow_169_147367"/>
<feBlend mode="normal" in="SourceGraphic" in2="effect2_dropShadow_169_147367" result="shape"/>
</filter>
</defs>
</svg>
