<svg width="470" height="165" viewBox="0 0 470 165" fill="none" xmlns="http://www.w3.org/2000/svg">
<g opacity="0.8" filter="url(#filter0_dd_169_147904)">
<rect width="453.433" height="36" transform="translate(8 9)" fill="#374151"/>
<path d="M23.5 31.1665V22.8332M23.5 31.1665C23.5 31.6085 23.3244 32.0325 23.0118 32.345C22.6993 32.6576 22.2754 32.8332 21.8333 32.8332H20.1667C19.7246 32.8332 19.3007 32.6576 18.9882 32.345C18.6756 32.0325 18.5 31.6085 18.5 31.1665V22.8332C18.5 22.3911 18.6756 21.9672 18.9882 21.6547C19.3007 21.3421 19.7246 21.1665 20.1667 21.1665H21.8333C22.2754 21.1665 22.6993 21.3421 23.0118 21.6547C23.3244 21.9672 23.5 22.3911 23.5 22.8332M23.5 31.1665C23.5 31.6085 23.6756 32.0325 23.9882 32.345C24.3007 32.6576 24.7246 32.8332 25.1667 32.8332H26.8333C27.2754 32.8332 27.6993 32.6576 28.0118 32.345C28.3244 32.0325 28.5 31.6085 28.5 31.1665M23.5 22.8332C23.5 22.3911 23.6756 21.9672 23.9882 21.6547C24.3007 21.3421 24.7246 21.1665 25.1667 21.1665H26.8333C27.2754 21.1665 27.6993 21.3421 28.0118 21.6547C28.3244 21.9672 28.5 22.3911 28.5 22.8332M28.5 31.1665V22.8332M28.5 31.1665C28.5 31.6085 28.6756 32.0325 28.9882 32.345C29.3007 32.6576 29.7246 32.8332 30.1667 32.8332H31.8333C32.2754 32.8332 32.6993 32.6576 33.0118 32.345C33.3244 32.0325 33.5 31.6085 33.5 31.1665V22.8332C33.5 22.3911 33.3244 21.9672 33.0118 21.6547C32.6993 21.3421 32.2754 21.1665 31.8333 21.1665H30.1667C29.7246 21.1665 29.3007 21.3421 28.9882 21.6547C28.6756 21.9672 28.5 22.3911 28.5 22.8332" stroke="#9CA3AF" stroke-width="2" stroke-linecap="round" stroke-linejoin="round"/>
<path d="M45.7452 19.2646H243.398C244.638 19.2646 245.643 20.2698 245.643 21.5098V32.4905C245.643 33.7305 244.638 34.7357 243.398 34.7357H45.7452C44.5052 34.7357 43.5 33.7305 43.5 32.4905V21.5098C43.5 20.2698 44.5052 19.2646 45.7452 19.2646Z" fill="#4B5563" stroke="#6B7280"/>
<path d="M315.9 24.2549H295.817C294.893 24.2549 294.143 25.4839 294.143 27.0001C294.143 28.5162 294.893 29.7452 295.817 29.7452H315.9C316.824 29.7452 317.573 28.5162 317.573 27.0001C317.573 25.4839 316.824 24.2549 315.9 24.2549Z" fill="#9CA3AF"/>
<path d="M351.33 24.2549H331.247C330.323 24.2549 329.573 25.4839 329.573 27.0001C329.573 28.5162 330.323 29.7452 331.247 29.7452H351.33C352.254 29.7452 353.003 28.5162 353.003 27.0001C353.003 25.4839 352.254 24.2549 351.33 24.2549Z" fill="#9CA3AF"/>
<path d="M390.474 24.2549H366.963C365.88 24.2549 365.003 25.4839 365.003 27.0001C365.003 28.5162 365.88 29.7452 366.963 29.7452H390.474C391.556 29.7452 392.433 28.5162 392.433 27.0001C392.433 25.4839 391.556 24.2549 390.474 24.2549Z" fill="#9CA3AF"/>
<rect x="404.433" y="20.5" width="49" height="13" rx="3" fill="#EF562F"/>
<rect x="416.433" y="24.9546" width="25" height="4.09043" rx="2" fill="white"/>
</g>
<g opacity="0.8" filter="url(#filter1_dd_169_147904)">
<rect width="454.433" height="36" transform="translate(8 65)" fill="#374151"/>
<path d="M23.5 87.1665V78.8332M23.5 87.1665C23.5 87.6085 23.3244 88.0325 23.0118 88.345C22.6993 88.6576 22.2754 88.8332 21.8333 88.8332H20.1667C19.7246 88.8332 19.3007 88.6576 18.9882 88.345C18.6756 88.0325 18.5 87.6085 18.5 87.1665V78.8332C18.5 78.3911 18.6756 77.9672 18.9882 77.6547C19.3007 77.3421 19.7246 77.1665 20.1667 77.1665H21.8333C22.2754 77.1665 22.6993 77.3421 23.0118 77.6547C23.3244 77.9672 23.5 78.3911 23.5 78.8332M23.5 87.1665C23.5 87.6085 23.6756 88.0325 23.9882 88.345C24.3007 88.6576 24.7246 88.8332 25.1667 88.8332H26.8333C27.2754 88.8332 27.6993 88.6576 28.0118 88.345C28.3244 88.0325 28.5 87.6085 28.5 87.1665M23.5 78.8332C23.5 78.3911 23.6756 77.9672 23.9882 77.6547C24.3007 77.3421 24.7246 77.1665 25.1667 77.1665H26.8333C27.2754 77.1665 27.6993 77.3421 28.0118 77.6547C28.3244 77.9672 28.5 78.3911 28.5 78.8332M28.5 87.1665V78.8332M28.5 87.1665C28.5 87.6085 28.6756 88.0325 28.9882 88.345C29.3007 88.6576 29.7246 88.8332 30.1667 88.8332H31.8333C32.2754 88.8332 32.6993 88.6576 33.0118 88.345C33.3244 88.0325 33.5 87.6085 33.5 87.1665V78.8332C33.5 78.3911 33.3244 77.9672 33.0118 77.6547C32.6993 77.3421 32.2754 77.1665 31.8333 77.1665H30.1667C29.7246 77.1665 29.3007 77.3421 28.9882 77.6547C28.6756 77.9672 28.5 78.3911 28.5 78.8332" stroke="#9CA3AF" stroke-width="2" stroke-linecap="round" stroke-linejoin="round"/>
<path d="M64.7564 80.2549H44.6736C43.7493 80.2549 43 81.4839 43 83.0001C43 84.5162 43.7493 85.7452 44.6736 85.7452H64.7564C65.6807 85.7452 66.43 84.5162 66.43 83.0001C66.43 81.4839 65.6807 80.2549 64.7564 80.2549Z" fill="#9CA3AF"/>
<path d="M95.1864 80.2549H75.1036C74.1793 80.2549 73.43 81.4839 73.43 83.0001C73.43 84.5162 74.1793 85.7452 75.1036 85.7452H95.1864C96.1107 85.7452 96.86 84.5162 96.86 83.0001C96.86 81.4839 96.1107 80.2549 95.1864 80.2549Z" fill="#9CA3AF"/>
<path d="M129.331 80.2549H105.819C104.737 80.2549 103.86 81.4839 103.86 83.0001C103.86 84.5162 104.737 85.7452 105.819 85.7452H129.331C130.413 85.7452 131.29 84.5162 131.29 83.0001C131.29 81.4839 130.413 80.2549 129.331 80.2549Z" fill="#9CA3AF"/>
<path d="M193.035 75.2646H390.688C391.928 75.2646 392.933 76.2698 392.933 77.5098V88.4905C392.933 89.7305 391.928 90.7357 390.688 90.7357H193.035C191.795 90.7357 190.79 89.7305 190.79 88.4905V77.5098C190.79 76.2698 191.795 75.2646 193.035 75.2646Z" fill="#4B5563" stroke="#6B7280"/>
<rect x="405.433" y="76.5" width="49" height="13" rx="3" fill="#EF562F"/>
<rect x="417.433" y="80.9546" width="25" height="4.09043" rx="2" fill="white"/>
</g>
<g opacity="0.8" filter="url(#filter2_dd_169_147904)">
<rect width="453" height="36" transform="translate(8 121)" fill="#374151"/>
<path d="M37.7564 136.255H17.6736C16.7493 136.255 16 137.484 16 139C16 140.516 16.7493 141.745 17.6736 141.745H37.7564C38.6807 141.745 39.43 140.516 39.43 139C39.43 137.484 38.6807 136.255 37.7564 136.255Z" fill="#9CA3AF"/>
<path d="M71.9007 136.255H48.3893C47.3072 136.255 46.43 137.484 46.43 139C46.43 140.516 47.3072 141.745 48.3893 141.745H71.9007C72.9828 141.745 73.86 140.516 73.86 139C73.86 137.484 72.9828 136.255 71.9007 136.255Z" fill="#9CA3AF"/>
<path d="M102.616 136.255H82.5336C81.6093 136.255 80.86 137.484 80.86 139C80.86 140.516 81.6093 141.745 82.5336 141.745H102.616C103.541 141.745 104.29 140.516 104.29 139C104.29 137.484 103.541 136.255 102.616 136.255Z" fill="#9CA3AF"/>
<path d="M136.761 136.255H113.249C112.167 136.255 111.29 137.484 111.29 139C111.29 140.516 112.167 141.745 113.249 141.745H136.761C137.843 141.745 138.72 140.516 138.72 139C138.72 137.484 137.843 136.255 136.761 136.255Z" fill="#9CA3AF"/>
<path d="M232 143.167V134.833M232 143.167C232 143.609 231.824 144.032 231.512 144.345C231.199 144.658 230.775 144.833 230.333 144.833H228.667C228.225 144.833 227.801 144.658 227.488 144.345C227.176 144.032 227 143.609 227 143.167V134.833C227 134.391 227.176 133.967 227.488 133.655C227.801 133.342 228.225 133.167 228.667 133.167H230.333C230.775 133.167 231.199 133.342 231.512 133.655C231.824 133.967 232 134.391 232 134.833M232 143.167C232 143.609 232.176 144.032 232.488 144.345C232.801 144.658 233.225 144.833 233.667 144.833H235.333C235.775 144.833 236.199 144.658 236.512 144.345C236.824 144.032 237 143.609 237 143.167M232 134.833C232 134.391 232.176 133.967 232.488 133.655C232.801 133.342 233.225 133.167 233.667 133.167H235.333C235.775 133.167 236.199 133.342 236.512 133.655C236.824 133.967 237 134.391 237 134.833M237 143.167V134.833M237 143.167C237 143.609 237.176 144.032 237.488 144.345C237.801 144.658 238.225 144.833 238.667 144.833H240.333C240.775 144.833 241.199 144.658 241.512 144.345C241.824 144.032 242 143.609 242 143.167V134.833C242 134.391 241.824 133.967 241.512 133.655C241.199 133.342 240.775 133.167 240.333 133.167H238.667C238.225 133.167 237.801 133.342 237.488 133.655C237.176 133.967 237 134.391 237 134.833" stroke="#9CA3AF" stroke-width="2" stroke-linecap="round" stroke-linejoin="round"/>
<rect x="343" y="132.5" width="49" height="13" rx="3" fill="#9CA3AF"/>
<rect x="355" y="136.955" width="25" height="4.09043" rx="2" fill="white"/>
<rect x="404" y="132.5" width="49" height="13" rx="3" fill="#EF562F"/>
<rect x="416" y="136.955" width="25" height="4.09043" rx="2" fill="white"/>
</g>
<defs>
<filter id="filter0_dd_169_147904" x="5" y="7" width="459.433" height="42" filterUnits="userSpaceOnUse" color-interpolation-filters="sRGB">
<feFlood flood-opacity="0" result="BackgroundImageFix"/>
<feColorMatrix in="SourceAlpha" type="matrix" values="0 0 0 0 0 0 0 0 0 0 0 0 0 0 0 0 0 0 127 0" result="hardAlpha"/>
<feOffset dy="1"/>
<feGaussianBlur stdDeviation="1.5"/>
<feColorMatrix type="matrix" values="0 0 0 0 0 0 0 0 0 0 0 0 0 0 0 0 0 0 0.1 0"/>
<feBlend mode="normal" in2="BackgroundImageFix" result="effect1_dropShadow_169_147904"/>
<feColorMatrix in="SourceAlpha" type="matrix" values="0 0 0 0 0 0 0 0 0 0 0 0 0 0 0 0 0 0 127 0" result="hardAlpha"/>
<feOffset dy="1"/>
<feGaussianBlur stdDeviation="1"/>
<feColorMatrix type="matrix" values="0 0 0 0 0 0 0 0 0 0 0 0 0 0 0 0 0 0 0.06 0"/>
<feBlend mode="normal" in2="effect1_dropShadow_169_147904" result="effect2_dropShadow_169_147904"/>
<feBlend mode="normal" in="SourceGraphic" in2="effect2_dropShadow_169_147904" result="shape"/>
</filter>
<filter id="filter1_dd_169_147904" x="5" y="63" width="460.433" height="42" filterUnits="userSpaceOnUse" color-interpolation-filters="sRGB">
<feFlood flood-opacity="0" result="BackgroundImageFix"/>
<feColorMatrix in="SourceAlpha" type="matrix" values="0 0 0 0 0 0 0 0 0 0 0 0 0 0 0 0 0 0 127 0" result="hardAlpha"/>
<feOffset dy="1"/>
<feGaussianBlur stdDeviation="1.5"/>
<feColorMatrix type="matrix" values="0 0 0 0 0 0 0 0 0 0 0 0 0 0 0 0 0 0 0.1 0"/>
<feBlend mode="normal" in2="BackgroundImageFix" result="effect1_dropShadow_169_147904"/>
<feColorMatrix in="SourceAlpha" type="matrix" values="0 0 0 0 0 0 0 0 0 0 0 0 0 0 0 0 0 0 127 0" result="hardAlpha"/>
<feOffset dy="1"/>
<feGaussianBlur stdDeviation="1"/>
<feColorMatrix type="matrix" values="0 0 0 0 0 0 0 0 0 0 0 0 0 0 0 0 0 0 0.06 0"/>
<feBlend mode="normal" in2="effect1_dropShadow_169_147904" result="effect2_dropShadow_169_147904"/>
<feBlend mode="normal" in="SourceGraphic" in2="effect2_dropShadow_169_147904" result="shape"/>
</filter>
<filter id="filter2_dd_169_147904" x="5" y="119" width="459" height="42" filterUnits="userSpaceOnUse" color-interpolation-filters="sRGB">
<feFlood flood-opacity="0" result="BackgroundImageFix"/>
<feColorMatrix in="SourceAlpha" type="matrix" values="0 0 0 0 0 0 0 0 0 0 0 0 0 0 0 0 0 0 127 0" result="hardAlpha"/>
<feOffset dy="1"/>
<feGaussianBlur stdDeviation="1.5"/>
<feColorMatrix type="matrix" values="0 0 0 0 0 0 0 0 0 0 0 0 0 0 0 0 0 0 0.1 0"/>
<feBlend mode="normal" in2="BackgroundImageFix" result="effect1_dropShadow_169_147904"/>
<feColorMatrix in="SourceAlpha" type="matrix" values="0 0 0 0 0 0 0 0 0 0 0 0 0 0 0 0 0 0 127 0" result="hardAlpha"/>
<feOffset dy="1"/>
<feGaussianBlur stdDeviation="1"/>
<feColorMatrix type="matrix" values="0 0 0 0 0 0 0 0 0 0 0 0 0 0 0 0 0 0 0.06 0"/>
<feBlend mode="normal" in2="effect1_dropShadow_169_147904" result="effect2_dropShadow_169_147904"/>
<feBlend mode="normal" in="SourceGraphic" in2="effect2_dropShadow_169_147904" result="shape"/>
</filter>
</defs>
</svg>
