<svg width="330" height="220" viewBox="0 0 330 220" fill="none" xmlns="http://www.w3.org/2000/svg">
<rect x="21.5" y="15.5" width="35" height="35" rx="3.5" fill="#374151"/>
<path fill-rule="evenodd" clip-rule="evenodd" d="M42.2483 27.3518C42.4733 27.5769 42.5996 27.882 42.5996 28.2002C42.5996 28.5184 42.4733 28.8236 42.2483 29.0486L38.2967 33.0002L42.2483 36.9518C42.4669 37.1782 42.5878 37.4813 42.5851 37.7959C42.5824 38.1105 42.4562 38.4115 42.2337 38.634C42.0112 38.8565 41.7102 38.9827 41.3956 38.9854C41.0809 38.9882 40.7778 38.8672 40.5515 38.6486L35.7515 33.8486C35.5265 33.6236 35.4001 33.3184 35.4001 33.0002C35.4001 32.682 35.5265 32.3769 35.7515 32.1518L40.5515 27.3518C40.7765 27.1269 41.0817 27.0005 41.3999 27.0005C41.7181 27.0005 42.0233 27.1269 42.2483 27.3518Z" fill="#9CA3AF"/>
<rect x="21.5" y="15.5" width="35" height="35" rx="3.5" stroke="#4B5563"/>
<rect x="81.5" y="15.5" width="35" height="35" rx="3.5" fill="#374151"/>
<rect x="94" y="28" width="10" height="10" rx="4" fill="#6B7280"/>
<rect x="81.5" y="15.5" width="35" height="35" rx="3.5" stroke="#4B5563"/>
<rect x="125.5" y="15.5" width="35" height="35" rx="3.5" fill="#374151"/>
<rect x="138" y="28" width="10" height="10" rx="4" fill="#6B7280"/>
<rect x="125.5" y="15.5" width="35" height="35" rx="3.5" stroke="#4B5563"/>
<rect x="169.5" y="15.5" width="35" height="35" rx="3.5" fill="#374151"/>
<rect x="182" y="28" width="10" height="10" rx="4" fill="#6B7280"/>
<rect x="169.5" y="15.5" width="35" height="35" rx="3.5" stroke="#4B5563"/>
<rect x="213.5" y="15.5" width="35" height="35" rx="3.5" fill="#374151"/>
<rect x="226" y="28" width="10" height="10" rx="4" fill="#6B7280"/>
<rect x="213.5" y="15.5" width="35" height="35" rx="3.5" stroke="#4B5563"/>
<rect x="273.5" y="15.5" width="35" height="35" rx="3.5" fill="#374151"/>
<path fill-rule="evenodd" clip-rule="evenodd" d="M287.751 38.6483C287.527 38.4233 287.4 38.1181 287.4 37.7999C287.4 37.4817 287.527 37.1765 287.751 36.9515L291.703 32.9999L287.751 29.0483C287.533 28.822 287.412 28.5189 287.415 28.2042C287.417 27.8896 287.544 27.5886 287.766 27.3661C287.989 27.1436 288.29 27.0174 288.604 27.0147C288.919 27.012 289.222 27.1329 289.448 27.3515L294.248 32.1515C294.473 32.3765 294.6 32.6817 294.6 32.9999C294.6 33.3181 294.473 33.6233 294.248 33.8483L289.448 38.6483C289.223 38.8733 288.918 38.9996 288.6 38.9996C288.282 38.9996 287.977 38.8733 287.751 38.6483Z" fill="#9CA3AF"/>
<rect x="273.5" y="15.5" width="35" height="35" rx="3.5" stroke="#4B5563"/>
<path d="M57.5 85V84.5H57H25C22.5147 84.5 20.5 86.5147 20.5 89V117C20.5 119.485 22.5147 121.5 25 121.5H57H57.5V121V85Z" fill="#374151"/>
<path fill-rule="evenodd" clip-rule="evenodd" d="M42.2483 97.3518C42.4733 97.5769 42.5996 97.882 42.5996 98.2002C42.5996 98.5184 42.4733 98.8236 42.2483 99.0486L38.2967 103L42.2483 106.952C42.4669 107.178 42.5878 107.481 42.5851 107.796C42.5824 108.111 42.4562 108.412 42.2337 108.634C42.0112 108.857 41.7102 108.983 41.3956 108.985C41.0809 108.988 40.7778 108.867 40.5515 108.649L35.7515 103.849C35.5265 103.624 35.4001 103.318 35.4001 103C35.4001 102.682 35.5265 102.377 35.7515 102.152L40.5515 97.3518C40.7765 97.1269 41.0817 97.0005 41.3999 97.0005C41.7181 97.0005 42.0233 97.1269 42.2483 97.3518Z" fill="#9CA3AF"/>
<path d="M57.5 85V84.5H57H25C22.5147 84.5 20.5 86.5147 20.5 89V117C20.5 119.485 22.5147 121.5 25 121.5H57H57.5V121V85Z" stroke="#4B5563"/>
<rect x="56.5" y="84.5" width="37" height="37" fill="#374151"/>
<rect x="70" y="98" width="10" height="10" rx="4" fill="#6B7280"/>
<rect x="56.5" y="84.5" width="37" height="37" stroke="#4B5563"/>
<rect x="92.5" y="84.5" width="37" height="37" fill="#374151"/>
<rect x="106" y="98" width="10" height="10" rx="4" fill="#6B7280"/>
<rect x="92.5" y="84.5" width="37" height="37" stroke="#4B5563"/>
<rect x="128.5" y="84.5" width="37" height="37" fill="#374151"/>
<rect x="142" y="98" width="10" height="10" rx="4" fill="#6B7280"/>
<rect x="128.5" y="84.5" width="37" height="37" stroke="#4B5563"/>
<rect x="164.5" y="84.5" width="37" height="37" fill="#374151"/>
<rect x="178" y="98" width="10" height="10" rx="4" fill="#6B7280"/>
<rect x="164.5" y="84.5" width="37" height="37" stroke="#4B5563"/>
<rect x="200.5" y="84.5" width="37" height="37" fill="#374151"/>
<rect x="214" y="98" width="10" height="10" rx="4" fill="#6B7280"/>
<rect x="200.5" y="84.5" width="37" height="37" stroke="#4B5563"/>
<rect x="236.5" y="84.5" width="37" height="37" fill="#374151"/>
<rect x="250" y="98" width="10" height="10" rx="4" fill="#6B7280"/>
<rect x="236.5" y="84.5" width="37" height="37" stroke="#4B5563"/>
<path d="M273 84.5H272.5V85V121V121.5H273H305C307.485 121.5 309.5 119.485 309.5 117V89C309.5 86.5147 307.485 84.5 305 84.5H273Z" fill="#374151"/>
<path fill-rule="evenodd" clip-rule="evenodd" d="M287.751 108.648C287.527 108.423 287.4 108.118 287.4 107.8C287.4 107.482 287.527 107.177 287.751 106.952L291.703 103L287.751 99.0483C287.533 98.822 287.412 98.5189 287.415 98.2042C287.417 97.8896 287.544 97.5886 287.766 97.3661C287.989 97.1436 288.29 97.0174 288.604 97.0147C288.919 97.012 289.222 97.1329 289.448 97.3515L294.248 102.152C294.473 102.377 294.6 102.682 294.6 103C294.6 103.318 294.473 103.623 294.248 103.848L289.448 108.648C289.223 108.873 288.918 109 288.6 109C288.282 109 287.977 108.873 287.751 108.648Z" fill="#9CA3AF"/>
<path d="M273 84.5H272.5V85V121V121.5H273H305C307.485 121.5 309.5 119.485 309.5 117V89C309.5 86.5147 307.485 84.5 305 84.5H273Z" stroke="#4B5563"/>
<rect x="122.5" y="155" width="85" height="12" rx="6" fill="#9CA3AF"/>
<path d="M91 183C91 180.791 92.7909 179 95 179H165V205H95C92.7909 205 91 203.209 91 201V183Z" fill="#EF562F"/>
<rect x="115" y="188" width="26" height="8" rx="2" fill="white"/>
<line x1="164.5" y1="205" x2="164.5" y2="179" stroke="#EB4F27"/>
<path d="M165 179H237C239.209 179 241 180.791 241 183V201C241 203.209 239.209 205 237 205H165V179Z" fill="#EF562F"/>
<rect x="189" y="188" width="28" height="8" rx="2" fill="white"/>
</svg>
