<svg width="330" height="220" viewBox="0 0 330 220" fill="none" xmlns="http://www.w3.org/2000/svg">
<rect x="21.5" y="15.5" width="35" height="35" rx="3.5" fill="#374151"/>
<path fill-rule="evenodd" clip-rule="evenodd" d="M42.2484 27.3516C42.4734 27.5766 42.5998 27.8818 42.5998 28.2C42.5998 28.5182 42.4734 28.8233 42.2484 29.0484L38.2968 33L42.2484 36.9516C42.467 37.1779 42.588 37.481 42.5852 37.7956C42.5825 38.1103 42.4563 38.4113 42.2338 38.6337C42.0113 38.8562 41.7103 38.9824 41.3957 38.9852C41.0811 38.9879 40.7779 38.8669 40.5516 38.6484L35.7516 33.8484C35.5266 33.6233 35.4003 33.3182 35.4003 33C35.4003 32.6818 35.5266 32.3766 35.7516 32.1516L40.5516 27.3516C40.7766 27.1266 41.0818 27.0002 41.4 27.0002C41.7182 27.0002 42.0234 27.1266 42.2484 27.3516V27.3516Z" fill="#9CA3AF"/>
<rect x="21.5" y="15.5" width="35" height="35" rx="3.5" stroke="#4B5563"/>
<rect x="81.5" y="15.5" width="35" height="35" rx="3.5" fill="#374151"/>
<rect x="94" y="28" width="10" height="10" rx="4" fill="#6B7280"/>
<rect x="81.5" y="15.5" width="35" height="35" rx="3.5" stroke="#4B5563"/>
<rect x="125.5" y="15.5" width="35" height="35" rx="3.5" fill="#374151"/>
<rect x="138" y="28" width="10" height="10" rx="4" fill="#6B7280"/>
<rect x="125.5" y="15.5" width="35" height="35" rx="3.5" stroke="#4B5563"/>
<rect x="169.5" y="15.5" width="35" height="35" rx="3.5" fill="#374151"/>
<rect x="182" y="28" width="10" height="10" rx="4" fill="#6B7280"/>
<rect x="169.5" y="15.5" width="35" height="35" rx="3.5" stroke="#4B5563"/>
<rect x="213.5" y="15.5" width="35" height="35" rx="3.5" fill="#374151"/>
<rect x="226" y="28" width="10" height="10" rx="4" fill="#6B7280"/>
<rect x="213.5" y="15.5" width="35" height="35" rx="3.5" stroke="#4B5563"/>
<rect x="273.5" y="15.5" width="35" height="35" rx="3.5" fill="#374151"/>
<path fill-rule="evenodd" clip-rule="evenodd" d="M287.752 38.6485C287.527 38.4235 287.4 38.1183 287.4 37.8001C287.4 37.4819 287.527 37.1767 287.752 36.9517L291.703 33.0001L287.752 29.0485C287.533 28.8222 287.412 28.519 287.415 28.2044C287.418 27.8898 287.544 27.5888 287.766 27.3663C287.989 27.1438 288.29 27.0176 288.604 27.0149C288.919 27.0121 289.222 27.1331 289.448 27.3517L294.248 32.1517C294.473 32.3767 294.6 32.6819 294.6 33.0001C294.6 33.3183 294.473 33.6234 294.248 33.8485L289.448 38.6485C289.223 38.8734 288.918 38.9998 288.6 38.9998C288.282 38.9998 287.977 38.8734 287.752 38.6485Z" fill="#9CA3AF"/>
<rect x="273.5" y="15.5" width="35" height="35" rx="3.5" stroke="#4B5563"/>
<path d="M57.5 85V84.5H57H25C22.5147 84.5 20.5 86.5147 20.5 89V117C20.5 119.485 22.5147 121.5 25 121.5H57H57.5V121V85Z" fill="#374151"/>
<path fill-rule="evenodd" clip-rule="evenodd" d="M42.2484 97.3516C42.4734 97.5766 42.5998 97.8818 42.5998 98.2C42.5998 98.5182 42.4734 98.8233 42.2484 99.0484L38.2968 103L42.2484 106.952C42.467 107.178 42.588 107.481 42.5852 107.796C42.5825 108.11 42.4563 108.411 42.2338 108.634C42.0113 108.856 41.7103 108.982 41.3957 108.985C41.0811 108.988 40.7779 108.867 40.5516 108.648L35.7516 103.848C35.5266 103.623 35.4003 103.318 35.4003 103C35.4003 102.682 35.5266 102.377 35.7516 102.152L40.5516 97.3516C40.7766 97.1266 41.0818 97.0002 41.4 97.0002C41.7182 97.0002 42.0234 97.1266 42.2484 97.3516V97.3516Z" fill="#9CA3AF"/>
<path d="M57.5 85V84.5H57H25C22.5147 84.5 20.5 86.5147 20.5 89V117C20.5 119.485 22.5147 121.5 25 121.5H57H57.5V121V85Z" stroke="#4B5563"/>
<rect x="56.5" y="84.5" width="37" height="37" fill="#374151"/>
<rect x="70" y="98" width="10" height="10" rx="4" fill="#6B7280"/>
<rect x="56.5" y="84.5" width="37" height="37" stroke="#4B5563"/>
<rect x="92.5" y="84.5" width="37" height="37" fill="#374151"/>
<rect x="106" y="98" width="10" height="10" rx="4" fill="#6B7280"/>
<rect x="92.5" y="84.5" width="37" height="37" stroke="#4B5563"/>
<rect x="128.5" y="84.5" width="37" height="37" fill="#374151"/>
<rect x="142" y="98" width="10" height="10" rx="4" fill="#6B7280"/>
<rect x="128.5" y="84.5" width="37" height="37" stroke="#4B5563"/>
<rect x="164.5" y="84.5" width="37" height="37" fill="#374151"/>
<rect x="178" y="98" width="10" height="10" rx="4" fill="#6B7280"/>
<rect x="164.5" y="84.5" width="37" height="37" stroke="#4B5563"/>
<rect x="200.5" y="84.5" width="37" height="37" fill="#374151"/>
<rect x="214" y="98" width="10" height="10" rx="4" fill="#6B7280"/>
<rect x="200.5" y="84.5" width="37" height="37" stroke="#4B5563"/>
<rect x="236.5" y="84.5" width="37" height="37" fill="#374151"/>
<rect x="250" y="98" width="10" height="10" rx="4" fill="#6B7280"/>
<rect x="236.5" y="84.5" width="37" height="37" stroke="#4B5563"/>
<path d="M273 84.5H272.5V85V121V121.5H273H305C307.485 121.5 309.5 119.485 309.5 117V89C309.5 86.5147 307.485 84.5 305 84.5H273Z" fill="#374151"/>
<path fill-rule="evenodd" clip-rule="evenodd" d="M287.752 108.648C287.527 108.423 287.4 108.118 287.4 107.8C287.4 107.482 287.527 107.177 287.752 106.952L291.703 103L287.752 99.0485C287.533 98.8222 287.412 98.519 287.415 98.2044C287.418 97.8898 287.544 97.5888 287.766 97.3663C287.989 97.1438 288.29 97.0176 288.604 97.0149C288.919 97.0121 289.222 97.1331 289.448 97.3517L294.248 102.152C294.473 102.377 294.6 102.682 294.6 103C294.6 103.318 294.473 103.623 294.248 103.848L289.448 108.648C289.223 108.873 288.918 109 288.6 109C288.282 109 287.977 108.873 287.752 108.648Z" fill="#9CA3AF"/>
<path d="M273 84.5H272.5V85V121V121.5H273H305C307.485 121.5 309.5 119.485 309.5 117V89C309.5 86.5147 307.485 84.5 305 84.5H273Z" stroke="#4B5563"/>
<rect x="122.5" y="155" width="85" height="12" rx="6" fill="#9CA3AF"/>
<path d="M91 183C91 180.791 92.7909 179 95 179H165V205H95C92.7909 205 91 203.209 91 201V183Z" fill="#1C64F2"/>
<rect x="115" y="188" width="26" height="8" rx="2" fill="white"/>
<line x1="164.5" y1="205" x2="164.5" y2="179" stroke="#1A56DB"/>
<path d="M165 179H237C239.209 179 241 180.791 241 183V201C241 203.209 239.209 205 237 205H165V179Z" fill="#1C64F2"/>
<rect x="189" y="188" width="28" height="8" rx="2" fill="white"/>
</svg>
