<svg width="350" height="230" viewBox="0 0 350 230" fill="none" xmlns="http://www.w3.org/2000/svg">
<rect width="10.2379" height="9.774" transform="matrix(0.586967 -0.809611 0.586967 0.809611 169 148.289)" fill="#F3F4F6"/>
<rect x="86" y="21" width="176" height="129" rx="6" fill="#F3F4F6"/>
<path d="M97.5477 48.2877C99.821 47.0027 102.389 46.3294 105 46.3333C107.708 46.3333 110.251 47.0429 112.452 48.2877M108.25 39.8333C108.25 40.6953 107.908 41.5219 107.298 42.1314C106.689 42.7409 105.862 43.0833 105 43.0833C104.138 43.0833 103.311 42.7409 102.702 42.1314C102.092 41.5219 101.75 40.6953 101.75 39.8333C101.75 38.9714 102.092 38.1447 102.702 37.5352C103.311 36.9257 104.138 36.5833 105 36.5833C105.862 36.5833 106.689 36.9257 107.298 37.5352C107.908 38.1447 108.25 38.9714 108.25 39.8333ZM114.75 42C114.75 43.2804 114.498 44.5482 114.008 45.7312C113.518 46.9141 112.8 47.9889 111.894 48.8943C110.989 49.7997 109.914 50.5178 108.731 51.0078C107.548 51.4978 106.28 51.75 105 51.75C103.72 51.75 102.452 51.4978 101.269 51.0078C100.086 50.5178 99.0111 49.7997 98.1057 48.8943C97.2003 47.9889 96.4822 46.9141 95.9922 45.7312C95.5022 44.5482 95.25 43.2804 95.25 42C95.25 39.4141 96.2772 36.9342 98.1057 35.1057C99.9342 33.2772 102.414 32.25 105 32.25C107.586 32.25 110.066 33.2772 111.894 35.1057C113.723 36.9342 114.75 39.4141 114.75 42Z" stroke="#9CA3AF" stroke-width="2" stroke-linecap="round" stroke-linejoin="round"/>
<rect x="92" y="60" width="54" height="8" rx="2" fill="#9CA3AF"/>
<rect x="92" y="73" width="76" height="6" rx="2" fill="#D1D5DB"/>
<rect x="92" y="95" width="157" height="6" rx="2" fill="#E5E7EB"/>
<rect x="92" y="106" width="96" height="6" rx="2" fill="#E5E7EB"/>
<rect x="91.7031" y="132" width="20" height="6" rx="2" fill="#D1D5DB"/>
<rect x="118.703" y="132" width="48" height="6" rx="2" fill="#E5E7EB"/>
<rect x="181" y="132" width="20" height="6" rx="2" fill="#D1D5DB"/>
<rect x="208" y="132" width="31" height="6" rx="2" fill="#E5E7EB"/>
<rect x="218" y="28" width="38.2963" height="16" rx="3" fill="#EB4F27"/>
<rect x="228" y="33.5" width="18.2963" height="5" rx="2" fill="white"/>
<rect x="99" y="163" width="151" height="35" rx="8" fill="#EB4F27"/>
<rect x="123" y="175.5" width="103" height="10" rx="2" fill="white"/>
</svg>
