<svg width="316" height="88" viewBox="0 0 316 88" fill="none" xmlns="http://www.w3.org/2000/svg">
<rect x="0.5" y="8" width="315" height="8" rx="4" fill="#4B5563"/>
<rect x="0.5" y="8" width="256" height="8" rx="4" fill="#1C64F2"/>
<g filter="url(#filter0_d_2666_7511)">
<rect width="20" height="20" rx="10" transform="matrix(-1 0 0 1 256.5 2)" fill="white"/>
<circle cx="246.5" cy="12" r="10" fill="#9CA3AF"/>
<rect x="0.5" y="-0.5" width="21" height="21" rx="10.5" transform="matrix(-1 0 0 1 257.5 2)" stroke="#9CA3AF"/>
</g>
<path fill-rule="evenodd" clip-rule="evenodd" d="M11.7596 65.6912C11.9788 65.7821 12.1661 65.9359 12.2979 66.1333C12.4297 66.3307 12.5 66.5627 12.5 66.8V81.2C12.4999 81.4373 12.4295 81.6692 12.2976 81.8665C12.1658 82.0638 11.9784 82.2176 11.7591 82.3084C11.5399 82.3992 11.2987 82.423 11.0659 82.3767C10.8332 82.3304 10.6194 82.2162 10.4516 82.0484L6.00315 77.6H2.89995C2.58169 77.6 2.27647 77.4736 2.05142 77.2485C1.82638 77.0235 1.69995 76.7183 1.69995 76.4V71.6C1.69995 71.2817 1.82638 70.9765 2.05142 70.7515C2.27647 70.5264 2.58169 70.4 2.89995 70.4H6.00315L10.4516 65.9516C10.6194 65.7837 10.8332 65.6693 11.066 65.623C11.2989 65.5766 11.5402 65.6003 11.7596 65.6912V65.6912ZM15.2516 70.7516C15.4766 70.5266 15.7818 70.4002 16.1 70.4002C16.4181 70.4002 16.7233 70.5266 16.9483 70.7516L18.5 72.3032L20.0515 70.7516C20.1622 70.637 20.2947 70.5456 20.4411 70.4827C20.5875 70.4198 20.7449 70.3867 20.9043 70.3853C21.0636 70.3839 21.2216 70.4143 21.3691 70.4746C21.5166 70.5349 21.6506 70.624 21.7632 70.7367C21.8759 70.8494 21.965 70.9834 22.0253 71.1308C22.0857 71.2783 22.116 71.4363 22.1147 71.5957C22.1133 71.755 22.0802 71.9125 22.0173 72.0589C21.9544 72.2053 21.863 72.3377 21.7484 72.4484L20.1967 74L21.7484 75.5516C21.9669 75.7779 22.0879 76.081 22.0852 76.3957C22.0824 76.7103 21.9562 77.0113 21.7337 77.2338C21.5112 77.4563 21.2103 77.5825 20.8956 77.5852C20.581 77.5879 20.2779 77.467 20.0515 77.2484L18.5 75.6968L16.9483 77.2484C16.722 77.467 16.4189 77.5879 16.1043 77.5852C15.7896 77.5825 15.4887 77.4563 15.2662 77.2338C15.0437 77.0113 14.9175 76.7103 14.9147 76.3957C14.912 76.081 15.033 75.7779 15.2516 75.5516L16.8032 74L15.2516 72.4484C15.0266 72.2234 14.9002 71.9182 14.9002 71.6C14.9002 71.2818 15.0266 70.9766 15.2516 70.7516V70.7516Z" fill="#9CA3AF"/>
<rect x="36.5" y="70" width="174" height="8" rx="4" fill="#1E429F"/>
<rect x="36" y="70" width="114" height="8" rx="4" fill="#1C64F2"/>
<g filter="url(#filter1_d_2666_7511)">
<rect width="20" height="20" rx="10" transform="matrix(-1 0 0 1 150 64)" fill="#9CA3AF"/>
<circle cx="140" cy="74" r="10" fill="#9CA3AF"/>
<rect x="0.5" y="-0.5" width="21" height="21" rx="10.5" transform="matrix(-1 0 0 1 151 64)" stroke="#9CA3AF"/>
</g>
<path fill-rule="evenodd" clip-rule="evenodd" d="M233.76 65.6913C233.979 65.7822 234.166 65.9361 234.298 66.1334C234.43 66.3308 234.5 66.5628 234.5 66.8001V81.2001C234.5 81.4374 234.429 81.6694 234.298 81.8667C234.166 82.064 233.978 82.2177 233.759 82.3085C233.54 82.3993 233.299 82.4231 233.066 82.3768C232.833 82.3305 232.619 82.2163 232.452 82.0485L228.003 77.6001H224.9C224.582 77.6001 224.276 77.4737 224.051 77.2486C223.826 77.0236 223.7 76.7184 223.7 76.4001V71.6001C223.7 71.2819 223.826 70.9766 224.051 70.7516C224.276 70.5265 224.582 70.4001 224.9 70.4001H228.003L232.452 65.9517C232.619 65.7838 232.833 65.6694 233.066 65.6231C233.299 65.5767 233.54 65.6005 233.76 65.6913V65.6913ZM240.088 65.5149C240.313 65.29 240.619 65.1636 240.937 65.1636C241.255 65.1636 241.56 65.29 241.785 65.5149C242.901 66.6281 243.786 67.9507 244.389 69.4069C244.992 70.863 245.302 72.424 245.3 74.0001C245.302 75.5762 244.992 77.1372 244.389 78.5933C243.786 80.0495 242.901 81.3721 241.785 82.4853C241.559 82.7039 241.256 82.8249 240.941 82.8221C240.626 82.8194 240.325 82.6932 240.103 82.4707C239.88 82.2482 239.754 81.9472 239.752 81.6326C239.749 81.318 239.87 81.0148 240.088 80.7885C240.981 79.8982 241.689 78.8401 242.172 77.6751C242.654 76.51 242.902 75.2611 242.9 74.0001C242.9 71.3481 241.827 68.9505 240.088 67.2117C239.863 66.9867 239.737 66.6815 239.737 66.3633C239.737 66.0451 239.863 65.74 240.088 65.5149V65.5149ZM236.694 68.9085C236.805 68.7969 236.937 68.7084 237.083 68.648C237.229 68.5877 237.385 68.5566 237.543 68.5566C237.7 68.5566 237.856 68.5877 238.002 68.648C238.148 68.7084 238.28 68.7969 238.392 68.9085C239.061 69.5765 239.592 70.3702 239.954 71.244C240.316 72.1177 240.501 73.0544 240.5 74.0001C240.501 74.9458 240.315 75.8825 239.954 76.7562C239.592 77.63 239.061 78.4237 238.392 79.0917C238.166 79.3169 237.861 79.4434 237.543 79.4434C237.224 79.4434 236.919 79.3169 236.694 79.0917C236.468 78.8665 236.342 78.5612 236.342 78.2427C236.342 77.9243 236.468 77.6189 236.694 77.3937C237.14 76.9487 237.494 76.4198 237.736 75.8374C237.977 75.255 238.101 74.6306 238.1 74.0001C238.101 73.3697 237.977 72.7452 237.736 72.1628C237.494 71.5804 237.14 71.0515 236.694 70.6065C236.582 70.4951 236.493 70.3627 236.433 70.217C236.373 70.0714 236.342 69.9152 236.342 69.7575C236.342 69.5998 236.373 69.4437 236.433 69.298C236.493 69.1523 236.582 69.02 236.694 68.9085V68.9085Z" fill="#9CA3AF"/>
<defs>
<filter id="filter0_d_2666_7511" x="233.5" y="0" width="26" height="26" filterUnits="userSpaceOnUse" color-interpolation-filters="sRGB">
<feFlood flood-opacity="0" result="BackgroundImageFix"/>
<feColorMatrix in="SourceAlpha" type="matrix" values="0 0 0 0 0 0 0 0 0 0 0 0 0 0 0 0 0 0 127 0" result="hardAlpha"/>
<feOffset dy="1"/>
<feGaussianBlur stdDeviation="1"/>
<feColorMatrix type="matrix" values="0 0 0 0 0 0 0 0 0 0 0 0 0 0 0 0 0 0 0.08 0"/>
<feBlend mode="normal" in2="BackgroundImageFix" result="effect1_dropShadow_2666_7511"/>
<feBlend mode="normal" in="SourceGraphic" in2="effect1_dropShadow_2666_7511" result="shape"/>
</filter>
<filter id="filter1_d_2666_7511" x="127" y="62" width="26" height="26" filterUnits="userSpaceOnUse" color-interpolation-filters="sRGB">
<feFlood flood-opacity="0" result="BackgroundImageFix"/>
<feColorMatrix in="SourceAlpha" type="matrix" values="0 0 0 0 0 0 0 0 0 0 0 0 0 0 0 0 0 0 127 0" result="hardAlpha"/>
<feOffset dy="1"/>
<feGaussianBlur stdDeviation="1"/>
<feColorMatrix type="matrix" values="0 0 0 0 0 0 0 0 0 0 0 0 0 0 0 0 0 0 0.08 0"/>
<feBlend mode="normal" in2="BackgroundImageFix" result="effect1_dropShadow_2666_7511"/>
<feBlend mode="normal" in="SourceGraphic" in2="effect1_dropShadow_2666_7511" result="shape"/>
</filter>
</defs>
</svg>
