<svg width="410" height="240" viewBox="0 0 410 240" fill="none" xmlns="http://www.w3.org/2000/svg">
<path d="M105.644 59.6344C105.914 58.8055 107.087 58.8055 107.356 59.6344L108.319 62.5972C108.378 62.7776 108.492 62.9348 108.646 63.0464C108.799 63.1579 108.984 63.218 109.174 63.2182H112.29C113.162 63.2182 113.524 64.3342 112.819 64.8472L110.299 66.6778C110.145 66.7894 110.03 66.9469 109.972 67.1276C109.913 67.3084 109.913 67.5031 109.971 67.684L110.934 70.6468C111.204 71.4757 110.255 72.166 109.548 71.653L107.028 69.8224C106.875 69.7108 106.69 69.6507 106.5 69.6507C106.31 69.6507 106.125 69.7108 105.971 69.8224L103.451 71.653C102.745 72.166 101.797 71.4757 102.066 70.6468L103.029 67.684C103.087 67.5031 103.087 67.3084 103.028 67.1276C102.97 66.9469 102.855 66.7894 102.701 66.6778L100.182 64.8481C99.4773 64.3351 99.84 63.2191 100.711 63.2191H103.826C104.016 63.2191 104.201 63.1591 104.355 63.0475C104.509 62.936 104.623 62.7787 104.682 62.5981L105.645 59.6353L105.644 59.6344Z" fill="#FACA15"/>
<path d="M124.644 59.6344C124.914 58.8055 126.087 58.8055 126.356 59.6344L127.319 62.5972C127.378 62.7776 127.492 62.9348 127.646 63.0464C127.799 63.1579 127.984 63.218 128.174 63.2182H131.29C132.162 63.2182 132.524 64.3342 131.819 64.8472L129.299 66.6778C129.145 66.7894 129.03 66.9469 128.972 67.1276C128.913 67.3084 128.913 67.5031 128.971 67.684L129.934 70.6468C130.204 71.4757 129.255 72.166 128.548 71.653L126.028 69.8224C125.875 69.7108 125.69 69.6507 125.5 69.6507C125.31 69.6507 125.125 69.7108 124.971 69.8224L122.451 71.653C121.745 72.166 120.797 71.4757 121.066 70.6468L122.029 67.684C122.087 67.5031 122.087 67.3084 122.028 67.1276C121.97 66.9469 121.855 66.7894 121.701 66.6778L119.182 64.8481C118.477 64.3351 118.84 63.2191 119.711 63.2191H122.826C123.016 63.2191 123.201 63.1591 123.355 63.0475C123.509 62.936 123.623 62.7787 123.682 62.5981L124.645 59.6353L124.644 59.6344Z" fill="#FACA15"/>
<path d="M143.644 59.6344C143.914 58.8055 145.087 58.8055 145.356 59.6344L146.319 62.5972C146.378 62.7776 146.492 62.9348 146.646 63.0464C146.799 63.1579 146.984 63.218 147.174 63.2182H150.29C151.162 63.2182 151.524 64.3342 150.819 64.8472L148.299 66.6778C148.145 66.7894 148.03 66.9469 147.972 67.1276C147.913 67.3084 147.913 67.5031 147.971 67.684L148.934 70.6468C149.204 71.4757 148.255 72.166 147.548 71.653L145.028 69.8224C144.875 69.7108 144.69 69.6507 144.5 69.6507C144.31 69.6507 144.125 69.7108 143.971 69.8224L141.451 71.653C140.745 72.166 139.797 71.4757 140.066 70.6468L141.029 67.684C141.087 67.5031 141.087 67.3084 141.028 67.1276C140.97 66.9469 140.855 66.7894 140.701 66.6778L138.182 64.8481C137.477 64.3351 137.84 63.2191 138.711 63.2191H141.826C142.016 63.2191 142.201 63.1591 142.355 63.0475C142.509 62.936 142.623 62.7787 142.682 62.5981L143.645 59.6353L143.644 59.6344Z" fill="#FACA15"/>
<path d="M162.644 59.6344C162.914 58.8055 164.087 58.8055 164.356 59.6344L165.319 62.5972C165.378 62.7776 165.492 62.9348 165.646 63.0464C165.799 63.1579 165.984 63.218 166.174 63.2182H169.29C170.162 63.2182 170.524 64.3342 169.819 64.8472L167.299 66.6778C167.145 66.7894 167.03 66.9469 166.972 67.1276C166.913 67.3084 166.913 67.5031 166.971 67.684L167.934 70.6468C168.204 71.4757 167.255 72.166 166.548 71.653L164.028 69.8224C163.875 69.7108 163.69 69.6507 163.5 69.6507C163.31 69.6507 163.125 69.7108 162.971 69.8224L160.451 71.653C159.745 72.166 158.797 71.4757 159.066 70.6468L160.029 67.684C160.087 67.5031 160.087 67.3084 160.028 67.1276C159.97 66.9469 159.855 66.7894 159.701 66.6778L157.182 64.8481C156.477 64.3351 156.84 63.2191 157.711 63.2191H160.826C161.016 63.2191 161.201 63.1591 161.355 63.0475C161.509 62.936 161.623 62.7787 161.682 62.5981L162.645 59.6353L162.644 59.6344Z" fill="#FACA15"/>
<path d="M181.644 59.6344C181.914 58.8055 183.087 58.8055 183.356 59.6344L184.319 62.5972C184.378 62.7776 184.492 62.9348 184.646 63.0464C184.799 63.1579 184.984 63.218 185.174 63.2182H188.29C189.162 63.2182 189.524 64.3342 188.819 64.8472L186.299 66.6778C186.145 66.7894 186.03 66.9469 185.972 67.1276C185.913 67.3084 185.913 67.5031 185.971 67.684L186.934 70.6468C187.204 71.4757 186.255 72.166 185.548 71.653L183.028 69.8224C182.875 69.7108 182.69 69.6507 182.5 69.6507C182.31 69.6507 182.125 69.7108 181.971 69.8224L179.451 71.653C178.745 72.166 177.797 71.4757 178.066 70.6468L179.029 67.684C179.087 67.5031 179.087 67.3084 179.028 67.1276C178.97 66.9469 178.855 66.7894 178.701 66.6778L176.182 64.8481C175.477 64.3351 175.84 63.2191 176.711 63.2191H179.826C180.016 63.2191 180.201 63.1591 180.355 63.0475C180.509 62.936 180.623 62.7787 180.682 62.5981L181.645 59.6353L181.644 59.6344Z" fill="#4B5563"/>
<path d="M105.644 89.6344C105.914 88.8055 107.087 88.8055 107.356 89.6344L108.319 92.5972C108.378 92.7776 108.492 92.9348 108.646 93.0464C108.799 93.1579 108.984 93.218 109.174 93.2182H112.29C113.162 93.2182 113.524 94.3342 112.819 94.8472L110.299 96.6778C110.145 96.7894 110.03 96.9469 109.972 97.1276C109.913 97.3084 109.913 97.5031 109.971 97.684L110.934 100.647C111.204 101.476 110.255 102.166 109.548 101.653L107.028 99.8224C106.875 99.7108 106.69 99.6507 106.5 99.6507C106.31 99.6507 106.125 99.7108 105.971 99.8224L103.451 101.653C102.745 102.166 101.797 101.476 102.066 100.647L103.029 97.684C103.087 97.5031 103.087 97.3084 103.028 97.1276C102.97 96.9469 102.855 96.7894 102.701 96.6778L100.182 94.8481C99.4773 94.3351 99.84 93.2191 100.711 93.2191H103.826C104.016 93.2191 104.201 93.1591 104.355 93.0475C104.509 92.936 104.623 92.7787 104.682 92.5981L105.645 89.6353L105.644 89.6344Z" fill="#FACA15"/>
<rect x="118.5" y="94" width="17" height="4" rx="2" fill="#6B7280"/>
<rect x="141.5" y="94" width="36" height="4" rx="2" fill="#9CA3AF"/>
<path d="M105.644 119.634C105.914 118.805 107.087 118.805 107.356 119.634L108.319 122.597C108.378 122.778 108.492 122.935 108.646 123.046C108.799 123.158 108.984 123.218 109.174 123.218H112.29C113.162 123.218 113.524 124.334 112.819 124.847L110.299 126.678C110.145 126.789 110.03 126.947 109.972 127.128C109.913 127.308 109.913 127.503 109.971 127.684L110.934 130.647C111.204 131.476 110.255 132.166 109.548 131.653L107.028 129.822C106.875 129.711 106.69 129.651 106.5 129.651C106.31 129.651 106.125 129.711 105.971 129.822L103.451 131.653C102.745 132.166 101.797 131.476 102.066 130.647L103.029 127.684C103.087 127.503 103.087 127.308 103.028 127.128C102.97 126.947 102.855 126.789 102.701 126.678L100.182 124.848C99.4773 124.335 99.84 123.219 100.711 123.219H103.826C104.016 123.219 104.201 123.159 104.355 123.048C104.509 122.936 104.623 122.779 104.682 122.598L105.645 119.635L105.644 119.634Z" fill="#FACA15"/>
<path d="M124.644 119.634C124.914 118.805 126.087 118.805 126.356 119.634L127.319 122.597C127.378 122.778 127.492 122.935 127.646 123.046C127.799 123.158 127.984 123.218 128.174 123.218H131.29C132.162 123.218 132.524 124.334 131.819 124.847L129.299 126.678C129.145 126.789 129.03 126.947 128.972 127.128C128.913 127.308 128.913 127.503 128.971 127.684L129.934 130.647C130.204 131.476 129.255 132.166 128.548 131.653L126.028 129.822C125.875 129.711 125.69 129.651 125.5 129.651C125.31 129.651 125.125 129.711 124.971 129.822L122.451 131.653C121.745 132.166 120.797 131.476 121.066 130.647L122.029 127.684C122.087 127.503 122.087 127.308 122.028 127.128C121.97 126.947 121.855 126.789 121.701 126.678L119.182 124.848C118.477 124.335 118.84 123.219 119.711 123.219H122.826C123.016 123.219 123.201 123.159 123.355 123.048C123.509 122.936 123.623 122.779 123.682 122.598L124.645 119.635L124.644 119.634Z" fill="#FACA15"/>
<path d="M143.644 119.634C143.914 118.805 145.087 118.805 145.356 119.634L146.319 122.597C146.378 122.778 146.492 122.935 146.646 123.046C146.799 123.158 146.984 123.218 147.174 123.218H150.29C151.162 123.218 151.524 124.334 150.819 124.847L148.299 126.678C148.145 126.789 148.03 126.947 147.972 127.128C147.913 127.308 147.913 127.503 147.971 127.684L148.934 130.647C149.204 131.476 148.255 132.166 147.548 131.653L145.028 129.822C144.875 129.711 144.69 129.651 144.5 129.651C144.31 129.651 144.125 129.711 143.971 129.822L141.451 131.653C140.745 132.166 139.797 131.476 140.066 130.647L141.029 127.684C141.087 127.503 141.087 127.308 141.028 127.128C140.97 126.947 140.855 126.789 140.701 126.678L138.182 124.848C137.477 124.335 137.84 123.219 138.711 123.219H141.826C142.016 123.219 142.201 123.159 142.355 123.048C142.509 122.936 142.623 122.779 142.682 122.598L143.645 119.635L143.644 119.634Z" fill="#FACA15"/>
<path d="M162.644 119.634C162.914 118.805 164.087 118.805 164.356 119.634L165.319 122.597C165.378 122.778 165.492 122.935 165.646 123.046C165.799 123.158 165.984 123.218 166.174 123.218H169.29C170.162 123.218 170.524 124.334 169.819 124.847L167.299 126.678C167.145 126.789 167.03 126.947 166.972 127.128C166.913 127.308 166.913 127.503 166.971 127.684L167.934 130.647C168.204 131.476 167.255 132.166 166.548 131.653L164.028 129.822C163.875 129.711 163.69 129.651 163.5 129.651C163.31 129.651 163.125 129.711 162.971 129.822L160.451 131.653C159.745 132.166 158.797 131.476 159.066 130.647L160.029 127.684C160.087 127.503 160.087 127.308 160.028 127.128C159.97 126.947 159.855 126.789 159.701 126.678L157.182 124.848C156.477 124.335 156.84 123.219 157.711 123.219H160.826C161.016 123.219 161.201 123.159 161.355 123.048C161.509 122.936 161.623 122.779 161.682 122.598L162.645 119.635L162.644 119.634Z" fill="#FACA15"/>
<path d="M181.644 119.634C181.914 118.805 183.087 118.805 183.356 119.634L184.319 122.597C184.378 122.778 184.492 122.935 184.646 123.046C184.799 123.158 184.984 123.218 185.174 123.218H188.29C189.162 123.218 189.524 124.334 188.819 124.847L186.299 126.678C186.145 126.789 186.03 126.947 185.972 127.128C185.913 127.308 185.913 127.503 185.971 127.684L186.934 130.647C187.204 131.476 186.255 132.166 185.548 131.653L183.028 129.822C182.875 129.711 182.69 129.651 182.5 129.651C182.31 129.651 182.125 129.711 181.971 129.822L179.451 131.653C178.745 132.166 177.797 131.476 178.066 130.647L179.029 127.684C179.087 127.503 179.087 127.308 179.028 127.128C178.97 126.947 178.855 126.789 178.701 126.678L176.182 124.848C175.477 124.335 175.84 123.219 176.711 123.219H179.826C180.016 123.219 180.201 123.159 180.355 123.048C180.509 122.936 180.623 122.779 180.682 122.598L181.645 119.635L181.644 119.634Z" fill="#FACA15"/>
<rect x="194.5" y="124" width="17" height="4" rx="2" fill="#6B7280"/>
<rect x="217.5" y="124" width="36" height="4" rx="2" fill="#9CA3AF"/>
<rect x="97.5" y="143" width="17" height="4" rx="2" fill="#9CA3AF"/>
<rect x="120.5" y="143" width="169" height="4" rx="2" fill="#6B7280"/>
<rect x="295.5" y="143" width="17" height="4" rx="2" fill="#9CA3AF"/>
<rect x="97.5" y="155" width="17" height="4" rx="2" fill="#9CA3AF"/>
<rect x="120.5" y="155" width="169" height="4" rx="2" fill="#6B7280"/>
<rect x="295.5" y="155" width="17" height="4" rx="2" fill="#9CA3AF"/>
<rect x="97.5" y="167" width="17" height="4" rx="2" fill="#9CA3AF"/>
<rect x="120.5" y="167" width="169" height="4" rx="2" fill="#6B7280"/>
<rect x="295.5" y="167" width="17" height="4" rx="2" fill="#9CA3AF"/>
<rect x="97.5" y="179" width="17" height="4" rx="2" fill="#9CA3AF"/>
<rect x="120.5" y="179" width="169" height="4" rx="2" fill="#6B7280"/>
<rect x="295.5" y="179" width="17" height="4" rx="2" fill="#9CA3AF"/>
</svg>
