<svg width="318" height="106" viewBox="0 0 318 106" fill="none" xmlns="http://www.w3.org/2000/svg">
<g filter="url(#filter0_dd_2665_3680)">
<path d="M6 10C6 5.58172 9.58172 2 14 2H91.416V37H14C9.58172 37 6 33.4183 6 29V10Z" fill="#4B5563"/>
<rect x="20" y="16" width="40.416" height="7" rx="2" fill="#9CA3AF"/>
<path d="M74.4161 20.6759L74.0625 20.3223L71.4282 17.688C71.4282 17.688 71.4282 17.688 71.4281 17.6879C71.3719 17.6317 71.2956 17.6002 71.2161 17.6002C71.1366 17.6002 71.0603 17.6317 71.0041 17.6879C71.0041 17.6879 71.004 17.688 71.004 17.688M74.4161 20.6759L71.004 17.688M74.4161 20.6759L74.7696 20.3223L77.404 17.6879L77.4041 17.688L77.4101 17.6818C77.4378 17.6531 77.4709 17.6302 77.5075 17.6145C77.5441 17.5988 77.5835 17.5905 77.6233 17.5902C77.6631 17.5898 77.7027 17.5974 77.7395 17.6125C77.7764 17.6276 77.8099 17.6499 77.8381 17.678C77.8662 17.7062 77.8885 17.7397 77.9036 17.7766C77.9187 17.8134 77.9263 17.8529 77.9259 17.8928C77.9256 17.9326 77.9173 17.972 77.9016 18.0086C77.8858 18.0452 77.863 18.0783 77.8343 18.106L77.8343 18.1059L77.8281 18.112L74.6282 21.312C74.6282 21.312 74.6282 21.312 74.6281 21.312C74.5719 21.3682 74.4956 21.3998 74.4161 21.3998C74.3366 21.3998 74.2603 21.3682 74.204 21.312C74.204 21.312 74.204 21.312 74.204 21.312L71.0041 18.1121M74.4161 20.6759L71.0041 18.1121M71.004 17.688C70.9478 17.7442 70.9163 17.8205 70.9163 17.9C70.9163 17.9795 70.9478 18.0558 71.004 18.112M71.004 17.688L71.004 18.112M71.004 18.112L71.0041 18.1121M71.004 18.112L71.0041 18.1121" fill="white" stroke="#9CA3AF"/>
<path d="M14 2.5H90.916V36.5H14C9.85786 36.5 6.5 33.1421 6.5 29V10C6.5 5.85786 9.85786 2.5 14 2.5Z" stroke="#4B5563"/>
</g>
<g filter="url(#filter1_dd_2665_3680)">
<path d="M91.416 2H277.416V37H91.416V2Z" fill="#374151"/>
<rect x="109.416" y="16" width="150" height="7" rx="2" fill="#9CA3AF"/>
<path d="M91.916 2.5H276.916V36.5H91.916V2.5Z" stroke="#4B5563"/>
</g>
<g filter="url(#filter2_dd_2665_3680)">
<path d="M277.416 2H303.416C307.834 2 311.416 5.58172 311.416 10V29C311.416 33.4183 307.834 37 303.416 37H277.416V2Z" fill="#1C64F2"/>
<path d="M296.321 20.3911L296.076 20.7355L296.375 21.0343L300.224 24.8841C300.278 24.9405 300.307 25.0152 300.306 25.0928C300.306 25.1714 300.274 25.2467 300.218 25.3023C300.163 25.3579 300.088 25.3895 300.009 25.3902C299.931 25.3908 299.857 25.3614 299.8 25.3082L295.951 21.4592L295.652 21.1604L295.308 21.4053C294.665 21.8627 293.908 22.1343 293.12 22.1901C292.333 22.246 291.546 22.0841 290.844 21.7221C290.143 21.36 289.554 20.8119 289.144 20.1378C288.733 19.4636 288.516 18.6895 288.516 17.9001L288.016 17.9L288.516 17.8999C288.516 17.2232 288.676 16.556 288.982 15.9526C289.288 15.3491 289.733 14.8266 290.279 14.4273C290.826 14.0281 291.459 13.7635 292.127 13.655C292.795 13.5465 293.479 13.5972 294.124 13.803C294.768 14.0088 295.355 14.3638 295.837 14.8393C296.319 15.3147 296.681 15.8971 296.895 16.5391C297.109 17.1811 297.169 17.8645 297.069 18.5339C296.969 19.2032 296.713 19.8395 296.321 20.3911ZM292.816 14.2C291.835 14.2 290.894 14.5898 290.2 15.2837C289.506 15.9776 289.116 16.9187 289.116 17.9C289.116 18.8813 289.506 19.8224 290.2 20.5163C290.894 21.2102 291.835 21.6 292.816 21.6C293.797 21.6 294.739 21.2102 295.432 20.5163C296.126 19.8224 296.516 18.8813 296.516 17.9C296.516 16.9187 296.126 15.9776 295.432 15.2837C294.739 14.5898 293.797 14.2 292.816 14.2Z" fill="white" stroke="white"/>
<path d="M277.916 2.5H303.416C307.558 2.5 310.916 5.85786 310.916 10V29C310.916 33.1421 307.558 36.5 303.416 36.5H277.916V2.5Z" stroke="#1C64F2"/>
</g>
<g filter="url(#filter3_dd_2665_3680)">
<path d="M6 69C6 64.5817 9.58172 61 14 61H304C308.418 61 312 64.5817 312 69V88C312 92.4183 308.418 96 304 96H14C9.58172 96 6 92.4183 6 88V69Z" fill="#374151"/>
<path d="M38 84.5L34 80.5M35.3333 77.1667C35.3333 77.7795 35.2126 78.3863 34.9781 78.9525C34.7436 79.5187 34.3998 80.0332 33.9665 80.4665C33.5332 80.8998 33.0187 81.2436 32.4525 81.4781C31.8863 81.7126 31.2795 81.8333 30.6667 81.8333C30.0538 81.8333 29.447 81.7126 28.8808 81.4781C28.3146 81.2436 27.8002 80.8998 27.3668 80.4665C26.9335 80.0332 26.5898 79.5187 26.3552 78.9525C26.1207 78.3863 26 77.7795 26 77.1667C26 75.929 26.4917 74.742 27.3668 73.8668C28.242 72.9917 29.429 72.5 30.6667 72.5C31.9043 72.5 33.0913 72.9917 33.9665 73.8668C34.8417 74.742 35.3333 75.929 35.3333 77.1667Z" stroke="#9CA3AF" stroke-width="2" stroke-linecap="round" stroke-linejoin="round"/>
<rect x="58" y="75" width="150" height="7" rx="2" fill="#9CA3AF"/>
<path d="M14 61.5H304C308.142 61.5 311.5 64.8579 311.5 69V88C311.5 92.1421 308.142 95.5 304 95.5H14C9.85786 95.5 6.5 92.1421 6.5 88V69C6.5 64.8579 9.85786 61.5 14 61.5Z" stroke="#4B5563"/>
</g>
<defs>
<filter id="filter0_dd_2665_3680" x="0" y="0" width="97.416" height="47" filterUnits="userSpaceOnUse" color-interpolation-filters="sRGB">
<feFlood flood-opacity="0" result="BackgroundImageFix"/>
<feColorMatrix in="SourceAlpha" type="matrix" values="0 0 0 0 0 0 0 0 0 0 0 0 0 0 0 0 0 0 127 0" result="hardAlpha"/>
<feOffset dy="4"/>
<feGaussianBlur stdDeviation="3"/>
<feColorMatrix type="matrix" values="0 0 0 0 0 0 0 0 0 0 0 0 0 0 0 0 0 0 0.1 0"/>
<feBlend mode="normal" in2="BackgroundImageFix" result="effect1_dropShadow_2665_3680"/>
<feColorMatrix in="SourceAlpha" type="matrix" values="0 0 0 0 0 0 0 0 0 0 0 0 0 0 0 0 0 0 127 0" result="hardAlpha"/>
<feOffset dy="2"/>
<feGaussianBlur stdDeviation="2"/>
<feColorMatrix type="matrix" values="0 0 0 0 0 0 0 0 0 0 0 0 0 0 0 0 0 0 0.06 0"/>
<feBlend mode="normal" in2="effect1_dropShadow_2665_3680" result="effect2_dropShadow_2665_3680"/>
<feBlend mode="normal" in="SourceGraphic" in2="effect2_dropShadow_2665_3680" result="shape"/>
</filter>
<filter id="filter1_dd_2665_3680" x="85.416" y="0" width="198" height="47" filterUnits="userSpaceOnUse" color-interpolation-filters="sRGB">
<feFlood flood-opacity="0" result="BackgroundImageFix"/>
<feColorMatrix in="SourceAlpha" type="matrix" values="0 0 0 0 0 0 0 0 0 0 0 0 0 0 0 0 0 0 127 0" result="hardAlpha"/>
<feOffset dy="4"/>
<feGaussianBlur stdDeviation="3"/>
<feColorMatrix type="matrix" values="0 0 0 0 0 0 0 0 0 0 0 0 0 0 0 0 0 0 0.1 0"/>
<feBlend mode="normal" in2="BackgroundImageFix" result="effect1_dropShadow_2665_3680"/>
<feColorMatrix in="SourceAlpha" type="matrix" values="0 0 0 0 0 0 0 0 0 0 0 0 0 0 0 0 0 0 127 0" result="hardAlpha"/>
<feOffset dy="2"/>
<feGaussianBlur stdDeviation="2"/>
<feColorMatrix type="matrix" values="0 0 0 0 0 0 0 0 0 0 0 0 0 0 0 0 0 0 0.06 0"/>
<feBlend mode="normal" in2="effect1_dropShadow_2665_3680" result="effect2_dropShadow_2665_3680"/>
<feBlend mode="normal" in="SourceGraphic" in2="effect2_dropShadow_2665_3680" result="shape"/>
</filter>
<filter id="filter2_dd_2665_3680" x="271.416" y="0" width="46" height="47" filterUnits="userSpaceOnUse" color-interpolation-filters="sRGB">
<feFlood flood-opacity="0" result="BackgroundImageFix"/>
<feColorMatrix in="SourceAlpha" type="matrix" values="0 0 0 0 0 0 0 0 0 0 0 0 0 0 0 0 0 0 127 0" result="hardAlpha"/>
<feOffset dy="4"/>
<feGaussianBlur stdDeviation="3"/>
<feColorMatrix type="matrix" values="0 0 0 0 0 0 0 0 0 0 0 0 0 0 0 0 0 0 0.1 0"/>
<feBlend mode="normal" in2="BackgroundImageFix" result="effect1_dropShadow_2665_3680"/>
<feColorMatrix in="SourceAlpha" type="matrix" values="0 0 0 0 0 0 0 0 0 0 0 0 0 0 0 0 0 0 127 0" result="hardAlpha"/>
<feOffset dy="2"/>
<feGaussianBlur stdDeviation="2"/>
<feColorMatrix type="matrix" values="0 0 0 0 0 0 0 0 0 0 0 0 0 0 0 0 0 0 0.06 0"/>
<feBlend mode="normal" in2="effect1_dropShadow_2665_3680" result="effect2_dropShadow_2665_3680"/>
<feBlend mode="normal" in="SourceGraphic" in2="effect2_dropShadow_2665_3680" result="shape"/>
</filter>
<filter id="filter3_dd_2665_3680" x="0" y="59" width="318" height="47" filterUnits="userSpaceOnUse" color-interpolation-filters="sRGB">
<feFlood flood-opacity="0" result="BackgroundImageFix"/>
<feColorMatrix in="SourceAlpha" type="matrix" values="0 0 0 0 0 0 0 0 0 0 0 0 0 0 0 0 0 0 127 0" result="hardAlpha"/>
<feOffset dy="4"/>
<feGaussianBlur stdDeviation="3"/>
<feColorMatrix type="matrix" values="0 0 0 0 0 0 0 0 0 0 0 0 0 0 0 0 0 0 0.1 0"/>
<feBlend mode="normal" in2="BackgroundImageFix" result="effect1_dropShadow_2665_3680"/>
<feColorMatrix in="SourceAlpha" type="matrix" values="0 0 0 0 0 0 0 0 0 0 0 0 0 0 0 0 0 0 127 0" result="hardAlpha"/>
<feOffset dy="2"/>
<feGaussianBlur stdDeviation="2"/>
<feColorMatrix type="matrix" values="0 0 0 0 0 0 0 0 0 0 0 0 0 0 0 0 0 0 0.06 0"/>
<feBlend mode="normal" in2="effect1_dropShadow_2665_3680" result="effect2_dropShadow_2665_3680"/>
<feBlend mode="normal" in="SourceGraphic" in2="effect2_dropShadow_2665_3680" result="shape"/>
</filter>
</defs>
</svg>
