<svg width="318" height="106" viewBox="0 0 318 106" fill="none" xmlns="http://www.w3.org/2000/svg">
<g filter="url(#filter0_dd_2665_3735)">
<path d="M6 10C6 5.58172 9.58172 2 14 2H91.416V37H14C9.58172 37 6 33.4183 6 29V10Z" fill="#4B5563"/>
<rect x="20" y="16" width="40.416" height="7" rx="2" fill="#9CA3AF"/>
<path d="M74.4161 20.6759L74.0625 20.3223L71.4282 17.688C71.4282 17.688 71.4282 17.688 71.4281 17.6879C71.3719 17.6317 71.2956 17.6002 71.2161 17.6002C71.1366 17.6002 71.0603 17.6317 71.0041 17.6879C71.0041 17.6879 71.004 17.688 71.004 17.688M74.4161 20.6759L71.004 17.688M74.4161 20.6759L74.7696 20.3223L77.404 17.6879L77.4041 17.688L77.4101 17.6818C77.4378 17.6531 77.4709 17.6302 77.5075 17.6145C77.5441 17.5988 77.5835 17.5905 77.6233 17.5902C77.6631 17.5898 77.7027 17.5974 77.7395 17.6125C77.7764 17.6276 77.8099 17.6499 77.8381 17.678C77.8662 17.7062 77.8885 17.7397 77.9036 17.7766C77.9187 17.8134 77.9263 17.8529 77.9259 17.8928C77.9256 17.9326 77.9173 17.972 77.9016 18.0086C77.8858 18.0452 77.863 18.0783 77.8343 18.106L77.8343 18.1059L77.8281 18.112L74.6282 21.312C74.6282 21.312 74.6282 21.312 74.6281 21.312C74.5719 21.3682 74.4956 21.3998 74.4161 21.3998C74.3366 21.3998 74.2603 21.3682 74.204 21.312C74.204 21.312 74.204 21.312 74.204 21.312L71.0041 18.1121M74.4161 20.6759L71.0041 18.1121M71.004 17.688C70.9478 17.7442 70.9163 17.8205 70.9163 17.9C70.9163 17.9795 70.9478 18.0558 71.004 18.112M71.004 17.688L71.004 18.112M71.004 18.112L71.0041 18.1121M71.004 18.112L71.0041 18.1121" fill="black" stroke="#9CA3AF"/>
<path d="M14 2.5H90.916V36.5H14C9.85786 36.5 6.5 33.1421 6.5 29V10C6.5 5.85786 9.85786 2.5 14 2.5Z" stroke="#4B5563"/>
</g>
<g filter="url(#filter1_dd_2665_3735)">
<path d="M91.416 2H304C308.418 2 312 5.58172 312 10V29C312 33.4183 308.418 37 304 37H91.416V2Z" fill="#374151"/>
<rect x="109.416" y="16" width="150" height="7" rx="2" fill="#9CA3AF"/>
<path d="M285.416 20.6759L285.063 20.3223L282.428 17.688C282.428 17.688 282.428 17.688 282.428 17.6879C282.372 17.6317 282.296 17.6002 282.216 17.6002C282.137 17.6002 282.06 17.6317 282.004 17.6879C282.004 17.6879 282.004 17.688 282.004 17.688M285.416 20.6759L282.004 17.688M285.416 20.6759L285.77 20.3223L288.404 17.6879L288.404 17.688L288.41 17.6818C288.438 17.6531 288.471 17.6302 288.508 17.6145C288.544 17.5988 288.583 17.5905 288.623 17.5902C288.663 17.5898 288.703 17.5974 288.74 17.6125C288.776 17.6276 288.81 17.6499 288.838 17.678C288.866 17.7062 288.888 17.7397 288.904 17.7766C288.919 17.8134 288.926 17.8529 288.926 17.8928C288.926 17.9326 288.917 17.972 288.902 18.0086C288.886 18.0452 288.863 18.0783 288.834 18.106L288.834 18.1059L288.828 18.112L285.628 21.312C285.628 21.312 285.628 21.312 285.628 21.312C285.572 21.3682 285.496 21.3998 285.416 21.3998C285.337 21.3998 285.26 21.3682 285.204 21.312C285.204 21.312 285.204 21.312 285.204 21.312L282.004 18.1121M285.416 20.6759L282.004 18.1121M282.004 17.688C281.948 17.7442 281.916 17.8205 281.916 17.9C281.916 17.9795 281.948 18.0558 282.004 18.112M282.004 17.688L282.004 18.112M282.004 18.112L282.004 18.1121M282.004 18.112L282.004 18.1121" fill="black" stroke="#9CA3AF"/>
<path d="M91.916 2.5H304C308.142 2.5 311.5 5.85786 311.5 10V29C311.5 33.1421 308.142 36.5 304 36.5H91.916V2.5Z" stroke="#4B5563"/>
</g>
<g filter="url(#filter2_dd_2665_3735)">
<path d="M6 69C6 64.5817 9.58172 61 14 61H304C308.418 61 312 64.5817 312 69V88C312 92.4183 308.418 96 304 96H14C9.58172 96 6 92.4183 6 88V69Z" fill="#374151"/>
<rect x="24" y="75" width="134.388" height="7" rx="2" fill="#9CA3AF"/>
<path d="M286 79.6759L285.647 79.3223L283.012 76.688C283.012 76.688 283.012 76.688 283.012 76.6879C282.956 76.6317 282.88 76.6002 282.8 76.6002C282.721 76.6002 282.644 76.6317 282.588 76.6879C282.588 76.6879 282.588 76.688 282.588 76.688M286 79.6759L282.588 76.688M286 79.6759L286.354 79.3223L288.988 76.6879L288.988 76.688L288.994 76.6818C289.022 76.6531 289.055 76.6302 289.091 76.6145C289.128 76.5988 289.167 76.5905 289.207 76.5902C289.247 76.5898 289.287 76.5974 289.324 76.6125C289.36 76.6276 289.394 76.6499 289.422 76.678C289.45 76.7062 289.472 76.7397 289.488 76.7766C289.503 76.8134 289.51 76.8529 289.51 76.8928C289.51 76.9326 289.501 76.972 289.486 77.0086C289.47 77.0452 289.447 77.0783 289.418 77.106L289.418 77.1059L289.412 77.112L286.212 80.312C286.212 80.312 286.212 80.312 286.212 80.312C286.156 80.3682 286.08 80.3998 286 80.3998C285.921 80.3998 285.844 80.3682 285.788 80.312C285.788 80.312 285.788 80.312 285.788 80.312L282.588 77.1121M286 79.6759L282.588 77.1121M282.588 76.688C282.532 76.7442 282.5 76.8205 282.5 76.9C282.5 76.9795 282.532 77.0558 282.588 77.112M282.588 76.688L282.588 77.112M282.588 77.112L282.588 77.1121M282.588 77.112L282.588 77.1121" fill="black" stroke="#9CA3AF"/>
<path d="M14 61.5H304C308.142 61.5 311.5 64.8579 311.5 69V88C311.5 92.1421 308.142 95.5 304 95.5H14C9.85786 95.5 6.5 92.1421 6.5 88V69C6.5 64.8579 9.85786 61.5 14 61.5Z" stroke="#4B5563"/>
</g>
<defs>
<filter id="filter0_dd_2665_3735" x="0" y="0" width="97.416" height="47" filterUnits="userSpaceOnUse" color-interpolation-filters="sRGB">
<feFlood flood-opacity="0" result="BackgroundImageFix"/>
<feColorMatrix in="SourceAlpha" type="matrix" values="0 0 0 0 0 0 0 0 0 0 0 0 0 0 0 0 0 0 127 0" result="hardAlpha"/>
<feOffset dy="4"/>
<feGaussianBlur stdDeviation="3"/>
<feColorMatrix type="matrix" values="0 0 0 0 0 0 0 0 0 0 0 0 0 0 0 0 0 0 0.1 0"/>
<feBlend mode="normal" in2="BackgroundImageFix" result="effect1_dropShadow_2665_3735"/>
<feColorMatrix in="SourceAlpha" type="matrix" values="0 0 0 0 0 0 0 0 0 0 0 0 0 0 0 0 0 0 127 0" result="hardAlpha"/>
<feOffset dy="2"/>
<feGaussianBlur stdDeviation="2"/>
<feColorMatrix type="matrix" values="0 0 0 0 0 0 0 0 0 0 0 0 0 0 0 0 0 0 0.06 0"/>
<feBlend mode="normal" in2="effect1_dropShadow_2665_3735" result="effect2_dropShadow_2665_3735"/>
<feBlend mode="normal" in="SourceGraphic" in2="effect2_dropShadow_2665_3735" result="shape"/>
</filter>
<filter id="filter1_dd_2665_3735" x="85.416" y="0" width="232.584" height="47" filterUnits="userSpaceOnUse" color-interpolation-filters="sRGB">
<feFlood flood-opacity="0" result="BackgroundImageFix"/>
<feColorMatrix in="SourceAlpha" type="matrix" values="0 0 0 0 0 0 0 0 0 0 0 0 0 0 0 0 0 0 127 0" result="hardAlpha"/>
<feOffset dy="4"/>
<feGaussianBlur stdDeviation="3"/>
<feColorMatrix type="matrix" values="0 0 0 0 0 0 0 0 0 0 0 0 0 0 0 0 0 0 0.1 0"/>
<feBlend mode="normal" in2="BackgroundImageFix" result="effect1_dropShadow_2665_3735"/>
<feColorMatrix in="SourceAlpha" type="matrix" values="0 0 0 0 0 0 0 0 0 0 0 0 0 0 0 0 0 0 127 0" result="hardAlpha"/>
<feOffset dy="2"/>
<feGaussianBlur stdDeviation="2"/>
<feColorMatrix type="matrix" values="0 0 0 0 0 0 0 0 0 0 0 0 0 0 0 0 0 0 0.06 0"/>
<feBlend mode="normal" in2="effect1_dropShadow_2665_3735" result="effect2_dropShadow_2665_3735"/>
<feBlend mode="normal" in="SourceGraphic" in2="effect2_dropShadow_2665_3735" result="shape"/>
</filter>
<filter id="filter2_dd_2665_3735" x="0" y="59" width="318" height="47" filterUnits="userSpaceOnUse" color-interpolation-filters="sRGB">
<feFlood flood-opacity="0" result="BackgroundImageFix"/>
<feColorMatrix in="SourceAlpha" type="matrix" values="0 0 0 0 0 0 0 0 0 0 0 0 0 0 0 0 0 0 127 0" result="hardAlpha"/>
<feOffset dy="4"/>
<feGaussianBlur stdDeviation="3"/>
<feColorMatrix type="matrix" values="0 0 0 0 0 0 0 0 0 0 0 0 0 0 0 0 0 0 0.1 0"/>
<feBlend mode="normal" in2="BackgroundImageFix" result="effect1_dropShadow_2665_3735"/>
<feColorMatrix in="SourceAlpha" type="matrix" values="0 0 0 0 0 0 0 0 0 0 0 0 0 0 0 0 0 0 127 0" result="hardAlpha"/>
<feOffset dy="2"/>
<feGaussianBlur stdDeviation="2"/>
<feColorMatrix type="matrix" values="0 0 0 0 0 0 0 0 0 0 0 0 0 0 0 0 0 0 0.06 0"/>
<feBlend mode="normal" in2="effect1_dropShadow_2665_3735" result="effect2_dropShadow_2665_3735"/>
<feBlend mode="normal" in="SourceGraphic" in2="effect2_dropShadow_2665_3735" result="shape"/>
</filter>
</defs>
</svg>
