<svg width="410" height="240" viewBox="0 0 410 240" fill="none" xmlns="http://www.w3.org/2000/svg">
<rect x="164.25" y="29.25" width="80.9961" height="180.5" rx="1.75" fill="#FAFAFA"/>
<rect x="176" y="41" width="33" height="5" rx="1" fill="#9CA3AF"/>
<rect x="176" y="62" width="5" height="5" rx="2.5" fill="#9CA3AF"/>
<rect x="185" y="62" width="48.4961" height="5" rx="1" fill="#9CA3AF"/>
<rect x="176" y="80" width="5" height="5" rx="2.5" fill="#9CA3AF"/>
<rect x="185" y="80" width="48.4961" height="5" rx="1" fill="#9CA3AF"/>
<rect x="176" y="98" width="5" height="5" rx="2.5" fill="#9CA3AF"/>
<rect x="185" y="98" width="48.4961" height="5" rx="1" fill="#9CA3AF"/>
<rect x="176" y="116" width="5" height="5" rx="2.5" fill="#9CA3AF"/>
<rect x="185" y="116" width="48.4961" height="5" rx="1" fill="#9CA3AF"/>
<rect x="176" y="134" width="5" height="5" rx="2.5" fill="#9CA3AF"/>
<rect x="185" y="134" width="48.4961" height="5" rx="1" fill="#9CA3AF"/>
<rect x="185.248" y="193" width="5" height="5" rx="2.5" fill="#D1D5DB"/>
<rect x="202.248" y="193" width="5" height="5" rx="2.5" fill="#D1D5DB"/>
<rect x="219.248" y="193" width="5" height="5" rx="2.5" fill="#D1D5DB"/>
<rect x="164.25" y="29.25" width="80.9961" height="180.5" rx="1.75" stroke="#E5E7EB" stroke-width="0.5"/>
</svg>
