<svg width="410" height="240" viewBox="0 0 410 240" fill="none" xmlns="http://www.w3.org/2000/svg">
<rect x="164.252" y="29.5" width="81.4961" height="181" rx="2" fill="#374151"/>
<rect x="176.252" y="41.5" width="33" height="5" rx="1" fill="#9CA3AF"/>
<rect x="176.252" y="62.5" width="5" height="5" rx="2.5" fill="#9CA3AF"/>
<rect x="185.252" y="62.5" width="48.4961" height="5" rx="1" fill="#9CA3AF"/>
<rect x="176.252" y="80.5" width="5" height="5" rx="2.5" fill="#9CA3AF"/>
<rect x="185.252" y="80.5" width="48.4961" height="5" rx="1" fill="#9CA3AF"/>
<rect x="176.252" y="98.5" width="5" height="5" rx="2.5" fill="#9CA3AF"/>
<rect x="185.252" y="98.5" width="48.4961" height="5" rx="1" fill="#9CA3AF"/>
<rect x="176.252" y="116.5" width="5" height="5" rx="2.5" fill="#9CA3AF"/>
<rect x="185.252" y="116.5" width="48.4961" height="5" rx="1" fill="#9CA3AF"/>
<rect x="176.252" y="134.5" width="5" height="5" rx="2.5" fill="#9CA3AF"/>
<rect x="185.252" y="134.5" width="48.4961" height="5" rx="1" fill="#9CA3AF"/>
<rect x="185.5" y="193.5" width="5" height="5" rx="2.5" fill="#6B7280"/>
<rect x="202.5" y="193.5" width="5" height="5" rx="2.5" fill="#6B7280"/>
<rect x="219.5" y="193.5" width="5" height="5" rx="2.5" fill="#6B7280"/>
</svg>
