<svg width="303" height="140" viewBox="0 0 303 140" fill="none" xmlns="http://www.w3.org/2000/svg">
    <rect width="195" height="12" rx="3" fill="#6B7280" />
    <rect y="24" width="269" height="10" rx="3" fill="#4B5563" />
    <rect y="46" width="303" height="10" rx="3" fill="#4B5563" />
    <rect y="66" width="269" height="10" rx="3" fill="#4B5563" />
    <rect y="88" width="157" height="10" rx="3" fill="#4B5563" />
    <path d="M6.40125 132.255C9.02427 130.772 11.987 129.995 15 130C18.125 130 21.0587 130.819 23.5987 132.255M18.75 122.5C18.75 123.495 18.3549 124.448 17.6517 125.152C16.9484 125.855 15.9946 126.25 15 126.25C14.0054 126.25 13.0516 125.855 12.3483 125.152C11.6451 124.448 11.25 123.495 11.25 122.5C11.25 121.505 11.6451 120.552 12.3483 119.848C13.0516 119.145 14.0054 118.75 15 118.75C15.9946 118.75 16.9484 119.145 17.6517 119.848C18.3549 120.552 18.75 121.505 18.75 122.5ZM26.25 125C26.25 126.477 25.959 127.94 25.3936 129.305C24.8283 130.67 23.9996 131.91 22.955 132.955C21.9103 134 20.6701 134.828 19.3052 135.394C17.9403 135.959 16.4774 136.25 15 136.25C13.5226 136.25 12.0597 135.959 10.6948 135.394C9.3299 134.828 8.08971 134 7.04505 132.955C6.00039 131.91 5.17172 130.67 4.60636 129.305C4.04099 127.94 3.75 126.477 3.75 125C3.75 122.016 4.93526 119.155 7.04505 117.045C9.15483 114.935 12.0163 113.75 15 113.75C17.9837 113.75 20.8452 114.935 22.955 117.045C25.0647 119.155 26.25 122.016 26.25 125Z" stroke="#6B7280" stroke-width="2" stroke-linecap="round" stroke-linejoin="round" />
    <rect x="38" y="113" width="54" height="10" rx="5" fill="#6B7280" />
    <rect x="38" y="131" width="76" height="6" rx="3" fill="#4B5563" />
</svg>
    