<svg width="350" height="230" viewBox="0 0 350 230" fill="none" xmlns="http://www.w3.org/2000/svg">
<rect x="23" y="45" width="195" height="12" rx="3" fill="#D1D5DB"/>
<rect x="23" y="69" width="269" height="10" rx="3" fill="#E5E7EB"/>
<rect x="23" y="91" width="303" height="10" rx="3" fill="#E5E7EB"/>
<rect x="23" y="111" width="269" height="10" rx="3" fill="#E5E7EB"/>
<rect x="23" y="133" width="157" height="10" rx="3" fill="#E5E7EB"/>
<path d="M29.4012 177.255C32.0243 175.772 34.987 174.995 38 175C41.125 175 44.0587 175.819 46.5987 177.255M41.75 167.5C41.75 168.495 41.3549 169.448 40.6517 170.152C39.9484 170.855 38.9946 171.25 38 171.25C37.0054 171.25 36.0516 170.855 35.3483 170.152C34.6451 169.448 34.25 168.495 34.25 167.5C34.25 166.505 34.6451 165.552 35.3483 164.848C36.0516 164.145 37.0054 163.75 38 163.75C38.9946 163.75 39.9484 164.145 40.6517 164.848C41.3549 165.552 41.75 166.505 41.75 167.5ZM49.25 170C49.25 171.477 48.959 172.94 48.3936 174.305C47.8283 175.67 46.9996 176.91 45.955 177.955C44.9103 179 43.6701 179.828 42.3052 180.394C40.9403 180.959 39.4774 181.25 38 181.25C36.5226 181.25 35.0597 180.959 33.6948 180.394C32.3299 179.828 31.0897 179 30.045 177.955C29.0004 176.91 28.1717 175.67 27.6064 174.305C27.041 172.94 26.75 171.477 26.75 170C26.75 167.016 27.9353 164.155 30.045 162.045C32.1548 159.935 35.0163 158.75 38 158.75C40.9837 158.75 43.8452 159.935 45.955 162.045C48.0647 164.155 49.25 167.016 49.25 170Z" stroke="#D1D5DB" stroke-width="2" stroke-linecap="round" stroke-linejoin="round"/>
<rect x="61" y="158" width="54" height="10" rx="5" fill="#D1D5DB"/>
<rect x="61" y="176" width="76" height="6" rx="3" fill="#E5E7EB"/>
</svg>
