<svg width="410" height="240" viewBox="0 0 410 240" fill="none" xmlns="http://www.w3.org/2000/svg">
<rect x="107" y="95" width="198" height="50" rx="8" fill="#D1D5DB"/>
<path d="M153 120C153 127.18 147.18 133 140 133C132.82 133 127 127.18 127 120C127 112.82 132.82 107 140 107C147.18 107 153 112.82 153 120ZM130.033 120C130.033 125.505 134.495 129.967 140 129.967C145.505 129.967 149.967 125.505 149.967 120C149.967 114.495 145.505 110.033 140 110.033C134.495 110.033 130.033 114.495 130.033 120Z" fill="white"/>
<path d="M151.098 117.085C151.913 116.871 152.408 116.032 152.1 115.248C151.664 114.138 151.077 113.091 150.352 112.137C149.32 110.777 148.029 109.635 146.555 108.774C145.081 107.913 143.452 107.351 141.76 107.12C140.574 106.958 139.373 106.96 138.191 107.126C137.357 107.244 136.871 108.087 137.085 108.902C137.299 109.716 138.133 110.191 138.971 110.104C139.76 110.022 140.558 110.034 141.347 110.142C142.642 110.319 143.889 110.749 145.017 111.408C146.146 112.067 147.133 112.941 147.923 113.982C148.405 114.616 148.808 115.305 149.125 116.032C149.46 116.805 150.284 117.299 151.098 117.085Z" fill="#EF562F"/>
<rect x="165" y="112" width="120" height="16" rx="4" fill="white"/>
</svg>
