<svg width="410" height="240" viewBox="0 0 410 240" fill="none" xmlns="http://www.w3.org/2000/svg">
<rect x="105" y="94" width="198" height="50" rx="8" fill="#374151"/>
<path d="M151 119C151 126.18 145.18 132 138 132C130.82 132 125 126.18 125 119C125 111.82 130.82 106 138 106C145.18 106 151 111.82 151 119ZM128.033 119C128.033 124.505 132.495 128.967 138 128.967C143.505 128.967 147.967 124.505 147.967 119C147.967 113.495 143.505 109.033 138 109.033C132.495 109.033 128.033 113.495 128.033 119Z" fill="#6B7280"/>
<path d="M149.098 116.085C149.913 115.871 150.408 115.032 150.1 114.248C149.664 113.138 149.077 112.091 148.352 111.137C147.32 109.777 146.029 108.635 144.555 107.774C143.081 106.913 141.452 106.351 139.76 106.12C138.574 105.958 137.373 105.96 136.191 106.126C135.357 106.244 134.871 107.087 135.085 107.902C135.299 108.716 136.133 109.191 136.971 109.104C137.76 109.022 138.558 109.034 139.347 109.142C140.642 109.319 141.889 109.749 143.017 110.408C144.146 111.067 145.133 111.941 145.923 112.982C146.405 113.616 146.808 114.305 147.125 115.032C147.46 115.805 148.284 116.299 149.098 116.085Z" fill="#EF562F"/>
<rect x="163" y="111" width="120" height="16" rx="4" fill="white"/>
</svg>
