<svg width="350" height="230" viewBox="0 0 350 230" fill="none" xmlns="http://www.w3.org/2000/svg">
<rect width="350" height="230" fill="#111928"/>
<rect x="5" y="79" width="48" height="48" rx="24" fill="#A82200"/>
<path fill-rule="evenodd" clip-rule="evenodd" d="M38.8894 96.4104C39.1519 96.6729 39.2993 97.029 39.2993 97.4002C39.2993 97.7714 39.1519 98.1274 38.8894 98.39L27.6894 109.59C27.4269 109.852 27.0708 110 26.6996 110C26.3284 110 25.9723 109.852 25.7098 109.59L20.1098 103.99C19.8548 103.726 19.7137 103.372 19.7168 103.005C19.72 102.638 19.8673 102.287 20.1268 102.027C20.3864 101.768 20.7376 101.621 21.1046 101.617C21.4717 101.614 21.8254 101.755 22.0894 102.01L26.6996 106.621L36.9098 96.4104C37.1723 96.1479 37.5284 96.0005 37.8996 96.0005C38.2708 96.0005 38.6269 96.1479 38.8894 96.4104Z" fill="#FFF1EE"/>
<path d="M52 100H152V106H52V100Z" fill="#A82200"/>
<rect x="151" y="79" width="48" height="48" rx="24" fill="#374151"/>
<path fill-rule="evenodd" clip-rule="evenodd" d="M175.501 91.7998C175.129 91.7998 174.773 91.9473 174.511 92.2099C174.248 92.4724 174.101 92.8285 174.101 93.1998V94.5998C174.101 94.9711 174.248 95.3272 174.511 95.5898C174.773 95.8523 175.129 95.9998 175.501 95.9998C175.872 95.9998 176.228 95.8523 176.491 95.5898C176.753 95.3272 176.901 94.9711 176.901 94.5998V93.1998C176.901 92.8285 176.753 92.4724 176.491 92.2099C176.228 91.9473 175.872 91.7998 175.501 91.7998ZM167.101 94.5998H171.301C171.301 95.7137 171.743 96.782 172.531 97.5697C173.319 98.3573 174.387 98.7998 175.501 98.7998C176.615 98.7998 177.683 98.3573 178.471 97.5697C179.258 96.782 179.701 95.7137 179.701 94.5998H183.901C184.643 94.5998 185.356 94.8948 185.881 95.4199C186.406 95.945 186.701 96.6572 186.701 97.3998V110C186.701 110.742 186.406 111.455 185.881 111.98C185.356 112.505 184.643 112.8 183.901 112.8H167.101C166.358 112.8 165.646 112.505 165.121 111.98C164.596 111.455 164.301 110.742 164.301 110V97.3998C164.301 96.6572 164.596 95.945 165.121 95.4199C165.646 94.8948 166.358 94.5998 167.101 94.5998ZM170.601 104.4C171.158 104.4 171.692 104.179 172.086 103.785C172.48 103.391 172.701 102.857 172.701 102.3C172.701 101.743 172.48 101.209 172.086 100.815C171.692 100.421 171.158 100.2 170.601 100.2C170.044 100.2 169.51 100.421 169.116 100.815C168.722 101.209 168.501 101.743 168.501 102.3C168.501 102.857 168.722 103.391 169.116 103.785C169.51 104.179 170.044 104.4 170.601 104.4ZM174.031 110C174.134 109.491 174.123 108.967 173.998 108.463C173.874 107.96 173.639 107.49 173.311 107.088C172.982 106.687 172.569 106.363 172.1 106.141C171.632 105.919 171.119 105.803 170.601 105.803C170.082 105.803 169.57 105.919 169.101 106.141C168.633 106.363 168.219 106.687 167.891 107.088C167.563 107.49 167.328 107.96 167.203 108.463C167.079 108.967 167.068 109.491 167.171 110H174.031ZM178.301 101.6C177.929 101.6 177.573 101.747 177.311 102.01C177.048 102.272 176.901 102.629 176.901 103C176.901 103.371 177.048 103.727 177.311 103.99C177.573 104.252 177.929 104.4 178.301 104.4H182.501C182.872 104.4 183.228 104.252 183.491 103.99C183.753 103.727 183.901 103.371 183.901 103C183.901 102.629 183.753 102.272 183.491 102.01C183.228 101.747 182.872 101.6 182.501 101.6H178.301ZM176.901 107.2C176.901 106.829 177.048 106.472 177.311 106.21C177.573 105.947 177.929 105.8 178.301 105.8H181.101C181.472 105.8 181.828 105.947 182.091 106.21C182.353 106.472 182.501 106.829 182.501 107.2C182.501 107.571 182.353 107.927 182.091 108.19C181.828 108.452 181.472 108.6 181.101 108.6H178.301C177.929 108.6 177.573 108.452 177.311 108.19C177.048 107.927 176.901 107.571 176.901 107.2Z" fill="#9CA3AF"/>
<path d="M198 100H298V106H198V100Z" fill="#374151"/>
<rect x="297" y="79" width="48" height="48" rx="24" fill="#374151"/>
<path fill-rule="evenodd" clip-rule="evenodd" d="M310.533 95.9987C314.586 95.9483 318.484 94.4285 321.501 91.7217C324.518 94.429 328.415 95.9493 332.468 96.0001C332.622 96.9101 332.701 97.8481 332.701 98.8015C332.701 106.116 328.025 112.339 321.501 114.645C314.977 112.338 310.301 106.115 310.301 98.8001C310.301 97.8453 310.381 96.9101 310.533 95.9987ZM326.691 101.19C326.946 100.926 327.087 100.572 327.084 100.205C327.08 99.838 326.933 99.4869 326.674 99.2273C326.414 98.9678 326.063 98.8205 325.696 98.8173C325.329 98.8141 324.975 98.9553 324.711 99.2103L320.101 103.82L318.291 102.01C318.027 101.755 317.673 101.614 317.306 101.617C316.939 101.621 316.588 101.768 316.328 102.027C316.068 102.287 315.921 102.638 315.918 103.005C315.915 103.372 316.056 103.726 316.311 103.99L319.111 106.79C319.374 107.052 319.73 107.2 320.101 107.2C320.472 107.2 320.828 107.052 321.091 106.79L326.691 101.19Z" fill="#9CA3AF"/>
</svg>
