<svg width="376" height="150" viewBox="0 0 376 150" fill="none" xmlns="http://www.w3.org/2000/svg">
<path d="M0 8C0 3.58172 3.58172 0 8 0H106C110.418 0 114 3.58172 114 8V33C114 37.4183 110.418 41 106 41H8C3.58172 41 0 37.4183 0 33V8Z" fill="#EB4F27"/>
<path d="M39.5568 17.3643H42.7038V26H44.5334V17.3643H47.6804V15.8182H39.5568V17.3643ZM50.3253 26.1541C51.5234 26.1541 52.2393 25.5923 52.5675 24.951H52.6271V26H54.3572V20.8892C54.3572 18.8707 52.7116 18.2642 51.255 18.2642C49.6491 18.2642 48.4162 18.9801 48.0185 20.3722L49.6989 20.6108C49.8778 20.0888 50.3849 19.6413 51.2649 19.6413C52.1001 19.6413 52.5575 20.0689 52.5575 20.8196V20.8494C52.5575 21.3665 52.0156 21.3913 50.6683 21.5355C49.1868 21.6946 47.7699 22.1371 47.7699 23.8572C47.7699 25.3587 48.8686 26.1541 50.3253 26.1541ZM50.7926 24.8317C50.0419 24.8317 49.505 24.4886 49.505 23.8274C49.505 23.1364 50.1065 22.848 50.9119 22.7337C51.3842 22.669 52.3288 22.5497 52.5625 22.3608V23.2607C52.5625 24.1108 51.8764 24.8317 50.7926 24.8317ZM56.2464 26H58.0163V24.7969H58.1207C58.4041 25.3537 58.9957 26.1342 60.3082 26.1342C62.108 26.1342 63.4553 24.7074 63.4553 22.1918C63.4553 19.6463 62.0682 18.2642 60.3033 18.2642C58.956 18.2642 58.3942 19.0746 58.1207 19.6264H58.0462V15.8182H56.2464V26ZM58.0114 22.1818C58.0114 20.7003 58.6477 19.7408 59.8061 19.7408C61.0043 19.7408 61.6207 20.7599 61.6207 22.1818C61.6207 23.6136 60.9943 24.6577 59.8061 24.6577C58.6577 24.6577 58.0114 23.6634 58.0114 22.1818ZM72.5794 15.8182H70.8244L68.2939 17.4439V19.1342L70.6752 17.6129H70.7349V26H72.5794V15.8182Z" fill="white"/>
<path d="M166.057 17.8643H169.204V26.5H171.033V17.8643H174.18V16.3182H166.057V17.8643ZM176.825 26.6541C178.023 26.6541 178.739 26.0923 179.067 25.451H179.127V26.5H180.857V21.3892C180.857 19.3707 179.212 18.7642 177.755 18.7642C176.149 18.7642 174.916 19.4801 174.518 20.8722L176.199 21.1108C176.378 20.5888 176.885 20.1413 177.765 20.1413C178.6 20.1413 179.058 20.5689 179.058 21.3196V21.3494C179.058 21.8665 178.516 21.8913 177.168 22.0355C175.687 22.1946 174.27 22.6371 174.27 24.3572C174.27 25.8587 175.369 26.6541 176.825 26.6541ZM177.293 25.3317C176.542 25.3317 176.005 24.9886 176.005 24.3274C176.005 23.6364 176.607 23.348 177.412 23.2337C177.884 23.169 178.829 23.0497 179.062 22.8608V23.7607C179.062 24.6108 178.376 25.3317 177.293 25.3317ZM182.746 26.5H184.516V25.2969H184.621C184.904 25.8537 185.496 26.6342 186.808 26.6342C188.608 26.6342 189.955 25.2074 189.955 22.6918C189.955 20.1463 188.568 18.7642 186.803 18.7642C185.456 18.7642 184.894 19.5746 184.621 20.1264H184.546V16.3182H182.746V26.5ZM184.511 22.6818C184.511 21.2003 185.148 20.2408 186.306 20.2408C187.504 20.2408 188.121 21.2599 188.121 22.6818C188.121 24.1136 187.494 25.1577 186.306 25.1577C185.158 25.1577 184.511 24.1634 184.511 22.6818ZM194.938 26.5H201.918V24.9588H197.483V24.8892L199.238 23.1044C201.217 21.2053 201.764 20.2805 201.764 19.1321C201.764 17.4268 200.377 16.179 198.329 16.179C196.31 16.179 194.878 17.4318 194.878 19.3658H196.633C196.633 18.3267 197.29 17.6754 198.304 17.6754C199.273 17.6754 199.994 18.267 199.994 19.2266C199.994 20.0767 199.477 20.6832 198.473 21.7024L194.938 25.1676V26.5Z" fill="white"/>
<path d="M297.057 17.8643H300.204V26.5H302.033V17.8643H305.18V16.3182H297.057V17.8643ZM307.825 26.6541C309.023 26.6541 309.739 26.0923 310.067 25.451H310.127V26.5H311.857V21.3892C311.857 19.3707 310.212 18.7642 308.755 18.7642C307.149 18.7642 305.916 19.4801 305.518 20.8722L307.199 21.1108C307.378 20.5888 307.885 20.1413 308.765 20.1413C309.6 20.1413 310.058 20.5689 310.058 21.3196V21.3494C310.058 21.8665 309.516 21.8913 308.168 22.0355C306.687 22.1946 305.27 22.6371 305.27 24.3572C305.27 25.8587 306.369 26.6541 307.825 26.6541ZM308.293 25.3317C307.542 25.3317 307.005 24.9886 307.005 24.3274C307.005 23.6364 307.607 23.348 308.412 23.2337C308.884 23.169 309.829 23.0497 310.062 22.8608V23.7607C310.062 24.6108 309.376 25.3317 308.293 25.3317ZM313.746 26.5H315.516V25.2969H315.621C315.904 25.8537 316.496 26.6342 317.808 26.6342C319.608 26.6342 320.955 25.2074 320.955 22.6918C320.955 20.1463 319.568 18.7642 317.803 18.7642C316.456 18.7642 315.894 19.5746 315.621 20.1264H315.546V16.3182H313.746V26.5ZM315.511 22.6818C315.511 21.2003 316.148 20.2408 317.306 20.2408C318.504 20.2408 319.121 21.2599 319.121 22.6818C319.121 24.1136 318.494 25.1577 317.306 25.1577C316.158 25.1577 315.511 24.1634 315.511 22.6818ZM329.592 26.6392C331.77 26.6392 333.356 25.3913 333.351 23.6712C333.356 22.3984 332.56 21.4837 331.133 21.2798V21.2003C332.237 20.9616 332.978 20.1413 332.973 18.9979C332.978 17.4467 331.655 16.179 329.622 16.179C327.643 16.179 326.112 17.3572 326.072 19.0625H327.847C327.877 18.2074 328.672 17.6754 329.612 17.6754C330.562 17.6754 331.193 18.2521 331.188 19.1072C331.193 19.9972 330.457 20.5888 329.403 20.5888H328.503V22.0107H329.403C330.691 22.0107 331.456 22.657 331.452 23.5767C331.456 24.4766 330.676 25.093 329.587 25.093C328.563 25.093 327.773 24.5611 327.728 23.7308H325.858C325.908 25.451 327.444 26.6392 329.592 26.6392Z" fill="white"/>
<rect y="66" width="376" height="12" rx="3" fill="#6B7280"/>
<rect y="90" width="376" height="12" rx="3" fill="#6B7280"/>
<rect y="114" width="376" height="12" rx="3" fill="#6B7280"/>
<rect y="138" width="181" height="12" rx="3" fill="#6B7280"/>
</svg>
