<svg width="410" height="240" viewBox="0 0 410 240" fill="none" xmlns="http://www.w3.org/2000/svg">
<g filter="url(#filter0_dd_169_147619)">
<g clip-path="url(#clip0_169_147619)">
<rect x="12" y="15" width="386" height="210" rx="8" fill="#374151"/>
<rect width="386" height="42" transform="translate(12 15)" fill="#4B5563"/>
<rect x="33" y="31" width="50" height="10" rx="2" fill="#9CA3AF"/>
<rect x="178.5" y="31" width="50" height="10" rx="2" fill="#9CA3AF"/>
<rect x="324" y="31" width="50" height="10" rx="2" fill="#9CA3AF"/>
<line x1="12" y1="56.5" x2="398" y2="56.5" stroke="#4B5563"/>
<rect x="33" y="73" width="50" height="10" rx="2" fill="#6B7280"/>
<rect x="178.5" y="73" width="50" height="10" rx="2" fill="#6B7280"/>
<rect x="324" y="73" width="50" height="10" rx="2" fill="#EF562F"/>
<line x1="12" y1="98.5" x2="398" y2="98.5" stroke="#4B5563"/>
<rect x="33" y="115" width="50" height="10" rx="2" fill="#6B7280"/>
<rect x="178.5" y="115" width="50" height="10" rx="2" fill="#6B7280"/>
<rect x="324" y="115" width="50" height="10" rx="2" fill="#EF562F"/>
<line x1="12" y1="140.5" x2="398" y2="140.5" stroke="#4B5563"/>
<rect x="33" y="157" width="50" height="10" rx="2" fill="#6B7280"/>
<rect x="178.5" y="157" width="50" height="10" rx="2" fill="#6B7280"/>
<rect x="324" y="157" width="50" height="10" rx="2" fill="#EF562F"/>
<line x1="12" y1="182.5" x2="398" y2="182.5" stroke="#4B5563"/>
<rect x="33" y="199" width="50" height="10" rx="2" fill="#6B7280"/>
<rect x="178.5" y="199" width="50" height="10" rx="2" fill="#6B7280"/>
<rect x="324" y="199" width="50" height="10" rx="2" fill="#EF562F"/>
</g>
<rect x="12.5" y="15.5" width="385" height="209" rx="7.5" stroke="#4B5563"/>
</g>
<defs>
<filter id="filter0_dd_169_147619" x="6" y="13" width="398" height="222" filterUnits="userSpaceOnUse" color-interpolation-filters="sRGB">
<feFlood flood-opacity="0" result="BackgroundImageFix"/>
<feColorMatrix in="SourceAlpha" type="matrix" values="0 0 0 0 0 0 0 0 0 0 0 0 0 0 0 0 0 0 127 0" result="hardAlpha"/>
<feOffset dy="4"/>
<feGaussianBlur stdDeviation="3"/>
<feColorMatrix type="matrix" values="0 0 0 0 0 0 0 0 0 0 0 0 0 0 0 0 0 0 0.1 0"/>
<feBlend mode="normal" in2="BackgroundImageFix" result="effect1_dropShadow_169_147619"/>
<feColorMatrix in="SourceAlpha" type="matrix" values="0 0 0 0 0 0 0 0 0 0 0 0 0 0 0 0 0 0 127 0" result="hardAlpha"/>
<feOffset dy="2"/>
<feGaussianBlur stdDeviation="2"/>
<feColorMatrix type="matrix" values="0 0 0 0 0 0 0 0 0 0 0 0 0 0 0 0 0 0 0.06 0"/>
<feBlend mode="normal" in2="effect1_dropShadow_169_147619" result="effect2_dropShadow_169_147619"/>
<feBlend mode="normal" in="SourceGraphic" in2="effect2_dropShadow_169_147619" result="shape"/>
</filter>
<clipPath id="clip0_169_147619">
<rect x="12" y="15" width="386" height="210" rx="8" fill="white"/>
</clipPath>
</defs>
</svg>
