<svg width="350" height="178" viewBox="0 0 350 178" fill="none" xmlns="http://www.w3.org/2000/svg">
<path d="M1 9.5C1 5.08172 4.58172 1.5 9 1.5H341C345.418 1.5 349 5.08172 349 9.5V37.5H1V9.5Z" fill="#F9FAFB"/>
<path fill-rule="evenodd" clip-rule="evenodd" d="M23.3999 14.7C22.7634 14.7 22.1529 14.9529 21.7028 15.4029C21.2528 15.853 20.9999 16.4635 20.9999 17.1V20.3C20.9999 21.3609 21.4213 22.3783 22.1715 23.1284C22.9216 23.8786 23.939 24.3 24.9999 24.3C26.0608 24.3 27.0782 23.8786 27.8283 23.1284C28.5785 22.3783 28.9999 21.3609 28.9999 20.3V17.1C28.9999 16.8878 29.0842 16.6843 29.2342 16.5343C29.3842 16.3843 29.5877 16.3 29.7999 16.3C30.0121 16.3 30.2156 16.3843 30.3656 16.5343C30.5156 16.6843 30.5999 16.8878 30.5999 17.1V20.3C30.5999 21.0354 30.4551 21.7636 30.1736 22.443C29.8922 23.1225 29.4797 23.7398 28.9597 24.2598C28.4397 24.7798 27.8224 25.1923 27.1429 25.4737C26.4635 25.7552 25.7353 25.9 24.9999 25.9C24.2645 25.9 23.5363 25.7552 22.8569 25.4737C22.1775 25.1923 21.5601 24.7798 21.0401 24.2598C20.5201 23.7398 20.1076 23.1225 19.8262 22.443C19.5448 21.7636 19.3999 21.0354 19.3999 20.3V17.1C19.3999 16.0391 19.8213 15.0217 20.5715 14.2716C21.3216 13.5214 22.339 13.1 23.3999 13.1C24.4608 13.1 25.4782 13.5214 26.2283 14.2716C26.9785 15.0217 27.3999 16.0391 27.3999 17.1V20.3C27.3999 20.9365 27.147 21.547 26.697 21.9971C26.2469 22.4471 25.6364 22.7 24.9999 22.7C24.3634 22.7 23.7529 22.4471 23.3028 21.9971C22.8528 21.547 22.5999 20.9365 22.5999 20.3V17.1C22.5999 16.8878 22.6842 16.6843 22.8342 16.5343C22.9842 16.3843 23.1877 16.3 23.3999 16.3C23.6121 16.3 23.8156 16.3843 23.9656 16.5343C24.1156 16.6843 24.1999 16.8878 24.1999 17.1V20.3C24.1999 20.5122 24.2842 20.7157 24.4342 20.8657C24.5842 21.0157 24.7877 21.1 24.9999 21.1C25.2121 21.1 25.4156 21.0157 25.5656 20.8657C25.7156 20.7157 25.7999 20.5122 25.7999 20.3V17.1C25.7999 16.4635 25.547 15.853 25.097 15.4029C24.6469 14.9529 24.0364 14.7 23.3999 14.7V14.7Z" fill="#6B7280"/>
<path fill-rule="evenodd" clip-rule="evenodd" d="M52.0401 14.74C53.0903 13.6897 54.5148 13.0997 56.0001 13.0997C57.4854 13.0997 58.9098 13.6897 59.9601 14.74C61.0103 15.7902 61.6003 17.2147 61.6003 18.7C61.6003 20.1853 61.0103 21.6097 59.9601 22.66L56.0001 26.62L52.0401 22.66C51.52 22.14 51.1074 21.5226 50.826 20.8431C50.5445 20.1637 50.3997 19.4354 50.3997 18.7C50.3997 17.9645 50.5445 17.2363 50.826 16.5568C51.1074 15.8774 51.52 15.26 52.0401 14.74V14.74ZM56.0001 20.3C56.4244 20.3 56.8314 20.1314 57.1314 19.8314C57.4315 19.5313 57.6001 19.1243 57.6001 18.7C57.6001 18.2756 57.4315 17.8687 57.1314 17.5686C56.8314 17.2686 56.4244 17.1 56.0001 17.1C55.5757 17.1 55.1687 17.2686 54.8687 17.5686C54.5686 17.8687 54.4001 18.2756 54.4001 18.7C54.4001 19.1243 54.5686 19.5313 54.8687 19.8314C55.1687 20.1314 55.5757 20.3 56.0001 20.3Z" fill="#6B7280"/>
<path fill-rule="evenodd" clip-rule="evenodd" d="M82.2001 13.9C81.7758 13.9 81.3688 14.0686 81.0687 14.3686C80.7687 14.6687 80.6001 15.0756 80.6001 15.5V23.5C80.6001 23.9243 80.7687 24.3313 81.0687 24.6314C81.3688 24.9314 81.7758 25.1 82.2001 25.1H91.8001C92.2244 25.1 92.6314 24.9314 92.9315 24.6314C93.2315 24.3313 93.4001 23.9243 93.4001 23.5V15.5C93.4001 15.0756 93.2315 14.6687 92.9315 14.3686C92.6314 14.0686 92.2244 13.9 91.8001 13.9H82.2001ZM91.8001 23.5H82.2001L85.4001 17.1L87.8001 21.9L89.4001 18.7L91.8001 23.5Z" fill="#6B7280"/>
<path d="M114.212 16.888C114.156 16.8318 114.079 16.8002 114 16.8002C113.92 16.8002 113.844 16.8318 113.788 16.888L113.788 16.888M114.212 16.888L113.434 16.5344L113.788 16.888M114.212 16.888C114.268 16.9443 114.3 17.0205 114.3 17.1C114.3 17.1795 114.268 17.2558 114.212 17.3121C114.212 17.3121 114.212 17.3121 114.212 17.3121L112.378 19.1465L112.024 19.5L112.378 19.8536L114.212 21.688L114.212 21.688L114.218 21.6941C114.247 21.7217 114.27 21.7548 114.285 21.7914C114.301 21.828 114.309 21.8674 114.31 21.9072C114.31 21.9471 114.302 21.9866 114.287 22.0234C114.272 22.0603 114.25 22.0938 114.222 22.122C114.194 22.1501 114.16 22.1724 114.123 22.1875C114.086 22.2026 114.047 22.2102 114.007 22.2098C113.967 22.2095 113.928 22.2012 113.891 22.1855C113.855 22.1698 113.822 22.1469 113.794 22.1183L113.794 22.1182L113.788 22.1121L111.388 19.7121L111.034 20.0656L111.388 19.7121C111.332 19.6558 111.3 19.5795 111.3 19.5C111.3 19.4205 111.332 19.3442 111.388 19.288L114.212 16.888ZM113.788 16.888L111.388 19.2879L113.788 16.888ZM122.212 22.112L122.212 22.1121L124.612 19.7121C124.612 19.7121 124.612 19.7121 124.612 19.7121C124.668 19.6558 124.7 19.5795 124.7 19.5C124.7 19.4205 124.668 19.3442 124.612 19.288L124.612 19.2879M122.212 22.112L124.965 18.9344L124.612 19.2879M122.212 22.112L122.206 22.1183C122.178 22.1469 122.145 22.1698 122.108 22.1855C122.072 22.2012 122.032 22.2095 121.993 22.2098C121.953 22.2102 121.913 22.2026 121.876 22.1875C121.84 22.1724 121.806 22.1501 121.778 22.122C121.75 22.0938 121.727 22.0603 121.712 22.0234C121.697 21.9866 121.69 21.9471 121.69 21.9072C121.69 21.8674 121.699 21.828 121.714 21.7914C121.73 21.7548 121.753 21.7217 121.782 21.6941L121.782 21.6941L121.788 21.688L123.622 19.8536L123.976 19.5L123.622 19.1465L121.788 17.3121L122.212 22.112ZM124.612 19.2879L122.212 16.888L124.612 19.2879ZM121.788 16.888C121.788 16.888 121.788 16.8879 121.788 16.8879C121.844 16.8317 121.92 16.8002 122 16.8002C122.079 16.8002 122.156 16.8318 122.212 16.888L121.434 17.6656C121.284 17.5156 121.2 17.3121 121.2 17.1C121.2 16.8879 121.284 16.6844 121.434 16.5344L121.788 16.888ZM121.788 16.888C121.732 16.9443 121.7 17.0205 121.7 17.1C121.7 17.1795 121.732 17.2558 121.788 17.3121L121.788 16.888ZM116.685 24.3947L116.685 24.3948C116.66 24.4704 116.605 24.5328 116.534 24.5685C116.463 24.6041 116.381 24.61 116.305 24.5848C116.23 24.5597 116.167 24.5055 116.131 24.4343C116.096 24.3631 116.09 24.2807 116.115 24.2052L119.315 14.6053L119.315 14.6051C119.328 14.5677 119.347 14.5331 119.373 14.5033C119.399 14.4735 119.43 14.4491 119.466 14.4315C119.501 14.4139 119.539 14.4033 119.578 14.4005C119.618 14.3977 119.657 14.4027 119.695 14.4152L119.852 13.9418L119.695 14.4152C119.732 14.4277 119.767 14.4474 119.797 14.4732C119.826 14.499 119.851 14.5304 119.868 14.5656C119.886 14.6009 119.897 14.6393 119.899 14.6786C119.902 14.7179 119.897 14.7574 119.885 14.7947L116.685 24.3947Z" fill="#6B7280" stroke="#6B7280"/>
<path fill-rule="evenodd" clip-rule="evenodd" d="M149 25.9C150.697 25.9 152.325 25.2257 153.526 24.0255C154.726 22.8253 155.4 21.1974 155.4 19.5C155.4 17.8026 154.726 16.1748 153.526 14.9745C152.325 13.7743 150.697 13.1 149 13.1C147.303 13.1 145.675 13.7743 144.475 14.9745C143.274 16.1748 142.6 17.8026 142.6 19.5C142.6 21.1974 143.274 22.8253 144.475 24.0255C145.675 25.2257 147.303 25.9 149 25.9V25.9ZM146.6 18.7C146.812 18.7 147.016 18.6157 147.166 18.4657C147.316 18.3157 147.4 18.1122 147.4 17.9C147.4 17.6878 147.316 17.4843 147.166 17.3343C147.016 17.1843 146.812 17.1 146.6 17.1C146.388 17.1 146.184 17.1843 146.034 17.3343C145.884 17.4843 145.8 17.6878 145.8 17.9C145.8 18.1122 145.884 18.3157 146.034 18.4657C146.184 18.6157 146.388 18.7 146.6 18.7ZM152.2 17.9C152.2 18.1122 152.116 18.3157 151.966 18.4657C151.816 18.6157 151.612 18.7 151.4 18.7C151.188 18.7 150.984 18.6157 150.834 18.4657C150.684 18.3157 150.6 18.1122 150.6 17.9C150.6 17.6878 150.684 17.4843 150.834 17.3343C150.984 17.1843 151.188 17.1 151.4 17.1C151.612 17.1 151.816 17.1843 151.966 17.3343C152.116 17.4843 152.2 17.6878 152.2 17.9ZM151.829 22.328C151.903 22.2537 151.962 22.1654 152.002 22.0684C152.042 21.9713 152.063 21.8672 152.063 21.7621C152.063 21.657 152.042 21.553 152.002 21.4559C151.962 21.3589 151.903 21.2707 151.828 21.1964C151.754 21.1221 151.666 21.0632 151.569 21.023C151.472 20.9829 151.368 20.9622 151.263 20.9622C151.158 20.9623 151.053 20.983 150.956 21.0233C150.859 21.0635 150.771 21.1225 150.697 21.1968C150.247 21.6467 149.636 21.8995 149 21.8995C148.364 21.8995 147.753 21.6467 147.303 21.1968C147.153 21.0467 146.95 20.9623 146.738 20.9622C146.525 20.9622 146.322 21.0464 146.172 21.1964C146.022 21.3464 145.937 21.5499 145.937 21.7621C145.937 21.9743 146.021 22.1779 146.171 22.328C146.543 22.6996 146.984 22.9943 147.469 23.1954C147.954 23.3965 148.475 23.5 149 23.5C149.525 23.5 150.046 23.3965 150.531 23.1954C151.016 22.9943 151.457 22.6996 151.829 22.328V22.328Z" fill="#6B7280"/>
<line x1="181.5" y1="11.5" x2="181.5" y2="27.5" stroke="#D1D5DB"/>
<path d="M207.667 15.5H218.333H207.667ZM207.667 18.1667H218.333H207.667ZM207.667 20.8333H218.333H207.667ZM207.667 23.5H218.333Z" fill="#6B7280"/>
<path d="M207.667 23.5H218.333M207.667 15.5H218.333H207.667ZM207.667 18.1667H218.333H207.667ZM207.667 20.8333H218.333H207.667Z" stroke="#6B7280" stroke-width="2" stroke-linecap="round" stroke-linejoin="round"/>
<path fill-rule="evenodd" clip-rule="evenodd" d="M245.192 14.036C244.888 12.788 243.112 12.788 242.808 14.036C242.763 14.2235 242.673 14.3977 242.548 14.5443C242.423 14.691 242.264 14.8059 242.086 14.8798C241.908 14.9537 241.715 14.9845 241.522 14.9697C241.33 14.9548 241.144 14.8948 240.979 14.7944C239.881 14.1256 238.625 15.3816 239.294 16.4792C239.726 17.188 239.343 18.1128 238.537 18.3088C237.288 18.612 237.288 20.3888 238.537 20.6912C238.724 20.7367 238.898 20.8258 239.045 20.9513C239.192 21.0768 239.307 21.2351 239.38 21.4135C239.454 21.5918 239.485 21.785 239.47 21.9775C239.455 22.1699 239.395 22.3561 239.294 22.5208C238.625 23.6184 239.881 24.8744 240.979 24.2056C241.144 24.1051 241.33 24.0448 241.522 24.0299C241.715 24.0149 241.908 24.0456 242.086 24.1194C242.265 24.1933 242.423 24.3082 242.549 24.4548C242.674 24.6014 242.763 24.7756 242.809 24.9632C243.112 26.212 244.889 26.212 245.191 24.9632C245.237 24.7757 245.326 24.6016 245.451 24.4551C245.577 24.3086 245.735 24.1937 245.914 24.1199C246.092 24.0461 246.285 24.0154 246.477 24.0303C246.67 24.0452 246.856 24.1052 247.021 24.2056C248.118 24.8744 249.374 23.6184 248.705 22.5208C248.605 22.356 248.545 22.1699 248.53 21.9775C248.515 21.7851 248.546 21.5919 248.62 21.4137C248.694 21.2354 248.808 21.0771 248.955 20.9515C249.102 20.826 249.276 20.7368 249.463 20.6912C250.712 20.388 250.712 18.6112 249.463 18.3088C249.276 18.2634 249.101 18.1743 248.955 18.0487C248.808 17.9232 248.693 17.7649 248.619 17.5865C248.545 17.4082 248.515 17.215 248.53 17.0226C248.545 16.8301 248.605 16.644 248.705 16.4792C249.374 15.3816 248.118 14.1256 247.021 14.7944C246.856 14.895 246.67 14.9552 246.477 14.9701C246.285 14.9851 246.092 14.9544 245.913 14.8806C245.735 14.8068 245.577 14.6918 245.451 14.5452C245.326 14.3986 245.237 14.2244 245.191 14.0368L245.192 14.036ZM244 21.9C244.636 21.9 245.247 21.6472 245.697 21.1971C246.147 20.747 246.4 20.1365 246.4 19.5C246.4 18.8635 246.147 18.253 245.697 17.8029C245.247 17.3529 244.636 17.1 244 17.1C243.363 17.1 242.753 17.3529 242.303 17.8029C241.853 18.253 241.6 18.8635 241.6 19.5C241.6 20.1365 241.853 20.747 242.303 21.1971C242.753 21.6472 243.363 21.9 244 21.9V21.9Z" fill="#6B7280"/>
<line x1="1" y1="37" x2="349" y2="37" stroke="#D1D5DB"/>
<path d="M1 37.5H349V164.5C349 168.918 345.418 172.5 341 172.5H9C4.58172 172.5 1 168.918 1 164.5V37.5Z" fill="white"/>
<rect x="21" y="55.5" width="134.388" height="6" rx="2" fill="#9CA3AF"/>
<rect x="0.5" y="1" width="349" height="176" rx="8.5" stroke="#D1D5DB"/>
</svg>
