<svg width="410" height="240" viewBox="0 0 410 240" fill="none" xmlns="http://www.w3.org/2000/svg">
<path d="M31 40.5C31 36.0817 34.5817 32.5 39 32.5H371C375.418 32.5 379 36.0817 379 40.5V68.5H31V40.5Z" fill="#374151"/>
<path fill-rule="evenodd" clip-rule="evenodd" d="M53.3999 45.7C52.7634 45.7 52.1529 45.9529 51.7028 46.4029C51.2528 46.853 50.9999 47.4635 50.9999 48.1V51.3C50.9999 52.3609 51.4213 53.3783 52.1715 54.1284C52.9216 54.8786 53.939 55.3 54.9999 55.3C56.0608 55.3 57.0782 54.8786 57.8283 54.1284C58.5785 53.3783 58.9999 52.3609 58.9999 51.3V48.1C58.9999 47.8878 59.0842 47.6843 59.2342 47.5343C59.3842 47.3843 59.5877 47.3 59.7999 47.3C60.0121 47.3 60.2156 47.3843 60.3656 47.5343C60.5156 47.6843 60.5999 47.8878 60.5999 48.1V51.3C60.5999 52.0354 60.4551 52.7636 60.1736 53.443C59.8922 54.1225 59.4797 54.7398 58.9597 55.2598C58.4397 55.7798 57.8224 56.1923 57.1429 56.4737C56.4635 56.7552 55.7353 56.9 54.9999 56.9C54.2645 56.9 53.5363 56.7552 52.8569 56.4737C52.1775 56.1923 51.5601 55.7798 51.0401 55.2598C50.5201 54.7398 50.1076 54.1225 49.8262 53.443C49.5448 52.7636 49.3999 52.0354 49.3999 51.3V48.1C49.3999 47.0391 49.8213 46.0217 50.5715 45.2716C51.3216 44.5214 52.339 44.1 53.3999 44.1C54.4608 44.1 55.4782 44.5214 56.2283 45.2716C56.9785 46.0217 57.3999 47.0391 57.3999 48.1V51.3C57.3999 51.9365 57.147 52.547 56.697 52.9971C56.2469 53.4471 55.6364 53.7 54.9999 53.7C54.3634 53.7 53.7529 53.4471 53.3028 52.9971C52.8528 52.547 52.5999 51.9365 52.5999 51.3V48.1C52.5999 47.8878 52.6842 47.6843 52.8342 47.5343C52.9842 47.3843 53.1877 47.3 53.3999 47.3C53.6121 47.3 53.8156 47.3843 53.9656 47.5343C54.1156 47.6843 54.1999 47.8878 54.1999 48.1V51.3C54.1999 51.5122 54.2842 51.7157 54.4342 51.8657C54.5842 52.0157 54.7877 52.1 54.9999 52.1C55.2121 52.1 55.4156 52.0157 55.5656 51.8657C55.7156 51.7157 55.7999 51.5122 55.7999 51.3V48.1C55.7999 47.4635 55.547 46.853 55.097 46.4029C54.6469 45.9529 54.0364 45.7 53.3999 45.7Z" fill="#9CA3AF"/>
<path fill-rule="evenodd" clip-rule="evenodd" d="M82.0401 45.74C83.0903 44.6897 84.5148 44.0997 86.0001 44.0997C87.4854 44.0997 88.9098 44.6897 89.9601 45.74C91.0103 46.7902 91.6003 48.2147 91.6003 49.7C91.6003 51.1853 91.0103 52.6097 89.9601 53.66L86.0001 57.62L82.0401 53.66C81.52 53.14 81.1074 52.5226 80.826 51.8431C80.5445 51.1637 80.3997 50.4354 80.3997 49.7C80.3997 48.9645 80.5445 48.2363 80.826 47.5568C81.1074 46.8774 81.52 46.26 82.0401 45.74ZM86.0001 51.3C86.4244 51.3 86.8314 51.1314 87.1314 50.8314C87.4315 50.5313 87.6001 50.1243 87.6001 49.7C87.6001 49.2756 87.4315 48.8687 87.1314 48.5686C86.8314 48.2686 86.4244 48.1 86.0001 48.1C85.5757 48.1 85.1687 48.2686 84.8687 48.5686C84.5686 48.8687 84.4001 49.2756 84.4001 49.7C84.4001 50.1243 84.5686 50.5313 84.8687 50.8314C85.1687 51.1314 85.5757 51.3 86.0001 51.3Z" fill="#9CA3AF"/>
<path fill-rule="evenodd" clip-rule="evenodd" d="M112.2 44.9C111.776 44.9 111.369 45.0686 111.069 45.3686C110.769 45.6687 110.6 46.0756 110.6 46.5V54.5C110.6 54.9243 110.769 55.3313 111.069 55.6314C111.369 55.9314 111.776 56.1 112.2 56.1H121.8C122.224 56.1 122.631 55.9314 122.931 55.6314C123.232 55.3313 123.4 54.9243 123.4 54.5V46.5C123.4 46.0756 123.232 45.6687 122.931 45.3686C122.631 45.0686 122.224 44.9 121.8 44.9H112.2ZM121.8 54.5H112.2L115.4 48.1L117.8 52.9L119.4 49.7L121.8 54.5Z" fill="#9CA3AF"/>
<path d="M142.024 50.5L142.378 50.1465L144.212 48.3121C144.212 48.3121 144.212 48.3121 144.212 48.3121C144.268 48.2558 144.3 48.1795 144.3 48.1C144.3 48.0205 144.268 47.9443 144.212 47.888C144.212 47.888 144.212 47.8879 144.212 47.8879M142.024 50.5L144.212 47.8879M142.024 50.5L142.378 50.8536L144.212 52.688L144.212 52.688L144.218 52.6941C144.247 52.7217 144.27 52.7548 144.285 52.7914C144.301 52.828 144.309 52.8674 144.31 52.9072C144.31 52.9471 144.302 52.9866 144.287 53.0234C144.272 53.0603 144.25 53.0938 144.222 53.122C144.194 53.1501 144.16 53.1724 144.123 53.1875C144.086 53.2026 144.047 53.2102 144.007 53.2098C143.967 53.2095 143.928 53.2012 143.891 53.1855C143.855 53.1698 143.822 53.1469 143.794 53.1183L143.794 53.1182L143.788 53.1121L141.388 50.7121C141.332 50.6559 141.3 50.5796 141.3 50.5C141.3 50.4205 141.332 50.3442 141.388 50.288C141.388 50.2879 141.388 50.2879 141.388 50.2879L143.788 47.888M142.024 50.5L143.788 47.888M144.212 47.8879C144.156 47.8317 144.079 47.8002 144 47.8002C143.92 47.8002 143.844 47.8318 143.788 47.888M144.212 47.8879L143.788 47.888M143.788 47.888L143.788 47.888M143.788 47.888L143.788 47.888M152.212 53.112L152.212 53.1121L154.612 50.7121C154.612 50.7121 154.612 50.7121 154.612 50.7121C154.668 50.6558 154.7 50.5795 154.7 50.5C154.7 50.4205 154.668 50.3442 154.612 50.288L152.212 53.112ZM152.212 53.112L152.206 53.1183C152.178 53.1469 152.145 53.1698 152.108 53.1855L152.306 53.6449L152.108 53.1855C152.072 53.2012 152.032 53.2095 151.993 53.2098C151.953 53.2102 151.913 53.2026 151.876 53.1875C151.84 53.1724 151.806 53.1501 151.778 53.122C151.75 53.0938 151.727 53.0603 151.712 53.0234L151.25 53.2128L151.712 53.0234C151.697 52.9866 151.69 52.9471 151.69 52.9072C151.69 52.8674 151.699 52.828 151.714 52.7914C151.73 52.7548 151.753 52.7217 151.782 52.6941L151.782 52.6941L151.788 52.688L153.622 50.8536L153.976 50.5L153.622 50.1465L151.788 48.3121C151.788 48.3121 151.788 48.3121 151.788 48.3121C151.732 48.2558 151.7 48.1795 151.7 48.1C151.7 48.0205 151.732 47.9443 151.788 47.888C151.844 47.8318 151.92 47.8002 152 47.8002C152.079 47.8002 152.156 47.8318 152.212 47.888C152.212 47.888 152.212 47.888 152.212 47.888L154.612 50.2879L152.212 53.112ZM149.695 45.4152L149.695 45.4152C149.732 45.4277 149.767 45.4474 149.797 45.4732C149.826 45.499 149.851 45.5304 149.868 45.5656C149.886 45.6009 149.897 45.6393 149.899 45.6786C149.902 45.7179 149.897 45.7574 149.885 45.7947L146.685 55.3947L146.685 55.3948C146.66 55.4704 146.605 55.5328 146.534 55.5685C146.463 55.6041 146.381 55.61 146.305 55.5848L146.147 56.0592L146.305 55.5848C146.23 55.5597 146.167 55.5055 146.131 55.4343C146.096 55.3632 146.09 55.2808 146.115 55.2053C146.115 55.2053 146.115 55.2052 146.115 55.2052L149.315 45.6053L149.315 45.6051C149.328 45.5677 149.347 45.5331 149.373 45.5033C149.399 45.4735 149.43 45.4491 149.466 45.4315C149.501 45.4139 149.539 45.4033 149.578 45.4005C149.618 45.3977 149.657 45.4027 149.695 45.4152Z" fill="#9CA3AF" stroke="#9CA3AF"/>
<path fill-rule="evenodd" clip-rule="evenodd" d="M179 56.9C180.697 56.9 182.325 56.2257 183.526 55.0255C184.726 53.8253 185.4 52.1974 185.4 50.5C185.4 48.8026 184.726 47.1748 183.526 45.9745C182.325 44.7743 180.697 44.1 179 44.1C177.303 44.1 175.675 44.7743 174.475 45.9745C173.274 47.1748 172.6 48.8026 172.6 50.5C172.6 52.1974 173.274 53.8253 174.475 55.0255C175.675 56.2257 177.303 56.9 179 56.9ZM176.6 49.7C176.812 49.7 177.016 49.6157 177.166 49.4657C177.316 49.3157 177.4 49.1122 177.4 48.9C177.4 48.6878 177.316 48.4843 177.166 48.3343C177.016 48.1843 176.812 48.1 176.6 48.1C176.388 48.1 176.184 48.1843 176.034 48.3343C175.884 48.4843 175.8 48.6878 175.8 48.9C175.8 49.1122 175.884 49.3157 176.034 49.4657C176.184 49.6157 176.388 49.7 176.6 49.7ZM182.2 48.9C182.2 49.1122 182.116 49.3157 181.966 49.4657C181.816 49.6157 181.612 49.7 181.4 49.7C181.188 49.7 180.984 49.6157 180.834 49.4657C180.684 49.3157 180.6 49.1122 180.6 48.9C180.6 48.6878 180.684 48.4843 180.834 48.3343C180.984 48.1843 181.188 48.1 181.4 48.1C181.612 48.1 181.816 48.1843 181.966 48.3343C182.116 48.4843 182.2 48.6878 182.2 48.9ZM181.829 53.328C181.903 53.2537 181.962 53.1654 182.002 53.0684C182.042 52.9713 182.063 52.8672 182.063 52.7621C182.063 52.657 182.042 52.553 182.002 52.4559C181.962 52.3589 181.903 52.2707 181.828 52.1964C181.754 52.1221 181.666 52.0632 181.569 52.023C181.472 51.9829 181.368 51.9622 181.263 51.9622C181.158 51.9623 181.053 51.983 180.956 52.0233C180.859 52.0635 180.771 52.1225 180.697 52.1968C180.247 52.6467 179.636 52.8995 179 52.8995C178.364 52.8995 177.753 52.6467 177.303 52.1968C177.153 52.0467 176.95 51.9623 176.738 51.9622C176.525 51.9622 176.322 52.0464 176.172 52.1964C176.022 52.3464 175.937 52.5499 175.937 52.7621C175.937 52.9743 176.021 53.1779 176.171 53.328C176.543 53.6996 176.984 53.9943 177.469 54.1954C177.954 54.3965 178.475 54.5 179 54.5C179.525 54.5 180.046 54.3965 180.531 54.1954C181.016 53.9943 181.457 53.6996 181.829 53.328Z" fill="#9CA3AF"/>
<line x1="211.5" y1="42.5" x2="211.5" y2="58.5" stroke="#6B7280"/>
<path d="M237.667 46.5H248.333H237.667ZM237.667 49.1667H248.333H237.667ZM237.667 51.8333H248.333H237.667ZM237.667 54.5H248.333H237.667Z" fill="#9CA3AF"/>
<path d="M237.667 54.5H248.333M237.667 46.5H248.333H237.667ZM237.667 49.1667H248.333H237.667ZM237.667 51.8333H248.333H237.667Z" stroke="#9CA3AF" stroke-width="2" stroke-linecap="round" stroke-linejoin="round"/>
<path fill-rule="evenodd" clip-rule="evenodd" d="M275.192 45.036C274.888 43.788 273.112 43.788 272.808 45.036C272.763 45.2235 272.673 45.3977 272.548 45.5443C272.423 45.691 272.264 45.8059 272.086 45.8798C271.908 45.9537 271.715 45.9845 271.522 45.9697C271.33 45.9548 271.144 45.8948 270.979 45.7944C269.881 45.1256 268.625 46.3816 269.294 47.4792C269.726 48.188 269.343 49.1128 268.537 49.3088C267.288 49.612 267.288 51.3888 268.537 51.6912C268.724 51.7367 268.898 51.8258 269.045 51.9513C269.192 52.0768 269.307 52.2351 269.38 52.4135C269.454 52.5918 269.485 52.785 269.47 52.9775C269.455 53.1699 269.395 53.3561 269.294 53.5208C268.625 54.6184 269.881 55.8744 270.979 55.2056C271.144 55.1051 271.33 55.0448 271.522 55.0299C271.715 55.0149 271.908 55.0456 272.086 55.1194C272.265 55.1933 272.423 55.3082 272.549 55.4548C272.674 55.6014 272.763 55.7756 272.809 55.9632C273.112 57.212 274.889 57.212 275.191 55.9632C275.237 55.7757 275.326 55.6016 275.451 55.4551C275.577 55.3086 275.735 55.1937 275.914 55.1199C276.092 55.0461 276.285 55.0154 276.477 55.0303C276.67 55.0452 276.856 55.1052 277.021 55.2056C278.118 55.8744 279.374 54.6184 278.705 53.5208C278.605 53.356 278.545 53.1699 278.53 52.9775C278.515 52.7851 278.546 52.5919 278.62 52.4137C278.694 52.2354 278.808 52.0771 278.955 51.9515C279.102 51.826 279.276 51.7368 279.463 51.6912C280.712 51.388 280.712 49.6112 279.463 49.3088C279.276 49.2634 279.101 49.1743 278.955 49.0487C278.808 48.9232 278.693 48.7649 278.619 48.5865C278.545 48.4082 278.515 48.215 278.53 48.0226C278.545 47.8301 278.605 47.644 278.705 47.4792C279.374 46.3816 278.118 45.1256 277.021 45.7944C276.856 45.895 276.67 45.9552 276.477 45.9701C276.285 45.9851 276.092 45.9544 275.913 45.8806C275.735 45.8068 275.577 45.6918 275.451 45.5452C275.326 45.3986 275.237 45.2244 275.191 45.0368L275.192 45.036ZM274 52.9C274.636 52.9 275.247 52.6472 275.697 52.1971C276.147 51.747 276.4 51.1365 276.4 50.5C276.4 49.8635 276.147 49.253 275.697 48.8029C275.247 48.3529 274.636 48.1 274 48.1C273.363 48.1 272.753 48.3529 272.303 48.8029C271.853 49.253 271.6 49.8635 271.6 50.5C271.6 51.1365 271.853 51.747 272.303 52.1971C272.753 52.6472 273.363 52.9 274 52.9Z" fill="#9CA3AF"/>
<line x1="31" y1="68" x2="379" y2="68" stroke="#4B5563"/>
<path d="M31 68.5H379V199.5C379 203.918 375.418 207.5 371 207.5H39C34.5817 207.5 31 203.918 31 199.5V68.5Z" fill="#1F2A37"/>
<rect x="51" y="86.5" width="134.388" height="6" rx="2" fill="#6B7280"/>
<rect x="30.5" y="32" width="349" height="176" rx="8.5" stroke="#4B5563"/>
</svg>
