<svg width="350" height="230" viewBox="0 0 350 230" fill="none" xmlns="http://www.w3.org/2000/svg">
<path d="M78.7884 97H72.8565L81.8949 70.8182H89.0284L98.054 97H92.1222L85.5639 76.8011H85.3594L78.7884 97ZM78.4176 86.7088H92.429V91.0298H78.4176V86.7088ZM106.702 97.3707C105.45 97.3707 104.333 97.1534 103.353 96.7188C102.373 96.2756 101.597 95.6236 101.026 94.7628C100.464 93.8935 100.183 92.8111 100.183 91.5156C100.183 90.4247 100.383 89.5085 100.783 88.767C101.184 88.0256 101.729 87.429 102.42 86.9773C103.11 86.5256 103.894 86.1847 104.772 85.9545C105.658 85.7244 106.587 85.5625 107.559 85.4688C108.701 85.3494 109.621 85.2386 110.32 85.1364C111.019 85.0256 111.526 84.8636 111.842 84.6506C112.157 84.4375 112.315 84.1222 112.315 83.7045V83.6278C112.315 82.8182 112.059 82.1918 111.548 81.7486C111.045 81.3054 110.329 81.0838 109.4 81.0838C108.42 81.0838 107.64 81.3011 107.06 81.7358C106.481 82.1619 106.097 82.6989 105.91 83.3466L100.873 82.9375C101.129 81.7443 101.631 80.7131 102.381 79.8438C103.131 78.9659 104.099 78.2926 105.283 77.8239C106.477 77.3466 107.857 77.108 109.425 77.108C110.516 77.108 111.56 77.2358 112.558 77.4915C113.563 77.7472 114.454 78.1435 115.229 78.6804C116.013 79.2173 116.631 79.9077 117.083 80.7514C117.535 81.5866 117.761 82.5881 117.761 83.7557V97H112.596V94.277H112.442C112.127 94.8906 111.705 95.4318 111.177 95.9006C110.648 96.3608 110.013 96.723 109.272 96.9872C108.531 97.2429 107.674 97.3707 106.702 97.3707ZM108.262 93.6122C109.063 93.6122 109.771 93.4545 110.384 93.1392C110.998 92.8153 111.479 92.3807 111.829 91.8352C112.178 91.2898 112.353 90.6719 112.353 89.9815V87.8977C112.183 88.0085 111.948 88.1108 111.65 88.2045C111.36 88.2898 111.032 88.3707 110.665 88.4474C110.299 88.5156 109.933 88.5795 109.566 88.6392C109.2 88.6903 108.867 88.7372 108.569 88.7798C107.93 88.8736 107.371 89.0227 106.894 89.2273C106.417 89.4318 106.046 89.7088 105.782 90.0582C105.518 90.3991 105.386 90.8253 105.386 91.3366C105.386 92.0781 105.654 92.6449 106.191 93.0369C106.737 93.4205 107.427 93.6122 108.262 93.6122Z" fill="#9CA3AF"/>
<rect x="141" y="55" width="146" height="8" rx="3" fill="#4B5563"/>
<rect x="148" y="71" width="139" height="8" rx="3" fill="#4B5563"/>
<rect x="146" y="87" width="141" height="8" rx="3" fill="#4B5563"/>
<rect x="136" y="103" width="151" height="8" rx="3" fill="#4B5563"/>
<rect x="63" y="119" width="224" height="8" rx="3" fill="#4B5563"/>
<rect x="63" y="135" width="224" height="8" rx="3" fill="#4B5563"/>
<rect x="63" y="151" width="224" height="8" rx="3" fill="#4B5563"/>
<rect x="63" y="167" width="224" height="8" rx="3" fill="#4B5563"/>
</svg>
