<svg width="144" height="222" viewBox="0 0 144 222" fill="none" xmlns="http://www.w3.org/2000/svg">
<rect x="3.7666" y="0.705078" width="1" height="220.59" rx="0.5" fill="#D1D5DB" stroke="#D1D5DB"/>
<path d="M7.7666 26.7097C7.7666 28.5633 6.21387 30.0913 4.2666 30.0913C2.31934 30.0913 0.766602 28.5633 0.766602 26.7097C0.766602 24.8562 2.31934 23.3281 4.2666 23.3281C6.21387 23.3281 7.7666 24.8562 7.7666 26.7097Z" fill="#D1D5DB" stroke="white"/>
<path d="M7.7666 106.282C7.7666 108.136 6.21387 109.664 4.2666 109.664C2.31934 109.664 0.766602 108.136 0.766602 106.282C0.766602 104.429 2.31934 102.901 4.2666 102.901C6.21387 102.901 7.7666 104.429 7.7666 106.282Z" fill="#D1D5DB" stroke="white"/>
<path d="M7.7666 185.855C7.7666 187.709 6.21387 189.237 4.2666 189.237C2.31934 189.237 0.766602 187.709 0.766602 185.855C0.766602 184.002 2.31934 182.474 4.2666 182.474C6.21387 182.474 7.7666 184.002 7.7666 185.855Z" fill="#D1D5DB" stroke="white"/>
<rect x="17.1769" y="24.7034" width="71.7043" height="4" rx="2" fill="#9CA3AF"/>
<rect x="17.1769" y="31.9644" width="46.2609" height="3" rx="1.5" fill="#D1D5DB"/>
<rect x="17.1769" y="40.886" width="126.556" height="3" rx="1.5" fill="#D1D5DB"/>
<rect x="17.1769" y="46.886" width="121.93" height="3" rx="1.5" fill="#D1D5DB"/>
<rect x="17.1769" y="52.886" width="102.104" height="3" rx="1.5" fill="#D1D5DB"/>
<rect x="17.177" y="104.598" width="71.7043" height="4" rx="2" fill="#9CA3AF"/>
<rect x="17.177" y="111.859" width="46.2609" height="3" rx="1.5" fill="#D1D5DB"/>
<rect x="17.177" y="120.781" width="126.556" height="3" rx="1.5" fill="#D1D5DB"/>
<rect x="17.177" y="126.781" width="121.93" height="3" rx="1.5" fill="#D1D5DB"/>
<rect x="17.177" y="132.781" width="102.104" height="3" rx="1.5" fill="#D1D5DB"/>
<rect x="17.043" y="183.612" width="71.7043" height="4" rx="2" fill="#9CA3AF"/>
<rect x="17.043" y="190.873" width="46.2609" height="3" rx="1.5" fill="#D1D5DB"/>
<rect x="17.043" y="199.795" width="126.556" height="3" rx="1.5" fill="#D1D5DB"/>
<rect x="17.043" y="205.795" width="121.93" height="3" rx="1.5" fill="#D1D5DB"/>
</svg>
