<svg width="144" height="223" viewBox="0 0 144 223" fill="none" xmlns="http://www.w3.org/2000/svg">
<rect x="3.2666" y="0.825439" width="2" height="221.59" rx="1" fill="#374151"/>
<path d="M7.7666 27.3301C7.7666 29.1836 6.21387 30.7117 4.2666 30.7117C2.31934 30.7117 0.766602 29.1836 0.766602 27.3301C0.766602 25.4765 2.31934 23.9485 4.2666 23.9485C6.21387 23.9485 7.7666 25.4765 7.7666 27.3301Z" fill="#374151" stroke="#111827"/>
<path d="M7.7666 106.903C7.7666 108.756 6.21387 110.284 4.2666 110.284C2.31934 110.284 0.766602 108.756 0.766602 106.903C0.766602 105.049 2.31934 103.521 4.2666 103.521C6.21387 103.521 7.7666 105.049 7.7666 106.903Z" fill="#374151" stroke="#111827"/>
<path d="M7.7666 186.476C7.7666 188.329 6.21387 189.857 4.2666 189.857C2.31934 189.857 0.766602 188.329 0.766602 186.476C0.766602 184.622 2.31934 183.094 4.2666 183.094C6.21387 183.094 7.7666 184.622 7.7666 186.476Z" fill="#374151" stroke="#111827"/>
<rect x="17.1769" y="25.3237" width="71.7043" height="4" rx="2" fill="#D1D5DB"/>
<rect x="17.1769" y="32.5845" width="46.2609" height="3" rx="1.5" fill="#6B7280"/>
<rect x="17.1769" y="41.5063" width="126.556" height="3" rx="1.5" fill="#6B7280"/>
<rect x="17.1769" y="47.5063" width="121.93" height="3" rx="1.5" fill="#6B7280"/>
<rect x="17.1769" y="53.5063" width="102.104" height="3" rx="1.5" fill="#6B7280"/>
<rect x="17.177" y="105.219" width="71.7043" height="4" rx="2" fill="#D1D5DB"/>
<rect x="17.177" y="112.479" width="46.2609" height="3" rx="1.5" fill="#6B7280"/>
<rect x="17.177" y="121.401" width="126.556" height="3" rx="1.5" fill="#6B7280"/>
<rect x="17.177" y="127.401" width="121.93" height="3" rx="1.5" fill="#6B7280"/>
<rect x="17.177" y="133.401" width="102.104" height="3" rx="1.5" fill="#6B7280"/>
<rect x="17.043" y="184.233" width="71.7043" height="4" rx="2" fill="#D1D5DB"/>
<rect x="17.043" y="191.494" width="46.2609" height="3" rx="1.5" fill="#6B7280"/>
<rect x="17.043" y="200.416" width="126.556" height="3" rx="1.5" fill="#6B7280"/>
<rect x="17.043" y="206.416" width="121.93" height="3" rx="1.5" fill="#6B7280"/>
</svg>
