<svg width="410" height="240" viewBox="0 0 410 240" fill="none" xmlns="http://www.w3.org/2000/svg">
<rect x="136.267" y="5.8252" width="2" height="221.59" rx="1" fill="#374151"/>
<path d="M140.767 32.3298C140.767 34.1834 139.214 35.7114 137.267 35.7114C135.319 35.7114 133.767 34.1834 133.767 32.3298C133.767 30.4763 135.319 28.9482 137.267 28.9482C139.214 28.9482 140.767 30.4763 140.767 32.3298Z" fill="#374151" stroke="#111827"/>
<path d="M140.767 111.903C140.767 113.756 139.214 115.284 137.267 115.284C135.319 115.284 133.767 113.756 133.767 111.903C133.767 110.049 135.319 108.521 137.267 108.521C139.214 108.521 140.767 110.049 140.767 111.903Z" fill="#374151" stroke="#111827"/>
<path d="M140.767 191.475C140.767 193.329 139.214 194.857 137.267 194.857C135.319 194.857 133.767 193.329 133.767 191.475C133.767 189.622 135.319 188.094 137.267 188.094C139.214 188.094 140.767 189.622 140.767 191.475Z" fill="#374151" stroke="#111827"/>
<rect x="150.177" y="30.3232" width="71.7043" height="4" rx="2" fill="#D1D5DB"/>
<rect x="150.177" y="37.584" width="46.2609" height="3" rx="1.5" fill="#6B7280"/>
<rect x="150.177" y="46.5059" width="126.556" height="3" rx="1.5" fill="#6B7280"/>
<rect x="150.177" y="52.5059" width="121.93" height="3" rx="1.5" fill="#6B7280"/>
<rect x="150.177" y="58.5059" width="102.104" height="3" rx="1.5" fill="#6B7280"/>
<rect x="150.177" y="110.218" width="71.7043" height="4" rx="2" fill="#D1D5DB"/>
<rect x="150.177" y="117.479" width="46.2609" height="3" rx="1.5" fill="#6B7280"/>
<rect x="150.177" y="126.401" width="126.556" height="3" rx="1.5" fill="#6B7280"/>
<rect x="150.177" y="132.401" width="121.93" height="3" rx="1.5" fill="#6B7280"/>
<rect x="150.177" y="138.401" width="102.104" height="3" rx="1.5" fill="#6B7280"/>
<rect x="150.043" y="189.232" width="71.7043" height="4" rx="2" fill="#D1D5DB"/>
<rect x="150.043" y="196.493" width="46.2609" height="3" rx="1.5" fill="#6B7280"/>
<rect x="150.043" y="205.415" width="126.556" height="3" rx="1.5" fill="#6B7280"/>
<rect x="150.043" y="211.415" width="121.93" height="3" rx="1.5" fill="#6B7280"/>
</svg>
