<svg width="410" height="240" viewBox="0 0 410 240" fill="none" xmlns="http://www.w3.org/2000/svg">
<rect x="136.767" y="9.70508" width="1" height="220.59" rx="0.5" fill="#D1D5DB" stroke="#D1D5DB"/>
<path d="M140.767 35.7097C140.767 37.5633 139.214 39.0913 137.267 39.0913C135.319 39.0913 133.767 37.5633 133.767 35.7097C133.767 33.8562 135.319 32.3281 137.267 32.3281C139.214 32.3281 140.767 33.8562 140.767 35.7097Z" fill="#D1D5DB" stroke="white"/>
<path d="M140.767 115.282C140.767 117.136 139.214 118.664 137.267 118.664C135.319 118.664 133.767 117.136 133.767 115.282C133.767 113.429 135.319 111.901 137.267 111.901C139.214 111.901 140.767 113.429 140.767 115.282Z" fill="#D1D5DB" stroke="white"/>
<path d="M140.767 194.855C140.767 196.709 139.214 198.237 137.267 198.237C135.319 198.237 133.767 196.709 133.767 194.855C133.767 193.002 135.319 191.474 137.267 191.474C139.214 191.474 140.767 193.002 140.767 194.855Z" fill="#D1D5DB" stroke="white"/>
<rect x="150.177" y="33.7031" width="71.7043" height="4" rx="2" fill="#9CA3AF"/>
<rect x="150.177" y="40.9639" width="46.2609" height="3" rx="1.5" fill="#D1D5DB"/>
<rect x="150.177" y="49.8857" width="126.556" height="3" rx="1.5" fill="#D1D5DB"/>
<rect x="150.177" y="55.8857" width="121.93" height="3" rx="1.5" fill="#D1D5DB"/>
<rect x="150.177" y="61.8857" width="102.104" height="3" rx="1.5" fill="#D1D5DB"/>
<rect x="150.177" y="113.598" width="71.7043" height="4" rx="2" fill="#9CA3AF"/>
<rect x="150.177" y="120.859" width="46.2609" height="3" rx="1.5" fill="#D1D5DB"/>
<rect x="150.177" y="129.781" width="126.556" height="3" rx="1.5" fill="#D1D5DB"/>
<rect x="150.177" y="135.781" width="121.93" height="3" rx="1.5" fill="#D1D5DB"/>
<rect x="150.177" y="141.781" width="102.104" height="3" rx="1.5" fill="#D1D5DB"/>
<rect x="150.043" y="192.612" width="71.7043" height="4" rx="2" fill="#9CA3AF"/>
<rect x="150.043" y="199.873" width="46.2609" height="3" rx="1.5" fill="#D1D5DB"/>
<rect x="150.043" y="208.795" width="126.556" height="3" rx="1.5" fill="#D1D5DB"/>
<rect x="150.043" y="214.795" width="121.93" height="3" rx="1.5" fill="#D1D5DB"/>
</svg>
