<svg width="410" height="240" viewBox="0 0 410 240" fill="none" xmlns="http://www.w3.org/2000/svg">
<g filter="url(#filter0_dd_169_147698)">
<rect x="91" y="115.5" width="228" height="62" rx="8" fill="white"/>
<path d="M111.833 138.833H111V135.5H110.167M111 132.167H111.008M118.5 135.5C118.5 136.485 118.306 137.46 117.929 138.37C117.552 139.28 117 140.107 116.303 140.803C115.607 141.5 114.78 142.052 113.87 142.429C112.96 142.806 111.985 143 111 143C110.015 143 109.04 142.806 108.13 142.429C107.22 142.052 106.393 141.5 105.697 140.803C105 140.107 104.448 139.28 104.071 138.37C103.694 137.46 103.5 136.485 103.5 135.5C103.5 133.511 104.29 131.603 105.697 130.197C107.103 128.79 109.011 128 111 128C112.989 128 114.897 128.79 116.303 130.197C117.71 131.603 118.5 133.511 118.5 135.5Z" stroke="#9CA3AF" stroke-width="2" stroke-linecap="round" stroke-linejoin="round"/>
<rect x="129" y="125.5" width="84.6768" height="7" rx="2" fill="#9CA3AF"/>
<rect x="129" y="140.5" width="150" height="5" rx="2" fill="#D1D5DB"/>
<rect x="129" y="153.5" width="72.5" height="14" rx="2" fill="#EB4F27"/>
<rect x="135" y="159" width="60.5" height="3" rx="1.5" fill="white"/>
<rect x="206.5" y="153.5" width="72.5" height="14" rx="2" fill="#E5E7EB"/>
<rect x="212.5" y="159" width="60.5" height="3" rx="1.5" fill="#9CA3AF"/>
<path d="M302 132.217L301.647 131.864L298.642 128.859C298.642 128.859 298.642 128.859 298.641 128.859C298.604 128.821 298.553 128.8 298.5 128.8C298.447 128.8 298.396 128.821 298.359 128.859C298.359 128.859 298.359 128.859 298.359 128.859M302 132.217L298.359 128.859M302 132.217L302.354 131.864L305.359 128.859L305.359 128.859L305.365 128.853C305.383 128.833 305.405 128.818 305.43 128.808L305.233 128.349L305.43 128.808C305.454 128.797 305.48 128.792 305.507 128.792C305.534 128.791 305.56 128.796 305.584 128.806C305.609 128.816 305.631 128.831 305.65 128.85L305.65 128.85C305.669 128.869 305.684 128.891 305.694 128.916C305.704 128.94 305.709 128.967 305.709 128.993C305.709 129.02 305.703 129.046 305.693 129.07C305.682 129.095 305.667 129.117 305.648 129.135L305.648 129.135L305.641 129.141L302.636 132.147L302.283 132.5L302.636 132.854L305.637 135.855M302 132.217L305.637 135.855M298.359 128.859C298.321 128.896 298.3 128.947 298.3 129C298.3 129.053 298.321 129.104 298.359 129.141M298.359 128.859L298.359 129.141M298.359 129.141C298.359 129.141 298.359 129.141 298.359 129.142L301.364 132.147L301.717 132.5L301.364 132.854L298.363 135.855C298.328 135.892 298.308 135.942 298.309 135.993C298.309 136.046 298.33 136.096 298.367 136.133C298.404 136.17 298.455 136.191 298.507 136.191C298.558 136.192 298.608 136.173 298.645 136.137L301.647 133.136L302 132.783L302.354 133.136L305.355 136.137C305.392 136.173 305.442 136.192 305.493 136.191C305.546 136.191 305.596 136.17 305.633 136.133C305.67 136.096 305.691 136.046 305.692 135.993C305.692 135.942 305.673 135.892 305.637 135.855M298.359 129.141L305.637 135.855" fill="black" stroke="#9CA3AF"/>
</g>
<g filter="url(#filter1_dd_169_147698)">
<rect x="91" y="62.5" width="228" height="40" rx="8" fill="white"/>
<path d="M111.833 85.8333H111V82.5H110.167M111 79.1667H111.008M118.5 82.5C118.5 83.4849 118.306 84.4602 117.929 85.3701C117.552 86.2801 117 87.1069 116.303 87.8033C115.607 88.4997 114.78 89.0522 113.87 89.4291C112.96 89.806 111.985 90 111 90C110.015 90 109.04 89.806 108.13 89.4291C107.22 89.0522 106.393 88.4997 105.697 87.8033C105 87.1069 104.448 86.2801 104.071 85.3701C103.694 84.4602 103.5 83.4849 103.5 82.5C103.5 80.5109 104.29 78.6032 105.697 77.1967C107.103 75.7902 109.011 75 111 75C112.989 75 114.897 75.7902 116.303 77.1967C117.71 78.6032 118.5 80.5109 118.5 82.5Z" stroke="#9CA3AF" stroke-width="2" stroke-linecap="round" stroke-linejoin="round"/>
<rect x="129" y="79" width="150" height="7" rx="2" fill="#D1D5DB"/>
<path d="M302 82.2174L301.647 81.8639L298.642 78.8588C298.642 78.8588 298.642 78.8588 298.641 78.8588C298.604 78.8213 298.553 78.8003 298.5 78.8003C298.447 78.8003 298.396 78.8213 298.359 78.8587C298.359 78.8587 298.359 78.8588 298.359 78.8588M302 82.2174L298.359 78.8588M302 82.2174L302.354 81.8639L305.359 78.8588L305.359 78.8588L305.365 78.8526C305.383 78.8335 305.405 78.8182 305.43 78.8077L305.233 78.349L305.43 78.8077C305.454 78.7973 305.48 78.7917 305.507 78.7915C305.534 78.7913 305.56 78.7963 305.584 78.8064C305.609 78.8165 305.631 78.8313 305.65 78.8501L305.65 78.8501C305.669 78.8689 305.684 78.8912 305.694 78.9158C305.704 78.9404 305.709 78.9667 305.709 78.9932C305.709 79.0198 305.703 79.046 305.693 79.0704C305.682 79.0948 305.667 79.1169 305.648 79.1354L305.648 79.1353L305.641 79.1415L302.636 82.1466L302.283 82.5001L302.636 82.8537L305.637 85.8548M302 82.2174L305.637 85.8548M298.359 78.8588C298.321 78.8963 298.3 78.9471 298.3 79.0001C298.3 79.0531 298.321 79.104 298.359 79.1415M298.359 78.8588L298.359 79.1415M298.359 79.1415C298.359 79.1415 298.359 79.1415 298.359 79.1415L301.364 82.1466L301.717 82.5001L301.364 82.8537L298.363 85.8548C298.328 85.8922 298.308 85.9418 298.309 85.9932C298.309 86.0457 298.33 86.0958 298.367 86.1329C298.404 86.17 298.455 86.191 298.507 86.1915C298.558 86.1919 298.608 86.1726 298.645 86.1374L301.647 83.1364L302 82.7828L302.354 83.1364L305.355 86.1374C305.392 86.1726 305.442 86.1919 305.493 86.1915C305.546 86.191 305.596 86.17 305.633 86.1329C305.67 86.0958 305.691 86.0457 305.692 85.9932C305.692 85.9418 305.673 85.8922 305.637 85.8548M298.359 79.1415L305.637 85.8548" fill="black" stroke="#9CA3AF"/>
</g>
<defs>
<filter id="filter0_dd_169_147698" x="88" y="113.5" width="234" height="68" filterUnits="userSpaceOnUse" color-interpolation-filters="sRGB">
<feFlood flood-opacity="0" result="BackgroundImageFix"/>
<feColorMatrix in="SourceAlpha" type="matrix" values="0 0 0 0 0 0 0 0 0 0 0 0 0 0 0 0 0 0 127 0" result="hardAlpha"/>
<feOffset dy="1"/>
<feGaussianBlur stdDeviation="1.5"/>
<feColorMatrix type="matrix" values="0 0 0 0 0 0 0 0 0 0 0 0 0 0 0 0 0 0 0.1 0"/>
<feBlend mode="normal" in2="BackgroundImageFix" result="effect1_dropShadow_169_147698"/>
<feColorMatrix in="SourceAlpha" type="matrix" values="0 0 0 0 0 0 0 0 0 0 0 0 0 0 0 0 0 0 127 0" result="hardAlpha"/>
<feOffset dy="1"/>
<feGaussianBlur stdDeviation="1"/>
<feColorMatrix type="matrix" values="0 0 0 0 0 0 0 0 0 0 0 0 0 0 0 0 0 0 0.06 0"/>
<feBlend mode="normal" in2="effect1_dropShadow_169_147698" result="effect2_dropShadow_169_147698"/>
<feBlend mode="normal" in="SourceGraphic" in2="effect2_dropShadow_169_147698" result="shape"/>
</filter>
<filter id="filter1_dd_169_147698" x="88" y="60.5" width="234" height="46" filterUnits="userSpaceOnUse" color-interpolation-filters="sRGB">
<feFlood flood-opacity="0" result="BackgroundImageFix"/>
<feColorMatrix in="SourceAlpha" type="matrix" values="0 0 0 0 0 0 0 0 0 0 0 0 0 0 0 0 0 0 127 0" result="hardAlpha"/>
<feOffset dy="1"/>
<feGaussianBlur stdDeviation="1.5"/>
<feColorMatrix type="matrix" values="0 0 0 0 0 0 0 0 0 0 0 0 0 0 0 0 0 0 0.1 0"/>
<feBlend mode="normal" in2="BackgroundImageFix" result="effect1_dropShadow_169_147698"/>
<feColorMatrix in="SourceAlpha" type="matrix" values="0 0 0 0 0 0 0 0 0 0 0 0 0 0 0 0 0 0 127 0" result="hardAlpha"/>
<feOffset dy="1"/>
<feGaussianBlur stdDeviation="1"/>
<feColorMatrix type="matrix" values="0 0 0 0 0 0 0 0 0 0 0 0 0 0 0 0 0 0 0.06 0"/>
<feBlend mode="normal" in2="effect1_dropShadow_169_147698" result="effect2_dropShadow_169_147698"/>
<feBlend mode="normal" in="SourceGraphic" in2="effect2_dropShadow_169_147698" result="shape"/>
</filter>
</defs>
</svg>
