<svg width="350" height="230" viewBox="0 0 350 230" fill="none" xmlns="http://www.w3.org/2000/svg">
<rect x="60" y="52" width="230" height="126" rx="8" fill="#4B5563"/>
<path fill-rule="evenodd" clip-rule="evenodd" d="M175.001 130.2C179.032 130.2 182.898 128.598 185.749 125.748C188.599 122.897 190.201 119.031 190.201 115C190.201 110.969 188.599 107.102 185.749 104.252C182.898 101.401 179.032 99.7998 175.001 99.7998C170.969 99.7998 167.103 101.401 164.253 104.252C161.402 107.102 159.801 110.969 159.801 115C159.801 119.031 161.402 122.897 164.253 125.748C167.103 128.598 170.969 130.2 175.001 130.2ZM174.155 109.619C173.869 109.428 173.537 109.318 173.193 109.302C172.849 109.285 172.508 109.362 172.204 109.524C171.901 109.687 171.648 109.928 171.471 110.223C171.294 110.518 171.201 110.856 171.201 111.2V118.8C171.201 119.144 171.294 119.481 171.471 119.776C171.648 120.072 171.901 120.313 172.204 120.475C172.508 120.638 172.849 120.715 173.193 120.698C173.537 120.681 173.869 120.572 174.155 120.381L179.855 116.581C180.116 116.407 180.329 116.172 180.476 115.896C180.624 115.62 180.701 115.313 180.701 115C180.701 114.687 180.624 114.379 180.476 114.103C180.329 113.828 180.116 113.593 179.855 113.419L174.155 109.619Z" fill="white"/>
</svg>
