<svg width="350" height="230" viewBox="0 0 350 230" fill="none" xmlns="http://www.w3.org/2000/svg">
<rect x="60" y="52" width="230" height="126" rx="8" fill="#D1D5DB"/>
<path fill-rule="evenodd" clip-rule="evenodd" d="M175 130.2C179.031 130.2 182.897 128.598 185.748 125.748C188.599 122.897 190.2 119.031 190.2 115C190.2 110.969 188.599 107.102 185.748 104.252C182.897 101.401 179.031 99.7998 175 99.7998C170.969 99.7998 167.103 101.401 164.252 104.252C161.401 107.102 159.8 110.969 159.8 115C159.8 119.031 161.401 122.897 164.252 125.748C167.103 128.598 170.969 130.2 175 130.2ZM174.154 109.619C173.868 109.428 173.536 109.318 173.192 109.302C172.849 109.285 172.507 109.362 172.204 109.524C171.9 109.687 171.647 109.928 171.47 110.223C171.293 110.518 171.2 110.856 171.2 111.2V118.8C171.2 119.144 171.293 119.481 171.47 119.776C171.647 120.072 171.9 120.313 172.204 120.475C172.507 120.638 172.849 120.715 173.192 120.698C173.536 120.681 173.868 120.572 174.154 120.381L179.854 116.581C180.115 116.407 180.328 116.172 180.476 115.896C180.623 115.62 180.7 115.313 180.7 115C180.7 114.687 180.623 114.379 180.476 114.103C180.328 113.828 180.115 113.593 179.854 113.419L174.154 109.619Z" fill="white"/>
</svg>
