<svg width="536" height="345" viewBox="0 0 536 345" fill="none" xmlns="http://www.w3.org/2000/svg">
<g filter="url(#filter0_dd_3906_35402)">
<g clip-path="url(#clip0_3906_35402)">
<rect x="52" y="43" width="432" height="259" rx="8" fill="white"/>
<rect width="432" height="35" transform="translate(52 43)" fill="white"/>
<rect x="73.35" y="59.35" width="117.3" height="18.3" rx="3.65" fill="#F3F4F6"/>
<rect x="80" y="67.5" width="36" height="2" rx="1" fill="#9CA3AF"/>
<rect x="73.35" y="59.35" width="117.3" height="18.3" rx="3.65" stroke="#E5E7EB" stroke-width="0.7"/>
<rect x="199.35" y="60.35" width="44.3" height="16.3" rx="3.65" fill="#F9FAFB"/>
<rect x="211" y="67" width="21" height="3" rx="1" fill="#9CA3AF"/>
<rect x="199.35" y="60.35" width="44.3" height="16.3" rx="3.65" stroke="#D1D5DB" stroke-width="0.7"/>
<rect x="252.35" y="60.35" width="58.3" height="16.3" rx="3.65" fill="#F9FAFB"/>
<rect x="264" y="67" width="35" height="3" rx="1" fill="#9CA3AF"/>
<rect x="252.35" y="60.35" width="58.3" height="16.3" rx="3.65" stroke="#D1D5DB" stroke-width="0.7"/>
<rect x="409" y="60" width="51" height="17" rx="4" fill="#DB6B1A"/>
<rect x="421" y="67" width="27" height="3" rx="1" fill="white"/>
<rect width="432" height="38" transform="translate(52 78)" fill="white"/>
<rect x="72.65" y="93.65" width="6.7" height="6.7" rx="1.35" fill="#FAFAFA"/>
<rect x="72.65" y="93.65" width="6.7" height="6.7" rx="1.35" stroke="#D1D5DB" stroke-width="0.7"/>
<rect x="84" y="95" width="44" height="4" rx="2" fill="#D1D5DB"/>
<rect x="137.65" y="93.65" width="6.7" height="6.7" rx="1.35" fill="#FAFAFA"/>
<rect x="137.65" y="93.65" width="6.7" height="6.7" rx="1.35" stroke="#D1D5DB" stroke-width="0.7"/>
<rect x="149" y="95" width="37" height="4" rx="2" fill="#D1D5DB"/>
<rect x="195.65" y="93.65" width="6.7" height="6.7" rx="1.35" fill="#FAFAFA"/>
<rect x="195.65" y="93.65" width="6.7" height="6.7" rx="1.35" stroke="#D1D5DB" stroke-width="0.7"/>
<rect x="207" y="95" width="50" height="4" rx="2" fill="#D1D5DB"/>
<rect x="266.65" y="93.65" width="6.7" height="6.7" rx="1.35" fill="#FAFAFA"/>
<rect x="266.65" y="93.65" width="6.7" height="6.7" rx="1.35" stroke="#D1D5DB" stroke-width="0.7"/>
<rect x="278" y="95" width="27" height="4" rx="2" fill="#D1D5DB"/>
<rect width="432" height="26" transform="translate(52 116)" fill="#F3F4F6"/>
<rect x="72.65" y="125.65" width="6.7" height="6.7" rx="1.35" fill="#FAFAFA"/>
<rect x="72.65" y="125.65" width="6.7" height="6.7" rx="1.35" stroke="#D1D5DB" stroke-width="0.7"/>
<rect x="103.602" y="126" width="45" height="6" rx="2" fill="#D1D5DB"/>
<rect x="221.199" y="126" width="36" height="6" rx="2" fill="#D1D5DB"/>
<rect x="295.801" y="126" width="40" height="6" rx="2" fill="#D1D5DB"/>
<rect x="370.398" y="126" width="42" height="6" rx="2" fill="#D1D5DB"/>
<rect x="72.65" y="158.65" width="6.7" height="6.7" rx="1.35" fill="#FAFAFA"/>
<rect x="72.65" y="158.65" width="6.7" height="6.7" rx="1.35" stroke="#D1D5DB" stroke-width="0.7"/>
<rect x="103.602" y="152" width="20" height="20" rx="10" fill="#F3F4F6"/>
<path fill-rule="evenodd" clip-rule="evenodd" d="M116.068 159.745C116.528 159.745 116.9 159.354 116.9 158.872C116.9 158.391 116.528 158 116.068 158C115.607 158 115.235 158.391 115.235 158.872C115.235 159.354 115.607 159.745 116.068 159.745ZM113.762 165.026H110.091C109.314 165.026 108.834 164.179 109.234 163.512L111.324 160.027C111.707 159.39 112.626 159.378 113.023 160.006C113.554 160.843 114.247 161.94 114.87 162.935L115.303 162.208C115.671 161.591 116.533 161.571 116.943 162.17L117.819 163.449C118.278 164.119 117.831 165.036 117.042 165.044L116.169 165.053L113.762 165.026Z" fill="#9CA3AF"/>
<rect x="131.602" y="159" width="65" height="6" rx="2" fill="#D1D5DB"/>
<rect x="221.199" y="159" width="50" height="6" rx="2" fill="#D1D5DB"/>
<rect x="295.801" y="159" width="50" height="6" rx="2" fill="#D1D5DB"/>
<rect x="370.398" y="159" width="50" height="6" rx="2" fill="#D1D5DB"/>
<path d="M448.125 162H448.131M452.5 162H452.506M456.875 162H456.881M448.75 162C448.75 162.166 448.684 162.325 448.567 162.442C448.45 162.559 448.291 162.625 448.125 162.625C447.959 162.625 447.8 162.559 447.683 162.442C447.566 162.325 447.5 162.166 447.5 162C447.5 161.834 447.566 161.675 447.683 161.558C447.8 161.441 447.959 161.375 448.125 161.375C448.291 161.375 448.45 161.441 448.567 161.558C448.684 161.675 448.75 161.834 448.75 162ZM453.125 162C453.125 162.166 453.059 162.325 452.942 162.442C452.825 162.559 452.666 162.625 452.5 162.625C452.334 162.625 452.175 162.559 452.058 162.442C451.941 162.325 451.875 162.166 451.875 162C451.875 161.834 451.941 161.675 452.058 161.558C452.175 161.441 452.334 161.375 452.5 161.375C452.666 161.375 452.825 161.441 452.942 161.558C453.059 161.675 453.125 161.834 453.125 162ZM457.5 162C457.5 162.166 457.434 162.325 457.317 162.442C457.2 162.559 457.041 162.625 456.875 162.625C456.709 162.625 456.55 162.559 456.433 162.442C456.316 162.325 456.25 162.166 456.25 162C456.25 161.834 456.316 161.675 456.433 161.558C456.55 161.441 456.709 161.375 456.875 161.375C457.041 161.375 457.2 161.441 457.317 161.558C457.434 161.675 457.5 161.834 457.5 162Z" stroke="#9CA3AF" stroke-width="1.5" stroke-linecap="round" stroke-linejoin="round"/>
<path d="M484 181.5H52V182.5H484V181.5Z" fill="#E5E7EB" mask="url(#path-24-inside-1_3906_35402)"/>
<rect x="72.65" y="198.65" width="6.7" height="6.7" rx="1.35" fill="#FAFAFA"/>
<rect x="72.65" y="198.65" width="6.7" height="6.7" rx="1.35" stroke="#D1D5DB" stroke-width="0.7"/>
<rect x="103.602" y="192" width="20" height="20" rx="10" fill="#F3F4F6"/>
<path fill-rule="evenodd" clip-rule="evenodd" d="M116.068 199.745C116.528 199.745 116.9 199.354 116.9 198.872C116.9 198.391 116.528 198 116.068 198C115.607 198 115.235 198.391 115.235 198.872C115.235 199.354 115.607 199.745 116.068 199.745ZM113.762 205.026H110.091C109.314 205.026 108.834 204.179 109.234 203.512L111.324 200.027C111.707 199.39 112.626 199.378 113.023 200.006C113.554 200.843 114.247 201.94 114.87 202.935L115.303 202.208C115.671 201.591 116.533 201.571 116.943 202.17L117.819 203.449C118.278 204.119 117.831 205.036 117.042 205.044L116.169 205.053L113.762 205.026Z" fill="#9CA3AF"/>
<rect x="131.602" y="199" width="65" height="6" rx="2" fill="#D1D5DB"/>
<rect x="221.199" y="199" width="50" height="6" rx="2" fill="#D1D5DB"/>
<rect x="295.801" y="199" width="50" height="6" rx="2" fill="#D1D5DB"/>
<rect x="370.398" y="199" width="50" height="6" rx="2" fill="#D1D5DB"/>
<path d="M448.125 202H448.131M452.5 202H452.506M456.875 202H456.881M448.75 202C448.75 202.166 448.684 202.325 448.567 202.442C448.45 202.559 448.291 202.625 448.125 202.625C447.959 202.625 447.8 202.559 447.683 202.442C447.566 202.325 447.5 202.166 447.5 202C447.5 201.834 447.566 201.675 447.683 201.558C447.8 201.441 447.959 201.375 448.125 201.375C448.291 201.375 448.45 201.441 448.567 201.558C448.684 201.675 448.75 201.834 448.75 202ZM453.125 202C453.125 202.166 453.059 202.325 452.942 202.442C452.825 202.559 452.666 202.625 452.5 202.625C452.334 202.625 452.175 202.559 452.058 202.442C451.941 202.325 451.875 202.166 451.875 202C451.875 201.834 451.941 201.675 452.058 201.558C452.175 201.441 452.334 201.375 452.5 201.375C452.666 201.375 452.825 201.441 452.942 201.558C453.059 201.675 453.125 201.834 453.125 202ZM457.5 202C457.5 202.166 457.434 202.325 457.317 202.442C457.2 202.559 457.041 202.625 456.875 202.625C456.709 202.625 456.55 202.559 456.433 202.442C456.316 202.325 456.25 202.166 456.25 202C456.25 201.834 456.316 201.675 456.433 201.558C456.55 201.441 456.709 201.375 456.875 201.375C457.041 201.375 457.2 201.441 457.317 201.558C457.434 201.675 457.5 201.834 457.5 202Z" stroke="#9CA3AF" stroke-width="1.5" stroke-linecap="round" stroke-linejoin="round"/>
<path d="M484 221.5H52V222.5H484V221.5Z" fill="#E5E7EB" mask="url(#path-34-inside-2_3906_35402)"/>
<rect x="72.65" y="238.65" width="6.7" height="6.7" rx="1.35" fill="#FAFAFA"/>
<rect x="72.65" y="238.65" width="6.7" height="6.7" rx="1.35" stroke="#D1D5DB" stroke-width="0.7"/>
<rect x="103.602" y="232" width="20" height="20" rx="10" fill="#F3F4F6"/>
<path fill-rule="evenodd" clip-rule="evenodd" d="M116.068 239.745C116.528 239.745 116.9 239.354 116.9 238.872C116.9 238.391 116.528 238 116.068 238C115.607 238 115.235 238.391 115.235 238.872C115.235 239.354 115.607 239.745 116.068 239.745ZM113.762 245.026H110.091C109.314 245.026 108.834 244.179 109.234 243.512L111.324 240.027C111.707 239.39 112.626 239.378 113.023 240.006C113.554 240.843 114.247 241.94 114.87 242.935L115.303 242.208C115.671 241.591 116.533 241.571 116.943 242.17L117.819 243.449C118.278 244.119 117.831 245.036 117.042 245.044L116.169 245.053L113.762 245.026Z" fill="#9CA3AF"/>
<rect x="131.602" y="239" width="65" height="6" rx="2" fill="#D1D5DB"/>
<rect x="221.199" y="239" width="50" height="6" rx="2" fill="#D1D5DB"/>
<rect x="295.801" y="239" width="50" height="6" rx="2" fill="#D1D5DB"/>
<rect x="370.398" y="239" width="50" height="6" rx="2" fill="#D1D5DB"/>
<path d="M448.125 242H448.131M452.5 242H452.506M456.875 242H456.881M448.75 242C448.75 242.166 448.684 242.325 448.567 242.442C448.45 242.559 448.291 242.625 448.125 242.625C447.959 242.625 447.8 242.559 447.683 242.442C447.566 242.325 447.5 242.166 447.5 242C447.5 241.834 447.566 241.675 447.683 241.558C447.8 241.441 447.959 241.375 448.125 241.375C448.291 241.375 448.45 241.441 448.567 241.558C448.684 241.675 448.75 241.834 448.75 242ZM453.125 242C453.125 242.166 453.059 242.325 452.942 242.442C452.825 242.559 452.666 242.625 452.5 242.625C452.334 242.625 452.175 242.559 452.058 242.442C451.941 242.325 451.875 242.166 451.875 242C451.875 241.834 451.941 241.675 452.058 241.558C452.175 241.441 452.334 241.375 452.5 241.375C452.666 241.375 452.825 241.441 452.942 241.558C453.059 241.675 453.125 241.834 453.125 242ZM457.5 242C457.5 242.166 457.434 242.325 457.317 242.442C457.2 242.559 457.041 242.625 456.875 242.625C456.709 242.625 456.55 242.559 456.433 242.442C456.316 242.325 456.25 242.166 456.25 242C456.25 241.834 456.316 241.675 456.433 241.558C456.55 241.441 456.709 241.375 456.875 241.375C457.041 241.375 457.2 241.441 457.317 241.558C457.434 241.675 457.5 241.834 457.5 242Z" stroke="#9CA3AF" stroke-width="1.5" stroke-linecap="round" stroke-linejoin="round"/>
<path d="M484 261.5H52V262.5H484V261.5Z" fill="#E5E7EB" mask="url(#path-44-inside-3_3906_35402)"/>
<rect x="72.65" y="278.65" width="6.7" height="6.7" rx="1.35" fill="#FAFAFA"/>
<rect x="72.65" y="278.65" width="6.7" height="6.7" rx="1.35" stroke="#D1D5DB" stroke-width="0.7"/>
<rect x="103.602" y="272" width="20" height="20" rx="10" fill="#F3F4F6"/>
<path fill-rule="evenodd" clip-rule="evenodd" d="M116.068 279.745C116.528 279.745 116.9 279.354 116.9 278.872C116.9 278.391 116.528 278 116.068 278C115.607 278 115.235 278.391 115.235 278.872C115.235 279.354 115.607 279.745 116.068 279.745ZM113.762 285.026H110.091C109.314 285.026 108.834 284.179 109.234 283.512L111.324 280.027C111.707 279.39 112.626 279.378 113.023 280.006C113.554 280.843 114.247 281.94 114.87 282.935L115.303 282.208C115.671 281.591 116.533 281.571 116.943 282.17L117.819 283.449C118.278 284.119 117.831 285.036 117.042 285.044L116.169 285.053L113.762 285.026Z" fill="#9CA3AF"/>
<rect x="131.602" y="279" width="65" height="6" rx="2" fill="#D1D5DB"/>
<rect x="221.199" y="279" width="50" height="6" rx="2" fill="#D1D5DB"/>
<rect x="295.801" y="279" width="50" height="6" rx="2" fill="#D1D5DB"/>
<rect x="370.398" y="279" width="50" height="6" rx="2" fill="#D1D5DB"/>
<path d="M448.125 282H448.131M452.5 282H452.506M456.875 282H456.881M448.75 282C448.75 282.166 448.684 282.325 448.567 282.442C448.45 282.559 448.291 282.625 448.125 282.625C447.959 282.625 447.8 282.559 447.683 282.442C447.566 282.325 447.5 282.166 447.5 282C447.5 281.834 447.566 281.675 447.683 281.558C447.8 281.441 447.959 281.375 448.125 281.375C448.291 281.375 448.45 281.441 448.567 281.558C448.684 281.675 448.75 281.834 448.75 282ZM453.125 282C453.125 282.166 453.059 282.325 452.942 282.442C452.825 282.559 452.666 282.625 452.5 282.625C452.334 282.625 452.175 282.559 452.058 282.442C451.941 282.325 451.875 282.166 451.875 282C451.875 281.834 451.941 281.675 452.058 281.558C452.175 281.441 452.334 281.375 452.5 281.375C452.666 281.375 452.825 281.441 452.942 281.558C453.059 281.675 453.125 281.834 453.125 282ZM457.5 282C457.5 282.166 457.434 282.325 457.317 282.442C457.2 282.559 457.041 282.625 456.875 282.625C456.709 282.625 456.55 282.559 456.433 282.442C456.316 282.325 456.25 282.166 456.25 282C456.25 281.834 456.316 281.675 456.433 281.558C456.55 281.441 456.709 281.375 456.875 281.375C457.041 281.375 457.2 281.441 457.317 281.558C457.434 281.675 457.5 281.834 457.5 282Z" stroke="#9CA3AF" stroke-width="1.5" stroke-linecap="round" stroke-linejoin="round"/>
</g>
<rect x="51.5" y="42.5" width="433" height="260" rx="8.5" stroke="#E4E4E7"/>
</g>
<defs>
<filter id="filter0_dd_3906_35402" x="45" y="40" width="446" height="273" filterUnits="userSpaceOnUse" color-interpolation-filters="sRGB">
<feFlood flood-opacity="0" result="BackgroundImageFix"/>
<feColorMatrix in="SourceAlpha" type="matrix" values="0 0 0 0 0 0 0 0 0 0 0 0 0 0 0 0 0 0 127 0" result="hardAlpha"/>
<feOffset dy="4"/>
<feGaussianBlur stdDeviation="3"/>
<feColorMatrix type="matrix" values="0 0 0 0 0 0 0 0 0 0 0 0 0 0 0 0 0 0 0.1 0"/>
<feBlend mode="normal" in2="BackgroundImageFix" result="effect1_dropShadow_3906_35402"/>
<feColorMatrix in="SourceAlpha" type="matrix" values="0 0 0 0 0 0 0 0 0 0 0 0 0 0 0 0 0 0 127 0" result="hardAlpha"/>
<feOffset dy="2"/>
<feGaussianBlur stdDeviation="2"/>
<feColorMatrix type="matrix" values="0 0 0 0 0 0 0 0 0 0 0 0 0 0 0 0 0 0 0.06 0"/>
<feBlend mode="normal" in2="effect1_dropShadow_3906_35402" result="effect2_dropShadow_3906_35402"/>
<feBlend mode="normal" in="SourceGraphic" in2="effect2_dropShadow_3906_35402" result="shape"/>
</filter>
<clipPath id="clip0_3906_35402">
<rect x="52" y="43" width="432" height="259" rx="8" fill="white"/>
</clipPath>
</defs>
</svg>
