<svg width="536" height="345" viewBox="0 0 536 345" fill="none" xmlns="http://www.w3.org/2000/svg">
<g filter="url(#filter0_dd_3470_5452)">
<rect x="126" y="16" width="284" height="314" rx="8" fill="#374151"/>
<rect x="138" y="30" width="76" height="6" rx="3" fill="#D1D5DB"/>
<mask id="path-4-inside-1_3470_5452" fill="white">
<path fill-rule="evenodd" clip-rule="evenodd" d="M390.146 30.1463C390.24 30.0526 390.367 29.9999 390.5 29.9999C390.632 29.9999 390.76 30.0526 390.853 30.1463L393 32.2928L395.146 30.1463C395.193 30.0985 395.248 30.0605 395.309 30.0342C395.37 30.008 395.435 29.9942 395.502 29.9937C395.568 29.9931 395.634 30.0057 395.695 30.0309C395.757 30.056 395.813 30.0932 395.86 30.1401C395.907 30.187 395.944 30.2429 395.969 30.3043C395.994 30.3658 396.007 30.4316 396.006 30.498C396.005 30.5644 395.992 30.63 395.965 30.691C395.939 30.752 395.901 30.8072 395.853 30.8533L393.707 32.9998L395.853 35.1463C395.944 35.2406 395.995 35.3669 395.994 35.498C395.993 35.6291 395.94 35.7545 395.847 35.8472C395.755 35.9399 395.629 35.9925 395.498 35.9936C395.367 35.9948 395.241 35.9444 395.146 35.8533L393 33.7068L390.853 35.8533C390.759 35.9444 390.633 35.9948 390.502 35.9936C390.371 35.9925 390.245 35.9399 390.152 35.8472C390.06 35.7545 390.007 35.6291 390.006 35.498C390.005 35.3669 390.055 35.2406 390.146 35.1463L392.293 32.9998L390.146 30.8533C390.053 30.7595 390 30.6324 390 30.4998C390 30.3672 390.053 30.2401 390.146 30.1463V30.1463Z"/>
</mask>
<path d="M390.853 30.1463L391.56 29.4392L391.56 29.4391L390.853 30.1463ZM393 32.2928L392.293 32.9999L393 33.707L393.707 32.9999L393 32.2928ZM395.146 30.1463L395.853 30.8534L395.86 30.8473L395.866 30.841L395.146 30.1463ZM395.853 30.8533L395.159 30.134L395.152 30.14L395.146 30.1462L395.853 30.8533ZM393.707 32.9998L393 32.2927L392.293 32.9998L393 33.7069L393.707 32.9998ZM395.853 35.1463L396.573 34.4516L396.567 34.4453L396.56 34.4392L395.853 35.1463ZM395.146 35.8533L394.439 36.5604L394.445 36.5665L394.452 36.5726L395.146 35.8533ZM393 33.7068L393.707 32.9997L393 32.2926L392.293 32.9997L393 33.7068ZM390.853 35.8533L391.548 36.5726L391.554 36.5665L391.56 36.5604L390.853 35.8533ZM390.146 35.1463L389.439 34.4392L389.433 34.4453L389.427 34.4516L390.146 35.1463ZM392.293 32.9998L393 33.7069L393.707 32.9998L393 32.2927L392.293 32.9998ZM390.146 30.8533L389.439 31.5603L389.439 31.5604L390.146 30.8533ZM390.853 30.8535C390.76 30.9472 390.632 30.9999 390.5 30.9999V28.9999C390.102 28.9999 389.721 29.1579 389.439 29.4391L390.853 30.8535ZM390.5 30.9999C390.367 30.9999 390.24 30.9472 390.146 30.8535L391.56 29.4391C391.279 29.1579 390.898 28.9999 390.5 28.9999V30.9999ZM390.146 30.8534L392.293 32.9999L393.707 31.5857L391.56 29.4392L390.146 30.8534ZM393.707 32.9999L395.853 30.8534L394.439 29.4392L392.293 31.5857L393.707 32.9999ZM395.866 30.841C395.82 30.8888 395.764 30.9269 395.703 30.9531L394.914 29.1154C394.731 29.194 394.565 29.3083 394.427 29.4516L395.866 30.841ZM395.703 30.9531C395.642 30.9793 395.577 30.9931 395.51 30.9936L395.493 28.9937C395.294 28.9954 395.097 29.0368 394.914 29.1154L395.703 30.9531ZM395.51 30.9936C395.444 30.9942 395.378 30.9816 395.317 30.9564L396.074 29.1054C395.89 29.0299 395.692 28.992 395.493 28.9937L395.51 30.9936ZM395.317 30.9564C395.255 30.9313 395.199 30.8942 395.152 30.8472L396.567 29.433C396.426 29.2922 396.258 29.1808 396.074 29.1054L395.317 30.9564ZM395.152 30.8472C395.106 30.8003 395.068 30.7444 395.043 30.683L396.894 29.9257C396.819 29.7413 396.708 29.5738 396.567 29.433L395.152 30.8472ZM395.043 30.683C395.018 30.6215 395.005 30.5557 395.006 30.4893L397.006 30.5067C397.008 30.3075 396.97 30.11 396.894 29.9257L395.043 30.683ZM395.006 30.4893C395.007 30.4229 395.02 30.3573 395.047 30.2963L396.884 31.0857C396.963 30.9027 397.004 30.7059 397.006 30.5067L395.006 30.4893ZM395.047 30.2963C395.073 30.2353 395.111 30.1801 395.159 30.134L396.548 31.5726C396.691 31.4342 396.806 31.2687 396.884 31.0857L395.047 30.2963ZM395.146 30.1462L393 32.2927L394.414 33.7069L396.56 31.5604L395.146 30.1462ZM393 33.7069L395.146 35.8534L396.56 34.4392L394.414 32.2927L393 33.7069ZM395.134 35.841C395.043 35.7467 394.993 35.6204 394.994 35.4893L396.994 35.5067C396.997 35.1134 396.846 34.7345 396.573 34.4516L395.134 35.841ZM394.994 35.4893C394.995 35.3582 395.047 35.2328 395.14 35.1401L396.554 36.5543C396.833 36.2762 396.99 35.9 396.994 35.5067L394.994 35.4893ZM395.14 35.1401C395.233 35.0474 395.358 34.9948 395.489 34.9937L395.507 36.9936C395.9 36.9902 396.276 36.8324 396.554 36.5543L395.14 35.1401ZM395.489 34.9937C395.621 34.9925 395.747 35.0429 395.841 35.134L394.452 36.5726C394.735 36.8458 395.113 36.997 395.507 36.9936L395.489 34.9937ZM395.853 35.1462L393.707 32.9997L392.293 34.4139L394.439 36.5604L395.853 35.1462ZM392.293 32.9997L390.146 35.1462L391.56 36.5604L393.707 34.4139L392.293 32.9997ZM390.159 35.134C390.253 35.0429 390.379 34.9925 390.51 34.9937L390.493 36.9936C390.886 36.997 391.265 36.8458 391.548 36.5726L390.159 35.134ZM390.51 34.9937C390.641 34.9948 390.767 35.0474 390.86 35.1401L389.445 36.5543C389.723 36.8324 390.1 36.9902 390.493 36.9936L390.51 34.9937ZM390.86 35.1401C390.952 35.2328 391.005 35.3582 391.006 35.4893L389.006 35.5067C389.01 35.9 389.167 36.2762 389.445 36.5543L390.86 35.1401ZM391.006 35.4893C391.007 35.6204 390.957 35.7467 390.866 35.841L389.427 34.4516C389.154 34.7345 389.003 35.1134 389.006 35.5067L391.006 35.4893ZM390.854 35.8534L393 33.7069L391.586 32.2927L389.439 34.4392L390.854 35.8534ZM393 32.2927L390.854 30.1462L389.439 31.5604L391.586 33.7069L393 32.2927ZM390.854 30.1463C390.947 30.2401 391 30.3672 391 30.4998H389C389 30.8975 389.158 31.279 389.439 31.5603L390.854 30.1463ZM391 30.4998C391 30.6324 390.947 30.7595 390.854 30.8533L389.439 29.4393C389.158 29.7206 389 30.102 389 30.4998H391Z" fill="#9CA3AF" mask="url(#path-4-inside-1_3470_5452)"/>
<line x1="126" y1="49.5" x2="410" y2="49.5" stroke="#4B5563"/>
<rect x="139" y="65" width="51" height="3" rx="1.5" fill="#9CA3AF"/>
<rect x="138.5" y="75.5" width="125" height="17" rx="4.5" fill="#4B5563"/>
<rect x="146" y="83" width="81" height="2" rx="1" fill="#9CA3AF"/>
<rect x="138.5" y="75.5" width="125" height="17" rx="4.5" stroke="#6B7280"/>
<rect x="273" y="65" width="51" height="3" rx="1.5" fill="#9CA3AF"/>
<rect x="272.5" y="75.5" width="125" height="17" rx="4.5" fill="#4B5563"/>
<rect x="280" y="83" width="26" height="2" rx="1" fill="#9CA3AF"/>
<rect x="272.5" y="75.5" width="125" height="17" rx="4.5" stroke="#6B7280"/>
<rect x="139" y="105" width="51" height="3" rx="1.5" fill="#9CA3AF"/>
<rect x="138.5" y="115.5" width="125" height="17" rx="4.5" fill="#4B5563"/>
<rect x="146" y="123" width="56" height="2" rx="1" fill="#9CA3AF"/>
<rect x="138.5" y="115.5" width="125" height="17" rx="4.5" stroke="#6B7280"/>
<rect x="273" y="105" width="51" height="3" rx="1.5" fill="#9CA3AF"/>
<rect x="272.5" y="115.5" width="125" height="17" rx="4.5" fill="#4B5563"/>
<rect x="280" y="123" width="37" height="2" rx="1" fill="#9CA3AF"/>
<rect x="272.5" y="115.5" width="125" height="17" rx="4.5" stroke="#6B7280"/>
<rect x="139" y="145" width="51" height="3" rx="1.5" fill="#9CA3AF"/>
<rect x="138.5" y="155.5" width="80.3333" height="17" rx="4.5" fill="#4B5563"/>
<rect x="146" y="163" width="31" height="2" rx="1" fill="#9CA3AF"/>
<rect x="138.5" y="155.5" width="80.3333" height="17" rx="4.5" stroke="#6B7280"/>
<rect x="227.834" y="155.5" width="80.3333" height="17" rx="4.5" fill="#4B5563"/>
<rect x="235.334" y="163" width="25" height="2" rx="1" fill="#9CA3AF"/>
<rect x="227.834" y="155.5" width="80.3333" height="17" rx="4.5" stroke="#6B7280"/>
<rect x="317.166" y="155.5" width="80.3333" height="17" rx="4.5" fill="#4B5563"/>
<rect x="324.666" y="163" width="21" height="2" rx="1" fill="#9CA3AF"/>
<rect x="317.166" y="155.5" width="80.3333" height="17" rx="4.5" stroke="#6B7280"/>
<rect x="139" y="185" width="57" height="32" rx="4" fill="#4B5563"/>
<path d="M162.166 203.667L165.223 200.609C165.473 200.359 165.812 200.219 166.166 200.219C166.52 200.219 166.859 200.359 167.109 200.609L170.166 203.667M168.833 202.333L169.89 201.276C170.14 201.026 170.479 200.885 170.833 200.885C171.186 200.885 171.525 201.026 171.775 201.276L172.833 202.333M168.833 198.333H168.839M163.499 206.333H171.499C171.853 206.333 172.192 206.193 172.442 205.943C172.692 205.693 172.833 205.353 172.833 205V197C172.833 196.646 172.692 196.307 172.442 196.057C172.192 195.807 171.853 195.667 171.499 195.667H163.499C163.146 195.667 162.807 195.807 162.557 196.057C162.306 196.307 162.166 196.646 162.166 197V205C162.166 205.353 162.306 205.693 162.557 205.943C162.807 206.193 163.146 206.333 163.499 206.333Z" stroke="#9CA3AF" stroke-linecap="round" stroke-linejoin="round"/>
<rect x="204" y="185" width="57" height="32" rx="4" fill="#4B5563"/>
<path d="M227.166 203.667L230.223 200.609C230.473 200.359 230.812 200.219 231.166 200.219C231.52 200.219 231.859 200.359 232.109 200.609L235.166 203.667M233.833 202.333L234.89 201.276C235.14 201.026 235.479 200.885 235.833 200.885C236.186 200.885 236.525 201.026 236.775 201.276L237.833 202.333M233.833 198.333H233.839M228.499 206.333H236.499C236.853 206.333 237.192 206.193 237.442 205.943C237.692 205.693 237.833 205.353 237.833 205V197C237.833 196.646 237.692 196.307 237.442 196.057C237.192 195.807 236.853 195.667 236.499 195.667H228.499C228.146 195.667 227.807 195.807 227.557 196.057C227.306 196.307 227.166 196.646 227.166 197V205C227.166 205.353 227.306 205.693 227.557 205.943C227.807 206.193 228.146 206.333 228.499 206.333Z" stroke="#9CA3AF" stroke-linecap="round" stroke-linejoin="round"/>
<rect x="269" y="185" width="57" height="32" rx="4" fill="#4B5563"/>
<path d="M292.166 203.667L295.223 200.609C295.473 200.359 295.812 200.219 296.166 200.219C296.52 200.219 296.859 200.359 297.109 200.609L300.166 203.667M298.833 202.333L299.89 201.276C300.14 201.026 300.479 200.885 300.833 200.885C301.186 200.885 301.525 201.026 301.775 201.276L302.833 202.333M298.833 198.333H298.839M293.499 206.333H301.499C301.853 206.333 302.192 206.193 302.442 205.943C302.692 205.693 302.833 205.353 302.833 205V197C302.833 196.646 302.692 196.307 302.442 196.057C302.192 195.807 301.853 195.667 301.499 195.667H293.499C293.146 195.667 292.807 195.807 292.557 196.057C292.306 196.307 292.166 196.646 292.166 197V205C292.166 205.353 292.306 205.693 292.557 205.943C292.807 206.193 293.146 206.333 293.499 206.333Z" stroke="#9CA3AF" stroke-linecap="round" stroke-linejoin="round"/>
<rect x="138.5" y="222.5" width="259" height="64" rx="4.5" fill="#4B5563"/>
<rect x="243" y="246.5" width="50" height="3" rx="1" fill="#9CA3AF"/>
<rect x="240" y="255" width="56" height="2" rx="1" fill="#6B7280"/>
<rect x="232" y="260" width="72" height="2" rx="1" fill="#6B7280"/>
<rect x="138.5" y="222.5" width="259" height="64" rx="4.5" stroke="#4B5563" stroke-dasharray="2 2"/>
<rect x="139" y="301" width="66" height="17" rx="2" fill="#1A56DB"/>
<rect x="151" y="308" width="42" height="3" rx="1" fill="white"/>
<rect x="225" y="308" width="42" height="3" rx="1" fill="#F05252"/>
<rect x="213.5" y="301.5" width="65" height="16" rx="1.5" stroke="#F05252"/>
<rect x="125.5" y="15.5" width="285" height="315" rx="8.5" stroke="#4B5563"/>
</g>
<defs>
<filter id="filter0_dd_3470_5452" x="119" y="13" width="298" height="328" filterUnits="userSpaceOnUse" color-interpolation-filters="sRGB">
<feFlood flood-opacity="0" result="BackgroundImageFix"/>
<feColorMatrix in="SourceAlpha" type="matrix" values="0 0 0 0 0 0 0 0 0 0 0 0 0 0 0 0 0 0 127 0" result="hardAlpha"/>
<feOffset dy="4"/>
<feGaussianBlur stdDeviation="3"/>
<feColorMatrix type="matrix" values="0 0 0 0 0 0 0 0 0 0 0 0 0 0 0 0 0 0 0.1 0"/>
<feBlend mode="normal" in2="BackgroundImageFix" result="effect1_dropShadow_3470_5452"/>
<feColorMatrix in="SourceAlpha" type="matrix" values="0 0 0 0 0 0 0 0 0 0 0 0 0 0 0 0 0 0 127 0" result="hardAlpha"/>
<feOffset dy="2"/>
<feGaussianBlur stdDeviation="2"/>
<feColorMatrix type="matrix" values="0 0 0 0 0 0 0 0 0 0 0 0 0 0 0 0 0 0 0.06 0"/>
<feBlend mode="normal" in2="effect1_dropShadow_3470_5452" result="effect2_dropShadow_3470_5452"/>
<feBlend mode="normal" in="SourceGraphic" in2="effect2_dropShadow_3470_5452" result="shape"/>
</filter>
</defs>
</svg>
