<svg width="536" height="345" viewBox="0 0 536 345" fill="none" xmlns="http://www.w3.org/2000/svg">
<rect x="126" y="49" width="284" height="214" rx="8" fill="white"/>
<rect x="126" y="49" width="83" height="6" rx="3" fill="#6B7280"/>
<rect x="126" y="79" width="63.5" height="60" rx="3" fill="#F3F4F6"/>
<path fill-rule="evenodd" clip-rule="evenodd" d="M163.914 104.187C165.018 104.187 165.913 103.25 165.913 102.093C165.913 100.937 165.018 100 163.914 100C162.81 100 161.915 100.937 161.915 102.093C161.915 103.25 162.81 104.187 163.914 104.187ZM158.381 116.863H147.099C146.322 116.863 145.842 116.016 146.242 115.349L153.695 102.923C154.078 102.286 154.997 102.273 155.395 102.901C156.637 104.857 158.998 108.582 161.039 111.843L163.165 108.278C163.533 107.662 164.396 107.641 164.805 108.24L169.629 115.283C170.087 115.953 169.642 116.871 168.853 116.879L164.158 116.927L158.381 116.863Z" fill="#9CA3AF"/>
<rect x="199.5" y="79" width="63.5" height="60" rx="3" fill="#F3F4F6"/>
<path fill-rule="evenodd" clip-rule="evenodd" d="M237.414 104.187C238.518 104.187 239.413 103.25 239.413 102.093C239.413 100.937 238.518 100 237.414 100C236.31 100 235.415 100.937 235.415 102.093C235.415 103.25 236.31 104.187 237.414 104.187ZM231.881 116.863H220.599C219.822 116.863 219.342 116.016 219.742 115.349L227.195 102.923C227.578 102.286 228.497 102.273 228.895 102.901C230.137 104.857 232.498 108.582 234.539 111.843L236.665 108.278C237.033 107.662 237.896 107.641 238.305 108.24L243.129 115.283C243.587 115.953 243.142 116.871 242.353 116.879L237.658 116.927L231.881 116.863Z" fill="#9CA3AF"/>
<rect x="273" y="79" width="63.5" height="60" rx="3" fill="#F3F4F6"/>
<path fill-rule="evenodd" clip-rule="evenodd" d="M310.914 104.187C312.018 104.187 312.913 103.25 312.913 102.093C312.913 100.937 312.018 100 310.914 100C309.81 100 308.915 100.937 308.915 102.093C308.915 103.25 309.81 104.187 310.914 104.187ZM305.381 116.863H294.099C293.322 116.863 292.842 116.016 293.242 115.349L300.695 102.923C301.078 102.286 301.997 102.273 302.395 102.901C303.637 104.857 305.998 108.582 308.039 111.843L310.165 108.278C310.533 107.662 311.396 107.641 311.805 108.24L316.629 115.283C317.087 115.953 316.642 116.871 315.853 116.879L311.158 116.927L305.381 116.863Z" fill="#9CA3AF"/>
<rect x="346.5" y="79" width="63.5" height="60" rx="3" fill="#F3F4F6"/>
<path fill-rule="evenodd" clip-rule="evenodd" d="M384.414 104.187C385.518 104.187 386.413 103.25 386.413 102.093C386.413 100.937 385.518 100 384.414 100C383.31 100 382.415 100.937 382.415 102.093C382.415 103.25 383.31 104.187 384.414 104.187ZM378.881 116.863H367.599C366.822 116.863 366.342 116.016 366.742 115.349L374.195 102.923C374.578 102.286 375.497 102.273 375.895 102.901C377.137 104.857 379.498 108.582 381.539 111.843L383.665 108.278C384.033 107.662 384.896 107.641 385.305 108.24L390.129 115.283C390.587 115.953 390.142 116.871 389.353 116.879L384.658 116.927L378.881 116.863Z" fill="#9CA3AF"/>
<rect x="126" y="155" width="42" height="4" rx="2" fill="#D1D5DB"/>
<rect x="126" y="165" width="96" height="4" rx="2" fill="#9CA3AF"/>
<rect x="272" y="155" width="39" height="4" rx="2" fill="#D1D5DB"/>
<rect x="272" y="165" width="121" height="4" rx="2" fill="#9CA3AF"/>
<rect x="126" y="185" width="62" height="4" rx="2" fill="#D1D5DB"/>
<rect x="126" y="195" width="91" height="4" rx="2" fill="#9CA3AF"/>
<rect x="272" y="185" width="53" height="4" rx="2" fill="#D1D5DB"/>
<rect x="272" y="195" width="89" height="4" rx="2" fill="#9CA3AF"/>
<rect x="126" y="215" width="40" height="4" rx="2" fill="#9CA3AF"/>
<rect x="126" y="227" width="250" height="4" rx="2" fill="#D1D5DB"/>
<rect x="126" y="235" width="241" height="4" rx="2" fill="#D1D5DB"/>
<rect x="126" y="243" width="78" height="4" rx="2" fill="#D1D5DB"/>
<rect x="216" y="243" width="78" height="4" rx="2" fill="#D1D5DB"/>
<rect x="306" y="243" width="48" height="4" rx="2" fill="#D1D5DB"/>
<rect x="126" y="251" width="249" height="4" rx="2" fill="#D1D5DB"/>
<rect x="126" y="259" width="49.5" height="4" rx="2" fill="#D1D5DB"/>
<rect x="187.5" y="259" width="104" height="4" rx="2" fill="#D1D5DB"/>
<rect x="303.5" y="259" width="49.5" height="4" rx="2" fill="#D1D5DB"/>
<rect x="126" y="279" width="66" height="17" rx="2" fill="#1A56DB"/>
<rect x="138" y="286" width="42" height="3" rx="1" fill="white"/>
<rect x="212" y="286" width="42" height="3" rx="1" fill="#F05252"/>
<rect x="200.5" y="279.5" width="65" height="16" rx="1.5" stroke="#F05252"/>
</svg>
