<svg width="536" height="345" viewBox="0 0 536 345" fill="none" xmlns="http://www.w3.org/2000/svg">
<g filter="url(#filter0_dd_3491_5705)">
<rect x="126" y="65" width="284" height="216" rx="8" fill="#374151"/>
<rect x="138" y="77" width="76" height="6" rx="3" fill="#D1D5DB"/>
<rect x="138" y="91" width="49" height="4" rx="2" fill="#9CA3AF"/>
<mask id="path-5-inside-1_3491_5705" fill="white">
<path fill-rule="evenodd" clip-rule="evenodd" d="M390.146 83.1463C390.24 83.0526 390.367 82.9999 390.5 82.9999C390.632 82.9999 390.76 83.0526 390.853 83.1463L393 85.2928L395.146 83.1463C395.193 83.0985 395.248 83.0605 395.309 83.0342C395.37 83.008 395.435 82.9942 395.502 82.9937C395.568 82.9931 395.634 83.0057 395.695 83.0309C395.757 83.056 395.813 83.0932 395.86 83.1401C395.907 83.187 395.944 83.2429 395.969 83.3043C395.994 83.3658 396.007 83.4316 396.006 83.498C396.005 83.5644 395.992 83.63 395.965 83.691C395.939 83.752 395.901 83.8072 395.853 83.8533L393.707 85.9998L395.853 88.1463C395.944 88.2406 395.995 88.3669 395.994 88.498C395.993 88.6291 395.94 88.7545 395.847 88.8472C395.755 88.9399 395.629 88.9925 395.498 88.9936C395.367 88.9948 395.241 88.9444 395.146 88.8533L393 86.7068L390.853 88.8533C390.759 88.9444 390.633 88.9948 390.502 88.9936C390.371 88.9925 390.245 88.9399 390.152 88.8472C390.06 88.7545 390.007 88.6291 390.006 88.498C390.005 88.3669 390.055 88.2406 390.146 88.1463L392.293 85.9998L390.146 83.8533C390.053 83.7595 390 83.6324 390 83.4998C390 83.3672 390.053 83.2401 390.146 83.1463V83.1463Z"/>
</mask>
<path d="M390.853 83.1463L391.56 82.4392L391.56 82.4391L390.853 83.1463ZM393 85.2928L392.293 85.9999L393 86.707L393.707 85.9999L393 85.2928ZM395.146 83.1463L395.853 83.8534L395.86 83.8473L395.866 83.841L395.146 83.1463ZM395.853 83.8533L395.159 83.134L395.152 83.14L395.146 83.1462L395.853 83.8533ZM393.707 85.9998L393 85.2927L392.293 85.9998L393 86.7069L393.707 85.9998ZM395.853 88.1463L396.573 87.4516L396.567 87.4453L396.56 87.4392L395.853 88.1463ZM395.146 88.8533L394.439 89.5604L394.445 89.5665L394.452 89.5726L395.146 88.8533ZM393 86.7068L393.707 85.9997L393 85.2926L392.293 85.9997L393 86.7068ZM390.853 88.8533L391.548 89.5726L391.554 89.5665L391.56 89.5604L390.853 88.8533ZM390.146 88.1463L389.439 87.4392L389.433 87.4453L389.427 87.4516L390.146 88.1463ZM392.293 85.9998L393 86.7069L393.707 85.9998L393 85.2927L392.293 85.9998ZM390.146 83.8533L389.439 84.5603L389.439 84.5604L390.146 83.8533ZM390.853 83.8535C390.76 83.9472 390.632 83.9999 390.5 83.9999V81.9999C390.102 81.9999 389.721 82.1579 389.439 82.4391L390.853 83.8535ZM390.5 83.9999C390.367 83.9999 390.24 83.9472 390.146 83.8535L391.56 82.4391C391.279 82.1579 390.898 81.9999 390.5 81.9999V83.9999ZM390.146 83.8534L392.293 85.9999L393.707 84.5857L391.56 82.4392L390.146 83.8534ZM393.707 85.9999L395.853 83.8534L394.439 82.4392L392.293 84.5857L393.707 85.9999ZM395.866 83.841C395.82 83.8888 395.764 83.9269 395.703 83.9531L394.914 82.1154C394.731 82.194 394.565 82.3083 394.427 82.4516L395.866 83.841ZM395.703 83.9531C395.642 83.9793 395.577 83.9931 395.51 83.9936L395.493 81.9937C395.294 81.9954 395.097 82.0368 394.914 82.1154L395.703 83.9531ZM395.51 83.9936C395.444 83.9942 395.378 83.9816 395.317 83.9564L396.074 82.1054C395.89 82.0299 395.692 81.992 395.493 81.9937L395.51 83.9936ZM395.317 83.9564C395.255 83.9313 395.199 83.8942 395.152 83.8472L396.567 82.433C396.426 82.2922 396.258 82.1808 396.074 82.1054L395.317 83.9564ZM395.152 83.8472C395.106 83.8003 395.068 83.7444 395.043 83.683L396.894 82.9257C396.819 82.7413 396.708 82.5738 396.567 82.433L395.152 83.8472ZM395.043 83.683C395.018 83.6215 395.005 83.5557 395.006 83.4893L397.006 83.5067C397.008 83.3075 396.97 83.11 396.894 82.9257L395.043 83.683ZM395.006 83.4893C395.007 83.4229 395.02 83.3573 395.047 83.2963L396.884 84.0857C396.963 83.9027 397.004 83.7059 397.006 83.5067L395.006 83.4893ZM395.047 83.2963C395.073 83.2353 395.111 83.1801 395.159 83.134L396.548 84.5726C396.691 84.4342 396.806 84.2687 396.884 84.0857L395.047 83.2963ZM395.146 83.1462L393 85.2927L394.414 86.7069L396.56 84.5604L395.146 83.1462ZM393 86.7069L395.146 88.8534L396.56 87.4392L394.414 85.2927L393 86.7069ZM395.134 88.841C395.043 88.7467 394.993 88.6204 394.994 88.4893L396.994 88.5067C396.997 88.1134 396.846 87.7345 396.573 87.4516L395.134 88.841ZM394.994 88.4893C394.995 88.3582 395.047 88.2328 395.14 88.1401L396.554 89.5543C396.833 89.2762 396.99 88.9 396.994 88.5067L394.994 88.4893ZM395.14 88.1401C395.233 88.0474 395.358 87.9948 395.489 87.9937L395.507 89.9936C395.9 89.9902 396.276 89.8324 396.554 89.5543L395.14 88.1401ZM395.489 87.9937C395.621 87.9925 395.747 88.0429 395.841 88.134L394.452 89.5726C394.735 89.8458 395.113 89.997 395.507 89.9936L395.489 87.9937ZM395.853 88.1462L393.707 85.9997L392.293 87.4139L394.439 89.5604L395.853 88.1462ZM392.293 85.9997L390.146 88.1462L391.56 89.5604L393.707 87.4139L392.293 85.9997ZM390.159 88.134C390.253 88.0429 390.379 87.9925 390.51 87.9937L390.493 89.9936C390.886 89.997 391.265 89.8458 391.548 89.5726L390.159 88.134ZM390.51 87.9937C390.641 87.9948 390.767 88.0474 390.86 88.1401L389.445 89.5543C389.723 89.8324 390.1 89.9902 390.493 89.9936L390.51 87.9937ZM390.86 88.1401C390.952 88.2328 391.005 88.3582 391.006 88.4893L389.006 88.5067C389.01 88.9 389.167 89.2762 389.445 89.5543L390.86 88.1401ZM391.006 88.4893C391.007 88.6204 390.957 88.7467 390.866 88.841L389.427 87.4516C389.154 87.7345 389.003 88.1134 389.006 88.5067L391.006 88.4893ZM390.854 88.8534L393 86.7069L391.586 85.2927L389.439 87.4392L390.854 88.8534ZM393 85.2927L390.854 83.1462L389.439 84.5604L391.586 86.7069L393 85.2927ZM390.854 83.1463C390.947 83.2401 391 83.3672 391 83.4998H389C389 83.8975 389.158 84.279 389.439 84.5603L390.854 83.1463ZM391 83.4998C391 83.6324 390.947 83.7595 390.854 83.8533L389.439 82.4393C389.158 82.7206 389 83.102 389 83.4998H391Z" fill="#9CA3AF" mask="url(#path-5-inside-1_3491_5705)"/>
<rect x="138" y="113" width="50" height="35" rx="3" fill="#4B5563"/>
<path fill-rule="evenodd" clip-rule="evenodd" d="M168.914 126.187C170.018 126.187 170.913 125.25 170.913 124.093C170.913 122.937 170.018 122 168.914 122C167.81 122 166.915 122.937 166.915 124.093C166.915 125.25 167.81 126.187 168.914 126.187ZM163.381 138.863H152.099C151.322 138.863 150.842 138.016 151.242 137.349L158.695 124.923C159.078 124.286 159.997 124.273 160.395 124.901C161.637 126.857 163.998 130.582 166.039 133.843L168.165 130.278C168.533 129.662 169.396 129.641 169.805 130.24L174.629 137.283C175.087 137.953 174.642 138.871 173.853 138.879L169.158 138.927L163.381 138.863Z" fill="#6B7280"/>
<rect x="198" y="113" width="50" height="35" rx="3" fill="#4B5563"/>
<path fill-rule="evenodd" clip-rule="evenodd" d="M228.914 126.187C230.018 126.187 230.913 125.25 230.913 124.093C230.913 122.937 230.018 122 228.914 122C227.81 122 226.915 122.937 226.915 124.093C226.915 125.25 227.81 126.187 228.914 126.187ZM223.381 138.863H212.099C211.322 138.863 210.842 138.016 211.242 137.349L218.695 124.923C219.078 124.286 219.997 124.273 220.395 124.901C221.637 126.857 223.998 130.582 226.039 133.843L228.165 130.278C228.533 129.662 229.396 129.641 229.805 130.24L234.629 137.283C235.087 137.953 234.642 138.871 233.853 138.879L229.158 138.927L223.381 138.863Z" fill="#6B7280"/>
<rect x="258" y="113" width="50" height="35" rx="3" fill="#4B5563"/>
<path fill-rule="evenodd" clip-rule="evenodd" d="M288.914 126.187C290.018 126.187 290.913 125.25 290.913 124.093C290.913 122.937 290.018 122 288.914 122C287.81 122 286.915 122.937 286.915 124.093C286.915 125.25 287.81 126.187 288.914 126.187ZM283.381 138.863H272.099C271.322 138.863 270.842 138.016 271.242 137.349L278.695 124.923C279.078 124.286 279.997 124.273 280.395 124.901C281.637 126.857 283.998 130.582 286.039 133.843L288.165 130.278C288.533 129.662 289.396 129.641 289.805 130.24L294.629 137.283C295.087 137.953 294.642 138.871 293.853 138.879L289.158 138.927L283.381 138.863Z" fill="#6B7280"/>
<rect x="138" y="162" width="42" height="4" rx="2" fill="#9CA3AF"/>
<rect x="138" y="172" width="96" height="4" rx="2" fill="#D1D5DB"/>
<rect x="272" y="162" width="39" height="4" rx="2" fill="#9CA3AF"/>
<rect x="272" y="172" width="121" height="4" rx="2" fill="#D1D5DB"/>
<rect x="138" y="190" width="40" height="4" rx="2" fill="#D1D5DB"/>
<rect x="138" y="202" width="250" height="4" rx="2" fill="#9CA3AF"/>
<rect x="138" y="210" width="241" height="4" rx="2" fill="#9CA3AF"/>
<rect x="138" y="218" width="78" height="4" rx="2" fill="#9CA3AF"/>
<rect x="228" y="218" width="78" height="4" rx="2" fill="#9CA3AF"/>
<rect x="318" y="218" width="48" height="4" rx="2" fill="#9CA3AF"/>
<rect x="138" y="226" width="249" height="4" rx="2" fill="#9CA3AF"/>
<rect x="138" y="234" width="49.5" height="4" rx="2" fill="#9CA3AF"/>
<rect x="199.5" y="234" width="104" height="4" rx="2" fill="#9CA3AF"/>
<rect x="315.5" y="234" width="49.5" height="4" rx="2" fill="#9CA3AF"/>
<rect x="139" y="252" width="66" height="17" rx="2" fill="#1A56DB"/>
<rect x="151" y="259" width="42" height="3" rx="1" fill="white"/>
<rect x="213.5" y="252.5" width="65" height="16" rx="1.5" fill="#374151"/>
<rect x="225" y="259" width="42" height="3" rx="1" fill="#F05252"/>
<rect x="213.5" y="252.5" width="65" height="16" rx="1.5" stroke="#F05252"/>
<rect x="125.5" y="64.5" width="285" height="217" rx="8.5" stroke="#4B5563"/>
</g>
<defs>
<filter id="filter0_dd_3491_5705" x="119" y="62" width="298" height="230" filterUnits="userSpaceOnUse" color-interpolation-filters="sRGB">
<feFlood flood-opacity="0" result="BackgroundImageFix"/>
<feColorMatrix in="SourceAlpha" type="matrix" values="0 0 0 0 0 0 0 0 0 0 0 0 0 0 0 0 0 0 127 0" result="hardAlpha"/>
<feOffset dy="4"/>
<feGaussianBlur stdDeviation="3"/>
<feColorMatrix type="matrix" values="0 0 0 0 0 0 0 0 0 0 0 0 0 0 0 0 0 0 0.1 0"/>
<feBlend mode="normal" in2="BackgroundImageFix" result="effect1_dropShadow_3491_5705"/>
<feColorMatrix in="SourceAlpha" type="matrix" values="0 0 0 0 0 0 0 0 0 0 0 0 0 0 0 0 0 0 127 0" result="hardAlpha"/>
<feOffset dy="2"/>
<feGaussianBlur stdDeviation="2"/>
<feColorMatrix type="matrix" values="0 0 0 0 0 0 0 0 0 0 0 0 0 0 0 0 0 0 0.06 0"/>
<feBlend mode="normal" in2="effect1_dropShadow_3491_5705" result="effect2_dropShadow_3491_5705"/>
<feBlend mode="normal" in="SourceGraphic" in2="effect2_dropShadow_3491_5705" result="shape"/>
</filter>
</defs>
</svg>
