<svg width="536" height="345" viewBox="0 0 536 345" fill="none" xmlns="http://www.w3.org/2000/svg">
<rect x="121" y="24" width="76" height="6" rx="3" fill="#D1D5DB"/>
<g clip-path="url(#clip0_3466_5701)">
<rect x="122" y="44" width="51" height="3" rx="1.5" fill="#9CA3AF"/>
<rect x="121.5" y="54.5" width="142" height="17" rx="4.5" fill="#4B5563"/>
<rect x="129" y="62" width="56" height="2" rx="1" fill="#9CA3AF"/>
<rect x="121.5" y="54.5" width="142" height="17" rx="4.5" stroke="#6B7280"/>
<rect x="273" y="44" width="51" height="3" rx="1.5" fill="#9CA3AF"/>
<rect x="272.5" y="54.5" width="142" height="17" rx="4.5" fill="#4B5563"/>
<rect x="280" y="62" width="56" height="2" rx="1" fill="#9CA3AF"/>
<rect x="272.5" y="54.5" width="142" height="17" rx="4.5" stroke="#6B7280"/>
<rect x="122" y="87" width="51" height="3" rx="1.5" fill="#9CA3AF"/>
<rect x="121.5" y="97.5" width="142" height="17" rx="4.5" fill="#4B5563"/>
<rect x="129" y="105" width="56" height="2" rx="1" fill="#9CA3AF"/>
<rect x="121.5" y="97.5" width="142" height="17" rx="4.5" stroke="#6B7280"/>
<rect x="273" y="87" width="51" height="3" rx="1.5" fill="#9CA3AF"/>
<rect x="272.5" y="97.5" width="142" height="17" rx="4.5" fill="#4B5563"/>
<rect x="280" y="105" width="56" height="2" rx="1" fill="#9CA3AF"/>
<rect x="272.5" y="97.5" width="142" height="17" rx="4.5" stroke="#6B7280"/>
<rect x="122" y="130" width="51" height="3" rx="1.5" fill="#9CA3AF"/>
<rect x="121.5" y="140.5" width="91.6667" height="17" rx="4.5" fill="#4B5563"/>
<rect x="129" y="148" width="56" height="2" rx="1" fill="#9CA3AF"/>
<rect x="121.5" y="140.5" width="91.6667" height="17" rx="4.5" stroke="#6B7280"/>
<rect x="222.666" y="130" width="51" height="3" rx="1.5" fill="#9CA3AF"/>
<rect x="222.166" y="140.5" width="91.6667" height="17" rx="4.5" fill="#4B5563"/>
<rect x="229.666" y="148" width="56" height="2" rx="1" fill="#9CA3AF"/>
<rect x="222.166" y="140.5" width="91.6667" height="17" rx="4.5" stroke="#6B7280"/>
<rect x="323.334" y="130" width="51" height="3" rx="1.5" fill="#9CA3AF"/>
<rect x="322.834" y="140.5" width="91.6667" height="17" rx="4.5" fill="#4B5563"/>
<rect x="330.334" y="148" width="56" height="2" rx="1" fill="#9CA3AF"/>
<rect x="322.834" y="140.5" width="91.6667" height="17" rx="4.5" stroke="#6B7280"/>
<rect x="122" y="173" width="51" height="3" rx="1.5" fill="#9CA3AF"/>
<path d="M122 192C122 187.582 125.582 184 130 184H406C410.418 184 414 187.582 414 192V207H122V192Z" fill="#6B7280"/>
<path fill-rule="evenodd" clip-rule="evenodd" d="M142.4 192.2C141.963 192.2 141.543 192.374 141.234 192.683C140.924 192.993 140.75 193.412 140.75 193.85V196.05C140.75 196.779 141.04 197.479 141.556 197.995C142.072 198.51 142.771 198.8 143.5 198.8C144.23 198.8 144.929 198.51 145.445 197.995C145.961 197.479 146.25 196.779 146.25 196.05V193.85C146.25 193.704 146.308 193.564 146.411 193.461C146.515 193.358 146.655 193.3 146.8 193.3C146.946 193.3 147.086 193.358 147.189 193.461C147.292 193.564 147.35 193.704 147.35 193.85V196.05C147.35 196.556 147.251 197.056 147.057 197.523C146.864 197.991 146.58 198.415 146.223 198.772C145.865 199.13 145.441 199.414 144.974 199.607C144.507 199.801 144.006 199.9 143.5 199.9C142.995 199.9 142.494 199.801 142.027 199.607C141.56 199.414 141.136 199.13 140.778 198.772C140.421 198.415 140.137 197.991 139.943 197.523C139.75 197.056 139.65 196.556 139.65 196.05V193.85C139.65 193.121 139.94 192.421 140.456 191.906C140.972 191.39 141.671 191.1 142.4 191.1C143.13 191.1 143.829 191.39 144.345 191.906C144.861 192.421 145.15 193.121 145.15 193.85V196.05C145.15 196.488 144.977 196.907 144.667 197.217C144.358 197.526 143.938 197.7 143.5 197.7C143.063 197.7 142.643 197.526 142.334 197.217C142.024 196.907 141.85 196.488 141.85 196.05V193.85C141.85 193.704 141.908 193.564 142.011 193.461C142.115 193.358 142.255 193.3 142.4 193.3C142.546 193.3 142.686 193.358 142.789 193.461C142.892 193.564 142.95 193.704 142.95 193.85V196.05C142.95 196.196 143.008 196.336 143.111 196.439C143.215 196.542 143.355 196.6 143.5 196.6C143.646 196.6 143.786 196.542 143.889 196.439C143.992 196.336 144.05 196.196 144.05 196.05V193.85C144.05 193.412 143.877 192.993 143.567 192.683C143.258 192.374 142.838 192.2 142.4 192.2V192.2Z" fill="#D1D5DB"/>
<path fill-rule="evenodd" clip-rule="evenodd" d="M166.778 192.227C167.5 191.505 168.48 191.1 169.501 191.1C170.522 191.1 171.501 191.505 172.223 192.227C172.945 192.949 173.351 193.929 173.351 194.95C173.351 195.971 172.945 196.95 172.223 197.672L169.501 200.395L166.778 197.672C166.421 197.315 166.137 196.89 165.943 196.423C165.75 195.956 165.65 195.455 165.65 194.95C165.65 194.444 165.75 193.944 165.943 193.476C166.137 193.009 166.421 192.585 166.778 192.227V192.227ZM169.501 196.05C169.792 196.05 170.072 195.934 170.278 195.728C170.485 195.521 170.601 195.242 170.601 194.95C170.601 194.658 170.485 194.378 170.278 194.172C170.072 193.966 169.792 193.85 169.501 193.85C169.209 193.85 168.929 193.966 168.723 194.172C168.517 194.378 168.401 194.658 168.401 194.95C168.401 195.242 168.517 195.521 168.723 195.728C168.929 195.934 169.209 196.05 169.501 196.05Z" fill="#D1D5DB"/>
<path fill-rule="evenodd" clip-rule="evenodd" d="M192.2 191.65C191.908 191.65 191.628 191.766 191.422 191.972C191.216 192.178 191.1 192.458 191.1 192.75V198.25C191.1 198.542 191.216 198.821 191.422 199.028C191.628 199.234 191.908 199.35 192.2 199.35H198.8C199.091 199.35 199.371 199.234 199.577 199.028C199.784 198.821 199.9 198.542 199.9 198.25V192.75C199.9 192.458 199.784 192.178 199.577 191.972C199.371 191.766 199.091 191.65 198.8 191.65H192.2ZM198.8 198.25H192.2L194.4 193.85L196.05 197.15L197.15 194.95L198.8 198.25Z" fill="#D1D5DB"/>
<path d="M218.786 193.885C218.795 193.876 218.801 193.863 218.801 193.85C218.801 193.837 218.795 193.824 218.786 193.815C218.777 193.805 218.764 193.8 218.751 193.8C218.737 193.8 218.725 193.805 218.715 193.815L218.715 193.815M218.786 193.885L216.712 195.889C216.609 195.786 216.551 195.646 216.551 195.5C216.551 195.354 216.609 195.214 216.712 195.111L218.362 193.461L218.715 193.815M218.786 193.885L218.786 193.885L217.525 195.147L217.171 195.5L217.525 195.854L218.786 197.115L218.786 197.115L218.792 197.121C218.797 197.125 218.801 197.131 218.803 197.137C218.806 197.143 218.807 197.15 218.807 197.156C218.807 197.163 218.806 197.17 218.804 197.176C218.801 197.182 218.797 197.187 218.793 197.192C218.788 197.197 218.783 197.201 218.776 197.203C218.77 197.206 218.764 197.207 218.757 197.207C218.75 197.207 218.744 197.205 218.738 197.203C218.732 197.2 218.726 197.196 218.721 197.192L218.722 197.192L218.715 197.185L217.065 195.535C217.065 195.535 217.065 195.535 217.065 195.535C217.056 195.526 217.051 195.513 217.051 195.5C217.051 195.487 217.056 195.474 217.065 195.465L218.786 193.885ZM218.715 193.815L217.065 195.465L218.715 193.815ZM224.215 193.885L225.477 195.147L225.83 195.5L225.477 195.854L224.215 197.115L224.209 197.121L224.209 197.121C224.204 197.125 224.201 197.131 224.198 197.137C224.195 197.143 224.194 197.15 224.194 197.156C224.194 197.163 224.195 197.17 224.198 197.176C224.2 197.182 224.204 197.187 224.209 197.192C224.213 197.197 224.219 197.201 224.225 197.203C224.231 197.206 224.238 197.207 224.244 197.207C224.251 197.207 224.258 197.205 224.264 197.203C224.27 197.2 224.275 197.196 224.28 197.192L224.286 197.185L224.286 197.185L225.936 195.535L224.215 193.885ZM224.215 193.885C224.215 193.885 224.215 193.885 224.215 193.885M224.215 193.885L224.215 193.885M224.215 193.885C224.206 193.876 224.201 193.863 224.201 193.85C224.201 193.837 224.206 193.824 224.215 193.815L223.862 193.461C223.965 193.358 224.105 193.3 224.251 193.3C224.397 193.3 224.536 193.358 224.64 193.461L224.215 193.885ZM225.936 195.465C225.936 195.465 225.936 195.465 225.936 195.465L225.936 195.465ZM220.448 198.816L220.448 198.816C220.444 198.829 220.435 198.839 220.423 198.845C220.411 198.851 220.397 198.852 220.385 198.848C220.372 198.843 220.362 198.834 220.356 198.822C220.35 198.811 220.349 198.797 220.353 198.784L222.553 192.184L222.553 192.184C222.555 192.178 222.558 192.172 222.563 192.167C222.567 192.162 222.572 192.158 222.578 192.155C222.584 192.152 222.59 192.15 222.597 192.15C222.604 192.15 222.61 192.15 222.616 192.152L222.617 192.153C222.623 192.155 222.629 192.158 222.634 192.162C222.639 192.166 222.643 192.172 222.646 192.178C222.648 192.183 222.65 192.19 222.651 192.196C222.651 192.203 222.65 192.21 222.648 192.216C222.648 192.216 222.648 192.216 222.648 192.216L220.448 198.816Z" fill="#D1D5DB" stroke="#D1D5DB"/>
<path fill-rule="evenodd" clip-rule="evenodd" d="M247.5 199.9C248.667 199.9 249.786 199.437 250.611 198.611C251.436 197.786 251.9 196.667 251.9 195.5C251.9 194.333 251.436 193.214 250.611 192.389C249.786 191.564 248.667 191.1 247.5 191.1C246.333 191.1 245.213 191.564 244.388 192.389C243.563 193.214 243.1 194.333 243.1 195.5C243.1 196.667 243.563 197.786 244.388 198.611C245.213 199.437 246.333 199.9 247.5 199.9V199.9ZM245.85 194.95C245.995 194.95 246.135 194.892 246.239 194.789C246.342 194.686 246.4 194.546 246.4 194.4C246.4 194.254 246.342 194.114 246.239 194.011C246.135 193.908 245.995 193.85 245.85 193.85C245.704 193.85 245.564 193.908 245.461 194.011C245.358 194.114 245.3 194.254 245.3 194.4C245.3 194.546 245.358 194.686 245.461 194.789C245.564 194.892 245.704 194.95 245.85 194.95ZM249.7 194.4C249.7 194.546 249.642 194.686 249.539 194.789C249.435 194.892 249.295 194.95 249.15 194.95C249.004 194.95 248.864 194.892 248.761 194.789C248.658 194.686 248.6 194.546 248.6 194.4C248.6 194.254 248.658 194.114 248.761 194.011C248.864 193.908 249.004 193.85 249.15 193.85C249.295 193.85 249.435 193.908 249.539 194.011C249.642 194.114 249.7 194.254 249.7 194.4ZM249.444 197.444C249.495 197.393 249.536 197.333 249.564 197.266C249.591 197.199 249.605 197.128 249.605 197.055C249.605 196.983 249.591 196.912 249.563 196.845C249.536 196.778 249.495 196.717 249.444 196.666C249.393 196.615 249.332 196.575 249.266 196.547C249.199 196.52 249.127 196.505 249.055 196.505C248.983 196.505 248.911 196.52 248.845 196.547C248.778 196.575 248.717 196.616 248.666 196.667C248.357 196.976 247.937 197.15 247.5 197.15C247.062 197.15 246.642 196.976 246.333 196.667C246.23 196.563 246.09 196.505 245.944 196.505C245.798 196.505 245.658 196.563 245.555 196.666C245.452 196.77 245.394 196.909 245.394 197.055C245.394 197.201 245.452 197.341 245.555 197.444C245.81 197.7 246.113 197.902 246.447 198.041C246.781 198.179 247.138 198.25 247.5 198.25C247.861 198.25 248.218 198.179 248.552 198.041C248.886 197.902 249.189 197.7 249.444 197.444V197.444Z" fill="#D1D5DB"/>
<line x1="267.5" y1="190" x2="267.5" y2="201" stroke="#9CA3AF"/>
<path d="M282.834 192.75H290.167H282.834ZM282.834 194.583H290.167H282.834ZM282.834 196.417H290.167H282.834ZM282.834 198.25H290.167Z" fill="#D1D5DB"/>
<path d="M282.834 198.25H290.167M282.834 192.75H290.167H282.834ZM282.834 194.583H290.167H282.834ZM282.834 196.417H290.167H282.834Z" stroke="#D1D5DB" stroke-linecap="round" stroke-linejoin="round"/>
<path fill-rule="evenodd" clip-rule="evenodd" d="M313.319 191.744C313.11 190.886 311.889 190.886 311.68 191.744C311.649 191.873 311.588 191.992 311.501 192.093C311.415 192.194 311.306 192.273 311.184 192.324C311.061 192.375 310.928 192.396 310.796 192.385C310.664 192.375 310.536 192.334 310.423 192.265C309.668 191.805 308.805 192.669 309.264 193.423C309.561 193.911 309.298 194.546 308.744 194.681C307.885 194.89 307.885 196.111 308.744 196.319C308.872 196.35 308.992 196.412 309.093 196.498C309.194 196.584 309.273 196.693 309.324 196.816C309.374 196.938 309.395 197.071 309.385 197.203C309.375 197.336 309.333 197.464 309.264 197.577C308.805 198.331 309.668 199.195 310.423 198.735C310.536 198.666 310.664 198.625 310.796 198.614C310.929 198.604 311.061 198.625 311.184 198.676C311.307 198.727 311.415 198.806 311.502 198.907C311.588 199.007 311.649 199.127 311.681 199.256C311.889 200.115 313.111 200.115 313.318 199.256C313.35 199.127 313.411 199.007 313.497 198.907C313.584 198.806 313.693 198.727 313.815 198.676C313.938 198.626 314.07 198.604 314.203 198.615C314.335 198.625 314.463 198.666 314.576 198.735C315.331 199.195 316.194 198.331 315.735 197.577C315.666 197.464 315.624 197.336 315.614 197.203C315.604 197.071 315.625 196.938 315.676 196.816C315.726 196.693 315.805 196.584 315.906 196.498C316.007 196.412 316.127 196.35 316.255 196.319C317.114 196.111 317.114 194.889 316.255 194.681C316.126 194.65 316.007 194.589 315.906 194.502C315.805 194.416 315.726 194.307 315.675 194.185C315.625 194.062 315.603 193.929 315.614 193.797C315.624 193.665 315.665 193.537 315.735 193.423C316.194 192.669 315.331 191.805 314.576 192.265C314.463 192.334 314.335 192.376 314.203 192.386C314.07 192.396 313.938 192.375 313.815 192.324C313.692 192.273 313.583 192.194 313.497 192.094C313.411 191.993 313.35 191.873 313.318 191.744L313.319 191.744ZM312.499 197.15C312.937 197.15 313.357 196.976 313.666 196.667C313.976 196.357 314.149 195.938 314.149 195.5C314.149 195.062 313.976 194.643 313.666 194.333C313.357 194.024 312.937 193.85 312.499 193.85C312.062 193.85 311.642 194.024 311.333 194.333C311.023 194.643 310.849 195.062 310.849 195.5C310.849 195.938 311.023 196.357 311.333 196.667C311.642 196.976 312.062 197.15 312.499 197.15V197.15Z" fill="#D1D5DB"/>
<line x1="122" y1="206.5" x2="470" y2="206.5" stroke="#6B7280"/>
<path d="M122 207H414V259C414 263.418 410.418 267 406 267H130C125.582 267 122 263.418 122 259V207Z" fill="#4B5563"/>
<rect x="121.5" y="183.5" width="293" height="84" rx="8.5" stroke="#6B7280"/>
<rect x="123.5" y="282.5" width="6" height="6" rx="1.5" fill="#4B5563"/>
<rect x="123.5" y="282.5" width="6" height="6" rx="1.5" stroke="#6B7280"/>
<rect x="134" y="283.5" width="32" height="4" rx="2" fill="#6B7280"/>
<rect x="176.5" y="282.5" width="6" height="6" rx="1.5" fill="#4B5563"/>
<rect x="176.5" y="282.5" width="6" height="6" rx="1.5" stroke="#6B7280"/>
<rect x="187" y="283.5" width="35" height="4" rx="2" fill="#6B7280"/>
<rect x="231.5" y="282.5" width="6" height="6" rx="1.5" fill="#4B5563"/>
<rect x="231.5" y="282.5" width="6" height="6" rx="1.5" stroke="#6B7280"/>
<rect x="242" y="283.5" width="46" height="4" rx="2" fill="#6B7280"/>
<rect x="122" y="304" width="66" height="17" rx="2" fill="#DB6B1A"/>
<rect x="134" y="311" width="42" height="3" rx="1" fill="white"/>
</g>
<defs>
<clipPath id="clip0_3466_5701">
<rect width="294" height="277" fill="white" transform="translate(121 44)"/>
</clipPath>
</defs>
</svg>
