<svg width="536" height="345" viewBox="0 0 536 345" fill="none" xmlns="http://www.w3.org/2000/svg">
<g filter="url(#filter0_dd_3486_6354)">
<rect x="126" y="109" width="284" height="128" rx="8" fill="#374151"/>
<path d="M398.001 120.717L397.647 120.364L394.642 117.359C394.642 117.359 394.642 117.359 394.642 117.359C394.604 117.321 394.554 117.3 394.501 117.3C394.448 117.3 394.397 117.321 394.359 117.359C394.359 117.359 394.359 117.359 394.359 117.359M398.001 120.717L394.359 117.359M398.001 120.717L398.354 120.364L401.359 117.359L401.359 117.359L401.365 117.353C401.384 117.333 401.406 117.318 401.43 117.308C401.455 117.297 401.481 117.292 401.507 117.292C401.534 117.291 401.56 117.296 401.585 117.306C401.61 117.316 401.632 117.331 401.651 117.35C401.669 117.369 401.684 117.391 401.694 117.416C401.704 117.44 401.709 117.467 401.709 117.493C401.709 117.52 401.703 117.546 401.693 117.57C401.683 117.595 401.667 117.617 401.648 117.635L401.648 117.635L401.642 117.641L398.637 120.647L398.283 121L398.637 121.354L401.638 124.355C401.673 124.392 401.692 124.442 401.692 124.493C401.692 124.546 401.671 124.596 401.633 124.633C401.596 124.67 401.546 124.691 401.494 124.691C401.442 124.692 401.393 124.673 401.355 124.637L398.354 121.636L398.001 121.283L397.647 121.636L394.646 124.637C394.609 124.673 394.559 124.692 394.507 124.691C394.455 124.691 394.405 124.67 394.368 124.633C394.331 124.596 394.31 124.546 394.309 124.493C394.309 124.442 394.328 124.392 394.363 124.355L397.364 121.354L397.718 121L397.364 120.647L394.359 117.642M398.001 120.717L394.359 117.642M394.359 117.359C394.322 117.396 394.301 117.447 394.301 117.5C394.301 117.553 394.322 117.604 394.359 117.641M394.359 117.359L394.359 117.641M394.359 117.641C394.359 117.641 394.359 117.641 394.359 117.642M394.359 117.641L394.359 117.642" stroke="#9CA3AF"/>
<rect x="256" y="123" width="24" height="24" rx="12" fill="#DEF7EC"/>
<path fill-rule="evenodd" clip-rule="evenodd" d="M274.036 130.764C274.205 130.932 274.3 131.161 274.3 131.4C274.3 131.638 274.205 131.867 274.036 132.036L266.836 139.236C266.667 139.405 266.439 139.5 266.2 139.5C265.961 139.5 265.732 139.405 265.564 139.236L261.964 135.636C261.8 135.466 261.709 135.239 261.711 135.003C261.713 134.767 261.808 134.541 261.975 134.374C262.141 134.208 262.367 134.113 262.603 134.111C262.839 134.109 263.066 134.2 263.236 134.364L266.2 137.327L272.764 130.764C272.932 130.595 273.161 130.5 273.4 130.5C273.639 130.5 273.867 130.595 274.036 130.764Z" fill="#0E9F6E"/>
<rect x="229" y="160" width="78" height="7" rx="3.5" fill="#D1D5DB"/>
<rect x="152.5" y="178" width="231" height="5" rx="2.5" fill="#9CA3AF"/>
<rect x="192.5" y="189" width="151" height="5" rx="2.5" fill="#9CA3AF"/>
<rect x="235" y="208" width="66" height="17" rx="2" fill="#1A56DB"/>
<rect x="247" y="215" width="42" height="3" rx="1" fill="white"/>
<rect x="125.5" y="108.5" width="285" height="129" rx="8.5" stroke="#4B5563"/>
</g>
<defs>
<filter id="filter0_dd_3486_6354" x="119" y="106" width="298" height="142" filterUnits="userSpaceOnUse" color-interpolation-filters="sRGB">
<feFlood flood-opacity="0" result="BackgroundImageFix"/>
<feColorMatrix in="SourceAlpha" type="matrix" values="0 0 0 0 0 0 0 0 0 0 0 0 0 0 0 0 0 0 127 0" result="hardAlpha"/>
<feOffset dy="4"/>
<feGaussianBlur stdDeviation="3"/>
<feColorMatrix type="matrix" values="0 0 0 0 0 0 0 0 0 0 0 0 0 0 0 0 0 0 0.1 0"/>
<feBlend mode="normal" in2="BackgroundImageFix" result="effect1_dropShadow_3486_6354"/>
<feColorMatrix in="SourceAlpha" type="matrix" values="0 0 0 0 0 0 0 0 0 0 0 0 0 0 0 0 0 0 127 0" result="hardAlpha"/>
<feOffset dy="2"/>
<feGaussianBlur stdDeviation="2"/>
<feColorMatrix type="matrix" values="0 0 0 0 0 0 0 0 0 0 0 0 0 0 0 0 0 0 0.06 0"/>
<feBlend mode="normal" in2="effect1_dropShadow_3486_6354" result="effect2_dropShadow_3486_6354"/>
<feBlend mode="normal" in="SourceGraphic" in2="effect2_dropShadow_3486_6354" result="shape"/>
</filter>
</defs>
</svg>
