<svg width="536" height="345" viewBox="0 0 536 345" fill="none" xmlns="http://www.w3.org/2000/svg">
<g filter="url(#filter0_dd_3499_5762)">
<rect x="200" y="14" width="136" height="317" rx="1" fill="#374151"/>
<rect x="212" y="28" width="51" height="6" rx="3" fill="#D1D5DB"/>
<mask id="path-4-inside-1_3499_5762" fill="white">
<path fill-rule="evenodd" clip-rule="evenodd" d="M316.146 28.1463C316.24 28.0526 316.367 27.9999 316.5 27.9999C316.632 27.9999 316.76 28.0526 316.853 28.1463L319 30.2928L321.146 28.1463C321.193 28.0985 321.248 28.0605 321.309 28.0342C321.37 28.008 321.435 27.9942 321.502 27.9937C321.568 27.9931 321.634 28.0057 321.695 28.0309C321.757 28.056 321.813 28.0932 321.86 28.1401C321.907 28.187 321.944 28.2429 321.969 28.3043C321.994 28.3658 322.007 28.4316 322.006 28.498C322.005 28.5644 321.992 28.63 321.965 28.691C321.939 28.752 321.901 28.8072 321.853 28.8533L319.707 30.9998L321.853 33.1463C321.944 33.2406 321.995 33.3669 321.994 33.498C321.993 33.6291 321.94 33.7545 321.847 33.8472C321.755 33.9399 321.629 33.9925 321.498 33.9936C321.367 33.9948 321.241 33.9444 321.146 33.8533L319 31.7068L316.853 33.8533C316.759 33.9444 316.633 33.9948 316.502 33.9936C316.371 33.9925 316.245 33.9399 316.152 33.8472C316.06 33.7545 316.007 33.6291 316.006 33.498C316.005 33.3669 316.055 33.2406 316.146 33.1463L318.293 30.9998L316.146 28.8533C316.053 28.7595 316 28.6324 316 28.4998C316 28.3672 316.053 28.2401 316.146 28.1463V28.1463Z"/>
</mask>
<path d="M316.853 28.1463L317.56 27.4392L317.56 27.4391L316.853 28.1463ZM319 30.2928L318.293 30.9999L319 31.707L319.707 30.9999L319 30.2928ZM321.146 28.1463L321.853 28.8534L321.86 28.8473L321.866 28.841L321.146 28.1463ZM321.853 28.8533L321.159 28.134L321.152 28.14L321.146 28.1462L321.853 28.8533ZM319.707 30.9998L319 30.2927L318.293 30.9998L319 31.7069L319.707 30.9998ZM321.853 33.1463L322.573 32.4516L322.567 32.4453L322.56 32.4392L321.853 33.1463ZM321.146 33.8533L320.439 34.5604L320.445 34.5665L320.452 34.5726L321.146 33.8533ZM319 31.7068L319.707 30.9997L319 30.2926L318.293 30.9997L319 31.7068ZM316.853 33.8533L317.548 34.5726L317.554 34.5665L317.56 34.5604L316.853 33.8533ZM316.146 33.1463L315.439 32.4392L315.433 32.4453L315.427 32.4516L316.146 33.1463ZM318.293 30.9998L319 31.7069L319.707 30.9998L319 30.2927L318.293 30.9998ZM316.146 28.8533L315.439 29.5603L315.439 29.5604L316.146 28.8533ZM316.853 28.8535C316.76 28.9472 316.632 28.9999 316.5 28.9999V26.9999C316.102 26.9999 315.721 27.1579 315.439 27.4391L316.853 28.8535ZM316.5 28.9999C316.367 28.9999 316.24 28.9472 316.146 28.8535L317.56 27.4391C317.279 27.1579 316.898 26.9999 316.5 26.9999V28.9999ZM316.146 28.8534L318.293 30.9999L319.707 29.5857L317.56 27.4392L316.146 28.8534ZM319.707 30.9999L321.853 28.8534L320.439 27.4392L318.293 29.5857L319.707 30.9999ZM321.866 28.841C321.82 28.8888 321.764 28.9269 321.703 28.9531L320.914 27.1154C320.731 27.194 320.565 27.3083 320.427 27.4516L321.866 28.841ZM321.703 28.9531C321.642 28.9793 321.577 28.9931 321.51 28.9936L321.493 26.9937C321.294 26.9954 321.097 27.0368 320.914 27.1154L321.703 28.9531ZM321.51 28.9936C321.444 28.9942 321.378 28.9816 321.317 28.9564L322.074 27.1054C321.89 27.0299 321.692 26.992 321.493 26.9937L321.51 28.9936ZM321.317 28.9564C321.255 28.9313 321.199 28.8942 321.152 28.8472L322.567 27.433C322.426 27.2922 322.258 27.1808 322.074 27.1054L321.317 28.9564ZM321.152 28.8472C321.106 28.8003 321.068 28.7444 321.043 28.683L322.894 27.9257C322.819 27.7413 322.708 27.5738 322.567 27.433L321.152 28.8472ZM321.043 28.683C321.018 28.6215 321.005 28.5557 321.006 28.4893L323.006 28.5067C323.008 28.3075 322.97 28.11 322.894 27.9257L321.043 28.683ZM321.006 28.4893C321.007 28.4229 321.02 28.3573 321.047 28.2963L322.884 29.0857C322.963 28.9027 323.004 28.7059 323.006 28.5067L321.006 28.4893ZM321.047 28.2963C321.073 28.2353 321.111 28.1801 321.159 28.134L322.548 29.5726C322.691 29.4342 322.806 29.2687 322.884 29.0857L321.047 28.2963ZM321.146 28.1462L319 30.2927L320.414 31.7069L322.56 29.5604L321.146 28.1462ZM319 31.7069L321.146 33.8534L322.56 32.4392L320.414 30.2927L319 31.7069ZM321.134 33.841C321.043 33.7467 320.993 33.6204 320.994 33.4893L322.994 33.5067C322.997 33.1134 322.846 32.7345 322.573 32.4516L321.134 33.841ZM320.994 33.4893C320.995 33.3582 321.047 33.2328 321.14 33.1401L322.554 34.5543C322.833 34.2762 322.99 33.9 322.994 33.5067L320.994 33.4893ZM321.14 33.1401C321.233 33.0474 321.358 32.9948 321.489 32.9937L321.507 34.9936C321.9 34.9902 322.276 34.8324 322.554 34.5543L321.14 33.1401ZM321.489 32.9937C321.621 32.9925 321.747 33.0429 321.841 33.134L320.452 34.5726C320.735 34.8458 321.113 34.997 321.507 34.9936L321.489 32.9937ZM321.853 33.1462L319.707 30.9997L318.293 32.4139L320.439 34.5604L321.853 33.1462ZM318.293 30.9997L316.146 33.1462L317.56 34.5604L319.707 32.4139L318.293 30.9997ZM316.159 33.134C316.253 33.0429 316.379 32.9925 316.51 32.9937L316.493 34.9936C316.886 34.997 317.265 34.8458 317.548 34.5726L316.159 33.134ZM316.51 32.9937C316.641 32.9948 316.767 33.0474 316.86 33.1401L315.445 34.5543C315.723 34.8324 316.1 34.9902 316.493 34.9936L316.51 32.9937ZM316.86 33.1401C316.952 33.2328 317.005 33.3582 317.006 33.4893L315.006 33.5067C315.01 33.9 315.167 34.2762 315.445 34.5543L316.86 33.1401ZM317.006 33.4893C317.007 33.6204 316.957 33.7467 316.866 33.841L315.427 32.4516C315.154 32.7345 315.003 33.1134 315.006 33.5067L317.006 33.4893ZM316.854 33.8534L319 31.7069L317.586 30.2927L315.439 32.4392L316.854 33.8534ZM319 30.2927L316.854 28.1462L315.439 29.5604L317.586 31.7069L319 30.2927ZM316.854 28.1463C316.947 28.2401 317 28.3672 317 28.4998H315C315 28.8975 315.158 29.279 315.439 29.5603L316.854 28.1463ZM317 28.4998C317 28.6324 316.947 28.7595 316.854 28.8533L315.439 27.4393C315.158 27.7206 315 28.102 315 28.4998H317Z" fill="#9CA3AF" mask="url(#path-4-inside-1_3499_5762)"/>
<line x1="200" y1="47.5" x2="336" y2="47.5" stroke="#4B5563"/>
<rect x="212" y="60" width="50" height="35" rx="3" fill="#4B5563"/>
<path fill-rule="evenodd" clip-rule="evenodd" d="M242.914 73.1868C244.018 73.1868 244.913 72.2496 244.913 71.0934C244.913 69.9373 244.018 69 242.914 69C241.81 69 240.915 69.9373 240.915 71.0934C240.915 72.2496 241.81 73.1868 242.914 73.1868ZM237.381 85.8635H226.099C225.322 85.8635 224.842 85.0156 225.242 84.3491L232.695 71.9233C233.078 71.2859 233.997 71.2731 234.395 71.9006C235.637 73.8568 237.998 77.582 240.039 80.8434L242.165 77.2781C242.533 76.6615 243.396 76.6413 243.805 77.2396L248.629 84.2834C249.087 84.9534 248.642 85.8707 247.853 85.8788L243.158 85.9267L237.381 85.8635Z" fill="#6B7280"/>
<rect x="272" y="60" width="50" height="35" rx="3" fill="#4B5563"/>
<path fill-rule="evenodd" clip-rule="evenodd" d="M302.914 73.1868C304.018 73.1868 304.913 72.2496 304.913 71.0934C304.913 69.9373 304.018 69 302.914 69C301.81 69 300.915 69.9373 300.915 71.0934C300.915 72.2496 301.81 73.1868 302.914 73.1868ZM297.381 85.8635H286.099C285.322 85.8635 284.842 85.0156 285.242 84.3491L292.695 71.9233C293.078 71.2859 293.997 71.2731 294.395 71.9006C295.637 73.8568 297.998 77.582 300.039 80.8434L302.165 77.2781C302.533 76.6615 303.396 76.6413 303.805 77.2396L308.629 84.2834C309.087 84.9534 308.642 85.8707 307.853 85.8788L303.158 85.9267L297.381 85.8635Z" fill="#6B7280"/>
<rect x="212" y="109" width="42" height="4" rx="2" fill="#9CA3AF"/>
<rect x="212" y="119" width="96" height="4" rx="2" fill="#D1D5DB"/>
<rect x="212" y="131" width="39" height="4" rx="2" fill="#9CA3AF"/>
<rect x="212" y="141" width="112" height="4" rx="2" fill="#D1D5DB"/>
<rect x="212" y="159" width="40" height="4" rx="2" fill="#D1D5DB"/>
<rect x="212" y="171" width="107" height="4" rx="2" fill="#9CA3AF"/>
<rect x="212" y="179" width="103" height="4" rx="2" fill="#9CA3AF"/>
<rect x="212" y="187" width="35" height="4" rx="2" fill="#9CA3AF"/>
<rect x="252" y="187" width="36" height="4" rx="2" fill="#9CA3AF"/>
<rect x="293" y="187" width="31" height="4" rx="2" fill="#9CA3AF"/>
<rect x="212" y="195" width="94" height="4" rx="2" fill="#9CA3AF"/>
<rect x="212" y="302" width="52" height="17" rx="2" fill="#1A56DB"/>
<rect x="224" y="309" width="28" height="3" rx="1" fill="white"/>
<rect x="272.5" y="302.5" width="51" height="16" rx="1.5" fill="#F05252"/>
<rect x="284" y="309" width="28" height="3" rx="1" fill="white"/>
<rect x="272.5" y="302.5" width="51" height="16" rx="1.5" stroke="#F05252"/>
<rect x="199.5" y="13.5" width="137" height="318" rx="1.5" stroke="#4B5563"/>
</g>
<defs>
<filter id="filter0_dd_3499_5762" x="193" y="11" width="150" height="331" filterUnits="userSpaceOnUse" color-interpolation-filters="sRGB">
<feFlood flood-opacity="0" result="BackgroundImageFix"/>
<feColorMatrix in="SourceAlpha" type="matrix" values="0 0 0 0 0 0 0 0 0 0 0 0 0 0 0 0 0 0 127 0" result="hardAlpha"/>
<feOffset dy="4"/>
<feGaussianBlur stdDeviation="3"/>
<feColorMatrix type="matrix" values="0 0 0 0 0 0 0 0 0 0 0 0 0 0 0 0 0 0 0.1 0"/>
<feBlend mode="normal" in2="BackgroundImageFix" result="effect1_dropShadow_3499_5762"/>
<feColorMatrix in="SourceAlpha" type="matrix" values="0 0 0 0 0 0 0 0 0 0 0 0 0 0 0 0 0 0 127 0" result="hardAlpha"/>
<feOffset dy="2"/>
<feGaussianBlur stdDeviation="2"/>
<feColorMatrix type="matrix" values="0 0 0 0 0 0 0 0 0 0 0 0 0 0 0 0 0 0 0.06 0"/>
<feBlend mode="normal" in2="effect1_dropShadow_3499_5762" result="effect2_dropShadow_3499_5762"/>
<feBlend mode="normal" in="SourceGraphic" in2="effect2_dropShadow_3499_5762" result="shape"/>
</filter>
</defs>
</svg>
