<svg width="536" height="345" viewBox="0 0 536 345" fill="none" xmlns="http://www.w3.org/2000/svg">
<g filter="url(#filter0_dd_3466_5517)">
<rect x="200" y="14" width="136" height="317" rx="1" fill="#374151"/>
<rect x="212" y="28" width="76" height="6" rx="3" fill="#D1D5DB"/>
<mask id="path-4-inside-1_3466_5517" fill="white">
<path fill-rule="evenodd" clip-rule="evenodd" d="M316.146 28.1463C316.24 28.0526 316.367 27.9999 316.5 27.9999C316.632 27.9999 316.76 28.0526 316.853 28.1463L319 30.2928L321.146 28.1463C321.193 28.0985 321.248 28.0605 321.309 28.0342C321.37 28.008 321.435 27.9942 321.502 27.9937C321.568 27.9931 321.634 28.0057 321.695 28.0309C321.757 28.056 321.813 28.0932 321.86 28.1401C321.907 28.187 321.944 28.2429 321.969 28.3043C321.994 28.3658 322.007 28.4316 322.006 28.498C322.005 28.5644 321.992 28.63 321.965 28.691C321.939 28.752 321.901 28.8072 321.853 28.8533L319.707 30.9998L321.853 33.1463C321.944 33.2406 321.995 33.3669 321.994 33.498C321.993 33.6291 321.94 33.7545 321.847 33.8472C321.755 33.9399 321.629 33.9925 321.498 33.9936C321.367 33.9948 321.241 33.9444 321.146 33.8533L319 31.7068L316.853 33.8533C316.759 33.9444 316.633 33.9948 316.502 33.9936C316.371 33.9925 316.245 33.9399 316.152 33.8472C316.06 33.7545 316.007 33.6291 316.006 33.498C316.005 33.3669 316.055 33.2406 316.146 33.1463L318.293 30.9998L316.146 28.8533C316.053 28.7595 316 28.6324 316 28.4998C316 28.3672 316.053 28.2401 316.146 28.1463V28.1463Z"/>
</mask>
<path d="M316.853 28.1463L317.56 27.4392L317.56 27.4391L316.853 28.1463ZM319 30.2928L318.293 30.9999L319 31.707L319.707 30.9999L319 30.2928ZM321.146 28.1463L321.853 28.8534L321.86 28.8473L321.866 28.841L321.146 28.1463ZM321.853 28.8533L321.159 28.134L321.152 28.14L321.146 28.1462L321.853 28.8533ZM319.707 30.9998L319 30.2927L318.293 30.9998L319 31.7069L319.707 30.9998ZM321.853 33.1463L322.573 32.4516L322.567 32.4453L322.56 32.4392L321.853 33.1463ZM321.146 33.8533L320.439 34.5604L320.445 34.5665L320.452 34.5726L321.146 33.8533ZM319 31.7068L319.707 30.9997L319 30.2926L318.293 30.9997L319 31.7068ZM316.853 33.8533L317.548 34.5726L317.554 34.5665L317.56 34.5604L316.853 33.8533ZM316.146 33.1463L315.439 32.4392L315.433 32.4453L315.427 32.4516L316.146 33.1463ZM318.293 30.9998L319 31.7069L319.707 30.9998L319 30.2927L318.293 30.9998ZM316.146 28.8533L315.439 29.5603L315.439 29.5604L316.146 28.8533ZM316.853 28.8535C316.76 28.9472 316.632 28.9999 316.5 28.9999V26.9999C316.102 26.9999 315.721 27.1579 315.439 27.4391L316.853 28.8535ZM316.5 28.9999C316.367 28.9999 316.24 28.9472 316.146 28.8535L317.56 27.4391C317.279 27.1579 316.898 26.9999 316.5 26.9999V28.9999ZM316.146 28.8534L318.293 30.9999L319.707 29.5857L317.56 27.4392L316.146 28.8534ZM319.707 30.9999L321.853 28.8534L320.439 27.4392L318.293 29.5857L319.707 30.9999ZM321.866 28.841C321.82 28.8888 321.764 28.9269 321.703 28.9531L320.914 27.1154C320.731 27.194 320.565 27.3083 320.427 27.4516L321.866 28.841ZM321.703 28.9531C321.642 28.9793 321.577 28.9931 321.51 28.9936L321.493 26.9937C321.294 26.9954 321.097 27.0368 320.914 27.1154L321.703 28.9531ZM321.51 28.9936C321.444 28.9942 321.378 28.9816 321.317 28.9564L322.074 27.1054C321.89 27.0299 321.692 26.992 321.493 26.9937L321.51 28.9936ZM321.317 28.9564C321.255 28.9313 321.199 28.8942 321.152 28.8472L322.567 27.433C322.426 27.2922 322.258 27.1808 322.074 27.1054L321.317 28.9564ZM321.152 28.8472C321.106 28.8003 321.068 28.7444 321.043 28.683L322.894 27.9257C322.819 27.7413 322.708 27.5738 322.567 27.433L321.152 28.8472ZM321.043 28.683C321.018 28.6215 321.005 28.5557 321.006 28.4893L323.006 28.5067C323.008 28.3075 322.97 28.11 322.894 27.9257L321.043 28.683ZM321.006 28.4893C321.007 28.4229 321.02 28.3573 321.047 28.2963L322.884 29.0857C322.963 28.9027 323.004 28.7059 323.006 28.5067L321.006 28.4893ZM321.047 28.2963C321.073 28.2353 321.111 28.1801 321.159 28.134L322.548 29.5726C322.691 29.4342 322.806 29.2687 322.884 29.0857L321.047 28.2963ZM321.146 28.1462L319 30.2927L320.414 31.7069L322.56 29.5604L321.146 28.1462ZM319 31.7069L321.146 33.8534L322.56 32.4392L320.414 30.2927L319 31.7069ZM321.134 33.841C321.043 33.7467 320.993 33.6204 320.994 33.4893L322.994 33.5067C322.997 33.1134 322.846 32.7345 322.573 32.4516L321.134 33.841ZM320.994 33.4893C320.995 33.3582 321.047 33.2328 321.14 33.1401L322.554 34.5543C322.833 34.2762 322.99 33.9 322.994 33.5067L320.994 33.4893ZM321.14 33.1401C321.233 33.0474 321.358 32.9948 321.489 32.9937L321.507 34.9936C321.9 34.9902 322.276 34.8324 322.554 34.5543L321.14 33.1401ZM321.489 32.9937C321.621 32.9925 321.747 33.0429 321.841 33.134L320.452 34.5726C320.735 34.8458 321.113 34.997 321.507 34.9936L321.489 32.9937ZM321.853 33.1462L319.707 30.9997L318.293 32.4139L320.439 34.5604L321.853 33.1462ZM318.293 30.9997L316.146 33.1462L317.56 34.5604L319.707 32.4139L318.293 30.9997ZM316.159 33.134C316.253 33.0429 316.379 32.9925 316.51 32.9937L316.493 34.9936C316.886 34.997 317.265 34.8458 317.548 34.5726L316.159 33.134ZM316.51 32.9937C316.641 32.9948 316.767 33.0474 316.86 33.1401L315.445 34.5543C315.723 34.8324 316.1 34.9902 316.493 34.9936L316.51 32.9937ZM316.86 33.1401C316.952 33.2328 317.005 33.3582 317.006 33.4893L315.006 33.5067C315.01 33.9 315.167 34.2762 315.445 34.5543L316.86 33.1401ZM317.006 33.4893C317.007 33.6204 316.957 33.7467 316.866 33.841L315.427 32.4516C315.154 32.7345 315.003 33.1134 315.006 33.5067L317.006 33.4893ZM316.854 33.8534L319 31.7069L317.586 30.2927L315.439 32.4392L316.854 33.8534ZM319 30.2927L316.854 28.1462L315.439 29.5604L317.586 31.7069L319 30.2927ZM316.854 28.1463C316.947 28.2401 317 28.3672 317 28.4998H315C315 28.8975 315.158 29.279 315.439 29.5603L316.854 28.1463ZM317 28.4998C317 28.6324 316.947 28.7595 316.854 28.8533L315.439 27.4393C315.158 27.7206 315 28.102 315 28.4998H317Z" fill="#9CA3AF" mask="url(#path-4-inside-1_3466_5517)"/>
<line x1="200" y1="47.5" x2="336" y2="47.5" stroke="#4B5563"/>
<path fill-rule="evenodd" clip-rule="evenodd" d="M245.4 73.0001C245.4 76.8192 243.882 80.4819 241.182 83.1824C238.481 85.883 234.819 87.4001 231 87.4001C227.18 87.4001 223.518 85.883 220.817 83.1824C218.117 80.4819 216.6 76.8192 216.6 73.0001C216.6 69.181 218.117 65.5183 220.817 62.8178C223.518 60.1172 227.18 58.6001 231 58.6001C234.819 58.6001 238.481 60.1172 241.182 62.8178C243.882 65.5183 245.4 69.181 245.4 73.0001V73.0001ZM234.6 67.6001C234.6 68.5549 234.22 69.4706 233.545 70.1457C232.87 70.8208 231.954 71.2001 231 71.2001C230.045 71.2001 229.129 70.8208 228.454 70.1457C227.779 69.4706 227.4 68.5549 227.4 67.6001C227.4 66.6453 227.779 65.7296 228.454 65.0545C229.129 64.3794 230.045 64.0001 231 64.0001C231.954 64.0001 232.87 64.3794 233.545 65.0545C234.22 65.7296 234.6 66.6453 234.6 67.6001V67.6001ZM231 74.8001C229.276 74.7998 227.589 75.2942 226.139 76.2246C224.688 77.1551 223.535 78.4824 222.817 80.0489C223.83 81.2272 225.085 82.1725 226.498 82.82C227.91 83.4674 229.446 83.8018 231 83.8001C232.553 83.8018 234.089 83.4674 235.502 82.82C236.914 82.1725 238.17 81.2272 239.182 80.0489C238.464 78.4824 237.311 77.1551 235.861 76.2246C234.41 75.2942 232.723 74.7998 231 74.8001V74.8001Z" fill="#9CA3AF"/>
<path d="M213 100C213 97.7909 214.791 96 217 96H248V114H217C214.791 114 213 112.209 213 110V100Z" fill="#6B7280"/>
<rect x="220" y="103.5" width="21" height="3" rx="1" fill="#D1D5DB"/>
<mask id="path-11-outside-2_3466_5517" maskUnits="userSpaceOnUse" x="248" y="96" width="76" height="18" fill="black">
<rect fill="white" x="248" y="96" width="76" height="18"/>
<path d="M248 97H319C321.209 97 323 98.7909 323 101V109C323 111.209 321.209 113 319 113H248V97Z"/>
</mask>
<path d="M248 97H319C321.209 97 323 98.7909 323 101V109C323 111.209 321.209 113 319 113H248V97Z" fill="#4B5563"/>
<rect x="255" y="104" width="56" height="2" rx="1" fill="#9CA3AF"/>
<path d="M248 96H319C321.761 96 324 98.2386 324 101H322C322 99.3431 320.657 98 319 98H248V96ZM324 109C324 111.761 321.761 114 319 114H248V112H319C320.657 112 322 110.657 322 109H324ZM248 113V97V113ZM319 96C321.761 96 324 98.2386 324 101V109C324 111.761 321.761 114 319 114V112C320.657 112 322 110.657 322 109V101C322 99.3431 320.657 98 319 98V96Z" fill="#6B7280" mask="url(#path-11-outside-2_3466_5517)"/>
<rect x="213" y="126" width="46" height="3" rx="1.5" fill="#9CA3AF"/>
<rect x="212.5" y="136.5" width="111" height="17" rx="4.5" fill="#4B5563"/>
<rect x="220" y="144" width="56" height="2" rx="1" fill="#9CA3AF"/>
<rect x="212.5" y="136.5" width="111" height="17" rx="4.5" stroke="#6B7280"/>
<rect x="213" y="165" width="33" height="3" rx="1.5" fill="#9CA3AF"/>
<rect x="212.5" y="175.5" width="111" height="17" rx="4.5" fill="#4B5563"/>
<rect x="220" y="183" width="56" height="2" rx="1" fill="#9CA3AF"/>
<rect x="212.5" y="175.5" width="111" height="17" rx="4.5" stroke="#6B7280"/>
<rect x="213" y="204" width="51" height="3" rx="1.5" fill="#9CA3AF"/>
<rect x="212.5" y="214.5" width="111" height="17" rx="4.5" fill="#4B5563"/>
<rect x="220" y="222" width="56" height="2" rx="1" fill="#9CA3AF"/>
<rect x="212.5" y="214.5" width="111" height="17" rx="4.5" stroke="#6B7280"/>
<rect x="213.5" y="243.5" width="6" height="6" rx="1.5" fill="#4B5563"/>
<rect x="213.5" y="243.5" width="6" height="6" rx="1.5" stroke="#6B7280"/>
<rect x="224" y="244.5" width="32" height="4" rx="2" fill="#6B7280"/>
<rect x="266.5" y="243.5" width="6" height="6" rx="1.5" fill="#4B5563"/>
<rect x="266.5" y="243.5" width="6" height="6" rx="1.5" stroke="#6B7280"/>
<rect x="277" y="244.5" width="46" height="4" rx="2" fill="#6B7280"/>
<rect x="212" y="302" width="66" height="17" rx="2" fill="#DB6B1A"/>
<rect x="224" y="309" width="42" height="3" rx="1" fill="white"/>
<rect x="199.5" y="13.5" width="137" height="318" rx="1.5" stroke="#4B5563"/>
</g>
<defs>
<filter id="filter0_dd_3466_5517" x="193" y="11" width="150" height="331" filterUnits="userSpaceOnUse" color-interpolation-filters="sRGB">
<feFlood flood-opacity="0" result="BackgroundImageFix"/>
<feColorMatrix in="SourceAlpha" type="matrix" values="0 0 0 0 0 0 0 0 0 0 0 0 0 0 0 0 0 0 127 0" result="hardAlpha"/>
<feOffset dy="4"/>
<feGaussianBlur stdDeviation="3"/>
<feColorMatrix type="matrix" values="0 0 0 0 0 0 0 0 0 0 0 0 0 0 0 0 0 0 0.1 0"/>
<feBlend mode="normal" in2="BackgroundImageFix" result="effect1_dropShadow_3466_5517"/>
<feColorMatrix in="SourceAlpha" type="matrix" values="0 0 0 0 0 0 0 0 0 0 0 0 0 0 0 0 0 0 127 0" result="hardAlpha"/>
<feOffset dy="2"/>
<feGaussianBlur stdDeviation="2"/>
<feColorMatrix type="matrix" values="0 0 0 0 0 0 0 0 0 0 0 0 0 0 0 0 0 0 0.06 0"/>
<feBlend mode="normal" in2="effect1_dropShadow_3466_5517" result="effect2_dropShadow_3466_5517"/>
<feBlend mode="normal" in="SourceGraphic" in2="effect2_dropShadow_3466_5517" result="shape"/>
</filter>
</defs>
</svg>
