<svg width="536" height="345" viewBox="0 0 536 345" fill="none" xmlns="http://www.w3.org/2000/svg">
<g filter="url(#filter0_dd_3473_5655)">
<rect x="200" y="14" width="136" height="317" rx="1" fill="#374151"/>
<rect x="212" y="28" width="76" height="6" rx="3" fill="#D1D5DB"/>
<mask id="path-4-inside-1_3473_5655" fill="white">
<path fill-rule="evenodd" clip-rule="evenodd" d="M316.146 28.1463C316.24 28.0526 316.367 27.9999 316.5 27.9999C316.632 27.9999 316.76 28.0526 316.853 28.1463L319 30.2928L321.146 28.1463C321.193 28.0985 321.248 28.0605 321.309 28.0342C321.37 28.008 321.435 27.9942 321.502 27.9937C321.568 27.9931 321.634 28.0057 321.695 28.0309C321.757 28.056 321.813 28.0932 321.86 28.1401C321.907 28.187 321.944 28.2429 321.969 28.3043C321.994 28.3658 322.007 28.4316 322.006 28.498C322.005 28.5644 321.992 28.63 321.965 28.691C321.939 28.752 321.901 28.8072 321.853 28.8533L319.707 30.9998L321.853 33.1463C321.944 33.2406 321.995 33.3669 321.994 33.498C321.993 33.6291 321.94 33.7545 321.847 33.8472C321.755 33.9399 321.629 33.9925 321.498 33.9936C321.367 33.9948 321.241 33.9444 321.146 33.8533L319 31.7068L316.853 33.8533C316.759 33.9444 316.633 33.9948 316.502 33.9936C316.371 33.9925 316.245 33.9399 316.152 33.8472C316.06 33.7545 316.007 33.6291 316.006 33.498C316.005 33.3669 316.055 33.2406 316.146 33.1463L318.293 30.9998L316.146 28.8533C316.053 28.7595 316 28.6324 316 28.4998C316 28.3672 316.053 28.2401 316.146 28.1463V28.1463Z"/>
</mask>
<path d="M316.853 28.1463L317.56 27.4392L317.56 27.4391L316.853 28.1463ZM319 30.2928L318.293 30.9999L319 31.707L319.707 30.9999L319 30.2928ZM321.146 28.1463L321.853 28.8534L321.86 28.8473L321.866 28.841L321.146 28.1463ZM321.853 28.8533L321.159 28.134L321.152 28.14L321.146 28.1462L321.853 28.8533ZM319.707 30.9998L319 30.2927L318.293 30.9998L319 31.7069L319.707 30.9998ZM321.853 33.1463L322.573 32.4516L322.567 32.4453L322.56 32.4392L321.853 33.1463ZM321.146 33.8533L320.439 34.5604L320.445 34.5665L320.452 34.5726L321.146 33.8533ZM319 31.7068L319.707 30.9997L319 30.2926L318.293 30.9997L319 31.7068ZM316.853 33.8533L317.548 34.5726L317.554 34.5665L317.56 34.5604L316.853 33.8533ZM316.146 33.1463L315.439 32.4392L315.433 32.4453L315.427 32.4516L316.146 33.1463ZM318.293 30.9998L319 31.7069L319.707 30.9998L319 30.2927L318.293 30.9998ZM316.146 28.8533L315.439 29.5603L315.439 29.5604L316.146 28.8533ZM316.853 28.8535C316.76 28.9472 316.632 28.9999 316.5 28.9999V26.9999C316.102 26.9999 315.721 27.1579 315.439 27.4391L316.853 28.8535ZM316.5 28.9999C316.367 28.9999 316.24 28.9472 316.146 28.8535L317.56 27.4391C317.279 27.1579 316.898 26.9999 316.5 26.9999V28.9999ZM316.146 28.8534L318.293 30.9999L319.707 29.5857L317.56 27.4392L316.146 28.8534ZM319.707 30.9999L321.853 28.8534L320.439 27.4392L318.293 29.5857L319.707 30.9999ZM321.866 28.841C321.82 28.8888 321.764 28.9269 321.703 28.9531L320.914 27.1154C320.731 27.194 320.565 27.3083 320.427 27.4516L321.866 28.841ZM321.703 28.9531C321.642 28.9793 321.577 28.9931 321.51 28.9936L321.493 26.9937C321.294 26.9954 321.097 27.0368 320.914 27.1154L321.703 28.9531ZM321.51 28.9936C321.444 28.9942 321.378 28.9816 321.317 28.9564L322.074 27.1054C321.89 27.0299 321.692 26.992 321.493 26.9937L321.51 28.9936ZM321.317 28.9564C321.255 28.9313 321.199 28.8942 321.152 28.8472L322.567 27.433C322.426 27.2922 322.258 27.1808 322.074 27.1054L321.317 28.9564ZM321.152 28.8472C321.106 28.8003 321.068 28.7444 321.043 28.683L322.894 27.9257C322.819 27.7413 322.708 27.5738 322.567 27.433L321.152 28.8472ZM321.043 28.683C321.018 28.6215 321.005 28.5557 321.006 28.4893L323.006 28.5067C323.008 28.3075 322.97 28.11 322.894 27.9257L321.043 28.683ZM321.006 28.4893C321.007 28.4229 321.02 28.3573 321.047 28.2963L322.884 29.0857C322.963 28.9027 323.004 28.7059 323.006 28.5067L321.006 28.4893ZM321.047 28.2963C321.073 28.2353 321.111 28.1801 321.159 28.134L322.548 29.5726C322.691 29.4342 322.806 29.2687 322.884 29.0857L321.047 28.2963ZM321.146 28.1462L319 30.2927L320.414 31.7069L322.56 29.5604L321.146 28.1462ZM319 31.7069L321.146 33.8534L322.56 32.4392L320.414 30.2927L319 31.7069ZM321.134 33.841C321.043 33.7467 320.993 33.6204 320.994 33.4893L322.994 33.5067C322.997 33.1134 322.846 32.7345 322.573 32.4516L321.134 33.841ZM320.994 33.4893C320.995 33.3582 321.047 33.2328 321.14 33.1401L322.554 34.5543C322.833 34.2762 322.99 33.9 322.994 33.5067L320.994 33.4893ZM321.14 33.1401C321.233 33.0474 321.358 32.9948 321.489 32.9937L321.507 34.9936C321.9 34.9902 322.276 34.8324 322.554 34.5543L321.14 33.1401ZM321.489 32.9937C321.621 32.9925 321.747 33.0429 321.841 33.134L320.452 34.5726C320.735 34.8458 321.113 34.997 321.507 34.9936L321.489 32.9937ZM321.853 33.1462L319.707 30.9997L318.293 32.4139L320.439 34.5604L321.853 33.1462ZM318.293 30.9997L316.146 33.1462L317.56 34.5604L319.707 32.4139L318.293 30.9997ZM316.159 33.134C316.253 33.0429 316.379 32.9925 316.51 32.9937L316.493 34.9936C316.886 34.997 317.265 34.8458 317.548 34.5726L316.159 33.134ZM316.51 32.9937C316.641 32.9948 316.767 33.0474 316.86 33.1401L315.445 34.5543C315.723 34.8324 316.1 34.9902 316.493 34.9936L316.51 32.9937ZM316.86 33.1401C316.952 33.2328 317.005 33.3582 317.006 33.4893L315.006 33.5067C315.01 33.9 315.167 34.2762 315.445 34.5543L316.86 33.1401ZM317.006 33.4893C317.007 33.6204 316.957 33.7467 316.866 33.841L315.427 32.4516C315.154 32.7345 315.003 33.1134 315.006 33.5067L317.006 33.4893ZM316.854 33.8534L319 31.7069L317.586 30.2927L315.439 32.4392L316.854 33.8534ZM319 30.2927L316.854 28.1462L315.439 29.5604L317.586 31.7069L319 30.2927ZM316.854 28.1463C316.947 28.2401 317 28.3672 317 28.4998H315C315 28.8975 315.158 29.279 315.439 29.5603L316.854 28.1463ZM317 28.4998C317 28.6324 316.947 28.7595 316.854 28.8533L315.439 27.4393C315.158 27.7206 315 28.102 315 28.4998H317Z" fill="#9CA3AF" mask="url(#path-4-inside-1_3473_5655)"/>
<line x1="200" y1="47.5" x2="336" y2="47.5" stroke="#4B5563"/>
<path fill-rule="evenodd" clip-rule="evenodd" d="M244.402 72.0001C244.402 75.8192 242.884 79.4819 240.184 82.1824C237.483 84.883 233.821 86.4001 230.002 86.4001C226.182 86.4001 222.52 84.883 219.819 82.1824C217.119 79.4819 215.602 75.8192 215.602 72.0001C215.602 68.181 217.119 64.5183 219.819 61.8178C222.52 59.1172 226.182 57.6001 230.002 57.6001C233.821 57.6001 237.483 59.1172 240.184 61.8178C242.884 64.5183 244.402 68.181 244.402 72.0001V72.0001ZM233.602 66.6001C233.602 67.5549 233.222 68.4706 232.547 69.1457C231.872 69.8208 230.956 70.2001 230.002 70.2001C229.047 70.2001 228.131 69.8208 227.456 69.1457C226.781 68.4706 226.402 67.5549 226.402 66.6001C226.402 65.6453 226.781 64.7296 227.456 64.0545C228.131 63.3794 229.047 63.0001 230.002 63.0001C230.956 63.0001 231.872 63.3794 232.547 64.0545C233.222 64.7296 233.602 65.6453 233.602 66.6001V66.6001ZM230.002 73.8001C228.278 73.7998 226.591 74.2942 225.141 75.2246C223.69 76.1551 222.537 77.4824 221.819 79.0489C222.832 80.2272 224.087 81.1725 225.5 81.82C226.912 82.4674 228.448 82.8018 230.002 82.8001C231.555 82.8018 233.091 82.4674 234.503 81.82C235.916 81.1725 237.172 80.2272 238.184 79.0489C237.466 77.4824 236.313 76.1551 234.863 75.2246C233.412 74.2942 231.725 73.7998 230.002 73.8001V73.8001Z" fill="#9CA3AF"/>
<path d="M212 99C212 96.7909 213.791 95 216 95H247V113H216C213.791 113 212 111.209 212 109V99Z" fill="#6B7280"/>
<rect x="219" y="102.5" width="21" height="3" rx="1" fill="#D1D5DB"/>
<mask id="path-11-outside-2_3473_5655" maskUnits="userSpaceOnUse" x="247" y="95" width="78" height="18" fill="black">
<rect fill="white" x="247" y="95" width="78" height="18"/>
<path d="M247 96H320C322.209 96 324 97.7909 324 100V108C324 110.209 322.209 112 320 112H247V96Z"/>
</mask>
<path d="M247 96H320C322.209 96 324 97.7909 324 100V108C324 110.209 322.209 112 320 112H247V96Z" fill="#4B5563"/>
<rect x="254" y="103" width="56" height="2" rx="1" fill="#9CA3AF"/>
<path d="M247 95H320C322.761 95 325 97.2386 325 100H323C323 98.3431 321.657 97 320 97H247V95ZM325 108C325 110.761 322.761 113 320 113H247V111H320C321.657 111 323 109.657 323 108H325ZM247 112V96V112ZM320 95C322.761 95 325 97.2386 325 100V108C325 110.761 322.761 113 320 113V111C321.657 111 323 109.657 323 108V100C323 98.3431 321.657 97 320 97V95Z" fill="#6B7280" mask="url(#path-11-outside-2_3473_5655)"/>
<rect x="212" y="118" width="34" height="10" rx="2" fill="#1A56DB"/>
<rect x="219" y="122" width="20" height="2" rx="1" fill="white"/>
<rect x="251.25" y="118.25" width="27.5" height="9.5" rx="1.75" fill="#4B5563"/>
<rect x="258" y="122" width="14" height="2" rx="1" fill="#D1D5DB"/>
<rect x="251.25" y="118.25" width="27.5" height="9.5" rx="1.75" stroke="#6B7280" stroke-width="0.5"/>
<rect x="213" y="141" width="46" height="3" rx="1.5" fill="#9CA3AF"/>
<rect x="212.5" y="151.5" width="111" height="17" rx="4.5" fill="#4B5563"/>
<rect x="220" y="159" width="56" height="2" rx="1" fill="#9CA3AF"/>
<rect x="212.5" y="151.5" width="111" height="17" rx="4.5" stroke="#6B7280"/>
<rect x="213" y="180" width="33" height="3" rx="1.5" fill="#9CA3AF"/>
<rect x="212.5" y="190.5" width="111" height="17" rx="4.5" fill="#4B5563"/>
<rect x="220" y="198" width="56" height="2" rx="1" fill="#9CA3AF"/>
<rect x="212.5" y="190.5" width="111" height="17" rx="4.5" stroke="#6B7280"/>
<rect x="213" y="219" width="51" height="3" rx="1.5" fill="#9CA3AF"/>
<rect x="212.5" y="229.5" width="111" height="17" rx="4.5" fill="#4B5563"/>
<rect x="220" y="237" width="56" height="2" rx="1" fill="#9CA3AF"/>
<rect x="212.5" y="229.5" width="111" height="17" rx="4.5" stroke="#6B7280"/>
<rect x="213.5" y="258.5" width="6" height="6" rx="1.5" fill="#4B5563"/>
<rect x="213.5" y="258.5" width="6" height="6" rx="1.5" stroke="#6B7280"/>
<rect x="224" y="259.5" width="32" height="4" rx="2" fill="#6B7280"/>
<rect x="266.5" y="258.5" width="6" height="6" rx="1.5" fill="#4B5563"/>
<rect x="266.5" y="258.5" width="6" height="6" rx="1.5" stroke="#6B7280"/>
<rect x="277" y="259.5" width="46" height="4" rx="2" fill="#6B7280"/>
<rect x="212" y="302" width="52" height="17" rx="2" fill="#1A56DB"/>
<rect x="224" y="309" width="28" height="3" rx="1" fill="white"/>
<rect x="272.5" y="302.5" width="51" height="16" rx="1.5" fill="#374151"/>
<rect x="284" y="309" width="28" height="3" rx="1" fill="#F05252"/>
<rect x="272.5" y="302.5" width="51" height="16" rx="1.5" stroke="#F05252"/>
<rect x="199.5" y="13.5" width="137" height="318" rx="1.5" stroke="#4B5563"/>
</g>
<defs>
<filter id="filter0_dd_3473_5655" x="193" y="11" width="150" height="331" filterUnits="userSpaceOnUse" color-interpolation-filters="sRGB">
<feFlood flood-opacity="0" result="BackgroundImageFix"/>
<feColorMatrix in="SourceAlpha" type="matrix" values="0 0 0 0 0 0 0 0 0 0 0 0 0 0 0 0 0 0 127 0" result="hardAlpha"/>
<feOffset dy="4"/>
<feGaussianBlur stdDeviation="3"/>
<feColorMatrix type="matrix" values="0 0 0 0 0 0 0 0 0 0 0 0 0 0 0 0 0 0 0.1 0"/>
<feBlend mode="normal" in2="BackgroundImageFix" result="effect1_dropShadow_3473_5655"/>
<feColorMatrix in="SourceAlpha" type="matrix" values="0 0 0 0 0 0 0 0 0 0 0 0 0 0 0 0 0 0 127 0" result="hardAlpha"/>
<feOffset dy="2"/>
<feGaussianBlur stdDeviation="2"/>
<feColorMatrix type="matrix" values="0 0 0 0 0 0 0 0 0 0 0 0 0 0 0 0 0 0 0.06 0"/>
<feBlend mode="normal" in2="effect1_dropShadow_3473_5655" result="effect2_dropShadow_3473_5655"/>
<feBlend mode="normal" in="SourceGraphic" in2="effect2_dropShadow_3473_5655" result="shape"/>
</filter>
</defs>
</svg>
