<svg width="536" height="345" viewBox="0 0 536 345" fill="none" xmlns="http://www.w3.org/2000/svg">
<g filter="url(#filter0_dd_3486_6375)">
<rect x="126" y="99" width="284" height="147" rx="8" fill="white"/>
<rect x="126" y="99" width="284" height="118" rx="8" fill="white"/>
<path d="M398.001 110.717L397.647 110.364L394.642 107.359C394.642 107.359 394.642 107.359 394.642 107.359C394.604 107.321 394.554 107.3 394.501 107.3C394.448 107.3 394.397 107.321 394.359 107.359C394.359 107.359 394.359 107.359 394.359 107.359M398.001 110.717L394.359 107.359M398.001 110.717L398.354 110.364L401.359 107.359L401.359 107.359L401.365 107.353C401.384 107.333 401.406 107.318 401.43 107.308C401.455 107.297 401.481 107.292 401.507 107.292C401.534 107.291 401.56 107.296 401.585 107.306C401.61 107.316 401.632 107.331 401.651 107.35C401.669 107.369 401.684 107.391 401.694 107.416C401.704 107.44 401.709 107.467 401.709 107.493C401.709 107.52 401.703 107.546 401.693 107.57C401.683 107.595 401.667 107.617 401.648 107.635L401.648 107.635L401.642 107.641L398.637 110.647L398.283 111L398.637 111.354L401.638 114.355C401.673 114.392 401.692 114.442 401.692 114.493C401.692 114.546 401.671 114.596 401.633 114.633C401.596 114.67 401.546 114.691 401.494 114.691C401.442 114.692 401.393 114.673 401.355 114.637L398.354 111.636L398.001 111.283L397.647 111.636L394.646 114.637C394.609 114.673 394.559 114.692 394.507 114.691C394.455 114.691 394.405 114.67 394.368 114.633C394.331 114.596 394.31 114.546 394.309 114.493C394.309 114.442 394.328 114.392 394.363 114.355L397.364 111.354L397.718 111L397.364 110.647L394.359 107.642M398.001 110.717L394.359 107.642M394.359 107.359C394.322 107.396 394.301 107.447 394.301 107.5C394.301 107.553 394.322 107.604 394.359 107.641M394.359 107.359L394.359 107.641M394.359 107.641C394.359 107.641 394.359 107.641 394.359 107.642M394.359 107.641L394.359 107.642" stroke="#9CA3AF"/>
<rect x="252" y="113" width="32" height="32" rx="8" fill="#FDF2F2"/>
<path fill-rule="evenodd" clip-rule="evenodd" d="M266.258 122.099C267.023 120.739 268.98 120.739 269.744 122.099L275.324 132.019C276.074 133.353 275.111 134.999 273.582 134.999H262.421C260.891 134.999 259.928 133.353 260.678 132.019L266.258 122.099ZM269.001 132C269.001 132.265 268.895 132.52 268.708 132.707C268.52 132.895 268.266 133 268.001 133C267.736 133 267.481 132.895 267.294 132.707C267.106 132.52 267.001 132.265 267.001 132C267.001 131.735 267.106 131.481 267.294 131.293C267.481 131.105 267.736 131 268.001 131C268.266 131 268.52 131.105 268.708 131.293C268.895 131.481 269.001 131.735 269.001 132V132ZM268.001 124C267.736 124 267.481 124.105 267.294 124.293C267.106 124.481 267.001 124.735 267.001 125V128C267.001 128.265 267.106 128.52 267.294 128.707C267.481 128.895 267.736 129 268.001 129C268.266 129 268.52 128.895 268.708 128.707C268.895 128.52 269.001 128.265 269.001 128V125C269.001 124.735 268.895 124.481 268.708 124.293C268.52 124.105 268.266 124 268.001 124Z" fill="#E02424"/>
<rect x="229" y="158" width="78" height="7" rx="3.5" fill="#9CA3AF"/>
<rect x="165" y="176" width="206" height="5" rx="2.5" fill="#D1D5DB"/>
<rect x="152.5" y="187" width="231" height="5" rx="2.5" fill="#D1D5DB"/>
<rect x="192.5" y="198" width="151" height="5" rx="2.5" fill="#D1D5DB"/>
<rect x="198" y="217" width="66" height="17" rx="2" fill="#E02424"/>
<rect x="210" y="224" width="42" height="3" rx="1" fill="white"/>
<rect x="271.5" y="216.5" width="67" height="18" rx="2.5" fill="white"/>
<rect x="284" y="224" width="42" height="3" rx="1" fill="#9CA3AF"/>
<rect x="271.5" y="216.5" width="67" height="18" rx="2.5" stroke="#E5E7EB"/>
<rect x="125.5" y="98.5" width="285" height="148" rx="8.5" stroke="#D1D5DB"/>
</g>
<defs>
<filter id="filter0_dd_3486_6375" x="119" y="96" width="298" height="161" filterUnits="userSpaceOnUse" color-interpolation-filters="sRGB">
<feFlood flood-opacity="0" result="BackgroundImageFix"/>
<feColorMatrix in="SourceAlpha" type="matrix" values="0 0 0 0 0 0 0 0 0 0 0 0 0 0 0 0 0 0 127 0" result="hardAlpha"/>
<feOffset dy="4"/>
<feGaussianBlur stdDeviation="3"/>
<feColorMatrix type="matrix" values="0 0 0 0 0 0 0 0 0 0 0 0 0 0 0 0 0 0 0.1 0"/>
<feBlend mode="normal" in2="BackgroundImageFix" result="effect1_dropShadow_3486_6375"/>
<feColorMatrix in="SourceAlpha" type="matrix" values="0 0 0 0 0 0 0 0 0 0 0 0 0 0 0 0 0 0 127 0" result="hardAlpha"/>
<feOffset dy="2"/>
<feGaussianBlur stdDeviation="2"/>
<feColorMatrix type="matrix" values="0 0 0 0 0 0 0 0 0 0 0 0 0 0 0 0 0 0 0.06 0"/>
<feBlend mode="normal" in2="effect1_dropShadow_3486_6375" result="effect2_dropShadow_3486_6375"/>
<feBlend mode="normal" in="SourceGraphic" in2="effect2_dropShadow_3486_6375" result="shape"/>
</filter>
</defs>
</svg>
