<svg width="536" height="345" viewBox="0 0 536 345" fill="none" xmlns="http://www.w3.org/2000/svg">
<g filter="url(#filter0_dd_3462_5461)">
<rect x="126" y="24" width="284" height="297" rx="8" fill="white"/>
<rect x="138" y="38" width="76" height="6" rx="3" fill="#9CA3AF"/>
<mask id="path-4-inside-1_3462_5461" fill="white">
<path fill-rule="evenodd" clip-rule="evenodd" d="M390.146 38.1463C390.24 38.0526 390.367 37.9999 390.5 37.9999C390.632 37.9999 390.76 38.0526 390.853 38.1463L393 40.2928L395.146 38.1463C395.193 38.0985 395.248 38.0605 395.309 38.0342C395.37 38.008 395.435 37.9942 395.502 37.9937C395.568 37.9931 395.634 38.0057 395.695 38.0309C395.757 38.056 395.813 38.0932 395.86 38.1401C395.907 38.187 395.944 38.2429 395.969 38.3043C395.994 38.3658 396.007 38.4316 396.006 38.498C396.005 38.5644 395.992 38.63 395.965 38.691C395.939 38.752 395.901 38.8072 395.853 38.8533L393.707 40.9998L395.853 43.1463C395.944 43.2406 395.995 43.3669 395.994 43.498C395.993 43.6291 395.94 43.7545 395.847 43.8472C395.755 43.9399 395.629 43.9925 395.498 43.9936C395.367 43.9948 395.241 43.9444 395.146 43.8533L393 41.7068L390.853 43.8533C390.759 43.9444 390.633 43.9948 390.502 43.9936C390.371 43.9925 390.245 43.9399 390.152 43.8472C390.06 43.7545 390.007 43.6291 390.006 43.498C390.005 43.3669 390.055 43.2406 390.146 43.1463L392.293 40.9998L390.146 38.8533C390.053 38.7595 390 38.6324 390 38.4998C390 38.3672 390.053 38.2401 390.146 38.1463V38.1463Z"/>
</mask>
<path d="M390.853 38.1463L391.56 37.4392L391.56 37.4391L390.853 38.1463ZM393 40.2928L392.293 40.9999L393 41.707L393.707 40.9999L393 40.2928ZM395.146 38.1463L395.853 38.8534L395.86 38.8473L395.866 38.841L395.146 38.1463ZM395.853 38.8533L395.159 38.134L395.152 38.14L395.146 38.1462L395.853 38.8533ZM393.707 40.9998L393 40.2927L392.293 40.9998L393 41.7069L393.707 40.9998ZM395.853 43.1463L396.573 42.4516L396.567 42.4453L396.56 42.4392L395.853 43.1463ZM395.146 43.8533L394.439 44.5604L394.445 44.5665L394.452 44.5726L395.146 43.8533ZM393 41.7068L393.707 40.9997L393 40.2926L392.293 40.9997L393 41.7068ZM390.853 43.8533L391.548 44.5726L391.554 44.5665L391.56 44.5604L390.853 43.8533ZM390.146 43.1463L389.439 42.4392L389.433 42.4453L389.427 42.4516L390.146 43.1463ZM392.293 40.9998L393 41.7069L393.707 40.9998L393 40.2927L392.293 40.9998ZM390.146 38.8533L389.439 39.5603L389.439 39.5604L390.146 38.8533ZM390.853 38.8535C390.76 38.9472 390.632 38.9999 390.5 38.9999V36.9999C390.102 36.9999 389.721 37.1579 389.439 37.4391L390.853 38.8535ZM390.5 38.9999C390.367 38.9999 390.24 38.9472 390.146 38.8535L391.56 37.4391C391.279 37.1579 390.898 36.9999 390.5 36.9999V38.9999ZM390.146 38.8534L392.293 40.9999L393.707 39.5857L391.56 37.4392L390.146 38.8534ZM393.707 40.9999L395.853 38.8534L394.439 37.4392L392.293 39.5857L393.707 40.9999ZM395.866 38.841C395.82 38.8888 395.764 38.9269 395.703 38.9531L394.914 37.1154C394.731 37.194 394.565 37.3083 394.427 37.4516L395.866 38.841ZM395.703 38.9531C395.642 38.9793 395.577 38.9931 395.51 38.9936L395.493 36.9937C395.294 36.9954 395.097 37.0368 394.914 37.1154L395.703 38.9531ZM395.51 38.9936C395.444 38.9942 395.378 38.9816 395.317 38.9564L396.074 37.1054C395.89 37.0299 395.692 36.992 395.493 36.9937L395.51 38.9936ZM395.317 38.9564C395.255 38.9313 395.199 38.8942 395.152 38.8472L396.567 37.433C396.426 37.2922 396.258 37.1808 396.074 37.1054L395.317 38.9564ZM395.152 38.8472C395.106 38.8003 395.068 38.7444 395.043 38.683L396.894 37.9257C396.819 37.7413 396.708 37.5738 396.567 37.433L395.152 38.8472ZM395.043 38.683C395.018 38.6215 395.005 38.5557 395.006 38.4893L397.006 38.5067C397.008 38.3075 396.97 38.11 396.894 37.9257L395.043 38.683ZM395.006 38.4893C395.007 38.4229 395.02 38.3573 395.047 38.2963L396.884 39.0857C396.963 38.9027 397.004 38.7059 397.006 38.5067L395.006 38.4893ZM395.047 38.2963C395.073 38.2353 395.111 38.1801 395.159 38.134L396.548 39.5726C396.691 39.4342 396.806 39.2687 396.884 39.0857L395.047 38.2963ZM395.146 38.1462L393 40.2927L394.414 41.7069L396.56 39.5604L395.146 38.1462ZM393 41.7069L395.146 43.8534L396.56 42.4392L394.414 40.2927L393 41.7069ZM395.134 43.841C395.043 43.7467 394.993 43.6204 394.994 43.4893L396.994 43.5067C396.997 43.1134 396.846 42.7345 396.573 42.4516L395.134 43.841ZM394.994 43.4893C394.995 43.3582 395.047 43.2328 395.14 43.1401L396.554 44.5543C396.833 44.2762 396.99 43.9 396.994 43.5067L394.994 43.4893ZM395.14 43.1401C395.233 43.0474 395.358 42.9948 395.489 42.9937L395.507 44.9936C395.9 44.9902 396.276 44.8324 396.554 44.5543L395.14 43.1401ZM395.489 42.9937C395.621 42.9925 395.747 43.0429 395.841 43.134L394.452 44.5726C394.735 44.8458 395.113 44.997 395.507 44.9936L395.489 42.9937ZM395.853 43.1462L393.707 40.9997L392.293 42.4139L394.439 44.5604L395.853 43.1462ZM392.293 40.9997L390.146 43.1462L391.56 44.5604L393.707 42.4139L392.293 40.9997ZM390.159 43.134C390.253 43.0429 390.379 42.9925 390.51 42.9937L390.493 44.9936C390.886 44.997 391.265 44.8458 391.548 44.5726L390.159 43.134ZM390.51 42.9937C390.641 42.9948 390.767 43.0474 390.86 43.1401L389.445 44.5543C389.723 44.8324 390.1 44.9902 390.493 44.9936L390.51 42.9937ZM390.86 43.1401C390.952 43.2328 391.005 43.3582 391.006 43.4893L389.006 43.5067C389.01 43.9 389.167 44.2762 389.445 44.5543L390.86 43.1401ZM391.006 43.4893C391.007 43.6204 390.957 43.7467 390.866 43.841L389.427 42.4516C389.154 42.7345 389.003 43.1134 389.006 43.5067L391.006 43.4893ZM390.854 43.8534L393 41.7069L391.586 40.2927L389.439 42.4392L390.854 43.8534ZM393 40.2927L390.854 38.1462L389.439 39.5604L391.586 41.7069L393 40.2927ZM390.854 38.1463C390.947 38.2401 391 38.3672 391 38.4998H389C389 38.8975 389.158 39.279 389.439 39.5603L390.854 38.1463ZM391 38.4998C391 38.6324 390.947 38.7595 390.854 38.8533L389.439 37.4393C389.158 37.7206 389 38.102 389 38.4998H391Z" fill="#9CA3AF" mask="url(#path-4-inside-1_3462_5461)"/>
<line x1="126" y1="57.5" x2="410" y2="57.5" stroke="#E4E4E7"/>
<rect x="126" y="58" width="284" height="222" rx="8" fill="white"/>
<rect x="139" y="73" width="51" height="3" rx="1.5" fill="#9CA3AF"/>
<rect x="138.5" y="83.5" width="125" height="17" rx="4.5" fill="#F9FAFB"/>
<rect x="146" y="91" width="56" height="2" rx="1" fill="#D1D5DB"/>
<rect x="138.5" y="83.5" width="125" height="17" rx="4.5" stroke="#E5E7EB"/>
<rect x="273" y="73" width="51" height="3" rx="1.5" fill="#9CA3AF"/>
<rect x="272.5" y="83.5" width="125" height="17" rx="4.5" fill="#F9FAFB"/>
<rect x="280" y="91" width="56" height="2" rx="1" fill="#D1D5DB"/>
<rect x="272.5" y="83.5" width="125" height="17" rx="4.5" stroke="#E5E7EB"/>
<rect x="139" y="116" width="51" height="3" rx="1.5" fill="#9CA3AF"/>
<rect x="138.5" y="126.5" width="125" height="17" rx="4.5" fill="#F9FAFB"/>
<rect x="146" y="134" width="56" height="2" rx="1" fill="#D1D5DB"/>
<rect x="138.5" y="126.5" width="125" height="17" rx="4.5" stroke="#E5E7EB"/>
<rect x="273" y="116" width="51" height="3" rx="1.5" fill="#9CA3AF"/>
<rect x="272.5" y="126.5" width="125" height="17" rx="4.5" fill="#F9FAFB"/>
<rect x="280" y="134" width="56" height="2" rx="1" fill="#D1D5DB"/>
<rect x="272.5" y="126.5" width="125" height="17" rx="4.5" stroke="#E5E7EB"/>
<rect x="139" y="159" width="51" height="3" rx="1.5" fill="#9CA3AF"/>
<rect x="138.5" y="169.5" width="80.3333" height="17" rx="4.5" fill="#F9FAFB"/>
<rect x="146" y="177" width="56" height="2" rx="1" fill="#D1D5DB"/>
<rect x="138.5" y="169.5" width="80.3333" height="17" rx="4.5" stroke="#E5E7EB"/>
<rect x="227.834" y="169.5" width="80.3333" height="17" rx="4.5" fill="#F9FAFB"/>
<rect x="235.334" y="177" width="56" height="2" rx="1" fill="#D1D5DB"/>
<rect x="227.834" y="169.5" width="80.3333" height="17" rx="4.5" stroke="#E5E7EB"/>
<rect x="317.166" y="169.5" width="80.3333" height="17" rx="4.5" fill="#F9FAFB"/>
<rect x="324.666" y="177" width="56" height="2" rx="1" fill="#D1D5DB"/>
<rect x="317.166" y="169.5" width="80.3333" height="17" rx="4.5" stroke="#E5E7EB"/>
<rect x="138.5" y="201.5" width="259" height="64" rx="4.5" fill="#F9FAFB"/>
<rect x="243" y="225.5" width="50" height="3" rx="1" fill="#9CA3AF"/>
<rect x="240" y="234" width="56" height="2" rx="1" fill="#D1D5DB"/>
<rect x="232" y="239" width="72" height="2" rx="1" fill="#D1D5DB"/>
<rect x="138.5" y="201.5" width="259" height="64" rx="4.5" stroke="#E5E7EB" stroke-dasharray="2 2"/>
<line x1="126" y1="279.5" x2="410" y2="279.5" stroke="#E4E4E7"/>
<rect x="139" y="292" width="66" height="17" rx="2" fill="#DB6B1A"/>
<rect x="151" y="299" width="42" height="3" rx="1" fill="white"/>
<rect x="213.5" y="292.5" width="65" height="16" rx="1.5" fill="#F9FAFB"/>
<rect x="225" y="299" width="42" height="3" rx="1" fill="#9CA3AF"/>
<rect x="213.5" y="292.5" width="65" height="16" rx="1.5" stroke="#E5E7EB"/>
<rect x="125.5" y="23.5" width="285" height="298" rx="8.5" stroke="#D1D5DB"/>
</g>
<defs>
<filter id="filter0_dd_3462_5461" x="119" y="21" width="298" height="311" filterUnits="userSpaceOnUse" color-interpolation-filters="sRGB">
<feFlood flood-opacity="0" result="BackgroundImageFix"/>
<feColorMatrix in="SourceAlpha" type="matrix" values="0 0 0 0 0 0 0 0 0 0 0 0 0 0 0 0 0 0 127 0" result="hardAlpha"/>
<feOffset dy="4"/>
<feGaussianBlur stdDeviation="3"/>
<feColorMatrix type="matrix" values="0 0 0 0 0 0 0 0 0 0 0 0 0 0 0 0 0 0 0.1 0"/>
<feBlend mode="normal" in2="BackgroundImageFix" result="effect1_dropShadow_3462_5461"/>
<feColorMatrix in="SourceAlpha" type="matrix" values="0 0 0 0 0 0 0 0 0 0 0 0 0 0 0 0 0 0 127 0" result="hardAlpha"/>
<feOffset dy="2"/>
<feGaussianBlur stdDeviation="2"/>
<feColorMatrix type="matrix" values="0 0 0 0 0 0 0 0 0 0 0 0 0 0 0 0 0 0 0.06 0"/>
<feBlend mode="normal" in2="effect1_dropShadow_3462_5461" result="effect2_dropShadow_3462_5461"/>
<feBlend mode="normal" in="SourceGraphic" in2="effect2_dropShadow_3462_5461" result="shape"/>
</filter>
</defs>
</svg>
