<svg width="536" height="345" viewBox="0 0 536 345" fill="none" xmlns="http://www.w3.org/2000/svg">
<rect x="121" y="21" width="76" height="6" rx="3" fill="#D1D5DB"/>
<g clip-path="url(#clip0_3473_5581)">
<rect x="122" y="41" width="51" height="3" rx="1.5" fill="#9CA3AF"/>
<rect x="121.5" y="51.5" width="142" height="17" rx="4.5" fill="#4B5563"/>
<rect x="129" y="59" width="56" height="2" rx="1" fill="#9CA3AF"/>
<rect x="121.5" y="51.5" width="142" height="17" rx="4.5" stroke="#6B7280"/>
<rect x="273" y="41" width="51" height="3" rx="1.5" fill="#9CA3AF"/>
<rect x="272.5" y="51.5" width="142" height="17" rx="4.5" fill="#4B5563"/>
<rect x="280" y="59" width="56" height="2" rx="1" fill="#9CA3AF"/>
<rect x="272.5" y="51.5" width="142" height="17" rx="4.5" stroke="#6B7280"/>
<rect x="122" y="84" width="51" height="3" rx="1.5" fill="#9CA3AF"/>
<rect x="121.5" y="94.5" width="142" height="17" rx="4.5" fill="#4B5563"/>
<rect x="129" y="102" width="56" height="2" rx="1" fill="#9CA3AF"/>
<rect x="121.5" y="94.5" width="142" height="17" rx="4.5" stroke="#6B7280"/>
<rect x="273" y="84" width="51" height="3" rx="1.5" fill="#9CA3AF"/>
<rect x="272.5" y="94.5" width="142" height="17" rx="4.5" fill="#4B5563"/>
<rect x="280" y="102" width="56" height="2" rx="1" fill="#9CA3AF"/>
<rect x="272.5" y="94.5" width="142" height="17" rx="4.5" stroke="#6B7280"/>
<rect x="122" y="127" width="51" height="3" rx="1.5" fill="#9CA3AF"/>
<rect x="121.5" y="137.5" width="91.6667" height="17" rx="4.5" fill="#4B5563"/>
<rect x="129" y="145" width="56" height="2" rx="1" fill="#9CA3AF"/>
<rect x="121.5" y="137.5" width="91.6667" height="17" rx="4.5" stroke="#6B7280"/>
<rect x="222.668" y="127" width="51" height="3" rx="1.5" fill="#9CA3AF"/>
<rect x="222.168" y="137.5" width="91.6667" height="17" rx="4.5" fill="#4B5563"/>
<rect x="229.668" y="145" width="56" height="2" rx="1" fill="#9CA3AF"/>
<rect x="222.168" y="137.5" width="91.6667" height="17" rx="4.5" stroke="#6B7280"/>
<rect x="323.332" y="127" width="51" height="3" rx="1.5" fill="#9CA3AF"/>
<rect x="322.832" y="137.5" width="91.6667" height="17" rx="4.5" fill="#4B5563"/>
<rect x="330.332" y="145" width="56" height="2" rx="1" fill="#9CA3AF"/>
<rect x="322.832" y="137.5" width="91.6667" height="17" rx="4.5" stroke="#6B7280"/>
<rect x="122" y="170" width="51" height="3" rx="1.5" fill="#9CA3AF"/>
<path d="M122 189C122 184.582 125.582 181 130 181H406C410.418 181 414 184.582 414 189V204H122V189Z" fill="#6B7280"/>
<path fill-rule="evenodd" clip-rule="evenodd" d="M142.398 189.2C141.961 189.2 141.541 189.374 141.232 189.683C140.922 189.993 140.748 190.412 140.748 190.85V193.05C140.748 193.779 141.038 194.479 141.554 194.995C142.07 195.51 142.769 195.8 143.498 195.8C144.228 195.8 144.927 195.51 145.443 194.995C145.959 194.479 146.248 193.779 146.248 193.05V190.85C146.248 190.704 146.306 190.564 146.41 190.461C146.513 190.358 146.653 190.3 146.798 190.3C146.944 190.3 147.084 190.358 147.187 190.461C147.29 190.564 147.348 190.704 147.348 190.85V193.05C147.348 193.556 147.249 194.056 147.055 194.523C146.862 194.991 146.578 195.415 146.221 195.772C145.863 196.13 145.439 196.414 144.972 196.607C144.505 196.801 144.004 196.9 143.498 196.9C142.993 196.9 142.492 196.801 142.025 196.607C141.558 196.414 141.134 196.13 140.776 195.772C140.419 195.415 140.135 194.991 139.942 194.523C139.748 194.056 139.648 193.556 139.648 193.05V190.85C139.648 190.121 139.938 189.421 140.454 188.906C140.97 188.39 141.669 188.1 142.398 188.1C143.128 188.1 143.827 188.39 144.343 188.906C144.859 189.421 145.148 190.121 145.148 190.85V193.05C145.148 193.488 144.975 193.907 144.665 194.217C144.356 194.526 143.936 194.7 143.498 194.7C143.061 194.7 142.641 194.526 142.332 194.217C142.022 193.907 141.848 193.488 141.848 193.05V190.85C141.848 190.704 141.906 190.564 142.01 190.461C142.113 190.358 142.253 190.3 142.398 190.3C142.544 190.3 142.684 190.358 142.787 190.461C142.89 190.564 142.948 190.704 142.948 190.85V193.05C142.948 193.196 143.006 193.336 143.11 193.439C143.213 193.542 143.353 193.6 143.498 193.6C143.644 193.6 143.784 193.542 143.887 193.439C143.99 193.336 144.048 193.196 144.048 193.05V190.85C144.048 190.412 143.875 189.993 143.565 189.683C143.256 189.374 142.836 189.2 142.398 189.2V189.2Z" fill="#D1D5DB"/>
<path fill-rule="evenodd" clip-rule="evenodd" d="M166.776 189.227C167.498 188.505 168.478 188.1 169.499 188.1C170.52 188.1 171.499 188.505 172.221 189.227C172.943 189.949 173.349 190.929 173.349 191.95C173.349 192.971 172.943 193.95 172.221 194.672L169.499 197.395L166.776 194.672C166.419 194.315 166.135 193.89 165.942 193.423C165.748 192.956 165.648 192.455 165.648 191.95C165.648 191.444 165.748 190.944 165.942 190.476C166.135 190.009 166.419 189.585 166.776 189.227V189.227ZM169.499 193.05C169.79 193.05 170.07 192.934 170.277 192.728C170.483 192.521 170.599 192.242 170.599 191.95C170.599 191.658 170.483 191.378 170.277 191.172C170.07 190.966 169.79 190.85 169.499 190.85C169.207 190.85 168.927 190.966 168.721 191.172C168.515 191.378 168.399 191.658 168.399 191.95C168.399 192.242 168.515 192.521 168.721 192.728C168.927 192.934 169.207 193.05 169.499 193.05Z" fill="#D1D5DB"/>
<path fill-rule="evenodd" clip-rule="evenodd" d="M192.202 188.65C191.91 188.65 191.63 188.766 191.424 188.972C191.217 189.178 191.102 189.458 191.102 189.75V195.25C191.102 195.542 191.217 195.821 191.424 196.028C191.63 196.234 191.91 196.35 192.202 196.35H198.802C199.093 196.35 199.373 196.234 199.579 196.028C199.786 195.821 199.902 195.542 199.902 195.25V189.75C199.902 189.458 199.786 189.178 199.579 188.972C199.373 188.766 199.093 188.65 198.802 188.65H192.202ZM198.802 195.25H192.202L194.402 190.85L196.052 194.15L197.152 191.95L198.802 195.25Z" fill="#D1D5DB"/>
<path d="M218.786 190.885C218.795 190.876 218.801 190.863 218.801 190.85C218.801 190.837 218.795 190.824 218.786 190.815C218.777 190.805 218.764 190.8 218.751 190.8C218.737 190.8 218.725 190.805 218.715 190.815L218.715 190.815M218.786 190.885L216.712 192.889C216.609 192.786 216.551 192.646 216.551 192.5C216.551 192.354 216.609 192.214 216.712 192.111L218.362 190.461L218.715 190.815M218.786 190.885L218.786 190.885L217.525 192.147L217.171 192.5L217.525 192.854L218.786 194.115L218.786 194.115L218.792 194.121C218.797 194.125 218.801 194.131 218.803 194.137C218.806 194.143 218.807 194.15 218.807 194.156C218.807 194.163 218.806 194.17 218.804 194.176C218.801 194.182 218.797 194.187 218.793 194.192C218.788 194.197 218.783 194.201 218.776 194.203C218.77 194.206 218.764 194.207 218.757 194.207C218.75 194.207 218.744 194.205 218.738 194.203C218.732 194.2 218.726 194.196 218.721 194.192L218.722 194.192L218.715 194.185L217.065 192.535C217.065 192.535 217.065 192.535 217.065 192.535C217.056 192.526 217.051 192.513 217.051 192.5C217.051 192.487 217.056 192.474 217.065 192.465L218.786 190.885ZM218.715 190.815L217.065 192.465L218.715 190.815ZM224.215 190.885L225.477 192.147L225.83 192.5L225.477 192.854L224.215 194.115L224.209 194.121L224.209 194.121C224.204 194.125 224.201 194.131 224.198 194.137C224.195 194.143 224.194 194.15 224.194 194.156C224.194 194.163 224.195 194.17 224.198 194.176C224.2 194.182 224.204 194.187 224.209 194.192C224.213 194.197 224.219 194.201 224.225 194.203C224.231 194.206 224.238 194.207 224.244 194.207C224.251 194.207 224.258 194.205 224.264 194.203C224.27 194.2 224.275 194.196 224.28 194.192L224.286 194.185L224.286 194.185L225.936 192.535L224.215 190.885ZM224.215 190.885C224.215 190.885 224.215 190.885 224.215 190.885M224.215 190.885L224.215 190.885M224.215 190.885C224.206 190.876 224.201 190.863 224.201 190.85C224.201 190.837 224.206 190.824 224.215 190.815L223.862 190.461C223.965 190.358 224.105 190.3 224.251 190.3C224.397 190.3 224.536 190.358 224.64 190.461L224.215 190.885ZM225.936 192.465C225.936 192.465 225.936 192.465 225.936 192.465L225.936 192.465ZM220.448 195.816L220.448 195.816C220.444 195.829 220.435 195.839 220.423 195.845C220.411 195.851 220.397 195.852 220.385 195.848C220.372 195.843 220.362 195.834 220.356 195.822C220.35 195.811 220.349 195.797 220.353 195.784L222.553 189.184L222.553 189.184C222.555 189.178 222.558 189.172 222.563 189.167C222.567 189.162 222.572 189.158 222.578 189.155C222.584 189.152 222.59 189.15 222.597 189.15C222.604 189.15 222.61 189.15 222.616 189.152L222.617 189.153C222.623 189.155 222.629 189.158 222.634 189.162C222.639 189.166 222.643 189.172 222.646 189.178C222.648 189.183 222.65 189.19 222.651 189.196C222.651 189.203 222.65 189.21 222.648 189.216C222.648 189.216 222.648 189.216 222.648 189.216L220.448 195.816Z" fill="#D1D5DB" stroke="#D1D5DB"/>
<path fill-rule="evenodd" clip-rule="evenodd" d="M247.502 196.9C248.669 196.9 249.788 196.437 250.613 195.611C251.438 194.786 251.902 193.667 251.902 192.5C251.902 191.333 251.438 190.214 250.613 189.389C249.788 188.564 248.669 188.1 247.502 188.1C246.335 188.1 245.215 188.564 244.39 189.389C243.565 190.214 243.102 191.333 243.102 192.5C243.102 193.667 243.565 194.786 244.39 195.611C245.215 196.437 246.335 196.9 247.502 196.9V196.9ZM245.852 191.95C245.997 191.95 246.137 191.892 246.24 191.789C246.344 191.686 246.402 191.546 246.402 191.4C246.402 191.254 246.344 191.114 246.24 191.011C246.137 190.908 245.997 190.85 245.852 190.85C245.706 190.85 245.566 190.908 245.463 191.011C245.36 191.114 245.302 191.254 245.302 191.4C245.302 191.546 245.36 191.686 245.463 191.789C245.566 191.892 245.706 191.95 245.852 191.95ZM249.702 191.4C249.702 191.546 249.644 191.686 249.54 191.789C249.437 191.892 249.297 191.95 249.152 191.95C249.006 191.95 248.866 191.892 248.763 191.789C248.66 191.686 248.602 191.546 248.602 191.4C248.602 191.254 248.66 191.114 248.763 191.011C248.866 190.908 249.006 190.85 249.152 190.85C249.297 190.85 249.437 190.908 249.54 191.011C249.644 191.114 249.702 191.254 249.702 191.4ZM249.446 194.444C249.497 194.393 249.538 194.333 249.566 194.266C249.593 194.199 249.607 194.128 249.607 194.055C249.607 193.983 249.593 193.912 249.565 193.845C249.538 193.778 249.497 193.717 249.446 193.666C249.395 193.615 249.334 193.575 249.268 193.547C249.201 193.52 249.129 193.505 249.057 193.505C248.985 193.505 248.913 193.52 248.847 193.547C248.78 193.575 248.719 193.616 248.668 193.667C248.359 193.976 247.939 194.15 247.502 194.15C247.064 194.15 246.644 193.976 246.335 193.667C246.232 193.563 246.092 193.505 245.946 193.505C245.8 193.505 245.66 193.563 245.557 193.666C245.454 193.77 245.396 193.909 245.396 194.055C245.396 194.201 245.454 194.341 245.557 194.444C245.812 194.7 246.115 194.902 246.449 195.041C246.783 195.179 247.14 195.25 247.502 195.25C247.863 195.25 248.22 195.179 248.554 195.041C248.888 194.902 249.191 194.7 249.446 194.444V194.444Z" fill="#D1D5DB"/>
<line x1="267.5" y1="187" x2="267.5" y2="198" stroke="#9CA3AF"/>
<path d="M282.832 189.75H290.165H282.832ZM282.832 191.583H290.165H282.832ZM282.832 193.417H290.165H282.832ZM282.832 195.25H290.165Z" fill="#D1D5DB"/>
<path d="M282.832 195.25H290.165M282.832 189.75H290.165H282.832ZM282.832 191.583H290.165H282.832ZM282.832 193.417H290.165H282.832Z" stroke="#D1D5DB" stroke-linecap="round" stroke-linejoin="round"/>
<path fill-rule="evenodd" clip-rule="evenodd" d="M313.321 188.744C313.112 187.886 311.891 187.886 311.682 188.744C311.651 188.873 311.59 188.992 311.503 189.093C311.417 189.194 311.308 189.273 311.186 189.324C311.063 189.375 310.93 189.396 310.798 189.385C310.666 189.375 310.538 189.334 310.425 189.265C309.67 188.805 308.807 189.669 309.266 190.423C309.563 190.911 309.3 191.546 308.745 191.681C307.887 191.89 307.887 193.111 308.745 193.319C308.874 193.35 308.994 193.412 309.095 193.498C309.196 193.584 309.275 193.693 309.326 193.816C309.376 193.938 309.397 194.071 309.387 194.203C309.377 194.336 309.335 194.464 309.266 194.577C308.807 195.331 309.67 196.195 310.425 195.735C310.538 195.666 310.666 195.625 310.798 195.614C310.93 195.604 311.063 195.625 311.186 195.676C311.309 195.727 311.417 195.806 311.504 195.907C311.59 196.007 311.651 196.127 311.682 196.256C311.891 197.115 313.112 197.115 313.32 196.256C313.352 196.127 313.413 196.007 313.499 195.907C313.586 195.806 313.695 195.727 313.817 195.676C313.94 195.626 314.072 195.604 314.205 195.615C314.337 195.625 314.465 195.666 314.578 195.735C315.333 196.195 316.196 195.331 315.737 194.577C315.668 194.464 315.626 194.336 315.616 194.203C315.606 194.071 315.627 193.938 315.678 193.816C315.728 193.693 315.807 193.584 315.908 193.498C316.009 193.412 316.128 193.35 316.257 193.319C317.116 193.111 317.116 191.889 316.257 191.681C316.128 191.65 316.009 191.589 315.908 191.502C315.807 191.416 315.728 191.307 315.677 191.185C315.627 191.062 315.605 190.929 315.616 190.797C315.626 190.665 315.667 190.537 315.737 190.423C316.196 189.669 315.333 188.805 314.578 189.265C314.465 189.334 314.337 189.376 314.205 189.386C314.072 189.396 313.94 189.375 313.817 189.324C313.694 189.273 313.585 189.194 313.499 189.094C313.413 188.993 313.352 188.873 313.32 188.744L313.321 188.744ZM312.501 194.15C312.939 194.15 313.359 193.976 313.668 193.667C313.978 193.357 314.151 192.938 314.151 192.5C314.151 192.062 313.978 191.643 313.668 191.333C313.359 191.024 312.939 190.85 312.501 190.85C312.064 190.85 311.644 191.024 311.335 191.333C311.025 191.643 310.851 192.062 310.851 192.5C310.851 192.938 311.025 193.357 311.335 193.667C311.644 193.976 312.064 194.15 312.501 194.15V194.15Z" fill="#D1D5DB"/>
<line x1="122" y1="203.5" x2="470" y2="203.5" stroke="#6B7280"/>
<path d="M122 204H414V262C414 266.418 410.418 270 406 270H130C125.582 270 122 266.418 122 262V204Z" fill="#4B5563"/>
<rect x="142" y="220" width="207" height="2" rx="1" fill="#9CA3AF"/>
<rect x="142" y="228" width="244" height="2" rx="1" fill="#9CA3AF"/>
<rect x="142" y="236" width="219" height="2" rx="1" fill="#9CA3AF"/>
<rect x="142" y="244" width="253" height="2" rx="1" fill="#9CA3AF"/>
<rect x="142" y="252" width="155" height="2" rx="1" fill="#9CA3AF"/>
<rect x="121.5" y="180.5" width="293" height="90" rx="8.5" stroke="#6B7280"/>
<rect x="123.5" y="285.5" width="6" height="6" rx="1.5" fill="#4B5563"/>
<rect x="123.5" y="285.5" width="6" height="6" rx="1.5" stroke="#6B7280"/>
<rect x="134" y="286.5" width="32" height="4" rx="2" fill="#6B7280"/>
<rect x="176.5" y="285.5" width="6" height="6" rx="1.5" fill="#4B5563"/>
<rect x="176.5" y="285.5" width="6" height="6" rx="1.5" stroke="#6B7280"/>
<rect x="187" y="286.5" width="35" height="4" rx="2" fill="#6B7280"/>
<rect x="231.5" y="285.5" width="6" height="6" rx="1.5" fill="#4B5563"/>
<rect x="231.5" y="285.5" width="6" height="6" rx="1.5" stroke="#6B7280"/>
<rect x="242" y="286.5" width="46" height="4" rx="2" fill="#6B7280"/>
<rect x="122" y="307" width="55" height="17" rx="2" fill="#1A56DB"/>
<rect x="134" y="314" width="31" height="3" rx="1" fill="white"/>
<rect x="197" y="314" width="18" height="3" rx="1" fill="#F05252"/>
<rect x="185.5" y="307.5" width="41" height="16" rx="1.5" stroke="#F05252"/>
</g>
<defs>
<clipPath id="clip0_3473_5581">
<rect width="294" height="283" fill="white" transform="translate(121 41)"/>
</clipPath>
</defs>
</svg>
