<svg width="536" height="345" viewBox="0 0 536 345" fill="none" xmlns="http://www.w3.org/2000/svg">
<rect x="43.75" y="73.4551" width="448.5" height="47" rx="4" fill="#374151"/>
<rect x="58.75" y="94.4551" width="83" height="5" rx="2.5" fill="#6B7280"/>
<rect x="263.25" y="94.9551" width="35" height="4" rx="2" fill="#9CA3AF"/>
<rect x="308.25" y="94.9551" width="45" height="4" rx="2" fill="#9CA3AF"/>
<path d="M375.5 89.4551V89.2051H375.25H367.25C364.903 89.2051 363 91.1079 363 93.4551V100.455C363 102.802 364.903 104.705 367.25 104.705H375.25H375.5V104.455V89.4551Z" fill="#374151"/>
<path fill-rule="evenodd" clip-rule="evenodd" d="M370.873 94.6308C370.986 94.7433 371.049 94.8959 371.049 95.0549C371.049 95.214 370.986 95.3666 370.873 95.4791L368.897 97.4549L370.873 99.4307C370.983 99.5439 371.043 99.6955 371.042 99.8528C371.04 100.01 370.977 100.161 370.866 100.272C370.755 100.383 370.604 100.446 370.447 100.448C370.29 100.449 370.138 100.388 370.025 100.279L367.625 97.8791C367.512 97.7666 367.449 97.614 367.449 97.4549C367.449 97.2959 367.512 97.1433 367.625 97.0307L370.025 94.6308C370.137 94.5183 370.29 94.4551 370.449 94.4551C370.608 94.4551 370.761 94.5183 370.873 94.6308V94.6308Z" fill="#9CA3AF"/>
<path d="M375.5 89.4551V89.2051H375.25H367.25C364.903 89.2051 363 91.1079 363 93.4551V100.455C363 102.802 364.903 104.705 367.25 104.705H375.25H375.5V104.455V89.4551Z" stroke="#6B7280" stroke-width="0.5"/>
<rect x="375" y="89.2051" width="15.5" height="15.5" fill="#374151"/>
<rect x="380.25" y="94.4551" width="5" height="5" rx="2.5" fill="#6B7280"/>
<rect x="375" y="89.2051" width="15.5" height="15.5" stroke="#6B7280" stroke-width="0.5"/>
<rect x="390" y="89.2051" width="15.5" height="15.5" fill="#374151"/>
<rect x="395.25" y="94.4551" width="5" height="5" rx="2.5" fill="#6B7280"/>
<rect x="390" y="89.2051" width="15.5" height="15.5" stroke="#6B7280" stroke-width="0.5"/>
<rect x="405" y="89.2051" width="15.5" height="15.5" fill="#374151"/>
<rect x="410.25" y="94.4551" width="5" height="5" rx="2.5" fill="#6B7280"/>
<rect x="405" y="89.2051" width="15.5" height="15.5" stroke="#6B7280" stroke-width="0.5"/>
<rect x="420" y="89.2051" width="15.5" height="15.5" fill="#374151"/>
<rect x="425.25" y="94.4551" width="5" height="5" rx="2.5" fill="#6B7280"/>
<rect x="420" y="89.2051" width="15.5" height="15.5" stroke="#6B7280" stroke-width="0.5"/>
<rect x="435" y="89.2051" width="15.5" height="15.5" fill="#374151"/>
<rect x="440.25" y="94.4551" width="5" height="5" rx="2.5" fill="#6B7280"/>
<rect x="435" y="89.2051" width="15.5" height="15.5" stroke="#6B7280" stroke-width="0.5"/>
<rect x="450" y="89.2051" width="15.5" height="15.5" fill="#374151"/>
<rect x="455.25" y="94.4551" width="5" height="5" rx="2.5" fill="#6B7280"/>
<rect x="450" y="89.2051" width="15.5" height="15.5" stroke="#6B7280" stroke-width="0.5"/>
<path d="M465.25 89.2051H465V89.4551V104.455V104.705H465.25H473.25C475.597 104.705 477.5 102.802 477.5 100.455V93.4551C477.5 91.1079 475.597 89.2051 473.25 89.2051H465.25Z" fill="#374151"/>
<path fill-rule="evenodd" clip-rule="evenodd" d="M469.625 100.279C469.512 100.167 469.449 100.014 469.449 99.855C469.449 99.6959 469.512 99.5433 469.625 99.4308L471.601 97.455L469.625 95.4792C469.516 95.3661 469.455 95.2145 469.456 95.0572C469.458 94.8999 469.521 94.7494 469.632 94.6381C469.743 94.5269 469.894 94.4638 470.051 94.4624C470.209 94.4611 470.36 94.5215 470.473 94.6308L472.873 97.0308C472.986 97.1433 473.049 97.2959 473.049 97.455C473.049 97.6141 472.986 97.7667 472.873 97.8792L470.473 100.279C470.361 100.392 470.208 100.455 470.049 100.455C469.89 100.455 469.737 100.392 469.625 100.279Z" fill="#9CA3AF"/>
<path d="M465.25 89.2051H465V89.4551V104.455V104.705H465.25H473.25C475.597 104.705 477.5 102.802 477.5 100.455V93.4551C477.5 91.1079 475.597 89.2051 473.25 89.2051H465.25Z" stroke="#6B7280" stroke-width="0.5"/>
<rect x="43.75" y="152.455" width="448.5" height="43.09" rx="4" fill="#374151"/>
<rect x="58.75" y="172" width="70" height="4" rx="2" fill="#6B7280"/>
<rect x="136.75" y="172" width="35" height="4" rx="2" fill="#9CA3AF"/>
<rect x="179.75" y="172" width="25" height="4" rx="2" fill="#9CA3AF"/>
<rect x="212.75" y="172" width="31" height="4" rx="2" fill="#9CA3AF"/>
<g clip-path="url(#clip0_3373_5395)">
<rect x="396.5" y="168.705" width="36" height="10.59" rx="1.75" fill="#374151"/>
<rect x="406.25" y="172.455" width="16.5" height="3.09" rx="1.545" fill="#9CA3AF"/>
<rect x="396.5" y="168.705" width="36" height="10.59" rx="1.75" stroke="#4B5563" stroke-width="0.5"/>
<rect x="440.75" y="168.455" width="36.5" height="11.09" rx="2" fill="#1A56DB"/>
<rect x="450.75" y="172.455" width="16.5" height="3.09" rx="1.545" fill="white"/>
</g>
<rect x="43.75" y="227.545" width="448.5" height="44" rx="4" fill="#374151"/>
<rect x="58.75" y="244.09" width="127" height="4" rx="2" fill="#4B5563"/>
<rect x="58.75" y="244.09" width="60" height="4" rx="2" fill="#1C64F2"/>
<rect x="59" y="252" width="64" height="3" rx="1.5" fill="#9CA3AF"/>
<rect x="233" y="247.545" width="70" height="4" rx="2" fill="#6B7280"/>
<rect x="379.25" y="243.545" width="98" height="4" rx="2" fill="#9CA3AF"/>
<rect x="442.25" y="251.545" width="35" height="4" rx="2" fill="#6B7280"/>
<defs>
<clipPath id="clip0_3373_5395">
<rect width="81" height="11.09" fill="white" transform="translate(396.25 168.455)"/>
</clipPath>
</defs>
</svg>
