<svg width="536" height="345" viewBox="0 0 536 345" fill="none" xmlns="http://www.w3.org/2000/svg">
<g filter="url(#filter0_dd_3588_15804)">
<rect x="180" y="14" width="176" height="317" rx="1" fill="white"/>
<rect x="192" y="28" width="55" height="6" rx="3" fill="#9CA3AF"/>
<mask id="path-4-inside-1_3588_15804" fill="white">
<path fill-rule="evenodd" clip-rule="evenodd" d="M336.146 28.1463C336.24 28.0526 336.367 27.9999 336.5 27.9999C336.632 27.9999 336.76 28.0526 336.853 28.1463L339 30.2928L341.146 28.1463C341.193 28.0985 341.248 28.0605 341.309 28.0342C341.37 28.008 341.435 27.9942 341.502 27.9937C341.568 27.9931 341.634 28.0057 341.695 28.0309C341.757 28.056 341.813 28.0932 341.86 28.1401C341.907 28.187 341.944 28.2429 341.969 28.3043C341.994 28.3658 342.007 28.4316 342.006 28.498C342.005 28.5644 341.992 28.63 341.965 28.691C341.939 28.752 341.901 28.8072 341.853 28.8533L339.707 30.9998L341.853 33.1463C341.944 33.2406 341.995 33.3669 341.994 33.498C341.993 33.6291 341.94 33.7545 341.847 33.8472C341.755 33.9399 341.629 33.9925 341.498 33.9936C341.367 33.9948 341.241 33.9444 341.146 33.8533L339 31.7068L336.853 33.8533C336.759 33.9444 336.633 33.9948 336.502 33.9936C336.371 33.9925 336.245 33.9399 336.152 33.8472C336.06 33.7545 336.007 33.6291 336.006 33.498C336.005 33.3669 336.055 33.2406 336.146 33.1463L338.293 30.9998L336.146 28.8533C336.053 28.7595 336 28.6324 336 28.4998C336 28.3672 336.053 28.2401 336.146 28.1463V28.1463Z"/>
</mask>
<path d="M336.853 28.1463L337.56 27.4392L337.56 27.4391L336.853 28.1463ZM339 30.2928L338.293 30.9999L339 31.707L339.707 30.9999L339 30.2928ZM341.146 28.1463L341.853 28.8534L341.86 28.8473L341.866 28.841L341.146 28.1463ZM341.853 28.8533L341.159 28.134L341.152 28.14L341.146 28.1462L341.853 28.8533ZM339.707 30.9998L339 30.2927L338.293 30.9998L339 31.7069L339.707 30.9998ZM341.853 33.1463L342.573 32.4516L342.567 32.4453L342.56 32.4392L341.853 33.1463ZM341.146 33.8533L340.439 34.5604L340.445 34.5665L340.452 34.5726L341.146 33.8533ZM339 31.7068L339.707 30.9997L339 30.2926L338.293 30.9997L339 31.7068ZM336.853 33.8533L337.548 34.5726L337.554 34.5665L337.56 34.5604L336.853 33.8533ZM336.146 33.1463L335.439 32.4392L335.433 32.4453L335.427 32.4516L336.146 33.1463ZM338.293 30.9998L339 31.7069L339.707 30.9998L339 30.2927L338.293 30.9998ZM336.146 28.8533L335.439 29.5603L335.439 29.5604L336.146 28.8533ZM336.853 28.8535C336.76 28.9472 336.632 28.9999 336.5 28.9999V26.9999C336.102 26.9999 335.721 27.1579 335.439 27.4391L336.853 28.8535ZM336.5 28.9999C336.367 28.9999 336.24 28.9472 336.146 28.8535L337.56 27.4391C337.279 27.1579 336.898 26.9999 336.5 26.9999V28.9999ZM336.146 28.8534L338.293 30.9999L339.707 29.5857L337.56 27.4392L336.146 28.8534ZM339.707 30.9999L341.853 28.8534L340.439 27.4392L338.293 29.5857L339.707 30.9999ZM341.866 28.841C341.82 28.8888 341.764 28.9269 341.703 28.9531L340.914 27.1154C340.731 27.194 340.565 27.3083 340.427 27.4516L341.866 28.841ZM341.703 28.9531C341.642 28.9793 341.577 28.9931 341.51 28.9936L341.493 26.9937C341.294 26.9954 341.097 27.0368 340.914 27.1154L341.703 28.9531ZM341.51 28.9936C341.444 28.9942 341.378 28.9816 341.317 28.9564L342.074 27.1054C341.89 27.0299 341.692 26.992 341.493 26.9937L341.51 28.9936ZM341.317 28.9564C341.255 28.9313 341.199 28.8942 341.152 28.8472L342.567 27.433C342.426 27.2922 342.258 27.1808 342.074 27.1054L341.317 28.9564ZM341.152 28.8472C341.106 28.8003 341.068 28.7444 341.043 28.683L342.894 27.9257C342.819 27.7413 342.708 27.5738 342.567 27.433L341.152 28.8472ZM341.043 28.683C341.018 28.6215 341.005 28.5557 341.006 28.4893L343.006 28.5067C343.008 28.3075 342.97 28.11 342.894 27.9257L341.043 28.683ZM341.006 28.4893C341.007 28.4229 341.02 28.3573 341.047 28.2963L342.884 29.0857C342.963 28.9027 343.004 28.7059 343.006 28.5067L341.006 28.4893ZM341.047 28.2963C341.073 28.2353 341.111 28.1801 341.159 28.134L342.548 29.5726C342.691 29.4342 342.806 29.2687 342.884 29.0857L341.047 28.2963ZM341.146 28.1462L339 30.2927L340.414 31.7069L342.56 29.5604L341.146 28.1462ZM339 31.7069L341.146 33.8534L342.56 32.4392L340.414 30.2927L339 31.7069ZM341.134 33.841C341.043 33.7467 340.993 33.6204 340.994 33.4893L342.994 33.5067C342.997 33.1134 342.846 32.7345 342.573 32.4516L341.134 33.841ZM340.994 33.4893C340.995 33.3582 341.047 33.2328 341.14 33.1401L342.554 34.5543C342.833 34.2762 342.99 33.9 342.994 33.5067L340.994 33.4893ZM341.14 33.1401C341.233 33.0474 341.358 32.9948 341.489 32.9937L341.507 34.9936C341.9 34.9902 342.276 34.8324 342.554 34.5543L341.14 33.1401ZM341.489 32.9937C341.621 32.9925 341.747 33.0429 341.841 33.134L340.452 34.5726C340.735 34.8458 341.113 34.997 341.507 34.9936L341.489 32.9937ZM341.853 33.1462L339.707 30.9997L338.293 32.4139L340.439 34.5604L341.853 33.1462ZM338.293 30.9997L336.146 33.1462L337.56 34.5604L339.707 32.4139L338.293 30.9997ZM336.159 33.134C336.253 33.0429 336.379 32.9925 336.51 32.9937L336.493 34.9936C336.886 34.997 337.265 34.8458 337.548 34.5726L336.159 33.134ZM336.51 32.9937C336.641 32.9948 336.767 33.0474 336.86 33.1401L335.445 34.5543C335.723 34.8324 336.1 34.9902 336.493 34.9936L336.51 32.9937ZM336.86 33.1401C336.952 33.2328 337.005 33.3582 337.006 33.4893L335.006 33.5067C335.01 33.9 335.167 34.2762 335.445 34.5543L336.86 33.1401ZM337.006 33.4893C337.007 33.6204 336.957 33.7467 336.866 33.841L335.427 32.4516C335.154 32.7345 335.003 33.1134 335.006 33.5067L337.006 33.4893ZM336.854 33.8534L339 31.7069L337.586 30.2927L335.439 32.4392L336.854 33.8534ZM339 30.2927L336.854 28.1462L335.439 29.5604L337.586 31.7069L339 30.2927ZM336.854 28.1463C336.947 28.2401 337 28.3672 337 28.4998H335C335 28.8975 335.158 29.279 335.439 29.5603L336.854 28.1463ZM337 28.4998C337 28.6324 336.947 28.7595 336.854 28.8533L335.439 27.4393C335.158 27.7206 335 28.102 335 28.4998H337Z" fill="#9CA3AF" mask="url(#path-4-inside-1_3588_15804)"/>
<line x1="180" y1="47.5" x2="356" y2="47.5" stroke="#E4E4E7"/>
<rect x="180" y="48" width="176" height="218" rx="8" fill="white"/>
<rect x="192" y="62" width="30" height="3" rx="1.5" fill="#9CA3AF"/>
<rect x="192.5" y="73.5" width="69" height="15" rx="3.5" fill="#F9FAFB"/>
<rect x="199" y="80" width="31" height="2" rx="1" fill="#D1D5DB"/>
<rect x="192.5" y="73.5" width="69" height="15" rx="3.5" stroke="#E5E7EB"/>
<rect x="274" y="62" width="47" height="3" rx="1.5" fill="#9CA3AF"/>
<rect x="274.5" y="73.5" width="69" height="15" rx="3.5" fill="#F9FAFB"/>
<rect x="281" y="80" width="30" height="2" rx="1" fill="#D1D5DB"/>
<rect x="274.5" y="73.5" width="69" height="15" rx="3.5" stroke="#E5E7EB"/>
<rect x="192" y="103" width="46" height="3" rx="1.5" fill="#9CA3AF"/>
<rect x="192.5" y="114.5" width="69" height="15" rx="3.5" fill="#F9FAFB"/>
<rect x="199" y="121" width="54" height="2" rx="1" fill="#D1D5DB"/>
<rect x="192.5" y="114.5" width="69" height="15" rx="3.5" stroke="#E5E7EB"/>
<rect x="274" y="103" width="17" height="3" rx="1.5" fill="#9CA3AF"/>
<rect x="274.5" y="114.5" width="69" height="15" rx="3.5" fill="#F9FAFB"/>
<rect x="281" y="121" width="29" height="2" rx="1" fill="#D1D5DB"/>
<rect x="274.5" y="114.5" width="69" height="15" rx="3.5" stroke="#E5E7EB"/>
<rect x="192" y="144" width="152" height="4" rx="2" fill="#E5E7EB"/>
<path d="M192 146C192 144.895 192.895 144 194 144H270V148H194C192.895 148 192 147.105 192 146V146Z" fill="#1C64F2"/>
<g filter="url(#filter1_dd_3588_15804)">
<circle cx="271" cy="146" r="4" fill="white"/>
<circle cx="271" cy="146" r="3.75" stroke="#E5E7EB" stroke-width="0.5"/>
</g>
<rect x="192" y="158" width="18" height="3" rx="1.5" fill="#9CA3AF"/>
<rect x="192.5" y="166.5" width="69" height="15" rx="3.5" fill="#F9FAFB"/>
<rect x="199" y="173" width="54" height="2" rx="1" fill="#D1D5DB"/>
<rect x="192.5" y="166.5" width="69" height="15" rx="3.5" stroke="#E5E7EB"/>
<rect x="274" y="158" width="17" height="3" rx="1.5" fill="#9CA3AF"/>
<rect x="274.5" y="166.5" width="69" height="15" rx="3.5" fill="#F9FAFB"/>
<rect x="281" y="173" width="29" height="2" rx="1" fill="#D1D5DB"/>
<rect x="274.5" y="166.5" width="69" height="15" rx="3.5" stroke="#E5E7EB"/>
<rect x="193.65" y="197.65" width="4.7" height="4.7" rx="1.35" fill="white"/>
<rect x="193.65" y="197.65" width="4.7" height="4.7" rx="1.35" stroke="#D1D5DB" stroke-width="0.7"/>
<rect x="203" y="198" width="44" height="4" rx="2" fill="#D1D5DB"/>
<rect x="193.65" y="208.65" width="4.7" height="4.7" rx="1.35" fill="white"/>
<rect x="193.65" y="208.65" width="4.7" height="4.7" rx="1.35" stroke="#D1D5DB" stroke-width="0.7"/>
<rect x="203" y="209" width="28" height="4" rx="2" fill="#D1D5DB"/>
<rect x="193.65" y="219.65" width="4.7" height="4.7" rx="1.35" fill="white"/>
<rect x="193.65" y="219.65" width="4.7" height="4.7" rx="1.35" stroke="#D1D5DB" stroke-width="0.7"/>
<rect x="203" y="220" width="40" height="4" rx="2" fill="#D1D5DB"/>
<rect x="193.65" y="230.65" width="4.7" height="4.7" rx="1.35" fill="white"/>
<rect x="193.65" y="230.65" width="4.7" height="4.7" rx="1.35" stroke="#D1D5DB" stroke-width="0.7"/>
<rect x="203" y="231" width="30" height="4" rx="2" fill="#D1D5DB"/>
<rect x="193.65" y="241.65" width="4.7" height="4.7" rx="1.35" fill="white"/>
<rect x="193.65" y="241.65" width="4.7" height="4.7" rx="1.35" stroke="#D1D5DB" stroke-width="0.7"/>
<rect x="203" y="242" width="46" height="4" rx="2" fill="#D1D5DB"/>
<rect x="274.65" y="197.65" width="4.7" height="4.7" rx="2.35" fill="white"/>
<rect x="274.65" y="197.65" width="4.7" height="4.7" rx="2.35" stroke="#D1D5DB" stroke-width="0.7"/>
<path d="M287.62 197.171C287.74 196.802 288.262 196.802 288.381 197.171L288.809 198.488C288.835 198.568 288.886 198.638 288.954 198.687C289.023 198.737 289.105 198.764 289.189 198.764H290.574C290.962 198.764 291.122 199.26 290.809 199.488L289.689 200.301C289.621 200.351 289.57 200.421 289.544 200.501C289.518 200.582 289.518 200.668 289.544 200.748L289.972 202.065C290.092 202.434 289.67 202.74 289.356 202.512L288.236 201.699C288.167 201.649 288.085 201.623 288.001 201.623C287.916 201.623 287.834 201.649 287.766 201.699L286.646 202.512C286.332 202.74 285.91 202.434 286.03 202.065L286.458 200.748C286.484 200.668 286.484 200.582 286.458 200.501C286.432 200.421 286.381 200.351 286.312 200.301L285.193 199.488C284.88 199.26 285.041 198.764 285.428 198.764H286.812C286.897 198.764 286.979 198.737 287.047 198.688C287.116 198.638 287.167 198.568 287.193 198.488L287.621 197.171L287.62 197.171Z" fill="#FACA15"/>
<path d="M296.62 197.171C296.74 196.802 297.262 196.802 297.381 197.171L297.809 198.488C297.835 198.568 297.886 198.638 297.954 198.687C298.023 198.737 298.105 198.764 298.189 198.764H299.574C299.962 198.764 300.122 199.26 299.809 199.488L298.689 200.301C298.621 200.351 298.57 200.421 298.544 200.501C298.518 200.582 298.518 200.668 298.544 200.748L298.972 202.065C299.092 202.434 298.67 202.74 298.356 202.512L297.236 201.699C297.167 201.649 297.085 201.623 297.001 201.623C296.916 201.623 296.834 201.649 296.766 201.699L295.646 202.512C295.332 202.74 294.91 202.434 295.03 202.065L295.458 200.748C295.484 200.668 295.484 200.582 295.458 200.501C295.432 200.421 295.381 200.351 295.312 200.301L294.193 199.488C293.88 199.26 294.041 198.764 294.428 198.764H295.812C295.897 198.764 295.979 198.737 296.047 198.688C296.116 198.638 296.167 198.568 296.193 198.488L296.621 197.171L296.62 197.171Z" fill="#FACA15"/>
<path d="M305.62 197.171C305.74 196.802 306.262 196.802 306.381 197.171L306.809 198.488C306.835 198.568 306.886 198.638 306.954 198.687C307.023 198.737 307.105 198.764 307.189 198.764H308.574C308.962 198.764 309.122 199.26 308.809 199.488L307.689 200.301C307.621 200.351 307.57 200.421 307.544 200.501C307.518 200.582 307.518 200.668 307.544 200.748L307.972 202.065C308.092 202.434 307.67 202.74 307.356 202.512L306.236 201.699C306.167 201.649 306.085 201.623 306.001 201.623C305.916 201.623 305.834 201.649 305.766 201.699L304.646 202.512C304.332 202.74 303.91 202.434 304.03 202.065L304.458 200.748C304.484 200.668 304.484 200.582 304.458 200.501C304.432 200.421 304.381 200.351 304.312 200.301L303.193 199.488C302.88 199.26 303.041 198.764 303.428 198.764H304.812C304.897 198.764 304.979 198.737 305.047 198.688C305.116 198.638 305.167 198.568 305.193 198.488L305.621 197.171L305.62 197.171Z" fill="#FACA15"/>
<path d="M314.62 197.171C314.74 196.802 315.262 196.802 315.381 197.171L315.809 198.488C315.835 198.568 315.886 198.638 315.954 198.687C316.023 198.737 316.105 198.764 316.189 198.764H317.574C317.962 198.764 318.122 199.26 317.809 199.488L316.689 200.301C316.621 200.351 316.57 200.421 316.544 200.501C316.518 200.582 316.518 200.668 316.544 200.748L316.972 202.065C317.092 202.434 316.67 202.74 316.356 202.512L315.236 201.699C315.167 201.649 315.085 201.623 315.001 201.623C314.916 201.623 314.834 201.649 314.766 201.699L313.646 202.512C313.332 202.74 312.91 202.434 313.03 202.065L313.458 200.748C313.484 200.668 313.484 200.582 313.458 200.501C313.432 200.421 313.381 200.351 313.312 200.301L312.193 199.488C311.88 199.26 312.041 198.764 312.428 198.764H313.812C313.897 198.764 313.979 198.737 314.047 198.688C314.116 198.638 314.167 198.568 314.193 198.488L314.621 197.171L314.62 197.171Z" fill="#FACA15"/>
<path d="M323.62 197.171C323.74 196.802 324.262 196.802 324.381 197.171L324.809 198.488C324.835 198.568 324.886 198.638 324.954 198.687C325.023 198.737 325.105 198.764 325.189 198.764H326.574C326.962 198.764 327.122 199.26 326.809 199.488L325.689 200.301C325.621 200.351 325.57 200.421 325.544 200.501C325.518 200.582 325.518 200.668 325.544 200.748L325.972 202.065C326.092 202.434 325.67 202.74 325.356 202.512L324.236 201.699C324.167 201.649 324.085 201.623 324.001 201.623C323.916 201.623 323.834 201.649 323.766 201.699L322.646 202.512C322.332 202.74 321.91 202.434 322.03 202.065L322.458 200.748C322.484 200.668 322.484 200.582 322.458 200.501C322.432 200.421 322.381 200.351 322.312 200.301L321.193 199.488C320.88 199.26 321.041 198.764 321.428 198.764H322.812C322.897 198.764 322.979 198.737 323.047 198.688C323.116 198.638 323.167 198.568 323.193 198.488L323.621 197.171L323.62 197.171Z" fill="#FACA15"/>
<rect x="274.65" y="209.65" width="4.7" height="4.7" rx="2.35" fill="white"/>
<rect x="274.65" y="209.65" width="4.7" height="4.7" rx="2.35" stroke="#D1D5DB" stroke-width="0.7"/>
<path d="M287.62 209.171C287.74 208.802 288.262 208.802 288.381 209.171L288.809 210.488C288.835 210.568 288.886 210.638 288.954 210.687C289.023 210.737 289.105 210.764 289.189 210.764H290.574C290.962 210.764 291.122 211.26 290.809 211.488L289.689 212.301C289.621 212.351 289.57 212.421 289.544 212.501C289.518 212.582 289.518 212.668 289.544 212.748L289.972 214.065C290.092 214.434 289.67 214.74 289.356 214.512L288.236 213.699C288.167 213.649 288.085 213.623 288.001 213.623C287.916 213.623 287.834 213.649 287.766 213.699L286.646 214.512C286.332 214.74 285.91 214.434 286.03 214.065L286.458 212.748C286.484 212.668 286.484 212.582 286.458 212.501C286.432 212.421 286.381 212.351 286.312 212.301L285.193 211.488C284.88 211.26 285.041 210.764 285.428 210.764H286.812C286.897 210.764 286.979 210.737 287.047 210.688C287.116 210.638 287.167 210.568 287.193 210.488L287.621 209.171L287.62 209.171Z" fill="#FACA15"/>
<path d="M296.62 209.171C296.74 208.802 297.262 208.802 297.381 209.171L297.809 210.488C297.835 210.568 297.886 210.638 297.954 210.687C298.023 210.737 298.105 210.764 298.189 210.764H299.574C299.962 210.764 300.122 211.26 299.809 211.488L298.689 212.301C298.621 212.351 298.57 212.421 298.544 212.501C298.518 212.582 298.518 212.668 298.544 212.748L298.972 214.065C299.092 214.434 298.67 214.74 298.356 214.512L297.236 213.699C297.167 213.649 297.085 213.623 297.001 213.623C296.916 213.623 296.834 213.649 296.766 213.699L295.646 214.512C295.332 214.74 294.91 214.434 295.03 214.065L295.458 212.748C295.484 212.668 295.484 212.582 295.458 212.501C295.432 212.421 295.381 212.351 295.312 212.301L294.193 211.488C293.88 211.26 294.041 210.764 294.428 210.764H295.812C295.897 210.764 295.979 210.737 296.047 210.688C296.116 210.638 296.167 210.568 296.193 210.488L296.621 209.171L296.62 209.171Z" fill="#FACA15"/>
<path d="M305.62 209.171C305.74 208.802 306.262 208.802 306.381 209.171L306.809 210.488C306.835 210.568 306.886 210.638 306.954 210.687C307.023 210.737 307.105 210.764 307.189 210.764H308.574C308.962 210.764 309.122 211.26 308.809 211.488L307.689 212.301C307.621 212.351 307.57 212.421 307.544 212.501C307.518 212.582 307.518 212.668 307.544 212.748L307.972 214.065C308.092 214.434 307.67 214.74 307.356 214.512L306.236 213.699C306.167 213.649 306.085 213.623 306.001 213.623C305.916 213.623 305.834 213.649 305.766 213.699L304.646 214.512C304.332 214.74 303.91 214.434 304.03 214.065L304.458 212.748C304.484 212.668 304.484 212.582 304.458 212.501C304.432 212.421 304.381 212.351 304.312 212.301L303.193 211.488C302.88 211.26 303.041 210.764 303.428 210.764H304.812C304.897 210.764 304.979 210.737 305.047 210.688C305.116 210.638 305.167 210.568 305.193 210.488L305.621 209.171L305.62 209.171Z" fill="#FACA15"/>
<path d="M314.62 209.171C314.74 208.802 315.262 208.802 315.381 209.171L315.809 210.488C315.835 210.568 315.886 210.638 315.954 210.687C316.023 210.737 316.105 210.764 316.189 210.764H317.574C317.962 210.764 318.122 211.26 317.809 211.488L316.689 212.301C316.621 212.351 316.57 212.421 316.544 212.501C316.518 212.582 316.518 212.668 316.544 212.748L316.972 214.065C317.092 214.434 316.67 214.74 316.356 214.512L315.236 213.699C315.167 213.649 315.085 213.623 315.001 213.623C314.916 213.623 314.834 213.649 314.766 213.699L313.646 214.512C313.332 214.74 312.91 214.434 313.03 214.065L313.458 212.748C313.484 212.668 313.484 212.582 313.458 212.501C313.432 212.421 313.381 212.351 313.312 212.301L312.193 211.488C311.88 211.26 312.041 210.764 312.428 210.764H313.812C313.897 210.764 313.979 210.737 314.047 210.688C314.116 210.638 314.167 210.568 314.193 210.488L314.621 209.171L314.62 209.171Z" fill="#FACA15"/>
<path d="M323.62 209.171C323.74 208.802 324.262 208.802 324.381 209.171L324.809 210.488C324.835 210.568 324.886 210.638 324.954 210.687C325.023 210.737 325.105 210.764 325.189 210.764H326.574C326.962 210.764 327.122 211.26 326.809 211.488L325.689 212.301C325.621 212.351 325.57 212.421 325.544 212.501C325.518 212.582 325.518 212.668 325.544 212.748L325.972 214.065C326.092 214.434 325.67 214.74 325.356 214.512L324.236 213.699C324.167 213.649 324.085 213.623 324.001 213.623C323.916 213.623 323.834 213.649 323.766 213.699L322.646 214.512C322.332 214.74 321.91 214.434 322.03 214.065L322.458 212.748C322.484 212.668 322.484 212.582 322.458 212.501C322.432 212.421 322.381 212.351 322.312 212.301L321.193 211.488C320.88 211.26 321.041 210.764 321.428 210.764H322.812C322.897 210.764 322.979 210.737 323.047 210.688C323.116 210.638 323.167 210.568 323.193 210.488L323.621 209.171L323.62 209.171Z" fill="#D1D5DB"/>
<rect x="274.65" y="221.65" width="4.7" height="4.7" rx="2.35" fill="white"/>
<rect x="274.65" y="221.65" width="4.7" height="4.7" rx="2.35" stroke="#D1D5DB" stroke-width="0.7"/>
<path d="M287.62 221.171C287.74 220.802 288.262 220.802 288.381 221.171L288.809 222.488C288.835 222.568 288.886 222.638 288.954 222.687C289.023 222.737 289.105 222.764 289.189 222.764H290.574C290.962 222.764 291.122 223.26 290.809 223.488L289.689 224.301C289.621 224.351 289.57 224.421 289.544 224.501C289.518 224.582 289.518 224.668 289.544 224.748L289.972 226.065C290.092 226.434 289.67 226.74 289.356 226.512L288.236 225.699C288.167 225.649 288.085 225.623 288.001 225.623C287.916 225.623 287.834 225.649 287.766 225.699L286.646 226.512C286.332 226.74 285.91 226.434 286.03 226.065L286.458 224.748C286.484 224.668 286.484 224.582 286.458 224.501C286.432 224.421 286.381 224.351 286.312 224.301L285.193 223.488C284.88 223.26 285.041 222.764 285.428 222.764H286.812C286.897 222.764 286.979 222.737 287.047 222.688C287.116 222.638 287.167 222.568 287.193 222.488L287.621 221.171L287.62 221.171Z" fill="#FACA15"/>
<path d="M296.62 221.171C296.74 220.802 297.262 220.802 297.381 221.171L297.809 222.488C297.835 222.568 297.886 222.638 297.954 222.687C298.023 222.737 298.105 222.764 298.189 222.764H299.574C299.962 222.764 300.122 223.26 299.809 223.488L298.689 224.301C298.621 224.351 298.57 224.421 298.544 224.501C298.518 224.582 298.518 224.668 298.544 224.748L298.972 226.065C299.092 226.434 298.67 226.74 298.356 226.512L297.236 225.699C297.167 225.649 297.085 225.623 297.001 225.623C296.916 225.623 296.834 225.649 296.766 225.699L295.646 226.512C295.332 226.74 294.91 226.434 295.03 226.065L295.458 224.748C295.484 224.668 295.484 224.582 295.458 224.501C295.432 224.421 295.381 224.351 295.312 224.301L294.193 223.488C293.88 223.26 294.041 222.764 294.428 222.764H295.812C295.897 222.764 295.979 222.737 296.047 222.688C296.116 222.638 296.167 222.568 296.193 222.488L296.621 221.171L296.62 221.171Z" fill="#FACA15"/>
<path d="M305.62 221.171C305.74 220.802 306.262 220.802 306.381 221.171L306.809 222.488C306.835 222.568 306.886 222.638 306.954 222.687C307.023 222.737 307.105 222.764 307.189 222.764H308.574C308.962 222.764 309.122 223.26 308.809 223.488L307.689 224.301C307.621 224.351 307.57 224.421 307.544 224.501C307.518 224.582 307.518 224.668 307.544 224.748L307.972 226.065C308.092 226.434 307.67 226.74 307.356 226.512L306.236 225.699C306.167 225.649 306.085 225.623 306.001 225.623C305.916 225.623 305.834 225.649 305.766 225.699L304.646 226.512C304.332 226.74 303.91 226.434 304.03 226.065L304.458 224.748C304.484 224.668 304.484 224.582 304.458 224.501C304.432 224.421 304.381 224.351 304.312 224.301L303.193 223.488C302.88 223.26 303.041 222.764 303.428 222.764H304.812C304.897 222.764 304.979 222.737 305.047 222.688C305.116 222.638 305.167 222.568 305.193 222.488L305.621 221.171L305.62 221.171Z" fill="#FACA15"/>
<path d="M314.62 221.171C314.74 220.802 315.262 220.802 315.381 221.171L315.809 222.488C315.835 222.568 315.886 222.638 315.954 222.687C316.023 222.737 316.105 222.764 316.189 222.764H317.574C317.962 222.764 318.122 223.26 317.809 223.488L316.689 224.301C316.621 224.351 316.57 224.421 316.544 224.501C316.518 224.582 316.518 224.668 316.544 224.748L316.972 226.065C317.092 226.434 316.67 226.74 316.356 226.512L315.236 225.699C315.167 225.649 315.085 225.623 315.001 225.623C314.916 225.623 314.834 225.649 314.766 225.699L313.646 226.512C313.332 226.74 312.91 226.434 313.03 226.065L313.458 224.748C313.484 224.668 313.484 224.582 313.458 224.501C313.432 224.421 313.381 224.351 313.312 224.301L312.193 223.488C311.88 223.26 312.041 222.764 312.428 222.764H313.812C313.897 222.764 313.979 222.737 314.047 222.688C314.116 222.638 314.167 222.568 314.193 222.488L314.621 221.171L314.62 221.171Z" fill="#D1D5DB"/>
<path d="M323.62 221.171C323.74 220.802 324.262 220.802 324.381 221.171L324.809 222.488C324.835 222.568 324.886 222.638 324.954 222.687C325.023 222.737 325.105 222.764 325.189 222.764H326.574C326.962 222.764 327.122 223.26 326.809 223.488L325.689 224.301C325.621 224.351 325.57 224.421 325.544 224.501C325.518 224.582 325.518 224.668 325.544 224.748L325.972 226.065C326.092 226.434 325.67 226.74 325.356 226.512L324.236 225.699C324.167 225.649 324.085 225.623 324.001 225.623C323.916 225.623 323.834 225.649 323.766 225.699L322.646 226.512C322.332 226.74 321.91 226.434 322.03 226.065L322.458 224.748C322.484 224.668 322.484 224.582 322.458 224.501C322.432 224.421 322.381 224.351 322.312 224.301L321.193 223.488C320.88 223.26 321.041 222.764 321.428 222.764H322.812C322.897 222.764 322.979 222.737 323.047 222.688C323.116 222.638 323.167 222.568 323.193 222.488L323.621 221.171L323.62 221.171Z" fill="#D1D5DB"/>
<rect x="274.65" y="233.65" width="4.7" height="4.7" rx="2.35" fill="white"/>
<rect x="274.65" y="233.65" width="4.7" height="4.7" rx="2.35" stroke="#D1D5DB" stroke-width="0.7"/>
<path d="M287.62 233.171C287.74 232.802 288.262 232.802 288.381 233.171L288.809 234.488C288.835 234.568 288.886 234.638 288.954 234.687C289.023 234.737 289.105 234.764 289.189 234.764H290.574C290.962 234.764 291.122 235.26 290.809 235.488L289.689 236.301C289.621 236.351 289.57 236.421 289.544 236.501C289.518 236.582 289.518 236.668 289.544 236.748L289.972 238.065C290.092 238.434 289.67 238.74 289.356 238.512L288.236 237.699C288.167 237.649 288.085 237.623 288.001 237.623C287.916 237.623 287.834 237.649 287.766 237.699L286.646 238.512C286.332 238.74 285.91 238.434 286.03 238.065L286.458 236.748C286.484 236.668 286.484 236.582 286.458 236.501C286.432 236.421 286.381 236.351 286.312 236.301L285.193 235.488C284.88 235.26 285.041 234.764 285.428 234.764H286.812C286.897 234.764 286.979 234.737 287.047 234.688C287.116 234.638 287.167 234.568 287.193 234.488L287.621 233.171L287.62 233.171Z" fill="#FACA15"/>
<path d="M296.62 233.171C296.74 232.802 297.262 232.802 297.381 233.171L297.809 234.488C297.835 234.568 297.886 234.638 297.954 234.687C298.023 234.737 298.105 234.764 298.189 234.764H299.574C299.962 234.764 300.122 235.26 299.809 235.488L298.689 236.301C298.621 236.351 298.57 236.421 298.544 236.501C298.518 236.582 298.518 236.668 298.544 236.748L298.972 238.065C299.092 238.434 298.67 238.74 298.356 238.512L297.236 237.699C297.167 237.649 297.085 237.623 297.001 237.623C296.916 237.623 296.834 237.649 296.766 237.699L295.646 238.512C295.332 238.74 294.91 238.434 295.03 238.065L295.458 236.748C295.484 236.668 295.484 236.582 295.458 236.501C295.432 236.421 295.381 236.351 295.312 236.301L294.193 235.488C293.88 235.26 294.041 234.764 294.428 234.764H295.812C295.897 234.764 295.979 234.737 296.047 234.688C296.116 234.638 296.167 234.568 296.193 234.488L296.621 233.171L296.62 233.171Z" fill="#FACA15"/>
<path d="M305.62 233.171C305.74 232.802 306.262 232.802 306.381 233.171L306.809 234.488C306.835 234.568 306.886 234.638 306.954 234.687C307.023 234.737 307.105 234.764 307.189 234.764H308.574C308.962 234.764 309.122 235.26 308.809 235.488L307.689 236.301C307.621 236.351 307.57 236.421 307.544 236.501C307.518 236.582 307.518 236.668 307.544 236.748L307.972 238.065C308.092 238.434 307.67 238.74 307.356 238.512L306.236 237.699C306.167 237.649 306.085 237.623 306.001 237.623C305.916 237.623 305.834 237.649 305.766 237.699L304.646 238.512C304.332 238.74 303.91 238.434 304.03 238.065L304.458 236.748C304.484 236.668 304.484 236.582 304.458 236.501C304.432 236.421 304.381 236.351 304.312 236.301L303.193 235.488C302.88 235.26 303.041 234.764 303.428 234.764H304.812C304.897 234.764 304.979 234.737 305.047 234.688C305.116 234.638 305.167 234.568 305.193 234.488L305.621 233.171L305.62 233.171Z" fill="#D1D5DB"/>
<path d="M314.62 233.171C314.74 232.802 315.262 232.802 315.381 233.171L315.809 234.488C315.835 234.568 315.886 234.638 315.954 234.687C316.023 234.737 316.105 234.764 316.189 234.764H317.574C317.962 234.764 318.122 235.26 317.809 235.488L316.689 236.301C316.621 236.351 316.57 236.421 316.544 236.501C316.518 236.582 316.518 236.668 316.544 236.748L316.972 238.065C317.092 238.434 316.67 238.74 316.356 238.512L315.236 237.699C315.167 237.649 315.085 237.623 315.001 237.623C314.916 237.623 314.834 237.649 314.766 237.699L313.646 238.512C313.332 238.74 312.91 238.434 313.03 238.065L313.458 236.748C313.484 236.668 313.484 236.582 313.458 236.501C313.432 236.421 313.381 236.351 313.312 236.301L312.193 235.488C311.88 235.26 312.041 234.764 312.428 234.764H313.812C313.897 234.764 313.979 234.737 314.047 234.688C314.116 234.638 314.167 234.568 314.193 234.488L314.621 233.171L314.62 233.171Z" fill="#D1D5DB"/>
<path d="M323.62 233.171C323.74 232.802 324.262 232.802 324.381 233.171L324.809 234.488C324.835 234.568 324.886 234.638 324.954 234.687C325.023 234.737 325.105 234.764 325.189 234.764H326.574C326.962 234.764 327.122 235.26 326.809 235.488L325.689 236.301C325.621 236.351 325.57 236.421 325.544 236.501C325.518 236.582 325.518 236.668 325.544 236.748L325.972 238.065C326.092 238.434 325.67 238.74 325.356 238.512L324.236 237.699C324.167 237.649 324.085 237.623 324.001 237.623C323.916 237.623 323.834 237.649 323.766 237.699L322.646 238.512C322.332 238.74 321.91 238.434 322.03 238.065L322.458 236.748C322.484 236.668 322.484 236.582 322.458 236.501C322.432 236.421 322.381 236.351 322.312 236.301L321.193 235.488C320.88 235.26 321.041 234.764 321.428 234.764H322.812C322.897 234.764 322.979 234.737 323.047 234.688C323.116 234.638 323.167 234.568 323.193 234.488L323.621 233.171L323.62 233.171Z" fill="#D1D5DB"/>
<rect x="274.65" y="245.65" width="4.7" height="4.7" rx="2.35" fill="white"/>
<rect x="274.65" y="245.65" width="4.7" height="4.7" rx="2.35" stroke="#D1D5DB" stroke-width="0.7"/>
<path d="M287.62 245.171C287.74 244.802 288.262 244.802 288.381 245.171L288.809 246.488C288.835 246.568 288.886 246.638 288.954 246.687C289.023 246.737 289.105 246.764 289.189 246.764H290.574C290.962 246.764 291.122 247.26 290.809 247.488L289.689 248.301C289.621 248.351 289.57 248.421 289.544 248.501C289.518 248.582 289.518 248.668 289.544 248.748L289.972 250.065C290.092 250.434 289.67 250.74 289.356 250.512L288.236 249.699C288.167 249.649 288.085 249.623 288.001 249.623C287.916 249.623 287.834 249.649 287.766 249.699L286.646 250.512C286.332 250.74 285.91 250.434 286.03 250.065L286.458 248.748C286.484 248.668 286.484 248.582 286.458 248.501C286.432 248.421 286.381 248.351 286.312 248.301L285.193 247.488C284.88 247.26 285.041 246.764 285.428 246.764H286.812C286.897 246.764 286.979 246.737 287.047 246.688C287.116 246.638 287.167 246.568 287.193 246.488L287.621 245.171L287.62 245.171Z" fill="#FACA15"/>
<path d="M296.62 245.171C296.74 244.802 297.262 244.802 297.381 245.171L297.809 246.488C297.835 246.568 297.886 246.638 297.954 246.687C298.023 246.737 298.105 246.764 298.189 246.764H299.574C299.962 246.764 300.122 247.26 299.809 247.488L298.689 248.301C298.621 248.351 298.57 248.421 298.544 248.501C298.518 248.582 298.518 248.668 298.544 248.748L298.972 250.065C299.092 250.434 298.67 250.74 298.356 250.512L297.236 249.699C297.167 249.649 297.085 249.623 297.001 249.623C296.916 249.623 296.834 249.649 296.766 249.699L295.646 250.512C295.332 250.74 294.91 250.434 295.03 250.065L295.458 248.748C295.484 248.668 295.484 248.582 295.458 248.501C295.432 248.421 295.381 248.351 295.312 248.301L294.193 247.488C293.88 247.26 294.041 246.764 294.428 246.764H295.812C295.897 246.764 295.979 246.737 296.047 246.688C296.116 246.638 296.167 246.568 296.193 246.488L296.621 245.171L296.62 245.171Z" fill="#D1D5DB"/>
<path d="M305.62 245.171C305.74 244.802 306.262 244.802 306.381 245.171L306.809 246.488C306.835 246.568 306.886 246.638 306.954 246.687C307.023 246.737 307.105 246.764 307.189 246.764H308.574C308.962 246.764 309.122 247.26 308.809 247.488L307.689 248.301C307.621 248.351 307.57 248.421 307.544 248.501C307.518 248.582 307.518 248.668 307.544 248.748L307.972 250.065C308.092 250.434 307.67 250.74 307.356 250.512L306.236 249.699C306.167 249.649 306.085 249.623 306.001 249.623C305.916 249.623 305.834 249.649 305.766 249.699L304.646 250.512C304.332 250.74 303.91 250.434 304.03 250.065L304.458 248.748C304.484 248.668 304.484 248.582 304.458 248.501C304.432 248.421 304.381 248.351 304.312 248.301L303.193 247.488C302.88 247.26 303.041 246.764 303.428 246.764H304.812C304.897 246.764 304.979 246.737 305.047 246.688C305.116 246.638 305.167 246.568 305.193 246.488L305.621 245.171L305.62 245.171Z" fill="#D1D5DB"/>
<path d="M314.62 245.171C314.74 244.802 315.262 244.802 315.381 245.171L315.809 246.488C315.835 246.568 315.886 246.638 315.954 246.687C316.023 246.737 316.105 246.764 316.189 246.764H317.574C317.962 246.764 318.122 247.26 317.809 247.488L316.689 248.301C316.621 248.351 316.57 248.421 316.544 248.501C316.518 248.582 316.518 248.668 316.544 248.748L316.972 250.065C317.092 250.434 316.67 250.74 316.356 250.512L315.236 249.699C315.167 249.649 315.085 249.623 315.001 249.623C314.916 249.623 314.834 249.649 314.766 249.699L313.646 250.512C313.332 250.74 312.91 250.434 313.03 250.065L313.458 248.748C313.484 248.668 313.484 248.582 313.458 248.501C313.432 248.421 313.381 248.351 313.312 248.301L312.193 247.488C311.88 247.26 312.041 246.764 312.428 246.764H313.812C313.897 246.764 313.979 246.737 314.047 246.688C314.116 246.638 314.167 246.568 314.193 246.488L314.621 245.171L314.62 245.171Z" fill="#D1D5DB"/>
<path d="M323.62 245.171C323.74 244.802 324.262 244.802 324.381 245.171L324.809 246.488C324.835 246.568 324.886 246.638 324.954 246.687C325.023 246.737 325.105 246.764 325.189 246.764H326.574C326.962 246.764 327.122 247.26 326.809 247.488L325.689 248.301C325.621 248.351 325.57 248.421 325.544 248.501C325.518 248.582 325.518 248.668 325.544 248.748L325.972 250.065C326.092 250.434 325.67 250.74 325.356 250.512L324.236 249.699C324.167 249.649 324.085 249.623 324.001 249.623C323.916 249.623 323.834 249.649 323.766 249.699L322.646 250.512C322.332 250.74 321.91 250.434 322.03 250.065L322.458 248.748C322.484 248.668 322.484 248.582 322.458 248.501C322.432 248.421 322.381 248.351 322.312 248.301L321.193 247.488C320.88 247.26 321.041 246.764 321.428 246.764H322.812C322.897 246.764 322.979 246.737 323.047 246.688C323.116 246.638 323.167 246.568 323.193 246.488L323.621 245.171L323.62 245.171Z" fill="#D1D5DB"/>
<rect x="192" y="302" width="66" height="17" rx="2" fill="#EB4F26"/>
<rect x="204" y="309" width="42" height="3" rx="1" fill="white"/>
<rect x="179.5" y="13.5" width="177" height="318" rx="1.5" stroke="#D1D5DB"/>
</g>
<defs>
<filter id="filter0_dd_3588_15804" x="173" y="11" width="190" height="331" filterUnits="userSpaceOnUse" color-interpolation-filters="sRGB">
<feFlood flood-opacity="0" result="BackgroundImageFix"/>
<feColorMatrix in="SourceAlpha" type="matrix" values="0 0 0 0 0 0 0 0 0 0 0 0 0 0 0 0 0 0 127 0" result="hardAlpha"/>
<feOffset dy="4"/>
<feGaussianBlur stdDeviation="3"/>
<feColorMatrix type="matrix" values="0 0 0 0 0 0 0 0 0 0 0 0 0 0 0 0 0 0 0.1 0"/>
<feBlend mode="normal" in2="BackgroundImageFix" result="effect1_dropShadow_3588_15804"/>
<feColorMatrix in="SourceAlpha" type="matrix" values="0 0 0 0 0 0 0 0 0 0 0 0 0 0 0 0 0 0 127 0" result="hardAlpha"/>
<feOffset dy="2"/>
<feGaussianBlur stdDeviation="2"/>
<feColorMatrix type="matrix" values="0 0 0 0 0 0 0 0 0 0 0 0 0 0 0 0 0 0 0.06 0"/>
<feBlend mode="normal" in2="effect1_dropShadow_3588_15804" result="effect2_dropShadow_3588_15804"/>
<feBlend mode="normal" in="SourceGraphic" in2="effect2_dropShadow_3588_15804" result="shape"/>
</filter>
<filter id="filter1_dd_3588_15804" x="264" y="140" width="14" height="14" filterUnits="userSpaceOnUse" color-interpolation-filters="sRGB">
<feFlood flood-opacity="0" result="BackgroundImageFix"/>
<feColorMatrix in="SourceAlpha" type="matrix" values="0 0 0 0 0 0 0 0 0 0 0 0 0 0 0 0 0 0 127 0" result="hardAlpha"/>
<feOffset dy="1"/>
<feGaussianBlur stdDeviation="1.5"/>
<feColorMatrix type="matrix" values="0 0 0 0 0 0 0 0 0 0 0 0 0 0 0 0 0 0 0.1 0"/>
<feBlend mode="normal" in2="BackgroundImageFix" result="effect1_dropShadow_3588_15804"/>
<feColorMatrix in="SourceAlpha" type="matrix" values="0 0 0 0 0 0 0 0 0 0 0 0 0 0 0 0 0 0 127 0" result="hardAlpha"/>
<feOffset dy="1"/>
<feGaussianBlur stdDeviation="1"/>
<feColorMatrix type="matrix" values="0 0 0 0 0 0 0 0 0 0 0 0 0 0 0 0 0 0 0.06 0"/>
<feBlend mode="normal" in2="effect1_dropShadow_3588_15804" result="effect2_dropShadow_3588_15804"/>
<feBlend mode="normal" in="SourceGraphic" in2="effect2_dropShadow_3588_15804" result="shape"/>
</filter>
</defs>
</svg>
