<svg width="536" height="345" viewBox="0 0 536 345" fill="none" xmlns="http://www.w3.org/2000/svg">
<g filter="url(#filter0_dd_3588_16996)">
<rect x="140" y="51" width="257" height="244" rx="1" fill="#374151"/>
<rect x="152" y="65" width="55" height="6" rx="3" fill="#9CA3AF"/>
<mask id="path-4-inside-1_3588_16996" fill="white">
<path fill-rule="evenodd" clip-rule="evenodd" d="M377.146 65.1463C377.24 65.0526 377.367 64.9999 377.5 64.9999C377.632 64.9999 377.76 65.0526 377.853 65.1463L380 67.2928L382.146 65.1463C382.193 65.0985 382.248 65.0605 382.309 65.0342C382.37 65.008 382.435 64.9942 382.502 64.9937C382.568 64.9931 382.634 65.0057 382.695 65.0309C382.757 65.056 382.813 65.0932 382.86 65.1401C382.907 65.187 382.944 65.2429 382.969 65.3043C382.994 65.3658 383.007 65.4316 383.006 65.498C383.005 65.5644 382.992 65.63 382.965 65.691C382.939 65.752 382.901 65.8072 382.853 65.8533L380.707 67.9998L382.853 70.1463C382.944 70.2406 382.995 70.3669 382.994 70.498C382.993 70.6291 382.94 70.7545 382.847 70.8472C382.755 70.9399 382.629 70.9925 382.498 70.9936C382.367 70.9948 382.241 70.9444 382.146 70.8533L380 68.7068L377.853 70.8533C377.759 70.9444 377.633 70.9948 377.502 70.9936C377.371 70.9925 377.245 70.9399 377.152 70.8472C377.06 70.7545 377.007 70.6291 377.006 70.498C377.005 70.3669 377.055 70.2406 377.146 70.1463L379.293 67.9998L377.146 65.8533C377.053 65.7595 377 65.6324 377 65.4998C377 65.3672 377.053 65.2401 377.146 65.1463V65.1463Z"/>
</mask>
<path d="M377.853 65.1463L378.56 64.4392L378.56 64.4391L377.853 65.1463ZM380 67.2928L379.293 67.9999L380 68.707L380.707 67.9999L380 67.2928ZM382.146 65.1463L382.853 65.8534L382.86 65.8473L382.866 65.841L382.146 65.1463ZM382.853 65.8533L382.159 65.134L382.152 65.14L382.146 65.1462L382.853 65.8533ZM380.707 67.9998L380 67.2927L379.293 67.9998L380 68.7069L380.707 67.9998ZM382.853 70.1463L383.573 69.4516L383.567 69.4453L383.56 69.4392L382.853 70.1463ZM382.146 70.8533L381.439 71.5604L381.445 71.5665L381.452 71.5726L382.146 70.8533ZM380 68.7068L380.707 67.9997L380 67.2926L379.293 67.9997L380 68.7068ZM377.853 70.8533L378.548 71.5726L378.554 71.5665L378.56 71.5604L377.853 70.8533ZM377.146 70.1463L376.439 69.4392L376.433 69.4453L376.427 69.4516L377.146 70.1463ZM379.293 67.9998L380 68.7069L380.707 67.9998L380 67.2927L379.293 67.9998ZM377.146 65.8533L376.439 66.5603L376.439 66.5604L377.146 65.8533ZM377.853 65.8535C377.76 65.9472 377.632 65.9999 377.5 65.9999V63.9999C377.102 63.9999 376.721 64.1579 376.439 64.4391L377.853 65.8535ZM377.5 65.9999C377.367 65.9999 377.24 65.9472 377.146 65.8535L378.56 64.4391C378.279 64.1579 377.898 63.9999 377.5 63.9999V65.9999ZM377.146 65.8534L379.293 67.9999L380.707 66.5857L378.56 64.4392L377.146 65.8534ZM380.707 67.9999L382.853 65.8534L381.439 64.4392L379.293 66.5857L380.707 67.9999ZM382.866 65.841C382.82 65.8888 382.764 65.9269 382.703 65.9531L381.914 64.1154C381.731 64.194 381.565 64.3083 381.427 64.4516L382.866 65.841ZM382.703 65.9531C382.642 65.9793 382.577 65.9931 382.51 65.9936L382.493 63.9937C382.294 63.9954 382.097 64.0368 381.914 64.1154L382.703 65.9531ZM382.51 65.9936C382.444 65.9942 382.378 65.9816 382.317 65.9564L383.074 64.1054C382.89 64.0299 382.692 63.992 382.493 63.9937L382.51 65.9936ZM382.317 65.9564C382.255 65.9313 382.199 65.8942 382.152 65.8472L383.567 64.433C383.426 64.2922 383.258 64.1808 383.074 64.1054L382.317 65.9564ZM382.152 65.8472C382.106 65.8003 382.068 65.7444 382.043 65.683L383.894 64.9257C383.819 64.7413 383.708 64.5738 383.567 64.433L382.152 65.8472ZM382.043 65.683C382.018 65.6215 382.005 65.5557 382.006 65.4893L384.006 65.5067C384.008 65.3075 383.97 65.11 383.894 64.9257L382.043 65.683ZM382.006 65.4893C382.007 65.4229 382.02 65.3573 382.047 65.2963L383.884 66.0857C383.963 65.9027 384.004 65.7059 384.006 65.5067L382.006 65.4893ZM382.047 65.2963C382.073 65.2353 382.111 65.1801 382.159 65.134L383.548 66.5726C383.691 66.4342 383.806 66.2687 383.884 66.0857L382.047 65.2963ZM382.146 65.1462L380 67.2927L381.414 68.7069L383.56 66.5604L382.146 65.1462ZM380 68.7069L382.146 70.8534L383.56 69.4392L381.414 67.2927L380 68.7069ZM382.134 70.841C382.043 70.7467 381.993 70.6204 381.994 70.4893L383.994 70.5067C383.997 70.1134 383.846 69.7345 383.573 69.4516L382.134 70.841ZM381.994 70.4893C381.995 70.3582 382.047 70.2328 382.14 70.1401L383.554 71.5543C383.833 71.2762 383.99 70.9 383.994 70.5067L381.994 70.4893ZM382.14 70.1401C382.233 70.0474 382.358 69.9948 382.489 69.9937L382.507 71.9936C382.9 71.9902 383.276 71.8324 383.554 71.5543L382.14 70.1401ZM382.489 69.9937C382.621 69.9925 382.747 70.0429 382.841 70.134L381.452 71.5726C381.735 71.8458 382.113 71.997 382.507 71.9936L382.489 69.9937ZM382.853 70.1462L380.707 67.9997L379.293 69.4139L381.439 71.5604L382.853 70.1462ZM379.293 67.9997L377.146 70.1462L378.56 71.5604L380.707 69.4139L379.293 67.9997ZM377.159 70.134C377.253 70.0429 377.379 69.9925 377.51 69.9937L377.493 71.9936C377.886 71.997 378.265 71.8458 378.548 71.5726L377.159 70.134ZM377.51 69.9937C377.641 69.9948 377.767 70.0474 377.86 70.1401L376.445 71.5543C376.723 71.8324 377.1 71.9902 377.493 71.9936L377.51 69.9937ZM377.86 70.1401C377.952 70.2328 378.005 70.3582 378.006 70.4893L376.006 70.5067C376.01 70.9 376.167 71.2762 376.445 71.5543L377.86 70.1401ZM378.006 70.4893C378.007 70.6204 377.957 70.7467 377.866 70.841L376.427 69.4516C376.154 69.7345 376.003 70.1134 376.006 70.5067L378.006 70.4893ZM377.854 70.8534L380 68.7069L378.586 67.2927L376.439 69.4392L377.854 70.8534ZM380 67.2927L377.854 65.1462L376.439 66.5604L378.586 68.7069L380 67.2927ZM377.854 65.1463C377.947 65.2401 378 65.3672 378 65.4998H376C376 65.8975 376.158 66.279 376.439 66.5603L377.854 65.1463ZM378 65.4998C378 65.6324 377.947 65.7595 377.854 65.8533L376.439 64.4393C376.158 64.7206 376 65.102 376 65.4998H378Z" fill="#9CA3AF" mask="url(#path-4-inside-1_3588_16996)"/>
<line x1="140" y1="84.5" x2="397" y2="84.5" stroke="#4B5563"/>
<rect x="153.65" y="100.65" width="4.7" height="4.7" rx="1.35" fill="#4B5563"/>
<rect x="153.65" y="100.65" width="4.7" height="4.7" rx="1.35" stroke="#6B7280" stroke-width="0.7"/>
<rect x="163" y="101" width="44" height="4" rx="2" fill="#9CA3AF"/>
<rect x="153.65" y="111.65" width="4.7" height="4.7" rx="1.35" fill="#4B5563"/>
<rect x="153.65" y="111.65" width="4.7" height="4.7" rx="1.35" stroke="#6B7280" stroke-width="0.7"/>
<rect x="163" y="112" width="28" height="4" rx="2" fill="#9CA3AF"/>
<rect x="153.65" y="122.65" width="4.7" height="4.7" rx="1.35" fill="#4B5563"/>
<rect x="153.65" y="122.65" width="4.7" height="4.7" rx="1.35" stroke="#6B7280" stroke-width="0.7"/>
<rect x="163" y="123" width="40" height="4" rx="2" fill="#9CA3AF"/>
<rect x="153.65" y="133.65" width="4.7" height="4.7" rx="1.35" fill="#4B5563"/>
<rect x="153.65" y="133.65" width="4.7" height="4.7" rx="1.35" stroke="#6B7280" stroke-width="0.7"/>
<rect x="163" y="134" width="30" height="4" rx="2" fill="#9CA3AF"/>
<rect x="153.65" y="144.65" width="4.7" height="4.7" rx="1.35" fill="#4B5563"/>
<rect x="153.65" y="144.65" width="4.7" height="4.7" rx="1.35" stroke="#6B7280" stroke-width="0.7"/>
<rect x="163" y="145" width="30" height="4" rx="2" fill="#9CA3AF"/>
<rect x="153.65" y="155.65" width="4.7" height="4.7" rx="1.35" fill="#4B5563"/>
<rect x="153.65" y="155.65" width="4.7" height="4.7" rx="1.35" stroke="#6B7280" stroke-width="0.7"/>
<rect x="163" y="156" width="30" height="4" rx="2" fill="#9CA3AF"/>
<rect x="153.65" y="166.65" width="4.7" height="4.7" rx="1.35" fill="#4B5563"/>
<rect x="153.65" y="166.65" width="4.7" height="4.7" rx="1.35" stroke="#6B7280" stroke-width="0.7"/>
<rect x="163" y="167" width="46" height="4" rx="2" fill="#9CA3AF"/>
<rect x="231.318" y="100.65" width="4.7" height="4.7" rx="1.35" fill="#4B5563"/>
<rect x="231.318" y="100.65" width="4.7" height="4.7" rx="1.35" stroke="#6B7280" stroke-width="0.7"/>
<rect x="240.668" y="101" width="44" height="4" rx="2" fill="#9CA3AF"/>
<rect x="231.318" y="111.65" width="4.7" height="4.7" rx="1.35" fill="#4B5563"/>
<rect x="231.318" y="111.65" width="4.7" height="4.7" rx="1.35" stroke="#6B7280" stroke-width="0.7"/>
<rect x="240.668" y="112" width="28" height="4" rx="2" fill="#9CA3AF"/>
<rect x="231.318" y="122.65" width="4.7" height="4.7" rx="1.35" fill="#4B5563"/>
<rect x="231.318" y="122.65" width="4.7" height="4.7" rx="1.35" stroke="#6B7280" stroke-width="0.7"/>
<rect x="240.668" y="123" width="40" height="4" rx="2" fill="#9CA3AF"/>
<rect x="231.318" y="133.65" width="4.7" height="4.7" rx="1.35" fill="#4B5563"/>
<rect x="231.318" y="133.65" width="4.7" height="4.7" rx="1.35" stroke="#6B7280" stroke-width="0.7"/>
<rect x="240.668" y="134" width="30" height="4" rx="2" fill="#9CA3AF"/>
<rect x="231.318" y="144.65" width="4.7" height="4.7" rx="1.35" fill="#4B5563"/>
<rect x="231.318" y="144.65" width="4.7" height="4.7" rx="1.35" stroke="#6B7280" stroke-width="0.7"/>
<rect x="240.668" y="145" width="46" height="4" rx="2" fill="#9CA3AF"/>
<rect x="308.982" y="100.65" width="4.7" height="4.7" rx="1.35" fill="#4B5563"/>
<rect x="308.982" y="100.65" width="4.7" height="4.7" rx="1.35" stroke="#6B7280" stroke-width="0.7"/>
<rect x="318.332" y="101" width="44" height="4" rx="2" fill="#9CA3AF"/>
<rect x="308.982" y="111.65" width="4.7" height="4.7" rx="1.35" fill="#4B5563"/>
<rect x="308.982" y="111.65" width="4.7" height="4.7" rx="1.35" stroke="#6B7280" stroke-width="0.7"/>
<rect x="318.332" y="112" width="28" height="4" rx="2" fill="#9CA3AF"/>
<rect x="308.982" y="122.65" width="4.7" height="4.7" rx="1.35" fill="#4B5563"/>
<rect x="308.982" y="122.65" width="4.7" height="4.7" rx="1.35" stroke="#6B7280" stroke-width="0.7"/>
<rect x="318.332" y="123" width="40" height="4" rx="2" fill="#9CA3AF"/>
<rect x="308.982" y="133.65" width="4.7" height="4.7" rx="1.35" fill="#4B5563"/>
<rect x="308.982" y="133.65" width="4.7" height="4.7" rx="1.35" stroke="#6B7280" stroke-width="0.7"/>
<rect x="318.332" y="134" width="40" height="4" rx="2" fill="#9CA3AF"/>
<rect x="308.982" y="144.65" width="4.7" height="4.7" rx="1.35" fill="#4B5563"/>
<rect x="308.982" y="144.65" width="4.7" height="4.7" rx="1.35" stroke="#6B7280" stroke-width="0.7"/>
<rect x="318.332" y="145" width="30" height="4" rx="2" fill="#9CA3AF"/>
<rect x="308.982" y="155.65" width="4.7" height="4.7" rx="1.35" fill="#4B5563"/>
<rect x="308.982" y="155.65" width="4.7" height="4.7" rx="1.35" stroke="#6B7280" stroke-width="0.7"/>
<rect x="318.332" y="156" width="46" height="4" rx="2" fill="#9CA3AF"/>
<rect x="152.35" y="185.35" width="67.6333" height="23.3" rx="2.65" fill="#4B5563"/>
<rect x="159" y="191.5" width="30" height="3" rx="1" fill="#3F83F8"/>
<rect x="159" y="200" width="56" height="2" rx="1" fill="#3F83F8"/>
<rect x="152.35" y="185.35" width="67.6333" height="23.3" rx="2.65" stroke="#3F83F8" stroke-width="0.7"/>
<rect x="234.832" y="185.5" width="67.3333" height="23" rx="2.5" fill="#4B5563"/>
<rect x="241.332" y="191.5" width="30" height="3" rx="1" fill="#D1D5DB"/>
<rect x="241.332" y="200" width="56" height="2" rx="1" fill="#9CA3AF"/>
<rect x="234.832" y="185.5" width="67.3333" height="23" rx="2.5" stroke="#6B7280"/>
<rect x="317.168" y="185.5" width="67.3333" height="23" rx="2.5" fill="#4B5563"/>
<rect x="323.668" y="191.5" width="30" height="3" rx="1" fill="#D1D5DB"/>
<rect x="323.668" y="200" width="56" height="2" rx="1" fill="#9CA3AF"/>
<rect x="317.168" y="185.5" width="67.3333" height="23" rx="2.5" stroke="#6B7280"/>
<rect x="152" y="223" width="36" height="4" rx="2" fill="#9CA3AF"/>
<rect x="163.65" y="242.65" width="4.7" height="4.7" rx="1.35" fill="#4B5563"/>
<rect x="163.65" y="242.65" width="4.7" height="4.7" rx="1.35" stroke="#6B7280" stroke-width="0.7"/>
<rect x="173" y="243" width="23" height="4" rx="2" fill="#9CA3AF"/>
<path d="M155 236.5H210.5V253.5H155C153.619 253.5 152.5 252.381 152.5 251V239C152.5 237.619 153.619 236.5 155 236.5Z" stroke="#4B5563"/>
<rect x="221.65" y="242.65" width="4.7" height="4.7" rx="1.35" fill="#4B5563"/>
<rect x="221.65" y="242.65" width="4.7" height="4.7" rx="1.35" stroke="#6B7280" stroke-width="0.7"/>
<rect x="231" y="243" width="18" height="4" rx="2" fill="#9CA3AF"/>
<path d="M210.5 236.5H268.5V253.5H210.5V236.5Z" stroke="#4B5563"/>
<rect x="279.65" y="242.65" width="4.7" height="4.7" rx="1.35" fill="#4B5563"/>
<rect x="279.65" y="242.65" width="4.7" height="4.7" rx="1.35" stroke="#6B7280" stroke-width="0.7"/>
<rect x="289" y="243" width="21" height="4" rx="2" fill="#9CA3AF"/>
<path d="M268.5 236.5H326.5V253.5H268.5V236.5Z" stroke="#4B5563"/>
<rect x="337.65" y="242.65" width="4.7" height="4.7" rx="1.35" fill="#4B5563"/>
<rect x="337.65" y="242.65" width="4.7" height="4.7" rx="1.35" stroke="#6B7280" stroke-width="0.7"/>
<rect x="347" y="243" width="17" height="4" rx="2" fill="#9CA3AF"/>
<path d="M326.5 236.5H382C383.381 236.5 384.5 237.619 384.5 239V251C384.5 252.381 383.381 253.5 382 253.5H326.5V236.5Z" stroke="#4B5563"/>
<rect x="152" y="266" width="48" height="17" rx="2" fill="#EB4F26"/>
<rect x="164" y="273" width="24" height="3" rx="1" fill="white"/>
<rect x="208.5" y="266.5" width="65" height="16" rx="1.5" fill="#4B5563"/>
<rect x="220" y="273" width="42" height="3" rx="1" fill="#9CA3AF"/>
<rect x="208.5" y="266.5" width="65" height="16" rx="1.5" stroke="#6B7280"/>
<rect x="139.5" y="50.5" width="258" height="245" rx="1.5" stroke="#4B5563"/>
</g>
<defs>
<filter id="filter0_dd_3588_16996" x="133" y="48" width="271" height="258" filterUnits="userSpaceOnUse" color-interpolation-filters="sRGB">
<feFlood flood-opacity="0" result="BackgroundImageFix"/>
<feColorMatrix in="SourceAlpha" type="matrix" values="0 0 0 0 0 0 0 0 0 0 0 0 0 0 0 0 0 0 127 0" result="hardAlpha"/>
<feOffset dy="4"/>
<feGaussianBlur stdDeviation="3"/>
<feColorMatrix type="matrix" values="0 0 0 0 0 0 0 0 0 0 0 0 0 0 0 0 0 0 0.1 0"/>
<feBlend mode="normal" in2="BackgroundImageFix" result="effect1_dropShadow_3588_16996"/>
<feColorMatrix in="SourceAlpha" type="matrix" values="0 0 0 0 0 0 0 0 0 0 0 0 0 0 0 0 0 0 127 0" result="hardAlpha"/>
<feOffset dy="2"/>
<feGaussianBlur stdDeviation="2"/>
<feColorMatrix type="matrix" values="0 0 0 0 0 0 0 0 0 0 0 0 0 0 0 0 0 0 0.06 0"/>
<feBlend mode="normal" in2="effect1_dropShadow_3588_16996" result="effect2_dropShadow_3588_16996"/>
<feBlend mode="normal" in="SourceGraphic" in2="effect2_dropShadow_3588_16996" result="shape"/>
</filter>
</defs>
</svg>
