<svg width="536" height="345" viewBox="0 0 536 345" fill="none" xmlns="http://www.w3.org/2000/svg">
<g opacity="0.8">
<rect width="453" height="59" transform="translate(41.5 39)" fill="#374151"/>
<path d="M61.2937 52.2803C61.252 52.5674 61.0626 52.9575 60.8454 53.2966C60.5714 53.7245 60.1365 54.0243 59.6388 54.1283L57.4463 54.5868C57.094 54.6605 56.7744 54.8449 56.5345 55.1131L55.097 56.72C54.8268 57.022 54.6379 56.9499 54.6379 56.5449C54.6347 56.5599 53.9245 58.3914 55.8066 59.477C56.5297 59.8942 57.5707 59.7443 58.2939 59.3272L62.1256 57.117C63.5585 56.2905 64.5703 54.8922 64.9066 53.2736C64.9199 53.2096 64.9301 53.1454 64.9412 53.0811L61.2937 52.2803Z" fill="url(#paint0_linear_3377_15929)"/>
<path d="M60.3 50.0728C61.0232 50.4899 61.3187 51.1109 61.3187 51.9452C61.3187 52.0584 61.3098 52.1703 61.2938 52.2805L62.8377 52.9437L64.9414 53.0814C65.2107 51.5224 64.6828 49.9177 63.7365 48.6422C63.0243 47.6823 62.1079 46.8493 61.0061 46.2139C60.1112 45.6976 59.1811 45.3575 58.2467 45.1709L57.1969 46.5305L56.8652 48.0916L60.3 50.0728Z" fill="url(#paint1_linear_3377_15929)"/>
<path d="M47.9415 51.2166C47.9411 51.2179 47.9422 51.2182 47.9426 51.217C48.0236 50.974 48.1252 50.7029 48.252 50.4133C48.9145 48.9005 50.1911 47.8916 51.7616 47.3772C53.3321 46.8628 55.0469 47.0431 56.4783 47.8687L56.8644 48.0914L58.2459 45.1707C53.8519 44.2931 49.3611 46.8746 47.9471 51.1997C47.9464 51.2018 47.9439 51.209 47.9415 51.2166Z" fill="url(#paint2_linear_3377_15929)"/>
<path d="M58.1417 59.3269C57.4186 59.744 56.5276 59.744 55.8044 59.3269C55.7063 59.2703 55.6137 59.2066 55.5262 59.1377L54.2544 60.0121L53.1582 61.7835C54.3749 62.796 55.9549 63.1215 57.5337 62.9405C58.7219 62.8042 59.9021 62.4278 61.0039 61.7924C61.8988 61.2762 62.6587 60.6415 63.2877 59.9264L62.6341 58.3383L61.5765 57.3457L58.1417 59.3269Z" fill="url(#paint3_linear_3377_15929)"/>
<path d="M55.5266 59.138C54.9695 58.6991 54.6362 58.026 54.6362 57.305V57.2331V51.2283C54.6362 50.8887 54.7363 50.831 55.0307 51.0008C54.5773 50.7392 53.5299 49.8415 52.2366 50.5874C51.5135 51.0045 50.918 51.9253 50.918 52.7595V57.1798C50.918 58.8329 51.7742 60.5572 53.0091 61.6575C53.058 61.701 53.1085 61.742 53.1586 61.7837L55.5266 59.138Z" fill="url(#paint4_linear_3377_15929)"/>
<path d="M63.1986 47.9882C63.1977 47.9873 63.1969 47.988 63.1977 47.989C63.3678 48.1806 63.552 48.404 63.7397 48.6586C64.7198 49.9881 65.086 51.672 64.7467 53.2881C64.4073 54.9041 63.3936 56.2976 61.9623 57.1232L61.5762 57.3459L63.2873 59.9266C66.2451 56.5637 66.2527 51.3875 63.2105 48.0015C63.209 47.9999 63.204 47.9942 63.1986 47.9882Z" fill="url(#paint5_linear_3377_15929)"/>
<path d="M51.0682 52.7595C51.0682 51.9253 51.5137 51.1544 52.2369 50.7373C52.3351 50.6807 52.4365 50.6324 52.54 50.5912L52.418 49.0536L51.5605 47.2944C50.0744 47.8409 48.8723 48.9701 48.2398 50.4267C47.7639 51.5228 47.5 52.7322 47.5 54.0032C47.5 55.0356 47.6702 56.0103 47.9756 56.9121L49.6791 57.1407L51.0682 56.722V52.7595V52.7595Z" fill="url(#paint6_linear_3377_15929)"/>
<path d="M52.5401 50.591C53.1991 50.3284 53.9492 50.3766 54.5742 50.7371L54.6366 50.7731L59.6402 53.6592C59.9912 53.8617 59.9593 54.0609 59.5626 54.1438L59.8512 54.0835C60.2311 54.0041 60.5781 53.81 60.8434 53.5271C61.2997 53.0408 61.4672 52.454 61.4672 51.9448C61.4672 51.1106 61.0217 50.3397 60.2986 49.9226L56.4669 47.7125C55.0339 46.8859 53.316 46.7097 51.7447 47.228C51.6826 47.2485 51.6218 47.2717 51.5605 47.2942L52.5401 50.591Z" fill="url(#paint7_linear_3377_15929)"/>
<path d="M58.3697 62.8042C58.3709 62.804 58.3707 62.8029 58.3694 62.8031C58.1183 62.8545 57.8325 62.9022 57.5181 62.9372C55.8755 63.1205 54.2327 62.5954 53.0015 61.4937C51.7703 60.3921 51.0692 58.8183 51.0692 57.1671L51.0692 56.7217L47.9766 56.9118C49.4128 61.1523 53.896 63.7471 58.3522 62.8079C58.3543 62.8074 58.3618 62.8059 58.3697 62.8042Z" fill="url(#paint8_linear_3377_15929)"/>
<g clip-path="url(#clip0_3377_15929)">
<path d="M262 49.1001C261.628 49.1001 261.272 49.2476 261.01 49.5101C260.747 49.7727 260.6 50.1288 260.6 50.5001V51.9001C260.6 52.2714 260.747 52.6275 261.01 52.89C261.272 53.1526 261.628 53.3001 262 53.3001H263.4C263.771 53.3001 264.127 53.1526 264.39 52.89C264.652 52.6275 264.8 52.2714 264.8 51.9001V50.5001C264.8 50.1288 264.652 49.7727 264.39 49.5101C264.127 49.2476 263.771 49.1001 263.4 49.1001H262ZM262 54.7001C261.628 54.7001 261.272 54.8476 261.01 55.1101C260.747 55.3727 260.6 55.7288 260.6 56.1001V57.5001C260.6 57.8714 260.747 58.2275 261.01 58.49C261.272 58.7526 261.628 58.9001 262 58.9001H263.4C263.771 58.9001 264.127 58.7526 264.39 58.49C264.652 58.2275 264.8 57.8714 264.8 57.5001V56.1001C264.8 55.7288 264.652 55.3727 264.39 55.1101C264.127 54.8476 263.771 54.7001 263.4 54.7001H262ZM266.2 50.5001C266.2 50.1288 266.347 49.7727 266.61 49.5101C266.872 49.2476 267.228 49.1001 267.6 49.1001H269C269.371 49.1001 269.727 49.2476 269.99 49.5101C270.252 49.7727 270.4 50.1288 270.4 50.5001V51.9001C270.4 52.2714 270.252 52.6275 269.99 52.89C269.727 53.1526 269.371 53.3001 269 53.3001H267.6C267.228 53.3001 266.872 53.1526 266.61 52.89C266.347 52.6275 266.2 52.2714 266.2 51.9001V50.5001ZM266.2 56.1001C266.2 55.7288 266.347 55.3727 266.61 55.1101C266.872 54.8476 267.228 54.7001 267.6 54.7001H269C269.371 54.7001 269.727 54.8476 269.99 55.1101C270.252 55.3727 270.4 55.7288 270.4 56.1001V57.5001C270.4 57.8714 270.252 58.2275 269.99 58.49C269.727 58.7526 269.371 58.9001 269 58.9001H267.6C267.228 58.9001 266.872 58.7526 266.61 58.49C266.347 58.2275 266.2 57.8714 266.2 57.5001V56.1001Z" fill="#9CA3AF"/>
<path d="M287.499 48.3999C286.386 48.3999 285.317 48.8424 284.53 49.6301C283.742 50.4177 283.299 51.486 283.299 52.5999V55.1101L282.805 55.605C282.707 55.7029 282.64 55.8276 282.613 55.9634C282.586 56.0991 282.6 56.2399 282.653 56.3678C282.706 56.4957 282.796 56.605 282.911 56.6819C283.026 56.7588 283.161 56.7999 283.299 56.7999H291.699C291.838 56.7999 291.973 56.7588 292.088 56.6819C292.203 56.605 292.293 56.4957 292.346 56.3678C292.399 56.2399 292.413 56.0991 292.386 55.9634C292.359 55.8276 292.292 55.7029 292.194 55.605L291.699 55.1101V52.5999C291.699 51.486 291.257 50.4177 290.469 49.6301C289.682 48.8424 288.613 48.3999 287.499 48.3999V48.3999ZM287.499 59.5999C286.943 59.5999 286.408 59.3787 286.015 58.9848C285.621 58.591 285.399 58.0569 285.399 57.4999H289.599C289.599 58.0569 289.378 58.591 288.984 58.9848C288.591 59.3787 288.056 59.5999 287.499 59.5999Z" fill="#9CA3AF"/>
<path fill-rule="evenodd" clip-rule="evenodd" d="M315.1 53.9999C315.1 55.4851 314.51 56.9095 313.46 57.9597C312.41 59.0099 310.986 59.5999 309.5 59.5999C308.015 59.5999 306.591 59.0099 305.541 57.9597C304.49 56.9095 303.9 55.4851 303.9 53.9999C303.9 52.5147 304.49 51.0903 305.541 50.0401C306.591 48.9899 308.015 48.3999 309.5 48.3999C310.986 48.3999 312.41 48.9899 313.46 50.0401C314.51 51.0903 315.1 52.5147 315.1 53.9999V53.9999ZM310.9 51.8999C310.9 52.2712 310.753 52.6273 310.49 52.8899C310.228 53.1524 309.872 53.2999 309.5 53.2999C309.129 53.2999 308.773 53.1524 308.51 52.8899C308.248 52.6273 308.1 52.2712 308.1 51.8999C308.1 51.5286 308.248 51.1725 308.51 50.91C308.773 50.6474 309.129 50.4999 309.5 50.4999C309.872 50.4999 310.228 50.6474 310.49 50.91C310.753 51.1725 310.9 51.5286 310.9 51.8999V51.8999ZM309.5 54.6999C308.83 54.6998 308.174 54.892 307.61 55.2539C307.046 55.6157 306.598 56.1319 306.318 56.7411C306.712 57.1993 307.2 57.5669 307.75 57.8187C308.299 58.0705 308.896 58.2006 309.5 58.1999C310.105 58.2006 310.702 58.0705 311.251 57.8187C311.8 57.5669 312.289 57.1993 312.683 56.7411C312.403 56.1319 311.955 55.6157 311.391 55.2539C310.827 54.892 310.171 54.6998 309.5 54.6999V54.6999Z" fill="#9CA3AF"/>
<rect x="329.5" y="51.5" width="41" height="5" rx="2" fill="#9CA3AF"/>
<path d="M386.208 52.625L382.999 55.8333L379.791 52.625" stroke="#9CA3AF" stroke-width="2" stroke-linecap="round" stroke-linejoin="round"/>
<rect x="401.5" y="51.5" width="69" height="5" rx="2" fill="#9CA3AF"/>
<path d="M486.208 52.625L482.999 55.8333L479.791 52.625" stroke="#9CA3AF" stroke-width="2" stroke-linecap="round" stroke-linejoin="round"/>
</g>
<rect width="453" height="29" transform="translate(41.5 69)" fill="#1F2A37"/>
<path d="M68.5476 81H49.119C48.2249 81 47.5 82.1193 47.5 83.5C47.5 84.8807 48.2249 86 49.119 86H68.5476C69.4418 86 70.1667 84.8807 70.1667 83.5C70.1667 82.1193 69.4418 81 68.5476 81Z" fill="#6B7280"/>
<path d="M102.214 81H82.7851C81.8909 81 81.166 82.1193 81.166 83.5C81.166 84.8807 81.8909 86 82.7851 86H102.214C103.108 86 103.833 84.8807 103.833 83.5C103.833 82.1193 103.108 81 102.214 81Z" fill="#6B7280"/>
<path d="M135.882 81H116.453C115.559 81 114.834 82.1193 114.834 83.5C114.834 84.8807 115.559 86 116.453 86H135.882C136.776 86 137.501 84.8807 137.501 83.5C137.501 82.1193 136.776 81 135.882 81Z" fill="#6B7280"/>
<path d="M169.548 81H150.119C149.225 81 148.5 82.1193 148.5 83.5C148.5 84.8807 149.225 86 150.119 86H169.548C170.442 86 171.167 84.8807 171.167 83.5C171.167 82.1193 170.442 81 169.548 81Z" fill="#6B7280"/>
<path d="M203.214 81H183.785C182.891 81 182.166 82.1193 182.166 83.5C182.166 84.8807 182.891 86 183.785 86H203.214C204.108 86 204.833 84.8807 204.833 83.5C204.833 82.1193 204.108 81 203.214 81Z" fill="#6B7280"/>
<path d="M236.882 81H217.453C216.559 81 215.834 82.1193 215.834 83.5C215.834 84.8807 216.559 86 217.453 86H236.882C237.776 86 238.501 84.8807 238.501 83.5C238.501 82.1193 237.776 81 236.882 81Z" fill="#6B7280"/>
</g>
<g opacity="0.8">
<rect width="453" height="59" transform="translate(41.5 130)" fill="#374151"/>
<path d="M61.2937 143.28C61.252 143.567 61.0626 143.957 60.8454 144.297C60.5714 144.725 60.1365 145.024 59.6388 145.128L57.4463 145.587C57.094 145.66 56.7744 145.845 56.5345 146.113L55.097 147.72C54.8268 148.022 54.6379 147.95 54.6379 147.545C54.6347 147.56 53.9245 149.391 55.8066 150.477C56.5297 150.894 57.5707 150.744 58.2939 150.327L62.1256 148.117C63.5585 147.29 64.5703 145.892 64.9066 144.274C64.9199 144.21 64.9301 144.145 64.9412 144.081L61.2937 143.28Z" fill="url(#paint9_linear_3377_15929)"/>
<path d="M60.3 141.073C61.0232 141.49 61.3187 142.111 61.3187 142.945C61.3187 143.058 61.3098 143.17 61.2938 143.28L62.8377 143.944L64.9414 144.081C65.2107 142.522 64.6828 140.918 63.7365 139.642C63.0243 138.682 62.1079 137.849 61.0061 137.214C60.1112 136.698 59.1811 136.358 58.2467 136.171L57.1969 137.53L56.8652 139.092L60.3 141.073Z" fill="url(#paint10_linear_3377_15929)"/>
<path d="M47.9415 142.217C47.9411 142.218 47.9422 142.218 47.9426 142.217C48.0236 141.974 48.1252 141.703 48.252 141.413C48.9145 139.901 50.1911 138.892 51.7616 138.377C53.3321 137.863 55.0469 138.043 56.4783 138.869L56.8644 139.091L58.2459 136.171C53.8519 135.293 49.3611 137.875 47.9471 142.2C47.9464 142.202 47.9439 142.209 47.9415 142.217Z" fill="url(#paint11_linear_3377_15929)"/>
<path d="M58.1417 150.327C57.4186 150.744 56.5276 150.744 55.8044 150.327C55.7063 150.27 55.6137 150.207 55.5262 150.138L54.2544 151.012L53.1582 152.783C54.3749 153.796 55.9549 154.122 57.5337 153.94C58.7219 153.804 59.9021 153.428 61.0039 152.792C61.8988 152.276 62.6587 151.642 63.2877 150.926L62.6341 149.338L61.5765 148.346L58.1417 150.327Z" fill="url(#paint12_linear_3377_15929)"/>
<path d="M55.5266 150.138C54.9695 149.699 54.6362 149.026 54.6362 148.305V148.233V142.228C54.6362 141.889 54.7363 141.831 55.0307 142.001C54.5773 141.739 53.5299 140.841 52.2366 141.587C51.5135 142.005 50.918 142.925 50.918 143.76V148.18C50.918 149.833 51.7742 151.557 53.0091 152.657C53.058 152.701 53.1085 152.742 53.1586 152.784L55.5266 150.138Z" fill="url(#paint13_linear_3377_15929)"/>
<path d="M63.1986 138.988C63.1977 138.987 63.1969 138.988 63.1977 138.989C63.3678 139.181 63.552 139.404 63.7397 139.659C64.7198 140.988 65.086 142.672 64.7467 144.288C64.4073 145.904 63.3936 147.298 61.9623 148.123L61.5762 148.346L63.2873 150.927C66.2451 147.564 66.2527 142.387 63.2105 139.002C63.209 139 63.204 138.994 63.1986 138.988Z" fill="url(#paint14_linear_3377_15929)"/>
<path d="M51.0682 143.76C51.0682 142.925 51.5137 142.154 52.2369 141.737C52.3351 141.681 52.4365 141.632 52.54 141.591L52.418 140.054L51.5605 138.294C50.0744 138.841 48.8723 139.97 48.2398 141.427C47.7639 142.523 47.5 143.732 47.5 145.003C47.5 146.036 47.6702 147.01 47.9756 147.912L49.6791 148.141L51.0682 147.722V143.76V143.76Z" fill="url(#paint15_linear_3377_15929)"/>
<path d="M52.5401 141.591C53.1991 141.328 53.9492 141.377 54.5742 141.737L54.6366 141.773L59.6402 144.659C59.9912 144.862 59.9593 145.061 59.5626 145.144L59.8512 145.083C60.2311 145.004 60.5781 144.81 60.8434 144.527C61.2997 144.041 61.4672 143.454 61.4672 142.945C61.4672 142.111 61.0217 141.34 60.2986 140.923L56.4669 138.712C55.0339 137.886 53.316 137.71 51.7447 138.228C51.6826 138.248 51.6218 138.272 51.5605 138.294L52.5401 141.591Z" fill="url(#paint16_linear_3377_15929)"/>
<path d="M58.3697 153.804C58.3709 153.804 58.3707 153.803 58.3694 153.803C58.1183 153.855 57.8325 153.902 57.5181 153.937C55.8755 154.12 54.2327 153.595 53.0015 152.494C51.7703 151.392 51.0692 149.818 51.0692 148.167L51.0692 147.722L47.9766 147.912C49.4128 152.152 53.896 154.747 58.3522 153.808C58.3543 153.807 58.3618 153.806 58.3697 153.804Z" fill="url(#paint17_linear_3377_15929)"/>
<path d="M176.339 142.5H153.411C152.355 142.5 151.5 143.619 151.5 145C151.5 146.381 152.355 147.5 153.411 147.5H176.339C177.395 147.5 178.25 146.381 178.25 145C178.25 143.619 177.395 142.5 176.339 142.5Z" fill="#9CA3AF"/>
<path d="M224.089 142.5H201.161C200.105 142.5 199.25 143.619 199.25 145C199.25 146.381 200.105 147.5 201.161 147.5H224.089C225.145 147.5 226 146.381 226 145C226 143.619 225.145 142.5 224.089 142.5Z" fill="#9CA3AF"/>
<path d="M271.839 142.5H248.911C247.855 142.5 247 143.619 247 145C247 146.381 247.855 147.5 248.911 147.5H271.839C272.895 147.5 273.75 146.381 273.75 145C273.75 143.619 272.895 142.5 271.839 142.5Z" fill="#9CA3AF"/>
<path d="M319.589 142.5H296.661C295.605 142.5 294.75 143.619 294.75 145C294.75 146.381 295.605 147.5 296.661 147.5H319.589C320.645 147.5 321.5 146.381 321.5 145C321.5 143.619 320.645 142.5 319.589 142.5Z" fill="#9CA3AF"/>
<g clip-path="url(#clip1_3377_15929)">
<rect x="407.5" y="139.455" width="33" height="11.09" rx="2" fill="#1A56DB"/>
<rect x="417.5" y="143.455" width="13" height="3.09" rx="1.545" fill="white"/>
<path d="M452.5 139.4C452.076 139.4 451.669 139.568 451.369 139.869C451.069 140.169 450.9 140.576 450.9 141V142.6C450.9 143.024 451.069 143.431 451.369 143.731C451.669 144.031 452.076 144.2 452.5 144.2H454.1C454.525 144.2 454.932 144.031 455.232 143.731C455.532 143.431 455.7 143.024 455.7 142.6V141C455.7 140.576 455.532 140.169 455.232 139.869C454.932 139.568 454.525 139.4 454.1 139.4H452.5ZM452.5 145.8C452.076 145.8 451.669 145.968 451.369 146.269C451.069 146.569 450.9 146.976 450.9 147.4V149C450.9 149.424 451.069 149.831 451.369 150.131C451.669 150.431 452.076 150.6 452.5 150.6H454.1C454.525 150.6 454.932 150.431 455.232 150.131C455.532 149.831 455.7 149.424 455.7 149V147.4C455.7 146.976 455.532 146.569 455.232 146.269C454.932 145.968 454.525 145.8 454.1 145.8H452.5ZM457.3 141C457.3 140.576 457.469 140.169 457.769 139.869C458.069 139.568 458.476 139.4 458.9 139.4H460.5C460.925 139.4 461.332 139.568 461.632 139.869C461.932 140.169 462.1 140.576 462.1 141V142.6C462.1 143.024 461.932 143.431 461.632 143.731C461.332 144.031 460.925 144.2 460.5 144.2H458.9C458.476 144.2 458.069 144.031 457.769 143.731C457.469 143.431 457.3 143.024 457.3 142.6V141ZM457.3 147.4C457.3 146.976 457.469 146.569 457.769 146.269C458.069 145.968 458.476 145.8 458.9 145.8H460.5C460.925 145.8 461.332 145.968 461.632 146.269C461.932 146.569 462.1 146.976 462.1 147.4V149C462.1 149.424 461.932 149.831 461.632 150.131C461.332 150.431 460.925 150.6 460.5 150.6H458.9C458.476 150.6 458.069 150.431 457.769 150.131C457.469 149.831 457.3 149.424 457.3 149V147.4Z" fill="#9CA3AF"/>
<path fill-rule="evenodd" clip-rule="evenodd" d="M486.9 145C486.9 146.697 486.225 148.325 485.025 149.526C483.825 150.726 482.197 151.4 480.5 151.4C478.802 151.4 477.174 150.726 475.974 149.526C474.774 148.325 474.1 146.697 474.1 145C474.1 143.303 474.774 141.675 475.974 140.475C477.174 139.274 478.802 138.6 480.5 138.6C482.197 138.6 483.825 139.274 485.025 140.475C486.225 141.675 486.9 143.303 486.9 145V145ZM482.1 142.6C482.1 143.024 481.931 143.431 481.631 143.731C481.331 144.032 480.924 144.2 480.5 144.2C480.075 144.2 479.668 144.032 479.368 143.731C479.068 143.431 478.9 143.024 478.9 142.6C478.9 142.176 479.068 141.769 479.368 141.469C479.668 141.169 480.075 141 480.5 141C480.924 141 481.331 141.169 481.631 141.469C481.931 141.769 482.1 142.176 482.1 142.6V142.6ZM480.5 145.8C479.734 145.8 478.984 146.02 478.339 146.433C477.694 146.847 477.182 147.437 476.863 148.133C477.313 148.657 477.871 149.077 478.499 149.364C479.127 149.652 479.809 149.801 480.5 149.8C481.19 149.801 481.873 149.652 482.5 149.364C483.128 149.077 483.686 148.657 484.136 148.133C483.817 147.437 483.305 146.847 482.66 146.433C482.015 146.02 481.266 145.8 480.5 145.8V145.8Z" fill="#9CA3AF"/>
</g>
<rect width="453" height="29" transform="translate(41.5 160)" fill="#1F2A37"/>
<path d="M68.5476 172H49.119C48.2249 172 47.5 173.119 47.5 174.5C47.5 175.881 48.2249 177 49.119 177H68.5476C69.4418 177 70.1667 175.881 70.1667 174.5C70.1667 173.119 69.4418 172 68.5476 172Z" fill="#6B7280"/>
<path d="M102.214 172H82.7851C81.8909 172 81.166 173.119 81.166 174.5C81.166 175.881 81.8909 177 82.7851 177H102.214C103.108 177 103.833 175.881 103.833 174.5C103.833 173.119 103.108 172 102.214 172Z" fill="#6B7280"/>
<path d="M135.882 172H116.453C115.559 172 114.834 173.119 114.834 174.5C114.834 175.881 115.559 177 116.453 177H135.882C136.776 177 137.501 175.881 137.501 174.5C137.501 173.119 136.776 172 135.882 172Z" fill="#6B7280"/>
<path d="M169.548 172H150.119C149.225 172 148.5 173.119 148.5 174.5C148.5 175.881 149.225 177 150.119 177H169.548C170.442 177 171.167 175.881 171.167 174.5C171.167 173.119 170.442 172 169.548 172Z" fill="#6B7280"/>
<path d="M203.214 172H183.785C182.891 172 182.166 173.119 182.166 174.5C182.166 175.881 182.891 177 183.785 177H203.214C204.108 177 204.833 175.881 204.833 174.5C204.833 173.119 204.108 172 203.214 172Z" fill="#6B7280"/>
<path d="M236.882 172H217.453C216.559 172 215.834 173.119 215.834 174.5C215.834 175.881 216.559 177 217.453 177H236.882C237.776 177 238.501 175.881 238.501 174.5C238.501 173.119 237.776 172 236.882 172Z" fill="#6B7280"/>
<g clip-path="url(#clip2_3377_15929)">
<path d="M486.757 167.5H361.243C360.28 167.5 359.5 168.545 359.5 169.833V179.167C359.5 180.455 360.28 181.5 361.243 181.5H486.757C487.72 181.5 488.5 180.455 488.5 179.167V169.833C488.5 168.545 487.72 167.5 486.757 167.5Z" fill="#374151"/>
</g>
</g>
<g opacity="0.8">
<rect width="453" height="85" transform="translate(41.5 221)" fill="#374151"/>
<path d="M61.2937 234.28C61.252 234.567 61.0626 234.957 60.8454 235.297C60.5714 235.725 60.1365 236.024 59.6388 236.128L57.4463 236.587C57.094 236.66 56.7744 236.845 56.5345 237.113L55.097 238.72C54.8268 239.022 54.6379 238.95 54.6379 238.545C54.6347 238.56 53.9245 240.391 55.8066 241.477C56.5297 241.894 57.5707 241.744 58.2939 241.327L62.1256 239.117C63.5585 238.29 64.5703 236.892 64.9066 235.274C64.9199 235.21 64.9301 235.145 64.9412 235.081L61.2937 234.28Z" fill="url(#paint18_linear_3377_15929)"/>
<path d="M60.3 232.073C61.0232 232.49 61.3187 233.111 61.3187 233.945C61.3187 234.058 61.3098 234.17 61.2938 234.28L62.8377 234.944L64.9414 235.081C65.2107 233.522 64.6828 231.918 63.7365 230.642C63.0243 229.682 62.1079 228.849 61.0061 228.214C60.1112 227.698 59.1811 227.358 58.2467 227.171L57.1969 228.53L56.8652 230.092L60.3 232.073Z" fill="url(#paint19_linear_3377_15929)"/>
<path d="M47.9415 233.217C47.9411 233.218 47.9422 233.218 47.9426 233.217C48.0236 232.974 48.1252 232.703 48.252 232.413C48.9145 230.901 50.1911 229.892 51.7616 229.377C53.3321 228.863 55.0469 229.043 56.4783 229.869L56.8644 230.091L58.2459 227.171C53.8519 226.293 49.3611 228.875 47.9471 233.2C47.9464 233.202 47.9439 233.209 47.9415 233.217Z" fill="url(#paint20_linear_3377_15929)"/>
<path d="M58.1417 241.327C57.4186 241.744 56.5276 241.744 55.8044 241.327C55.7063 241.27 55.6137 241.207 55.5262 241.138L54.2544 242.012L53.1582 243.783C54.3749 244.796 55.9549 245.122 57.5337 244.94C58.7219 244.804 59.9021 244.428 61.0039 243.792C61.8988 243.276 62.6587 242.642 63.2877 241.926L62.6341 240.338L61.5765 239.346L58.1417 241.327Z" fill="url(#paint21_linear_3377_15929)"/>
<path d="M55.5266 241.138C54.9695 240.699 54.6362 240.026 54.6362 239.305V239.233V233.228C54.6362 232.889 54.7363 232.831 55.0307 233.001C54.5773 232.739 53.5299 231.841 52.2366 232.587C51.5135 233.005 50.918 233.925 50.918 234.76V239.18C50.918 240.833 51.7742 242.557 53.0091 243.657C53.058 243.701 53.1085 243.742 53.1586 243.784L55.5266 241.138Z" fill="url(#paint22_linear_3377_15929)"/>
<path d="M63.1986 229.988C63.1977 229.987 63.1969 229.988 63.1977 229.989C63.3678 230.181 63.552 230.404 63.7397 230.659C64.7198 231.988 65.086 233.672 64.7467 235.288C64.4073 236.904 63.3936 238.298 61.9623 239.123L61.5762 239.346L63.2873 241.927C66.2451 238.564 66.2527 233.387 63.2105 230.002C63.209 230 63.204 229.994 63.1986 229.988Z" fill="url(#paint23_linear_3377_15929)"/>
<path d="M51.0682 234.76C51.0682 233.925 51.5137 233.154 52.2369 232.737C52.3351 232.681 52.4365 232.632 52.54 232.591L52.418 231.054L51.5605 229.294C50.0744 229.841 48.8723 230.97 48.2398 232.427C47.7639 233.523 47.5 234.732 47.5 236.003C47.5 237.036 47.6702 238.01 47.9756 238.912L49.6791 239.141L51.0682 238.722V234.76V234.76Z" fill="url(#paint24_linear_3377_15929)"/>
<path d="M52.5401 232.591C53.1991 232.328 53.9492 232.377 54.5742 232.737L54.6366 232.773L59.6402 235.659C59.9912 235.862 59.9593 236.061 59.5626 236.144L59.8512 236.083C60.2311 236.004 60.5781 235.81 60.8434 235.527C61.2997 235.041 61.4672 234.454 61.4672 233.945C61.4672 233.111 61.0217 232.34 60.2986 231.923L56.4669 229.712C55.0339 228.886 53.316 228.71 51.7447 229.228C51.6826 229.248 51.6218 229.272 51.5605 229.294L52.5401 232.591Z" fill="url(#paint25_linear_3377_15929)"/>
<path d="M58.3697 244.804C58.3709 244.804 58.3707 244.803 58.3694 244.803C58.1183 244.855 57.8325 244.902 57.5181 244.937C55.8755 245.12 54.2327 244.595 53.0015 243.494C51.7703 242.392 51.0692 240.818 51.0692 239.167L51.0692 238.722L47.9766 238.912C49.4128 243.152 53.896 245.747 58.3522 244.808C58.3543 244.807 58.3618 244.806 58.3697 244.804Z" fill="url(#paint26_linear_3377_15929)"/>
<path fill-rule="evenodd" clip-rule="evenodd" d="M88.1004 236C88.1004 237.485 87.5104 238.909 86.4602 239.96C85.41 241.01 83.9856 241.6 82.5004 241.6C81.0152 241.6 79.5908 241.01 78.5406 239.96C77.4904 238.909 76.9004 237.485 76.9004 236C76.9004 234.515 77.4904 233.09 78.5406 232.04C79.5908 230.99 81.0152 230.4 82.5004 230.4C83.9856 230.4 85.41 230.99 86.4602 232.04C87.5104 233.09 88.1004 234.515 88.1004 236V236ZM83.9004 233.9C83.9004 234.271 83.7529 234.627 83.4903 234.89C83.2278 235.152 82.8717 235.3 82.5004 235.3C82.1291 235.3 81.773 235.152 81.5104 234.89C81.2479 234.627 81.1004 234.271 81.1004 233.9C81.1004 233.529 81.2479 233.173 81.5104 232.91C81.773 232.647 82.1291 232.5 82.5004 232.5C82.8717 232.5 83.2278 232.647 83.4903 232.91C83.7529 233.173 83.9004 233.529 83.9004 233.9V233.9ZM82.5004 236.7C81.8302 236.7 81.1741 236.892 80.61 237.254C80.0459 237.616 79.5975 238.132 79.3182 238.741C79.7121 239.199 80.2004 239.567 80.7497 239.819C81.2989 240.071 81.8962 240.201 82.5004 240.2C83.1046 240.201 83.7019 240.071 84.2511 239.819C84.8004 239.567 85.2887 239.199 85.6826 238.741C85.4033 238.132 84.9549 237.616 84.3908 237.254C83.8267 236.892 83.1706 236.7 82.5004 236.7V236.7Z" fill="#6B7280"/>
<path d="M126.929 233.5H96.0714C94.6513 233.5 93.5 234.619 93.5 236C93.5 237.381 94.6513 238.5 96.0714 238.5H126.929C128.349 238.5 129.5 237.381 129.5 236C129.5 234.619 128.349 233.5 126.929 233.5Z" fill="#9CA3AF"/>
<path fill-rule="evenodd" clip-rule="evenodd" d="M136.5 232.5C136.632 232.5 136.76 232.553 136.853 232.646L138.353 234.147C138.444 234.241 138.495 234.367 138.494 234.498C138.493 234.629 138.44 234.755 138.347 234.847C138.255 234.94 138.129 234.993 137.998 234.994C137.867 234.995 137.741 234.945 137.646 234.853L136.5 233.707L135.353 234.853C135.259 234.945 135.133 234.995 135.002 234.994C134.871 234.993 134.745 234.94 134.652 234.847C134.56 234.755 134.507 234.629 134.506 234.498C134.505 234.367 134.555 234.241 134.646 234.147L136.146 232.646C136.24 232.553 136.367 232.5 136.5 232.5ZM134.646 237.147C134.74 237.053 134.867 237 135 237C135.132 237 135.26 237.053 135.353 237.147L136.5 238.293L137.646 237.147C137.741 237.055 137.867 237.005 137.998 237.006C138.129 237.007 138.255 237.06 138.347 237.153C138.44 237.245 138.493 237.371 138.494 237.502C138.495 237.633 138.444 237.759 138.353 237.853L136.853 239.354C136.76 239.447 136.632 239.5 136.5 239.5C136.367 239.5 136.24 239.447 136.146 239.354L134.646 237.853C134.553 237.76 134.5 237.633 134.5 237.5C134.5 237.367 134.553 237.24 134.646 237.147V237.147Z" fill="#6B7280"/>
<path d="M384.357 233.5H358.643C357.459 233.5 356.5 234.619 356.5 236C356.5 237.381 357.459 238.5 358.643 238.5H384.357C385.541 238.5 386.5 237.381 386.5 236C386.5 234.619 385.541 233.5 384.357 233.5Z" fill="#9CA3AF"/>
<path d="M435.357 233.5H409.643C408.459 233.5 407.5 234.619 407.5 236C407.5 237.381 408.459 238.5 409.643 238.5H435.357C436.541 238.5 437.5 237.381 437.5 236C437.5 234.619 436.541 233.5 435.357 233.5Z" fill="#9CA3AF"/>
<path d="M486.357 233.5H460.643C459.459 233.5 458.5 234.619 458.5 236C458.5 237.381 459.459 238.5 460.643 238.5H486.357C487.541 238.5 488.5 237.381 488.5 236C488.5 234.619 487.541 233.5 486.357 233.5Z" fill="#9CA3AF"/>
<mask id="path-62-inside-1_3377_15929" fill="white">
<path d="M41.5 251H494.5V280H41.5V251Z"/>
</mask>
<path d="M41.5 251H494.5V280H41.5V251Z" fill="#374151"/>
<path d="M77.369 263H49.7976C48.5287 263 47.5 264.119 47.5 265.5C47.5 266.881 48.5287 268 49.7976 268H77.369C78.638 268 79.6667 266.881 79.6667 265.5C79.6667 264.119 78.638 263 77.369 263Z" fill="#6B7280"/>
<path d="M123.535 263H95.9636C94.6947 263 93.666 264.119 93.666 265.5C93.666 266.881 94.6947 268 95.9636 268H123.535C124.804 268 125.833 266.881 125.833 265.5C125.833 264.119 124.804 263 123.535 263Z" fill="#6B7280"/>
<path d="M169.703 263H142.132C140.863 263 139.834 264.119 139.834 265.5C139.834 266.881 140.863 268 142.132 268H169.703C170.972 268 172.001 266.881 172.001 265.5C172.001 264.119 170.972 263 169.703 263Z" fill="#6B7280"/>
<path d="M215.869 263H188.298C187.029 263 186 264.119 186 265.5C186 266.881 187.029 268 188.298 268H215.869C217.138 268 218.167 266.881 218.167 265.5C218.167 264.119 217.138 263 215.869 263Z" fill="#6B7280"/>
<path d="M262.035 263H234.464C233.195 263 232.166 264.119 232.166 265.5C232.166 266.881 233.195 268 234.464 268H262.035C263.304 268 264.333 266.881 264.333 265.5C264.333 264.119 263.304 263 262.035 263Z" fill="#6B7280"/>
<path d="M308.203 263H280.632C279.363 263 278.334 264.119 278.334 265.5C278.334 266.881 279.363 268 280.632 268H308.203C309.472 268 310.501 266.881 310.501 265.5C310.501 264.119 309.472 263 308.203 263Z" fill="#6B7280"/>
<path d="M41.5 251.5H494.5V250.5H41.5V251.5ZM494.5 279.5H41.5V280.5H494.5V279.5Z" fill="#4B5563" mask="url(#path-62-inside-1_3377_15929)"/>
<rect width="453" height="26" transform="translate(41.5 280)" fill="#1F2A37"/>
<g clip-path="url(#clip3_3377_15929)">
<path d="M174.757 286H49.2432C48.2805 286 47.5 287.045 47.5 288.333V297.667C47.5 298.955 48.2805 300 49.2432 300H174.757C175.72 300 176.5 298.955 176.5 297.667V288.333C176.5 287.045 175.72 286 174.757 286Z" fill="#374151"/>
</g>
<rect x="47.75" y="286.25" width="128.5" height="13.5" rx="1.75" stroke="#4B5563" stroke-width="0.5"/>
<rect x="180.75" y="286.25" width="43.5" height="13.5" rx="1.75" fill="#1F2A37"/>
<rect x="190.5" y="291.5" width="24" height="3" rx="1.5" fill="#9CA3AF"/>
<rect x="180.75" y="286.25" width="43.5" height="13.5" rx="1.75" stroke="#374151" stroke-width="0.5"/>
<rect x="228.5" y="286" width="44" height="14" rx="2" fill="#1A56DB"/>
<rect x="238.5" y="291.455" width="24" height="3.09" rx="1.545" fill="white"/>
</g>
<defs>
<linearGradient id="paint0_linear_3377_15929" x1="58.7852" y1="58.3706" x2="60.5557" y2="52.2038" gradientUnits="userSpaceOnUse">
<stop stop-color="#1724C9"/>
<stop offset="1" stop-color="#1C64F2"/>
</linearGradient>
<linearGradient id="paint1_linear_3377_15929" x1="62.8631" y1="50.8504" x2="58.2058" y2="46.2095" gradientUnits="userSpaceOnUse">
<stop stop-color="#1C64F2"/>
<stop offset="1" stop-color="#0092FF"/>
</linearGradient>
<linearGradient id="paint2_linear_3377_15929" x1="56.5932" y1="47.8244" x2="49.5675" y2="48.2683" gradientUnits="userSpaceOnUse">
<stop stop-color="#0092FF"/>
<stop offset="1" stop-color="#45B2FF"/>
</linearGradient>
<linearGradient id="paint3_linear_3377_15929" x1="56.1167" y1="61.1225" x2="62.4261" y2="59.42" gradientUnits="userSpaceOnUse">
<stop stop-color="#1C64F2"/>
<stop offset="1" stop-color="#0092FF"/>
</linearGradient>
<linearGradient id="paint4_linear_3377_15929" x1="51.5884" y1="53.8216" x2="56.068" y2="58.4633" gradientUnits="userSpaceOnUse">
<stop stop-color="#1724C9"/>
<stop offset="1" stop-color="#1C64F2"/>
</linearGradient>
<linearGradient id="paint5_linear_3377_15929" x1="61.8148" y1="57.1701" x2="64.9403" y2="50.8694" gradientUnits="userSpaceOnUse">
<stop stop-color="#0092FF"/>
<stop offset="1" stop-color="#45B2FF"/>
</linearGradient>
<linearGradient id="paint6_linear_3377_15929" x1="50.5172" y1="50.1362" x2="48.8447" y2="56.4225" gradientUnits="userSpaceOnUse">
<stop stop-color="#1C64F2"/>
<stop offset="1" stop-color="#0092FF"/>
</linearGradient>
<linearGradient id="paint7_linear_3377_15929" x1="59.0556" y1="49.837" x2="52.9438" y2="51.3587" gradientUnits="userSpaceOnUse">
<stop stop-color="#1724C9"/>
<stop offset="1" stop-color="#1C64F2"/>
</linearGradient>
<linearGradient id="paint8_linear_3377_15929" x1="51.1047" y1="57.0129" x2="55.0005" y2="62.873" gradientUnits="userSpaceOnUse">
<stop stop-color="#0092FF"/>
<stop offset="1" stop-color="#45B2FF"/>
</linearGradient>
<linearGradient id="paint9_linear_3377_15929" x1="58.7852" y1="149.371" x2="60.5557" y2="143.204" gradientUnits="userSpaceOnUse">
<stop stop-color="#1724C9"/>
<stop offset="1" stop-color="#1C64F2"/>
</linearGradient>
<linearGradient id="paint10_linear_3377_15929" x1="62.8631" y1="141.85" x2="58.2058" y2="137.209" gradientUnits="userSpaceOnUse">
<stop stop-color="#1C64F2"/>
<stop offset="1" stop-color="#0092FF"/>
</linearGradient>
<linearGradient id="paint11_linear_3377_15929" x1="56.5932" y1="138.824" x2="49.5675" y2="139.268" gradientUnits="userSpaceOnUse">
<stop stop-color="#0092FF"/>
<stop offset="1" stop-color="#45B2FF"/>
</linearGradient>
<linearGradient id="paint12_linear_3377_15929" x1="56.1167" y1="152.123" x2="62.4261" y2="150.42" gradientUnits="userSpaceOnUse">
<stop stop-color="#1C64F2"/>
<stop offset="1" stop-color="#0092FF"/>
</linearGradient>
<linearGradient id="paint13_linear_3377_15929" x1="51.5884" y1="144.822" x2="56.068" y2="149.463" gradientUnits="userSpaceOnUse">
<stop stop-color="#1724C9"/>
<stop offset="1" stop-color="#1C64F2"/>
</linearGradient>
<linearGradient id="paint14_linear_3377_15929" x1="61.8148" y1="148.17" x2="64.9403" y2="141.869" gradientUnits="userSpaceOnUse">
<stop stop-color="#0092FF"/>
<stop offset="1" stop-color="#45B2FF"/>
</linearGradient>
<linearGradient id="paint15_linear_3377_15929" x1="50.5172" y1="141.136" x2="48.8447" y2="147.422" gradientUnits="userSpaceOnUse">
<stop stop-color="#1C64F2"/>
<stop offset="1" stop-color="#0092FF"/>
</linearGradient>
<linearGradient id="paint16_linear_3377_15929" x1="59.0556" y1="140.837" x2="52.9438" y2="142.359" gradientUnits="userSpaceOnUse">
<stop stop-color="#1724C9"/>
<stop offset="1" stop-color="#1C64F2"/>
</linearGradient>
<linearGradient id="paint17_linear_3377_15929" x1="51.1047" y1="148.013" x2="55.0005" y2="153.873" gradientUnits="userSpaceOnUse">
<stop stop-color="#0092FF"/>
<stop offset="1" stop-color="#45B2FF"/>
</linearGradient>
<linearGradient id="paint18_linear_3377_15929" x1="58.7852" y1="240.371" x2="60.5557" y2="234.204" gradientUnits="userSpaceOnUse">
<stop stop-color="#1724C9"/>
<stop offset="1" stop-color="#1C64F2"/>
</linearGradient>
<linearGradient id="paint19_linear_3377_15929" x1="62.8631" y1="232.85" x2="58.2058" y2="228.209" gradientUnits="userSpaceOnUse">
<stop stop-color="#1C64F2"/>
<stop offset="1" stop-color="#0092FF"/>
</linearGradient>
<linearGradient id="paint20_linear_3377_15929" x1="56.5932" y1="229.824" x2="49.5675" y2="230.268" gradientUnits="userSpaceOnUse">
<stop stop-color="#0092FF"/>
<stop offset="1" stop-color="#45B2FF"/>
</linearGradient>
<linearGradient id="paint21_linear_3377_15929" x1="56.1167" y1="243.123" x2="62.4261" y2="241.42" gradientUnits="userSpaceOnUse">
<stop stop-color="#1C64F2"/>
<stop offset="1" stop-color="#0092FF"/>
</linearGradient>
<linearGradient id="paint22_linear_3377_15929" x1="51.5884" y1="235.822" x2="56.068" y2="240.463" gradientUnits="userSpaceOnUse">
<stop stop-color="#1724C9"/>
<stop offset="1" stop-color="#1C64F2"/>
</linearGradient>
<linearGradient id="paint23_linear_3377_15929" x1="61.8148" y1="239.17" x2="64.9403" y2="232.869" gradientUnits="userSpaceOnUse">
<stop stop-color="#0092FF"/>
<stop offset="1" stop-color="#45B2FF"/>
</linearGradient>
<linearGradient id="paint24_linear_3377_15929" x1="50.5172" y1="232.136" x2="48.8447" y2="238.422" gradientUnits="userSpaceOnUse">
<stop stop-color="#1C64F2"/>
<stop offset="1" stop-color="#0092FF"/>
</linearGradient>
<linearGradient id="paint25_linear_3377_15929" x1="59.0556" y1="231.837" x2="52.9438" y2="233.359" gradientUnits="userSpaceOnUse">
<stop stop-color="#1724C9"/>
<stop offset="1" stop-color="#1C64F2"/>
</linearGradient>
<linearGradient id="paint26_linear_3377_15929" x1="51.1047" y1="239.013" x2="55.0005" y2="244.873" gradientUnits="userSpaceOnUse">
<stop stop-color="#0092FF"/>
<stop offset="1" stop-color="#45B2FF"/>
</linearGradient>
<clipPath id="clip0_3377_15929">
<rect width="364" height="14" fill="white" transform="translate(124.5 47)"/>
</clipPath>
<clipPath id="clip1_3377_15929">
<rect width="81" height="16" fill="white" transform="translate(407.5 137)"/>
</clipPath>
<clipPath id="clip2_3377_15929">
<rect width="129" height="14" fill="white" transform="translate(359.5 167.5)"/>
</clipPath>
<clipPath id="clip3_3377_15929">
<rect x="47.5" y="286" width="129" height="14" rx="2" fill="white"/>
</clipPath>
</defs>
</svg>
