<svg width="536" height="345" viewBox="0 0 536 345" fill="none" xmlns="http://www.w3.org/2000/svg">
<mask id="path-1-inside-1_3366_5287" fill="white">
<path d="M202 12C202 10.8954 202.895 10 204 10H231V335H204C202.895 335 202 334.105 202 333V12Z"/>
</mask>
<path d="M202 12C202 10.8954 202.895 10 204 10H231V335H204C202.895 335 202 334.105 202 333V12Z" fill="#374151"/>
<path d="M219.695 26.853C219.667 27.0445 219.541 27.3045 219.396 27.5307C219.213 27.816 218.923 28.0158 218.592 28.0852L217.13 28.3909C216.895 28.44 216.682 28.563 216.522 28.7418L215.563 29.8131C215.383 30.0145 215.257 29.9665 215.257 29.6964C215.255 29.7064 214.782 30.9276 216.037 31.6514C216.519 31.9295 217.213 31.8295 217.695 31.5514L220.25 30.0779C221.205 29.5268 221.88 28.5945 222.104 27.5153C222.113 27.4727 222.12 27.4298 222.127 27.387L219.695 26.853Z" fill="url(#paint0_linear_3366_5287)"/>
<path d="M219.032 25.3816C219.514 25.6597 219.711 26.0737 219.711 26.6299C219.711 26.7054 219.706 26.78 219.695 26.8535L220.724 27.2957L222.127 27.3875C222.306 26.348 221.954 25.2782 221.323 24.4277C220.849 23.7877 220.238 23.2324 219.503 22.8087C218.906 22.4645 218.286 22.2377 217.663 22.1133L216.963 23.0198L216.742 24.0606L219.032 25.3816Z" fill="url(#paint1_linear_3366_5287)"/>
<path d="M210.793 26.1448C210.793 26.1457 210.793 26.1459 210.794 26.1451C210.848 25.9831 210.916 25.8023 211 25.6093C211.442 24.6006 212.293 23.9279 213.34 23.5849C214.387 23.242 215.53 23.3622 216.485 23.9126L216.742 24.0611L217.663 22.1138C214.734 21.5287 211.74 23.2498 210.797 26.1336C210.796 26.1349 210.795 26.1398 210.793 26.1448Z" fill="url(#paint2_linear_3366_5287)"/>
<path d="M217.596 31.5524C217.114 31.8305 216.52 31.8305 216.038 31.5524C215.972 31.5146 215.911 31.4722 215.852 31.4262L215.004 32.0092L214.273 33.1903C215.085 33.8654 216.138 34.0824 217.191 33.9617C217.983 33.8708 218.77 33.6199 219.504 33.1962C220.101 32.852 220.608 32.4289 221.027 31.9521L220.591 30.8932L219.886 30.2314L217.596 31.5524Z" fill="url(#paint3_linear_3366_5287)"/>
<path d="M215.852 31.4261C215.481 31.1335 215.258 30.6847 215.258 30.204V30.156V26.1524C215.258 25.926 215.325 25.8875 215.521 26.0007C215.219 25.8264 214.521 25.2278 213.658 25.7251C213.176 26.0032 212.779 26.6171 212.779 27.1733V30.1205C212.779 31.2227 213.35 32.3724 214.174 33.1059C214.206 33.135 214.24 33.1623 214.273 33.1901L215.852 31.4261Z" fill="url(#paint4_linear_3366_5287)"/>
<path d="M220.968 23.9925C220.968 23.9918 220.967 23.9924 220.968 23.993C221.081 24.1207 221.204 24.2697 221.329 24.4394C221.983 25.3259 222.227 26.4486 222.001 27.5261C221.774 28.6036 221.098 29.5326 220.144 30.0831L219.887 30.2316L221.028 31.9522C223 29.7101 223.005 26.2589 220.976 24.0013C220.975 24.0003 220.972 23.9964 220.968 23.9925Z" fill="url(#paint5_linear_3366_5287)"/>
<path d="M212.879 27.1736C212.879 26.6173 213.176 26.1034 213.658 25.8253C213.724 25.7875 213.791 25.7554 213.86 25.7278L213.779 24.7027L213.207 23.5298C212.216 23.8941 211.415 24.647 210.993 25.6182C210.676 26.349 210.5 27.1553 210.5 28.0027C210.5 28.6911 210.613 29.341 210.817 29.9422L211.953 30.0946L212.879 29.8154V27.1736V27.1736Z" fill="url(#paint6_linear_3366_5287)"/>
<path d="M213.862 25.7282C214.301 25.5531 214.802 25.5853 215.218 25.8257L215.26 25.8496L218.596 27.7739C218.83 27.9089 218.809 28.0417 218.544 28.097L218.737 28.0568C218.99 28.0038 219.221 27.8744 219.398 27.6858C219.702 27.3616 219.814 26.9704 219.814 26.6309C219.814 26.0746 219.517 25.5607 219.035 25.2826L216.48 23.809C215.525 23.2579 214.379 23.1404 213.332 23.486C213.29 23.4997 213.25 23.5152 213.209 23.5302L213.862 25.7282Z" fill="url(#paint7_linear_3366_5287)"/>
<path d="M217.75 33.8709C217.751 33.8707 217.75 33.87 217.75 33.8701C217.582 33.9044 217.392 33.9362 217.182 33.9596C216.087 34.0817 214.991 33.7316 214.171 32.9971C213.35 32.2626 212.882 31.2133 212.882 30.1124L212.882 29.8154L210.82 29.9422C211.778 32.7695 214.767 34.4995 217.738 33.8733C217.74 33.873 217.745 33.872 217.75 33.8709Z" fill="url(#paint8_linear_3366_5287)"/>
<path fill-rule="evenodd" clip-rule="evenodd" d="M214.099 47.2012C213.94 47.2012 213.787 47.2644 213.675 47.3769C213.562 47.4894 213.499 47.642 213.499 47.8012V48.4012H212.899C212.581 48.4012 212.276 48.5276 212.051 48.7526C211.826 48.9777 211.699 49.2829 211.699 49.6012V55.6012C211.699 55.9194 211.826 56.2247 212.051 56.4497C212.276 56.6747 212.581 56.8012 212.899 56.8012H220.099C220.417 56.8012 220.723 56.6747 220.948 56.4497C221.173 56.2247 221.299 55.9194 221.299 55.6012V49.6012C221.299 49.2829 221.173 48.9777 220.948 48.7526C220.723 48.5276 220.417 48.4012 220.099 48.4012H219.499V47.8012C219.499 47.642 219.436 47.4894 219.323 47.3769C219.211 47.2644 219.058 47.2012 218.899 47.2012C218.74 47.2012 218.587 47.2644 218.475 47.3769C218.362 47.4894 218.299 47.642 218.299 47.8012V48.4012H214.699V47.8012C214.699 47.642 214.636 47.4894 214.523 47.3769C214.411 47.2644 214.258 47.2012 214.099 47.2012V47.2012ZM214.099 50.2012C213.94 50.2012 213.787 50.2644 213.675 50.3769C213.562 50.4894 213.499 50.642 213.499 50.8012C213.499 50.9603 213.562 51.1129 213.675 51.2254C213.787 51.338 213.94 51.4012 214.099 51.4012H218.899C219.058 51.4012 219.211 51.338 219.323 51.2254C219.436 51.1129 219.499 50.9603 219.499 50.8012C219.499 50.642 219.436 50.4894 219.323 50.3769C219.211 50.2644 219.058 50.2012 218.899 50.2012H214.099Z" fill="#9CA3AF"/>
<path d="M216.924 67.3768C216.811 67.2644 216.659 67.2012 216.5 67.2012C216.341 67.2012 216.188 67.2644 216.075 67.3768L211.875 71.5768C211.766 71.69 211.706 71.8416 211.707 71.9989C211.708 72.1562 211.772 72.3067 211.883 72.4179C211.994 72.5292 212.144 72.5923 212.302 72.5936C212.459 72.595 212.611 72.5345 212.724 72.4252L212.9 72.2494V76.201C212.9 76.3602 212.963 76.5128 213.075 76.6253C213.188 76.7378 213.341 76.801 213.5 76.801H214.7C214.859 76.801 215.011 76.7378 215.124 76.6253C215.236 76.5128 215.3 76.3602 215.3 76.201V75.001C215.3 74.8419 215.363 74.6893 215.475 74.5768C215.588 74.4643 215.741 74.401 215.9 74.401H217.1C217.259 74.401 217.411 74.4643 217.524 74.5768C217.636 74.6893 217.7 74.8419 217.7 75.001V76.201C217.7 76.3602 217.763 76.5128 217.875 76.6253C217.988 76.7378 218.141 76.801 218.3 76.801H219.5C219.659 76.801 219.811 76.7378 219.924 76.6253C220.036 76.5128 220.1 76.3602 220.1 76.201V72.2494L220.275 72.4252C220.389 72.5345 220.54 72.595 220.697 72.5936C220.855 72.5923 221.005 72.5292 221.117 72.4179C221.228 72.3067 221.291 72.1562 221.292 71.9989C221.294 71.8416 221.233 71.69 221.124 71.5768L216.924 67.3768V67.3768Z" fill="#9CA3AF"/>
<path d="M215.901 87.2012C215.742 87.2012 215.589 87.2644 215.477 87.3769C215.364 87.4894 215.301 87.642 215.301 87.8012C215.301 87.9603 215.364 88.1129 215.477 88.2254C215.589 88.338 215.742 88.4012 215.901 88.4012H217.101C217.26 88.4012 217.413 88.338 217.525 88.2254C217.638 88.1129 217.701 87.9603 217.701 87.8012C217.701 87.642 217.638 87.4894 217.525 87.3769C217.413 87.2644 217.26 87.2012 217.101 87.2012H215.901Z" fill="#9CA3AF"/>
<path fill-rule="evenodd" clip-rule="evenodd" d="M212.9 89.0008C212.9 88.6825 213.027 88.3773 213.252 88.1523C213.477 87.9272 213.782 87.8008 214.1 87.8008C214.1 88.2782 214.29 88.736 214.628 89.0736C214.965 89.4111 215.423 89.6008 215.9 89.6008H217.1C217.578 89.6008 218.036 89.4111 218.373 89.0736C218.711 88.736 218.9 88.2782 218.9 87.8008C219.219 87.8008 219.524 87.9272 219.749 88.1523C219.974 88.3773 220.1 88.6825 220.1 89.0008V95.6008C220.1 95.919 219.974 96.2243 219.749 96.4493C219.524 96.6744 219.219 96.8008 218.9 96.8008H214.1C213.782 96.8008 213.477 96.6744 213.252 96.4493C213.027 96.2243 212.9 95.919 212.9 95.6008V89.0008ZM214.7 91.4008C214.541 91.4008 214.389 91.464 214.276 91.5765C214.164 91.689 214.1 91.8417 214.1 92.0008C214.1 92.1599 214.164 92.3125 214.276 92.425C214.389 92.5376 214.541 92.6008 214.7 92.6008H214.706C214.866 92.6008 215.018 92.5376 215.131 92.425C215.243 92.3125 215.306 92.1599 215.306 92.0008C215.306 91.8417 215.243 91.689 215.131 91.5765C215.018 91.464 214.866 91.4008 214.706 91.4008H214.7ZM216.5 91.4008C216.341 91.4008 216.189 91.464 216.076 91.5765C215.964 91.689 215.9 91.8417 215.9 92.0008C215.9 92.1599 215.964 92.3125 216.076 92.425C216.189 92.5376 216.341 92.6008 216.5 92.6008H218.3C218.46 92.6008 218.612 92.5376 218.725 92.425C218.837 92.3125 218.9 92.1599 218.9 92.0008C218.9 91.8417 218.837 91.689 218.725 91.5765C218.612 91.464 218.46 91.4008 218.3 91.4008H216.5ZM214.7 93.8008C214.541 93.8008 214.389 93.864 214.276 93.9765C214.164 94.089 214.1 94.2417 214.1 94.4008C214.1 94.5599 214.164 94.7125 214.276 94.825C214.389 94.9376 214.541 95.0008 214.7 95.0008H214.706C214.866 95.0008 215.018 94.9376 215.131 94.825C215.243 94.7125 215.306 94.5599 215.306 94.4008C215.306 94.2417 215.243 94.089 215.131 93.9765C215.018 93.864 214.866 93.8008 214.706 93.8008H214.7ZM216.5 93.8008C216.341 93.8008 216.189 93.864 216.076 93.9765C215.964 94.089 215.9 94.2417 215.9 94.4008C215.9 94.5599 215.964 94.7125 216.076 94.825C216.189 94.9376 216.341 95.0008 216.5 95.0008H218.3C218.46 95.0008 218.612 94.9376 218.725 94.825C218.837 94.7125 218.9 94.5599 218.9 94.4008C218.9 94.2417 218.837 94.089 218.725 93.9765C218.612 93.864 218.46 93.8008 218.3 93.8008H216.5Z" fill="#9CA3AF"/>
<path d="M222.5 107.501H210.5V108.501H222.5V107.501Z" fill="#4B5563" mask="url(#path-12-inside-2_3366_5287)"/>
<path d="M216.5 117.001V120.001M216.5 120.001V123.001M216.5 120.001H219.5M216.5 120.001H213.5" stroke="white" stroke-linecap="round" stroke-linejoin="round"/>
<path d="M201.5 12C201.5 10.6193 202.619 9.5 204 9.5H231V10.5H204C203.172 10.5 202.5 11.1716 202.5 12H201.5ZM231 335.5H204C202.619 335.5 201.5 334.381 201.5 333H202.5C202.5 333.828 203.172 334.5 204 334.5H231V335.5ZM204 335.5C202.619 335.5 201.5 334.381 201.5 333V12C201.5 10.6193 202.619 9.5 204 9.5V10.5C203.172 10.5 202.5 11.1716 202.5 12V333C202.5 333.828 203.172 334.5 204 334.5V335.5ZM231 10V335V10Z" fill="#4B5563" mask="url(#path-1-inside-1_3366_5287)"/>
<path d="M231.25 10.25H332C332.966 10.25 333.75 11.0335 333.75 12V333C333.75 333.966 332.966 334.75 332 334.75H231.25V10.25Z" fill="#374151"/>
<mask id="mask0_3366_5287" style="mask-type:alpha" maskUnits="userSpaceOnUse" x="243" y="22" width="14" height="14">
<circle cx="250" cy="29" r="7" fill="#E5E7EB"/>
</mask>
<g mask="url(#mask0_3366_5287)">
<circle cx="250" cy="29" r="7" fill="#4B5563"/>
<path fill-rule="evenodd" clip-rule="evenodd" d="M250.001 29.7112C250.594 29.7112 251.163 29.4755 251.583 29.056C252.002 28.6365 252.238 28.0675 252.238 27.4743C252.238 26.881 252.002 26.312 251.583 25.8925C251.163 25.473 250.594 25.2373 250.001 25.2373C249.408 25.2373 248.839 25.473 248.419 25.8925C248 26.312 247.764 26.881 247.764 27.4743C247.764 28.0675 248 28.6365 248.419 29.056C248.839 29.4755 249.408 29.7112 250.001 29.7112ZM244.781 36.4221C244.781 35.7366 244.916 35.0579 245.179 34.4246C245.441 33.7914 245.825 33.216 246.31 32.7313C246.795 32.2466 247.37 31.8621 248.003 31.5998C248.637 31.3375 249.315 31.2025 250.001 31.2025C250.686 31.2025 251.365 31.3375 251.998 31.5998C252.632 31.8621 253.207 32.2466 253.692 32.7313C254.176 33.216 254.561 33.7914 254.823 34.4246C255.085 35.0579 255.22 35.7366 255.22 36.4221H244.781Z" fill="#9CA3AF"/>
</g>
<rect x="261" y="24" width="49" height="4" rx="1" fill="#9CA3AF"/>
<rect x="261" y="31" width="32" height="3" rx="1" fill="#6B7280"/>
<rect x="243" y="48" width="5" height="5" rx="1" fill="#6B7280"/>
<rect x="252" y="48" width="57" height="5" rx="1" fill="#9CA3AF"/>
<rect x="243" y="63" width="5" height="5" rx="1" fill="#6B7280"/>
<rect x="252" y="63" width="48.4961" height="5" rx="1" fill="#9CA3AF"/>
<rect x="243" y="78" width="5" height="5" rx="1" fill="#6B7280"/>
<rect x="252" y="78" width="61" height="5" rx="1" fill="#9CA3AF"/>
<rect x="243" y="93" width="5" height="5" rx="1" fill="#6B7280"/>
<rect x="252" y="93" width="39" height="5" rx="1" fill="#9CA3AF"/>
<rect x="243" y="108" width="5" height="5" rx="1" fill="#6B7280"/>
<rect x="252" y="108" width="61" height="5" rx="1" fill="#9CA3AF"/>
<path d="M322 127.5H243V128.5H322V127.5Z" fill="#4B5563" mask="url(#path-25-inside-3_3366_5287)"/>
<rect x="243" y="143" width="5" height="5" rx="1" fill="#6B7280"/>
<rect x="252" y="143" width="42" height="5" rx="1" fill="#9CA3AF"/>
<rect x="243" y="158" width="5" height="5" rx="1" fill="#6B7280"/>
<rect x="252" y="158" width="25" height="5" rx="1" fill="#9CA3AF"/>
<rect x="243" y="173" width="5" height="5" rx="1" fill="#6B7280"/>
<rect x="252" y="173" width="41" height="5" rx="1" fill="#9CA3AF"/>
<rect x="263" y="318" width="5" height="5" rx="2.5" fill="#6B7280"/>
<rect x="280" y="318" width="5" height="5" rx="2.5" fill="#6B7280"/>
<rect x="297" y="318" width="5" height="5" rx="2.5" fill="#6B7280"/>
<path d="M231.25 10.25H332C332.966 10.25 333.75 11.0335 333.75 12V333C333.75 333.966 332.966 334.75 332 334.75H231.25V10.25Z" stroke="#4B5563" stroke-width="0.5"/>
<defs>
<linearGradient id="paint0_linear_3366_5287" x1="218.022" y1="30.9137" x2="219.203" y2="26.8021" gradientUnits="userSpaceOnUse">
<stop stop-color="#1724C9"/>
<stop offset="1" stop-color="#1C64F2"/>
</linearGradient>
<linearGradient id="paint1_linear_3366_5287" x1="220.741" y1="25.9" x2="217.636" y2="22.8058" gradientUnits="userSpaceOnUse">
<stop stop-color="#1C64F2"/>
<stop offset="1" stop-color="#0092FF"/>
</linearGradient>
<linearGradient id="paint2_linear_3366_5287" x1="216.561" y1="23.8831" x2="211.877" y2="24.1791" gradientUnits="userSpaceOnUse">
<stop stop-color="#0092FF"/>
<stop offset="1" stop-color="#45B2FF"/>
</linearGradient>
<linearGradient id="paint3_linear_3366_5287" x1="216.246" y1="32.7496" x2="220.453" y2="31.6144" gradientUnits="userSpaceOnUse">
<stop stop-color="#1C64F2"/>
<stop offset="1" stop-color="#0092FF"/>
</linearGradient>
<linearGradient id="paint4_linear_3366_5287" x1="213.226" y1="27.8814" x2="216.213" y2="30.9763" gradientUnits="userSpaceOnUse">
<stop stop-color="#1724C9"/>
<stop offset="1" stop-color="#1C64F2"/>
</linearGradient>
<linearGradient id="paint5_linear_3366_5287" x1="220.046" y1="30.1143" x2="222.13" y2="25.9135" gradientUnits="userSpaceOnUse">
<stop stop-color="#0092FF"/>
<stop offset="1" stop-color="#45B2FF"/>
</linearGradient>
<linearGradient id="paint6_linear_3366_5287" x1="212.512" y1="25.4245" x2="211.397" y2="29.6158" gradientUnits="userSpaceOnUse">
<stop stop-color="#1C64F2"/>
<stop offset="1" stop-color="#0092FF"/>
</linearGradient>
<linearGradient id="paint7_linear_3366_5287" x1="218.206" y1="25.2255" x2="214.131" y2="26.2401" gradientUnits="userSpaceOnUse">
<stop stop-color="#1724C9"/>
<stop offset="1" stop-color="#1C64F2"/>
</linearGradient>
<linearGradient id="paint8_linear_3366_5287" x1="212.906" y1="30.0096" x2="215.503" y2="33.9167" gradientUnits="userSpaceOnUse">
<stop stop-color="#0092FF"/>
<stop offset="1" stop-color="#45B2FF"/>
</linearGradient>
</defs>
</svg>
