<svg width="536" height="345" viewBox="0 0 536 345" fill="none" xmlns="http://www.w3.org/2000/svg">
<rect x="72" y="44.5" width="284" height="9" rx="4.5" fill="#6B7280"/>
<rect x="72" y="65.5" width="230" height="7" rx="3.5" fill="#9CA3AF"/>
<rect x="72" y="78.5" width="209" height="7" rx="3.5" fill="#9CA3AF"/>
<rect x="72" y="105.5" width="286" height="5" rx="2.5" fill="#D1D5DB"/>
<rect x="72" y="115.5" width="275" height="5" rx="2.5" fill="#D1D5DB"/>
<rect x="72" y="125.5" width="87.3333" height="5" rx="2.5" fill="#D1D5DB"/>
<rect x="171.332" y="125.5" width="87.3333" height="5" rx="2.5" fill="#E5E7EB"/>
<rect x="270.668" y="125.5" width="87.3333" height="5" rx="2.5" fill="#D1D5DB"/>
<rect x="72" y="135.5" width="286" height="5" rx="2.5" fill="#D1D5DB"/>
<rect x="72" y="145.5" width="241" height="5" rx="2.5" fill="#D1D5DB"/>
<rect x="72" y="155.5" width="78" height="5" rx="2.5" fill="#D1D5DB"/>
<rect x="162" y="155.5" width="78" height="5" rx="2.5" fill="#E5E7EB"/>
<rect x="252" y="155.5" width="107" height="5" rx="2.5" fill="#D1D5DB"/>
<rect x="72" y="165.5" width="285" height="5" rx="2.5" fill="#D1D5DB"/>
<rect x="72" y="185.5" width="286" height="5" rx="2.5" fill="#D1D5DB"/>
<rect x="72" y="195.5" width="275" height="5" rx="2.5" fill="#D1D5DB"/>
<rect x="72" y="205.5" width="199" height="5" rx="2.5" fill="#D1D5DB"/>
<rect x="283" y="205.5" width="31.5" height="5" rx="2.5" fill="#E5E7EB"/>
<rect x="326.5" y="205.5" width="31.5" height="5" rx="2.5" fill="#D1D5DB"/>
<rect x="72" y="215.5" width="175" height="5" rx="2.5" fill="#E5E7EB"/>
<rect x="259" y="215.5" width="99" height="5" rx="2.5" fill="#D1D5DB"/>
<rect x="72" y="225.5" width="282" height="5" rx="2.5" fill="#D1D5DB"/>
<rect x="72" y="235.5" width="286" height="5" rx="2.5" fill="#D1D5DB"/>
<rect x="72" y="245.5" width="241" height="5" rx="2.5" fill="#D1D5DB"/>
<rect x="72" y="255.5" width="199" height="5" rx="2.5" fill="#D1D5DB"/>
<rect x="283" y="255.5" width="31.5" height="5" rx="2.5" fill="#E5E7EB"/>
<rect x="326.5" y="255.5" width="31.5" height="5" rx="2.5" fill="#D1D5DB"/>
<rect x="72" y="265.5" width="78" height="5" rx="2.5" fill="#D1D5DB"/>
<rect x="162" y="265.5" width="78" height="5" rx="2.5" fill="#E5E7EB"/>
<rect x="252" y="265.5" width="106" height="5" rx="2.5" fill="#D1D5DB"/>
<rect x="72" y="275.5" width="276" height="5" rx="2.5" fill="#D1D5DB"/>
<rect x="72" y="285.5" width="282" height="5" rx="2.5" fill="#D1D5DB"/>
<rect x="72" y="295.5" width="78" height="5" rx="2.5" fill="#D1D5DB"/>
<rect x="162" y="295.5" width="78" height="5" rx="2.5" fill="#E5E7EB"/>
<rect x="252" y="295.5" width="106" height="5" rx="2.5" fill="#D1D5DB"/>
<rect x="384" y="44.5" width="80" height="59" rx="8" fill="white"/>
<rect x="384" y="44.5" width="47" height="4" rx="2" fill="#9CA3AF"/>
<rect x="384" y="52.5" width="78" height="3" rx="1.5" fill="#D1D5DB"/>
<rect x="384" y="58.5" width="71" height="3" rx="1.5" fill="#D1D5DB"/>
<rect x="384" y="64.5" width="71" height="3" rx="1.5" fill="#D1D5DB"/>
<rect x="383.5" y="73" width="79" height="13" rx="2.5" fill="white"/>
<rect x="389" y="78.5" width="56" height="2" rx="1" fill="#E5E7EB"/>
<rect x="383.5" y="73" width="79" height="13" rx="2.5" stroke="#D1D5DB"/>
<rect x="384" y="92.5" width="80" height="11" rx="2" fill="#1A56DB"/>
<rect x="400.5" y="96.5" width="47" height="3" rx="1" fill="white"/>
<rect x="384" y="117.5" width="71.7043" height="4" rx="2" fill="#9CA3AF"/>
<rect x="384" y="125.5" width="46.2609" height="3" rx="1.5" fill="#D1D5DB"/>
<rect x="384" y="132.5" width="80" height="3" rx="1.5" fill="#D1D5DB"/>
<rect x="384" y="139.5" width="77" height="3" rx="1.5" fill="#D1D5DB"/>
<rect x="384" y="154.5" width="56" height="4" rx="2" fill="#9CA3AF"/>
<rect x="384" y="162.5" width="46.2609" height="3" rx="1.5" fill="#D1D5DB"/>
<rect x="384" y="169.5" width="80" height="3" rx="1.5" fill="#D1D5DB"/>
<rect x="384" y="176.5" width="77" height="3" rx="1.5" fill="#D1D5DB"/>
<rect x="384" y="183.5" width="65" height="3" rx="1.5" fill="#D1D5DB"/>
<rect x="384" y="198.5" width="48" height="4" rx="2" fill="#9CA3AF"/>
<rect x="384" y="206.5" width="46.2609" height="3" rx="1.5" fill="#D1D5DB"/>
<rect x="384" y="213.5" width="80" height="3" rx="1.5" fill="#D1D5DB"/>
<rect x="384" y="220.5" width="77" height="3" rx="1.5" fill="#D1D5DB"/>
<rect x="384" y="227.5" width="65" height="3" rx="1.5" fill="#D1D5DB"/>
</svg>
