<svg width="536" height="345" viewBox="0 0 536 345" fill="none" xmlns="http://www.w3.org/2000/svg">
<path d="M94 30C94 25.5817 97.5817 22 102 22H434C438.418 22 442 25.5817 442 30V47H94V30Z" fill="#4B5563"/>
<path fill-rule="evenodd" clip-rule="evenodd" d="M115.199 30.6C114.682 30.6 114.186 30.8055 113.82 31.1712C113.455 31.5369 113.249 32.0329 113.249 32.55V35.15C113.249 36.012 113.592 36.8387 114.201 37.4481C114.811 38.0576 115.637 38.4 116.499 38.4C117.361 38.4 118.188 38.0576 118.797 37.4481C119.407 36.8387 119.749 36.012 119.749 35.15V32.55C119.749 32.3777 119.818 32.2123 119.94 32.0904C120.061 31.9685 120.227 31.9 120.399 31.9C120.572 31.9 120.737 31.9685 120.859 32.0904C120.981 32.2123 121.049 32.3777 121.049 32.55V35.15C121.049 35.7476 120.932 36.3392 120.703 36.8913C120.474 37.4433 120.139 37.9449 119.717 38.3674C119.294 38.7899 118.792 39.125 118.24 39.3537C117.688 39.5824 117.097 39.7 116.499 39.7C115.902 39.7 115.31 39.5824 114.758 39.3537C114.206 39.125 113.704 38.7899 113.282 38.3674C112.859 37.9449 112.524 37.4433 112.296 36.8913C112.067 36.3392 111.949 35.7476 111.949 35.15V32.55C111.949 31.6881 112.292 30.8614 112.901 30.252C113.511 29.6425 114.337 29.3 115.199 29.3C116.061 29.3 116.888 29.6425 117.497 30.252C118.107 30.8614 118.449 31.6881 118.449 32.55V35.15C118.449 35.6672 118.244 36.1632 117.878 36.5289C117.512 36.8946 117.016 37.1 116.499 37.1C115.982 37.1 115.486 36.8946 115.12 36.5289C114.755 36.1632 114.549 35.6672 114.549 35.15V32.55C114.549 32.3777 114.618 32.2123 114.74 32.0904C114.861 31.9685 115.027 31.9 115.199 31.9C115.372 31.9 115.537 31.9685 115.659 32.0904C115.781 32.2123 115.849 32.3777 115.849 32.55V35.15C115.849 35.3224 115.918 35.4878 116.04 35.6097C116.161 35.7316 116.327 35.8 116.499 35.8C116.672 35.8 116.837 35.7316 116.959 35.6097C117.081 35.4878 117.149 35.3224 117.149 35.15V32.55C117.149 32.0329 116.944 31.5369 116.578 31.1712C116.212 30.8055 115.716 30.6 115.199 30.6V30.6Z" fill="#9CA3AF"/>
<path fill-rule="evenodd" clip-rule="evenodd" d="M141.282 30.6325C142.135 29.7792 143.293 29.2998 144.5 29.2998C145.706 29.2998 146.864 29.7792 147.717 30.6325C148.57 31.4859 149.05 32.6432 149.05 33.85C149.05 35.0568 148.57 36.2142 147.717 37.0675L144.5 40.285L141.282 37.0675C140.859 36.645 140.524 36.1434 140.296 35.5914C140.067 35.0393 139.949 34.4476 139.949 33.85C139.949 33.2525 140.067 32.6608 140.296 32.1087C140.524 31.5567 140.859 31.055 141.282 30.6325V30.6325ZM144.5 35.15C144.844 35.15 145.175 35.0131 145.419 34.7693C145.663 34.5255 145.8 34.1948 145.8 33.85C145.8 33.5053 145.663 33.1746 145.419 32.9308C145.175 32.687 144.844 32.55 144.5 32.55C144.155 32.55 143.824 32.687 143.58 32.9308C143.337 33.1746 143.2 33.5053 143.2 33.85C143.2 34.1948 143.337 34.5255 143.58 34.7693C143.824 35.0131 144.155 35.15 144.5 35.15Z" fill="#9CA3AF"/>
<path fill-rule="evenodd" clip-rule="evenodd" d="M168.601 29.95C168.256 29.95 167.925 30.0869 167.682 30.3307C167.438 30.5745 167.301 30.9052 167.301 31.25V37.75C167.301 38.0947 167.438 38.4254 167.682 38.6692C167.925 38.913 168.256 39.05 168.601 39.05H176.401C176.746 39.05 177.076 38.913 177.32 38.6692C177.564 38.4254 177.701 38.0947 177.701 37.75V31.25C177.701 30.9052 177.564 30.5745 177.32 30.3307C177.076 30.0869 176.746 29.95 176.401 29.95H168.601ZM176.401 37.75H168.601L171.201 32.55L173.151 36.45L174.451 33.85L176.401 37.75Z" fill="#9CA3AF"/>
<path d="M199.341 38.4473L199.341 38.4472L201.941 30.6472C201.941 30.6472 201.941 30.6472 201.941 30.6472C201.947 30.6285 201.95 30.6088 201.948 30.5891C201.947 30.5695 201.941 30.5503 201.933 30.5327C201.924 30.5151 201.912 30.4993 201.897 30.4864C201.882 30.4735 201.865 30.4637 201.846 30.4575L201.846 30.4574C201.827 30.4512 201.807 30.4487 201.788 30.4501C201.768 30.4515 201.749 30.4567 201.731 30.4656C201.713 30.4744 201.698 30.4866 201.685 30.5015C201.672 30.5164 201.662 30.5337 201.656 30.5524L201.656 30.5526L199.056 38.3525L199.341 38.4473ZM199.341 38.4473C199.328 38.4851 199.301 38.5163 199.265 38.5342M199.341 38.4473L199.265 38.5342M203.854 36.5558L203.854 36.5559L205.804 34.6059C205.804 34.6059 205.804 34.6059 205.804 34.6059C205.832 34.5778 205.848 34.5396 205.848 34.4999C205.848 34.4601 205.832 34.422 205.804 34.3939L205.804 34.3938M203.854 36.5558L206.158 34.0403L205.804 34.3938M203.854 36.5558L203.848 36.5621C203.834 36.5764 203.818 36.5878 203.8 36.5957C203.781 36.6036 203.762 36.6077 203.742 36.6079C203.722 36.6081 203.702 36.6043 203.684 36.5967C203.665 36.5892 203.648 36.578 203.634 36.5639C203.62 36.5499 203.609 36.5331 203.601 36.5147C203.594 36.4962 203.59 36.4765 203.59 36.4566C203.59 36.4367 203.595 36.417 203.602 36.3987C203.61 36.3804 203.622 36.3638 203.636 36.35L203.636 36.35L203.642 36.3439L205.133 34.8534L205.486 34.4999L205.133 34.1463L203.642 32.6559L203.854 36.5558ZM205.804 34.3938L203.854 32.444L205.804 34.3938ZM203.642 32.444C203.642 32.4439 203.642 32.4439 203.642 32.4438C203.67 32.4158 203.709 32.4 203.748 32.4C203.788 32.4 203.826 32.4158 203.854 32.4439L203.098 32.5499C203.098 32.3775 203.167 32.2122 203.289 32.0903L203.642 32.444ZM203.642 32.444C203.614 32.4721 203.598 32.5102 203.598 32.5499C203.598 32.5896 203.614 32.6278 203.642 32.6559L203.642 32.444ZM199.265 38.5342C199.23 38.552 199.189 38.5549 199.151 38.5424M199.265 38.5342L199.151 38.5424M199.151 38.5424C199.113 38.5298 199.082 38.5027 199.064 38.4671M199.151 38.5424L199.064 38.4671M199.064 38.4671C199.046 38.4315 199.043 38.3904 199.056 38.3526L199.064 38.4671ZM197.354 32.4438C197.354 32.4439 197.354 32.4439 197.354 32.444C197.382 32.4721 197.398 32.5102 197.398 32.5499C197.398 32.5897 197.382 32.6278 197.354 32.6559L195.864 34.1463L195.51 34.4999L195.864 34.8534L197.354 36.3439L197.354 36.344L197.36 36.35C197.375 36.3638 197.386 36.3804 197.394 36.3987C197.402 36.417 197.406 36.4367 197.406 36.4566C197.406 36.4765 197.403 36.4962 197.395 36.5147C197.388 36.5331 197.376 36.5499 197.362 36.5639C197.348 36.578 197.332 36.5892 197.313 36.5967C197.295 36.6043 197.275 36.6081 197.255 36.6079C197.235 36.6077 197.215 36.6036 197.197 36.5957C197.179 36.5878 197.162 36.5764 197.148 36.5621L197.148 36.562L197.142 36.5559L195.192 34.6059C195.192 34.6059 195.192 34.6059 195.192 34.6059C195.164 34.5778 195.148 34.5396 195.148 34.4999C195.148 34.4601 195.164 34.422 195.192 34.3939C195.192 34.3939 195.192 34.3939 195.192 34.3938L197.142 32.444C197.142 32.4439 197.142 32.4439 197.142 32.4439L197.354 32.4438Z" fill="#9CA3AF" stroke="#9CA3AF"/>
<path fill-rule="evenodd" clip-rule="evenodd" d="M228.501 39.7C229.88 39.7 231.203 39.1522 232.178 38.177C233.153 37.2018 233.701 35.8792 233.701 34.5C233.701 33.1209 233.153 31.7983 232.178 30.8231C231.203 29.8479 229.88 29.3 228.501 29.3C227.122 29.3 225.799 29.8479 224.824 30.8231C223.849 31.7983 223.301 33.1209 223.301 34.5C223.301 35.8792 223.849 37.2018 224.824 38.177C225.799 39.1522 227.122 39.7 228.501 39.7V39.7ZM226.551 33.85C226.723 33.85 226.889 33.7816 227.01 33.6597C227.132 33.5378 227.201 33.3724 227.201 33.2C227.201 33.0277 227.132 32.8623 227.01 32.7404C226.889 32.6185 226.723 32.55 226.551 32.55C226.378 32.55 226.213 32.6185 226.091 32.7404C225.969 32.8623 225.901 33.0277 225.901 33.2C225.901 33.3724 225.969 33.5378 226.091 33.6597C226.213 33.7816 226.378 33.85 226.551 33.85ZM231.101 33.2C231.101 33.3724 231.032 33.5378 230.91 33.6597C230.789 33.7816 230.623 33.85 230.451 33.85C230.278 33.85 230.113 33.7816 229.991 33.6597C229.869 33.5378 229.801 33.3724 229.801 33.2C229.801 33.0277 229.869 32.8623 229.991 32.7404C230.113 32.6185 230.278 32.55 230.451 32.55C230.623 32.55 230.789 32.6185 230.91 32.7404C231.032 32.8623 231.101 33.0277 231.101 33.2ZM230.799 36.7978C230.86 36.7374 230.907 36.6657 230.94 36.5868C230.973 36.5079 230.989 36.4234 230.989 36.338C230.989 36.2526 230.973 36.1681 230.94 36.0892C230.907 36.0104 230.859 35.9387 230.799 35.8784C230.738 35.818 230.667 35.7702 230.588 35.7375C230.509 35.7049 230.424 35.6881 230.339 35.6881C230.254 35.6881 230.169 35.705 230.09 35.7377C230.011 35.7704 229.94 35.8183 229.879 35.8787C229.514 36.2443 229.018 36.4496 228.501 36.4496C227.984 36.4496 227.488 36.2443 227.122 35.8787C227 35.7567 226.835 35.6882 226.662 35.6881C226.49 35.6881 226.325 35.7565 226.203 35.8784C226.081 36.0003 226.012 36.1656 226.012 36.338C226.012 36.5104 226.081 36.6758 226.202 36.7978C226.504 37.0997 226.862 37.3391 227.257 37.5025C227.651 37.6659 228.074 37.75 228.501 37.75C228.928 37.75 229.35 37.6659 229.745 37.5025C230.139 37.3391 230.497 37.0997 230.799 36.7978V36.7978Z" fill="#9CA3AF"/>
<line x1="249.5" y1="28" x2="249.5" y2="41" stroke="#4B5563"/>
<path d="M265.168 31.25H273.835H265.168ZM265.168 33.4167H273.835H265.168ZM265.168 35.5833H273.835H265.168ZM265.168 37.75H273.835Z" fill="#9CA3AF"/>
<path d="M265.168 37.75H273.835M265.168 31.25H273.835H265.168ZM265.168 33.4167H273.835H265.168ZM265.168 35.5833H273.835H265.168Z" stroke="#9CA3AF" stroke-linecap="round" stroke-linejoin="round"/>
<path fill-rule="evenodd" clip-rule="evenodd" d="M298.469 30.0605C298.222 29.0465 296.779 29.0465 296.532 30.0605C296.495 30.2129 296.423 30.3544 296.321 30.4736C296.219 30.5927 296.091 30.6861 295.946 30.7461C295.801 30.8062 295.644 30.8312 295.488 30.8192C295.331 30.8071 295.18 30.7583 295.046 30.6767C294.154 30.1333 293.134 31.1538 293.677 32.0456C294.028 32.6215 293.717 33.3729 293.062 33.5322C292.047 33.7785 292.047 35.2222 293.062 35.4679C293.214 35.5048 293.356 35.5772 293.475 35.6792C293.594 35.7812 293.687 35.9098 293.747 36.0547C293.807 36.1996 293.832 36.3566 293.82 36.513C293.808 36.6693 293.759 36.8206 293.677 36.9544C293.134 37.8462 294.154 38.8667 295.046 38.3233C295.18 38.2417 295.331 38.1927 295.488 38.1806C295.644 38.1684 295.801 38.1933 295.946 38.2533C296.091 38.3133 296.219 38.4067 296.321 38.5258C296.423 38.645 296.496 38.7865 296.533 38.9389C296.779 39.9535 298.223 39.9535 298.468 38.9389C298.506 38.7866 298.578 38.6451 298.68 38.5261C298.782 38.407 298.911 38.3137 299.055 38.2537C299.2 38.1938 299.357 38.1688 299.514 38.1809C299.67 38.193 299.821 38.2418 299.955 38.3233C300.847 38.8667 301.867 37.8462 301.324 36.9544C301.242 36.8206 301.194 36.6693 301.181 36.513C301.169 36.3567 301.194 36.1997 301.254 36.0549C301.314 35.9101 301.408 35.7814 301.527 35.6794C301.646 35.5774 301.787 35.5049 301.939 35.4679C302.954 35.2215 302.954 33.7779 301.939 33.5322C301.787 33.4953 301.646 33.4229 301.526 33.3209C301.407 33.2189 301.314 33.0903 301.254 32.9454C301.194 32.8005 301.169 32.6435 301.181 32.4871C301.193 32.3308 301.242 32.1795 301.324 32.0456C301.867 31.1538 300.847 30.1333 299.955 30.6767C299.821 30.7584 299.67 30.8074 299.514 30.8195C299.357 30.8317 299.2 30.8068 299.055 30.7468C298.91 30.6868 298.782 30.5934 298.68 30.4743C298.578 30.3551 298.505 30.2136 298.468 30.0612L298.469 30.0605ZM297.501 36.45C298.018 36.45 298.514 36.2446 298.879 35.8789C299.245 35.5132 299.451 35.0172 299.451 34.5C299.451 33.9829 299.245 33.4869 298.879 33.1212C298.514 32.7555 298.018 32.55 297.501 32.55C296.983 32.55 296.487 32.7555 296.122 33.1212C295.756 33.4869 295.551 33.9829 295.551 34.5C295.551 35.0172 295.756 35.5132 296.122 35.8789C296.487 36.2446 296.983 36.45 297.501 36.45V36.45Z" fill="#9CA3AF"/>
<line x1="94" y1="46.5" x2="442" y2="46.5" stroke="#4B5563"/>
<path d="M94 47H442V98C442 102.418 438.418 106 434 106H102C97.5817 106 94 102.418 94 98V47Z" fill="#374151"/>
<rect x="93.5" y="21.5" width="349" height="85" rx="8.5" stroke="#4B5563"/>
<rect x="94" y="114" width="73" height="17" rx="4" fill="#1A56DB"/>
<rect x="102" y="121" width="57" height="3" rx="1" fill="white"/>
<rect x="96" y="143.5" width="344" height="83" rx="7.5" fill="#374151"/>
<circle cx="117" cy="164.5" r="7.5" fill="#6B7280"/>
<rect x="134.5" y="161" width="55" height="7" rx="3.5" fill="#9CA3AF"/>
<rect x="109.5" y="183" width="305" height="6" rx="3" fill="#6B7280"/>
<rect x="109.5" y="195" width="317" height="6" rx="3" fill="#6B7280"/>
<rect x="109.5" y="207" width="245" height="6" rx="3" fill="#6B7280"/>
<rect x="96" y="143.5" width="344" height="83" rx="7.5" stroke="#4B5563"/>
<rect x="143" y="239.5" width="298" height="83" rx="7.5" fill="#374151"/>
<circle cx="164" cy="260.5" r="7.5" fill="#6B7280"/>
<rect x="181.5" y="257" width="45" height="7" rx="3.5" fill="#9CA3AF"/>
<rect x="156.5" y="279" width="261" height="6" rx="3" fill="#6B7280"/>
<rect x="156.5" y="291" width="271" height="6" rx="3" fill="#6B7280"/>
<rect x="156.5" y="303" width="209" height="6" rx="3" fill="#6B7280"/>
<rect x="143" y="239.5" width="298" height="83" rx="7.5" stroke="#4B5563"/>
</svg>
