<svg width="536" height="345" viewBox="0 0 536 345" fill="none" xmlns="http://www.w3.org/2000/svg">
<rect x="40.5" y="108.5" width="107" height="9" rx="4.5" fill="#6B7280"/>
<rect x="40.5" y="133.5" width="104.75" height="103" rx="5" fill="white"/>
<rect x="48.5" y="141.5" width="88.75" height="48" rx="5" fill="#E5E7EB"/>
<path fill-rule="evenodd" clip-rule="evenodd" d="M103.719 157.676C105.743 157.676 107.384 155.958 107.384 153.838C107.384 151.718 105.743 150 103.719 150C101.695 150 100.054 151.718 100.054 153.838C100.054 155.958 101.695 157.676 103.719 157.676ZM93.575 180.916H71.4195C70.6423 180.916 70.1621 180.069 70.562 179.402L85.6775 154.203C86.0599 153.566 86.9763 153.549 87.375 154.176C89.3326 157.257 94.2578 165.018 98.4477 171.713L102.992 164.092C103.36 163.476 104.223 163.456 104.632 164.054L115.095 179.333C115.553 180.003 115.107 180.921 114.318 180.929L104.165 181.032L93.575 180.916Z" fill="#D1D5DB"/>
<rect x="48.5" y="199.5" width="88.75" height="5" rx="2" fill="#9CA3AF"/>
<rect x="48.5" y="208.5" width="85" height="5" rx="2" fill="#9CA3AF"/>
<rect x="48.5" y="223.5" width="34" height="5" rx="2" fill="#1C64F2"/>
<rect x="157.25" y="133.5" width="104.75" height="103" rx="5" fill="white"/>
<rect x="165.25" y="141.5" width="88.75" height="48" rx="5" fill="#E5E7EB"/>
<path fill-rule="evenodd" clip-rule="evenodd" d="M220.469 157.676C222.493 157.676 224.134 155.958 224.134 153.838C224.134 151.718 222.493 150 220.469 150C218.445 150 216.804 151.718 216.804 153.838C216.804 155.958 218.445 157.676 220.469 157.676ZM210.325 180.916H188.17C187.392 180.916 186.912 180.069 187.312 179.402L202.428 154.203C202.81 153.566 203.726 153.549 204.125 154.176C206.083 157.257 211.008 165.018 215.198 171.713L219.742 164.092C220.11 163.476 220.973 163.456 221.382 164.054L231.845 179.333C232.303 180.003 231.857 180.921 231.068 180.929L220.915 181.032L210.325 180.916Z" fill="#D1D5DB"/>
<rect x="165.25" y="199.5" width="88.75" height="5" rx="2" fill="#9CA3AF"/>
<rect x="165.25" y="208.5" width="61" height="5" rx="2" fill="#9CA3AF"/>
<rect x="165.25" y="223.5" width="34" height="5" rx="2" fill="#1C64F2"/>
<rect x="274" y="133.5" width="104.75" height="103" rx="5" fill="white"/>
<rect x="282" y="141.5" width="88.75" height="48" rx="5" fill="#E5E7EB"/>
<path fill-rule="evenodd" clip-rule="evenodd" d="M337.219 157.676C339.243 157.676 340.884 155.958 340.884 153.838C340.884 151.718 339.243 150 337.219 150C335.195 150 333.554 151.718 333.554 153.838C333.554 155.958 335.195 157.676 337.219 157.676ZM327.075 180.916H304.92C304.142 180.916 303.662 180.069 304.062 179.402L319.178 154.203C319.56 153.566 320.476 153.549 320.875 154.176C322.833 157.257 327.758 165.018 331.948 171.713L336.492 164.092C336.86 163.476 337.723 163.456 338.132 164.054L348.595 179.333C349.053 180.003 348.607 180.921 347.818 180.929L337.665 181.032L327.075 180.916Z" fill="#D1D5DB"/>
<rect x="282" y="199.5" width="79" height="5" rx="2" fill="#9CA3AF"/>
<rect x="282" y="208.5" width="89" height="5" rx="2" fill="#9CA3AF"/>
<rect x="282" y="223.5" width="34" height="5" rx="2" fill="#1C64F2"/>
<rect x="390.75" y="133.5" width="104.75" height="103" rx="5" fill="white"/>
<rect x="398.75" y="141.5" width="88.75" height="48" rx="5" fill="#E5E7EB"/>
<path fill-rule="evenodd" clip-rule="evenodd" d="M453.969 157.676C455.993 157.676 457.634 155.958 457.634 153.838C457.634 151.718 455.993 150 453.969 150C451.945 150 450.304 151.718 450.304 153.838C450.304 155.958 451.945 157.676 453.969 157.676ZM443.825 180.916H421.67C420.892 180.916 420.412 180.069 420.812 179.402L435.928 154.203C436.31 153.566 437.226 153.549 437.625 154.176C439.583 157.257 444.508 165.018 448.698 171.713L453.242 164.092C453.61 163.476 454.473 163.456 454.882 164.054L465.345 179.333C465.803 180.003 465.357 180.921 464.568 180.929L454.415 181.032L443.825 180.916Z" fill="#D1D5DB"/>
<rect x="398.75" y="199.5" width="88.75" height="5" rx="2" fill="#9CA3AF"/>
<rect x="398.75" y="208.5" width="84" height="5" rx="2" fill="#9CA3AF"/>
<rect x="398.75" y="223.5" width="34" height="5" rx="2" fill="#1C64F2"/>
</svg>
