<svg width="410" height="240" viewBox="0 0 410 240" fill="none" xmlns="http://www.w3.org/2000/svg">
<rect x="126.5" y="82.5" width="12" height="12" rx="2.5" fill="#374151" stroke="#4B5563"/>
<rect x="149" y="86" width="74.9508" height="5" rx="2" fill="#9CA3AF"/>
<rect x="126.5" y="113.5" width="12" height="12" rx="2.5" fill="#EF562F" stroke="#EF562F"/>
<mask id="path-4-inside-1_169_148693" fill="white">
<path fill-rule="evenodd" clip-rule="evenodd" d="M135.853 117.146C135.947 117.24 136 117.367 136 117.5C136 117.632 135.947 117.76 135.853 117.853L131.853 121.853C131.759 121.947 131.632 122 131.5 122C131.367 122 131.24 121.947 131.146 121.853L129.146 119.853C129.055 119.759 129.005 119.633 129.006 119.502C129.007 119.371 129.06 119.245 129.152 119.152C129.245 119.06 129.37 119.007 129.502 119.006C129.633 119.005 129.759 119.055 129.853 119.146L131.5 120.793L135.146 117.146C135.24 117.053 135.367 117 135.5 117C135.632 117 135.759 117.053 135.853 117.146Z"/>
</mask>
<path fill-rule="evenodd" clip-rule="evenodd" d="M135.853 117.146C135.947 117.24 136 117.367 136 117.5C136 117.632 135.947 117.76 135.853 117.853L131.853 121.853C131.759 121.947 131.632 122 131.5 122C131.367 122 131.24 121.947 131.146 121.853L129.146 119.853C129.055 119.759 129.005 119.633 129.006 119.502C129.007 119.371 129.06 119.245 129.152 119.152C129.245 119.06 129.37 119.007 129.502 119.006C129.633 119.005 129.759 119.055 129.853 119.146L131.5 120.793L135.146 117.146C135.24 117.053 135.367 117 135.5 117C135.632 117 135.759 117.053 135.853 117.146Z" fill="white"/>
<path d="M135.853 117.146L136.56 116.439L136.56 116.439L135.853 117.146ZM136 117.5H137H136ZM135.853 117.853L136.56 118.56L136.56 118.56L135.853 117.853ZM131.853 121.853L132.56 122.561L132.56 122.56L131.853 121.853ZM131.146 121.853L130.439 122.56L130.439 122.561L131.146 121.853ZM129.146 119.853L128.427 120.548L128.433 120.554L128.439 120.56L129.146 119.853ZM129.853 119.146L130.56 118.439L130.554 118.433L130.548 118.427L129.853 119.146ZM131.5 120.793L130.793 121.5L131.5 122.207L132.207 121.5L131.5 120.793ZM135.146 117.146L134.439 116.439L134.439 116.439L135.146 117.146ZM135.5 117V118V117ZM135.146 117.853C135.052 117.76 135 117.632 135 117.5H137C137 117.102 136.842 116.721 136.56 116.439L135.146 117.853ZM135 117.5C135 117.367 135.052 117.24 135.146 117.146L136.56 118.56C136.842 118.279 137 117.898 137 117.5H135ZM135.146 117.146L131.146 121.146L132.56 122.56L136.56 118.56L135.146 117.146ZM131.146 121.146C131.24 121.052 131.367 121 131.5 121V123C131.897 123 132.279 122.842 132.56 122.561L131.146 121.146ZM131.5 121C131.632 121 131.759 121.052 131.853 121.146L130.439 122.561C130.721 122.842 131.102 123 131.5 123V121ZM131.853 121.146L129.853 119.146L128.439 120.56L130.439 122.56L131.853 121.146ZM129.866 119.159C129.957 119.253 130.007 119.379 130.006 119.51L128.006 119.493C128.002 119.886 128.154 120.265 128.427 120.548L129.866 119.159ZM130.006 119.51C130.005 119.641 129.952 119.767 129.859 119.86L128.445 118.445C128.167 118.723 128.009 119.1 128.006 119.493L130.006 119.51ZM129.859 119.86C129.767 119.952 129.641 120.005 129.51 120.006L129.493 118.006C129.1 118.01 128.723 118.167 128.445 118.445L129.859 119.86ZM129.51 120.006C129.379 120.007 129.253 119.957 129.159 119.866L130.548 118.427C130.265 118.154 129.886 118.003 129.493 118.006L129.51 120.006ZM129.146 119.854L130.793 121.5L132.207 120.086L130.56 118.439L129.146 119.854ZM132.207 121.5L135.853 117.854L134.439 116.439L130.793 120.086L132.207 121.5ZM135.853 117.854C135.759 117.947 135.632 118 135.5 118V116C135.102 116 134.721 116.158 134.439 116.439L135.853 117.854ZM135.5 118C135.367 118 135.24 117.947 135.146 117.854L136.56 116.439C136.279 116.158 135.897 116 135.5 116V118Z" fill="white" mask="url(#path-4-inside-1_169_148693)"/>
<rect x="148.531" y="117.438" width="74.95" height="5" rx="2" fill="#9CA3AF"/>
<rect x="126.5" y="145" width="12" height="12" rx="2.5" fill="#374151" stroke="#4B5563"/>
<rect x="149" y="144" width="74.9508" height="5" rx="2" fill="#9CA3AF"/>
<rect x="149" y="155" width="128.278" height="3" rx="1.5" fill="#6B7280"/>
</svg>
