<svg width="410" height="240" viewBox="0 0 410 240" fill="none" xmlns="http://www.w3.org/2000/svg">
<rect width="315" height="8" rx="4" transform="matrix(1 0 0 -1 48 160)" fill="#E5E7EB"/>
<rect width="256" height="8" rx="4" transform="matrix(1 0 0 -1 48 160)" fill="#EF562F"/>
<g filter="url(#filter0_d_169_148581)">
<rect x="304" y="166" width="20" height="20" rx="10" transform="rotate(-180 304 166)" fill="white"/>
<circle cx="10" cy="10" r="10" transform="matrix(1 0 0 -1 284 166)" fill="white"/>
<rect x="304.5" y="166.5" width="21" height="21" rx="10.5" transform="rotate(-180 304.5 166.5)" stroke="#E5E7EB"/>
</g>
<path fill-rule="evenodd" clip-rule="evenodd" d="M59.2598 102.309C59.479 102.218 59.6664 102.064 59.7982 101.866C59.9299 101.669 60.0003 101.437 60.0002 101.2V86.7998C60.0001 86.5625 59.9297 86.3305 59.7979 86.1332C59.666 85.9359 59.4786 85.7822 59.2594 85.6914C59.0401 85.6005 58.7989 85.5768 58.5662 85.6231C58.3334 85.6693 58.1196 85.7836 57.9518 85.9514L53.5034 90.3998H50.4002C50.0819 90.3998 49.7767 90.5262 49.5517 90.7512C49.3266 90.9763 49.2002 91.2815 49.2002 91.5998V96.3998C49.2002 96.718 49.3266 97.0232 49.5517 97.2483C49.7767 97.4733 50.0819 97.5998 50.4002 97.5998H53.5034L57.9518 102.048C58.1196 102.216 58.3335 102.33 58.5663 102.377C58.7991 102.423 59.0405 102.399 59.2598 102.309ZM62.7518 97.2482C62.9768 97.4731 63.282 97.5995 63.6002 97.5995C63.9184 97.5995 64.2236 97.4731 64.4486 97.2482L66.0002 95.6966L67.5518 97.2482C67.6625 97.3628 67.7949 97.4542 67.9413 97.5171C68.0877 97.58 68.2452 97.6131 68.4045 97.6145C68.5638 97.6158 68.7219 97.5855 68.8693 97.5251C69.0168 97.4648 69.1508 97.3757 69.2635 97.263C69.3761 97.1504 69.4652 97.0164 69.5256 96.8689C69.5859 96.7214 69.6163 96.5634 69.6149 96.4041C69.6135 96.2447 69.5804 96.0873 69.5175 95.9409C69.4546 95.7945 69.3632 95.6621 69.2486 95.5514L67.697 93.9998L69.2486 92.4482C69.4672 92.2218 69.5881 91.9187 69.5854 91.6041C69.5827 91.2894 69.4565 90.9885 69.234 90.766C69.0115 90.5435 68.7105 90.4173 68.3959 90.4146C68.0812 90.4118 67.7781 90.5328 67.5518 90.7514L66.0002 92.303L64.4486 90.7514C64.2223 90.5328 63.9191 90.4118 63.6045 90.4146C63.2899 90.4173 62.9889 90.5435 62.7664 90.766C62.5439 90.9885 62.4177 91.2894 62.415 91.6041C62.4123 91.9187 62.5332 92.2218 62.7518 92.4482L64.3034 93.9998L62.7518 95.5514C62.5268 95.7764 62.4005 96.0816 62.4005 96.3998C62.4005 96.718 62.5268 97.0231 62.7518 97.2482Z" fill="#6B7280"/>
<rect width="174" height="8" rx="4" transform="matrix(1 0 0 -1 84 98)" fill="#FFD5CC"/>
<rect width="114" height="8" rx="4" transform="matrix(1 0 0 -1 83.5 98)" fill="#EF562F"/>
<g filter="url(#filter1_d_169_148581)">
<rect x="197.5" y="104" width="20" height="20" rx="10" transform="rotate(-180 197.5 104)" fill="white"/>
<circle cx="10" cy="10" r="10" transform="matrix(1 0 0 -1 177.5 104)" fill="white"/>
<rect x="198" y="104.5" width="21" height="21" rx="10.5" transform="rotate(-180 198 104.5)" stroke="#E5E7EB"/>
</g>
<path fill-rule="evenodd" clip-rule="evenodd" d="M281.26 102.309C281.479 102.218 281.666 102.064 281.798 101.867C281.93 101.669 282 101.437 282 101.2V86.7999C282 86.5626 281.93 86.3306 281.798 86.1333C281.666 85.936 281.479 85.7823 281.259 85.6915C281.04 85.6007 280.799 85.5769 280.566 85.6232C280.333 85.6695 280.12 85.7837 279.952 85.9515L275.503 90.3999H272.4C272.082 90.3999 271.777 90.5263 271.552 90.7514C271.327 90.9764 271.2 91.2816 271.2 91.5999V96.3999C271.2 96.7181 271.327 97.0234 271.552 97.2484C271.777 97.4735 272.082 97.5999 272.4 97.5999H275.503L279.952 102.048C280.12 102.216 280.333 102.331 280.566 102.377C280.799 102.423 281.04 102.4 281.26 102.309ZM287.589 102.485C287.814 102.71 288.119 102.836 288.437 102.836C288.755 102.836 289.06 102.71 289.285 102.485C290.401 101.372 291.286 100.049 291.889 98.5931C292.492 97.137 292.802 95.576 292.8 93.9999C292.802 92.4238 292.492 90.8628 291.889 89.4067C291.286 87.9505 290.401 86.6279 289.285 85.5147C289.059 85.2961 288.756 85.1751 288.441 85.1779C288.127 85.1806 287.826 85.3068 287.603 85.5293C287.381 85.7518 287.255 86.0528 287.252 86.3674C287.249 86.682 287.37 86.9852 287.589 87.2115C288.482 88.1018 289.19 89.1599 289.672 90.3249C290.155 91.49 290.402 92.7389 290.4 93.9999C290.4 96.6519 289.327 99.0495 287.589 100.788C287.364 101.013 287.237 101.318 287.237 101.637C287.237 101.955 287.364 102.26 287.589 102.485ZM284.194 99.0915C284.305 99.2031 284.438 99.2916 284.583 99.352C284.729 99.4123 284.885 99.4434 285.043 99.4434C285.2 99.4434 285.357 99.4123 285.502 99.352C285.648 99.2916 285.78 99.2031 285.892 99.0915C286.561 98.4235 287.092 97.6298 287.454 96.756C287.816 95.8823 288.001 94.9456 288 93.9999C288.001 93.0542 287.816 92.1175 287.454 91.2438C287.092 90.37 286.561 89.5763 285.892 88.9083C285.667 88.6831 285.361 88.5566 285.043 88.5566C284.724 88.5566 284.419 88.6831 284.194 88.9083C283.969 89.1335 283.842 89.4388 283.842 89.7573C283.842 90.0757 283.969 90.3811 284.194 90.6063C284.64 91.0513 284.995 91.5802 285.236 92.1626C285.477 92.745 285.601 93.3694 285.6 93.9999C285.601 94.6303 285.477 95.2548 285.236 95.8372C284.995 96.4196 284.64 96.9485 284.194 97.3935C284.082 97.5049 283.994 97.6373 283.933 97.783C283.873 97.9286 283.842 98.0848 283.842 98.2425C283.842 98.4002 283.873 98.5563 283.933 98.702C283.994 98.8477 284.082 98.98 284.194 99.0915Z" fill="#6B7280"/>
<defs>
<filter id="filter0_d_169_148581" x="281" y="144" width="26" height="26" filterUnits="userSpaceOnUse" color-interpolation-filters="sRGB">
<feFlood flood-opacity="0" result="BackgroundImageFix"/>
<feColorMatrix in="SourceAlpha" type="matrix" values="0 0 0 0 0 0 0 0 0 0 0 0 0 0 0 0 0 0 127 0" result="hardAlpha"/>
<feOffset dy="1"/>
<feGaussianBlur stdDeviation="1"/>
<feColorMatrix type="matrix" values="0 0 0 0 0 0 0 0 0 0 0 0 0 0 0 0 0 0 0.08 0"/>
<feBlend mode="normal" in2="BackgroundImageFix" result="effect1_dropShadow_169_148581"/>
<feBlend mode="normal" in="SourceGraphic" in2="effect1_dropShadow_169_148581" result="shape"/>
</filter>
<filter id="filter1_d_169_148581" x="174.5" y="82" width="26" height="26" filterUnits="userSpaceOnUse" color-interpolation-filters="sRGB">
<feFlood flood-opacity="0" result="BackgroundImageFix"/>
<feColorMatrix in="SourceAlpha" type="matrix" values="0 0 0 0 0 0 0 0 0 0 0 0 0 0 0 0 0 0 127 0" result="hardAlpha"/>
<feOffset dy="1"/>
<feGaussianBlur stdDeviation="1"/>
<feColorMatrix type="matrix" values="0 0 0 0 0 0 0 0 0 0 0 0 0 0 0 0 0 0 0.08 0"/>
<feBlend mode="normal" in2="BackgroundImageFix" result="effect1_dropShadow_169_148581"/>
<feBlend mode="normal" in="SourceGraphic" in2="effect1_dropShadow_169_148581" result="shape"/>
</filter>
</defs>
</svg>
