<svg width="410" height="240" viewBox="0 0 410 240" fill="none" xmlns="http://www.w3.org/2000/svg">
<rect x="47.5" y="81" width="315" height="8" rx="4" fill="#4B5563"/>
<rect x="47.5" y="81" width="256" height="8" rx="4" fill="#EF562F"/>
<g filter="url(#filter0_d_169_148596)">
<rect width="20" height="20" rx="10" transform="matrix(-1 0 0 1 303.5 75)" fill="white"/>
<circle cx="293.5" cy="85" r="10" fill="#9CA3AF"/>
<rect x="0.5" y="-0.5" width="21" height="21" rx="10.5" transform="matrix(-1 0 0 1 304.5 75)" stroke="#9CA3AF"/>
</g>
<path fill-rule="evenodd" clip-rule="evenodd" d="M58.7598 138.691C58.979 138.782 59.1664 138.936 59.2982 139.134C59.4299 139.331 59.5003 139.563 59.5002 139.8V154.2C59.5001 154.438 59.4297 154.669 59.2979 154.867C59.166 155.064 58.9786 155.218 58.7594 155.309C58.5401 155.399 58.2989 155.423 58.0662 155.377C57.8334 155.331 57.6196 155.216 57.4518 155.049L53.0034 150.6H49.9002C49.5819 150.6 49.2767 150.474 49.0517 150.249C48.8266 150.024 48.7002 149.718 48.7002 149.4V144.6C48.7002 144.282 48.8266 143.977 49.0517 143.752C49.2767 143.527 49.5819 143.4 49.9002 143.4H53.0034L57.4518 138.952C57.6196 138.784 57.8335 138.67 58.0663 138.623C58.2991 138.577 58.5405 138.601 58.7598 138.691ZM62.2518 143.752C62.4768 143.527 62.782 143.4 63.1002 143.4C63.4184 143.4 63.7236 143.527 63.9486 143.752L65.5002 145.303L67.0518 143.752C67.1625 143.637 67.2949 143.546 67.4413 143.483C67.5877 143.42 67.7452 143.387 67.9045 143.386C68.0638 143.384 68.2219 143.415 68.3693 143.475C68.5168 143.535 68.6508 143.624 68.7635 143.737C68.8761 143.85 68.9652 143.984 69.0256 144.131C69.0859 144.279 69.1163 144.437 69.1149 144.596C69.1135 144.755 69.0804 144.913 69.0175 145.059C68.9546 145.206 68.8632 145.338 68.7486 145.449L67.197 147L68.7486 148.552C68.9672 148.778 69.0881 149.081 69.0854 149.396C69.0827 149.711 68.9565 150.012 68.734 150.234C68.5115 150.457 68.2105 150.583 67.8959 150.585C67.5812 150.588 67.2781 150.467 67.0518 150.249L65.5002 148.697L63.9486 150.249C63.7223 150.467 63.4191 150.588 63.1045 150.585C62.7899 150.583 62.4889 150.457 62.2664 150.234C62.0439 150.012 61.9177 149.711 61.915 149.396C61.9123 149.081 62.0332 148.778 62.2518 148.552L63.8034 147L62.2518 145.449C62.0268 145.224 61.9005 144.918 61.9005 144.6C61.9005 144.282 62.0268 143.977 62.2518 143.752Z" fill="#9CA3AF"/>
<rect x="83.5" y="143" width="174" height="8" rx="4" fill="#EB4F27"/>
<rect x="83" y="143" width="114" height="8" rx="4" fill="#EF562F"/>
<g filter="url(#filter1_d_169_148596)">
<rect width="20" height="20" rx="10" transform="matrix(-1 0 0 1 197 137)" fill="#9CA3AF"/>
<circle cx="187" cy="147" r="10" fill="#9CA3AF"/>
<rect x="0.5" y="-0.5" width="21" height="21" rx="10.5" transform="matrix(-1 0 0 1 198 137)" stroke="#9CA3AF"/>
</g>
<path fill-rule="evenodd" clip-rule="evenodd" d="M280.76 138.691C280.979 138.782 281.166 138.936 281.298 139.133C281.43 139.331 281.5 139.563 281.5 139.8V154.2C281.5 154.437 281.43 154.669 281.298 154.867C281.166 155.064 280.979 155.218 280.759 155.309C280.54 155.399 280.299 155.423 280.066 155.377C279.833 155.331 279.62 155.216 279.452 155.049L275.003 150.6H271.9C271.582 150.6 271.277 150.474 271.052 150.249C270.827 150.024 270.7 149.718 270.7 149.4V144.6C270.7 144.282 270.827 143.977 271.052 143.752C271.277 143.527 271.582 143.4 271.9 143.4H275.003L279.452 138.952C279.62 138.784 279.833 138.669 280.066 138.623C280.299 138.577 280.54 138.6 280.76 138.691ZM287.089 138.515C287.314 138.29 287.619 138.164 287.937 138.164C288.255 138.164 288.56 138.29 288.785 138.515C289.901 139.628 290.786 140.951 291.389 142.407C291.992 143.863 292.302 145.424 292.3 147C292.302 148.576 291.992 150.137 291.389 151.593C290.786 153.049 289.901 154.372 288.785 155.485C288.559 155.704 288.256 155.825 287.941 155.822C287.627 155.819 287.326 155.693 287.103 155.471C286.881 155.248 286.755 154.947 286.752 154.633C286.749 154.318 286.87 154.015 287.089 153.789C287.982 152.898 288.69 151.84 289.172 150.675C289.655 149.51 289.902 148.261 289.9 147C289.9 144.348 288.827 141.951 287.089 140.212C286.864 139.987 286.737 139.682 286.737 139.363C286.737 139.045 286.864 138.74 287.089 138.515ZM283.694 141.909C283.805 141.797 283.938 141.708 284.083 141.648C284.229 141.588 284.385 141.557 284.543 141.557C284.7 141.557 284.857 141.588 285.002 141.648C285.148 141.708 285.28 141.797 285.392 141.909C286.061 142.577 286.592 143.37 286.954 144.244C287.316 145.118 287.501 146.054 287.5 147C287.501 147.946 287.316 148.882 286.954 149.756C286.592 150.63 286.061 151.424 285.392 152.092C285.167 152.317 284.861 152.443 284.543 152.443C284.224 152.443 283.919 152.317 283.694 152.092C283.469 151.867 283.342 151.561 283.342 151.243C283.342 150.924 283.469 150.619 283.694 150.394C284.14 149.949 284.495 149.42 284.736 148.837C284.977 148.255 285.101 147.631 285.1 147C285.101 146.37 284.977 145.745 284.736 145.163C284.495 144.58 284.14 144.051 283.694 143.607C283.582 143.495 283.494 143.363 283.433 143.217C283.373 143.071 283.342 142.915 283.342 142.758C283.342 142.6 283.373 142.444 283.433 142.298C283.494 142.152 283.582 142.02 283.694 141.909Z" fill="#9CA3AF"/>
<defs>
<filter id="filter0_d_169_148596" x="280.5" y="73" width="26" height="26" filterUnits="userSpaceOnUse" color-interpolation-filters="sRGB">
<feFlood flood-opacity="0" result="BackgroundImageFix"/>
<feColorMatrix in="SourceAlpha" type="matrix" values="0 0 0 0 0 0 0 0 0 0 0 0 0 0 0 0 0 0 127 0" result="hardAlpha"/>
<feOffset dy="1"/>
<feGaussianBlur stdDeviation="1"/>
<feColorMatrix type="matrix" values="0 0 0 0 0 0 0 0 0 0 0 0 0 0 0 0 0 0 0.08 0"/>
<feBlend mode="normal" in2="BackgroundImageFix" result="effect1_dropShadow_169_148596"/>
<feBlend mode="normal" in="SourceGraphic" in2="effect1_dropShadow_169_148596" result="shape"/>
</filter>
<filter id="filter1_d_169_148596" x="174" y="135" width="26" height="26" filterUnits="userSpaceOnUse" color-interpolation-filters="sRGB">
<feFlood flood-opacity="0" result="BackgroundImageFix"/>
<feColorMatrix in="SourceAlpha" type="matrix" values="0 0 0 0 0 0 0 0 0 0 0 0 0 0 0 0 0 0 127 0" result="hardAlpha"/>
<feOffset dy="1"/>
<feGaussianBlur stdDeviation="1"/>
<feColorMatrix type="matrix" values="0 0 0 0 0 0 0 0 0 0 0 0 0 0 0 0 0 0 0.08 0"/>
<feBlend mode="normal" in2="BackgroundImageFix" result="effect1_dropShadow_169_148596"/>
<feBlend mode="normal" in="SourceGraphic" in2="effect1_dropShadow_169_148596" result="shape"/>
</filter>
</defs>
</svg>
