<svg width="410" height="240" viewBox="0 0 410 240" fill="none" xmlns="http://www.w3.org/2000/svg">
<g filter="url(#filter0_dd_169_148724)">
<path d="M52 81C52 76.5817 55.5817 73 60 73H137.416V108H60C55.5817 108 52 104.418 52 100V81Z" fill="#4B5563"/>
<rect x="66" y="87" width="40.416" height="7" rx="2" fill="#9CA3AF"/>
<path d="M120.416 91.6761L120.062 91.3225L117.428 88.6882C117.428 88.6882 117.428 88.6881 117.428 88.6881C117.372 88.6319 117.295 88.6003 117.216 88.6003C117.136 88.6003 117.06 88.6319 117.004 88.6881C117.004 88.6881 117.004 88.6881 117.004 88.6882M120.416 91.6761L117.004 88.6882M120.416 91.6761L120.769 91.3225L123.404 88.6881L123.404 88.6882L123.41 88.6819C123.438 88.6533 123.471 88.6304 123.507 88.6147C123.544 88.599 123.583 88.5907 123.623 88.5903C123.663 88.59 123.702 88.5976 123.739 88.6127C123.776 88.6278 123.81 88.65 123.838 88.6782C123.866 88.7064 123.888 88.7399 123.903 88.7767L124.366 88.5874L123.903 88.7767C123.918 88.8136 123.926 88.8531 123.926 88.8929C123.925 88.9328 123.917 88.9721 123.901 89.0087C123.886 89.0453 123.863 89.0784 123.834 89.1061L123.834 89.1061L123.828 89.1122L120.628 92.3122C120.628 92.3122 120.628 92.3122 120.628 92.3122C120.572 92.3684 120.495 92.4 120.416 92.4C120.336 92.4 120.26 92.3684 120.204 92.3122C120.204 92.3122 120.204 92.3122 120.204 92.3122L117.004 89.1123M120.416 91.6761L117.004 89.1123M117.004 88.6882C116.948 88.7444 116.916 88.8207 116.916 88.9002C116.916 88.9797 116.948 89.056 117.004 89.1122M117.004 88.6882L117.004 89.1122M117.004 89.1122L117.004 89.1123M117.004 89.1122L117.004 89.1123" fill="black" stroke="#9CA3AF"/>
<path d="M52.5 81C52.5 76.8579 55.8579 73.5 60 73.5H136.916V107.5H60C55.8579 107.5 52.5 104.142 52.5 100V81Z" stroke="#4B5563"/>
</g>
<g filter="url(#filter1_dd_169_148724)">
<path d="M137.416 73H350C354.418 73 358 76.5817 358 81V100C358 104.418 354.418 108 350 108H137.416V73Z" fill="#374151"/>
<rect x="155.416" y="87" width="150" height="7" rx="2" fill="#9CA3AF"/>
<path d="M331.416 91.6761L331.062 91.3225L328.428 88.6882C328.428 88.6882 328.428 88.6881 328.428 88.6881C328.372 88.6319 328.295 88.6003 328.216 88.6003C328.136 88.6003 328.06 88.6319 328.004 88.6881C328.004 88.6881 328.004 88.6881 328.004 88.6882M331.416 91.6761L328.004 88.6882M331.416 91.6761L331.769 91.3225L334.404 88.6881L334.404 88.6882L334.41 88.6819C334.438 88.6533 334.471 88.6304 334.507 88.6147C334.544 88.599 334.583 88.5907 334.623 88.5903C334.663 88.59 334.702 88.5976 334.739 88.6127C334.776 88.6278 334.81 88.65 334.838 88.6782C334.866 88.7064 334.888 88.7399 334.903 88.7767L335.366 88.5874L334.903 88.7767C334.918 88.8136 334.926 88.8531 334.926 88.8929C334.925 88.9328 334.917 88.9721 334.901 89.0087C334.886 89.0453 334.863 89.0784 334.834 89.1061L334.834 89.1061L334.828 89.1122L331.628 92.3122C331.628 92.3122 331.628 92.3122 331.628 92.3122C331.572 92.3684 331.495 92.4 331.416 92.4C331.336 92.4 331.26 92.3684 331.204 92.3122C331.204 92.3122 331.204 92.3122 331.204 92.3122L328.004 89.1123M331.416 91.6761L328.004 89.1123M328.004 88.6882C327.948 88.7444 327.916 88.8207 327.916 88.9002C327.916 88.9797 327.948 89.056 328.004 89.1122M328.004 88.6882L328.004 89.1122M328.004 89.1122L328.004 89.1123M328.004 89.1122L328.004 89.1123" fill="black" stroke="#9CA3AF"/>
<path d="M137.916 73.5H350C354.142 73.5 357.5 76.8579 357.5 81V100C357.5 104.142 354.142 107.5 350 107.5H137.916V73.5Z" stroke="#4B5563"/>
</g>
<g filter="url(#filter2_dd_169_148724)">
<path d="M52 140C52 135.582 55.5817 132 60 132H350C354.418 132 358 135.582 358 140V159C358 163.418 354.418 167 350 167H60C55.5817 167 52 163.418 52 159V140Z" fill="#374151"/>
<rect x="70" y="146" width="134.388" height="7" rx="2" fill="#9CA3AF"/>
<path d="M332 150.676L331.646 150.323L329.012 147.688C329.012 147.688 329.012 147.688 329.012 147.688C328.956 147.632 328.879 147.6 328.8 147.6C328.72 147.6 328.644 147.632 328.588 147.688C328.588 147.688 328.588 147.688 328.588 147.688M332 150.676L328.588 147.688M332 150.676L332.353 150.323L334.988 147.688L334.988 147.688L334.994 147.682C335.022 147.653 335.055 147.63 335.091 147.615C335.128 147.599 335.167 147.591 335.207 147.59C335.247 147.59 335.286 147.598 335.323 147.613C335.36 147.628 335.394 147.65 335.422 147.678C335.45 147.706 335.472 147.74 335.487 147.777L335.95 147.587L335.487 147.777C335.502 147.814 335.51 147.853 335.51 147.893C335.509 147.933 335.501 147.972 335.485 148.009C335.47 148.045 335.447 148.078 335.418 148.106L335.418 148.106L335.412 148.112L332.212 151.312C332.212 151.312 332.212 151.312 332.212 151.312C332.156 151.368 332.079 151.4 332 151.4C331.92 151.4 331.844 151.368 331.788 151.312C331.788 151.312 331.788 151.312 331.788 151.312L328.588 148.112M332 150.676L328.588 148.112M328.588 147.688C328.532 147.744 328.5 147.821 328.5 147.9C328.5 147.98 328.532 148.056 328.588 148.112M328.588 147.688L328.588 148.112M328.588 148.112L328.588 148.112M328.588 148.112L328.588 148.112" fill="black" stroke="#9CA3AF"/>
<path d="M52.5 140C52.5 135.858 55.8579 132.5 60 132.5H350C354.142 132.5 357.5 135.858 357.5 140V159C357.5 163.142 354.142 166.5 350 166.5H60C55.8579 166.5 52.5 163.142 52.5 159V140Z" stroke="#4B5563"/>
</g>
<defs>
<filter id="filter0_dd_169_148724" x="46" y="71" width="97.416" height="47" filterUnits="userSpaceOnUse" color-interpolation-filters="sRGB">
<feFlood flood-opacity="0" result="BackgroundImageFix"/>
<feColorMatrix in="SourceAlpha" type="matrix" values="0 0 0 0 0 0 0 0 0 0 0 0 0 0 0 0 0 0 127 0" result="hardAlpha"/>
<feOffset dy="4"/>
<feGaussianBlur stdDeviation="3"/>
<feColorMatrix type="matrix" values="0 0 0 0 0 0 0 0 0 0 0 0 0 0 0 0 0 0 0.1 0"/>
<feBlend mode="normal" in2="BackgroundImageFix" result="effect1_dropShadow_169_148724"/>
<feColorMatrix in="SourceAlpha" type="matrix" values="0 0 0 0 0 0 0 0 0 0 0 0 0 0 0 0 0 0 127 0" result="hardAlpha"/>
<feOffset dy="2"/>
<feGaussianBlur stdDeviation="2"/>
<feColorMatrix type="matrix" values="0 0 0 0 0 0 0 0 0 0 0 0 0 0 0 0 0 0 0.06 0"/>
<feBlend mode="normal" in2="effect1_dropShadow_169_148724" result="effect2_dropShadow_169_148724"/>
<feBlend mode="normal" in="SourceGraphic" in2="effect2_dropShadow_169_148724" result="shape"/>
</filter>
<filter id="filter1_dd_169_148724" x="131.416" y="71" width="232.584" height="47" filterUnits="userSpaceOnUse" color-interpolation-filters="sRGB">
<feFlood flood-opacity="0" result="BackgroundImageFix"/>
<feColorMatrix in="SourceAlpha" type="matrix" values="0 0 0 0 0 0 0 0 0 0 0 0 0 0 0 0 0 0 127 0" result="hardAlpha"/>
<feOffset dy="4"/>
<feGaussianBlur stdDeviation="3"/>
<feColorMatrix type="matrix" values="0 0 0 0 0 0 0 0 0 0 0 0 0 0 0 0 0 0 0.1 0"/>
<feBlend mode="normal" in2="BackgroundImageFix" result="effect1_dropShadow_169_148724"/>
<feColorMatrix in="SourceAlpha" type="matrix" values="0 0 0 0 0 0 0 0 0 0 0 0 0 0 0 0 0 0 127 0" result="hardAlpha"/>
<feOffset dy="2"/>
<feGaussianBlur stdDeviation="2"/>
<feColorMatrix type="matrix" values="0 0 0 0 0 0 0 0 0 0 0 0 0 0 0 0 0 0 0.06 0"/>
<feBlend mode="normal" in2="effect1_dropShadow_169_148724" result="effect2_dropShadow_169_148724"/>
<feBlend mode="normal" in="SourceGraphic" in2="effect2_dropShadow_169_148724" result="shape"/>
</filter>
<filter id="filter2_dd_169_148724" x="46" y="130" width="318" height="47" filterUnits="userSpaceOnUse" color-interpolation-filters="sRGB">
<feFlood flood-opacity="0" result="BackgroundImageFix"/>
<feColorMatrix in="SourceAlpha" type="matrix" values="0 0 0 0 0 0 0 0 0 0 0 0 0 0 0 0 0 0 127 0" result="hardAlpha"/>
<feOffset dy="4"/>
<feGaussianBlur stdDeviation="3"/>
<feColorMatrix type="matrix" values="0 0 0 0 0 0 0 0 0 0 0 0 0 0 0 0 0 0 0.1 0"/>
<feBlend mode="normal" in2="BackgroundImageFix" result="effect1_dropShadow_169_148724"/>
<feColorMatrix in="SourceAlpha" type="matrix" values="0 0 0 0 0 0 0 0 0 0 0 0 0 0 0 0 0 0 127 0" result="hardAlpha"/>
<feOffset dy="2"/>
<feGaussianBlur stdDeviation="2"/>
<feColorMatrix type="matrix" values="0 0 0 0 0 0 0 0 0 0 0 0 0 0 0 0 0 0 0.06 0"/>
<feBlend mode="normal" in2="effect1_dropShadow_169_148724" result="effect2_dropShadow_169_148724"/>
<feBlend mode="normal" in="SourceGraphic" in2="effect2_dropShadow_169_148724" result="shape"/>
</filter>
</defs>
</svg>
