<svg width="410" height="240" viewBox="0 0 410 240" fill="none" xmlns="http://www.w3.org/2000/svg">
<path d="M31 40.5C31 36.0817 34.5817 32.5 39 32.5H371C375.418 32.5 379 36.0817 379 40.5V68.5H31V40.5Z" fill="#374151"/>
<path fill-rule="evenodd" clip-rule="evenodd" d="M53.4004 45.7001C52.7639 45.7001 52.1534 45.953 51.7033 46.403C51.2532 46.8531 51.0004 47.4636 51.0004 48.1001V51.3001C51.0004 52.361 51.4218 53.3784 52.172 54.1285C52.9221 54.8787 53.9395 55.3001 55.0004 55.3001C56.0613 55.3001 57.0787 54.8787 57.8288 54.1285C58.579 53.3784 59.0004 52.361 59.0004 51.3001V48.1001C59.0004 47.8879 59.0847 47.6844 59.2347 47.5344C59.3847 47.3844 59.5882 47.3001 59.8004 47.3001C60.0126 47.3001 60.216 47.3844 60.3661 47.5344C60.5161 47.6844 60.6004 47.8879 60.6004 48.1001V51.3001C60.6004 52.0355 60.4555 52.7637 60.1741 53.4431C59.8927 54.1225 59.4802 54.7399 58.9602 55.2599C58.4402 55.7799 57.8228 56.1924 57.1434 56.4738C56.464 56.7552 55.7358 56.9001 55.0004 56.9001C54.265 56.9001 53.5368 56.7552 52.8574 56.4738C52.1779 56.1924 51.5606 55.7799 51.0406 55.2599C50.5206 54.7399 50.1081 54.1225 49.8267 53.4431C49.5452 52.7637 49.4004 52.0355 49.4004 51.3001V48.1001C49.4004 47.0392 49.8218 46.0218 50.572 45.2717C51.3221 44.5215 52.3395 44.1001 53.4004 44.1001C54.4613 44.1001 55.4787 44.5215 56.2288 45.2717C56.979 46.0218 57.4004 47.0392 57.4004 48.1001V51.3001C57.4004 51.9366 57.1475 52.5471 56.6974 52.9972C56.2474 53.4472 55.6369 53.7001 55.0004 53.7001C54.3639 53.7001 53.7534 53.4472 53.3033 52.9972C52.8532 52.5471 52.6004 51.9366 52.6004 51.3001V48.1001C52.6004 47.8879 52.6847 47.6844 52.8347 47.5344C52.9847 47.3844 53.1882 47.3001 53.4004 47.3001C53.6126 47.3001 53.816 47.3844 53.9661 47.5344C54.1161 47.6844 54.2004 47.8879 54.2004 48.1001V51.3001C54.2004 51.5123 54.2847 51.7158 54.4347 51.8658C54.5847 52.0158 54.7882 52.1001 55.0004 52.1001C55.2126 52.1001 55.416 52.0158 55.5661 51.8658C55.7161 51.7158 55.8004 51.5123 55.8004 51.3001V48.1001C55.8004 47.4636 55.5475 46.8531 55.0974 46.403C54.6474 45.953 54.0369 45.7001 53.4004 45.7001Z" fill="#9CA3AF"/>
<path fill-rule="evenodd" clip-rule="evenodd" d="M82.0398 45.7399C83.0901 44.6896 84.5145 44.0996 85.9998 44.0996C87.4851 44.0996 88.9096 44.6896 89.9598 45.7399C91.0101 46.7902 91.6001 48.2146 91.6001 49.6999C91.6001 51.1852 91.0101 52.6096 89.9598 53.6599L85.9998 57.6199L82.0398 53.6599C81.5197 53.1399 81.1072 52.5225 80.8257 51.8431C80.5443 51.1636 80.3994 50.4353 80.3994 49.6999C80.3994 48.9644 80.5443 48.2362 80.8257 47.5567C81.1072 46.8773 81.5197 46.2599 82.0398 45.7399ZM85.9998 51.2999C86.4242 51.2999 86.8311 51.1313 87.1312 50.8313C87.4312 50.5312 87.5998 50.1242 87.5998 49.6999C87.5998 49.2755 87.4312 48.8686 87.1312 48.5685C86.8311 48.2685 86.4242 48.0999 85.9998 48.0999C85.5755 48.0999 85.1685 48.2685 84.8684 48.5685C84.5684 48.8686 84.3998 49.2755 84.3998 49.6999C84.3998 50.1242 84.5684 50.5312 84.8684 50.8313C85.1685 51.1313 85.5755 51.2999 85.9998 51.2999Z" fill="#9CA3AF"/>
<path fill-rule="evenodd" clip-rule="evenodd" d="M112.2 44.8999C111.775 44.8999 111.368 45.0685 111.068 45.3685C110.768 45.6686 110.6 46.0756 110.6 46.4999V54.4999C110.6 54.9242 110.768 55.3312 111.068 55.6313C111.368 55.9313 111.775 56.0999 112.2 56.0999H121.8C122.224 56.0999 122.631 55.9313 122.931 55.6313C123.231 55.3312 123.4 54.9242 123.4 54.4999V46.4999C123.4 46.0756 123.231 45.6686 122.931 45.3685C122.631 45.0685 122.224 44.8999 121.8 44.8999H112.2ZM121.8 54.4999H112.2L115.4 48.0999L117.8 52.8999L119.4 49.6999L121.8 54.4999Z" fill="#9CA3AF"/>
<path d="M142.024 50.5001L142.377 50.1466L144.212 48.3122C144.212 48.3122 144.212 48.3122 144.212 48.3122C144.268 48.2559 144.299 48.1797 144.299 48.1001C144.299 48.0206 144.268 47.9444 144.212 47.8881C144.212 47.8881 144.212 47.8881 144.212 47.888M142.024 50.5001L144.212 47.888M142.024 50.5001L142.377 50.8537L144.212 52.6881L144.212 52.6881L144.218 52.6942C144.247 52.7219 144.269 52.755 144.285 52.7916C144.301 52.8282 144.309 52.8675 144.309 52.9074C144.31 52.9472 144.302 52.9867 144.287 53.0236C144.272 53.0604 144.25 53.0939 144.222 53.1221C144.193 53.1503 144.16 53.1725 144.123 53.1876C144.086 53.2027 144.047 53.2103 144.007 53.21C143.967 53.2096 143.928 53.2013 143.891 53.1856C143.854 53.1699 143.821 53.147 143.794 53.1184L143.794 53.1183L143.788 53.1122L141.388 50.7122C141.331 50.656 141.3 50.5797 141.3 50.5001C141.3 50.4206 141.331 50.3443 141.388 50.2881C141.388 50.2881 141.388 50.2881 141.388 50.288L143.788 47.8881M142.024 50.5001L143.788 47.8881M144.212 47.888C144.155 47.8319 144.079 47.8003 144 47.8003C143.92 47.8003 143.844 47.8319 143.788 47.8881M144.212 47.888L143.788 47.8881M143.788 47.8881L143.788 47.8881M143.788 47.8881L143.788 47.8881M152.212 53.1121L152.212 53.1122L154.612 50.7122C154.612 50.7122 154.612 50.7122 154.612 50.7122C154.668 50.6559 154.699 50.5797 154.699 50.5001C154.699 50.4206 154.668 50.3443 154.612 50.2881L152.212 53.1121ZM152.212 53.1121L152.206 53.1184C152.178 53.147 152.145 53.1699 152.108 53.1856L152.306 53.645L152.108 53.1856C152.072 53.2013 152.032 53.2096 151.992 53.21C151.953 53.2103 151.913 53.2027 151.876 53.1876C151.839 53.1725 151.806 53.1503 151.778 53.1221C151.75 53.0939 151.727 53.0604 151.712 53.0236L151.249 53.2129L151.712 53.0236C151.697 52.9867 151.689 52.9472 151.69 52.9074C151.69 52.8675 151.698 52.8282 151.714 52.7916C151.73 52.755 151.753 52.7219 151.781 52.6942L151.781 52.6942L151.788 52.6881L153.622 50.8537L153.976 50.5001L153.622 50.1466L151.788 48.3122C151.788 48.3122 151.788 48.3122 151.788 48.3122C151.731 48.2559 151.7 48.1797 151.7 48.1001C151.7 48.0206 151.731 47.9444 151.788 47.8881C151.844 47.8319 151.92 47.8003 152 47.8003C152.079 47.8003 152.155 47.8319 152.212 47.8881C152.212 47.8881 152.212 47.8881 152.212 47.8881L154.612 50.288L152.212 53.1121ZM149.694 45.4153L149.695 45.4154C149.732 45.4278 149.767 45.4475 149.796 45.4733C149.826 45.4991 149.851 45.5305 149.868 45.5658C149.886 45.601 149.896 45.6394 149.899 45.6787C149.902 45.718 149.897 45.7575 149.884 45.7949L146.684 55.3948L146.684 55.395C146.659 55.4705 146.605 55.533 146.534 55.5686C146.463 55.6042 146.38 55.6101 146.305 55.5849L146.147 56.0593L146.305 55.5849C146.229 55.5598 146.167 55.5057 146.131 55.4345C146.096 55.3633 146.09 55.2809 146.115 55.2054C146.115 55.2054 146.115 55.2053 146.115 55.2053L149.315 45.6054L149.315 45.6052C149.327 45.5678 149.347 45.5332 149.373 45.5034C149.399 45.4737 149.43 45.4493 149.465 45.4316C149.501 45.414 149.539 45.4035 149.578 45.4007C149.617 45.3979 149.657 45.4028 149.694 45.4153Z" fill="#9CA3AF" stroke="#9CA3AF"/>
<path fill-rule="evenodd" clip-rule="evenodd" d="M179 56.9001C180.697 56.9001 182.325 56.2258 183.525 55.0256C184.725 53.8253 185.4 52.1975 185.4 50.5001C185.4 48.8027 184.725 47.1748 183.525 45.9746C182.325 44.7744 180.697 44.1001 179 44.1001C177.302 44.1001 175.674 44.7744 174.474 45.9746C173.274 47.1748 172.6 48.8027 172.6 50.5001C172.6 52.1975 173.274 53.8253 174.474 55.0256C175.674 56.2258 177.302 56.9001 179 56.9001ZM176.6 49.7001C176.812 49.7001 177.015 49.6158 177.165 49.4658C177.315 49.3158 177.4 49.1123 177.4 48.9001C177.4 48.6879 177.315 48.4844 177.165 48.3344C177.015 48.1844 176.812 48.1001 176.6 48.1001C176.387 48.1001 176.184 48.1844 176.034 48.3344C175.884 48.4844 175.8 48.6879 175.8 48.9001C175.8 49.1123 175.884 49.3158 176.034 49.4658C176.184 49.6158 176.387 49.7001 176.6 49.7001ZM182.2 48.9001C182.2 49.1123 182.115 49.3158 181.965 49.4658C181.815 49.6158 181.612 49.7001 181.4 49.7001C181.187 49.7001 180.984 49.6158 180.834 49.4658C180.684 49.3158 180.6 49.1123 180.6 48.9001C180.6 48.6879 180.684 48.4844 180.834 48.3344C180.984 48.1844 181.187 48.1001 181.4 48.1001C181.612 48.1001 181.815 48.1844 181.965 48.3344C182.115 48.4844 182.2 48.6879 182.2 48.9001ZM181.828 53.3281C181.903 53.2538 181.962 53.1655 182.002 53.0684C182.042 52.9713 182.063 52.8673 182.063 52.7622C182.063 52.6571 182.042 52.5531 182.002 52.456C181.961 52.359 181.902 52.2708 181.828 52.1965C181.754 52.1222 181.665 52.0633 181.568 52.0231C181.471 51.983 181.367 51.9623 181.262 51.9623C181.157 51.9624 181.053 51.9831 180.956 52.0234C180.859 52.0636 180.771 52.1226 180.696 52.1969C180.246 52.6468 179.636 52.8996 179 52.8996C178.363 52.8996 177.753 52.6468 177.303 52.1969C177.153 52.0468 176.949 51.9624 176.737 51.9623C176.525 51.9623 176.321 52.0465 176.171 52.1965C176.021 52.3465 175.937 52.55 175.937 52.7622C175.937 52.9744 176.021 53.178 176.171 53.3281C176.542 53.6996 176.983 53.9944 177.469 54.1955C177.954 54.3965 178.474 54.5 179 54.5C179.525 54.5 180.045 54.3965 180.531 54.1955C181.016 53.9944 181.457 53.6996 181.828 53.3281Z" fill="#9CA3AF"/>
<line x1="211.5" y1="42.5" x2="211.5" y2="58.5" stroke="#6B7280"/>
<path d="M237.667 46.5H248.334H237.667ZM237.667 49.1667H248.334H237.667ZM237.667 51.8333H248.334H237.667ZM237.667 54.5H248.334H237.667Z" fill="#9CA3AF"/>
<path d="M237.667 54.5H248.334M237.667 46.5H248.334H237.667ZM237.667 49.1667H248.334H237.667ZM237.667 51.8333H248.334H237.667Z" stroke="#9CA3AF" stroke-width="2" stroke-linecap="round" stroke-linejoin="round"/>
<path fill-rule="evenodd" clip-rule="evenodd" d="M275.192 45.0361C274.888 43.7881 273.112 43.7881 272.808 45.0361C272.763 45.2236 272.674 45.3978 272.549 45.5444C272.423 45.6911 272.265 45.806 272.087 45.8799C271.908 45.9538 271.715 45.9846 271.523 45.9698C271.331 45.9549 271.144 45.8949 270.98 45.7945C269.882 45.1257 268.626 46.3817 269.295 47.4793C269.727 48.1881 269.344 49.1129 268.537 49.3089C267.288 49.6121 267.288 51.3889 268.537 51.6913C268.725 51.7367 268.899 51.8258 269.046 51.9514C269.192 52.0769 269.307 52.2352 269.381 52.4136C269.455 52.5919 269.485 52.7851 269.471 52.9775C269.456 53.17 269.395 53.3561 269.295 53.5209C268.626 54.6185 269.882 55.8745 270.98 55.2057C271.144 55.1052 271.331 55.0449 271.523 55.03C271.715 55.015 271.909 55.0457 272.087 55.1195C272.265 55.1933 272.424 55.3083 272.549 55.4549C272.675 55.6015 272.764 55.7757 272.809 55.9633C273.112 57.2121 274.889 57.2121 275.192 55.9633C275.237 55.7758 275.326 55.6017 275.452 55.4552C275.577 55.3087 275.736 55.1938 275.914 55.12C276.092 55.0462 276.285 55.0155 276.478 55.0304C276.67 55.0453 276.856 55.1053 277.021 55.2057C278.119 55.8745 279.375 54.6185 278.706 53.5209C278.606 53.3561 278.546 53.17 278.531 52.9776C278.516 52.7852 278.546 52.592 278.62 52.4138C278.694 52.2355 278.809 52.0772 278.955 51.9516C279.102 51.8261 279.276 51.7369 279.464 51.6913C280.712 51.3881 280.712 49.6113 279.464 49.3089C279.276 49.2635 279.102 49.1743 278.955 49.0488C278.809 48.9233 278.694 48.765 278.62 48.5866C278.546 48.4083 278.515 48.2151 278.53 48.0226C278.545 47.8302 278.605 47.644 278.706 47.4793C279.375 46.3817 278.119 45.1257 277.021 45.7945C276.856 45.895 276.67 45.9553 276.478 45.9702C276.285 45.9852 276.092 45.9545 275.914 45.8807C275.736 45.8068 275.577 45.6919 275.452 45.5453C275.326 45.3987 275.237 45.2245 275.192 45.0369L275.192 45.0361ZM274 52.9001C274.637 52.9001 275.247 52.6472 275.697 52.1972C276.148 51.7471 276.4 51.1366 276.4 50.5001C276.4 49.8636 276.148 49.2531 275.697 48.803C275.247 48.353 274.637 48.1001 274 48.1001C273.364 48.1001 272.753 48.353 272.303 48.803C271.853 49.2531 271.6 49.8636 271.6 50.5001C271.6 51.1366 271.853 51.7471 272.303 52.1972C272.753 52.6472 273.364 52.9001 274 52.9001Z" fill="#9CA3AF"/>
<line x1="31" y1="68" x2="379" y2="68" stroke="#4B5563"/>
<path d="M31 68.5H379V199.5C379 203.918 375.418 207.5 371 207.5H39C34.5817 207.5 31 203.918 31 199.5V68.5Z" fill="#1F2A37"/>
<rect x="51" y="86.5" width="134.388" height="6" rx="2" fill="#6B7280"/>
<rect x="30.5" y="32" width="349" height="176" rx="8.5" stroke="#4B5563"/>
</svg>
