<svg width="350" height="230" viewBox="0 0 350 230" fill="none" xmlns="http://www.w3.org/2000/svg">
<path d="M42.983 65V72.391C42.983 78.095 39.252 81.961 34 83L33.005 80.849C35.437 79.932 37 77.211 37 75H33V65H42.983ZM57 65V72.391C57 78.095 53.252 81.962 48 83L47.004 80.849C49.437 79.932 51 77.211 51 75H47.017V65H57Z" fill="#E5E7EB"/>
<rect x="33" y="97" width="283" height="8" rx="4" fill="#D1D5DB"/>
<rect x="33" y="113" width="273" height="8" rx="4" fill="#D1D5DB"/>
<rect x="33" y="129" width="262" height="8" rx="4" fill="#D1D5DB"/>
<rect x="33" y="145" width="277" height="8" rx="4" fill="#D1D5DB"/>
<rect x="33" y="161" width="157.066" height="8" rx="4" fill="#D1D5DB"/>
</svg>
