<svg width="350" height="230" viewBox="0 0 350 230" fill="none" xmlns="http://www.w3.org/2000/svg">
<rect x="169.5" y="83" width="11" height="11" rx="3" fill="#D1D5DB"/>
<rect x="75" y="114" width="200" height="3" rx="1.5" fill="#D1D5DB"/>
<rect x="75" y="140.5" width="85.5" height="3" rx="1.5" fill="#D1D5DB"/>
<path d="M172.955 145.085C172.513 145.085 172.132 144.991 171.81 144.804C171.49 144.615 171.242 144.351 171.068 144.014C170.894 143.675 170.807 143.282 170.807 142.835C170.807 142.384 170.894 141.991 171.068 141.653C171.242 141.314 171.49 141.051 171.81 140.864C172.132 140.674 172.513 140.58 172.955 140.58C173.396 140.58 173.777 140.674 174.097 140.864C174.419 141.051 174.667 141.314 174.841 141.653C175.015 141.991 175.102 142.384 175.102 142.835C175.102 143.282 175.015 143.675 174.841 144.014C174.667 144.351 174.419 144.615 174.097 144.804C173.777 144.991 173.396 145.085 172.955 145.085ZM172.96 144.148C173.161 144.148 173.329 144.091 173.463 143.977C173.598 143.862 173.699 143.705 173.767 143.506C173.837 143.307 173.872 143.08 173.872 142.827C173.872 142.573 173.837 142.347 173.767 142.148C173.699 141.949 173.598 141.792 173.463 141.676C173.329 141.561 173.161 141.503 172.96 141.503C172.758 141.503 172.587 141.561 172.449 141.676C172.313 141.792 172.209 141.949 172.139 142.148C172.071 142.347 172.037 142.573 172.037 142.827C172.037 143.08 172.071 143.307 172.139 143.506C172.209 143.705 172.313 143.862 172.449 143.977C172.587 144.091 172.758 144.148 172.96 144.148ZM175.889 145V140.636H177.062V141.398H177.108C177.188 141.127 177.321 140.922 177.509 140.784C177.696 140.644 177.912 140.574 178.156 140.574C178.217 140.574 178.282 140.578 178.352 140.585C178.422 140.593 178.484 140.603 178.537 140.616V141.69C178.48 141.673 178.402 141.658 178.301 141.645C178.201 141.632 178.109 141.625 178.026 141.625C177.848 141.625 177.688 141.664 177.548 141.741C177.41 141.817 177.3 141.923 177.219 142.06C177.139 142.196 177.099 142.353 177.099 142.531V145H175.889Z" fill="#111928"/>
<rect x="189.5" y="140.5" width="85.5" height="3" rx="1.5" fill="#D1D5DB"/>
</svg>
