<svg width="350" height="230" viewBox="0 0 350 230" fill="none" xmlns="http://www.w3.org/2000/svg">
<rect x="64" y="65" width="100" height="100" rx="8" fill="#374151"/>
<path fill-rule="evenodd" clip-rule="evenodd" d="M121.394 109.234C122.774 109.234 123.892 108.062 123.892 106.617C123.892 105.172 122.774 104 121.394 104C120.013 104 118.895 105.172 118.895 106.617C118.895 108.062 120.013 109.234 121.394 109.234ZM114.476 125.079H99.9332C99.1559 125.079 98.6758 124.231 99.0756 123.565L108.828 107.307C109.21 106.67 110.128 106.655 110.527 107.283C112.007 109.613 115.123 114.528 117.8 118.804L120.651 114.022C121.019 113.406 121.882 113.386 122.291 113.984L128.806 123.498C129.265 124.168 128.82 125.086 128.03 125.094L121.698 125.158L114.476 125.079Z" fill="#9CA3AF"/>
<rect x="185" y="65" width="100" height="100" rx="50" fill="#374151"/>
<path fill-rule="evenodd" clip-rule="evenodd" d="M242.394 109.234C243.774 109.234 244.892 108.062 244.892 106.617C244.892 105.172 243.774 104 242.394 104C241.013 104 239.895 105.172 239.895 106.617C239.895 108.062 241.013 109.234 242.394 109.234ZM235.476 125.079H220.933C220.156 125.079 219.676 124.231 220.076 123.565L229.828 107.307C230.21 106.67 231.128 106.655 231.527 107.283C233.007 109.613 236.123 114.528 238.8 118.804L241.651 114.022C242.019 113.406 242.882 113.386 243.291 113.984L249.806 123.498C250.265 124.168 249.82 125.086 249.03 125.094L242.698 125.158L235.476 125.079Z" fill="#9CA3AF"/>
</svg>
