<svg width="350" height="230" viewBox="0 0 350 230" fill="none" xmlns="http://www.w3.org/2000/svg">
<rect x="35" y="64" width="8" height="8" rx="1" fill="#4B5563"/>
<rect x="59" y="64" width="91" height="8" rx="1" fill="#6B7280"/>
<rect x="35" y="83" width="8" height="8" rx="1" fill="#4B5563"/>
<rect x="59" y="83" width="91" height="8" rx="1" fill="#6B7280"/>
<rect x="35" y="102" width="8" height="8" rx="1" fill="#4B5563"/>
<rect x="59" y="102" width="91" height="8" rx="1" fill="#6B7280"/>
<rect x="35" y="121" width="8" height="8" rx="1" fill="#4B5563"/>
<rect x="59" y="121" width="91" height="8" rx="1" fill="#6B7280"/>
<rect x="35" y="140" width="8" height="8" rx="1" fill="#4B5563"/>
<rect x="59" y="140" width="91" height="8" rx="1" fill="#6B7280"/>
<rect x="35" y="159" width="8" height="8" rx="1" fill="#4B5563"/>
<rect x="59" y="159" width="91" height="8" rx="1" fill="#6B7280"/>
<rect x="200" y="64" width="64" height="8" rx="1" fill="#6B7280"/>
<rect x="292" y="64" width="23" height="8" rx="1" fill="#4B5563"/>
<rect x="200" y="83" width="64" height="8" rx="1" fill="#6B7280"/>
<rect x="292" y="83" width="23" height="8" rx="1" fill="#4B5563"/>
<rect x="200" y="102" width="64" height="8" rx="1" fill="#6B7280"/>
<rect x="292" y="102" width="23" height="8" rx="1" fill="#4B5563"/>
<rect x="200" y="121" width="64" height="8" rx="1" fill="#6B7280"/>
<rect x="292" y="121" width="23" height="8" rx="1" fill="#4B5563"/>
<rect x="200" y="140" width="64" height="8" rx="1" fill="#6B7280"/>
<rect x="292" y="140" width="23" height="8" rx="1" fill="#4B5563"/>
<rect x="200" y="159" width="64" height="8" rx="1" fill="#6B7280"/>
<rect x="292" y="159" width="23" height="8" rx="1" fill="#4B5563"/>
</svg>
